<svg width="24" height="24" viewBox="0 0 24 24" fill="none" xmlns="http://www.w3.org/2000/svg">
<path fill-rule="evenodd" clip-rule="evenodd" d="M0 12C0 5.37259 5.37259 0 12 0C18.6274 0 24 5.37259 24 12C24 18.6274 18.6274 24 12 24C5.37259 24 0 18.6274 0 12Z" fill="#3FF2C8"/>
<path d="M23.5 12C23.5 18.3513 18.3513 23.5 12 23.5C5.64873 23.5 0.5 18.3513 0.5 12C0.5 5.64873 5.64873 0.5 12 0.5C18.3513 0.5 23.5 5.64873 23.5 12Z" stroke="black" stroke-opacity="0.097"/>
<path d="M7.99515 5.90072C8.41537 5.66239 8.83872 5.42406 9.25893 5.18887C9.39377 5.11361 9.54743 5.17319 9.68855 5.1481C9.7544 5.16065 9.81085 5.13556 9.86416 5.10106C10.4537 4.72789 11.0401 4.35158 11.636 3.98468C11.8084 3.88119 11.9151 3.74008 11.9715 3.55506C12.0656 3.37631 12.1628 3.19756 12.2694 3C12.4105 3.2791 12.5485 3.53938 12.6771 3.80593C12.721 3.89374 12.7806 3.95645 12.8621 4.00977C14.0004 4.72789 15.1388 5.44602 16.2771 6.16728C16.3649 6.22372 16.4527 6.25822 16.5562 6.24254C16.9921 6.18296 17.3747 6.29899 17.729 6.55613C17.9141 6.69097 18.121 6.79132 18.3625 6.9293C18.0646 6.9293 17.8106 6.9293 17.5566 6.9293C17.5534 6.93871 17.5534 6.94812 17.5503 6.96066C17.8608 7.15823 18.1587 7.37774 18.4817 7.54708C18.7482 7.6882 18.8266 7.86381 18.8266 8.16486C18.8203 10.1217 18.8392 12.0816 18.8517 14.0384C18.8548 14.5904 18.8642 15.1454 18.8642 15.6973C18.8642 15.8134 18.8925 15.8855 18.9991 15.9482C19.3629 16.1646 19.7172 16.3935 20.0684 16.6538C19.8113 16.6538 19.5541 16.6538 19.3001 16.6538C18.9301 16.6538 18.5444 16.566 18.2339 16.8639C17.7228 17.1649 17.2116 17.466 16.7005 17.767C16.0607 18.1465 15.421 18.5291 14.7405 18.9336C14.9349 18.9336 15.0823 18.9336 15.2391 18.9336C15.2234 19.0057 15.1701 19.0151 15.1325 19.0371C14.7656 19.2629 14.3924 19.4855 14.0287 19.7144C13.9503 19.7646 13.8719 19.7928 13.7809 19.7897C13.4799 19.7552 13.1945 19.7866 12.9593 20.0029C12.7649 20.1158 12.5673 20.2256 12.376 20.3416C12.3227 20.373 12.2694 20.4043 12.2067 20.373C11.2753 19.8179 10.344 19.2629 9.41259 18.7047C9.28088 18.5949 9.11468 18.5322 8.97983 18.4287C8.70073 18.2217 8.39655 18.1151 8.04846 18.1653C7.96066 18.1778 7.88853 18.1402 7.81641 18.0932C7.44637 17.8486 7.07633 17.6071 6.70629 17.3625C6.66866 17.3374 6.62162 17.3249 6.5934 17.2559C6.72511 17.2559 6.84427 17.2559 6.9603 17.2559C6.77528 17.1179 6.57772 17.0207 6.40211 16.8921C6.12301 16.6914 5.8251 16.6099 5.48328 16.635C5.15715 16.6569 4.83101 16.6412 4.4892 16.6412C4.52056 16.5973 4.53624 16.5723 4.55505 16.5472C4.66481 16.5064 4.77143 16.4594 4.83728 16.3559C4.86237 16.3527 4.89373 16.359 4.9 16.3214C4.90941 16.312 4.92195 16.2994 4.93136 16.29C4.95645 16.2869 4.98781 16.2963 4.99408 16.2555C5.04112 16.2587 5.07248 16.2367 5.08816 16.1928C5.11011 16.1897 5.13206 16.1897 5.15401 16.1865C5.3014 16.0987 5.43938 15.9984 5.59304 15.9231C5.78119 15.8322 5.84705 15.6973 5.80315 15.4998C5.80315 15.4715 5.80315 15.4402 5.80315 15.412C5.80315 15.2959 5.80315 15.1799 5.80315 15.0639C5.81255 14.8977 5.81569 14.7283 5.80001 14.5621C5.80315 14.4994 5.80628 14.4367 5.80628 14.374C5.80001 13.2639 5.7906 12.1569 5.78433 11.0468C5.78119 10.7551 5.78119 10.4635 5.77806 10.1718C5.77806 9.73281 5.77492 9.29379 5.77492 8.85789C5.77492 8.51921 5.78433 8.18054 5.77492 7.84186C5.77179 7.71642 5.81255 7.64429 5.91604 7.57844C6.74706 7.05788 7.5718 6.53418 8.39969 6.01048C8.43105 5.98853 8.47808 5.97912 8.47808 5.9164C8.42164 5.9164 8.36206 5.92267 8.30874 5.9164C8.19585 5.92267 8.08609 5.96971 7.99515 5.90072ZM12.9091 18.8803L12.9248 18.8834L12.9374 18.8771C13.0722 18.8082 13.2196 18.7548 13.3168 18.6294C13.3889 18.6325 13.4454 18.6043 13.4736 18.5353C13.5457 18.5385 13.6022 18.5134 13.6304 18.4413C13.7119 18.4444 13.7684 18.4005 13.8186 18.344C13.8719 18.3284 13.9346 18.3221 13.9471 18.25C14.0318 18.2594 14.082 18.2061 14.1353 18.1528C14.2011 18.1433 14.2513 18.1089 14.2921 18.0587C14.5241 17.9426 14.7531 17.8235 14.9506 17.651C15.0259 17.6541 15.0792 17.6259 15.1074 17.5569C15.1827 17.5632 15.236 17.535 15.2642 17.4629C15.3395 17.4691 15.3928 17.4409 15.421 17.3688C15.5057 17.3782 15.5559 17.3249 15.6092 17.2716C15.675 17.259 15.7252 17.2308 15.766 17.1775C15.8318 17.1649 15.882 17.1367 15.9228 17.0834C15.9886 17.0709 16.0419 17.0426 16.0795 16.9893C16.2865 16.9109 16.459 16.7729 16.6754 16.6538C13.7339 16.6538 10.8269 16.6538 7.87912 16.6538C8.02965 16.7353 8.13 16.8231 8.2523 16.867C8.28993 16.8953 8.32442 16.9235 8.36519 16.9486C9.1429 17.4127 9.92061 17.8768 10.7014 18.3409C11.2157 18.6451 11.7332 18.9493 12.2475 19.2535C12.4764 19.1845 12.6677 19.0465 12.8527 18.9022L12.8496 18.9054C12.8778 18.9211 12.9029 18.9116 12.9091 18.8803C12.9123 18.8803 12.9091 18.8803 12.9091 18.8803ZM9.7105 13.2952C9.80771 13.2764 9.89238 13.2388 9.93315 13.1416C10.2028 13.0443 10.4349 12.8844 10.6544 12.6994C10.7516 12.6774 10.8363 12.6429 10.8771 12.5457C10.9021 12.5426 10.9335 12.5489 10.9523 12.5363C11.1907 12.3889 11.429 12.2384 11.6673 12.091C11.7206 12.0565 11.7238 12.0126 11.7238 11.9562C11.7206 11.075 11.7206 10.1938 11.7175 9.31574C11.7175 8.9457 11.7175 8.5788 11.7144 8.20876V8.19935C11.7144 7.55962 11.7144 6.91676 11.7144 6.27703C11.7081 6.27703 11.6987 6.2739 11.6924 6.2739C11.5387 6.57808 11.3819 6.8854 11.2283 7.18959C9.96451 9.6795 8.70387 12.1694 7.44323 14.6562C7.41814 14.6876 7.39306 14.7158 7.42128 14.7848C7.46205 14.7221 7.54672 14.7346 7.54985 14.6468C7.79132 14.5747 7.98888 14.4273 8.1739 14.2674H8.17076C8.30874 14.2297 8.42164 14.1545 8.51885 14.0478C8.67251 14.0165 8.77913 13.9036 8.90771 13.8283C8.97356 13.7907 9.0645 13.7687 9.08645 13.6747C9.19621 13.6653 9.29029 13.6245 9.33733 13.5179C9.49412 13.4991 9.60701 13.4018 9.7105 13.2952ZM14.8565 14.512C14.7531 14.421 14.6339 14.3583 14.5147 14.2956C14.499 14.283 14.4865 14.2642 14.4677 14.2548C13.853 13.8722 13.2384 13.4865 12.6238 13.1071C12.238 12.8687 12.2349 12.8719 11.868 13.1572C11.8398 13.1698 11.8116 13.1823 11.7833 13.198C10.4913 14.0039 9.19935 14.8099 7.90421 15.6189C7.8854 15.6315 7.85404 15.6377 7.86344 15.6816C7.89794 15.6816 7.93557 15.6816 7.97007 15.6816C10.5603 15.6816 13.1506 15.6816 15.7409 15.6816C15.7816 15.6816 15.8255 15.6785 15.8663 15.6754C16.1454 15.6754 16.4214 15.6754 16.7412 15.6754C16.089 15.274 15.4743 14.8914 14.8565 14.512ZM15.8506 12.2353C15.8412 12.2008 15.8349 12.1663 15.8193 12.1349C15.6468 11.8088 15.4743 11.4795 15.2987 11.1534C15.2987 11.0938 15.2642 11.0468 15.2391 10.9966C14.9443 10.4164 14.6464 9.8363 14.3485 9.25616C14.176 8.90807 14.0161 8.55371 13.8186 8.21817C13.8123 8.20562 13.8091 8.19308 13.8029 8.18054C13.7966 8.16172 13.7935 8.13977 13.7841 8.12095C13.436 7.43419 13.0879 6.74429 12.7367 6.05752C12.7273 6.04184 12.721 6.01989 12.6928 6.03557C12.6928 6.41188 12.6928 6.78505 12.6928 7.16136C12.6896 7.20213 12.6865 7.24603 12.6865 7.2868C12.6865 8.82026 12.6865 10.3537 12.6834 11.8872C12.6834 11.9844 12.721 12.0346 12.7994 12.0848C13.4328 12.4767 14.0632 12.875 14.6966 13.267C15.2172 13.59 15.7409 13.913 16.2646 14.236C16.5374 14.4179 16.8102 14.6029 17.105 14.7503C17.1113 14.7566 17.1175 14.7628 17.1238 14.7691C17.1238 14.7691 17.1301 14.7628 17.1332 14.7597C17.1269 14.7534 17.1207 14.7471 17.1144 14.744C17.1019 14.7095 17.0956 14.675 17.0768 14.6437C16.6691 13.8346 16.2614 13.0349 15.8506 12.2353ZM17.8921 10.1907C17.8921 9.6356 17.889 9.07741 17.8984 8.52235C17.9015 8.36242 17.8576 8.2652 17.704 8.21817C17.6726 8.19935 17.6412 8.18054 17.613 8.15858C17.6067 8.15231 17.6005 8.13977 17.5911 8.13663C16.3931 7.37774 15.1952 6.62198 13.9942 5.86309C13.8781 5.79097 13.7621 5.71884 13.6461 5.64985C13.7527 5.9164 13.8562 6.17041 14.0036 6.40561C14.0098 6.42129 14.0067 6.44324 14.0349 6.43383L14.0318 6.43069C14.0161 6.51223 14.0726 6.56867 14.1039 6.62826C14.8001 8.00806 15.4994 9.38473 16.1956 10.7614C16.6001 11.5579 17.0046 12.3513 17.4092 13.1447C17.5597 13.4489 17.7071 13.7562 17.867 14.0823C17.8827 14.0416 17.889 14.0322 17.889 14.0227C17.8984 12.7464 17.8952 11.4701 17.8921 10.1907ZM10.4004 5.93208C10.3596 5.91013 10.3314 5.94463 10.3032 5.96344C9.09586 6.72547 7.88853 7.49063 6.67807 8.25266C6.62162 8.28716 6.60281 8.32792 6.60281 8.39064C6.60594 10.0715 6.60594 11.7523 6.60908 13.4301C6.60908 13.659 6.60908 13.8879 6.60908 14.1168C6.61848 14.1168 6.62789 14.1168 6.6373 14.1168C8.07355 11.282 9.50667 8.44709 10.9429 5.61222C10.9304 5.60281 10.9147 5.5934 10.9021 5.584C10.7454 5.68748 10.5917 5.78783 10.4349 5.89132C10.4161 5.89759 10.391 5.90072 10.4004 5.93208Z" fill="#FE2D55"/>
<path d="M5.76243 10.1934C5.76556 10.485 5.76556 10.7766 5.7687 11.0683C5.77497 12.1784 5.78438 13.2854 5.79065 14.3955C5.79065 14.4582 5.78438 14.5209 5.78438 14.5836C5.63072 14.5836 5.47392 14.5868 5.32026 14.5868C5.28263 14.3892 5.30458 14.1917 5.30458 13.9972C5.29831 12.7679 5.29831 11.5355 5.29831 10.3063C5.29831 10.2686 5.30145 10.2341 5.30458 10.1965C5.45511 10.1934 5.60877 10.1934 5.76243 10.1934Z" fill="#F95DDC"/>
<path d="M4.53938 16.5566C4.5237 16.5817 4.50488 16.6068 4.47352 16.6507C4.81534 16.6507 5.14461 16.6695 5.46761 16.6444C5.81256 16.6194 6.11047 16.7009 6.38643 16.9016C6.56204 17.0302 6.75961 17.1274 6.94463 17.2654C6.82546 17.2654 6.70943 17.2654 6.57772 17.2654C6.60595 17.3343 6.65299 17.3469 6.69062 17.372C7.06066 17.6166 7.43383 17.858 7.80073 18.1026C7.87286 18.1497 7.94498 18.1873 8.03279 18.1748C8.38401 18.1246 8.68506 18.2312 8.96416 18.4382C9.10214 18.5385 9.26521 18.6013 9.39691 18.7142C9.38123 18.7267 9.35928 18.7486 9.34988 18.7455C9.18367 18.6985 9.01433 18.7392 8.84813 18.7016C8.77914 18.6859 8.68506 18.6389 8.63802 18.7518C8.46868 18.6577 8.29934 18.573 8.13628 18.4696C8.06101 18.4225 7.98575 18.3974 7.90108 18.41C7.57181 18.457 7.29585 18.3504 7.03243 18.156C6.73138 17.9333 6.41152 17.7357 6.0603 17.5037C6.21709 17.5037 6.33626 17.5037 6.45542 17.5037C6.45856 17.4911 6.4617 17.4786 6.46483 17.4661C6.1387 17.2748 5.8157 17.0803 5.48643 16.8953C5.44566 16.8734 5.38608 16.8765 5.33276 16.8765C4.94705 16.8765 4.56133 16.8765 4.17248 16.8765C4.1223 16.8765 4.07213 16.8922 4 16.8483C4.2007 16.7542 4.33554 16.5974 4.53938 16.5566Z" fill="#87A3F3"/>
<path d="M8.64117 18.7515C8.68821 18.6386 8.78229 18.6857 8.85128 18.7014C9.01748 18.739 9.18996 18.6951 9.35303 18.7453C9.36557 18.7484 9.38439 18.7233 9.40007 18.7139C10.3314 19.269 11.2628 19.824 12.1942 20.3822C12.0875 20.4763 11.9558 20.5327 11.8398 20.608C11.7896 20.6394 11.752 20.6205 11.7112 20.5955C10.6921 19.9808 9.66662 19.3662 8.64117 18.7515Z" fill="#06E8FB"/>
<path d="M7.99516 5.90039C8.08924 5.96938 8.19586 5.92234 8.29621 5.93489C8.35266 5.94116 8.4091 5.93489 8.46555 5.93489C8.46869 6.00074 8.42165 6.01015 8.38715 6.02896C7.55927 6.55266 6.73139 7.0795 5.90351 7.59692C5.79688 7.66278 5.75925 7.7349 5.76239 7.86034C5.76866 8.19902 5.76239 8.5377 5.76239 8.87638C5.60873 8.84815 5.46761 8.74153 5.30141 8.81366C5.29827 8.54397 5.30141 8.27114 5.292 8.00146C5.28887 7.91679 5.34218 7.88543 5.40176 7.8478C6.22023 7.33037 7.04184 6.81608 7.86032 6.29865C7.90736 6.26729 7.9544 6.23593 8.03593 6.18262C7.8415 6.18262 7.68471 6.18262 7.53105 6.18262C7.6753 6.06346 7.81955 5.95684 7.99516 5.90039Z" fill="#F95DDC"/>
<path d="M5.29828 8.81709C5.46448 8.74496 5.6056 8.85158 5.75926 8.87981C5.75926 9.31883 5.76239 9.75786 5.76239 10.1938C5.60873 10.1938 5.45507 10.1938 5.30141 10.1938C5.30141 9.73277 5.29828 9.27493 5.29828 8.81709Z" fill="#F641E0"/>
<path d="M5.7875 15.0863C5.7875 15.2023 5.7875 15.3183 5.7875 15.4344C5.75614 15.4657 5.75614 15.4939 5.7875 15.5222C5.8314 15.7197 5.76555 15.8546 5.5774 15.9455C5.42374 16.0176 5.28262 16.118 5.13837 16.2089C5.1415 16.1901 5.1415 16.1713 5.14464 16.1525C5.31084 16.0835 5.33907 15.9486 5.32652 15.7856C5.30457 15.5222 5.28262 15.2587 5.32652 14.9922C5.48018 15.0047 5.63384 15.0455 5.7875 15.0863Z" fill="#F95DDC"/>
<path d="M11.9715 3.55501C11.912 3.74003 11.8053 3.87801 11.636 3.98463C11.0402 4.3484 10.4538 4.72784 9.86421 5.10102C9.8109 5.13551 9.75445 5.16373 9.6886 5.14806C10.2154 4.81251 10.7391 4.47697 11.266 4.14456C11.3318 4.10379 11.3757 4.05362 11.4102 3.98777C11.5325 3.74316 11.658 3.49856 11.7865 3.23828C11.8555 3.35431 11.9151 3.45466 11.9715 3.55501Z" fill="#F95DDC"/>
<path d="M18.2308 16.8667C18.5413 16.5688 18.927 16.6566 19.297 16.6566C19.3911 16.7225 19.4852 16.7852 19.6012 16.8667C19.1277 16.8667 18.6793 16.8667 18.2308 16.8667Z" fill="#06E8FB"/>
<path d="M5.78747 15.0859C5.63381 15.0452 5.48328 15.0044 5.32335 14.9887C5.32021 14.8539 5.32021 14.719 5.31708 14.5842C5.47074 14.5842 5.62753 14.5811 5.78119 14.5811C5.80001 14.7504 5.79687 14.9166 5.78747 15.0859Z" fill="#F641E0"/>
<path d="M12.9562 20.0089C13.1914 19.7925 13.4768 19.7611 13.7778 19.7956C13.5427 20.012 13.2636 20.0653 12.9562 20.0089Z" fill="#06E8FB"/>
<path d="M4.8216 16.3682C4.75575 16.4716 4.64912 16.5187 4.53937 16.5595C4.59895 16.4403 4.71184 16.4058 4.8216 16.3682Z" fill="#87A3F3"/>
<path d="M5.07253 16.2113C5.05685 16.2552 5.02549 16.2771 4.97845 16.274C4.991 16.227 5.02549 16.2081 5.07253 16.2113Z" fill="#87A3F3"/>
<path d="M5.1415 16.1489C5.13836 16.1677 5.13836 16.1866 5.13523 16.2054C5.11328 16.2085 5.09133 16.2085 5.07251 16.2116C5.07878 16.1771 5.11328 16.1646 5.1415 16.1489Z" fill="#87A3F3"/>
<path d="M4.97843 16.2744C4.97216 16.312 4.9408 16.3057 4.91571 16.3089C4.92512 16.2744 4.95021 16.2712 4.97843 16.2744Z" fill="#87A3F3"/>
<path d="M4.88437 16.3369C4.8781 16.3745 4.84674 16.3682 4.82166 16.3714C4.83106 16.3369 4.85615 16.3337 4.88437 16.3369Z" fill="#87A3F3"/>
<path d="M4.91632 16.3057C4.90673 16.3153 4.89393 16.3281 4.88434 16.3377C4.88434 16.3185 4.89713 16.3089 4.91632 16.3057Z" fill="#87A3F3"/>
<path d="M6.60913 13.43C6.63108 13.3955 6.65931 13.3641 6.67812 13.3265C7.65966 11.3885 8.64121 9.44736 9.62275 7.50936C9.86421 7.03584 10.1057 6.56231 10.344 6.08566C10.3691 6.03548 10.4099 5.99158 10.4036 5.92886V5.932C10.4161 5.91632 10.4255 5.90064 10.4381 5.88496C10.5949 5.78147 10.7485 5.68112 10.9053 5.57764C10.9179 5.58704 10.9336 5.59645 10.9461 5.60586C9.50672 8.44387 8.07047 11.2787 6.63735 14.1136C6.62795 14.1136 6.61854 14.1136 6.60913 14.1136C6.60913 13.8847 6.60913 13.6558 6.60913 13.43Z" fill="#F95DDC"/>
<path d="M16.0765 16.9981C16.0639 16.9292 16.1549 16.9386 16.1674 16.8758C13.527 16.8758 10.8865 16.8758 8.24921 16.8758C8.12691 16.8319 8.02656 16.7441 7.87604 16.6626C10.8238 16.6626 13.7308 16.6626 16.6723 16.6626C16.459 16.7818 16.2866 16.9197 16.0765 16.9981Z" fill="#87A3F3"/>
<path d="M17.6162 8.16157C17.3653 8.1647 17.1176 8.1647 16.8667 8.16784C16.7915 8.16784 16.7381 8.13021 16.6817 8.09258C15.8381 7.55947 14.9914 7.02636 14.1479 6.49326C14.1134 6.47131 14.0758 6.45249 14.0381 6.43368L14.0413 6.43681C14.0319 6.4274 14.0224 6.418 14.0099 6.40859C13.8625 6.17653 13.759 5.92252 13.6524 5.65283C13.7684 5.72496 13.8845 5.79395 14.0005 5.86607C15.1984 6.62183 16.3963 7.38072 17.5974 8.13961C17.6037 8.14275 17.6099 8.15216 17.6162 8.16157Z" fill="#F641E0"/>
<path d="M17.4186 13.1476C17.4217 12.2758 17.4217 11.404 17.4249 10.5354C17.4249 10.4194 17.428 10.3065 17.428 10.1904C17.5848 10.1904 17.7384 10.1904 17.8952 10.1904C17.8984 11.4667 17.8984 12.7462 17.8984 14.0225C17.8984 14.0319 17.8921 14.0413 17.8764 14.0821C17.7165 13.7591 17.5691 13.4518 17.4186 13.1476Z" fill="#87A3F3"/>
<path d="M10.874 12.5453C10.9304 12.4575 11.0245 12.4198 11.1092 12.3759C11.2252 12.3164 11.2503 12.2348 11.2503 12.1125C11.2471 11.2752 11.2471 10.4348 11.2503 9.59752C11.2503 9.5348 11.2534 9.47208 11.2565 9.40936C11.3443 9.39682 11.4447 9.44386 11.52 9.37173C11.5795 9.31528 11.6454 9.31215 11.7175 9.31528C11.7207 10.1965 11.7207 11.0777 11.7238 11.9557C11.7238 12.009 11.7207 12.0561 11.6673 12.0906C11.429 12.238 11.1907 12.3885 10.9524 12.5359C10.9273 12.5484 10.899 12.5453 10.874 12.5453Z" fill="#F641E0"/>
<path d="M15.1106 11.8868C14.891 11.5042 14.7029 11.1028 14.5022 10.7077C14.2921 10.2906 14.082 9.87042 13.875 9.45021C14.0098 9.32477 14.1823 9.29028 14.3517 9.24951C14.6496 9.82966 14.9443 10.4098 15.2423 10.9899C15.2673 11.0401 15.3018 11.0872 15.3018 11.1467C15.2391 11.2502 15.2862 11.3694 15.2611 11.4791C15.2266 11.6234 15.2768 11.799 15.1106 11.8868Z" fill="#F641E0"/>
<path d="M14.1667 14.5873C13.7245 14.3176 13.2824 14.0479 12.8402 13.7751C12.5141 13.5713 12.1911 13.3643 11.8649 13.1605C12.2318 12.8751 12.235 12.872 12.6207 13.1103C13.2385 13.4897 13.85 13.8754 14.4646 14.258C14.4834 14.2674 14.496 14.2863 14.5116 14.2988C14.4301 14.4305 14.3674 14.5904 14.1667 14.5873Z" fill="#F641E0"/>
<path d="M16.2646 14.2324C16.1486 13.922 15.973 13.6366 15.8319 13.3387C15.7566 13.1788 15.6782 13.022 15.5998 12.8652C15.7409 12.7931 15.7001 12.6457 15.7315 12.5296C15.7597 12.4262 15.744 12.307 15.8538 12.2349C16.2615 13.0345 16.6723 13.8342 17.0799 14.637C17.0956 14.6683 17.105 14.706 17.1176 14.7373L17.1082 14.7467C16.8103 14.5962 16.5374 14.4143 16.2646 14.2324Z" fill="#87A3F3"/>
<path d="M17.8922 10.1905C17.7354 10.1905 17.5817 10.1905 17.4249 10.1905C17.4218 9.69821 17.4186 9.20273 17.4218 8.71039C17.4218 8.60377 17.3967 8.53792 17.2995 8.48461C17.174 8.41875 17.058 8.33408 16.9482 8.22119C17.1991 8.22119 17.4531 8.22119 17.704 8.22119C17.8545 8.26823 17.9016 8.36544 17.8984 8.52538C17.889 9.08043 17.8953 9.63549 17.8922 10.1905Z" fill="#F641E0"/>
<path d="M13.8029 8.17771C13.7966 8.17771 13.7935 8.18084 13.7872 8.18084C13.2447 8.22788 13.2447 8.22788 13.0001 7.75122C12.8997 7.55366 12.7931 7.3561 12.6896 7.15853C12.6896 6.78222 12.6896 6.40905 12.6896 6.03274C12.7179 6.01706 12.7273 6.03901 12.7335 6.05469C13.0816 6.74146 13.4328 7.43136 13.7809 8.11812C13.7903 8.13694 13.7966 8.15889 13.8029 8.17771Z" fill="#F95DDC"/>
<path d="M15.8663 15.6751C15.4963 15.4055 15.0886 15.1922 14.7092 14.9351C14.6088 14.8692 14.5085 14.8065 14.4081 14.7406C14.5838 14.7156 14.7468 14.6622 14.8566 14.5117C15.4744 14.8912 16.089 15.2737 16.7444 15.6751C16.4214 15.6751 16.1454 15.6751 15.8663 15.6751Z" fill="#87A3F3"/>
<path d="M11.7112 8.19889C11.5984 8.19575 11.4823 8.18948 11.3694 8.19575C11.2754 8.19889 11.2409 8.16753 11.244 8.07032C11.2503 7.82572 11.2471 7.58111 11.244 7.33965C11.244 7.28947 11.2597 7.23616 11.222 7.18913C11.3757 6.88494 11.5325 6.57762 11.6862 6.27344C11.6924 6.27344 11.7018 6.27657 11.7081 6.27657C11.7112 6.9163 11.7112 7.55916 11.7112 8.19889Z" fill="#F95DDC"/>
<path d="M14.3485 9.25283C14.1792 9.2936 14.0067 9.32809 13.8719 9.45353C13.6461 9.06154 13.4611 8.65074 13.2384 8.21484C13.4485 8.21484 13.6335 8.21484 13.8185 8.21484C14.0161 8.55039 14.176 8.90475 14.3485 9.25283Z" fill="#F95DDC"/>
<path d="M15.8506 12.2347C15.7409 12.3037 15.7566 12.4229 15.7283 12.5295C15.697 12.6455 15.7377 12.7898 15.5966 12.865C15.4336 12.5389 15.2705 12.2159 15.1074 11.8898C15.2768 11.7988 15.2235 11.6264 15.2579 11.4852C15.283 11.3786 15.236 11.2595 15.2987 11.1528C15.4712 11.479 15.6468 11.8051 15.8193 12.1344C15.8381 12.1657 15.8412 12.2002 15.8506 12.2347Z" fill="#F95DDC"/>
<path d="M11.7144 9.31547C11.6423 9.31234 11.5764 9.31547 11.5168 9.37192C11.4416 9.44405 11.3412 9.39701 11.2534 9.40955C11.2503 9.04579 11.2534 8.68516 11.2471 8.32139C11.2471 8.22731 11.2879 8.2085 11.3694 8.21163C11.4823 8.21477 11.5984 8.2085 11.7112 8.2085C11.7112 8.57853 11.7144 8.94857 11.7144 9.31547Z" fill="#F95DDC"/>
<path d="M14.8566 14.5115C14.7468 14.662 14.5838 14.7153 14.4082 14.7404C14.3266 14.6871 14.2482 14.6369 14.1667 14.5836C14.3674 14.5868 14.4301 14.4268 14.5148 14.292C14.6339 14.3578 14.7531 14.4206 14.8566 14.5115Z" fill="#F95DDC"/>
<path d="M9.93317 13.1414C10.1558 12.9658 10.3847 12.7964 10.6544 12.6992C10.4349 12.8842 10.2029 13.0442 9.93317 13.1414Z" fill="#F641E0"/>
<path d="M12.2443 19.2599C12.4419 19.1345 12.6332 18.9996 12.8496 18.9087C12.6645 19.0529 12.4732 19.1909 12.2443 19.2599Z" fill="#06E8FB"/>
<path d="M14.2889 18.0649C14.3015 17.974 14.3893 17.9677 14.4457 17.9332C14.6119 17.8391 14.7593 17.7105 14.9475 17.6572C14.7531 17.8297 14.521 17.9489 14.2889 18.0649Z" fill="#87A3F3"/>
<path d="M7.54987 14.647C7.74116 14.4934 7.93872 14.346 8.17391 14.2676C7.98889 14.4275 7.79133 14.5749 7.54987 14.647Z" fill="#F641E0"/>
<path d="M8.51886 14.048C8.67879 13.8786 8.87949 13.772 9.08646 13.6748C9.06765 13.772 8.97357 13.7908 8.90771 13.8285C8.77914 13.9037 8.67252 14.0166 8.51886 14.048Z" fill="#F641E0"/>
<path d="M12.9405 18.8487C13.0534 18.7515 13.1757 18.6731 13.3199 18.6323C13.2196 18.7578 13.0753 18.8111 12.9405 18.8801C12.9405 18.8675 12.9405 18.8581 12.9405 18.8487Z" fill="#87A3F3"/>
<path d="M9.33734 13.5176C9.4471 13.4172 9.55999 13.32 9.71365 13.2949C9.60703 13.4015 9.49414 13.4988 9.33734 13.5176Z" fill="#F641E0"/>
<path d="M8.17395 14.2674C8.26176 14.1482 8.37779 14.0792 8.52204 14.0479C8.42482 14.1513 8.31193 14.2297 8.17395 14.2674Z" fill="#F641E0"/>
<path d="M9.08649 13.6744C9.15234 13.596 9.23701 13.5395 9.33736 13.5176C9.28719 13.6242 9.19624 13.665 9.08649 13.6744Z" fill="#F641E0"/>
<path d="M9.71051 13.2953C9.75441 13.2012 9.83908 13.1636 9.93316 13.1416C9.89239 13.2388 9.80772 13.2764 9.71051 13.2953Z" fill="#F641E0"/>
<path d="M10.6513 12.6996C10.6952 12.6055 10.783 12.571 10.874 12.5459C10.8332 12.6462 10.7485 12.6807 10.6513 12.6996Z" fill="#F641E0"/>
<path d="M7.44323 14.6556C7.48086 14.6807 7.51222 14.6305 7.54985 14.6462C7.54671 14.734 7.45891 14.7246 7.42128 14.7841C7.39305 14.7183 7.42128 14.6869 7.44323 14.6556Z" fill="#F641E0"/>
<path d="M15.421 17.3782C15.4649 17.3123 15.5245 17.2747 15.6092 17.281C15.5559 17.3311 15.5057 17.3876 15.421 17.3782Z" fill="#87A3F3"/>
<path d="M13.9471 18.2532C13.9942 18.1873 14.0506 18.1497 14.1353 18.156C14.082 18.2124 14.0318 18.2626 13.9471 18.2532Z" fill="#87A3F3"/>
<path d="M13.6335 18.4413C13.6774 18.3755 13.737 18.3347 13.8217 18.3441C13.7684 18.4006 13.7151 18.4476 13.6335 18.4413Z" fill="#87A3F3"/>
<path d="M15.9197 17.0925C15.9416 17.0079 16.0043 16.9953 16.0765 16.9985C16.0388 17.0518 15.9855 17.08 15.9197 17.0925Z" fill="#87A3F3"/>
<path d="M15.606 17.281C15.628 17.1964 15.6907 17.1838 15.7628 17.1869C15.7252 17.2403 15.6719 17.2685 15.606 17.281Z" fill="#87A3F3"/>
<path d="M15.2642 17.4725C15.2987 17.4098 15.352 17.3816 15.421 17.3784C15.3928 17.4474 15.3395 17.4788 15.2642 17.4725Z" fill="#87A3F3"/>
<path d="M15.1074 17.5628C15.1388 17.497 15.1952 17.475 15.2642 17.4688C15.236 17.5409 15.1795 17.5691 15.1074 17.5628Z" fill="#87A3F3"/>
<path d="M14.9506 17.6571C14.982 17.5912 15.0416 17.5693 15.1074 17.563C15.0792 17.6351 15.0227 17.6633 14.9506 17.6571Z" fill="#87A3F3"/>
<path d="M14.1353 18.1589C14.1573 18.0774 14.22 18.0617 14.2921 18.0648C14.2513 18.115 14.198 18.1495 14.1353 18.1589Z" fill="#87A3F3"/>
<path d="M13.4767 18.5355C13.5081 18.4696 13.5677 18.4477 13.6335 18.4414C13.6053 18.5135 13.5489 18.5386 13.4767 18.5355Z" fill="#87A3F3"/>
<path d="M13.3199 18.6292C13.3513 18.5634 13.4109 18.5414 13.4767 18.5352C13.4485 18.6041 13.3921 18.6355 13.3199 18.6292Z" fill="#87A3F3"/>
<path d="M15.7629 17.1868C15.7848 17.1021 15.8475 17.0896 15.9197 17.0927C15.882 17.146 15.8287 17.1742 15.7629 17.1868Z" fill="#87A3F3"/>
<path d="M13.8217 18.347C13.8311 18.2717 13.8907 18.2655 13.9503 18.2529C13.9346 18.3251 13.875 18.3313 13.8217 18.347Z" fill="#87A3F3"/>
<path d="M5.7875 15.5214C5.75614 15.4932 5.75614 15.4618 5.7875 15.4336C5.7875 15.4618 5.7875 15.4932 5.7875 15.5214Z" fill="#F641E0"/>
<path d="M12.8464 18.9119C12.859 18.8806 12.8841 18.8774 12.9123 18.8774C12.9029 18.9119 12.8778 18.9213 12.8464 18.9119Z" fill="#06E8FB"/>
<path d="M17.1146 14.7378C17.121 14.7442 17.1274 14.7506 17.1338 14.7538C17.1306 14.757 17.1242 14.7634 17.1242 14.7634C17.1178 14.757 17.1114 14.7506 17.105 14.7442C17.105 14.7474 17.1146 14.7378 17.1146 14.7378Z" fill="#87A3F3"/>
<path d="M12.9412 18.8491C12.938 18.8587 12.938 18.8683 12.938 18.8779L12.9252 18.8843L12.9092 18.8811C12.9092 18.8587 12.9252 18.8523 12.9412 18.8491Z" fill="#06E8FB"/>
</svg>
