<svg width="24" height="24" viewBox="0 0 24 24" fill="none" xmlns="http://www.w3.org/2000/svg">
<path d="M12 24C18.6274 24 24 18.6274 24 12C24 5.37258 18.6274 0 12 0C5.37258 0 0 5.37258 0 12C0 18.6274 5.37258 24 12 24Z" fill="#F5F5F5"/>
<path d="M23.5 12C23.5 18.3513 18.3513 23.5 12 23.5C5.64873 23.5 0.5 18.3513 0.5 12C0.5 5.64873 5.64873 0.5 12 0.5C18.3513 0.5 23.5 5.64873 23.5 12Z" stroke="black" stroke-opacity="0.097"/>
<path d="M17.5252 15.4541L14.0603 11.9892L17.5252 8.52425L15.4651 6.46387L12.0001 9.92878L8.535 6.46387L6.47485 8.52425L9.93976 11.9892L6.47485 15.4541L8.535 17.5142L12.0001 14.0493L15.4651 17.5142L17.5252 15.4541Z" fill="#1B75BC"/>
<path d="M10.797 4.20314L8.7735 6.22663L10.4781 7.93124L12.0001 6.39089L13.5219 7.93124L15.2268 6.22663L13.2033 4.20314L12.0001 3L10.797 4.20314ZM10.797 19.7965L8.7735 17.773L10.4781 16.0684L12.0001 17.6085L13.5219 16.0684L15.2268 17.773L13.2033 19.7965L12.0001 20.9997L10.797 19.7965Z" fill="#3C3C3B"/>
</svg>
