<svg width="24" height="24" viewBox="0 0 24 24" fill="none" xmlns="http://www.w3.org/2000/svg">
<path d="M12 24C18.6274 24 24 18.6274 24 12C24 5.37258 18.6274 0 12 0C5.37258 0 0 5.37258 0 12C0 18.6274 5.37258 24 12 24Z" fill="#F5F5F5"/>
<path fill-rule="evenodd" clip-rule="evenodd" d="M14.2541 16.9582L17.0034 9.0536C17.7004 7.0496 16.6409 4.86 14.6369 4.16299C12.6329 3.46598 10.4433 4.5255 9.74627 6.5295L6.99698 14.4341C6.29996 16.4381 7.35948 18.6277 9.36348 19.3247C11.3675 20.0217 13.5571 18.9622 14.2541 16.9582Z" fill="#5FBCD3"/>
<path fill-rule="evenodd" clip-rule="evenodd" d="M11.0094 17.3375L17.6578 12.2542C19.3434 10.9655 19.665 8.55439 18.3762 6.86886C17.0875 5.18334 14.6764 4.86168 12.9909 6.1504L6.3425 11.2337C4.65697 12.5224 4.33531 14.9335 5.62404 16.619C6.91278 18.3046 9.32389 18.6262 11.0094 17.3375Z" fill="#2C89A0"/>
<path fill-rule="evenodd" clip-rule="evenodd" d="M7.40923 8.39801L15.725 7.45499C17.8332 7.21591 19.7361 8.73117 19.9752 10.8394C20.2142 12.9476 18.699 14.8505 16.5908 15.0896L8.27501 16.0327C6.16677 16.2717 4.2639 14.7564 4.02482 12.6482C3.78574 10.5399 5.30099 8.63709 7.40923 8.39801Z" fill="#164450"/>
<path d="M14.5608 9.33669C14.1881 9.33801 13.8359 9.40809 13.5043 9.54699C13.1699 9.68591 12.8451 9.89772 12.5302 10.1824C12.3781 9.8595 12.0675 9.63144 11.7927 9.52854C11.5276 9.42955 11.1939 9.38076 10.7915 9.38218C10.5107 9.38312 10.219 9.40446 9.91669 9.44603C9.61705 9.4849 9.30939 9.54272 8.99368 9.61946L8.78286 10.7261C9.03628 10.601 9.30198 10.5069 9.57993 10.4438C9.86059 10.3807 10.1548 10.3486 10.4627 10.3475C10.7868 10.3463 11.0327 10.3914 11.2005 10.4826C11.3683 10.5712 11.4525 10.7045 11.4531 10.8828C11.4531 10.8963 11.4519 10.9112 11.4492 10.9274C11.4492 10.9436 11.4453 10.9693 11.4373 11.0044L11.4134 11.122L10.583 11.1249C9.72955 11.1279 9.07921 11.2841 8.63199 11.5936C8.18745 11.9004 7.96622 12.3454 7.96828 12.9288C7.96962 13.3096 8.10032 13.6089 8.36036 13.8267C8.6204 14.0445 8.97998 14.1526 9.4391 14.151C9.81179 14.1497 10.164 14.0796 10.4956 13.9407C10.83 13.8017 11.1547 13.59 11.4697 13.3053C11.6219 13.6281 11.9323 13.8563 12.2072 13.9592C12.4723 14.0581 12.806 14.1069 13.2084 14.1055C13.4892 14.1045 13.7809 14.0832 14.0832 14.0417C14.3828 14.0028 14.6905 13.945 15.0062 13.8682L15.2171 12.7616C14.9636 12.8867 14.6979 12.9808 14.4199 13.0439C14.1393 13.107 13.8451 13.1391 13.5371 13.1402C13.2131 13.1413 12.9671 13.0963 12.7994 13.0051C12.6316 12.9165 12.5475 12.7832 12.5468 12.6049C12.5467 12.5914 12.548 12.5765 12.5507 12.5603C12.5507 12.5441 12.5547 12.5185 12.5626 12.4833L12.5865 12.3657L13.4169 12.3628C14.2703 12.3598 14.9207 12.2036 15.3679 11.8941C15.8124 11.5873 16.0337 11.1423 16.0316 10.5589C16.0303 10.1782 15.8995 9.87882 15.6395 9.66098C15.3795 9.44314 15.0199 9.33506 14.5608 9.33669ZM13.9242 10.3031C14.1159 10.3024 14.2673 10.3491 14.3784 10.4433C14.4867 10.5374 14.5412 10.6669 14.5418 10.8316C14.5427 11.0504 14.4513 11.2154 14.268 11.3268C14.0821 11.4409 13.8082 11.4985 13.4463 11.4998L12.7495 11.5023L12.7814 11.3361C12.8477 11.0091 12.9805 10.7548 13.1797 10.5731C13.3789 10.3941 13.6271 10.3041 13.9242 10.3031V10.3031ZM10.5536 11.9879L11.2503 11.9854L11.2185 12.1517C11.1522 12.4786 11.0194 12.7329 10.8202 12.9146C10.621 13.0936 10.3728 13.1836 10.0757 13.1846C9.884 13.1853 9.73258 13.1385 9.62152 13.0445C9.51316 12.9503 9.45868 12.8209 9.4581 12.6561C9.4574 12.4373 9.5486 12.2723 9.73184 12.1609C9.91779 12.0468 10.1917 11.9892 10.5536 11.9879Z" fill="white"/>
<path d="M23.5 12C23.5 18.3513 18.3513 23.5 12 23.5C5.64873 23.5 0.5 18.3513 0.5 12C0.5 5.64873 5.64873 0.5 12 0.5C18.3513 0.5 23.5 5.64873 23.5 12Z" stroke="black" stroke-opacity="0.097"/>
</svg>
