<svg width="24" height="24" viewBox="0 0 24 24" fill="none" xmlns="http://www.w3.org/2000/svg">
<path d="M12 24C18.6274 24 24 18.6274 24 12C24 5.37258 18.6274 0 12 0C5.37258 0 0 5.37258 0 12C0 18.6274 5.37258 24 12 24Z" fill="#1D58EC"/>
<path d="M23.5 12C23.5 18.3513 18.3513 23.5 12 23.5C5.64873 23.5 0.5 18.3513 0.5 12C0.5 5.64873 5.64873 0.5 12 0.5C18.3513 0.5 23.5 5.64873 23.5 12Z" stroke="black" stroke-opacity="0.097"/>
<path d="M6.16716 15.0117L10.9039 5.77946L10.9208 5.76211V5.74482C10.9208 5.73329 10.9265 5.72171 10.9378 5.71018C10.9492 5.69865 10.9548 5.68707 10.9548 5.67554C10.9548 5.66401 10.9605 5.65242 10.9718 5.64089C10.9944 5.61778 11.0114 5.60049 11.0227 5.5889V5.57161L11.0906 5.50232L11.1076 5.48497L11.1415 5.46768V5.45035L11.1585 5.43303L11.1925 5.41571L11.2094 5.38107L11.2434 5.36375L11.3113 5.29446H11.3283C11.3396 5.28292 11.351 5.27137 11.3623 5.25982C11.3849 5.23672 11.3962 5.22518 11.3962 5.22518C11.4302 5.22518 11.4528 5.21363 11.4641 5.19053H11.4811L11.4981 5.17321L11.5999 5.12125L11.6339 5.10393C11.8037 5.05774 11.9678 5.0231 12.1262 5H12.1772C12.3356 5.01155 12.4998 5.04619 12.6695 5.10393L12.7374 5.13857L12.7544 5.15589H12.7714L12.8053 5.17321L12.8223 5.19053H12.8393C12.8619 5.21363 12.8789 5.22518 12.8902 5.22518H12.9072C12.9411 5.25982 12.9695 5.28292 12.9921 5.29446L13.026 5.31178L13.1449 5.41571H13.1618L13.1789 5.43303V5.45035L13.2128 5.46768L13.2298 5.50232V5.51962V5.53697L13.2637 5.55426V5.57161L13.2807 5.5889C13.292 5.60049 13.3034 5.61778 13.3147 5.64089C13.326 5.65242 13.3316 5.66401 13.3316 5.67554C13.3543 5.69865 13.3656 5.72171 13.3656 5.74482H13.3826V5.76211L13.3995 5.77946L18.1532 15.0117C18.3343 15.3582 18.3626 15.7219 18.2381 16.103C18.1249 16.4841 17.8929 16.767 17.5421 16.9517C17.2025 17.1249 16.846 17.1538 16.4725 17.0384C16.099 16.9228 15.8273 16.6919 15.6576 16.3455L12.1602 9.53821L8.64589 16.3455C8.47612 16.6919 8.20446 16.9286 7.83093 17.0557C7.45746 17.1711 7.09524 17.1365 6.74438 16.9517C6.40485 16.767 6.17848 16.4841 6.0653 16.103C5.95211 15.7219 5.98607 15.3582 6.16716 15.0117ZM13.5693 15.0117V15.6699C13.5693 16.0741 13.4278 16.4206 13.1449 16.7092C12.8732 16.9864 12.5393 17.1249 12.1432 17.1249C11.7584 17.1249 11.4245 16.9864 11.1415 16.7092C10.8699 16.4206 10.7341 16.0741 10.7341 15.6699V15.0117C10.7341 14.6076 10.8699 14.2669 11.1415 13.9898C11.4245 13.7126 11.7584 13.574 12.1432 13.574C12.5393 13.574 12.8732 13.7126 13.1449 13.9898C13.4278 14.2669 13.5693 14.6076 13.5693 15.0117Z" fill="white"/>
</svg>
