<svg width="24" height="24" viewBox="0 0 24 24" fill="none" xmlns="http://www.w3.org/2000/svg">
<path fill-rule="evenodd" clip-rule="evenodd" d="M0 12C0 5.37259 5.37259 0 12 0C18.6274 0 24 5.37259 24 12C24 18.6274 18.6274 24 12 24C5.37259 24 0 18.6274 0 12Z" fill="#E6313A"/>
<path d="M9.2 5L17.302 19L20 14.3328L14.6 5H9.2Z" fill="white"/>
<path d="M9.51641 14.6001L12.3184 19.0001L17.3164 19L15.1184 14.6001H9.51641Z" fill="white" fill-opacity="0.83"/>
<path d="M6.8 9.3999L4 14.1999L6.802 18.9999L12.4 9.3999H6.8Z" fill="white"/>
<path d="M23.5 12C23.5 18.3513 18.3513 23.5 12 23.5C5.64873 23.5 0.5 18.3513 0.5 12C0.5 5.64873 5.64873 0.5 12 0.5C18.3513 0.5 23.5 5.64873 23.5 12Z" stroke="white" stroke-opacity="0.3"/>
</svg>
