<svg width="24" height="24" viewBox="0 0 24 24" fill="none" xmlns="http://www.w3.org/2000/svg">
<path d="M12 24C18.6274 24 24 18.6274 24 12C24 5.37258 18.6274 0 12 0C5.37258 0 0 5.37258 0 12C0 18.6274 5.37258 24 12 24Z" fill="#016AD9"/>
<path d="M5.00303 10.7972C5.05571 10.1759 4.93981 9.34078 5.11893 8.51583C5.30859 7.69089 5.70897 7.49739 6.45705 7.90476C7.82678 8.64823 9.20704 9.3917 10.5768 10.1454C11.3038 10.5425 11.2932 11.1434 10.5662 11.5814C10.3555 11.7036 10.2607 11.5916 10.1342 11.4592C9.49152 10.7972 9.49152 10.8073 8.81719 11.4082C8.39574 11.7952 7.97428 12.1823 7.54229 12.5489C7.18406 12.8442 6.9944 12.7526 6.93118 12.3045C6.8785 11.9786 6.96279 11.7138 7.23674 11.4897C7.62658 11.174 7.98482 10.8277 8.39574 10.5222C8.72237 10.2778 8.617 10.1759 8.31145 10.0639C8.11126 9.99259 7.9216 9.92129 7.73195 9.82963C7.00494 9.51392 6.74153 9.62594 6.60456 10.3796C6.36222 11.724 6.56241 13.0479 6.96279 14.3414C7.20513 15.1052 7.5739 15.1765 8.24823 14.6775C10.2396 13.2007 12.0729 11.5406 13.8957 9.87037C14.6965 9.13709 15.4867 8.38344 16.2875 7.65015C16.6668 7.30388 17.0566 6.86595 17.6467 7.03908C18.2683 7.2224 18.3842 7.8131 18.5106 8.3427C18.7846 9.48336 18.8689 10.6546 18.911 11.8156C18.9532 12.9868 19.0691 14.1479 18.9426 15.3191C18.8478 16.1237 18.5001 16.3375 17.6888 16.1135C16.6457 15.8181 15.7817 15.207 14.8756 14.6673C14.2961 14.321 13.7271 13.9645 13.1476 13.6081C12.9053 13.4553 12.7683 13.272 13.0212 13.0378C13.253 12.8341 13.3584 12.3147 13.8641 12.6507C14.5279 13.0887 15.1917 13.5368 15.8555 13.9645C16.0767 14.1071 16.3085 14.2293 16.5509 14.3108C17.025 14.4738 17.2884 14.3108 17.3622 13.822C17.5729 12.4165 17.4886 11.0212 17.0882 9.64631C16.8986 8.99451 16.5087 8.84174 15.8976 9.16764C15.2549 9.50373 14.7492 9.99259 14.2645 10.512C12.3258 12.5285 10.1975 14.321 8.06911 16.1135C7.74248 16.3884 7.38425 16.6431 6.9944 16.8366C6.37276 17.1421 6.03559 17.0301 5.75111 16.4088C5.38234 15.5941 5.24537 14.7182 5.14 13.8525C5.00303 12.9054 4.99249 11.948 5.00303 10.7972Z" fill="#FAFBFD"/>
<path d="M23.5 12C23.5 18.3513 18.3513 23.5 12 23.5C5.64873 23.5 0.5 18.3513 0.5 12C0.5 5.64873 5.64873 0.5 12 0.5C18.3513 0.5 23.5 5.64873 23.5 12Z" stroke="black" stroke-opacity="0.097"/>
</svg>
