<svg width="24" height="24" viewBox="0 0 24 24" fill="none" xmlns="http://www.w3.org/2000/svg">
<path d="M12 24C18.6274 24 24 18.6274 24 12C24 5.37258 18.6274 0 12 0C5.37258 0 0 5.37258 0 12C0 18.6274 5.37258 24 12 24Z" fill="#2170FB"/>
<path d="M12 24C18.6274 24 24 18.6274 24 12C24 5.37258 18.6274 0 12 0C5.37258 0 0 5.37258 0 12C0 18.6274 5.37258 24 12 24Z" fill="#112EA4"/>
<path d="M23.5 12C23.5 18.3513 18.3513 23.5 12 23.5C5.64873 23.5 0.5 18.3513 0.5 12C0.5 5.64873 5.64873 0.5 12 0.5C18.3513 0.5 23.5 5.64873 23.5 12Z" stroke="white" stroke-opacity="0.3"/>
<path d="M10.3478 8.93726C10.3478 7.78324 10.3478 6.64857 10.3478 5.51632C10.3478 5.376 10.3576 5.23326 10.3453 5.09294C10.3355 4.96955 10.3797 4.89697 10.4876 4.83407C10.9414 4.57278 11.3928 4.30181 11.8417 4.03085C11.9104 3.98972 11.9595 3.98972 12.0282 4.03085C13.76 5.04455 15.4919 6.05341 17.2238 7.0647C17.7758 7.38647 18.3253 7.71066 18.8797 8.02759C18.968 8.0784 19.0023 8.13404 18.9999 8.23808C18.995 8.7534 18.995 9.27113 18.9999 9.78645C18.9999 9.87839 18.9729 9.92919 18.8919 9.97758C17.7979 10.6235 16.7087 11.2719 15.617 11.9203C15.5876 11.9397 15.5557 11.959 15.5165 11.9832C15.9335 12.2276 16.3407 12.4671 16.7455 12.7066C17.4569 13.1251 18.1683 13.5461 18.8821 13.9598C18.9655 14.0082 18.9999 14.059 18.9999 14.1582C18.995 14.7316 18.995 15.3025 18.9999 15.8759C18.9999 15.9751 18.9655 16.0259 18.8821 16.0743C16.8338 17.3009 14.783 18.5275 12.7346 19.7517C12.6169 19.8219 12.4967 19.892 12.3789 19.967C12.3127 20.0106 12.2612 20.0106 12.1925 19.9694C11.6136 19.6235 11.0322 19.2775 10.4483 18.9388C10.3699 18.8928 10.3453 18.842 10.3453 18.7574C10.3478 17.5719 10.3478 16.3864 10.3478 15.2009C10.3478 15.1574 10.3478 15.1163 10.3478 15.0509C10.0657 15.2179 9.79828 15.3751 9.53579 15.5324C8.71646 16.0187 7.89957 16.505 7.07778 16.9864C7.03608 17.0106 6.95513 17.0082 6.91342 16.984C6.30505 16.6308 5.70159 16.2703 5.09076 15.9171C5.00491 15.8663 5.00245 15.8033 5.00245 15.7259C5.00245 14.8864 5.00245 14.0493 5.00245 13.2098C5.00245 11.5574 5.00491 9.90258 5 8.25017C5 8.13404 5.03925 8.07114 5.13737 8.01308C5.70895 7.67921 6.27562 7.3405 6.83983 7.00179C6.91833 6.95583 6.97475 6.95583 7.0508 7.00179C8.11054 7.6284 9.17519 8.25501 10.2374 8.8792C10.2668 8.89856 10.2987 8.91307 10.3478 8.93726ZM6.80303 11.9735C6.80303 12.9001 6.80549 13.8267 6.80058 14.7534C6.80058 14.8501 6.8521 14.8816 6.91833 14.9275C6.98702 14.9735 7.03363 14.9493 7.0925 14.9155C8.14734 14.2888 9.20217 13.6598 10.2595 13.038C10.3306 12.9969 10.3478 12.9509 10.3478 12.8735C10.3453 12.2905 10.3429 11.705 10.3478 11.1219C10.3478 11.0324 10.3183 10.9864 10.2423 10.9429C9.18009 10.3211 8.1179 9.69452 7.0557 9.07275C7.01155 9.04614 6.94531 9.0292 6.8987 9.03888C6.80794 9.05823 6.80058 9.13565 6.80058 9.22033C6.80549 10.1373 6.80303 11.0542 6.80303 11.9735ZM17.1772 15.0267C17.1355 15.0001 17.1134 14.9832 17.0889 14.9711C16.0071 14.3348 14.9228 13.6961 13.841 13.0574C13.7797 13.0211 13.7404 13.0308 13.6889 13.0647C13.2007 13.3574 12.7101 13.6477 12.2195 13.9356C12.1508 13.9767 12.1287 14.0203 12.1287 14.1001C12.1312 15.3171 12.1312 16.534 12.1287 17.7533C12.1287 17.8235 12.1336 17.8791 12.2097 17.9227C12.2857 17.9662 12.3323 17.9275 12.3863 17.8961C13.4485 17.2622 14.5082 16.6283 15.5704 15.9921C16.1003 15.6703 16.6302 15.3558 17.1772 15.0267ZM17.0374 9.01226C15.3987 8.05663 13.7723 7.10583 12.1361 6.15261C12.1312 6.18406 12.1287 6.19132 12.1287 6.20099C12.1287 7.43486 12.1287 8.66872 12.1263 9.90016C12.1263 9.97758 12.1631 10.0139 12.2219 10.0477C12.7077 10.3308 13.1909 10.6139 13.6717 10.9018C13.7429 10.9453 13.7895 10.9381 13.8557 10.8969C14.6456 10.4252 15.4355 9.95823 16.2279 9.48887C16.4953 9.33404 16.7602 9.17678 17.0374 9.01226Z" fill="white"/>
</svg>
