<svg width="24" height="24" viewBox="0 0 24 24" fill="none" xmlns="http://www.w3.org/2000/svg">
<path d="M12 24C18.6274 24 24 18.6274 24 12C24 5.37258 18.6274 0 12 0C5.37258 0 0 5.37258 0 12C0 18.6274 5.37258 24 12 24Z" fill="black"/>
<path d="M9.84806 7.15754L13.6576 10.9671L10.4261 5L7.72433 7.72594L9.84806 7.15754V7.15754ZM14.1519 16.8425L10.3424 13.0329L13.5739 19L16.2741 16.2741L14.1519 16.8425V16.8425ZM7.15754 14.1519L9.60012 8.97376L5.86142 12.7141L5 13.5739L7.72594 16.2741L7.15754 14.1519V14.1519ZM16.8441 9.84645L13.0329 13.6576L19 10.4261L16.2741 7.72433L16.8441 9.84645" fill="white"/>
<path d="M15.0246 9.59851L11.2859 5.86142L10.4261 5L13.6575 10.9671L15.0246 9.59851V9.59851ZM8.9753 14.3999L13.5738 19L10.3423 13.0329L8.9753 14.3999V14.3999ZM10.967 10.3424L9.60005 8.97376L7.15747 14.1519L10.967 10.3424ZM14.3998 15.0246L18.9999 10.4261L13.0329 13.6576L14.3998 15.0246Z" fill="white"/>
<path d="M6.148 6.14639L5 10.4261L7.33793 9.17025L6.148 6.14639ZM17.8536 17.8536L19 13.5739L16.6621 14.8282L17.8536 17.8536ZM6.148 17.852L10.4261 19L9.17186 16.6605L6.148 17.852ZM17.8536 6.14639L13.5739 5L14.8282 7.33793L17.8536 6.14639Z" fill="white"/>
<path d="M7.72433 7.72594L10.4261 5L6.148 6.14639L7.33793 9.17025L7.72433 7.72594V7.72594ZM16.2741 16.2741L13.5739 19L17.8536 17.8536L16.6621 14.8282L16.2741 16.2741ZM7.72594 16.2741L5 13.5739L6.148 17.852L9.17186 16.6605L7.72594 16.2741ZM16.2741 7.72433L19 10.4261L17.8536 6.14639L14.8282 7.33793L16.2741 7.72433Z" fill="white"/>
<path d="M7.33793 9.17025L5 10.4261L5.54264 10.9671L7.33793 9.17025ZM16.6621 14.8282L19 13.5739L18.4574 13.0329L16.6621 14.8282ZM10.4261 19L10.9671 18.4574L9.17186 16.6605L10.4261 19ZM13.5739 5L13.0329 5.54264L14.8282 7.33793L13.5739 5Z" fill="white"/>
<path d="M23.5 12C23.5 18.3513 18.3513 23.5 12 23.5C5.64873 23.5 0.5 18.3513 0.5 12C0.5 5.64873 5.64873 0.5 12 0.5C18.3513 0.5 23.5 5.64873 23.5 12Z" stroke="white" stroke-opacity="0.3"/>
</svg>
