<svg width="24" height="24" viewBox="0 0 24 24" fill="none" xmlns="http://www.w3.org/2000/svg">
<path d="M12 24C18.6274 24 24 18.6274 24 12C24 5.37258 18.6274 0 12 0C5.37258 0 0 5.37258 0 12C0 18.6274 5.37258 24 12 24Z" fill="#0B0F2B"/>
<path d="M23.5 12C23.5 18.3513 18.3513 23.5 12 23.5C5.64873 23.5 0.5 18.3513 0.5 12C0.5 5.64873 5.64873 0.5 12 0.5C18.3513 0.5 23.5 5.64873 23.5 12Z" stroke="white" stroke-opacity="0.3"/>
<path fill-rule="evenodd" clip-rule="evenodd" d="M15.2292 5C14.8055 5 14.4621 5.34341 14.4621 5.76708V13.9371V9.28557C14.4621 9.28557 13.9116 8.91951 13.1795 8.67515C12.6327 8.49266 11.945 8.41357 11.5235 8.41355C8.47952 8.41355 6 10.8931 6 13.9371C6 16.9811 8.47952 19.4607 11.5235 19.4607C14.5676 19.4607 16.9367 16.9811 16.9367 13.9371V5.76708C16.9367 5.34341 16.5933 5 16.1696 5H15.2292ZM11.545 10.8778C13.2391 10.8778 14.451 12.243 14.451 13.9371C14.451 14.7278 14.1869 15.4471 13.733 15.9891C13.2144 16.6084 12.4483 16.9964 11.545 16.9964C9.85086 16.9964 8.48562 15.6312 8.4856 13.9371C8.4856 12.243 9.85086 10.8778 11.545 10.8778Z" fill="url(#paint0_linear)"/>
<path fill-rule="evenodd" clip-rule="evenodd" d="M11.5235 8.41309C8.47952 8.41309 6 10.8926 6 13.9366C6 16.9807 8.47952 19.4602 11.5235 19.4602C14.5676 19.4602 16.9367 16.9807 16.9367 13.9366H14.4621V9.28514C14.3795 9.23102 14.3401 9.20125 14.2097 9.12951C13.4137 8.69132 12.5094 8.41309 11.5235 8.41309ZM11.545 10.8773C13.2391 10.8773 14.451 12.2425 14.451 13.9366C14.451 14.7274 14.1869 15.4467 13.733 15.9886C13.2144 16.6079 12.4483 16.996 11.545 16.996C9.85086 16.996 8.48562 15.6307 8.4856 13.9366C8.4856 12.2425 9.85088 10.8773 11.545 10.8773Z" fill="url(#paint1_radial)"/>
<defs>
<linearGradient id="paint0_linear" x1="14.7804" y1="6.70031" x2="7.13111" y2="18.4056" gradientUnits="userSpaceOnUse">
<stop stop-color="#00DFFE"/>
<stop offset="0.525336" stop-color="#00F5FF"/>
<stop offset="1" stop-color="#23FCCF"/>
</linearGradient>
<radialGradient id="paint1_radial" cx="0" cy="0" r="1" gradientUnits="userSpaceOnUse" gradientTransform="translate(15.8003 9.0205) scale(10.8792)">
<stop stop-color="#060606" stop-opacity="0.476377"/>
<stop offset="0.110106" stop-color="#030509" stop-opacity="0.253808"/>
<stop offset="0.45098" stop-color="#00040C" stop-opacity="0"/>
<stop offset="0.659125" stop-color="#144A4C" stop-opacity="0"/>
<stop offset="1" stop-color="#2AFDC5" stop-opacity="0"/>
</radialGradient>
</defs>
</svg>
