<svg width="24" height="24" viewBox="0 0 24 24" fill="none" xmlns="http://www.w3.org/2000/svg">
<path fill-rule="evenodd" clip-rule="evenodd" d="M0 12C0 5.37259 5.37259 0 12 0C18.6274 0 24 5.37259 24 12C24 18.6274 18.6274 24 12 24C5.37259 24 0 18.6274 0 12Z" fill="#0098F3"/>
<path d="M23.5 12C23.5 18.3513 18.3513 23.5 12 23.5C5.64873 23.5 0.5 18.3513 0.5 12C0.5 5.64873 5.64873 0.5 12 0.5C18.3513 0.5 23.5 5.64873 23.5 12Z" stroke="white" stroke-opacity="0.3"/>
<path d="M13.2905 12.0254C13.3295 12.066 13.352 12.0915 13.3761 12.1155C13.7771 12.5195 14.1796 12.9235 14.5821 13.3275C14.6091 13.3546 14.6331 13.3741 14.6076 13.4222C14.4003 13.8127 14.136 14.1626 13.7906 14.4374C13.2499 14.8685 12.6356 15.1238 11.9358 15.1508C11.4702 15.1688 11.0226 15.1013 10.5901 14.921C9.99834 14.6747 9.51773 14.2902 9.16629 13.7601C8.67668 13.0227 8.52349 12.2071 8.70221 11.3406C8.78482 10.9396 8.94101 10.5641 9.17981 10.2277C9.70697 9.48423 10.4129 9.02165 11.317 8.88648C11.8456 8.80689 12.3683 8.85194 12.8729 9.04118C13.2829 9.19437 13.6494 9.41665 13.9618 9.72604C13.9903 9.75457 14.0099 9.7756 14.0504 9.73355C14.534 9.24844 15.0221 8.76784 15.4967 8.27372C15.5313 8.23767 15.5298 8.21214 15.4967 8.1821C15.4817 8.16859 15.4697 8.15357 15.4547 8.13855C14.9861 7.6985 14.4574 7.35006 13.8642 7.10075C13.3761 6.89499 12.8684 6.76433 12.3428 6.70275C11.9313 6.65319 11.5197 6.66821 11.1097 6.71927C10.3513 6.81389 9.64389 7.06771 8.99508 7.46871C8.33876 7.87422 7.78907 8.39837 7.36103 9.04268C6.76178 9.94531 6.45991 10.9411 6.46141 12.0239C6.46291 12.7703 6.6176 13.4852 6.92098 14.1686C7.35953 15.1538 8.04289 15.9318 8.94552 16.5085C9.71148 16.9981 10.5555 17.2745 11.4687 17.321C11.9448 17.3451 12.4194 17.3286 12.8849 17.2219C14.1045 16.9456 15.1303 16.3418 15.9187 15.3671C16.6892 14.4134 17.0872 13.3155 17.1202 12.087C17.1218 12.0464 17.1112 12.0344 17.0722 12.0344C16.9971 12.0344 16.922 12.0269 16.8469 12.0269C16.3348 12.0254 15.8226 12.0239 15.309 12.0239C14.6452 12.0254 13.9813 12.0254 13.2905 12.0254ZM11.2885 12.0254C11.2869 12.0254 11.2869 12.0254 11.2854 12.0254C11.2854 11.4953 11.2854 10.9651 11.2854 10.4364C11.2854 10.1391 11.2854 9.84168 11.2794 9.54431C11.2764 9.3806 11.2704 9.3806 11.1157 9.42416C10.7237 9.5338 10.3663 9.71102 10.0554 9.97835C9.05966 10.8329 8.82537 12.2867 9.51473 13.4026C9.90972 14.0409 10.4819 14.4314 11.2028 14.6162C11.2869 14.6372 11.2885 14.6342 11.2885 14.5471C11.2885 13.7045 11.2885 12.865 11.2885 12.0254Z" fill="white"/>
<path d="M6.14001 17.6515C6.17306 17.6515 6.18357 17.623 6.20309 17.6035C6.67619 17.1319 7.14928 16.6603 7.61937 16.1872C7.66292 16.1437 7.68695 16.1452 7.73201 16.1842C8.05491 16.4605 8.37181 16.7459 8.73827 16.9637C9.30748 17.3046 9.91424 17.5524 10.5646 17.6951C11.1157 17.8167 11.6729 17.8423 12.2331 17.8017C13.343 17.7221 14.3448 17.3391 15.2414 16.6888C15.9022 16.2082 16.4339 15.6045 16.8394 14.8926C17.1758 14.3038 17.3996 13.6746 17.5213 13.0092C17.6054 12.5497 17.6159 12.0841 17.5934 11.62C17.5633 11.0147 17.4251 10.4305 17.2029 9.86729C16.91 9.12236 16.4745 8.47205 15.9158 7.89983C15.5989 7.57543 15.2444 7.29908 14.8659 7.05728C14.2427 6.66078 13.5578 6.41447 12.8309 6.2763C12.3203 6.17868 11.8051 6.15915 11.293 6.1997C10.4279 6.26879 9.61837 6.53462 8.86443 6.96716C8.4484 7.20596 8.07594 7.50334 7.729 7.83225C7.70347 7.85778 7.68395 7.88782 7.63889 7.84426C7.15829 7.36066 6.67168 6.88006 6.19709 6.39044C6.15654 6.34839 6.15503 6.32586 6.19709 6.28381C6.37431 6.10208 6.57105 5.94589 6.7663 5.78368C7.67043 5.03575 8.70673 4.54764 9.83464 4.24726C10.1771 4.15565 10.527 4.09857 10.8799 4.05502C11.4912 3.97993 12.1025 3.98293 12.7107 4.05652C13.8732 4.1962 14.9651 4.55815 15.9608 5.17843C17.7375 6.29132 18.9105 7.86379 19.4917 9.87631C19.672 10.5026 19.7606 11.1454 19.7756 11.7972C19.8131 13.2991 19.4542 14.7003 18.7062 16.0025C18.2827 16.7399 17.7511 17.3932 17.1173 17.9624C16.4549 18.5557 15.71 19.0228 14.8945 19.3727C14.1916 19.6746 13.4542 19.8578 12.6942 19.9509C12.11 20.023 11.5258 20.008 10.943 19.9554C10.3573 19.9029 9.78658 19.7692 9.22938 19.5785C8.55954 19.3502 7.93026 19.0393 7.34002 18.6488C6.93151 18.3769 6.54853 18.0676 6.19709 17.7221C6.18057 17.7056 6.17005 17.6786 6.14001 17.6816C6.14001 17.6711 6.14001 17.6606 6.14001 17.6515Z" fill="white"/>
<path d="M13.2905 12.0254C13.9813 12.0254 14.6452 12.0254 15.3105 12.0254C15.8226 12.0254 16.3348 12.0269 16.8484 12.0284C16.9235 12.0284 16.9986 12.0359 17.0737 12.0359C17.1127 12.0359 17.1233 12.0479 17.1218 12.0885C17.0887 13.317 16.6907 14.4149 15.9202 15.3686C15.1318 16.3433 14.106 16.9486 12.8865 17.2234C12.4209 17.3286 11.9463 17.3466 11.4702 17.3225C10.557 17.276 9.71448 16.9996 8.94702 16.51C8.04289 15.9318 7.35953 15.1538 6.92098 14.1686C6.6161 13.4852 6.46291 12.7703 6.46141 12.0239C6.45991 10.9411 6.76178 9.94531 7.35953 9.04268C7.78757 8.39837 8.33726 7.87422 8.99358 7.46871C9.64239 7.06771 10.3483 6.81389 11.1082 6.71927C11.5182 6.66821 11.9298 6.65319 12.3413 6.70275C12.8669 6.76583 13.3746 6.89649 13.8627 7.10075C14.4559 7.35006 14.9846 7.6985 15.4532 8.13855C15.4682 8.15207 15.4802 8.16859 15.4952 8.1821C15.5298 8.21364 15.5298 8.23767 15.4952 8.27372C15.0206 8.76784 14.5325 9.24844 14.0489 9.73355C14.0084 9.7756 13.9873 9.75457 13.9603 9.72604C13.6494 9.41515 13.2814 9.19437 12.8714 9.04118C12.3668 8.85194 11.8441 8.80689 11.3155 8.88648C10.4099 9.02165 9.70547 9.48423 9.17831 10.2277C8.93951 10.5656 8.78181 10.9411 8.70071 11.3406C8.52199 12.2086 8.67518 13.0227 9.16479 13.7601C9.51623 14.2902 9.99683 14.6747 10.5886 14.921C11.0211 15.1013 11.4702 15.1688 11.9343 15.1508C12.6341 15.1238 13.2484 14.8685 13.7891 14.4374C14.1345 14.1626 14.3988 13.8127 14.6061 13.4222C14.6316 13.3741 14.6061 13.3546 14.5806 13.3275C14.1781 12.9235 13.7771 12.5195 13.3746 12.1155C13.352 12.0915 13.3295 12.066 13.2905 12.0254Z" fill="white"/>
<path d="M11.2885 12.0253C11.2885 12.8649 11.2885 13.7044 11.2885 14.5455C11.2885 14.6341 11.287 14.6371 11.2029 14.6145C10.482 14.4298 9.90974 14.0393 9.51474 13.401C8.82538 12.2851 9.05967 10.8313 10.0554 9.97674C10.3648 9.71091 10.7223 9.53218 11.1157 9.42255C11.2704 9.37899 11.2764 9.37899 11.2795 9.5427C11.2855 9.84007 11.2855 10.1374 11.2855 10.4348C11.287 10.965 11.2855 11.4951 11.2855 12.0238C11.2855 12.0253 11.287 12.0253 11.2885 12.0253Z" fill="white"/>
</svg>
