<svg width="24" height="24" viewBox="0 0 24 24" fill="none" xmlns="http://www.w3.org/2000/svg">
<path d="M12 23.9999C18.6274 23.9999 24 18.6273 24 11.9999C24 5.37246 18.6274 -0.00012207 12 -0.00012207C5.37258 -0.00012207 0 5.37246 0 11.9999C0 18.6273 5.37258 23.9999 12 23.9999Z" fill="#016DFF"/>
<path d="M7.70916 7.7208L6.12427 6.13982C8.94367 3.24888 13.9981 2.71074 17.4932 5.87199C21.0842 9.1189 21.0942 14.6315 17.6979 17.9046C14.1926 21.2832 8.97853 20.7656 6.12845 17.829L7.70741 16.2512C7.72485 16.2665 7.7496 16.2861 7.77365 16.309C8.05605 16.5618 8.34158 16.8117 8.66127 17.0178C9.23338 17.3879 9.86347 17.6597 10.5254 17.8217C11.8956 18.1553 13.3396 17.9965 14.6044 17.373C15.1579 17.1001 15.6662 16.744 16.1116 16.317C17.1243 15.3475 17.766 14.0549 17.9256 12.6626C18.0222 11.8073 17.934 10.9412 17.6668 10.1229C17.3996 9.30464 16.9597 8.55317 16.3769 7.91933C15.5601 7.03115 14.5612 6.44355 13.3915 6.14993C12.0413 5.81931 10.6182 5.96449 9.36272 6.56093C8.80059 6.82221 8.28603 7.17537 7.84024 7.60585C7.80538 7.64068 7.76668 7.67552 7.72938 7.70756C7.72312 7.71267 7.71635 7.71712 7.70916 7.7208Z" fill="white"/>
<path d="M14.8813 13.3947L13.4917 12.0057H17.4475C17.4926 14.0328 16.1681 16.4713 13.508 17.2589C12.2215 17.6384 10.8405 17.5355 9.62459 16.9695C8.40866 16.4034 7.4415 15.4133 6.90488 14.1849C6.36826 12.9567 6.29911 11.5749 6.71044 10.2992C7.12176 9.02357 7.98524 7.94193 9.1386 7.25756C11.5114 5.85039 14.2928 6.49789 15.8163 8.08129L14.2328 9.66087C13.6461 9.08337 12.9286 8.7706 12.0953 8.7288C11.4214 8.69144 10.7532 8.87037 10.1883 9.23942C9.76391 9.51078 9.40826 9.87677 9.14932 10.3086C8.89037 10.7405 8.73518 11.2265 8.69595 11.7283C8.65671 12.2303 8.73451 12.7344 8.9232 13.2011C9.1119 13.668 9.40637 14.0847 9.78348 14.4186C10.1606 14.7525 10.61 14.9945 11.0966 15.1255C11.5831 15.2566 12.0934 15.2731 12.5874 15.1739C13.0814 15.0747 13.5456 14.8624 13.9437 14.5537C14.3417 14.245 14.6626 13.8482 14.8813 13.3947Z" fill="white"/>
<path d="M11.4335 14.6922C10.7967 14.5726 10.2225 14.2322 9.81245 13.7309C9.40236 13.2297 9.18269 12.5998 9.19219 11.9524C9.2131 10.4589 10.3521 9.45611 11.4325 9.28406L11.4335 14.6922Z" fill="white"/>
<path d="M23.5 11.9999C23.5 18.3512 18.3513 23.4999 12 23.4999C5.64873 23.4999 0.5 18.3512 0.5 11.9999C0.5 5.6486 5.64873 0.499878 12 0.499878C18.3513 0.499878 23.5 5.6486 23.5 11.9999Z" stroke="black" stroke-opacity="0.097"/>
</svg>
