<svg width="24" height="24" viewBox="0 0 24 24" fill="none" xmlns="http://www.w3.org/2000/svg">
<path d="M12 24C18.6274 24 24 18.6274 24 12C24 5.37258 18.6274 0 12 0C5.37258 0 0 5.37258 0 12C0 18.6274 5.37258 24 12 24Z" fill="#080B27"/>
<path d="M23.5 12C23.5 18.3513 18.3513 23.5 12 23.5C5.64873 23.5 0.5 18.3513 0.5 12C0.5 5.64873 5.64873 0.5 12 0.5C18.3513 0.5 23.5 5.64873 23.5 12Z" stroke="white" stroke-opacity="0.3"/>
<path d="M12.0001 4.14111L18.9478 8.10583V16.0353L12.0001 20L5.05237 16.0353V8.10583L12.0001 4.14111Z" fill="#8B1DCD"/>
<path d="M6.48724 8.9174L12.0001 5.76202L17.5129 8.9174V15.2248L12.0001 18.3802L6.48724 15.2248V8.9174Z" stroke="#530677" stroke-width="0.453111"/>
<g filter="url(#filter0_f)">
<circle cx="13.1329" cy="12.6752" r="2.49211" fill="#FDE77F"/>
</g>
<g filter="url(#filter1_f)">
<circle cx="10.7162" cy="10.5603" r="1.43485" fill="#FDE77F"/>
</g>
<g filter="url(#filter2_f)">
<circle cx="10.112" cy="13.4302" r="0.679666" fill="#FDE77F"/>
</g>
<g filter="url(#filter3_f)">
<circle cx="8.60172" cy="11.4668" r="0.679666" fill="#FDE77F"/>
</g>
<g filter="url(#filter4_f)">
<circle cx="15.5494" cy="10.4096" r="0.679666" fill="#FDE77F"/>
</g>
<g filter="url(#filter5_f)">
<circle cx="12.151" cy="15.3179" r="0.453111" fill="#FDE77F"/>
</g>
<g filter="url(#filter6_f)">
<circle cx="14.1145" cy="14.7139" r="0.453111" fill="#FDE77F"/>
</g>
<g filter="url(#filter7_f)">
<circle cx="11.5469" cy="8.0685" r="0.604148" fill="#FDE77F"/>
</g>
<defs>
<filter id="filter0_f" x="8.67727" y="8.21962" width="8.91118" height="8.91118" filterUnits="userSpaceOnUse" color-interpolation-filters="sRGB">
<feFlood flood-opacity="0" result="BackgroundImageFix"/>
<feBlend mode="normal" in="SourceGraphic" in2="BackgroundImageFix" result="shape"/>
<feGaussianBlur stdDeviation="0.981741" result="effect1_foregroundBlur"/>
</filter>
<filter id="filter1_f" x="7.31783" y="7.16201" width="6.79667" height="6.79667" filterUnits="userSpaceOnUse" color-interpolation-filters="sRGB">
<feFlood flood-opacity="0" result="BackgroundImageFix"/>
<feBlend mode="normal" in="SourceGraphic" in2="BackgroundImageFix" result="shape"/>
<feGaussianBlur stdDeviation="0.981741" result="effect1_foregroundBlur"/>
</filter>
<filter id="filter2_f" x="8.97926" y="12.2974" width="2.26556" height="2.26556" filterUnits="userSpaceOnUse" color-interpolation-filters="sRGB">
<feFlood flood-opacity="0" result="BackgroundImageFix"/>
<feBlend mode="normal" in="SourceGraphic" in2="BackgroundImageFix" result="shape"/>
<feGaussianBlur stdDeviation="0.226556" result="effect1_foregroundBlur"/>
</filter>
<filter id="filter3_f" x="7.46895" y="10.334" width="2.26556" height="2.26556" filterUnits="userSpaceOnUse" color-interpolation-filters="sRGB">
<feFlood flood-opacity="0" result="BackgroundImageFix"/>
<feBlend mode="normal" in="SourceGraphic" in2="BackgroundImageFix" result="shape"/>
<feGaussianBlur stdDeviation="0.226556" result="effect1_foregroundBlur"/>
</filter>
<filter id="filter4_f" x="14.4166" y="9.27687" width="2.26556" height="2.26556" filterUnits="userSpaceOnUse" color-interpolation-filters="sRGB">
<feFlood flood-opacity="0" result="BackgroundImageFix"/>
<feBlend mode="normal" in="SourceGraphic" in2="BackgroundImageFix" result="shape"/>
<feGaussianBlur stdDeviation="0.226556" result="effect1_foregroundBlur"/>
</filter>
<filter id="filter5_f" x="11.2448" y="14.4116" width="1.81244" height="1.81244" filterUnits="userSpaceOnUse" color-interpolation-filters="sRGB">
<feFlood flood-opacity="0" result="BackgroundImageFix"/>
<feBlend mode="normal" in="SourceGraphic" in2="BackgroundImageFix" result="shape"/>
<feGaussianBlur stdDeviation="0.226556" result="effect1_foregroundBlur"/>
</filter>
<filter id="filter6_f" x="13.2083" y="13.8076" width="1.81244" height="1.81244" filterUnits="userSpaceOnUse" color-interpolation-filters="sRGB">
<feFlood flood-opacity="0" result="BackgroundImageFix"/>
<feBlend mode="normal" in="SourceGraphic" in2="BackgroundImageFix" result="shape"/>
<feGaussianBlur stdDeviation="0.226556" result="effect1_foregroundBlur"/>
</filter>
<filter id="filter7_f" x="10.4896" y="7.01124" width="2.11452" height="2.11452" filterUnits="userSpaceOnUse" color-interpolation-filters="sRGB">
<feFlood flood-opacity="0" result="BackgroundImageFix"/>
<feBlend mode="normal" in="SourceGraphic" in2="BackgroundImageFix" result="shape"/>
<feGaussianBlur stdDeviation="0.226556" result="effect1_foregroundBlur"/>
</filter>
</defs>
</svg>
