<svg width="24" height="24" viewBox="0 0 24 24" fill="none" xmlns="http://www.w3.org/2000/svg">
<path d="M12.0002 24C18.6277 24 24.0002 18.6274 24.0002 12C24.0002 5.37258 18.6277 0 12.0002 0C5.37283 0 0.000244141 5.37258 0.000244141 12C0.000244141 18.6274 5.37283 24 12.0002 24Z" fill="url(#paint0_linear)"/>
<path d="M20.9985 12C20.9985 16.9619 16.9619 21 11.9985 21C7.03661 21 3 16.9619 3 12C3 7.03815 7.03661 3 11.9985 3C13.949 3 15.758 3.6235 17.2328 4.68269C17.9456 5.19381 18.5814 5.80808 19.1172 6.50086L17.2467 8.37137L12.4111 13.2055L10.5606 11.355L15.3469 6.5686C14.3739 5.96511 13.2255 5.61718 11.9985 5.61718C8.47914 5.61718 5.61718 8.48068 5.61718 12C5.61718 15.5193 8.47914 18.3828 11.9985 18.3828C15.5178 18.3828 18.3813 15.5193 18.3813 12C18.3813 11.6813 18.3582 11.3688 18.312 11.0624L20.455 8.91944C20.806 9.88164 20.9985 10.9193 20.9985 12Z" fill="white"/>
<path d="M23.5002 12C23.5002 18.3513 18.3515 23.5 12.0002 23.5C5.64897 23.5 0.500244 18.3513 0.500244 12C0.500244 5.64873 5.64897 0.5 12.0002 0.5C18.3515 0.5 23.5002 5.64873 23.5002 12Z" stroke="white" stroke-opacity="0.3"/>
<defs>
<linearGradient id="paint0_linear" x1="7.00024" y1="6.5" x2="22.9996" y2="19.0008" gradientUnits="userSpaceOnUse">
<stop stop-color="#7062FF"/>
<stop offset="1" stop-color="#F25664"/>
</linearGradient>
</defs>
</svg>
