<svg width="24" height="24" viewBox="0 0 24 24" fill="none" xmlns="http://www.w3.org/2000/svg">
<path d="M12 24C18.6274 24 24 18.6274 24 12C24 5.37258 18.6274 0 12 0C5.37258 0 0 5.37258 0 12C0 18.6274 5.37258 24 12 24Z" fill="#EA001D"/>
<path d="M19 12.0788C19 11.7162 18.6824 11.422 18.2911 11.422C17.8998 11.422 17.5823 11.7162 17.5823 12.0788C17.5823 14.7088 15.4529 16.8843 12.7096 17.2087V12.2378L16.7969 8.26259C16.9273 8.13516 16.9982 7.9657 16.9925 7.78967C16.9868 7.61363 16.906 7.44811 16.7671 7.32857C15.6414 6.35907 14.2223 5.76792 12.7082 5.62735V3.65684C12.7082 3.29426 12.3906 3 11.9993 3C11.608 3 11.2904 3.29426 11.2904 3.65684V5.62604C7.76314 5.95577 5 8.725 5 12.0788C5 15.4326 7.76314 18.2019 11.2904 18.5316V20.3432C11.2904 20.7057 11.608 21 11.9993 21C12.3906 21 12.7082 20.7057 12.7082 20.3432V18.5316C16.2369 18.2019 19 15.434 19 12.0788ZM15.243 7.86849L12.7082 10.3343V6.94891C13.624 7.05663 14.4931 7.37192 15.243 7.86849ZM6.41772 12.0788C6.41772 9.44884 8.54714 7.27339 11.2904 6.94891V11.711L9.2078 13.7367C8.93701 13.9994 8.94835 14.4145 9.2319 14.6655C9.51544 14.9164 9.96486 14.9059 10.2342 14.6431L11.2904 13.6158V17.2074C8.54714 16.8843 6.41772 14.7088 6.41772 12.0788Z" fill="white"/>
<path d="M23.5 12C23.5 18.3513 18.3513 23.5 12 23.5C5.64873 23.5 0.5 18.3513 0.5 12C0.5 5.64873 5.64873 0.5 12 0.5C18.3513 0.5 23.5 5.64873 23.5 12Z" stroke="white" stroke-opacity="0.3"/>
</svg>
