<svg width="24" height="24" viewBox="0 0 24 24" fill="none" xmlns="http://www.w3.org/2000/svg">
<path d="M12 24C18.6274 24 24 18.6274 24 12C24 5.37258 18.6274 0 12 0C5.37258 0 0 5.37258 0 12C0 18.6274 5.37258 24 12 24Z" fill="#346BF3"/>
<path d="M11.14 18.1L12.06 19.1L13.06 18.01C13.895 17.0765 14.8659 16.2742 15.94 15.63L18.37 14.18L17.42 11.18L18.37 5.59998L14 7.36998H9.90999L5.73999 5.65998L6.73999 11.25L5.73999 14.25L8.22999 15.68C9.31639 16.3354 10.2975 17.1513 11.14 18.1V18.1ZM10.42 16.4C9.85602 15.9307 9.25394 15.5093 8.61999 15.14L11.15 15.79L10.42 16.4ZM12 14.92L7.99999 11.55H16L12 14.92ZM13.56 16.4L12.82 15.8L15.35 15.14C14.7312 15.5084 14.1457 15.93 13.6 16.4H13.56ZM13.24 15.14L17 12L17.55 14L13.24 15.14ZM17.5 6.70998L16.9 10.29L14.75 7.78998L17.5 6.70998ZM9.99999 7.99998H13.82L16.26 11H7.76999L9.99999 7.99998ZM6.70999 6.70998L9.24999 7.76998L7.30999 10.29L6.70999 6.70998ZM7.28999 12L10.94 14.94L6.70999 13.84L7.28999 12Z" fill="white"/>
<path d="M23.5 12C23.5 18.3513 18.3513 23.5 12 23.5C5.64873 23.5 0.5 18.3513 0.5 12C0.5 5.64873 5.64873 0.5 12 0.5C18.3513 0.5 23.5 5.64873 23.5 12Z" stroke="black" stroke-opacity="0.097"/>
</svg>
