<svg width="24" height="24" viewBox="0 0 24 24" fill="none" xmlns="http://www.w3.org/2000/svg"><defs><linearGradient id="a" x1="-274.78" y1="418.95" x2="-274.78" y2="417.8" gradientTransform="matrix(29, 0, 0, -29, 7980.53, 12145.3)" gradientUnits="userSpaceOnUse"><stop offset="0" stop-color="#386ff9"/><stop offset="1" stop-color="#2054d4"/></linearGradient><filter id="b" x="-43.8%" y="-29.4%" width="187.5%" height="182.4%" name="filter-3"><feOffset result="shadowOffsetOuter1" dy="2" in="SourceAlpha"/><feGaussianBlur result="shadowBlurOuter1" stdDeviation="2" in="shadowOffsetOuter1"/><feColorMatrix result="shadowMatrixOuter1" values="0 0 0 0 0 0 0 0 0 0 0 0 0 0 0 0 0 0 0.23 0" in="shadowBlurOuter1"/><feMorphology result="shadowSpreadOuter2" radius="0.5" in="SourceAlpha"/><feOffset result="shadowOffsetOuter2" dy="2" in="shadowSpreadOuter2"/><feGaussianBlur result="shadowBlurOuter2" stdDeviation="1.5" in="shadowOffsetOuter2"/><feColorMatrix result="shadowMatrixOuter2" values="0 0 0 0 0 0 0 0 0 0 0 0 0 0 0 0 0 0 0.16 0" in="shadowBlurOuter2"/><feMerge><feMergeNode in="shadowMatrixOuter1"/><feMergeNode in="shadowMatrixOuter2"/></feMerge></filter></defs><circle cx="12" cy="12" r="11.5" style="stroke:#386ff9;fill:url(#a)"/><g style="filter:url(#b)"><path d="M11.14,18.1l.92,1,1-1.09a12.47,12.47,0,0,1,2.88-2.38l2.43-1.45-.95-3,.95-5.58L14,7.37H9.91L5.74,5.66l1,5.59-1,3,2.49,1.43A12.59,12.59,0,0,1,11.14,18.1Zm-.72-1.7a13.21,13.21,0,0,0-1.8-1.26l2.53.65ZM12,14.92,8,11.55h8Zm1.56,1.48-.74-.6,2.53-.66A12.42,12.42,0,0,0,13.6,16.4Zm-.32-1.26L17,12l.55,2ZM17.5,6.71l-.6,3.58-2.15-2.5ZM10,8h3.82l2.44,3H7.77ZM6.71,6.71,9.25,7.77,7.31,10.29ZM7.29,12l3.65,2.94L6.71,13.84Z"/></g><path d="M11.14,18.1l.92,1,1-1.09a12.47,12.47,0,0,1,2.88-2.38l2.43-1.45-.95-3,.95-5.58L14,7.37H9.91L5.74,5.66l1,5.59-1,3,2.49,1.43A12.59,12.59,0,0,1,11.14,18.1Zm-.72-1.7a13.21,13.21,0,0,0-1.8-1.26l2.53.65ZM12,14.92,8,11.55h8Zm1.56,1.48-.74-.6,2.53-.66A12.42,12.42,0,0,0,13.6,16.4Zm-.32-1.26L17,12l.55,2ZM17.5,6.71l-.6,3.58-2.15-2.5ZM10,8h3.82l2.44,3H7.77ZM6.71,6.71,9.25,7.77,7.31,10.29ZM7.29,12l3.65,2.94L6.71,13.84Z" style="fill:#fff"/></svg>