<svg width="24" height="24" viewBox="0 0 24 24" fill="none" xmlns="http://www.w3.org/2000/svg">
<path d="M12 24C18.6274 24 24 18.6274 24 12C24 5.37258 18.6274 0 12 0C5.37258 0 0 5.37258 0 12C0 18.6274 5.37258 24 12 24Z" fill="#E0E0E0"/>
<path d="M18.525 19.9808C18.5139 19.9417 18.4776 19.9417 18.4469 19.9306C17.4344 19.6126 16.4024 19.3644 15.3537 19.2054C14.0316 19.0073 12.6983 18.9432 11.3623 19.0352C9.75566 19.144 8.1881 19.4564 6.65681 19.9417C6.63171 19.9501 6.60102 19.9473 6.58708 19.978C6.52293 19.978 6.45598 19.978 6.39183 19.978C6.17427 19.8664 6.12127 19.6879 6.12406 19.4508C6.13522 18.6029 6.12964 17.7522 6.12964 16.9042C6.12964 16.5723 6.25795 16.4468 6.59266 16.4468C6.81858 16.4468 6.81301 16.4496 6.74606 16.2376C6.58708 15.7523 6.58708 15.2642 6.76001 14.7816C6.82137 14.6087 6.92458 14.4581 7.06404 14.3381C7.14772 14.2656 7.1254 14.2377 7.03615 14.2015C6.70423 14.0676 6.37788 13.9226 6.0878 13.7106C5.91487 13.5851 5.78657 13.4344 5.78099 13.2085C5.7782 13.1388 5.72799 13.1165 5.68336 13.083C5.54948 12.9798 5.42396 12.871 5.34029 12.7232C5.23987 12.5475 5.22035 12.3662 5.30403 12.1765C5.31797 12.143 5.35144 12.1095 5.32076 12.0733C5.17572 11.9087 5.09483 11.7079 5 11.5154C5 11.4401 5 11.3676 5 11.2923C5.08368 11.1696 5.12552 11.0162 5.2594 10.9269C5.29566 10.9018 5.2594 10.8683 5.23987 10.846C4.82707 10.4025 5.06973 9.91162 5.48533 9.67733C5.59411 9.61596 5.70847 9.56018 5.8284 9.52671C5.90371 9.50718 5.9344 9.46813 5.92882 9.39003C5.92045 9.22826 5.98181 9.0888 6.10454 8.98281C6.16032 8.9326 6.17148 8.88797 6.15475 8.81266C5.99018 8.10698 5.8814 7.39015 5.93997 6.66495C6.00134 5.9258 6.13522 5.19502 6.29421 4.4726C6.36673 4.13232 6.44204 3.79203 6.56476 3.46569C6.58429 3.41269 6.6066 3.36248 6.63171 3.31228C6.78511 3.00825 7.03615 2.92178 7.34575 3.0724C7.63862 3.21466 7.91197 3.39038 8.18252 3.56889C9.10018 4.17415 10.0039 4.79894 10.8435 5.5102C10.8909 5.54925 10.9355 5.56041 10.9941 5.55483C12.3329 5.39305 13.5964 5.62456 14.7763 6.2884C14.8628 6.33582 14.9381 6.33582 15.0273 6.31629C15.9143 6.12662 16.8013 5.9258 17.6966 5.77797C18.129 5.70824 18.3828 5.89512 18.4051 6.33303C18.4274 6.77094 18.3465 7.20048 18.26 7.63002C18.1624 8.11256 18.0369 8.58673 17.8528 9.04417C17.8194 9.12506 17.811 9.17805 17.9281 9.16411C18.2991 9.11669 18.6115 9.34541 18.7147 9.68569C18.8291 10.0622 18.7119 10.3942 18.366 10.6257C18.2935 10.6731 18.2935 10.6982 18.3549 10.754C18.7342 11.1054 18.7788 11.5182 18.4943 11.9673C18.4135 12.0928 18.3242 12.21 18.2154 12.3132C18.1568 12.3689 18.1541 12.4108 18.1959 12.4805C18.3158 12.673 18.3075 12.8766 18.2154 13.0802C18.0983 13.3396 17.9142 13.546 17.7106 13.7385C17.6492 13.797 17.6213 13.85 17.6464 13.9421C17.6966 14.1429 17.6297 14.3158 17.4791 14.4581C17.2531 14.6701 16.9826 14.8123 16.7009 14.9378C16.606 14.9797 16.5893 15.0159 16.6395 15.1108C16.8487 15.5236 16.8877 15.942 16.6339 16.3548C16.5614 16.4747 16.6534 16.4496 16.712 16.4496C17.3061 16.4496 17.9002 16.4496 18.4916 16.4496C18.8263 16.4496 18.9908 16.617 18.9908 16.9572C18.9936 17.4816 18.9406 18.0032 18.9518 18.5248C18.9574 18.7926 18.9908 19.0575 18.9964 19.3281C19.002 19.6293 18.9323 19.8636 18.6282 19.9808C18.5975 19.9808 18.5613 19.9808 18.525 19.9808ZM17.6353 9.31751C17.8891 8.73456 18.062 8.14324 18.1792 7.53798C18.2573 7.13633 18.327 6.73468 18.3075 6.32466C18.2907 5.98995 18.1345 5.84491 17.7998 5.86722C17.5404 5.88396 17.2866 5.94253 17.0328 5.99553C16.3606 6.1322 15.6912 6.27724 15.0217 6.41949C14.9241 6.44181 14.8404 6.43344 14.7484 6.37765C14.4248 6.1852 14.079 6.03737 13.722 5.91743C12.8601 5.62735 11.9787 5.53809 11.075 5.64129C10.9773 5.65245 10.8853 5.67755 10.7877 5.59667C9.90627 4.84636 8.95514 4.19368 7.98728 3.56331C7.76135 3.41269 7.53542 3.26765 7.28997 3.15608C7.03893 3.03893 6.85206 3.10309 6.72096 3.34575C6.69865 3.38759 6.67912 3.42943 6.66518 3.47127C6.48945 3.94265 6.39462 4.43355 6.297 4.92446C6.17985 5.51857 6.07107 6.11825 6.03202 6.72352C5.98739 7.44593 6.09059 8.15719 6.26074 8.85729C6.27747 8.92981 6.27468 8.97444 6.20774 9.01907C6.05712 9.12506 5.99297 9.27846 6.03481 9.45698C6.05991 9.56018 6.01528 9.57412 5.94276 9.59365C5.82283 9.62712 5.70289 9.66617 5.59411 9.73032C5.52996 9.76658 5.4658 9.80284 5.40723 9.85026C5.053 10.132 5.02789 10.5029 5.34587 10.8209C5.42118 10.8962 5.47417 10.9353 5.33471 11.0106C5.15341 11.1138 5.08926 11.323 5.13388 11.5294C5.17572 11.7163 5.27613 11.8697 5.39607 12.0147C5.43791 12.0649 5.4658 12.1012 5.42396 12.1709C5.29845 12.3857 5.34029 12.5893 5.49091 12.7762C5.58016 12.885 5.68615 12.9742 5.8033 13.0523C5.85351 13.083 5.88977 13.1165 5.88419 13.1834C5.86745 13.3703 5.96787 13.4986 6.10733 13.6074C6.3221 13.7747 6.55919 13.8947 6.80743 14.0034C6.98594 14.0815 7.16724 14.1568 7.36807 14.2405C7.01941 14.4413 6.83532 14.7342 6.76838 15.1052C6.6847 15.5654 6.71817 16.0117 6.93294 16.4329C6.99431 16.5528 6.95247 16.5612 6.84927 16.5556C6.72933 16.55 6.60939 16.55 6.48667 16.5556C6.32768 16.5612 6.22727 16.6616 6.22448 16.8206C6.22169 17.7494 6.22169 18.6754 6.22448 19.6042C6.22448 19.7911 6.36673 19.9055 6.54803 19.872C6.62055 19.8581 6.69028 19.833 6.7628 19.8106C7.95102 19.4397 9.16155 19.1719 10.3972 19.0324C11.3288 18.9292 12.2604 18.8735 13.2004 18.9153C13.9005 18.946 14.5978 18.999 15.2895 19.1022C16.3494 19.2584 17.3898 19.501 18.4135 19.8218C18.7175 19.9166 18.8876 19.7883 18.896 19.4704C18.9044 19.2054 18.8737 18.9432 18.8625 18.681C18.8374 18.1008 18.8876 17.5235 18.8932 16.9461C18.896 16.67 18.7788 16.5556 18.5083 16.5556C17.8584 16.5556 17.2113 16.5556 16.5614 16.5556C16.514 16.5556 16.461 16.5723 16.4108 16.5333C16.4219 16.5138 16.4331 16.4914 16.4443 16.4747C16.7845 16.034 16.7929 15.571 16.5251 15.0996C16.447 14.9629 16.4917 14.9267 16.6116 14.8765C16.8905 14.7621 17.1583 14.6171 17.387 14.419C17.5321 14.2907 17.6185 14.1317 17.546 13.9365C17.507 13.8333 17.5348 13.7775 17.6074 13.7106C17.811 13.5209 18.0007 13.3173 18.1234 13.0607C18.2238 12.8487 18.221 12.6479 18.0648 12.4638C18.0146 12.4052 18.0258 12.3717 18.076 12.3271C18.2043 12.2072 18.3186 12.0705 18.4135 11.9227C18.7035 11.4652 18.6227 11.0524 18.182 10.74C18.1513 10.7177 18.1094 10.7066 18.0955 10.6619C18.5892 10.4193 18.7565 10.1208 18.6254 9.71359C18.4971 9.3203 18.2294 9.21152 17.6353 9.31751Z" fill="#E5A336"/>
<path d="M17.6352 9.31779C18.2293 9.2118 18.4971 9.32337 18.6226 9.71107C18.7537 10.1183 18.5864 10.4168 18.0927 10.6594C18.1066 10.7013 18.1512 10.7152 18.1791 10.7375C18.6198 11.0499 18.7007 11.4655 18.4106 11.9202C18.3158 12.0708 18.2015 12.2047 18.0731 12.3246C18.0257 12.3692 18.0146 12.4027 18.062 12.4613C18.2182 12.6454 18.221 12.8462 18.1206 13.0582C17.9978 13.3148 17.8082 13.5184 17.6046 13.7081C17.532 13.775 17.5041 13.8308 17.5432 13.934C17.6157 14.1292 17.5292 14.2882 17.3842 14.4165C17.1555 14.6173 16.8905 14.7596 16.6088 14.874C16.4889 14.9242 16.4442 14.9604 16.5223 15.0971C16.7929 15.5685 16.7817 16.0343 16.4414 16.4722C16.4275 16.4889 16.4191 16.5085 16.408 16.5308C16.4582 16.5698 16.5112 16.5531 16.5586 16.5531C17.2085 16.5559 17.8556 16.5531 18.5055 16.5531C18.776 16.5531 18.8932 16.6702 18.8904 16.9436C18.8848 17.5209 18.8346 18.1011 18.8597 18.6785C18.8709 18.9407 18.9016 19.2029 18.8932 19.4678C18.8848 19.7858 18.7147 19.9141 18.4106 19.8193C17.387 19.4985 16.3466 19.2559 15.2867 19.0997C14.595 18.9992 13.8977 18.9435 13.1976 18.9128C12.2604 18.8709 11.326 18.9239 10.3944 19.0299C9.15873 19.1694 7.9482 19.4344 6.75999 19.8081C6.69025 19.8304 6.61773 19.8555 6.54521 19.8695C6.36391 19.903 6.22166 19.7886 6.22166 19.6017C6.21887 18.6729 6.21887 17.7469 6.22166 16.8181C6.22166 16.6591 6.32207 16.5587 6.48385 16.5531C6.60379 16.5475 6.72651 16.5475 6.84645 16.5531C6.94965 16.5587 6.99149 16.5503 6.93013 16.4304C6.71536 16.0092 6.68189 15.5629 6.76556 15.1027C6.83251 14.7317 7.0166 14.4388 7.36525 14.238C7.16443 14.1543 6.98312 14.079 6.80461 14.0009C6.55916 13.8921 6.31929 13.7694 6.10451 13.6049C5.96505 13.4961 5.86743 13.3678 5.88137 13.1809C5.88695 13.1139 5.85069 13.0805 5.80049 13.0498C5.68334 12.9745 5.57735 12.8852 5.48809 12.7737C5.33747 12.5868 5.29563 12.3832 5.42115 12.1684C5.46299 12.0987 5.4351 12.0596 5.39326 12.0122C5.27332 11.8672 5.17291 11.7165 5.13107 11.5269C5.08644 11.3205 5.15059 11.1085 5.33189 11.0081C5.46857 10.9328 5.41836 10.8937 5.34305 10.8184C5.02787 10.5032 5.05297 10.1322 5.40441 9.85332C5.46299 9.8087 5.52714 9.76965 5.59129 9.73339C5.70007 9.67202 5.82001 9.63019 5.93995 9.59671C6.01247 9.57719 6.0571 9.56045 6.03199 9.46004C5.99016 9.28153 6.05431 9.12812 6.20493 9.02213C6.27187 8.97471 6.27466 8.93009 6.25792 8.86036C6.09057 8.16026 5.98458 7.449 6.0292 6.72659C6.06825 6.12132 6.17703 5.52163 6.29418 4.92753C6.39181 4.43662 6.48664 3.94571 6.66236 3.47433C6.6791 3.4297 6.69583 3.38787 6.71815 3.34882C6.85203 3.10336 7.03612 3.042 7.28715 3.15915C7.53261 3.27351 7.75853 3.41855 7.98446 3.56359C8.95233 4.19396 9.90346 4.84664 10.7849 5.59694C10.8797 5.67783 10.9745 5.65273 11.0722 5.64157C11.9759 5.53837 12.8573 5.62763 13.7191 5.91771C14.0762 6.03764 14.4192 6.18826 14.7456 6.37793C14.8404 6.43372 14.9213 6.43929 15.0189 6.41977C15.6883 6.27752 16.3578 6.13248 17.03 5.99581C17.2838 5.94281 17.5376 5.88424 17.797 5.8675C18.1317 5.84519 18.2907 5.99023 18.3047 6.32494C18.3242 6.73495 18.2544 7.1366 18.1763 7.53826C18.0592 8.14352 17.8891 8.73484 17.6352 9.31779ZM9.16989 5.7643C9.17826 5.77267 9.18941 5.78103 9.19778 5.79219V5.7894C9.20894 5.80056 9.21731 5.81172 9.22846 5.82287C9.25636 5.84798 9.28146 5.87308 9.30935 5.89539C9.40698 6.00696 9.50739 6.11295 9.60501 6.22731C9.72774 6.36956 9.72774 6.42814 9.57154 6.5425C9.39582 6.6708 9.21452 6.79353 9.02485 6.89952C8.33591 7.28443 7.75853 7.7865 7.36804 8.48102C7.32899 8.54796 7.27878 8.61211 7.22579 8.6679C7.13653 8.75994 7.05843 8.75157 6.9887 8.64279C6.92455 8.54517 6.89387 8.43081 6.87156 8.31645C6.74883 7.76139 6.72373 7.19797 6.7293 6.62896C6.7293 6.58434 6.74604 6.53971 6.72094 6.49508C6.47548 6.58712 6.47548 6.58712 6.47269 6.83816C6.4699 6.91347 6.46433 6.98599 6.46433 7.0613C6.4699 7.81439 6.61495 8.54238 6.82135 9.26201C6.83251 9.30106 6.84366 9.34289 6.84366 9.38473C6.84645 9.46841 6.8074 9.4963 6.7293 9.45446C6.67631 9.42657 6.63168 9.38473 6.57032 9.37358C6.53964 9.368 6.50338 9.35405 6.48106 9.39031C6.46712 9.41541 6.48385 9.44331 6.4978 9.46841C6.55358 9.5493 6.60937 9.6274 6.66515 9.70549C6.77114 9.85054 6.7572 9.8868 6.58426 9.9119C6.52848 9.92027 6.47269 9.92585 6.4197 9.93421C6.18261 9.97326 5.94553 10.0235 5.73355 10.149C5.52156 10.2745 5.51041 10.3833 5.68613 10.5478C5.70844 10.5702 5.73633 10.5897 5.76144 10.6092C5.96226 10.7682 6.19098 10.8853 6.40296 11.022C6.44759 11.0527 6.48664 11.0471 6.53406 11.0276C6.76277 10.9355 6.99707 10.8602 7.23416 10.8045C7.32062 10.7849 7.33457 10.757 7.30389 10.6734C7.22579 10.467 7.27878 10.3275 7.46845 10.2159C7.52424 10.1825 7.5856 10.1601 7.64418 10.1322C7.68601 10.1239 7.72506 10.1183 7.7669 10.1099C8.00399 10.0597 8.24386 10.0374 8.48653 10.0709C8.67619 10.0988 8.70967 10.1769 8.5981 10.3275C8.55347 10.3861 8.50047 10.4391 8.45305 10.4976C8.43632 10.5172 8.40564 10.5395 8.42795 10.5674C8.43911 10.5813 8.46979 10.5813 8.4921 10.5785C8.6483 10.5674 8.80729 10.5506 8.96349 10.5451C9.61338 10.5144 10.2605 10.5144 10.9076 10.5702C11.3343 10.6064 11.7555 10.6678 12.1572 10.824C12.2436 10.8575 12.3245 10.8602 12.4138 10.8379C13.1473 10.6706 13.8586 10.6929 14.5224 11.0973C14.5615 11.1196 14.5978 11.1252 14.6396 11.1224C15.4652 11.036 16.2378 11.1643 16.9128 11.6859C17.0997 11.8476 17.2643 12.0261 17.3619 12.2604C17.387 12.3218 17.4177 12.3218 17.4623 12.2828C17.6854 12.0987 17.8946 11.9062 18.0536 11.6608C18.1178 11.5603 18.1596 11.4543 18.1234 11.3177C18.0453 11.7472 17.7691 11.8811 17.3926 11.6775C17.2447 11.5966 17.122 11.4822 16.9965 11.3735C16.9491 11.3177 16.9017 11.2619 16.857 11.2033C16.6646 10.9579 16.6897 10.8937 16.9937 10.8491C17.0885 10.8547 17.1806 10.863 17.2754 10.8686C17.3145 10.877 17.3507 10.8881 17.3982 10.8686C17.3842 10.8575 17.3758 10.8491 17.3647 10.8435C17.3452 10.8351 17.3228 10.8323 17.3005 10.8268C17.2475 10.771 17.2754 10.7264 17.3256 10.6873C17.3842 10.6399 17.4316 10.5841 17.4679 10.5172C17.5014 10.4586 17.493 10.4251 17.4177 10.4168C17.3033 10.4056 17.1862 10.4084 17.0746 10.3693C16.9853 10.3387 16.9351 10.2912 16.9937 10.1936C17.0216 10.1462 17.03 10.1016 17.016 10.0486C16.9742 9.90074 16.9435 9.75291 16.8961 9.60787C16.4833 8.34156 15.6688 7.40437 14.5252 6.74332C14.1403 6.52018 13.7331 6.34167 13.2952 6.24405L13.2868 6.24684C13.2673 6.22173 13.2422 6.21894 13.2143 6.22173C13.2115 6.21616 13.2059 6.21337 13.2003 6.21894C13.192 6.21337 13.1864 6.205 13.178 6.205C12.5672 6.0488 11.9508 5.99023 11.3232 6.05159C11.1224 6.07112 10.9187 6.09064 10.7179 6.11295C10.3525 5.74477 9.92856 5.44633 9.51855 5.12835C9.40698 5.04189 9.33446 5.01399 9.26472 5.16182C9.24241 5.20924 9.18663 5.23992 9.14758 5.27618C9.02206 5.34033 8.88539 5.37102 8.70409 5.37659C8.84913 5.49374 8.95791 5.583 9.06669 5.66946C9.07785 5.67783 9.089 5.68899 9.09737 5.69736C9.10574 5.71967 9.12247 5.73362 9.14758 5.73362C9.15036 5.74477 9.15873 5.75314 9.16989 5.7643ZM17.3284 19.1443C17.44 19.1694 17.4902 19.0969 17.5181 19.0076C17.5627 18.8682 17.5404 18.7231 17.5404 18.5809C17.5404 18.539 17.5069 18.5307 17.4707 18.5307C17.3786 18.4944 17.281 18.4916 17.1862 18.4721C17.1248 18.4609 17.0997 18.4777 17.1025 18.5418C17.1025 18.5753 17.122 18.6199 17.0858 18.645C17.0104 18.6952 16.7901 18.5809 16.7901 18.4888C16.7901 18.1318 16.7901 17.7748 16.7901 17.4177C16.7901 17.3508 16.7985 17.2839 16.8849 17.309C16.9602 17.3313 17.1025 17.2337 17.1025 17.4094C17.1025 17.4903 17.1304 17.5098 17.2057 17.5126C17.5599 17.5349 17.5069 17.5767 17.5097 17.2337C17.5097 17.2141 17.5097 17.1974 17.5097 17.1779C17.4958 16.9743 17.3842 16.8655 17.1806 16.8599C17.0328 16.8571 16.8849 16.8571 16.7343 16.8571C16.5279 16.8571 16.4247 16.9464 16.408 17.1556C16.394 17.3452 16.3968 17.5349 16.3968 17.7246C16.3968 18.0397 16.3968 18.3549 16.408 18.6701C16.4135 18.8403 16.5028 18.9741 16.6757 19.0188C16.8738 19.069 17.0746 19.1024 17.2726 19.1443C17.2922 19.1666 17.3117 19.1694 17.3284 19.1443ZM15.4903 7.25654C15.5377 7.30117 15.5907 7.34022 15.6298 7.39043C15.7079 7.48805 15.7915 7.50478 15.9087 7.45458C16.0454 7.396 16.1876 7.35695 16.3299 7.31233C16.4108 7.28722 16.4749 7.27049 16.3801 7.17565C16.3103 7.10592 16.2908 7.00551 16.2518 6.91625C16.2406 6.8521 16.2239 6.78795 16.2211 6.7238C16.2211 6.6206 16.1709 6.59828 16.0816 6.6206C15.9645 6.64849 15.8473 6.67359 15.7302 6.69869C15.4931 6.7489 15.256 6.8019 14.991 6.85768C15.1751 7.0083 15.3313 7.13382 15.4903 7.25654ZM11.3455 17.9254C11.4069 17.9226 11.4654 17.9142 11.5268 17.9198C11.6356 17.9254 11.6802 17.878 11.669 17.772C11.6635 17.7301 11.6663 17.6883 11.669 17.6465C11.6746 17.5795 11.6356 17.5544 11.577 17.5544C11.5352 17.5544 11.4933 17.5516 11.4515 17.5572C11.3539 17.5712 11.3148 17.5321 11.326 17.4345C11.3316 17.3982 11.3288 17.3592 11.326 17.3229C11.3176 17.2364 11.3539 17.2086 11.4375 17.2113C11.5352 17.2169 11.6328 17.2058 11.7276 17.2113C11.8894 17.2197 11.8531 17.1081 11.8587 17.0133C11.8671 16.9101 11.8476 16.8432 11.722 16.8487C11.5519 16.8543 11.379 16.8487 11.2088 16.8487C10.9132 16.8487 10.9132 16.8487 10.9132 17.1444C10.9132 17.613 10.9132 18.0788 10.916 18.5474C10.916 18.5892 10.8825 18.6701 10.9745 18.6534C11.0749 18.6366 11.1781 18.659 11.2758 18.6199C11.3622 18.6311 11.3455 18.5697 11.3455 18.5195C11.3455 18.3242 11.3455 18.1262 11.3455 17.9254ZM15.4847 18.804C15.5879 18.8319 15.5545 18.751 15.56 18.7036C15.5851 18.5167 15.521 18.3298 15.5684 18.1429C15.627 18.2964 15.6967 18.4498 15.7386 18.6088C15.786 18.8012 15.8724 18.9128 16.0872 18.9184C16.1988 18.9211 16.2322 18.91 16.2322 18.7928C16.2267 18.2183 16.2295 17.6437 16.2295 17.0663C16.2295 16.8599 16.2295 16.8571 16.0175 16.8571C15.7999 16.8571 15.8362 16.8348 15.8334 17.0412C15.8306 17.2141 15.8334 17.3843 15.8334 17.5572C15.8194 17.56 15.8027 17.56 15.7888 17.5628C15.719 17.3759 15.6465 17.189 15.5824 16.9994C15.5489 16.8989 15.4931 16.8404 15.3815 16.8543C15.3397 16.8599 15.2979 16.8571 15.256 16.8515C15.1556 16.8376 15.1221 16.8683 15.1221 16.9798C15.1277 17.4568 15.1249 17.9365 15.1249 18.4135C15.1277 18.7649 15.1277 18.7649 15.4847 18.804ZM7.02496 5.25108C7.0166 5.27339 7.00823 5.29292 7.00265 5.31523C6.85482 6.08785 6.82414 6.86605 6.89945 7.64982C6.92734 7.93433 6.9636 8.21883 7.05843 8.49218C7.09191 8.58701 7.12538 8.5898 7.18116 8.50891C7.44056 8.11563 7.69717 7.72234 8.0514 7.39043C7.80316 7.35138 7.75296 7.26491 7.86731 7.08082C7.90915 7.01388 7.85616 7.01109 7.82826 6.99156C7.72785 6.92462 7.69159 6.84373 7.75853 6.73216C7.81432 6.70706 7.8701 6.67917 7.92589 6.65407C7.78643 6.49787 7.78922 6.46719 7.95936 6.3333C8.00957 6.29425 7.96773 6.26915 7.95657 6.24126C7.92031 6.13806 7.93705 6.05996 8.0514 6.02091C8.07651 6.01254 8.1295 6.02091 8.10998 5.96791C8.04025 5.79498 8.16855 5.75593 8.29407 5.71409C8.24386 5.63599 8.21597 5.56068 8.28291 5.49095C8.33591 5.43238 8.41679 5.43517 8.50884 5.41564C8.1044 5.10883 7.71391 4.8299 7.30389 4.57887C7.25368 4.54819 7.20905 4.51751 7.18395 4.60676C7.11422 4.81875 7.04449 5.03073 7.02496 5.25108ZM13.4876 15.5545C13.4486 15.4681 13.4012 15.3816 13.3677 15.2896C13.337 15.2031 13.2896 15.1724 13.1948 15.1696C13.0023 15.164 12.8071 15.1417 12.6146 15.1222C12.2604 15.0859 11.9089 15.0385 11.5603 14.9744C11.4515 14.9548 11.4124 14.9744 11.4403 15.0971C11.4626 15.1891 11.4487 15.2896 11.4515 15.3872C11.3929 15.7386 11.2228 16.0231 10.955 16.2518C10.8323 16.3578 10.6928 16.4331 10.5617 16.528C10.5506 16.5308 10.5366 16.5308 10.5422 16.5475C10.5422 16.5503 10.5561 16.5475 10.5645 16.5475C11.5826 16.5475 12.6007 16.5475 13.6187 16.5475C13.8223 16.5475 14.026 16.5475 14.2547 16.5475C14.1766 16.4722 14.118 16.4164 14.0566 16.3606C14.0232 16.3327 13.9953 16.3104 13.9618 16.369C13.853 16.5614 13.8251 16.5698 13.6271 16.4973C13.5853 16.4276 13.5797 16.369 13.6857 16.3718C13.7331 16.3718 13.7945 16.4304 13.8196 16.3634C13.8474 16.2825 13.8893 16.1877 13.8363 16.1012C13.7247 15.9171 13.6048 15.7386 13.4876 15.5545ZM13.8753 11.0192C14.0566 11.1252 14.0594 11.1782 13.8921 11.3037C13.7721 11.3958 13.6327 11.4488 13.4625 11.5185C13.6104 11.538 13.7247 11.5548 13.8363 11.5715C14.4081 11.658 14.9687 11.7974 15.5098 12.0066C15.5796 12.0345 15.6437 12.054 15.6381 12.1572C15.6075 12.6481 15.4959 13.1167 15.256 13.5491C15.097 13.8364 15.097 13.8336 15.3146 14.0874C15.4568 14.2882 15.6298 14.4639 15.7915 14.6452C15.8334 14.6899 15.8724 14.6899 15.9254 14.6731C16.2797 14.5504 16.6255 14.4054 16.9435 14.2045C17.1527 14.0734 17.1499 14.0707 16.9686 13.9089C16.8654 13.8168 16.8654 13.7666 16.9742 13.6774C17.0634 13.6049 17.1527 13.5295 17.2364 13.4514C17.4093 13.2897 17.5739 13.1223 17.6994 12.9187C17.7663 12.8099 17.7496 12.729 17.638 12.6621C17.5543 12.6119 17.4651 12.5728 17.373 12.5449C17.3089 12.5254 17.281 12.4919 17.2615 12.4222C17.2029 12.213 17.0885 12.0345 16.9156 11.9006C16.8849 11.8672 16.8542 11.8309 16.8208 11.803C16.182 11.287 15.4401 11.1782 14.6507 11.2591C14.5782 11.2675 14.5197 11.2619 14.4555 11.2228C14.2742 11.1113 14.0817 11.022 13.8726 10.969C13.6578 10.8881 13.4374 10.863 13.2087 10.8826C13.1111 10.8798 13.0135 10.877 12.9186 10.8993C12.5142 10.9885 12.1125 11.0332 11.7248 10.8351C11.7137 10.8296 11.6969 10.8296 11.683 10.8268C10.5952 10.6148 9.50181 10.6371 8.40843 10.7347C8.29686 10.7459 8.17692 10.7347 8.07372 10.8045C7.96215 10.8798 7.83384 10.9244 7.70275 10.9495C7.47403 10.8686 7.25647 10.9383 7.0417 11.0053C6.92176 11.0415 6.79346 11.0666 6.68747 11.1252C6.43922 11.2647 6.16867 11.2786 5.89532 11.2898C5.86743 11.2898 5.83954 11.2926 5.81164 11.2954C5.52435 11.3288 5.49088 11.3902 5.65266 11.6273C5.78654 11.8253 5.94832 11.9955 6.14635 12.1293C6.18261 12.1544 6.21887 12.1768 6.20493 12.227C6.19098 12.2716 6.14914 12.2688 6.11288 12.2744C6.04594 12.2855 5.97621 12.2995 5.90927 12.3218C5.76144 12.372 5.75028 12.4278 5.85906 12.5366C6.00968 12.6844 6.19656 12.7792 6.37786 12.8824C6.43922 12.9159 6.54242 12.9215 6.54521 13.008C6.548 13.0944 6.4448 13.0888 6.38902 13.1195C6.29697 13.1697 6.30255 13.2088 6.38065 13.2674C6.4978 13.351 6.62052 13.4263 6.74883 13.4933C7.32062 13.7834 7.93426 13.9647 8.53952 14.1655C8.88539 14.2798 9.22289 14.2324 9.56596 14.1822C9.86999 14.1543 10.1684 14.0958 10.478 14.132C10.7793 14.1683 11.0582 14.2687 11.2032 14.5337C11.3399 14.7875 11.5324 14.8656 11.7862 14.8767C11.8643 14.8795 11.9424 14.8963 12.0205 14.9074C12.3915 14.9604 12.7652 15.0106 13.139 15.019C13.1697 15.019 13.2143 15.0469 13.231 14.9939C13.2561 14.913 13.1752 14.8098 13.0916 14.8126C12.8963 14.8238 12.7011 14.8265 12.5086 14.8098C11.6607 14.7373 11.1307 14.2492 10.9857 13.4124C10.8825 12.8127 10.9522 12.2214 11.0889 11.6356C11.1196 11.5018 11.1837 11.446 11.3176 11.432C11.8699 11.3707 12.4194 11.432 12.9688 11.4711C13.1027 11.4822 13.2394 11.5464 13.4095 11.4934C13.3008 11.4237 13.2171 11.379 13.139 11.3205C13.0525 11.2535 12.9242 11.1949 12.9437 11.0722C12.966 10.9467 13.1111 10.9634 13.2087 10.93C13.4374 10.9244 13.6578 10.969 13.8753 11.0192ZM14.4332 13.2674C14.4137 13.2255 14.4053 13.2004 14.3913 13.1781C14.0901 12.6007 13.6271 12.1935 13.0358 11.9313C12.5086 11.697 11.9647 11.5241 11.3734 11.5687C11.2786 11.5771 11.2367 11.6105 11.2172 11.7026C11.1056 12.2102 11.0247 12.7235 11.0945 13.245C11.1447 13.6132 11.2451 13.9647 11.5156 14.238C11.9508 14.6787 12.503 14.7178 13.0776 14.6759C13.1641 14.6703 13.1557 14.6173 13.1446 14.5588C13.0246 13.8085 13.5992 13.1167 14.4332 13.2674ZM7.61628 18.0621C7.61349 18.09 7.61349 18.1178 7.61628 18.1457C7.62465 18.4191 7.58839 18.6924 7.6386 18.963C7.67207 19.1527 7.76969 19.2084 7.95936 19.1666C8.06814 19.1415 8.17413 19.1136 8.28291 19.0913C8.6232 19.0216 8.73477 18.8905 8.74035 18.539C8.74314 18.1792 8.74314 17.8166 8.74314 17.4568C8.74314 17.3452 8.7515 17.2364 8.7264 17.1249C8.68456 16.9492 8.60088 16.8655 8.42237 16.8571C8.25502 16.8487 8.09045 16.8543 7.9231 16.8571C7.792 16.8599 7.70833 16.9296 7.66649 17.0551C7.63302 17.1528 7.62186 17.2532 7.62186 17.3564C7.61628 17.5907 7.61628 17.825 7.61628 18.0621ZM12.9744 17.97C12.9884 17.9672 12.9995 17.9672 13.0135 17.9644C13.072 18.0983 13.1306 18.235 13.1864 18.3689C13.2868 18.6143 13.2868 18.6115 13.5518 18.6171C13.6606 18.6199 13.6968 18.5864 13.694 18.4749C13.6885 17.984 13.6885 17.4931 13.694 16.9994C13.6968 16.8822 13.655 16.846 13.5434 16.846C13.284 16.846 13.284 16.8404 13.284 17.1081C13.284 17.2281 13.284 17.348 13.284 17.468C13.2701 17.468 13.2561 17.4707 13.2422 17.4707C13.1864 17.3452 13.1334 17.2169 13.0776 17.0914C12.9716 16.8432 12.9716 16.8487 12.6955 16.846C12.6007 16.846 12.57 16.8711 12.57 16.9687C12.5756 17.4177 12.5728 17.8668 12.5728 18.3187C12.5728 18.5976 12.5728 18.5948 12.8489 18.592C12.9437 18.592 12.9828 18.5641 12.9772 18.4637C12.9688 18.3019 12.9744 18.1346 12.9744 17.97ZM17.6631 18.0537C17.6631 18.4163 17.6659 18.7761 17.6603 19.1387C17.6603 19.2252 17.6799 19.2698 17.7719 19.2893C17.9755 19.3367 18.1736 19.3953 18.3744 19.4567C18.6366 19.5376 18.5975 19.518 18.5975 19.2949C18.5947 18.9211 18.6394 19.002 18.2963 18.91C18.0453 18.843 18.0676 18.91 18.0676 18.6115C18.0676 18.38 18.0676 18.3772 18.2907 18.4107C18.3828 18.4247 18.433 18.4079 18.4246 18.2991C18.4162 18.2071 18.419 18.1151 18.4246 18.0202C18.4274 17.9338 18.3911 17.9003 18.3047 17.8863C18.0648 17.8473 18.0648 17.8445 18.0676 17.6046C18.0676 17.5712 18.0704 17.5405 18.0676 17.507C18.0592 17.415 18.0843 17.3675 18.1903 17.3815C18.2851 17.3926 18.3855 17.3871 18.4804 17.3954C18.5613 17.4038 18.6031 17.3787 18.5975 17.2894C18.5919 17.189 18.5919 17.0858 18.5975 16.9826C18.6003 16.8934 18.5641 16.8571 18.4748 16.8599C18.2377 16.8627 18.0034 16.8627 17.7663 16.8543C17.6771 16.8515 17.6575 16.8822 17.6603 16.9631C17.6659 17.3313 17.6631 17.6911 17.6631 18.0537ZM14.9687 17.9087C14.9687 17.6771 14.9715 17.4456 14.9659 17.2141C14.9604 16.9687 14.8488 16.8599 14.6033 16.8543C14.4778 16.8515 14.3523 16.8515 14.2268 16.8515C13.9395 16.8515 13.8474 16.9436 13.8447 17.2364C13.8419 17.6074 13.8447 17.9784 13.8447 18.3494C13.8447 18.6394 13.8447 18.6366 14.1347 18.6534C14.2184 18.659 14.2547 18.6339 14.2519 18.5474C14.2491 18.4079 14.2519 18.2685 14.2519 18.129C14.2519 17.9393 14.2519 17.9449 14.4388 17.9477C14.5308 17.9505 14.5615 17.9784 14.5531 18.0704C14.5448 18.182 14.5503 18.2936 14.5503 18.4051C14.5503 18.712 14.5503 18.7092 14.8516 18.7259C14.9353 18.7315 14.9687 18.7036 14.9659 18.6171C14.9659 18.38 14.9687 18.1429 14.9687 17.9087ZM9.51297 17.2894C9.44881 17.2504 9.44045 17.203 9.42092 17.1611C9.28425 16.846 9.28425 16.8487 8.94675 16.8599C8.86307 16.8627 8.85471 16.885 8.88818 16.9575C9.00811 17.2281 9.11689 17.5042 9.23683 17.7748C9.26751 17.8445 9.26751 17.9003 9.23962 17.97C9.1141 18.288 8.99138 18.606 8.87144 18.9211C9.18384 18.9574 9.37908 18.843 9.43487 18.5334C9.43487 18.5279 9.43766 18.5251 9.43766 18.5195C9.45718 18.486 9.4516 18.4247 9.49902 18.4219C9.54923 18.4191 9.54923 18.4804 9.56596 18.5139C9.70821 18.8124 9.70821 18.8124 10.0234 18.7594C10.029 18.7594 10.0318 18.7594 10.0373 18.7566C10.1238 18.751 10.135 18.712 10.0987 18.6366C10.0095 18.4581 9.93972 18.2713 9.83931 18.0983C9.73332 17.9142 9.71937 17.7441 9.82815 17.5544C9.89788 17.4317 9.94251 17.2922 10.0011 17.1611C10.1433 16.8404 10.1433 16.8432 9.78631 16.8515C9.71379 16.8543 9.68032 16.8794 9.65522 16.9436C9.61617 17.0607 9.56596 17.1667 9.51297 17.2894ZM6.5229 18.1876C6.5229 18.5446 6.5229 18.9016 6.5229 19.2586C6.5229 19.5348 6.5229 19.532 6.78509 19.4567C6.89108 19.426 6.93571 19.3758 6.93292 19.2614C6.92455 19.0076 6.93292 18.751 6.93013 18.4972C6.93013 18.4219 6.95523 18.394 7.02775 18.3772C7.27321 18.3187 7.27321 18.3159 7.27321 18.0565C7.27321 18.0286 7.27042 18.0007 7.27321 17.9728C7.28715 17.8668 7.24531 17.8333 7.13932 17.8473C6.93292 17.8752 6.93292 17.8724 6.93292 17.666C6.93292 17.6437 6.93292 17.6186 6.93292 17.5963C6.93292 17.3899 6.93292 17.3899 7.13374 17.3703C7.47124 17.3341 7.46566 17.3341 7.46845 16.9994C7.46845 16.8822 7.42383 16.8571 7.32062 16.8599C7.09469 16.8655 6.86598 16.8655 6.64005 16.8599C6.548 16.8571 6.5229 16.885 6.5229 16.977C6.52569 17.3815 6.5229 17.7859 6.5229 18.1876ZM16.8068 8.98587C16.8877 8.81015 16.963 8.65674 17.0272 8.50054C17.1973 8.09331 17.3396 7.68051 17.4149 7.2426C17.4344 7.13103 17.3982 7.11429 17.3005 7.14776C17.1304 7.20634 16.9574 7.25654 16.7845 7.31233C16.751 7.32348 16.7008 7.32348 16.7287 7.37927C16.7873 7.502 16.7092 7.5522 16.6088 7.58567C16.6646 7.67493 16.7957 7.75303 16.6618 7.85623C16.5976 7.90644 16.6172 7.92038 16.6562 7.96501C16.7259 8.04869 16.7204 8.13236 16.6088 8.1742C16.5474 8.19931 16.5391 8.21604 16.5809 8.26904C16.6283 8.3304 16.6395 8.39734 16.5725 8.45592C16.5391 8.48381 16.5474 8.5117 16.5642 8.54238C16.6395 8.68184 16.7176 8.82131 16.8068 8.98587ZM12.0093 17.7134C12.0093 17.917 12.0093 18.1206 12.0093 18.3242C12.0093 18.6004 12.0093 18.5948 12.2855 18.592C12.3887 18.592 12.4194 18.5558 12.4194 18.4526C12.4138 18.0174 12.4194 17.5823 12.4166 17.1472C12.4138 16.8264 12.4835 16.8487 12.1125 16.846C12.0344 16.846 12.0093 16.8683 12.0093 16.9464C12.0121 17.203 12.0093 17.4568 12.0093 17.7134ZM15.8641 16.408C15.8892 16.422 15.9087 16.4164 15.9282 16.4025C16.2211 16.1905 16.341 15.7721 16.2016 15.4318C16.1179 15.2282 16.0035 15.0441 15.8445 14.8907C15.5517 14.6062 15.2867 14.2966 15.044 13.9702C14.9046 13.7834 14.7456 13.616 14.5475 13.4905C14.3858 13.3873 14.2128 13.365 14.0287 13.4152C14.3718 13.4961 14.6005 13.7304 14.8042 13.9926C15.0691 14.3328 15.3425 14.6648 15.6521 14.966C15.8139 15.1222 15.9282 15.3147 16.0119 15.5211C16.1263 15.8056 16.1067 16.0733 15.9171 16.3216C15.8947 16.3439 15.8641 16.369 15.8641 16.408ZM7.17 3.57474C7.16164 3.5859 7.15327 3.59427 7.1449 3.60543C7.1979 3.73094 7.29552 3.82578 7.39872 3.90666C7.90357 4.3111 8.41401 4.71275 8.92165 5.11162C9.02206 5.18971 9.089 5.17577 9.16989 5.0642C9.23962 4.96936 9.20336 4.91079 9.1141 4.84943C8.66225 4.53424 8.20202 4.21906 7.73343 3.9234C7.54934 3.80346 7.35967 3.6891 7.17 3.57474ZM17.1136 10.9941C17.0439 10.9941 17.0077 10.9941 16.9714 10.9941C16.9017 10.9941 16.8877 11.0248 16.9268 11.0778C17.1025 11.3065 17.3005 11.5129 17.5795 11.6161C17.7412 11.6775 17.8779 11.6133 17.9421 11.4599C17.9978 11.3316 17.9532 11.2396 17.7886 11.1531C17.5711 11.036 17.3284 11.0081 17.1136 10.9941ZM17.4484 10.294C17.6994 10.2857 17.9058 10.2745 18.0899 10.1629C18.2098 10.0904 18.2433 9.97605 18.1987 9.83938C18.1624 9.72502 18.0843 9.66645 17.9672 9.68876C17.6324 9.75291 17.387 9.96211 17.1583 10.1936C17.122 10.2327 17.1304 10.2578 17.1862 10.2633C17.2866 10.2745 17.387 10.3024 17.4484 10.294ZM8.28291 10.1908C8.02909 10.2076 7.78364 10.2103 7.5605 10.3275C7.47682 10.3721 7.39593 10.4307 7.4043 10.5367C7.41267 10.6371 7.46287 10.7236 7.55492 10.771C7.64696 10.8184 7.74459 10.8045 7.83663 10.7682C8.04304 10.6873 8.21318 10.5534 8.3638 10.3944C8.40843 10.347 8.50047 10.2968 8.47537 10.2355C8.44469 10.1713 8.34149 10.2103 8.28291 10.1908ZM17.3145 8.14073C17.2085 8.42244 17.1276 8.68742 16.9798 8.91335C16.8375 9.13649 16.9184 9.315 17.0216 9.52698C17.2141 9.20901 17.3368 8.88267 17.4511 8.55354C17.4567 8.53401 17.4567 8.50333 17.4456 8.48939C17.3786 8.39455 17.3619 8.2774 17.3145 8.14073ZM13.4095 11.0388C13.404 11.0388 13.3816 11.036 13.3593 11.0388C13.3259 11.0443 13.2757 11.0304 13.2673 11.0778C13.2617 11.1196 13.3063 11.1364 13.3398 11.1531C13.4486 11.2005 13.5574 11.2284 13.6745 11.1866C13.7024 11.1782 13.7359 11.1698 13.7387 11.142C13.7442 11.1029 13.6996 11.0945 13.6717 11.0834C13.5936 11.0527 13.5099 11.0471 13.4095 11.0388ZM17.4762 10.9049C17.4846 10.9021 17.493 10.8993 17.5014 10.8965C17.493 10.8937 17.4846 10.8853 17.479 10.8853C17.4707 10.8853 17.4623 10.8909 17.4539 10.8937C17.4595 10.8965 17.4679 10.8993 17.4762 10.9049ZM8.38332 10.5925L8.3889 10.5841H8.38053L8.38332 10.5925Z" fill="#630E04"/>
<path d="M13.2812 6.25221L13.2896 6.24943C13.3203 6.29963 13.3705 6.32473 13.4179 6.34984C14.0036 6.66781 14.5308 7.06946 15.0245 7.51016C15.1305 7.605 15.2476 7.69425 15.2923 7.83929C15.256 7.8365 15.2198 7.82814 15.1807 7.83092C14.8181 7.83929 14.6201 8.16842 14.8014 8.46687C14.885 8.60633 15.0161 8.6677 15.1723 8.67885C15.3899 8.6928 15.6019 8.73185 15.8139 8.78763C15.8892 8.80716 15.9673 8.82947 16.0426 8.79042C16.1179 8.83784 16.1737 8.90478 16.2239 8.9773C16.394 9.21439 16.5391 9.46821 16.6534 9.73598C16.8068 10.0958 16.9463 10.4612 16.9937 10.8545C16.6897 10.9019 16.6646 10.9632 16.857 11.2087C16.9017 11.2673 16.9491 11.3231 16.9965 11.3788C16.9686 11.482 16.9379 11.5852 16.91 11.6912C16.235 11.1696 15.4624 11.0413 14.6368 11.1278C14.5922 11.1334 14.5559 11.1278 14.5197 11.1027C13.8558 10.6983 13.1446 10.676 12.411 10.8433C12.3217 10.8628 12.2408 10.8628 12.1544 10.8294C11.7527 10.6732 11.3316 10.6118 10.9048 10.5755C10.2577 10.5198 9.6078 10.5198 8.9607 10.5504C8.8045 10.5588 8.64551 10.5755 8.48932 10.5839C8.467 10.5867 8.43632 10.5839 8.42516 10.5727C8.40285 10.5449 8.43353 10.5225 8.45027 10.503C8.49768 10.4472 8.55068 10.3942 8.59531 10.3329C8.70967 10.1823 8.67341 10.1042 8.48374 10.0763C8.24107 10.0428 8.00399 10.0651 7.76411 10.1153C7.72228 10.1237 7.68323 10.132 7.64139 10.1376C7.66091 9.98701 7.68044 9.83639 7.69996 9.68298C7.9482 9.70251 8.19924 9.71087 8.44469 9.64951C8.52837 9.62998 8.63715 9.62999 8.66225 9.52957C8.68735 9.43753 8.60089 9.38174 8.54231 9.32317C8.37496 9.1586 8.17134 9.04703 7.96773 8.93825C7.96773 8.87968 7.99562 8.83226 8.02072 8.78206C8.31917 8.14332 8.74593 7.60221 9.29262 7.15872C9.58828 6.91884 9.90904 6.71802 10.2549 6.56182C10.7179 6.35263 11.1949 6.21317 11.7025 6.16854C12.0261 6.14064 12.3468 6.14343 12.6704 6.16575C12.8461 6.17969 13.0135 6.24106 13.1892 6.22432C13.1948 6.22153 13.2003 6.22153 13.2031 6.22711C13.2254 6.25779 13.2533 6.25779 13.2812 6.25221ZM10.531 9.01635C10.0122 9.02193 9.59665 9.10003 9.18663 9.21439C9.09458 9.23949 9.02764 9.2897 9.00812 9.38732C8.95791 9.66346 9.18384 9.87823 9.44603 9.8085C9.92857 9.68298 10.4139 9.60209 10.9132 9.71087C11.3009 9.79455 11.6635 9.93959 12.0065 10.1376C12.1851 10.2408 12.2548 10.2241 12.3831 10.0623C12.411 10.0261 12.4417 9.9898 12.4668 9.95354C12.5477 9.83081 12.5281 9.70808 12.3998 9.63277C11.8001 9.26738 11.1558 9.03588 10.531 9.01635ZM15.5461 9.76666C15.1305 9.76666 14.7902 9.8336 14.5308 9.94238C14.4694 9.96748 14.3969 9.99538 14.4053 10.0735C14.422 10.2157 14.4973 10.3357 14.5922 10.4389C14.6647 10.517 14.7567 10.4444 14.8376 10.4193C15.3397 10.2604 15.8222 10.2604 16.2629 10.6006C16.5168 10.7959 16.514 10.7987 16.7566 10.5923C16.8849 10.4835 16.8905 10.4305 16.7678 10.3106C16.3912 9.94517 15.9422 9.77224 15.5461 9.76666ZM11.2284 7.26471C10.9215 7.27587 10.6342 7.35675 10.3804 7.53805C10.2995 7.59384 10.227 7.65799 10.1768 7.74446C10.0876 7.90066 10.1517 8.02338 10.3302 8.03733C10.4557 8.04849 10.5812 8.0457 10.704 8.05685C10.9634 8.07638 11.22 8.11543 11.4794 8.12101C11.7109 8.12658 11.9117 7.95086 11.9368 7.75004C11.9619 7.55758 11.8336 7.3958 11.5965 7.32049C11.4794 7.28423 11.3567 7.26192 11.2284 7.26471Z" fill="#FD9C4A"/>
<path d="M7.70275 10.9466C7.83663 10.9215 7.96215 10.8769 8.07372 10.8016C8.17692 10.7319 8.29686 10.7402 8.40843 10.7319C9.5046 10.6342 10.598 10.6119 11.683 10.8239C11.6969 10.8267 11.7109 10.8267 11.7248 10.8323C12.1125 11.0303 12.517 10.9857 12.9186 10.8964C13.0135 10.8769 13.1111 10.8769 13.2087 10.8797C13.2087 10.8964 13.2059 10.9159 13.2059 10.9327C13.1083 10.9662 12.9633 10.9494 12.9409 11.0749C12.9214 11.1977 13.0497 11.259 13.1362 11.3232C13.2115 11.3818 13.298 11.4264 13.4067 11.4961C13.2366 11.5491 13.0999 11.4822 12.966 11.4738C12.4166 11.4347 11.8671 11.3734 11.3148 11.4347C11.1809 11.4487 11.1168 11.5045 11.0861 11.6384C10.9494 12.2269 10.8769 12.8154 10.9829 13.4151C11.1279 14.2547 11.6579 14.74 12.5058 14.8125C12.7011 14.8293 12.8935 14.8265 13.0888 14.8153C13.1752 14.8097 13.2561 14.9157 13.2282 14.9966C13.2115 15.0496 13.1669 15.0217 13.1362 15.0217C12.7596 15.0133 12.3887 14.9603 12.0177 14.9101C11.9396 14.899 11.8615 14.8822 11.7834 14.8795C11.5268 14.8655 11.3371 14.7874 11.2005 14.5364C11.0554 14.2714 10.7765 14.1682 10.4753 14.1347C10.1657 14.0985 9.8672 14.1598 9.56317 14.1849C9.5576 14.1347 9.51018 14.1236 9.47671 14.1013C9.13363 13.8614 8.82124 13.588 8.55626 13.2617C8.01794 12.5839 7.73622 11.8113 7.70275 10.9466Z" fill="#FDFCFC"/>
<path d="M14.4332 13.2673C13.5992 13.1167 13.0246 13.8084 13.1445 14.5588C13.1529 14.6173 13.1613 14.6703 13.0776 14.6759C12.503 14.7177 11.9507 14.6787 11.5156 14.238C11.2451 13.9646 11.1447 13.6132 11.0945 13.245C11.0247 12.7234 11.1056 12.213 11.2172 11.7026C11.2367 11.6105 11.2785 11.5743 11.3734 11.5687C11.9647 11.5241 12.5086 11.697 13.0358 11.9313C13.6243 12.1935 14.0873 12.6007 14.3913 13.1781C14.4025 13.2032 14.4136 13.2283 14.4332 13.2673Z" fill="#E5A336"/>
<path d="M7.70274 10.9465C7.73621 11.8111 8.01513 12.5838 8.56183 13.2588C8.8268 13.5851 9.13641 13.8584 9.48228 14.0983C9.51296 14.1206 9.56037 14.1318 9.56874 14.182C9.22567 14.2322 8.88817 14.2796 8.5423 14.1653C7.93425 13.9644 7.3234 13.7831 6.75161 13.4931C6.6233 13.4289 6.50058 13.3536 6.38343 13.2671C6.30533 13.2085 6.29975 13.1695 6.3918 13.1193C6.45037 13.0886 6.55357 13.0942 6.54799 13.0077C6.5452 12.9213 6.442 12.9157 6.38064 12.8822C6.19934 12.779 6.01246 12.6842 5.86184 12.5363C5.75027 12.4276 5.76422 12.3746 5.91205 12.3216C5.9762 12.2993 6.04593 12.2881 6.11566 12.2742C6.15192 12.2686 6.19376 12.2686 6.20771 12.2267C6.22444 12.1765 6.18539 12.1514 6.14913 12.1291C5.9511 11.9952 5.78932 11.8223 5.65544 11.627C5.49366 11.39 5.52713 11.3258 5.81442 11.2951C5.84232 11.2923 5.87021 11.2896 5.8981 11.2896C6.17145 11.2784 6.442 11.2672 6.69025 11.125C6.79624 11.0636 6.92454 11.0413 7.04448 11.005C7.25925 10.9353 7.47402 10.8656 7.70274 10.9465Z" fill="#BEBDBD"/>
<path d="M7.70274 9.68321C7.68321 9.83383 7.66369 9.98445 7.64416 10.1379C7.58559 10.1657 7.52423 10.1881 7.46844 10.2215C7.27877 10.3331 7.22578 10.4726 7.30388 10.679C7.33456 10.7626 7.32061 10.7878 7.23415 10.8101C6.99427 10.8658 6.76276 10.9412 6.53405 11.0332C6.48942 11.0527 6.45037 11.0583 6.40295 11.0276C6.18818 10.8882 5.96225 10.7738 5.76143 10.6148C5.73632 10.5953 5.71122 10.5758 5.68612 10.5535C5.5104 10.3889 5.52155 10.2801 5.73353 10.1546C5.94552 10.0291 6.17981 9.98166 6.41969 9.93982C6.47547 9.93145 6.52847 9.92588 6.58425 9.91751C6.75719 9.89519 6.77113 9.85614 6.66514 9.7111C6.60657 9.633 6.55357 9.55212 6.49779 9.47402C6.48105 9.4517 6.46432 9.42381 6.48105 9.39592C6.50058 9.35966 6.53962 9.37361 6.57031 9.37918C6.63167 9.39034 6.67909 9.43218 6.72929 9.46007C6.8046 9.50191 6.84644 9.47402 6.84365 9.39034C6.84365 9.3485 6.8325 9.30666 6.82134 9.26761C6.61493 8.54799 6.46989 7.82 6.46432 7.0669C6.46432 6.99159 6.46989 6.91907 6.47268 6.84376C6.47826 6.59273 6.47826 6.59273 6.72093 6.50069C6.74882 6.54253 6.73208 6.58994 6.72929 6.63457C6.72371 7.20079 6.74882 7.76421 6.87154 8.32206C6.89665 8.43642 6.92733 8.54799 6.98869 8.6484C7.05842 8.75718 7.13652 8.76834 7.22578 8.67351C7.27877 8.61772 7.32898 8.55357 7.36803 8.48663C7.76131 7.78932 8.3359 7.28725 9.02484 6.90513C9.21451 6.79914 9.39581 6.67641 9.57153 6.5481C9.72773 6.43375 9.72773 6.37796 9.605 6.23292C9.51017 6.12135 9.40975 6.01257 9.30934 5.901C9.46275 5.92331 9.54364 6.05162 9.66357 6.12414C9.75004 6.17714 9.80304 6.28034 9.91182 6.28871C10.0485 6.29986 10.1852 6.28592 10.3163 6.23571C10.4529 6.21897 10.5952 6.2134 10.7095 6.11856C10.9104 6.09904 11.114 6.07672 11.3148 6.0572C11.9424 5.99862 12.5616 6.0572 13.1696 6.21061C13.178 6.2134 13.1836 6.22176 13.192 6.22455C13.0162 6.24129 12.8461 6.17993 12.6732 6.16598C12.3496 6.14088 12.0289 6.14088 11.7053 6.16877C11.1977 6.2134 10.7207 6.35286 10.2577 6.56205C9.90903 6.71825 9.58826 6.91907 9.29539 7.15895C8.7487 7.60244 8.32195 8.14355 8.0235 8.78229C8.00119 8.83249 7.97329 8.87991 7.97051 8.93848C7.88125 8.91059 7.79478 8.87991 7.70553 8.86039C7.51865 8.82134 7.36245 8.89665 7.2983 9.04447C7.20904 9.24809 7.25925 9.44613 7.42103 9.56327C7.50749 9.62464 7.61069 9.63858 7.70274 9.68321Z" fill="#F07814"/>
<path d="M13.8753 10.9688C14.0845 11.0217 14.277 11.111 14.4583 11.2226C14.5224 11.2616 14.5782 11.2672 14.6535 11.2588C15.4429 11.1752 16.1848 11.2867 16.8236 11.8027C16.8598 11.8306 16.8877 11.8669 16.9184 11.9004C16.7092 12.5168 16.4191 13.0858 15.9617 13.5516C15.7664 13.7524 15.5712 13.9588 15.3146 14.0871C15.097 13.8333 15.0998 13.8361 15.256 13.5488C15.4959 13.1165 15.6075 12.6479 15.6381 12.157C15.6437 12.0538 15.5796 12.0342 15.5098 12.0063C14.9687 11.7972 14.4081 11.6577 13.8363 11.5712C13.7219 11.5545 13.6076 11.5378 13.4625 11.5182C13.6327 11.4513 13.7721 11.3955 13.8921 11.3035C14.0594 11.1752 14.0566 11.1249 13.8753 11.019C13.8753 11.0022 13.8753 10.9855 13.8753 10.9688Z" fill="#FDFCFC"/>
<path d="M15.3146 14.0873C15.5712 13.9562 15.7637 13.7526 15.9617 13.5517C16.4219 13.0832 16.712 12.5141 16.9184 11.9005C17.0913 12.0372 17.2057 12.2129 17.2643 12.4221C17.2838 12.489 17.3117 12.5253 17.3758 12.5448C17.4679 12.5727 17.5571 12.6118 17.6408 12.662C17.7524 12.7289 17.7663 12.8098 17.7022 12.9186C17.5767 13.1222 17.4121 13.2896 17.2392 13.4513C17.1555 13.5294 17.0662 13.6047 16.977 13.6773C16.8682 13.7665 16.8654 13.8167 16.9714 13.9088C17.1555 14.0705 17.1555 14.0705 16.9463 14.2044C16.6283 14.4053 16.2825 14.5503 15.9282 14.673C15.8724 14.6925 15.8334 14.6925 15.7943 14.6451C15.6298 14.4638 15.4568 14.2881 15.3146 14.0873Z" fill="#BEBDBD"/>
<path d="M10.5645 16.528C10.6928 16.4332 10.8351 16.3579 10.9578 16.2519C11.2255 16.0204 11.3957 15.7359 11.4543 15.3872C11.4905 15.39 11.5296 15.3844 11.5658 15.3928C12.1962 15.5713 12.8433 15.5657 13.4904 15.5546C13.6076 15.7359 13.7275 15.9172 13.8391 16.104C13.8893 16.1877 13.8502 16.2826 13.8223 16.3662C13.8 16.4332 13.7359 16.3774 13.6884 16.3746C13.5825 16.3718 13.588 16.4304 13.6299 16.5001C13.6271 16.5168 13.6271 16.5336 13.6243 16.5503C12.6062 16.5503 11.5882 16.5503 10.5701 16.5503C10.5729 16.542 10.5729 16.5336 10.5645 16.528Z" fill="#FDFCFC"/>
<path d="M7.75852 6.73487C7.69158 6.84644 7.73063 6.92733 7.82825 6.99427C7.85614 7.01101 7.90635 7.01658 7.8673 7.08353C7.75294 7.26762 7.80315 7.35129 8.05139 7.39313C7.69716 7.72505 7.44054 8.12112 7.18115 8.51162C7.12815 8.59251 7.09189 8.59251 7.05842 8.49488C6.96358 8.22154 6.92732 7.93703 6.89943 7.65253C6.82412 6.86875 6.8548 6.09056 7.00263 5.31794C7.00821 5.29562 7.01658 5.27331 7.02495 5.25378C7.04168 5.2761 7.06121 5.29562 7.07515 5.31794C7.34571 5.76979 7.5828 6.23839 7.75852 6.73487Z" fill="#FDFCFC"/>
<path d="M7.61628 18.0618C7.61628 17.8247 7.61628 17.5904 7.61628 17.3533C7.61628 17.2501 7.62744 17.1497 7.66091 17.0521C7.70275 16.9293 7.78922 16.8596 7.91752 16.854C8.08487 16.8485 8.25223 16.8457 8.41679 16.854C8.59252 16.8624 8.67898 16.9489 8.72082 17.1218C8.74592 17.2334 8.73756 17.3422 8.73756 17.4537C8.73756 17.8135 8.73756 18.1761 8.73477 18.5359C8.73198 18.8874 8.62041 19.0185 8.27733 19.0882C8.16855 19.1105 8.06256 19.1384 7.95378 19.1635C7.76411 19.2054 7.66928 19.1496 7.63302 18.9599C7.58281 18.6894 7.62186 18.416 7.6107 18.1427C7.61349 18.1176 7.61628 18.0897 7.61628 18.0618ZM8.32475 17.9781C8.32475 17.7884 8.32475 17.5988 8.32475 17.4091C8.32475 17.3784 8.32196 17.3226 8.3108 17.3198C8.22434 17.2975 8.13787 17.3059 8.0514 17.3254C7.98725 17.3394 7.99562 17.4007 7.99562 17.4509C7.99562 17.8107 7.99562 18.1733 7.99562 18.5332C7.99562 18.5889 7.96215 18.6698 8.07651 18.6698C8.25502 18.6698 8.32196 18.6336 8.32475 18.5192C8.32754 18.3407 8.32475 18.1594 8.32475 17.9781Z" fill="#FDFCFC"/>
<path d="M15.4847 18.8041C15.1249 18.7678 15.1249 18.7678 15.1249 18.4136C15.1249 17.9367 15.1277 17.4569 15.1221 16.9799C15.1193 16.8712 15.1556 16.8405 15.256 16.8516C15.2978 16.8572 15.3397 16.8572 15.3815 16.8544C15.4959 16.8405 15.5489 16.8963 15.5824 16.9995C15.6465 17.1891 15.719 17.376 15.7888 17.5629C15.8027 17.5601 15.8194 17.5601 15.8334 17.5573C15.8334 17.3844 15.8306 17.2142 15.8334 17.0413C15.8362 16.8377 15.7999 16.8572 16.0175 16.8572C16.2295 16.8572 16.2295 16.86 16.2295 17.0664C16.2295 17.641 16.2267 18.2156 16.2322 18.793C16.2322 18.9101 16.1988 18.9213 16.0872 18.9185C15.8724 18.9129 15.786 18.7985 15.7385 18.6089C15.6995 18.4499 15.627 18.2993 15.5684 18.1431C15.56 18.0789 15.5461 18.0175 15.4819 17.9562C15.4847 18.2518 15.4847 18.528 15.4847 18.8041Z" fill="#FDFCFC"/>
<path d="M12.9744 17.9698C12.9744 18.1344 12.9688 18.3017 12.9772 18.4663C12.98 18.5667 12.9437 18.5918 12.8489 18.5946C12.5728 18.5974 12.5728 18.6002 12.5728 18.3212C12.5728 17.8722 12.5755 17.4231 12.57 16.9712C12.57 16.8736 12.5979 16.8485 12.6955 16.8485C12.9716 16.8513 12.9716 16.8457 13.0776 17.094C13.1334 17.2195 13.1864 17.3478 13.2422 17.4733C13.2561 17.4733 13.2701 17.4705 13.284 17.4705C13.284 17.3506 13.284 17.2306 13.284 17.1107C13.284 16.8429 13.284 16.8485 13.5434 16.8485C13.655 16.8485 13.6968 16.8848 13.694 17.0019C13.6884 17.4928 13.6884 17.9837 13.694 18.4774C13.694 18.589 13.6578 18.6225 13.5518 18.6197C13.2868 18.6113 13.2868 18.6169 13.1864 18.3714C13.1306 18.2348 13.072 18.1009 13.0135 17.967C12.9995 17.967 12.9883 17.967 12.9744 17.9698Z" fill="#FDFCFC"/>
<path d="M17.6631 18.0534C17.6631 17.6908 17.6659 17.331 17.6603 16.9684C17.6603 16.8847 17.6799 16.8541 17.7663 16.8596C18.0034 16.868 18.2377 16.868 18.4748 16.8652C18.5641 16.8652 18.6003 16.8987 18.5975 16.988C18.5919 17.0884 18.5919 17.1916 18.5975 17.2948C18.6003 17.384 18.5613 17.4063 18.4804 17.4008C18.3827 17.3924 18.2851 17.4008 18.1903 17.3868C18.0843 17.3729 18.0592 17.4203 18.0676 17.5123C18.0704 17.5458 18.0676 17.5765 18.0676 17.61C18.0676 17.8498 18.0676 17.8526 18.3047 17.8917C18.3883 17.9056 18.4274 17.9391 18.4246 18.0255C18.4218 18.1176 18.419 18.2124 18.4246 18.3045C18.433 18.4105 18.3855 18.43 18.2907 18.416C18.0676 18.3826 18.0648 18.3854 18.0676 18.6169C18.0676 18.9153 18.0453 18.8484 18.2963 18.9153C18.6394 19.0074 18.5975 18.9237 18.5975 19.3002C18.5975 19.5234 18.6366 19.5429 18.3744 19.462C18.1763 19.4006 17.9755 19.3421 17.7719 19.2947C17.6799 19.2723 17.6575 19.2305 17.6603 19.144C17.6659 18.7759 17.6631 18.416 17.6631 18.0534Z" fill="#FDFCFC"/>
<path d="M14.9687 17.9084C14.9687 18.1455 14.9659 18.3826 14.9715 18.6169C14.9743 18.7034 14.9408 18.7285 14.8571 18.7257C14.5559 18.709 14.5559 18.7117 14.5559 18.4049C14.5559 18.2934 14.5503 18.1818 14.5587 18.0702C14.5643 17.9782 14.5336 17.9503 14.4443 17.9475C14.2575 17.9447 14.2575 17.9391 14.2575 18.1288C14.2575 18.2683 14.2547 18.4077 14.2575 18.5472C14.2602 18.6336 14.224 18.656 14.1403 18.6532C13.8502 18.6364 13.8502 18.6392 13.8502 18.3491C13.8502 17.9782 13.8502 17.6072 13.8502 17.2362C13.8502 16.9434 13.9423 16.8513 14.2324 16.8513C14.3579 16.8513 14.4834 16.8513 14.6089 16.8541C14.8516 16.8597 14.9659 16.9685 14.9715 17.2139C14.9715 17.4454 14.9659 17.6769 14.9687 17.9084ZM14.5531 17.412C14.5475 17.2 14.5922 17.2362 14.3634 17.2195C14.224 17.2083 14.2184 17.2837 14.2212 17.3896C14.2268 17.5737 14.2296 17.5737 14.4611 17.5793C14.6312 17.5821 14.5141 17.4538 14.5531 17.412Z" fill="#FDFCFC"/>
<path d="M15.2923 7.83938C15.2476 7.69434 15.1305 7.60508 15.0245 7.51025C14.528 7.06955 14.0036 6.6679 13.4179 6.34992C13.3705 6.32482 13.3203 6.29972 13.2896 6.24951C13.7275 6.34714 14.1347 6.52565 14.5196 6.74879C15.666 7.40705 16.4777 8.34702 16.8905 9.61334C16.9379 9.75838 16.9686 9.909 17.0104 10.054C17.0244 10.107 17.016 10.1544 16.9881 10.1991C16.9295 10.2939 16.9797 10.3441 17.069 10.3748C17.1806 10.4138 17.2977 10.4111 17.4121 10.4222C17.4902 10.4306 17.4958 10.4613 17.4623 10.5226C17.426 10.5868 17.3786 10.6454 17.32 10.6928C17.2726 10.7318 17.2447 10.7764 17.2949 10.8322C17.2866 10.8462 17.2782 10.8601 17.2698 10.8741C17.175 10.8685 17.0829 10.8601 16.9881 10.8545C16.9407 10.4613 16.8012 10.0959 16.6478 9.73606C16.5335 9.4683 16.3884 9.21726 16.2183 8.97739C16.1653 8.90487 16.1095 8.84072 16.037 8.79051C16.1179 8.68731 16.1151 8.57574 16.0649 8.46417C15.9198 8.1183 15.6604 7.9119 15.2923 7.83938Z" fill="#E5A336"/>
<path d="M17.2754 19.147C17.0774 19.1052 16.8738 19.0717 16.6785 19.0215C16.5056 18.9769 16.4163 18.843 16.4107 18.6729C16.3996 18.3577 16.3996 18.0425 16.3996 17.7273C16.3996 17.5376 16.3968 17.348 16.4107 17.1583C16.4275 16.9491 16.5307 16.8627 16.7371 16.8599C16.8849 16.8599 17.0327 16.8599 17.1834 16.8627C17.387 16.8682 17.4985 16.977 17.5125 17.1806C17.5125 17.2002 17.5125 17.2169 17.5125 17.2364C17.5069 17.5795 17.5599 17.5376 17.2085 17.5153C17.1332 17.5098 17.1053 17.4902 17.1053 17.4121C17.1053 17.2392 16.963 17.3368 16.8877 17.3117C16.8012 17.2838 16.7929 17.3536 16.7929 17.4205C16.7929 17.7775 16.7929 18.1345 16.7929 18.4916C16.7929 18.5808 17.0104 18.698 17.0885 18.6478C17.1248 18.6227 17.1081 18.578 17.1053 18.5446C17.1025 18.4804 17.1276 18.4637 17.1889 18.4748C17.2838 18.4944 17.3814 18.4971 17.4734 18.5334C17.4734 18.645 17.4707 18.7538 17.4707 18.8653C17.4707 18.9825 17.4316 19.0801 17.3284 19.147H17.3312C17.3089 19.1443 17.2921 19.147 17.2754 19.147Z" fill="#FDFCFC"/>
<path d="M9.51296 17.2893C9.56596 17.1693 9.61616 17.0605 9.658 16.949C9.6831 16.8848 9.71658 16.8597 9.7891 16.8569C10.1461 16.8486 10.1461 16.8458 10.0039 17.1665C9.94529 17.2976 9.90066 17.4371 9.83093 17.5598C9.72494 17.7495 9.7361 17.9168 9.84209 18.1037C9.93971 18.2767 10.0122 18.4635 10.1015 18.642C10.1378 18.7174 10.1266 18.7536 10.0401 18.762C10.0345 18.762 10.0318 18.762 10.0262 18.7648C9.71379 18.8178 9.71379 18.8178 9.56875 18.5193C9.55201 18.4831 9.54922 18.4245 9.5018 18.4273C9.45439 18.4301 9.45996 18.4914 9.44044 18.5249C9.43765 18.5277 9.43765 18.5333 9.43765 18.5388C9.37908 18.8485 9.18383 18.9628 8.87422 18.9265C8.99695 18.6114 9.11689 18.2906 9.2424 17.9754C9.2703 17.9057 9.2703 17.8499 9.23961 17.7802C9.11968 17.5096 9.00811 17.2335 8.89096 16.9629C8.86028 16.8904 8.86586 16.8709 8.94953 16.8653C9.28703 16.8514 9.28703 16.8486 9.42371 17.1665C9.44044 17.2 9.44881 17.2502 9.51296 17.2893Z" fill="#FDFCFC"/>
<path d="M6.52291 18.1874C6.52291 17.7857 6.5257 17.3813 6.52012 16.9797C6.52012 16.8876 6.54522 16.8625 6.63727 16.8625C6.8632 16.8681 7.09191 16.8681 7.31784 16.8625C7.42104 16.8597 7.46567 16.8848 7.46567 17.002C7.46288 17.3367 7.46846 17.3367 7.13096 17.3729C6.93014 17.3953 6.93014 17.3953 6.93014 17.5989C6.93014 17.6212 6.93014 17.6463 6.93014 17.6686C6.93014 17.875 6.93014 17.8778 7.13654 17.8499C7.24253 17.836 7.28437 17.8694 7.27043 17.9754C7.26764 18.0033 7.27043 18.0312 7.27043 18.0591C7.27043 18.3185 7.27043 18.3213 7.02497 18.3799C6.95245 18.3966 6.92735 18.4245 6.92735 18.4998C6.93014 18.7536 6.92456 19.0102 6.93014 19.264C6.93293 19.3784 6.8883 19.4286 6.78231 19.4593C6.51733 19.5346 6.52012 19.5374 6.52012 19.2613C6.52291 18.9014 6.52291 18.5444 6.52291 18.1874Z" fill="#FDFCFC"/>
<path d="M7.75852 6.73473C7.5828 6.23545 7.34571 5.76965 7.07515 5.315C7.06121 5.29269 7.04168 5.27038 7.02495 5.25085C7.04447 5.02771 7.1142 4.81852 7.17836 4.60654C7.20625 4.51728 7.24809 4.54796 7.29829 4.57864C7.7111 4.82689 8.1016 5.10581 8.50325 5.41542C8.41399 5.43494 8.3331 5.43494 8.27732 5.49073C8.21038 5.56325 8.23827 5.63577 8.28847 5.71386C8.16296 5.7557 8.03465 5.79475 8.10438 5.96769C8.1267 6.02068 8.07091 6.01231 8.04581 6.02068C7.93145 6.05973 7.91472 6.13783 7.95098 6.24103C7.96213 6.27171 8.00397 6.29403 7.95377 6.33308C7.78362 6.46417 7.78083 6.49764 7.92029 6.65384C7.87009 6.68173 7.8143 6.70962 7.75852 6.73473Z" fill="#BEBDBD"/>
<path d="M11.273 18.6228C11.1753 18.6619 11.0721 18.6395 10.9717 18.6563C10.8825 18.6702 10.9132 18.5893 10.9132 18.5503C10.9104 18.0817 10.9104 17.6159 10.9104 17.1473C10.9104 16.8544 10.9104 16.8516 11.206 16.8516C11.3762 16.8516 11.5491 16.8572 11.7192 16.8516C11.8448 16.8461 11.8643 16.913 11.8559 17.0162C11.8503 17.111 11.8838 17.2226 11.7248 17.2142C11.6272 17.2087 11.5296 17.2198 11.4347 17.2142C11.3511 17.2115 11.3148 17.2393 11.3232 17.3258C11.326 17.3621 11.3288 17.4011 11.3232 17.4374C11.312 17.535 11.3511 17.5741 11.4487 17.5601C11.4905 17.5545 11.5324 17.5573 11.5742 17.5573C11.6328 17.5573 11.6718 17.5824 11.6663 17.6494C11.6635 17.6912 11.6635 17.733 11.6663 17.7749C11.6774 17.8809 11.6356 17.9311 11.524 17.9227C11.4654 17.9199 11.4041 17.9255 11.3427 17.9283C11.259 17.9088 11.2646 17.9673 11.2646 18.0175C11.2702 18.2184 11.2702 18.4192 11.273 18.6228Z" fill="#FDFCFC"/>
<path d="M16.8068 8.9858C16.7148 8.82124 16.6395 8.68177 16.5614 8.54231C16.5446 8.51163 16.5363 8.48374 16.5697 8.45585C16.6367 8.39727 16.6227 8.33033 16.5781 8.26897C16.539 8.21597 16.5446 8.19924 16.606 8.17413C16.7176 8.13229 16.7231 8.04862 16.6534 7.96494C16.6171 7.92031 16.5948 7.90637 16.659 7.85616C16.7957 7.75296 16.6646 7.67486 16.606 7.5856C16.7064 7.55213 16.7845 7.50193 16.7259 7.3792C16.698 7.32063 16.751 7.32063 16.7817 7.31226C16.9546 7.25647 17.1276 7.20627 17.2977 7.14769C17.3953 7.11422 17.4316 7.13096 17.4121 7.24253C17.3368 7.67765 17.1945 8.09325 17.0244 8.50047C16.963 8.65667 16.8877 8.81008 16.8068 8.9858Z" fill="#BEBDBD"/>
<path d="M13.4876 15.5545C12.8405 15.5656 12.1934 15.5712 11.5631 15.3927C11.5296 15.3843 11.4905 15.3871 11.4515 15.3871C11.4487 15.2895 11.4626 15.1891 11.4403 15.097C11.4124 14.9743 11.4515 14.9548 11.5603 14.9743C11.9089 15.0385 12.2632 15.0859 12.6146 15.1221C12.8071 15.1417 12.9995 15.164 13.1948 15.1696C13.2896 15.1724 13.337 15.2058 13.3677 15.2895C13.4012 15.3815 13.4486 15.468 13.4876 15.5545Z" fill="#BEBDBD"/>
<path d="M12.0093 17.713C12.0093 17.4592 12.0121 17.2026 12.0065 16.9488C12.0037 16.8679 12.0316 16.8456 12.1097 16.8484C12.4835 16.8512 12.4138 16.8288 12.4138 17.1496C12.4166 17.5847 12.411 18.0199 12.4166 18.455C12.4166 18.5582 12.3859 18.5944 12.2827 18.5944C12.0065 18.5972 12.0065 18.6 12.0065 18.3267C12.0093 18.1203 12.0093 17.9167 12.0093 17.713Z" fill="#FDFCFC"/>
<path d="M15.8641 16.4081C15.8641 16.369 15.8948 16.3439 15.9171 16.3188C16.1067 16.0706 16.1263 15.8028 16.0119 15.5183C15.9282 15.3091 15.8111 15.1194 15.6521 14.9632C15.3425 14.662 15.0691 14.3301 14.8042 13.9898C14.6005 13.7276 14.3746 13.4933 14.0288 13.4124C14.2128 13.365 14.3886 13.3845 14.5476 13.4877C14.7456 13.6133 14.9046 13.7806 15.044 13.9675C15.2867 14.2966 15.5517 14.6034 15.8446 14.8879C16.0035 15.0413 16.1179 15.2254 16.2016 15.4291C16.341 15.7693 16.2211 16.1877 15.9282 16.3997C15.9115 16.4164 15.8892 16.422 15.8641 16.4081Z" fill="#E5A336"/>
<path d="M7.16999 3.57471C7.35687 3.69186 7.54654 3.80621 7.73342 3.92336C8.20201 4.22181 8.65945 4.53421 9.11688 4.85218C9.20335 4.91354 9.2424 4.97212 9.17267 5.06695C9.09178 5.17573 9.02484 5.19247 8.92443 5.11437C8.41399 4.70993 7.90635 4.31107 7.39871 3.90663C7.29551 3.82295 7.19789 3.7309 7.14489 3.60539C7.15605 3.59423 7.16441 3.58307 7.16999 3.57471Z" fill="#E5A336"/>
<path d="M10.7095 6.11576C10.5952 6.21059 10.4529 6.21617 10.3163 6.2329C10.3023 6.21338 10.2912 6.19385 10.2744 6.17991C9.89788 5.88146 9.51854 5.58022 9.13921 5.28177C9.17826 5.24272 9.23404 5.21483 9.25635 5.16741C9.32887 5.01679 9.39861 5.04748 9.51018 5.13394C9.92019 5.44634 10.3442 5.74479 10.7095 6.11576Z" fill="#E5A336"/>
<path d="M9.13921 5.28149C9.51855 5.57994 9.8951 5.87839 10.2744 6.17963C10.2912 6.19358 10.3023 6.21589 10.3163 6.23263C10.1852 6.28283 10.0485 6.29678 9.91183 6.28562C9.80305 6.27725 9.75005 6.17405 9.66359 6.12106C9.54365 6.04854 9.45997 5.91744 9.30935 5.89792C9.28146 5.87281 9.25636 5.84771 9.22847 5.8254C9.22568 5.80587 9.21731 5.79471 9.19778 5.79193V5.79471C9.18663 5.78635 9.17826 5.77519 9.1671 5.76682C9.16431 5.75009 9.15595 5.73893 9.13642 5.73893C9.13363 5.70825 9.11132 5.70267 9.08622 5.70267C9.07506 5.6943 9.0639 5.68314 9.05553 5.67478C8.94675 5.58552 8.83518 5.49627 8.69293 5.38191C8.87702 5.37633 9.01369 5.34565 9.13921 5.28149Z" fill="#FD9C4A"/>
<path d="M16.91 11.6885C16.9379 11.5853 16.9686 11.4821 16.9965 11.3761C17.122 11.4849 17.2447 11.5992 17.3925 11.6801C17.7691 11.8837 18.048 11.7499 18.1233 11.3203C18.1568 11.457 18.1178 11.563 18.0536 11.6634C17.8974 11.9088 17.6854 12.1013 17.4623 12.2854C17.4149 12.3244 17.387 12.3244 17.3619 12.2631C17.2615 12.0288 17.0969 11.8503 16.91 11.6885Z" fill="#F07814"/>
<path d="M15.4903 7.25651C15.3313 7.13099 15.1751 7.00827 14.991 6.86323C15.256 6.80465 15.4931 6.75445 15.7302 6.70424C15.8473 6.67914 15.9645 6.65403 16.0816 6.62614C16.1709 6.60383 16.2211 6.62335 16.2211 6.72934C16.2211 6.7935 16.2406 6.85765 16.2518 6.9218C16.1569 6.92738 16.076 6.98037 15.9952 7.01942C15.8278 7.09752 15.6381 7.13378 15.4903 7.25651Z" fill="#F07814"/>
<path d="M17.1136 10.994C17.3284 11.008 17.5711 11.0359 17.7914 11.153C17.956 11.2395 17.9978 11.3315 17.9448 11.4598C17.8779 11.6132 17.744 11.6774 17.5822 11.616C17.3033 11.5128 17.1053 11.3064 16.9296 11.0777C16.8877 11.0247 16.9045 10.994 16.9742 10.994C17.0104 10.994 17.0467 10.994 17.1136 10.994ZM17.638 11.1586C17.5934 11.1586 17.5683 11.1753 17.5767 11.2255C17.585 11.2897 17.7329 11.404 17.8054 11.404C17.8528 11.404 17.8835 11.3789 17.8835 11.3287C17.8835 11.2646 17.7245 11.1558 17.638 11.1586Z" fill="#E5A336"/>
<path d="M17.4484 10.2938C17.387 10.3022 17.2866 10.2743 17.1862 10.2659C17.1304 10.2603 17.122 10.2324 17.1583 10.1962C17.387 9.96468 17.6324 9.75548 17.9672 9.69133C18.0843 9.66902 18.1596 9.72759 18.1987 9.84195C18.2433 9.97862 18.2126 10.093 18.0899 10.1655C17.9058 10.2743 17.6994 10.2882 17.4484 10.2938ZM17.8695 9.93678C17.9448 9.93121 18.0257 9.92842 18.0759 9.85311C18.0955 9.82242 18.0871 9.78895 18.0564 9.76943C17.9811 9.72201 17.9058 9.75548 17.8361 9.78616C17.7914 9.80569 17.7301 9.828 17.744 9.88658C17.7524 9.95073 17.8193 9.93121 17.8695 9.93678Z" fill="#E5A336"/>
<path d="M8.28291 10.1907C8.34149 10.2102 8.44469 10.1711 8.47258 10.2381C8.49769 10.2995 8.40564 10.3497 8.36101 10.3971C8.21039 10.5561 8.04025 10.6899 7.83385 10.7708C7.7418 10.8071 7.64418 10.8238 7.55213 10.7736C7.46009 10.7262 7.40988 10.637 7.40151 10.5393C7.39315 10.4333 7.47403 10.3748 7.55771 10.3301C7.78085 10.2102 8.02909 10.2102 8.28291 10.1907ZM7.73901 10.3301C7.65534 10.3273 7.49356 10.425 7.49077 10.4835C7.48798 10.5393 7.52145 10.5672 7.57724 10.5672C7.65255 10.5672 7.80874 10.4501 7.81153 10.3915C7.81432 10.3385 7.78085 10.3301 7.73901 10.3301Z" fill="#E5A336"/>
<path d="M17.3145 8.14062C17.3619 8.2773 17.3758 8.39445 17.4483 8.48928C17.4595 8.50323 17.4595 8.53391 17.4539 8.55343C17.3396 8.88256 17.2168 9.21169 17.0244 9.52688C16.9212 9.3149 16.8375 9.13638 16.9825 8.91324C17.1276 8.68732 17.2085 8.42234 17.3145 8.14062Z" fill="#E5A336"/>
<path d="M15.4903 7.25632C15.6381 7.13359 15.8278 7.09733 15.9952 7.01645C16.0761 6.9774 16.1569 6.9244 16.2518 6.91882C16.2908 7.00808 16.3103 7.10849 16.3801 7.17822C16.4749 7.27027 16.4108 7.28979 16.3299 7.3149C16.1876 7.35952 16.0454 7.39857 15.9087 7.45715C15.7915 7.50735 15.7079 7.49062 15.6298 7.39299C15.5907 7.34279 15.5377 7.30095 15.4903 7.25632Z" fill="#FD9C4A"/>
<path d="M15.4847 18.804C15.4847 18.5278 15.4847 18.2517 15.4847 17.9532C15.5461 18.0146 15.5628 18.076 15.5712 18.1401C15.5238 18.327 15.5879 18.5139 15.5628 18.7008C15.5544 18.7482 15.5907 18.8319 15.4847 18.804Z" fill="#E5A336"/>
<path d="M13.6243 16.5474C13.6271 16.5306 13.6271 16.5139 13.6299 16.4971C13.8279 16.5697 13.8558 16.5613 13.9646 16.3688C13.9981 16.3103 14.0287 16.3298 14.0594 16.3605C14.1208 16.4163 14.1794 16.472 14.2575 16.5474C14.0315 16.5474 13.8279 16.5474 13.6243 16.5474Z" fill="#BEBDBD"/>
<path d="M13.4095 11.0386C13.5099 11.0442 13.5936 11.0525 13.6717 11.0832C13.6996 11.0944 13.7414 11.1027 13.7387 11.1418C13.7359 11.1697 13.6996 11.1753 13.6745 11.1864C13.5574 11.2283 13.4458 11.2004 13.3398 11.153C13.3063 11.139 13.2617 11.1223 13.2673 11.0776C13.2756 11.0302 13.3259 11.0442 13.3593 11.0386C13.3788 11.0358 13.4039 11.0386 13.4095 11.0386Z" fill="#FDFCFC"/>
<path d="M11.273 18.6228C11.273 18.422 11.2702 18.2184 11.2702 18.0175C11.2702 17.9673 11.2646 17.9088 11.3483 17.9283C11.3483 18.1263 11.3483 18.3244 11.3455 18.5252C11.3427 18.5698 11.3567 18.634 11.273 18.6228Z" fill="#FD9C4A"/>
<path d="M17.3256 19.1443C17.4288 19.0773 17.4679 18.9825 17.4679 18.8626C17.4679 18.751 17.4707 18.6422 17.4707 18.5306C17.5069 18.5278 17.5404 18.5362 17.5404 18.5808C17.5404 18.7231 17.5627 18.8681 17.5181 19.0076C17.4874 19.0969 17.4372 19.1694 17.3256 19.1443Z" fill="#E5A336"/>
<path d="M13.8753 10.9687C13.8753 10.9855 13.8753 11.0022 13.8753 11.0189C13.655 10.9659 13.4346 10.9241 13.2087 10.9353C13.2087 10.9185 13.2115 10.899 13.2115 10.8823C13.4402 10.8627 13.6606 10.8878 13.8753 10.9687Z" fill="#BEBDBD"/>
<path d="M17.2754 10.8711C17.2838 10.8571 17.2922 10.8432 17.3005 10.8292C17.3228 10.8348 17.3452 10.8404 17.3647 10.846C17.3758 10.8487 17.3842 10.8599 17.3981 10.8711C17.3507 10.8878 17.3117 10.8794 17.2754 10.8711Z" fill="#F07814"/>
<path d="M17.4762 10.9048C17.4679 10.902 17.4595 10.8964 17.4539 10.8936C17.4623 10.8908 17.4707 10.8853 17.479 10.8853C17.4874 10.8853 17.4958 10.8936 17.5013 10.8964C17.4902 10.8964 17.4818 10.8992 17.4762 10.9048Z" fill="#F07814"/>
<path d="M13.2812 6.25241C13.2533 6.25799 13.2254 6.25799 13.2087 6.22731C13.2366 6.22452 13.2617 6.22731 13.2812 6.25241Z" fill="#E5A336"/>
<path d="M9.09178 5.69995C9.11688 5.69995 9.1392 5.70553 9.14199 5.73621C9.11688 5.73621 9.10015 5.72505 9.09178 5.69995Z" fill="#F07814"/>
<path d="M17.2754 19.1468C17.2922 19.1468 17.3117 19.144 17.3284 19.144C17.3117 19.1691 17.2922 19.1664 17.2754 19.1468Z" fill="#E5A336"/>
<path d="M10.5645 16.5277C10.5729 16.5333 10.5729 16.5389 10.5673 16.5472C10.5589 16.5472 10.545 16.55 10.545 16.5472C10.5394 16.5305 10.5534 16.5305 10.5645 16.5277Z" fill="#BEBDBD"/>
<path d="M8.38366 10.5933L8.38054 10.584H8.38989L8.38366 10.5933Z" fill="#FD9C4A"/>
<path d="M9.19776 5.78943C9.21729 5.79222 9.22565 5.80337 9.22844 5.8229C9.21729 5.81174 9.20892 5.80059 9.19776 5.78943Z" fill="#F07814"/>
<path d="M9.16989 5.76147C9.18105 5.76984 9.18942 5.781 9.20057 5.78937C9.18942 5.781 9.17826 5.77263 9.16989 5.76147Z" fill="#F07814"/>
<path d="M9.13921 5.73621C9.15873 5.73621 9.1671 5.74457 9.16989 5.7641C9.15873 5.75294 9.15036 5.74457 9.13921 5.73621Z" fill="#F07814"/>
<path d="M9.06111 5.6748C9.07227 5.68317 9.08343 5.69433 9.09179 5.7027C9.08064 5.69154 9.06948 5.68317 9.06111 5.6748Z" fill="#F07814"/>
<path d="M10.531 9.01648C11.153 9.036 11.8001 9.26751 12.4054 9.63011C12.5309 9.70542 12.5532 9.83094 12.4723 9.95088C12.4472 9.98992 12.4166 10.0234 12.3887 10.0597C12.2576 10.2242 12.1906 10.2382 12.0121 10.135C11.669 9.93693 11.3036 9.79189 10.9187 9.70821C10.4222 9.59943 9.93413 9.68032 9.45159 9.80583C9.1894 9.87557 8.96068 9.658 9.01368 9.38466C9.0332 9.28704 9.10015 9.23683 9.19219 9.21173C9.59663 9.10016 10.015 9.02206 10.531 9.01648Z" fill="#630E04"/>
<path d="M15.5461 9.76697C15.9422 9.77255 16.394 9.94548 16.765 10.3109C16.8877 10.428 16.8821 10.4838 16.7538 10.5926C16.5112 10.7962 16.5112 10.7962 16.2601 10.601C15.8222 10.2607 15.3397 10.2607 14.8348 10.4196C14.7539 10.4448 14.6619 10.5201 14.5894 10.4392C14.4973 10.3388 14.4192 10.216 14.4025 10.0738C14.3941 9.99569 14.4667 9.96779 14.528 9.94269C14.7902 9.83391 15.1305 9.76697 15.5461 9.76697Z" fill="#630E04"/>
<path d="M11.2284 7.26476C11.3539 7.26197 11.4794 7.28429 11.5965 7.32333C11.8336 7.39864 11.9619 7.56042 11.9368 7.75288C11.9117 7.9537 11.7109 8.12942 11.4794 8.12385C11.22 8.11827 10.9634 8.07922 10.704 8.05969C10.5785 8.04854 10.4529 8.05133 10.3302 8.04017C10.1517 8.02622 10.0876 7.9035 10.1768 7.7473C10.227 7.66083 10.2995 7.59668 10.3804 7.5409C10.6342 7.35681 10.9215 7.27592 11.2284 7.26476ZM11.206 7.40143C10.8909 7.41817 10.5812 7.50742 10.3386 7.76125C10.3107 7.79193 10.2744 7.8254 10.2884 7.87003C10.3051 7.92302 10.3581 7.9035 10.3972 7.9035C10.7179 7.91744 11.0359 7.93976 11.3511 7.98717C11.4654 8.00391 11.5742 7.98717 11.6718 7.92581C11.8615 7.80866 11.8559 7.60226 11.6607 7.49627C11.524 7.42096 11.3762 7.4098 11.206 7.40143Z" fill="#630E04"/>
<path d="M15.2923 7.83953C15.6604 7.91205 15.9198 8.11845 16.0705 8.46153C16.1207 8.5731 16.1235 8.68467 16.0426 8.78787C15.9673 8.82692 15.8892 8.80739 15.8139 8.78508C15.6047 8.72929 15.3927 8.68746 15.1723 8.6763C15.0161 8.66793 14.885 8.60378 14.8014 8.46432C14.6229 8.16587 14.8209 7.83395 15.1807 7.82837C15.2197 7.82837 15.256 7.83395 15.2923 7.83953ZM15.1974 7.97062C14.9994 7.96783 14.885 8.05988 14.8795 8.22165C14.8711 8.40016 14.9827 8.5201 15.1723 8.53684C15.3983 8.55636 15.6214 8.59541 15.8418 8.6512C15.9701 8.68467 15.9924 8.65677 15.9533 8.53126C15.8613 8.23281 15.5126 7.97341 15.1974 7.97062Z" fill="#630E04"/>
<path d="M7.70275 9.68326C7.61349 9.63864 7.51029 9.62469 7.42382 9.56333C7.25926 9.44618 7.21184 9.24814 7.3011 9.04453C7.36525 8.8967 7.52145 8.82139 7.70833 8.86044C7.79758 8.87996 7.88405 8.91343 7.9733 8.93854C8.17692 9.04732 8.38053 9.16168 8.54789 9.32345C8.60646 9.37924 8.69014 9.43781 8.66783 9.52986C8.64272 9.63027 8.53115 9.63027 8.45026 9.64979C8.20202 9.71116 7.95099 9.70279 7.70275 9.68326ZM8.01793 9.56612C8.14345 9.55217 8.28849 9.55496 8.42795 9.51591C8.467 9.50475 8.53115 9.49639 8.46979 9.4406C8.22713 9.22583 7.9733 9.03337 7.6386 8.99153C7.5075 8.9748 7.42661 9.04174 7.40151 9.17004C7.37083 9.32345 7.44335 9.44339 7.60512 9.50475C7.73343 9.55217 7.86731 9.55775 8.01793 9.56612Z" fill="#630E04"/>
<path d="M8.32475 17.9782C8.32475 18.1595 8.32475 18.338 8.32475 18.5193C8.32475 18.6337 8.25502 18.67 8.0765 18.67C7.96493 18.67 7.99562 18.5891 7.99562 18.5333C7.99283 18.1735 7.99562 17.8109 7.99562 17.4511C7.99562 17.4009 7.98725 17.3395 8.0514 17.3255C8.13508 17.306 8.22433 17.2977 8.3108 17.32C8.32196 17.3228 8.32475 17.3785 8.32475 17.4092C8.32754 17.5989 8.32475 17.7886 8.32475 17.9782Z" fill="#630E04"/>
<path d="M14.5531 17.412C14.5141 17.4538 14.6312 17.5821 14.4639 17.5793C14.2324 17.5738 14.2296 17.5738 14.224 17.3897C14.2212 17.2837 14.2268 17.2112 14.3662 17.2195C14.5922 17.2363 14.5475 17.2 14.5531 17.412Z" fill="#630E04"/>
<path d="M17.638 11.1585C17.7245 11.1557 17.8835 11.2645 17.8835 11.3286C17.8835 11.3789 17.8528 11.4012 17.8054 11.404C17.7329 11.4067 17.5878 11.2896 17.5767 11.2254C17.5683 11.1752 17.5962 11.1613 17.638 11.1585Z" fill="#FDFCFC"/>
<path d="M17.8695 9.93699C17.8193 9.93141 17.7552 9.95094 17.7412 9.88678C17.7273 9.82542 17.7886 9.80311 17.8333 9.78637C17.9058 9.75569 17.9783 9.72222 18.0536 9.76964C18.0843 9.78916 18.0927 9.82542 18.0731 9.85331C18.0257 9.92862 17.9448 9.93141 17.8695 9.93699Z" fill="#FDFCFC"/>
<path d="M7.739 10.3271C7.77805 10.3271 7.81431 10.3355 7.81152 10.3885C7.80873 10.4471 7.65253 10.5642 7.57722 10.5642C7.52144 10.5642 7.48797 10.5336 7.49075 10.4806C7.49354 10.422 7.65532 10.3271 7.739 10.3271Z" fill="#FDFCFC"/>
<path d="M11.206 7.40125C11.379 7.40961 11.5268 7.41798 11.6607 7.49329C11.8559 7.59928 11.8615 7.80568 11.6718 7.92283C11.5742 7.9842 11.4654 8.00093 11.3511 7.9842C11.0359 7.93678 10.7151 7.91447 10.3972 7.90052C10.3609 7.89773 10.3051 7.92004 10.2884 7.86705C10.2744 7.82242 10.3107 7.78895 10.3386 7.75827C10.5812 7.51003 10.8881 7.41798 11.206 7.40125Z" fill="#FDFCFC"/>
<path d="M15.1974 7.97034C15.5154 7.97313 15.8641 8.23253 15.9561 8.53097C15.9952 8.65649 15.97 8.68438 15.8445 8.65091C15.6242 8.59513 15.401 8.55608 15.1751 8.53655C14.9854 8.51982 14.8739 8.39988 14.8822 8.22137C14.885 8.05959 14.9994 7.97034 15.1974 7.97034Z" fill="#FDFCFC"/>
<path d="M8.01792 9.56599C7.86731 9.55762 7.73342 9.55204 7.60512 9.50462C7.44334 9.44605 7.37082 9.32332 7.4015 9.16992C7.42661 9.04161 7.50749 8.97188 7.63859 8.9914C7.97051 9.03603 8.22712 9.22849 8.46978 9.44047C8.53115 9.49626 8.46699 9.50462 8.42794 9.51578C8.28848 9.55483 8.14344 9.55204 8.01792 9.56599ZM7.74179 9.23407C7.78084 9.22291 7.85057 9.24244 7.86452 9.17828C7.87846 9.10576 7.81152 9.08903 7.75853 9.07229C7.68879 9.04719 7.61627 9.02209 7.54933 9.08066C7.52702 9.10018 7.52144 9.13365 7.53818 9.15597C7.5828 9.23128 7.6609 9.22849 7.74179 9.23407Z" fill="#E5A336"/>
<path d="M7.74178 9.23397C7.6609 9.22839 7.5828 9.23118 7.53538 9.15866C7.52143 9.13635 7.52422 9.10288 7.54654 9.08335C7.61348 9.02478 7.686 9.04988 7.75573 9.07498C7.80594 9.09172 7.87567 9.10846 7.86172 9.18098C7.85056 9.24234 7.78362 9.22281 7.74178 9.23397Z" fill="#FDFCFC"/>
<path d="M23.5 12C23.5 18.3513 18.3513 23.5 12 23.5C5.64873 23.5 0.5 18.3513 0.5 12C0.5 5.64873 5.64873 0.5 12 0.5C18.3513 0.5 23.5 5.64873 23.5 12Z" stroke="black" stroke-opacity="0.097"/>
</svg>
