<svg width="24" height="24" viewBox="0 0 24 24" fill="none" xmlns="http://www.w3.org/2000/svg">
<path d="M12 24C18.6274 24 24 18.6274 24 12C24 5.37258 18.6274 0 12 0C5.37258 0 0 5.37258 0 12C0 18.6274 5.37258 24 12 24Z" fill="#080B27"/>
<path d="M23.5 12C23.5 18.3513 18.3513 23.5 12 23.5C5.64873 23.5 0.5 18.3513 0.5 12C0.5 5.64873 5.64873 0.5 12 0.5C18.3513 0.5 23.5 5.64873 23.5 12Z" stroke="white" stroke-opacity="0.3"/>
<path d="M7.11239 8.70626C6.45724 8.07364 5.80209 7.44102 5.1422 6.8052C5.70737 6.20453 6.27411 5.60386 6.84244 5C9.17731 7.24133 8.78106 6.96975 8.96261 6.89626C10.9186 5.67575 13.3955 5.76681 15.241 7.00649C15.7004 6.54321 16.144 6.04798 16.6066 5.57191C16.7266 5.42973 16.8529 5.30992 16.9823 5.16774C17.0407 5.1262 17.0833 5.01438 17.1654 5.00479C17.7748 5.54476 18.3368 6.13744 18.9336 6.70456C18.2784 7.39948 17.6217 8.096 16.9649 8.79093C18.0006 10.4683 18.1158 12.454 17.4322 14.1874C16.8892 15.435 16.7739 15.0197 17.1591 15.4095C19.2667 17.4607 19.033 17.138 18.9462 17.2802C18.3905 17.8457 17.8869 18.4272 17.3265 18.9783C17.2744 18.9847 17.2617 18.9416 17.216 18.9049C17.047 18.7371 16.8955 18.5981 16.725 18.4272C14.6995 16.5293 15.391 16.9143 14.8243 17.13C13.8486 17.6811 12.7609 17.9048 11.6527 17.8601C10.6644 17.7818 9.70933 17.4783 8.86631 16.9303C8.83789 16.9175 8.79369 16.8552 8.7558 16.8984C8.61688 17.031 8.51111 17.1667 8.38481 17.3025C7.95067 17.7435 7.54337 18.194 7.11555 18.6429C6.66405 19.0854 6.85349 19.1045 6.49513 18.7675C5.98995 18.277 5.51003 17.8169 5.00328 17.3249C4.97328 17.2306 5.15799 17.1396 5.20219 17.0597C5.76262 16.4798 6.30727 15.8855 6.87086 15.296C6.93874 15.2002 7.06977 15.1411 7.04135 15.058C6.87401 14.812 6.75245 14.5356 6.623 14.2561C5.84787 12.3406 6.08309 10.3565 7.11239 8.70626ZM15.5268 11.9476C15.5441 10.1648 14.2275 8.67111 12.5178 8.4203C10.3471 8.11996 8.49216 9.80376 8.49532 11.9732C8.51426 13.9781 10.1561 15.5628 12.1073 15.5005C14.0112 15.4686 15.5504 13.8391 15.5268 11.9476Z" fill="white"/>
</svg>
