<svg width="24" height="24" viewBox="0 0 24 24" fill="none" xmlns="http://www.w3.org/2000/svg">
<path d="M12 24C18.6274 24 24 18.6274 24 12C24 5.37258 18.6274 0 12 0C5.37258 0 0 5.37258 0 12C0 18.6274 5.37258 24 12 24Z" fill="#1D58EC"/>
<path d="M23.5 12C23.5 18.3513 18.3513 23.5 12 23.5C5.64873 23.5 0.5 18.3513 0.5 12C0.5 5.64873 5.64873 0.5 12 0.5C18.3513 0.5 23.5 5.64873 23.5 12Z" stroke="black" stroke-opacity="0.097"/>
<path fill-rule="evenodd" clip-rule="evenodd" d="M12.6069 5.8806L15.9991 7.67278C16.2536 7.8072 16.2536 8.02513 15.9991 8.15954L12.6069 9.95173C12.3525 10.0861 11.94 10.0861 11.6856 9.95173L8.29336 8.15954C8.03893 8.02513 8.03893 7.8072 8.29336 7.67278L11.6856 5.8806C11.94 5.74618 12.3525 5.74618 12.6069 5.8806Z" stroke="white" stroke-width="0.813858"/>
<path fill-rule="evenodd" clip-rule="evenodd" d="M12.6069 10.2541L15.9991 12.0463C16.2536 12.1807 16.2536 12.3987 15.9991 12.5331L12.6069 14.3253C12.3525 14.4597 11.94 14.4597 11.6856 14.3253L8.29336 12.5331C8.03893 12.3987 8.03893 12.1807 8.29336 12.0463L11.6856 10.2541C11.94 10.1197 12.3525 10.1197 12.6069 10.2541Z" stroke="white" stroke-width="0.813858"/>
<path fill-rule="evenodd" clip-rule="evenodd" d="M12.6069 14.8284L15.9991 16.6205C16.2536 16.7549 16.2536 16.9729 15.9991 17.1073L12.6069 18.8995C12.3525 19.0339 11.94 19.0339 11.6856 18.8995L8.29336 17.1073C8.03893 16.9729 8.03893 16.7549 8.29336 16.6205L11.6856 14.8284C11.94 14.6939 12.3525 14.6939 12.6069 14.8284Z" stroke="white" stroke-width="0.813858"/>
<path d="M16.5927 6.36572C17.2569 6.76786 17.5834 6.91867 17.5834 7.92402" stroke="white" stroke-width="0.813858"/>
<path d="M7.63568 18.2642C6.9715 17.862 6.64499 17.7112 6.64499 16.7059" stroke="white" stroke-width="0.813858"/>
<path d="M8.07739 16.8138V7.96338" stroke="white" stroke-width="0.813858" stroke-linecap="square"/>
<path d="M16.2151 16.8138V7.96338" stroke="white" stroke-width="0.813858" stroke-linecap="square"/>
<path d="M12.1462 14.3002V10.1782" stroke="white" stroke-width="0.813858" stroke-linecap="square"/>
</svg>
