<svg width="24" height="24" viewBox="0 0 24 24" fill="none" xmlns="http://www.w3.org/2000/svg">
<path d="M12 24C18.6274 24 24 18.6274 24 12C24 5.37258 18.6274 0 12 0C5.37258 0 0 5.37258 0 12C0 18.6274 5.37258 24 12 24Z" fill="#8CC63E"/>
<path d="M18.35 11.8237H12.1373V12.7328H18.35V11.8237Z" fill="white"/>
<path d="M18.35 13.2518V17.5107C17.7463 18.0954 16.871 18.61 15.7258 19.0545C14.5798 19.4991 13.4191 19.7214 12.2446 19.7214C10.7508 19.7214 9.45 19.4083 8.33945 18.7812C7.22976 18.155 6.39511 17.259 5.83724 16.0939C5.2785 14.9289 5 13.6618 5 12.2918C5 10.805 5.31137 9.48423 5.93411 8.3287C6.55772 7.17317 7.46934 6.28663 8.67071 5.66995C9.58579 5.19597 10.7258 4.95898 12.0889 4.95898C13.8611 4.95898 15.245 5.3309 16.2413 6.07386C17.2377 6.81769 17.8795 7.84521 18.1649 9.15643L15.302 9.69181C15.1005 8.99037 14.7225 8.43682 14.1673 8.03117C13.6129 7.62553 12.9192 7.42314 12.0889 7.42314C10.8295 7.42314 9.82797 7.82186 9.08501 8.62018C8.34118 9.41937 7.96926 10.6034 7.96926 12.175C7.96926 13.8694 8.34637 15.1399 9.09885 15.9867C9.85219 16.8343 10.8391 17.2581 12.0595 17.2581C12.6632 17.2581 13.2686 17.1396 13.8758 16.9026C14.4821 16.6656 15.0036 16.3785 15.4387 16.0403V14.2292H12.1373V13.2518H18.35Z" fill="white"/>
<path d="M23.5 12C23.5 18.3513 18.3513 23.5 12 23.5C5.64873 23.5 0.5 18.3513 0.5 12C0.5 5.64873 5.64873 0.5 12 0.5C18.3513 0.5 23.5 5.64873 23.5 12Z" stroke="black" stroke-opacity="0.097"/>
</svg>
