<svg width="24" height="24" viewBox="0 0 24 24" fill="none" xmlns="http://www.w3.org/2000/svg">
<path fill-rule="evenodd" clip-rule="evenodd" d="M0 12C0 5.37259 5.37259 0 12 0C18.6274 0 24 5.37259 24 12C24 18.6274 18.6274 24 12 24C5.37259 24 0 18.6274 0 12Z" fill="black"/>
<path d="M12.0908 19.9996C12.0564 19.9996 12.0212 19.9996 11.9868 19.9996C11.9572 19.9908 11.9268 19.998 11.8964 19.9956C11.8635 19.9956 11.8299 19.9956 11.7971 19.9956C11.7723 19.9956 11.7467 19.9956 11.7219 19.9956C11.2744 19.998 10.8334 19.9419 10.3972 19.8467C10.1499 19.7931 9.90498 19.7274 9.66407 19.6506C9.33591 19.5457 9.01815 19.4169 8.7068 19.2696C8.37944 19.1151 8.06569 18.9382 7.76394 18.7381C7.475 18.5468 7.20047 18.3363 6.93794 18.1098C6.74265 17.9418 6.55856 17.7625 6.38247 17.5752C6.02069 17.191 5.70054 16.7748 5.4228 16.325C5.27313 16.0825 5.13626 15.8319 5.01381 15.5742C4.83532 15.198 4.68805 14.8098 4.57279 14.4096C4.47274 14.0631 4.39831 13.7117 4.34708 13.3555C4.31827 13.1546 4.29666 12.9521 4.29426 12.748C4.29265 12.6024 4.28625 12.4559 4.28785 12.3102C4.28785 12.2262 4.28785 12.1429 4.28785 12.0589C4.28785 11.866 4.29025 11.6731 4.30706 11.481C4.33187 11.1993 4.3775 10.9207 4.43672 10.6446C4.50236 10.3357 4.5864 10.0307 4.68965 9.73216C4.77449 9.48804 4.87054 9.24793 4.97859 9.01261C5.12666 8.69086 5.29794 8.38271 5.48283 8.08176C5.49884 8.05535 5.51165 8.02813 5.53006 8.00252C5.54847 7.97611 5.56928 7.97291 5.59409 7.99292C5.60689 8.00252 5.6173 8.01453 5.6293 8.02573C5.835 8.23143 6.0407 8.43633 6.2456 8.64203C6.29203 8.68846 6.29363 8.69726 6.25681 8.75089C6.00789 9.12067 5.86702 9.53047 5.80139 9.96828C5.77578 10.1412 5.76697 10.3156 5.77658 10.4901C5.80059 10.9367 5.91504 11.3602 6.12875 11.7539C6.25201 11.9805 6.40168 12.1886 6.58017 12.3766C6.80508 12.6144 7.062 12.8073 7.34934 12.9609C7.65029 13.1218 7.97204 13.2163 8.30741 13.2667C8.46989 13.2907 8.63316 13.3019 8.79724 13.2971C9.123 13.2883 9.43996 13.2283 9.74651 13.1154C9.95621 13.0386 10.1563 12.9425 10.3428 12.8193C10.3844 12.7921 10.398 12.7945 10.4364 12.8321C10.671 13.065 10.8975 13.3051 11.1336 13.5372C11.2736 13.6749 11.4145 13.8109 11.549 13.9534C11.6939 14.1063 11.8451 14.2528 11.9924 14.4032C12.0284 14.4401 12.0404 14.4401 12.0748 14.4056C12.455 14.0263 12.8352 13.6461 13.2146 13.2659C13.2194 13.2611 13.2242 13.2563 13.2282 13.2515C13.2386 13.2355 13.2514 13.2219 13.2642 13.2091C13.4611 13.0122 13.6572 12.8153 13.8541 12.6192C13.8597 12.6136 13.8653 12.608 13.8709 12.6024C13.9093 12.5663 13.9205 12.5647 13.9646 12.5928C14.0454 12.644 14.1278 12.692 14.2143 12.7344C14.5056 12.8785 14.813 12.9689 15.1355 13.009C15.1803 13.0146 15.2252 13.0218 15.2708 13.0194C15.2908 13.0202 15.3108 13.0202 15.33 13.0234C15.4165 13.0282 15.5021 13.029 15.5877 13.0234C15.6126 13.0194 15.6382 13.021 15.6638 13.0194C15.6814 13.0186 15.699 13.0194 15.7166 13.0154C15.7334 13.0122 15.7502 13.0122 15.767 13.0114C15.8831 13.005 15.9967 12.9817 16.1096 12.9561C16.3545 12.9025 16.5874 12.8153 16.8091 12.7C17.0148 12.5928 17.2069 12.4631 17.3814 12.3086C17.6343 12.0853 17.8448 11.8284 18.0073 11.5322C18.1138 11.3377 18.1954 11.1328 18.2546 10.9183C18.2939 10.7759 18.3243 10.631 18.3419 10.4845C18.3427 10.4701 18.3435 10.4565 18.3459 10.4421C18.3491 10.4301 18.3499 10.4173 18.3499 10.4045C18.3507 10.3869 18.3507 10.3693 18.3539 10.3525C18.3587 10.3293 18.3571 10.306 18.3579 10.2828C18.3587 10.25 18.3603 10.2172 18.3691 10.1852C18.3787 10.1492 18.3627 10.1155 18.3603 10.0803C18.3595 10.0643 18.3579 10.0491 18.3571 10.0331C18.3563 10.0099 18.3579 9.98669 18.3531 9.96348C18.3499 9.94587 18.3499 9.92826 18.3491 9.91145C18.3491 9.89864 18.3475 9.88584 18.3451 9.87383C18.3427 9.85943 18.3419 9.84502 18.3411 9.83061C18.2971 9.45923 18.1818 9.11106 18.0057 8.7821C17.9785 8.73008 17.9465 8.68045 17.9177 8.63003C17.8929 8.58681 17.8937 8.5796 17.9289 8.54359C18.0289 8.44194 18.1306 8.34189 18.2314 8.24104C18.3075 8.165 18.3835 8.08736 18.4611 8.01213C18.498 7.97611 18.518 7.97851 18.546 8.02333C18.7341 8.32268 18.9078 8.63003 19.0574 8.95018C19.2687 9.4032 19.4384 9.87063 19.5593 10.3565C19.6401 10.6814 19.7017 11.0096 19.7418 11.3425C19.7474 11.3874 19.749 11.433 19.761 11.477C19.7634 11.4914 19.7634 11.5058 19.7642 11.5202C19.7642 11.5346 19.765 11.5498 19.769 11.5643C19.7714 11.5787 19.7722 11.5939 19.7722 11.6091C19.773 11.6267 19.7722 11.6435 19.7762 11.6611C19.7778 11.6787 19.777 11.6963 19.777 11.7139C19.7778 11.7339 19.7754 11.7547 19.7794 11.774C19.7818 11.7964 19.7794 11.8196 19.781 11.842C19.781 11.87 19.781 11.898 19.781 11.926C19.7818 11.962 19.7778 11.9981 19.7842 12.0341C19.785 12.0885 19.7842 12.1429 19.785 12.1974C19.785 12.2502 19.785 12.3038 19.785 12.3566C19.785 12.5359 19.7826 12.7152 19.7706 12.8937C19.761 13.0394 19.7426 13.185 19.7218 13.3299C19.6801 13.6245 19.6233 13.9158 19.5473 14.2039C19.4424 14.6033 19.308 14.9915 19.1415 15.3693C19.003 15.6847 18.8429 15.9888 18.6644 16.2825C18.4836 16.5787 18.2851 16.862 18.0658 17.1318C17.9097 17.3239 17.7424 17.5063 17.5703 17.6848C17.2478 18.0186 16.8956 18.3163 16.5194 18.5861C16.2777 18.7598 16.0248 18.9158 15.7638 19.0591C15.3868 19.2664 14.9963 19.4417 14.5905 19.5842C14.1462 19.7402 13.6924 19.8539 13.2274 19.9259C13.0249 19.9571 12.8216 19.9843 12.6159 19.9859C12.5247 19.9867 12.4334 19.994 12.3414 19.994C12.3238 19.994 12.3053 19.994 12.2877 19.994C12.2693 19.994 12.2501 19.994 12.2317 19.994C12.1861 19.998 12.1381 19.9908 12.0908 19.9996Z" fill="white"/>
<path d="M12.0909 19.9996C12.1389 19.9836 12.1877 19.9932 12.2357 19.9924C12.2405 19.9956 12.2397 19.998 12.2341 19.9996C12.1869 19.9996 12.1389 19.9996 12.0909 19.9996Z" fill="white"/>
<path d="M11.7939 19.9927C11.8283 19.9927 11.8627 19.9927 11.8979 19.9927C11.9043 19.9943 11.9043 19.9967 11.8987 19.9999C11.8643 19.9999 11.8291 19.9999 11.7947 19.9999C11.7891 19.9983 11.7891 19.9959 11.7939 19.9927Z" fill="white"/>
<path d="M11.8987 19.9993C11.8987 19.9969 11.8979 19.9945 11.8979 19.9921C11.9276 19.9913 11.958 19.9856 11.9868 19.9993C11.958 19.9993 11.9284 19.9993 11.8987 19.9993Z" fill="white"/>
<path d="M12.3477 19.9925C12.3477 19.9949 12.3469 19.9973 12.3469 19.9989C12.3285 19.9989 12.3093 19.9989 12.2909 19.9989C12.2853 19.9957 12.2853 19.9941 12.2917 19.9917C12.3101 19.9925 12.3293 19.9925 12.3477 19.9925Z" fill="white"/>
<path d="M12.2917 19.9927C12.2917 19.9951 12.2909 19.9975 12.2909 19.9999C12.2725 19.9999 12.2533 19.9999 12.2349 19.9999C12.2349 19.9975 12.2357 19.9951 12.2365 19.9927C12.2549 19.9927 12.2733 19.9927 12.2917 19.9927Z" fill="white"/>
<path d="M12.6671 12.6962C12.4742 12.8875 12.2813 13.0788 12.0892 13.2717C12.0668 13.2941 12.0564 13.2933 12.0348 13.2717C10.8462 12.0775 9.65764 10.8833 8.46906 9.68997C7.54461 8.76152 6.62016 7.83306 5.69571 6.90381C5.68291 6.89101 5.6621 6.883 5.68611 6.85819C5.94543 6.58446 6.20476 6.30992 6.4897 6.0618C6.9155 5.68962 7.37253 5.36226 7.86397 5.08213C8.60032 4.66272 9.3831 4.36498 10.2115 4.18569C10.5525 4.11205 10.899 4.06243 11.2488 4.03202C11.4865 4.01201 11.725 4.0024 11.9636 4C12.042 4.0008 12.1204 4.0008 12.1989 4.0016C12.2349 4.01121 12.2717 4 12.3069 4.008C12.3429 4.0088 12.379 4.0096 12.415 4.0096C12.4374 4.01761 12.4606 4.0088 12.483 4.01601C12.503 4.01681 12.523 4.01761 12.5422 4.01761C12.5647 4.02561 12.5887 4.01681 12.6103 4.02401C12.6255 4.02481 12.6407 4.02561 12.6559 4.02641C12.6695 4.03282 12.6847 4.02641 12.6983 4.03202C12.7135 4.03282 12.7279 4.03362 12.7431 4.03442C12.7567 4.04082 12.7728 4.03442 12.7864 4.04002C13.209 4.08724 13.6276 4.15768 14.0398 4.26493C14.4111 4.36178 14.7745 4.48183 15.1291 4.62751C15.4252 4.74996 15.7134 4.89083 15.9943 5.04531C16.1808 5.14776 16.3617 5.25981 16.5402 5.37587C16.7795 5.53194 17.0084 5.70243 17.2293 5.88332C17.3918 6.01618 17.5479 6.15705 17.6999 6.30192C17.8064 6.40277 17.908 6.50762 18.0097 6.61327C18.129 6.73653 18.241 6.86619 18.3571 6.99266C18.3795 7.01747 18.3579 7.02467 18.3467 7.03588C18.0985 7.284 17.8512 7.53212 17.6031 7.77944C17.3358 8.04597 17.0684 8.3117 16.8019 8.57823C16.1624 9.21454 15.5237 9.85164 14.8842 10.488C14.2479 11.1219 13.6116 11.7558 12.9745 12.3897C12.8808 12.4825 12.7864 12.5746 12.6927 12.6674C12.6831 12.6762 12.6759 12.6866 12.6671 12.6962Z" fill="white"/>
<path d="M15.587 11.8983C15.4629 11.8879 15.3428 11.8591 15.226 11.8166C15.1043 11.7726 14.9875 11.7198 14.885 11.6413C15.23 11.2956 15.5741 10.9506 15.9183 10.6056C16.2929 10.2303 16.6667 9.85488 17.0405 9.4795C17.0765 9.44348 17.0773 9.44268 17.1053 9.4875C17.2173 9.66759 17.2926 9.86128 17.323 10.0718C17.3278 10.107 17.3342 10.1422 17.3398 10.1774C17.347 10.1966 17.3382 10.2183 17.3462 10.2375C17.3462 10.2983 17.3462 10.3599 17.3462 10.4208C17.3382 10.44 17.347 10.4616 17.3398 10.4808C17.3142 10.6865 17.2598 10.8834 17.1613 11.0675C17.0317 11.3092 16.85 11.5037 16.6219 11.6558C16.4946 11.7406 16.3569 11.8014 16.2129 11.8454C16.1248 11.8727 16.0328 11.8959 15.9391 11.8991C15.9255 11.9047 15.9103 11.8975 15.8967 11.9047C15.8791 11.9055 15.8615 11.9063 15.8431 11.9071C15.8007 11.9111 15.7582 11.9111 15.715 11.9071C15.6926 11.9063 15.6702 11.9055 15.6478 11.9055C15.6278 11.8959 15.6062 11.9047 15.587 11.8983Z" fill="white"/>
<path d="M8.33781 12.1069C7.63587 12.1021 6.99076 11.5698 6.84829 10.8247C6.76425 10.3828 6.85789 9.97624 7.11161 9.60486C7.13883 9.56484 7.13963 9.56484 7.17485 9.60006C7.89199 10.314 8.60994 11.0272 9.32869 11.7387C9.35911 11.7683 9.3519 11.7787 9.32229 11.8011C9.04615 12.006 8.7356 12.1037 8.33781 12.1069Z" fill="white"/>
<path d="M23.5 12C23.5 18.3513 18.3513 23.5 12 23.5C5.64873 23.5 0.5 18.3513 0.5 12C0.5 5.64873 5.64873 0.5 12 0.5C18.3513 0.5 23.5 5.64873 23.5 12Z" stroke="white" stroke-opacity="0.3"/>
</svg>
