<svg width="24" height="24" viewBox="0 0 24 24" fill="none" xmlns="http://www.w3.org/2000/svg">
<path d="M12 24C18.6274 24 24 18.6274 24 12C24 5.37258 18.6274 0 12 0C5.37258 0 0 5.37258 0 12C0 18.6274 5.37258 24 12 24Z" fill="#CACCFF"/>
<path fill-rule="evenodd" clip-rule="evenodd" d="M15.0567 4.00075L13.2751 5.76126C12.7233 5.39377 12.0682 5.1967 11.397 5.1963C10.4891 5.19577 9.62001 5.55058 8.98965 6.17914C8.35126 6.81242 7.99605 7.66097 8.00005 8.54308C8.00005 9.43314 8.35135 10.2764 8.98965 10.9078C9.45844 11.3758 10.0633 11.6966 10.725 11.828V13.3668C10.0603 13.4948 9.453 13.8176 8.98651 14.2908C8.34944 14.924 7.99536 15.772 8.00005 16.6532C8.00005 17.5433 8.35135 18.3865 8.98965 19.0179C9.61898 19.6477 10.4888 20.0026 11.397 20C12.3048 20.0007 13.1739 19.6461 13.8044 19.0179C14.4443 18.3853 14.7996 17.5358 14.7932 16.6532C14.7994 15.7705 14.4438 14.9209 13.8036 14.2885C13.3349 13.8202 12.73 13.4992 12.0682 13.3675V11.8288C12.7331 11.701 13.3405 11.3782 13.8067 10.9048C14.4453 10.2727 14.7996 9.42438 14.7932 8.54308C14.7932 7.87327 14.5901 7.22458 14.2145 6.67395L16 4.90892L15.0575 4L15.0567 4.00075ZM11.397 14.6037C11.9545 14.6037 12.4689 14.8127 12.8501 15.1974C13.2445 15.5965 13.4601 16.1071 13.4601 16.6532C13.4601 17.2038 13.2429 17.722 12.8524 18.1074C12.4741 18.4916 11.9471 18.7073 11.397 18.7033C10.8481 18.7033 10.329 18.4906 9.94084 18.1074C9.55001 17.7171 9.33211 17.1959 9.33311 16.6539C9.33311 16.1033 9.55111 15.5851 9.94084 15.2005C10.3192 14.8158 10.8466 14.5997 11.397 14.6037ZM12.8501 10.0102C12.4721 10.3931 11.9459 10.6081 11.397 10.6038C10.8481 10.6038 10.329 10.3903 9.94084 10.0072C9.55001 9.61676 9.33211 9.09561 9.33311 8.55364C9.33311 8.00301 9.55111 7.48481 9.94084 7.09937C10.3193 6.71507 10.8468 6.49925 11.397 6.50349C11.9459 6.50349 12.465 6.71619 12.8524 7.09937C13.2486 7.48673 13.4674 8.01031 13.4601 8.55364C13.4601 9.10427 13.2429 9.62171 12.8501 10.0094V10.0102Z" fill="#171EA9"/>
<path d="M23.5 12C23.5 18.3513 18.3513 23.5 12 23.5C5.64873 23.5 0.5 18.3513 0.5 12C0.5 5.64873 5.64873 0.5 12 0.5C18.3513 0.5 23.5 5.64873 23.5 12Z" stroke="black" stroke-opacity="0.097"/>
</svg>
