<svg width="24" height="24" viewBox="0 0 24 24" fill="none" xmlns="http://www.w3.org/2000/svg">
<path d="M12 24C18.6274 24 24 18.6274 24 12C24 5.37258 18.6274 0 12 0C5.37258 0 0 5.37258 0 12C0 18.6274 5.37258 24 12 24Z" fill="#F5F5F5"/>
<path fill-rule="evenodd" clip-rule="evenodd" d="M11.464 10.3529H5.83883V15.8756C5.83271 16.4407 6.05906 16.9844 6.46589 17.3836C6.87626 17.7847 7.42913 18.0063 8.00294 17.9999H11.4648V10.3529H11.464ZM11.594 7.46307H12.1996C12.7992 6.43072 13.3482 5.72873 13.8643 5.34944C14.5006 4.88067 15.1522 4.87685 15.663 5.37849C16.1401 5.84649 16.2296 6.43378 15.9153 6.99966C15.8266 7.15719 15.7088 7.31166 15.5612 7.46307H17.785C18.3043 7.46307 18.8235 7.88977 18.8235 8.48242C18.8235 8.99247 18.3884 9.50252 17.785 9.50252H12.3296V8.14289H11.464V9.50252H6.0973C5.57884 9.50252 5.05884 9.07582 5.05884 8.48242C5.05884 7.97312 5.49395 7.46307 6.0973 7.46307H8.34553C8.20485 7.33199 8.07964 7.18523 7.97235 7.02566C7.59994 6.45672 7.64506 5.85566 8.13064 5.37849C8.64147 4.87685 9.29299 4.88144 9.92999 5.34944C10.4454 5.72873 10.9944 6.43149 11.5948 7.46307H11.594ZM10.5884 7.46307C10.1449 6.75725 9.74875 6.27778 9.41075 6.02926C9.09799 5.79984 8.9267 5.79831 8.7424 5.97878C8.55352 6.1646 8.54205 6.32366 8.70035 6.56531C8.88081 6.84137 9.26087 7.1526 9.8084 7.46307H10.5884ZM13.2052 7.46307H14.1381C14.6604 7.1633 15.0053 6.86048 15.1552 6.59131C15.2852 6.35884 15.2577 6.18219 15.0512 5.97955C14.8669 5.79831 14.6956 5.79908 14.3836 6.02926C14.0449 6.27778 13.648 6.75725 13.206 7.46307H13.2052ZM12.3296 10.3521H17.9555V15.8756C17.9604 16.4426 17.734 16.9871 17.3285 17.3836C16.9181 17.7847 16.3652 18.0063 15.7914 17.9999H12.3296V10.3529V10.3521Z" fill="#775BFD"/>
<path d="M23.5 12C23.5 18.3513 18.3513 23.5 12 23.5C5.64873 23.5 0.5 18.3513 0.5 12C0.5 5.64873 5.64873 0.5 12 0.5C18.3513 0.5 23.5 5.64873 23.5 12Z" stroke="black" stroke-opacity="0.097"/>
</svg>
