<svg width="24" height="24" viewBox="0 0 24 24" fill="none" xmlns="http://www.w3.org/2000/svg">
<path fill-rule="evenodd" clip-rule="evenodd" d="M0 12C0 5.37259 5.37259 0 12 0C18.6274 0 24 5.37259 24 12C24 18.6274 18.6274 24 12 24C5.37259 24 0 18.6274 0 12Z" fill="#EBEAEA"/>
<path d="M23.5 12C23.5 18.3513 18.3513 23.5 12 23.5C5.64873 23.5 0.5 18.3513 0.5 12C0.5 5.64873 5.64873 0.5 12 0.5C18.3513 0.5 23.5 5.64873 23.5 12Z" stroke="black" stroke-opacity="0.097"/>
<path d="M18.531 13.986C18.3102 14.1936 16.8532 18.6377 16.8532 18.6377L16.0037 19.2169L16.9449 14.1266L14.6675 10.6966L12.8185 10.1546C12.8367 10.1276 12.8462 10.1138 12.8462 10.1138L12.6298 6.95338C12.6298 6.95338 11.5508 5.21217 10.8726 4.16016L13.5747 6.47109L14.1576 7.85532L16.1975 8.80242C16.1975 8.80242 18.751 13.7776 18.531 13.986Z" fill="#20B2D3"/>
<path d="M16.9449 14.1263L16.0037 19.2166L15.8915 19.2931H7.60067C7.3821 19.1474 6.00006 15.7087 6.00006 15.7087V14.9503C6.00006 14.9503 6.35705 14.3376 6.51368 13.9005C8.11502 14.0374 9.62164 14.1533 9.78629 14.1205C10.1287 14.052 12.5314 10.5718 12.8185 10.1543L14.6675 10.6963L16.9449 14.1263Z" fill="#3FDCFF"/>
<path d="M12.8461 10.1132C12.8461 10.1132 12.8366 10.127 12.8184 10.154C12.5313 10.5714 10.1286 14.0517 9.78618 14.1202C9.62153 14.1529 8.11491 14.0371 6.51358 13.9001C6.56894 13.7457 6.59954 13.6131 6.5806 13.5373C6.50775 13.2459 6.28918 11.1331 6.28918 11.1331V10.186L7.64427 8.63716L8.3291 7.85471L9.2762 4.64913L10.0659 4H10.6859L10.8724 4.15955C11.5507 5.21156 12.6297 6.95278 12.6297 6.95278L12.8461 10.1132Z" fill="#67E3FF"/>
</svg>
