<svg width="24" height="24" viewBox="0 0 24 24" fill="none" xmlns="http://www.w3.org/2000/svg">
<path d="M12 24C18.6274 24 24 18.6274 24 12C24 5.37258 18.6274 0 12 0C5.37258 0 0 5.37258 0 12C0 18.6274 5.37258 24 12 24Z" fill="#F5F5F5"/>
<path d="M8.7072 16.5304L10.222 15.0156C11.5971 15.8279 13.3476 15.6063 14.4769 14.4769C15.6063 13.3476 15.8279 11.5971 15.0156 10.222L16.5304 8.7072C18.1526 10.9358 17.9118 14.0135 15.9626 15.9626C14.0135 17.9118 10.9358 18.1526 8.7072 16.5304ZM7.4696 15.2928C5.84737 13.0642 6.08821 9.98649 8.03734 8.03734C9.98649 6.08821 13.0642 5.84737 15.2928 7.4696L13.778 8.9844C12.4029 8.17214 10.6524 8.39375 9.52305 9.52305C8.39375 10.6524 8.17214 12.4029 8.9844 13.778L7.4696 15.2928ZM17.6 7.8C16.8268 7.8 16.2 7.1732 16.2 6.4C16.2 5.6268 16.8268 5 17.6 5C18.3732 5 19 5.6268 19 6.4C19 7.1732 18.3732 7.8 17.6 7.8ZM6.4 19C5.6268 19 5 18.3732 5 17.6C5 16.8268 5.6268 16.2 6.4 16.2C7.1732 16.2 7.8 16.8268 7.8 17.6C7.8 18.3732 7.1732 19 6.4 19Z" fill="#1BBDC2"/>
<path d="M23.5 12C23.5 18.3513 18.3513 23.5 12 23.5C5.64873 23.5 0.5 18.3513 0.5 12C0.5 5.64873 5.64873 0.5 12 0.5C18.3513 0.5 23.5 5.64873 23.5 12Z" stroke="black" stroke-opacity="0.097"/>
</svg>
