<svg width="24" height="24" viewBox="0 0 24 24" fill="none" xmlns="http://www.w3.org/2000/svg">
<path d="M12 24C18.6274 24 24 18.6274 24 12C24 5.37258 18.6274 0 12 0C5.37258 0 0 5.37258 0 12C0 18.6274 5.37258 24 12 24Z" fill="url(#paint0_linear)"/>
<path d="M23.5 12C23.5 18.3513 18.3513 23.5 12 23.5C5.64873 23.5 0.5 18.3513 0.5 12C0.5 5.64873 5.64873 0.5 12 0.5C18.3513 0.5 23.5 5.64873 23.5 12Z" stroke="black" stroke-opacity="0.097"/>
<path fill-rule="evenodd" clip-rule="evenodd" d="M11.2273 5V16.1599H6.43216L6.40186 16.1429V7.78555L6.58583 7.67914L11.2273 5Z" fill="white"/>
<path fill-rule="evenodd" clip-rule="evenodd" d="M12.7727 18.9317V7.77148H17.5679L17.5982 7.7888V16.1458L17.4142 16.2522L12.7727 18.9317Z" fill="white"/>
<defs>
<linearGradient id="paint0_linear" x1="12" y1="0" x2="12" y2="24" gradientUnits="userSpaceOnUse">
<stop stop-color="#6FA4F2"/>
<stop offset="0.531356" stop-color="#0F6BEB"/>
<stop offset="1" stop-color="#0B50B0"/>
</linearGradient>
</defs>
</svg>
