<svg width="24" height="24" viewBox="0 0 24 24" fill="none" xmlns="http://www.w3.org/2000/svg">
<path d="M12 24C18.6274 24 24 18.6274 24 12C24 5.37258 18.6274 0 12 0C5.37258 0 0 5.37258 0 12C0 18.6274 5.37258 24 12 24Z" fill="url(#paint0_linear)"/>
<path d="M23.5 12C23.5 18.3513 18.3513 23.5 12 23.5C5.64873 23.5 0.5 18.3513 0.5 12C0.5 5.64873 5.64873 0.5 12 0.5C18.3513 0.5 23.5 5.64873 23.5 12Z" stroke="black" stroke-opacity="0.097"/>
<path d="M14.1067 19.564C14.0765 19.5247 14.0331 19.4985 13.985 19.4904C13.0763 19.2927 12.2029 18.9523 11.3958 18.481C9.73833 17.4923 8.68175 15.9966 8.64116 14.2929C8.62969 13.6433 8.76034 12.9994 9.02352 12.4084C9.19211 12.0245 10.0973 10.6487 10.2471 10.3975C10.8636 9.40729 10.6654 9.46969 9.79765 8.23306L8.54911 6.33739L7.70476 5.0752C7.22126 5.41272 6.7632 5.78705 6.33449 6.19501C5.46116 7.09308 4.80288 8.18646 4.41135 9.38929C4.01982 10.5922 3.9057 11.8716 4.07796 13.1273C4.25021 14.383 4.70416 15.5806 5.40413 16.6261C6.10409 17.6716 7.03102 18.5365 8.11211 19.1529C5.33097 17.0636 4.06213 13.9313 5.12652 10.7718C5.41702 9.92398 5.84203 9.13104 6.38443 8.42502L7.29898 9.80401C7.35141 9.88382 7.37756 9.97874 7.37363 10.0749C7.3697 10.171 7.33589 10.2633 7.27713 10.3383C6.84044 10.8874 6.49985 11.5098 6.2705 12.178C5.10155 15.6559 8.26036 19.2585 11.5971 19.8456C12.237 19.9576 13.4028 20.0823 14.0053 19.924C14.0407 19.9141 14.0731 19.8951 14.0993 19.8687C14.1254 19.8423 14.1446 19.8094 14.1548 19.7732C14.1649 19.7371 14.1659 19.6988 14.1574 19.6621C14.149 19.6255 14.1315 19.5917 14.1067 19.564Z" fill="white"/>
<path d="M9.89485 4.43492C9.92502 4.47418 9.96845 4.50043 10.0166 4.50851C10.9251 4.70616 11.7983 5.04666 12.6054 5.51794C14.2625 6.50657 15.319 8.00233 15.3595 9.70604C15.371 10.3556 15.2404 10.9996 14.9772 11.5905C14.8087 11.9745 13.9036 13.3502 13.7539 13.6014C13.1375 14.5916 13.3356 14.5293 14.2033 15.7659L15.4516 17.6615L16.2958 18.9237C16.7793 18.5862 17.2372 18.2119 17.6659 17.8039C18.5391 16.9058 19.1972 15.8125 19.5887 14.6096C19.9802 13.4068 20.0943 12.1273 19.922 10.8716C19.7498 9.61596 19.2959 8.41834 18.5961 7.37283C17.8962 6.32733 16.9694 5.46242 15.8885 4.84605C18.6692 6.9353 19.9379 10.0676 18.8736 13.2271C18.5832 14.0749 18.1583 14.8679 17.6159 15.5739L16.7015 14.1949C16.6491 14.1151 16.623 14.0202 16.6269 13.9241C16.6308 13.8279 16.6646 13.7356 16.7234 13.6606C17.16 13.1116 17.5005 12.4891 17.7298 11.8209C18.8986 8.34305 15.7403 4.74047 12.404 4.15336C11.7643 4.04138 10.5986 3.9166 9.99628 4.07498C9.96084 4.08482 9.92845 4.10386 9.90227 4.13025C9.87608 4.15665 9.857 4.18952 9.84681 4.22569C9.83659 4.26186 9.83569 4.30011 9.84408 4.33676C9.85251 4.37341 9.87 4.40721 9.89485 4.43492Z" fill="white"/>
<defs>
<linearGradient id="paint0_linear" x1="16.9356" y1="2.42825" x2="9.22146" y2="21.5705" gradientUnits="userSpaceOnUse">
<stop stop-color="#174E5B"/>
<stop offset="0.07" stop-color="#195A6C"/>
<stop offset="0.21" stop-color="#1E779A"/>
<stop offset="0.4" stop-color="#27A7E3"/>
<stop offset="0.47" stop-color="#2ABAFF"/>
<stop offset="0.7" stop-color="#1DDAF0"/>
<stop offset="1" stop-color="#0EFFE0"/>
</linearGradient>
</defs>
</svg>
