<svg width="24" height="24" viewBox="0 0 24 24" fill="none" xmlns="http://www.w3.org/2000/svg">
<path d="M12 24C18.6274 24 24 18.6274 24 12C24 5.37258 18.6274 0 12 0C5.37258 0 0 5.37258 0 12C0 18.6274 5.37258 24 12 24Z" fill="#F5F5F5"/>
<path d="M23.5 12C23.5 18.3513 18.3513 23.5 12 23.5C5.64873 23.5 0.5 18.3513 0.5 12C0.5 5.64873 5.64873 0.5 12 0.5C18.3513 0.5 23.5 5.64873 23.5 12Z" stroke="black" stroke-opacity="0.097"/>
<path d="M12 19.1008C12 19.5578 12.3716 19.9328 12.8262 19.8862C16.8563 19.4727 20 16.0676 20 11.9283C20 7.78905 16.8563 4.384 12.8262 3.97048C12.3716 3.92383 12 4.29886 12 4.75592V6.96282C12 7.41989 12.3741 7.78177 12.8223 7.87211C14.7137 8.25346 16.1379 9.92458 16.1379 11.9283C16.1379 13.9321 14.7137 15.6032 12.8223 15.9846C12.3741 16.0749 12 16.4368 12 16.8939V19.1008Z" fill="#3F75FF"/>
<path d="M9.51725 5.46149C9.51725 4.89887 8.96635 4.5021 8.4618 4.75125C5.81821 6.05696 4 8.7803 4 11.9284C4 15.0764 5.81821 17.7997 8.4618 19.1054C8.96635 19.3546 9.51725 18.9578 9.51725 18.3952V5.46149Z" fill="#3F75FF"/>
</svg>
