<svg width="24" height="24" viewBox="0 0 24 24" fill="none" xmlns="http://www.w3.org/2000/svg">
<path d="M12 24C18.6274 24 24 18.6274 24 12C24 5.37258 18.6274 0 12 0C5.37258 0 0 5.37258 0 12C0 18.6274 5.37258 24 12 24Z" fill="#0B0926"/>
<path d="M23.5 12C23.5 18.3513 18.3513 23.5 12 23.5C5.64873 23.5 0.5 18.3513 0.5 12C0.5 5.64873 5.64873 0.5 12 0.5C18.3513 0.5 23.5 5.64873 23.5 12Z" stroke="#0B0926"/>
<path d="M15.9665 5.05877C16.7054 5.45387 17.3645 5.98341 17.9101 6.62036C18.5657 7.38628 19.4643 8.74728 19.872 10.7715C20.1772 12.4569 19.9045 13.8256 19.3935 15.0906C18.6575 16.9142 16.9608 18.5756 15.3272 19.3137C14.5082 19.68 13.6358 19.9117 12.7434 20C12.7274 20.0005 12.7117 19.9954 12.699 19.9855C12.6863 19.9757 12.6774 19.9617 12.6739 19.946C12.6704 19.9304 12.6725 19.9139 12.6797 19.8996C12.687 19.8853 12.699 19.8739 12.7137 19.8675C14.6506 19.1457 15.3062 17.8587 15.3617 17.7819C15.4172 17.7051 15.5311 17.3999 15.4086 17.3317C15.3707 17.3151 15.329 17.3097 15.2881 17.316C15.2473 17.3222 15.2091 17.34 15.1779 17.3672C15.161 17.3791 15.1453 17.3926 15.1311 17.4075L14.9655 17.5554C14.8081 17.6805 14.6425 17.795 14.4698 17.898C12.1194 19.2859 10.9605 18.1725 10.8926 18.1034L10.8859 18.0976C10.815 18.0449 9.77768 17.2233 10.3988 14.9428C10.9509 12.9166 12.8151 12.0912 13.3319 11.8993C13.3438 11.895 13.3542 11.8874 13.362 11.8776C13.3699 11.8677 13.3748 11.8558 13.3763 11.8432C13.3778 11.8307 13.3758 11.818 13.3705 11.8065C13.3652 11.7951 13.3568 11.7853 13.3463 11.7783C12.9692 11.5201 11.8208 10.5565 11.8208 8.37296C11.8381 5.65673 13.598 5.3851 13.598 5.3851C13.598 5.3851 14.821 5.06261 15.0708 6.57046C15.2449 7.97272 14.7636 8.47758 14.3262 9.08033C14.3191 9.09149 14.3152 9.10449 14.3152 9.11776C14.3152 9.13104 14.3191 9.14403 14.3262 9.15519C14.4947 9.45369 14.6506 9.68212 15.1377 9.73107C15.6459 9.7829 16.0689 9.2291 16.0689 9.2291C16.0689 9.2291 16.7713 8.35184 16.5933 6.97261C16.5168 6.31698 16.271 5.69272 15.8804 5.16147C15.8701 5.14918 15.8645 5.13368 15.8646 5.11767C15.8646 5.10166 15.8702 5.08617 15.8805 5.07392C15.8908 5.06166 15.905 5.05343 15.9208 5.05066C15.9365 5.04789 15.9527 5.05076 15.9665 5.05877Z" fill="white"/>
<path d="M11.762 4.10934C11.7539 4.12504 11.7405 4.13735 11.7242 4.14408C11.0629 4.41763 9.88582 5.14611 9.37957 6.96685C8.79485 8.8423 9.77768 10.6957 10.0093 11.094C10.0148 11.1035 10.0182 11.1141 10.0193 11.1251C10.0203 11.1361 10.0188 11.1471 10.0151 11.1575C10.0113 11.1678 10.0054 11.1772 9.99757 11.185C9.98978 11.1928 9.98038 11.1987 9.97003 11.2024C9.58054 11.3455 7.97854 12.049 7.22923 14.1605C6.41196 16.4641 7.23401 17.9825 7.76035 18.6543C7.76953 18.6681 7.7739 18.6845 7.77279 18.701C7.77168 18.7175 7.76515 18.7332 7.75422 18.7456C7.74328 18.758 7.72856 18.7664 7.71236 18.7695C7.69616 18.7726 7.67938 18.7702 7.66465 18.7628C6.75265 18.1485 4.77647 16.5303 4.16879 13.7526C3.76469 11.7941 4.09197 9.75501 5.08845 8.02263C7.09812 4.59327 10.4284 4.07114 11.6916 4.00011C11.7093 3.99914 11.7266 4.00445 11.7407 4.01511C11.7548 4.02576 11.7646 4.04107 11.7685 4.05831C11.7724 4.07556 11.7701 4.09364 11.762 4.10934Z" fill="white"/>
</svg>
