<svg width="24" height="24" viewBox="0 0 24 24" fill="none" xmlns="http://www.w3.org/2000/svg">
<path d="M12 24C18.6274 24 24 18.6274 24 12C24 5.37258 18.6274 0 12 0C5.37258 0 0 5.37258 0 12C0 18.6274 5.37258 24 12 24Z" fill="#4BD6A3"/>
<path d="M18 8.67426V6H12.2052V8.64013H13.1079L11.3185 10.817H10.5803V8.64013H11.5976V6H10.2226V6.99004H9.47845V6H8.11936V6.99004H7.37517V6H6V8.67426H7.21456V15.3258H6V18H11.5976V15.3599H10.5803V13.183H11.3185L13.1079 15.3599H12.2052V18H18V15.3258H17.0973L14.3696 12L17.0973 8.67426H18Z" fill="white"/>
<path d="M23.5 12C23.5 18.3513 18.3513 23.5 12 23.5C5.64873 23.5 0.5 18.3513 0.5 12C0.5 5.64873 5.64873 0.5 12 0.5C18.3513 0.5 23.5 5.64873 23.5 12Z" stroke="black" stroke-opacity="0.097"/>
</svg>
