<svg width="24" height="24" viewBox="0 0 24 24" fill="none" xmlns="http://www.w3.org/2000/svg">
<path d="M12 24C18.6274 24 24 18.6274 24 12C24 5.37258 18.6274 0 12 0C5.37258 0 0 5.37258 0 12C0 18.6274 5.37258 24 12 24Z" fill="#131418"/>
<path fill-rule="evenodd" clip-rule="evenodd" d="M6 15.9V18.5H8.6V15.9H6ZM6 10.7V13.3H8.6V10.7H6ZM16.4 10.7V13.3H19V10.7H16.4ZM6 8.1V5.5H8.6V8.1H6ZM11.2 10.7V8.1H13.8V10.7H11.2ZM11.2 13.3V15.9H13.8V13.3H11.2Z" fill="white"/>
<path d="M23.5 12C23.5 18.3513 18.3513 23.5 12 23.5C5.64873 23.5 0.5 18.3513 0.5 12C0.5 5.64873 5.64873 0.5 12 0.5C18.3513 0.5 23.5 5.64873 23.5 12Z" stroke="white" stroke-opacity="0.3"/>
</svg>
