<svg width="24" height="24" viewBox="0 0 24 24" fill="none" xmlns="http://www.w3.org/2000/svg">
<path d="M12 24C18.6274 24 24 18.6274 24 12C24 5.37258 18.6274 0 12 0C5.37258 0 0 5.37258 0 12C0 18.6274 5.37258 24 12 24Z" fill="#172852"/>
<path d="M23.5 12C23.5 18.3513 18.3513 23.5 12 23.5C5.64873 23.5 0.5 18.3513 0.5 12C0.5 5.64873 5.64873 0.5 12 0.5C18.3513 0.5 23.5 5.64873 23.5 12Z" stroke="white" stroke-opacity="0.3"/>
<path d="M6.72502 6.03027C6.75887 6.24214 6.78707 6.4485 6.82504 6.65307C7.18067 8.56645 7.97158 10.2704 9.29202 11.711C10.0788 12.5692 10.9957 13.2638 12.0295 13.8028C12.9247 14.2696 13.8691 14.59 14.8633 14.7643C15.3746 14.854 15.8901 14.8855 16.4086 14.896C16.8864 14.9056 17.3611 14.8796 17.8341 14.8171C18.2654 14.7602 18.6915 14.6725 19.1184 14.5909C19.2888 14.5583 19.4589 14.5241 19.6429 14.4879C19.6092 14.5976 19.5799 14.6992 19.5466 14.7995C19.2492 15.6975 18.7863 16.502 18.1679 17.216C17.0843 18.467 15.7383 19.3077 14.1518 19.7676C13.6447 19.9146 13.1276 20.009 12.6004 20.0442C11.1032 20.1441 9.68424 19.8551 8.35294 19.164C7.15577 18.5426 6.17858 17.6681 5.4094 16.5585C4.75895 15.6203 4.34348 14.5865 4.13547 13.4679C3.98579 12.6631 3.9602 11.853 4.05843 11.0393C4.24168 9.52273 4.83173 8.17877 5.7814 6.98875C6.04912 6.65321 6.34766 6.34601 6.67522 6.06783C6.69049 6.0549 6.707 6.04389 6.72502 6.03027Z" fill="#FED73D"/>
<path d="M15.968 8.91905C15.6288 8.78863 15.2828 8.67733 14.938 8.56273C14.0877 8.28029 13.2316 8.01587 12.3842 7.72422C11.4581 7.40532 10.5471 7.04873 9.6787 6.59267C9.36311 6.42689 9.05041 6.25149 8.7908 5.99973C8.67455 5.88705 8.58252 5.7576 8.51731 5.60833C8.40711 5.35643 8.46365 5.13439 8.63603 4.93422C8.793 4.75193 8.99785 4.6332 9.20738 4.52438C9.49587 4.3747 9.80981 4.29697 10.1225 4.21924C10.9797 4.00614 11.8484 3.95662 12.7273 4.03517C14.0701 4.155 15.3031 4.58368 16.4205 5.33758C17.389 5.99106 18.1837 6.81499 18.8005 7.80772C19.1837 8.42447 19.4916 9.07629 19.6857 9.77819C19.7473 10.0012 19.7896 10.2283 19.7896 10.4612C19.4089 10.2509 19.0238 10.0491 18.6257 9.87381C17.9616 9.58146 17.2802 9.33411 16.5896 9.11234C16.383 9.04603 16.1789 8.97146 15.968 8.91905Z" fill="#FED73D"/>
<path d="M15.9681 8.91895C16.179 8.97136 16.3831 9.04593 16.5897 9.11224C17.2803 9.33401 17.9616 9.58136 18.6258 9.87371C19.0239 10.049 19.409 10.2509 19.7897 10.4611C19.8631 10.4916 19.8836 10.5473 19.8935 10.6254C19.9623 11.1738 20.0135 11.7228 19.9969 12.2764C19.9897 12.5125 19.9649 12.7468 19.9312 12.9805C19.923 13.038 19.9051 13.0353 19.8626 13.0156C19.6165 12.9018 19.3827 12.7665 19.167 12.6029C18.6285 12.1946 18.0945 11.7805 17.6003 11.318C17.1319 10.8796 16.7014 10.4094 16.3727 9.8539C16.2055 9.57118 16.0706 9.27402 15.976 8.95898C15.972 8.94605 15.9706 8.93229 15.9681 8.91895Z" fill="#FD6E03"/>
</svg>
