<svg width="24" height="24" viewBox="0 0 24 24" fill="none" xmlns="http://www.w3.org/2000/svg">
<path d="M12 24C18.6274 24 24 18.6274 24 12C24 5.37258 18.6274 0 12 0C5.37258 0 0 5.37258 0 12C0 18.6274 5.37258 24 12 24Z" fill="#F5F5F5"/>
<g clip-path="url(#clip0_103_282)">
<path d="M12.0249 19.1589C11.917 19.0276 11.841 18.8761 11.7586 18.7291C11.2533 17.8271 11.0064 16.8574 11.0416 15.8237C11.0895 14.4205 11.5996 13.2067 12.5776 12.1987C12.9736 11.7905 13.3822 11.3949 13.7848 10.9934C13.826 10.9525 13.8664 10.9105 13.9072 10.8688C13.9528 10.8896 13.9428 10.9279 13.9368 10.9648C13.9094 11.1363 13.8601 11.3027 13.8174 11.4701C13.777 11.629 13.764 11.7924 13.7203 11.9512C13.6788 12.1023 13.6187 12.2523 13.6106 12.4093C13.6017 12.5864 13.5108 12.7442 13.5105 12.9221C13.5105 12.9771 13.4893 13.0311 13.4675 13.0828C13.4478 13.129 13.4344 13.1762 13.4404 13.2272C13.443 13.2491 13.446 13.2756 13.4285 13.2889C13.3373 13.3593 13.3685 13.4571 13.3703 13.5464C13.3714 13.6011 13.3651 13.6488 13.3343 13.6956C13.2795 13.779 13.3058 13.8821 13.2754 13.9729C13.2639 14.0071 13.2654 14.0454 13.2394 14.0748C13.2087 14.1102 13.219 14.1541 13.2102 14.1939C13.1786 14.3375 13.1679 14.4864 13.1123 14.6237C13.0989 14.6564 13.0845 14.6843 13.0949 14.7197C13.1008 14.7405 13.1115 14.7632 13.1034 14.7833C13.0429 14.9299 13.06 15.0985 12.9769 15.2384C12.9551 15.2752 12.9517 15.3106 12.9584 15.353C12.9725 15.4427 12.9406 15.5268 12.9239 15.6139C12.9065 15.7039 12.8913 15.7843 12.8261 15.8505C12.8183 15.8583 12.8157 15.8773 12.8294 15.8829C12.8679 15.8981 12.8969 15.9201 12.8828 15.9651C12.8602 16.0373 12.8679 16.1237 12.7968 16.1742C12.7571 16.2022 12.7271 16.2345 12.7156 16.2825C12.7133 16.2914 12.703 16.3034 12.7063 16.3078C12.7797 16.4053 12.6937 16.517 12.736 16.62C12.7708 16.7045 12.753 16.722 12.6585 16.7313C12.5973 16.7372 12.5962 16.7748 12.614 16.8169C12.631 16.8567 12.6384 16.8883 12.6043 16.9259C12.578 16.9546 12.5921 16.9973 12.5947 17.0338C12.598 17.0803 12.6021 17.1268 12.5884 17.1722C12.5676 17.2403 12.5447 17.2485 12.4775 17.2165C12.499 17.3021 12.5383 17.3895 12.4542 17.4692C12.4368 17.4855 12.429 17.5161 12.4368 17.5391C12.4653 17.6243 12.4482 17.7077 12.4397 17.7933C12.4353 17.8394 12.436 17.8744 12.3782 17.8714C12.3433 17.8696 12.3289 17.8908 12.3215 17.9205C12.3133 17.9533 12.3188 17.9782 12.3467 18.0024C12.4638 18.1043 12.4583 18.1702 12.3292 18.2506C12.2417 18.3049 12.2395 18.3235 12.3129 18.3879C12.3622 18.4311 12.3622 18.4817 12.3011 18.5148C12.2151 18.562 12.1817 18.6205 12.1861 18.7235C12.1887 18.7846 12.1717 18.8575 12.145 18.9193C12.1198 18.9773 12.1053 19.0309 12.1175 19.0975C12.129 19.1622 12.0879 19.1864 12.0249 19.1589Z" fill="#01A6FE"/>
<path d="M13.9409 10.6106C13.9365 10.6344 13.9168 10.6418 13.8983 10.6504C13.654 10.727 13.4041 10.781 13.1546 10.8368C13.0111 10.8688 12.8732 10.928 12.7219 10.9224C12.7004 10.9217 12.6826 10.9392 12.663 10.9481C12.5925 10.9793 12.5221 11.0087 12.4409 10.999C12.3949 10.9935 12.3482 11.0054 12.3048 11.0217C12.1665 11.0746 12.0227 11.101 11.877 11.1226C11.7921 11.1352 11.7179 11.1829 11.6319 11.2011C11.4929 11.2309 11.3531 11.2491 11.2129 11.2684C11.1395 11.2785 11.0672 11.2953 11.009 11.3466C10.9901 11.363 10.9682 11.3808 10.9438 11.3786C10.791 11.3652 10.6609 11.4463 10.5192 11.4757C10.4399 11.4921 10.3658 11.5014 10.2916 11.5442C10.2442 11.5714 10.1682 11.5688 10.1111 11.558C10.0176 11.5401 9.94385 11.5836 9.86304 11.6071C9.83485 11.6153 9.81596 11.6353 9.79962 11.6584C9.78703 11.6763 9.77257 11.6923 9.75069 11.6994C9.72177 11.7083 9.69694 11.6975 9.67136 11.6845C9.66023 11.6789 9.64985 11.6502 9.64355 11.6659C9.63019 11.6982 9.60831 11.706 9.57979 11.7087C9.55456 11.7109 9.53083 11.7046 9.50895 11.6912C9.49227 11.6807 9.47932 11.68 9.45928 11.6912C9.3058 11.7782 9.14415 11.8478 8.96617 11.8534C8.9013 11.8553 8.83568 11.8538 8.77005 11.8553C8.70999 11.8568 8.65512 11.8526 8.60544 11.8943C8.58245 11.9137 8.55428 11.9051 8.5261 11.8966C8.4627 11.8769 8.40116 11.8609 8.37149 11.9513C8.35741 11.9944 8.31143 12.0082 8.28585 11.9661C8.24396 11.8973 8.18983 11.9148 8.13236 11.9282C8.15683 11.9494 8.20911 11.9409 8.21022 11.9874C8.21133 12.0287 8.16944 12.0365 8.14311 12.0562C8.07934 12.1031 8.01557 12.1477 7.93178 12.1035C7.92659 12.1005 7.91881 12.099 7.91362 12.1012C7.79053 12.1608 7.65631 12.0964 7.53174 12.1351C7.48577 12.1496 7.44795 12.1269 7.4068 12.1157C7.43016 12.2103 7.42645 12.217 7.33413 12.2415C7.31596 12.2464 7.29817 12.2497 7.28519 12.2646C7.24626 12.3096 7.21141 12.3249 7.18731 12.2523C7.17582 12.2177 7.15617 12.2255 7.12985 12.2371C7.01825 12.2858 6.8959 12.2824 6.77875 12.2992C6.702 12.3103 6.63304 12.3211 6.58002 12.3792C6.54369 12.419 6.50476 12.4242 6.45471 12.4093C6.39872 12.3926 6.34571 12.3636 6.28564 12.3636C6.23893 12.3636 6.19481 12.3606 6.18851 12.4313C6.18369 12.4875 6.14179 12.4983 6.09397 12.4678C6.05022 12.2999 6.03798 12.1269 6.02352 11.9554C5.96606 11.2766 6.01388 10.605 6.167 9.9408C6.17034 9.92629 6.17738 9.91252 6.18257 9.89837C6.26785 9.87901 6.35164 9.86971 6.43654 9.90581C6.52441 9.9434 6.5296 9.95307 6.47065 10.0539C6.54888 9.99288 6.62154 10.0104 6.69273 10.0308C6.70571 10.0018 6.67901 9.98917 6.67493 9.96906C6.66937 9.94192 6.67419 9.91959 6.69681 9.90322C6.72091 9.88608 6.74649 9.89204 6.76429 9.91103C6.80284 9.95232 6.84103 9.95232 6.8959 9.9404C6.95226 9.92814 7.01009 9.96387 7.05755 9.99847C7.12577 10.0487 7.19287 10.0479 7.26517 10.0122C7.33784 9.97614 7.40643 9.96795 7.48391 10.0134C7.54249 10.0476 7.62146 10.061 7.66966 9.99476C7.72046 9.92478 7.77051 9.97987 7.81796 9.98469C7.87283 9.99028 7.86505 10.0431 7.86023 10.0885C7.94921 10.0126 7.94179 10.0293 8.04857 10.0762C8.13014 10.1123 8.23209 10.1421 8.32738 10.0941C8.37669 10.0692 8.41969 10.0543 8.45158 10.1164C8.45566 10.1246 8.46122 10.1395 8.46678 10.1365C8.53834 10.0956 8.62732 10.1752 8.69405 10.1023C8.71333 10.0811 8.73891 10.068 8.76894 10.0826C8.83568 10.1142 9.06888 10.1693 9.13526 10.1734C9.16788 10.1752 9.18828 10.1633 9.20422 10.138C9.23721 10.0855 9.28355 10.0867 9.33435 10.1056C9.38069 10.1231 9.42999 10.1354 9.4715 10.1607C9.52824 10.1949 9.572 10.2124 9.64687 10.189C9.69878 10.1726 9.78147 10.205 9.84338 10.237C9.90566 10.269 9.9609 10.3181 10.0191 10.224C10.0439 10.1841 10.1007 10.2113 10.1404 10.2221C10.2438 10.2508 10.3472 10.2645 10.4533 10.2429C10.4859 10.2362 10.5156 10.2403 10.5393 10.2642C10.6127 10.3363 10.7013 10.3259 10.7895 10.3099C10.8199 10.3043 10.8474 10.2988 10.8793 10.3069C11.0454 10.3486 11.2167 10.3903 11.385 10.3579C11.5181 10.3322 11.6326 10.362 11.7524 10.3992C11.8169 10.419 11.8822 10.4435 11.9478 10.3988C11.9663 10.3862 11.9897 10.3899 12.0108 10.3955C12.244 10.4584 12.4853 10.4528 12.723 10.48C13.0196 10.5142 13.3188 10.5209 13.615 10.5633C13.7062 10.5763 13.8 10.5622 13.8912 10.5845C13.9113 10.5897 13.928 10.5964 13.9409 10.6106Z" fill="#01D8FE"/>
<path d="M6.09497 12.4688C6.13835 12.4655 6.20175 12.4815 6.16171 12.3981C6.14317 12.3598 6.17691 12.3609 6.19804 12.3512C6.29073 12.3099 6.3734 12.3587 6.45608 12.3847C6.50762 12.4011 6.53283 12.4015 6.57176 12.3557C6.61736 12.3021 6.68669 12.2872 6.76269 12.275C6.88987 12.2545 7.0289 12.2813 7.14531 12.1927C7.19833 12.1525 7.20834 12.2087 7.21131 12.2482C7.21242 12.2641 7.20908 12.282 7.22503 12.2876C7.24949 12.2958 7.2558 12.2742 7.26025 12.2563C7.26692 12.2296 7.28101 12.2069 7.30992 12.2121C7.34737 12.2191 7.3889 12.2325 7.40298 12.186C7.4167 12.1418 7.36257 12.1302 7.34329 12.1004C7.35145 12.0692 7.37851 12.0751 7.39594 12.08C7.56389 12.1269 7.73036 12.1142 7.89683 12.0737C7.90572 12.0714 7.91907 12.0628 7.92241 12.0662C8.02622 12.1592 8.08888 12.0401 8.17007 12.0178C8.18453 12.0137 8.19862 12.0037 8.19454 11.9843C8.1912 11.9695 8.17712 11.9702 8.16562 11.9665C8.12929 11.9549 8.08739 11.9535 8.04772 11.9047C8.11298 11.9114 8.16117 11.9028 8.20678 11.8876C8.25127 11.8727 8.27611 11.8723 8.28204 11.9278C8.28464 11.9501 8.30094 11.9791 8.33098 11.9713C8.35804 11.9642 8.36323 11.9408 8.35619 11.9118C8.34729 11.8757 8.35582 11.85 8.40401 11.8623C8.4537 11.8746 8.51598 11.8136 8.55639 11.8884C8.55825 11.8917 8.57827 11.8909 8.58198 11.8861C8.63981 11.8072 8.71841 11.8251 8.79775 11.8348C8.81926 11.8374 8.84336 11.8199 8.86598 11.8106C8.87672 11.8061 8.89416 11.7931 8.89675 11.7957C8.99315 11.895 9.10584 11.8206 9.18037 11.7864C9.25379 11.7529 9.32161 11.7332 9.39799 11.722C9.4499 11.7146 9.43322 11.6472 9.46695 11.6238C9.50292 11.6308 9.50144 11.6718 9.52889 11.6807C9.55853 11.6904 9.59191 11.6975 9.61748 11.677C9.64195 11.6572 9.61785 11.6401 9.60413 11.6238C9.59302 11.6104 9.59154 11.5929 9.60859 11.5854C9.62527 11.578 9.6349 11.5936 9.64419 11.607C9.71463 11.7093 9.70906 11.7008 9.80212 11.6163C9.85661 11.5672 9.94523 11.5196 10.0109 11.5285C10.0976 11.5408 10.1799 11.5106 10.2652 11.5282C10.3093 11.5371 10.3523 11.5043 10.3701 11.4567C10.382 11.4243 10.3953 11.4024 10.4261 11.4366C10.4921 11.5099 10.5703 11.4492 10.61 11.4243C10.7042 11.3659 10.8013 11.357 10.9021 11.3562C10.9385 11.3562 10.9718 11.3585 10.9937 11.3298C11.046 11.2613 11.1268 11.2543 11.1973 11.2442C11.4142 11.2137 11.6281 11.1854 11.8383 11.1095C11.9288 11.0768 12.0363 11.0526 12.1434 11.0496C12.2276 11.047 12.3051 10.9759 12.3963 10.9771C12.5105 10.9782 12.6091 10.932 12.7144 10.8997C12.7859 10.8773 12.879 10.8796 12.9602 10.861C13.246 10.7944 13.5312 10.724 13.8166 10.6563C13.8429 10.65 13.8711 10.6515 13.8986 10.6496C13.8722 10.7028 13.8022 10.7058 13.7751 10.7582C13.5538 10.8673 13.3491 11.0061 13.1311 11.1207C12.8097 11.29 12.4919 11.466 12.1753 11.6439C12.0062 11.7388 11.8223 11.8035 11.6585 11.9081C11.6459 11.9162 11.6259 11.9174 11.6184 11.93C11.5558 12.039 11.4382 12.0506 11.3374 12.0919C11.3118 12.1023 11.2818 12.1075 11.2625 12.1272C11.1839 12.208 11.0949 12.2671 10.9852 12.2988C10.934 12.3137 10.8918 12.3494 10.8521 12.3918C10.8124 12.4342 10.7531 12.4662 10.689 12.471C10.6378 12.4748 10.5903 12.4908 10.5529 12.5235C10.4617 12.6024 10.3542 12.6359 10.2385 12.6508C10.2229 12.6526 10.2029 12.656 10.1973 12.669C10.1377 12.8022 9.96191 12.7896 9.89517 12.9131C9.89258 12.9183 9.88517 12.9239 9.88037 12.9235C9.78024 12.909 9.73503 13.0177 9.64604 13.0288C9.62712 13.0311 9.61081 13.043 9.60007 13.0579C9.53889 13.142 9.45399 13.1732 9.35537 13.2C9.17742 13.248 9.01131 13.328 8.8797 13.4649C8.87782 13.4672 8.87561 13.4698 8.87265 13.4709C8.67466 13.5342 8.52562 13.7046 8.31022 13.7284C8.285 13.7314 8.26647 13.7347 8.27277 13.7652C8.28352 13.8162 8.25572 13.8393 8.21271 13.853C8.17675 13.8646 8.14857 13.8891 8.12076 13.9141C8.1 13.9327 8.07553 13.9572 8.0481 13.9487C7.97024 13.9249 7.91722 13.974 7.88089 14.0201C7.81415 14.105 7.72888 14.1202 7.63508 14.1191C7.59615 14.1187 7.5739 14.1239 7.55574 14.1626C7.52088 14.2367 7.47194 14.2988 7.37666 14.2925C7.37073 14.2921 7.36072 14.2933 7.35924 14.297C7.30956 14.4417 7.11083 14.3825 7.05596 14.5199C7.05374 14.5254 7.04632 14.5333 7.04298 14.5318C6.96475 14.4983 6.89765 14.6002 6.81868 14.5496C6.55248 14.0916 6.36228 13.6019 6.22436 13.0913C6.16875 12.8871 6.1161 12.6813 6.09497 12.4688Z" fill="#01DCFE"/>
<path d="M12.0249 19.159C12.0924 19.1563 12.1265 19.134 12.0835 19.0629C12.072 19.0436 12.0676 19.0161 12.082 19.0008C12.1532 18.9282 12.1068 18.817 12.1695 18.7418C12.1762 18.7336 12.1688 18.7128 12.1658 18.6983C12.1476 18.6068 12.1806 18.5454 12.2722 18.5074C12.303 18.4947 12.3297 18.4784 12.3304 18.4438C12.3315 18.4088 12.3034 18.3995 12.2733 18.3965C12.2455 18.3935 12.2262 18.3783 12.2248 18.3496C12.2225 18.3102 12.2377 18.2756 12.2707 18.254C12.2989 18.2354 12.3323 18.2246 12.3604 18.2063C12.4294 18.161 12.4231 18.059 12.3464 18.0296C12.31 18.0159 12.2789 18.0021 12.2863 17.9634C12.2948 17.9195 12.2967 17.8707 12.333 17.835C12.3642 17.8045 12.3968 17.8979 12.422 17.8339C12.4335 17.8045 12.3819 17.7777 12.4105 17.7405C12.4487 17.691 12.4409 17.6423 12.4153 17.5857C12.3894 17.5288 12.4068 17.4677 12.4509 17.4234C12.4847 17.3892 12.498 17.3643 12.4746 17.314C12.4565 17.275 12.4643 17.2236 12.4594 17.1634C12.4909 17.189 12.498 17.237 12.5358 17.2199C12.5669 17.2061 12.5703 17.1686 12.5721 17.1399C12.5751 17.0882 12.5629 17.0357 12.5677 16.9847C12.5707 16.952 12.5265 16.898 12.6066 16.8861C12.6348 16.882 12.6003 16.8508 12.5922 16.8363C12.5677 16.795 12.5647 16.7607 12.5951 16.7191C12.6259 16.6763 12.6522 16.7016 12.6826 16.7127C12.7327 16.731 12.7371 16.7034 12.7245 16.6659C12.6963 16.5832 12.6745 16.5017 12.7208 16.4177C12.7256 16.4091 12.7208 16.3927 12.716 16.3819C12.6715 16.28 12.6845 16.2249 12.7775 16.1613C12.8588 16.1055 12.8406 16.0113 12.8639 15.9358C12.8784 15.8889 12.8113 15.9231 12.7864 15.9075C12.7905 15.8409 12.8143 15.7892 12.8747 15.7549C12.9088 15.7356 12.9266 15.7084 12.8765 15.6813C12.8376 15.6604 12.8576 15.6355 12.8769 15.6143C12.9525 15.5317 12.9555 15.4338 12.9266 15.3348C12.9151 15.2957 12.9255 15.2764 12.9437 15.2448C12.987 15.1696 13.0482 15.0963 13.0056 14.9973C12.9952 14.9735 13.0045 14.9504 13.0237 14.93C13.083 14.8663 13.093 14.7923 13.0649 14.7112C13.0593 14.6944 13.0538 14.6658 13.0623 14.6583C13.185 14.5478 13.0819 14.3636 13.1958 14.2516C13.1561 14.1567 13.2228 14.0886 13.2443 14.0079C13.2647 13.9316 13.3051 13.8419 13.2799 13.7519C13.2762 13.7389 13.2795 13.7151 13.2884 13.7084C13.3949 13.6317 13.3322 13.5234 13.34 13.4293C13.3422 13.4029 13.324 13.3671 13.3437 13.3493C13.4612 13.2414 13.4386 13.0828 13.4734 12.9508C13.5046 12.8321 13.5491 12.7111 13.5609 12.5917C13.5743 12.4577 13.6025 12.329 13.631 12.1995C13.657 12.0834 13.6803 11.9658 13.7185 11.8538C13.737 11.7995 13.7408 11.7455 13.7485 11.6916C13.7834 11.4415 13.8694 11.2033 13.9154 10.9559C13.9213 10.9232 13.9239 10.8964 13.9076 10.8681C13.9224 10.8454 13.9376 10.8234 13.9651 10.8149C14.0251 10.8287 14.0136 10.8845 14.0148 10.9202C14.024 11.1944 14.0377 11.469 14.0092 11.7433C13.9925 11.901 14.0288 12.0581 14.0207 12.2155C14.0084 12.4525 14.0303 12.6892 14.0322 12.9247C14.0336 13.1245 14.0414 13.3277 14.0225 13.5301C14.0044 13.7251 13.9936 13.9227 14.0166 14.1199C14.0411 14.332 13.994 14.5445 14.0107 14.7569C14.0129 14.7875 14.0084 14.8191 13.9992 14.8489C13.9855 14.8939 13.9784 14.9274 14.0381 14.9508C14.0885 14.9705 14.0881 15.0338 14.0348 15.0569C13.9762 15.0826 13.9825 15.1149 13.9999 15.1581C14.0155 15.1964 14.021 15.2351 14.0092 15.2757C14.0047 15.2906 14.0014 15.3088 14.0092 15.3214C14.0785 15.4338 14.0159 15.5454 14.0132 15.6578C14.011 15.7549 13.9869 15.8599 14.0563 15.9499C14.093 15.9976 14.083 16.0548 14.0537 16.0988C14.0148 16.1568 14.0058 16.2208 14.0084 16.2841C14.0121 16.37 13.9914 16.456 14.0103 16.5419C14.017 16.5725 14.0159 16.6033 14.0021 16.6327C13.9955 16.6469 13.9855 16.6644 13.9925 16.677C14.0726 16.821 13.994 16.9676 13.9992 17.1131C14.0066 17.3152 13.9947 17.5187 14.0511 17.7159C14.0711 17.7859 14.0696 17.8499 14.0325 17.912C14.0084 17.9526 14.0051 17.9883 14.0355 18.0315C14.0807 18.0951 14.0455 18.1651 14.0292 18.2279C14.0132 18.2893 14.011 18.3414 14.0466 18.3954C14.0752 18.4382 14.0781 18.4735 14.0296 18.5145C13.9476 18.5829 13.9491 18.6149 14.0096 18.7094C14.0218 18.7284 14.0292 18.7481 14.0203 18.7705C13.644 19.1534 13.2684 19.5374 12.8903 19.9188C12.8076 20.0021 12.693 19.9977 12.6107 19.9106C12.3908 19.6791 12.1958 19.4284 12.0249 19.159Z" fill="#01A9FE"/>
<path d="M6.86938 8.17107C6.97616 7.95003 7.11779 7.75058 7.26424 7.55634C7.55936 7.16415 7.89192 6.80544 8.26749 6.4884C8.27676 6.48059 8.28789 6.47538 8.29826 6.46906C8.33942 6.50031 8.37464 6.5405 8.43174 6.54571C8.4499 6.5472 8.46584 6.56208 8.47437 6.57883C8.49254 6.61641 8.5311 6.64655 8.52035 6.69567C8.55297 6.68376 8.58004 6.68636 8.61451 6.70274C8.71277 6.74888 8.76875 6.85121 8.86997 6.89139C8.87293 6.89251 8.87591 6.89549 8.87628 6.89772C8.91484 7.04358 9.0494 7.05512 9.15877 7.102C9.21699 7.12694 9.26554 7.16415 9.29151 7.2248C9.30782 7.26313 9.33749 7.2888 9.36641 7.31745C9.43091 7.38034 9.51359 7.41643 9.57142 7.49606C9.61776 7.55969 9.72641 7.57272 9.81168 7.59542C9.83836 7.60248 9.8695 7.60025 9.88879 7.62183C9.9748 7.71784 10.0894 7.7677 10.2006 7.825C10.261 7.8559 10.2977 7.91915 10.3422 7.96974C10.3734 8.00547 10.4008 8.03935 10.4501 8.05013C10.4809 8.05683 10.505 8.07953 10.5239 8.10371C10.5843 8.18074 10.7341 8.15841 10.7374 8.29831C10.8735 8.3065 10.931 8.46018 11.0648 8.47617C11.1074 8.48139 11.1397 8.51638 11.1697 8.54875C11.2324 8.61648 11.2932 8.68791 11.3941 8.70095C11.4189 8.70428 11.4352 8.72661 11.4541 8.74261C11.5234 8.80178 11.5846 8.86578 11.6766 8.90225C11.7518 8.93202 11.8056 9.01312 11.8719 9.06859C11.988 9.16532 12.1255 9.22931 12.2464 9.319C12.2757 9.34059 12.3105 9.35547 12.3372 9.38188C12.4507 9.49389 12.589 9.57388 12.7124 9.67138C12.8481 9.77855 12.9912 9.87417 13.1325 9.97056C13.3946 10.1495 13.6341 10.3605 13.9118 10.5164C13.9392 10.5317 13.9685 10.5451 13.9841 10.5752C13.9782 10.5931 13.9626 10.5927 13.9481 10.5935C13.8818 10.6035 13.8225 10.5749 13.7624 10.5548C13.418 10.4387 13.0724 10.3255 12.7295 10.205C12.5011 10.1246 12.2723 10.0398 12.0421 9.96796C11.9164 9.92889 11.8041 9.8485 11.6621 9.84366C11.5794 9.84106 11.4919 9.79344 11.4163 9.74393C11.3688 9.71305 11.3166 9.68068 11.2639 9.68031C11.0815 9.6792 10.9313 9.57873 10.7656 9.52848C10.6833 9.50356 10.6047 9.46523 10.5154 9.47008C10.5065 9.47045 10.4961 9.46897 10.4883 9.46486C10.3437 9.38821 10.1817 9.35399 10.0363 9.28104C9.98259 9.25389 9.93105 9.22039 9.87396 9.22783C9.76755 9.24197 9.6997 9.16087 9.61 9.13369C9.5047 9.10207 9.39088 9.095 9.29595 9.02912C9.27259 9.01312 9.24256 9.01649 9.21477 9.02168C9.18621 9.02727 9.15803 9.02541 9.13876 9.00086C9.11058 8.9655 9.17027 8.96142 9.16249 8.92495C9.10131 8.94428 9.05014 8.91788 9.00195 8.88177C8.98192 8.86652 8.95561 8.84867 8.9341 8.85833C8.8036 8.91825 8.6972 8.78057 8.57114 8.8163C8.51886 8.74968 8.39169 8.81479 8.36611 8.69983C8.36426 8.69162 8.35277 8.68381 8.34424 8.68458C8.22819 8.69276 8.15664 8.59971 8.0621 8.55953C8.02354 8.54316 7.98721 8.53757 7.94568 8.54801C7.84669 8.57219 7.84076 8.56734 7.81035 8.4628C7.74214 8.51935 7.68059 8.50632 7.62387 8.44566C7.5994 8.41963 7.56788 8.40771 7.53266 8.40548C7.48483 8.40289 7.44294 8.38426 7.40401 8.35823C7.39882 8.35489 7.39363 8.34856 7.38844 8.34856C7.25052 8.35153 7.16562 8.20789 7.02436 8.2157C7.00026 8.21721 6.9769 8.21906 6.9528 8.22277C6.91314 8.2291 6.8705 8.2321 6.86938 8.17107Z" fill="#01D3FE"/>
<path d="M6.86924 8.171C6.90038 8.20299 6.93115 8.23873 6.97231 8.18215C6.97713 8.17582 6.99159 8.168 6.99455 8.17026C7.075 8.23165 7.21144 8.18104 7.26186 8.30383C7.26557 8.31239 7.28819 8.32282 7.28967 8.32094C7.3653 8.23684 7.39682 8.34512 7.44835 8.35964C7.47393 8.36671 7.49766 8.38197 7.52621 8.38086C7.57812 8.379 7.6189 8.395 7.65338 8.43966C7.69231 8.48951 7.74199 8.50662 7.78759 8.4404C7.7976 8.42588 7.80946 8.40541 7.8306 8.41285C7.85581 8.42178 7.85655 8.44747 7.85099 8.46829C7.8243 8.56505 7.87138 8.55464 7.93255 8.52709C8.05008 8.47388 8.12053 8.57434 8.20543 8.61826C8.24732 8.63985 8.27958 8.67036 8.33 8.65248C8.37375 8.63685 8.39488 8.66292 8.40267 8.69902C8.40638 8.71613 8.39896 8.7485 8.41527 8.74702C8.4809 8.74031 8.53503 8.76264 8.59509 8.78571C8.6533 8.80804 8.73078 8.77642 8.78195 8.83445C8.80753 8.86348 8.83089 8.86833 8.86203 8.85045C8.92767 8.81249 8.98253 8.82441 9.03666 8.87799C9.05817 8.89921 9.09411 8.93009 9.12636 8.90888C9.16864 8.88096 9.20089 8.88581 9.21314 8.92895C9.22871 8.98254 9.17197 8.96768 9.14602 8.98291C9.15901 9.00413 9.18052 9.01827 9.19941 9.00413C9.24797 8.96842 9.29321 8.99335 9.32844 9.01605C9.43448 9.08489 9.56052 9.08303 9.6736 9.12432C9.67917 9.12618 9.68918 9.12321 9.69139 9.12618C9.7637 9.23446 9.88753 9.17454 9.97541 9.21586C10.0399 9.24601 10.0996 9.28989 10.17 9.31148C10.275 9.34385 10.3728 9.39932 10.4744 9.43242C10.5756 9.46516 10.6887 9.4659 10.7888 9.51355C10.8789 9.55633 10.9857 9.55744 11.065 9.62816C11.0921 9.65235 11.1299 9.6449 11.1633 9.64416C11.2612 9.64191 11.3442 9.67727 11.4299 9.72452C11.527 9.77811 11.6271 9.83765 11.7465 9.83058C11.7587 9.82984 11.7773 9.82573 11.7825 9.83206C11.864 9.92694 11.9945 9.9035 12.092 9.96193C12.138 9.98948 12.194 10.001 12.247 10.0148C12.5473 10.0948 12.8324 10.2194 13.129 10.3109C13.4038 10.3958 13.6762 10.4937 13.9473 10.5934C13.945 10.5993 13.9428 10.6049 13.9406 10.6109C13.6266 10.583 13.3125 10.5525 12.9982 10.5275C12.7861 10.5104 12.5747 10.4877 12.3634 10.4695C12.2407 10.4587 12.1195 10.4553 12.0019 10.4163C11.9871 10.4114 11.9678 10.4021 11.9586 10.4152C11.9 10.4978 11.8288 10.446 11.7684 10.4274C11.6931 10.404 11.6156 10.382 11.5403 10.3612C11.4799 10.3445 11.405 10.3824 11.3368 10.395C11.2471 10.4118 11.1681 10.366 11.0806 10.3742C11.0506 10.3772 11.0102 10.3567 10.9705 10.3679C10.939 10.3765 10.9101 10.3649 10.8871 10.34C10.8719 10.3236 10.8474 10.3043 10.8311 10.3199C10.7625 10.3854 10.6572 10.3616 10.6161 10.337C10.5267 10.2842 10.4466 10.2745 10.3495 10.2793C10.3117 10.2812 10.2713 10.2678 10.2275 10.2756C10.1597 10.2875 10.1092 10.206 10.0299 10.2403C10.0481 10.3002 10.0299 10.3322 9.95353 10.3017C9.90719 10.2831 9.83562 10.3195 9.81894 10.238C9.74515 10.2905 9.67324 10.1554 9.59723 10.2365C9.57535 10.26 9.54162 10.2511 9.52233 10.2291C9.4634 10.1617 9.37589 10.1573 9.3025 10.1219C9.26505 10.1037 9.2376 10.1111 9.22314 10.1539C9.20572 10.2057 9.18569 10.2206 9.12193 10.1979C9.0526 10.1729 8.96472 10.2038 8.90616 10.1335C8.90468 10.1316 8.89948 10.1305 8.89763 10.132C8.8409 10.1699 8.78084 10.2298 8.76119 10.0992C8.75933 10.0862 8.72003 10.0996 8.71039 10.1208C8.68703 10.1722 8.64143 10.174 8.60028 10.1643C8.54985 10.1525 8.50685 10.132 8.46496 10.1874C8.44456 10.2146 8.42676 10.1878 8.42862 10.1625C8.43641 10.0486 8.38747 10.084 8.33482 10.1253C8.32555 10.1327 8.31258 10.1465 8.30553 10.1443C8.20765 10.1123 8.08827 10.1744 8.00485 10.0732C7.98038 10.0434 7.94071 10.0144 7.91847 10.0844C7.91068 10.1093 7.88139 10.1156 7.85877 10.1245C7.84172 10.1312 7.81984 10.1346 7.80835 10.1163C7.79871 10.1007 7.81466 10.0896 7.82541 10.0784C7.87991 10.0215 7.84098 10.0047 7.7887 10.0017C7.75126 9.99951 7.71937 9.97793 7.67859 10.0319C7.63039 10.0959 7.52695 10.0832 7.46763 10.0393C7.40015 9.98948 7.3464 10.001 7.29041 10.0334C7.19476 10.0884 7.11356 10.0721 7.02532 10.014C6.9775 9.9824 6.92374 9.92657 6.85218 9.99244C6.82845 10.0144 6.79249 9.97793 6.77062 9.94927C6.75505 9.92882 6.73651 9.89494 6.70499 9.92175C6.67311 9.94853 6.68683 9.97756 6.71834 9.99652C6.74207 10.0107 6.76024 10.0244 6.74021 10.0542C6.72094 10.0832 6.69832 10.0691 6.67533 10.0594C6.61082 10.0323 6.5478 10.0122 6.49218 10.0806C6.47513 10.1015 6.45103 10.0903 6.43768 10.0706C6.42322 10.049 6.42619 10.0293 6.45399 10.0196C6.47884 10.011 6.50145 9.99951 6.49663 9.96863C6.49181 9.93923 6.46215 9.95001 6.44436 9.94071C6.37539 9.90501 6.30532 9.89383 6.2308 9.92064C6.21115 9.92771 6.19484 9.92064 6.18372 9.90239C6.22709 9.6408 6.31719 9.39298 6.40691 9.14517C6.53 8.80394 6.68015 8.47798 6.86924 8.171Z" fill="#01D6FE"/>
<path d="M13.9835 10.5748C13.9513 10.5763 13.9339 10.5477 13.9079 10.5365C13.688 10.2987 13.4793 10.0509 13.2684 9.80496C13.2339 9.76475 13.1975 9.72757 13.1593 9.69183C13.0778 9.61518 13.0192 9.52067 12.9499 9.4347C12.8279 9.28438 12.6829 9.15414 12.5602 9.00454C12.4456 8.86501 12.3255 8.73032 12.2024 8.60009C12.086 8.47692 11.9744 8.35187 11.8788 8.21234C11.868 8.19634 11.8528 8.1863 11.8361 8.17812C11.7664 8.14387 11.7168 8.09217 11.6945 8.01588C11.6838 7.97904 11.6619 7.94816 11.6292 7.92842C11.561 7.88713 11.4865 7.85476 11.4798 7.75689C11.478 7.72898 11.4391 7.7234 11.4153 7.70963C11.3389 7.66498 11.2518 7.62926 11.2466 7.52023C11.2459 7.50795 11.2392 7.49493 11.2285 7.48898C11.0761 7.40339 11.0316 7.23594 10.94 7.10422C10.9233 7.0804 10.9067 7.05994 10.8788 7.05138C10.8162 7.03166 10.7839 6.96245 10.7065 6.95798C10.6627 6.95538 10.6308 6.90216 10.6171 6.8497C10.5997 6.78272 10.5708 6.72169 10.5033 6.68858C10.4569 6.66588 10.4566 6.61788 10.4499 6.5762C10.4417 6.52523 10.4221 6.49136 10.3687 6.4776C10.3016 6.46011 10.2679 6.41099 10.2586 6.34327C10.2519 6.29452 10.2423 6.26736 10.1759 6.28373C10.0847 6.30643 10.0146 6.2387 10.0228 6.13749C10.0306 6.04484 9.99498 5.9987 9.91008 5.97674C9.83371 5.95702 9.76807 5.93097 9.76401 5.82827C9.76177 5.77022 9.71988 5.72334 9.64982 5.71218C9.61311 5.70622 9.55639 5.70399 9.57529 5.63627C10.1062 5.37096 10.6653 5.19346 11.2489 5.09188C11.4424 5.05802 11.6367 5.02937 11.8332 5.02118C11.8862 5.0889 11.8728 5.17709 11.9032 5.25226C11.9118 5.27384 11.9062 5.30249 11.9285 5.31849C11.9833 5.35831 12.0067 5.40891 11.9996 5.47812C11.9948 5.52761 12.0382 5.54585 12.0756 5.55999C12.1346 5.58231 12.1305 5.62436 12.1435 5.67869C12.1694 5.78771 12.1383 5.91534 12.2288 6.00651C12.2532 6.03144 12.2488 6.05303 12.2399 6.08168C12.2136 6.16875 12.2154 6.17061 12.3022 6.16466C12.3466 6.16168 12.3489 6.18959 12.3385 6.21824C12.2933 6.34327 12.3314 6.42327 12.4471 6.49285C12.5246 6.53974 12.5339 6.64318 12.5131 6.72877C12.4964 6.79835 12.4942 6.84151 12.5736 6.86012C12.6021 6.86682 12.6214 6.88765 12.6229 6.92003C12.6251 6.96468 12.5788 6.95166 12.5595 6.97212C12.5765 7.0138 12.5995 7.04989 12.6288 7.08226C12.6433 7.09827 12.6637 7.11464 12.6629 7.13622C12.6588 7.23929 12.7085 7.31706 12.7715 7.39186C12.7949 7.41976 12.8045 7.45846 12.8116 7.49493C12.8498 7.6888 12.9295 7.86591 13.0288 8.03522C13.04 8.05421 13.0503 8.0728 13.0514 8.09513C13.0544 8.16731 13.0715 8.23096 13.1152 8.2931C13.1482 8.33998 13.1401 8.40697 13.1656 8.46537C13.2068 8.55951 13.2672 8.64919 13.2776 8.75636C13.2802 8.78465 13.295 8.8092 13.3102 8.83227C13.3673 8.91711 13.4044 9.00791 13.4307 9.10875C13.493 9.34726 13.6068 9.56793 13.6958 9.79715C13.7681 9.98394 13.8452 10.1689 13.9135 10.3575C13.9353 10.4186 13.9609 10.4781 13.9913 10.5358C13.9935 10.5503 13.9906 10.5637 13.9824 10.5756L13.9835 10.5748Z" fill="#01CEFE"/>
<path d="M6.81885 14.5504C6.85259 14.5456 6.89559 14.566 6.91302 14.515C6.91561 14.508 6.92859 14.4972 6.93267 14.4987C7.05576 14.5452 7.0869 14.4231 7.15846 14.3759C7.1655 14.3711 7.17848 14.3651 7.1833 14.3684C7.26894 14.4258 7.29341 14.3692 7.31306 14.3003C7.31973 14.2776 7.34235 14.259 7.36089 14.2616C7.47508 14.278 7.51883 14.2125 7.54515 14.1165C7.55405 14.0849 7.57481 14.0745 7.61596 14.0916C7.69605 14.1243 7.78948 14.0663 7.85658 14.0112C7.90107 13.9744 7.93259 13.8616 8.0338 13.9316C8.05716 13.9476 8.0794 13.923 8.0972 13.9059C8.12352 13.8802 8.14614 13.8464 8.18358 13.8382C8.24587 13.8244 8.28035 13.8036 8.23586 13.7351C8.21807 13.7079 8.24031 13.6934 8.26589 13.6979C8.39417 13.7199 8.49613 13.6648 8.58697 13.5852C8.62515 13.5517 8.66074 13.5323 8.71302 13.5241C8.78161 13.5133 8.84316 13.4743 8.89507 13.4218C8.96513 13.3507 9.04262 13.2812 9.13866 13.2555C9.20946 13.2365 9.2647 13.1818 9.3396 13.1781C9.34775 13.1777 9.35591 13.1639 9.36295 13.1647C9.44527 13.1747 9.50124 13.1349 9.55204 13.0754C9.58688 13.0348 9.6147 12.9712 9.68959 13.0035C9.71664 12.9027 9.83567 12.944 9.86976 12.9009C9.92872 12.8264 9.99433 12.7888 10.0777 12.765C10.0807 12.7643 10.0848 12.7624 10.0855 12.7602C10.1315 12.637 10.2598 12.6385 10.351 12.5838C10.3562 12.5805 10.3644 12.5742 10.3669 12.5756C10.4429 12.6251 10.4756 12.5496 10.5123 12.5165C10.5946 12.442 10.7092 12.4633 10.7981 12.403C10.8541 12.365 10.8856 12.3014 10.9646 12.2832C11.1585 12.2385 11.2794 12.0391 11.4892 12.0171C11.5089 12.0153 11.5315 12.0011 11.5448 11.9859C11.6664 11.8467 11.8355 11.7935 11.996 11.7191C12.1336 11.6551 12.2667 11.575 12.3979 11.4962C12.5295 11.4165 12.6723 11.3566 12.8013 11.2751C12.9915 11.1553 13.1965 11.0638 13.3889 10.9484C13.5113 10.8751 13.6244 10.778 13.7741 10.7598C13.5925 10.9417 13.4005 11.1114 13.2025 11.2751C13.1161 11.3101 13.0353 11.3514 12.9911 11.4411C12.9737 11.4768 12.9325 11.485 12.9044 11.5081C12.7283 11.6543 12.5596 11.8106 12.3612 11.9278C12.3423 11.939 12.3282 11.9565 12.3189 11.9762C12.2897 12.0398 12.2418 12.0733 12.1736 12.0923C12.0969 12.1135 12.0461 12.1764 12.0005 12.2396C11.9664 12.2869 11.9285 12.3237 11.8652 12.3222C11.8214 12.3215 11.7962 12.3487 11.7866 12.3877C11.7706 12.4521 11.7254 12.4871 11.6679 12.5068C11.6001 12.5299 11.5574 12.6088 11.4718 12.5939C11.4529 12.5905 11.4369 12.6132 11.444 12.6333C11.4662 12.697 11.4214 12.72 11.3817 12.7509C11.3268 12.7941 11.2719 12.835 11.2419 12.9061C11.2115 12.9779 11.1511 12.9682 11.0855 12.889C11.0595 12.9076 11.074 12.9336 11.0736 12.9567C11.0732 12.979 11.0721 13.0132 11.0554 13.0155C10.955 13.0285 10.9249 13.1446 10.8297 13.1639C10.7577 13.1788 10.7173 13.2369 10.6788 13.2931C10.655 13.3273 10.6324 13.3552 10.5879 13.3641C10.4978 13.3827 10.4526 13.4352 10.45 13.5279C10.4485 13.5751 10.4322 13.6064 10.387 13.5926C10.338 13.5777 10.3388 13.6079 10.3273 13.6358C10.3117 13.6745 10.2887 13.7035 10.2446 13.6678C10.2098 13.6399 10.1868 13.6592 10.1682 13.6864C10.1363 13.7321 10.1037 13.7772 10.0689 13.8203C10.0285 13.8698 9.97802 13.907 9.90869 13.8814C9.86865 13.8665 9.84382 13.8847 9.82083 13.9126C9.78412 13.9576 9.74926 13.9937 9.68661 14.0149C9.63731 14.0317 9.59614 14.0849 9.53386 14.0927C9.52014 14.0946 9.50681 14.1132 9.5057 14.1273C9.49235 14.2743 9.35517 14.3093 9.27101 14.3922C9.20909 14.4533 9.12936 14.5017 9.12826 14.6077C9.12752 14.6743 9.0708 14.6966 9.01631 14.6918C8.93178 14.684 8.87171 14.6996 8.84872 14.7934C8.8387 14.8343 8.80645 14.8455 8.77086 14.815C8.73008 14.7804 8.70004 14.7982 8.68336 14.838C8.60439 15.026 8.43792 15.1089 8.2696 15.1897C8.24216 15.2027 8.23957 15.2261 8.2277 15.2466C8.18766 15.3151 8.14429 15.3772 8.05123 15.3746C8.01378 15.3735 7.98227 15.3921 7.98301 15.4341C7.98486 15.5298 7.92443 15.5446 7.84731 15.5428C7.86363 15.567 7.88439 15.5849 7.89514 15.6102C7.91145 15.6489 7.91998 15.6887 7.8944 15.7251C7.86696 15.7646 7.8221 15.7702 7.77872 15.7716C7.75129 15.7724 7.72941 15.7605 7.73757 15.7262C7.74387 15.6995 7.7828 15.6716 7.74165 15.6459C7.7068 15.6243 7.67009 15.6362 7.6371 15.657C7.62931 15.6619 7.62078 15.666 7.61189 15.6686C7.3594 15.4014 7.14882 15.1022 6.95565 14.7908C6.90671 14.7123 6.86408 14.6304 6.81885 14.5504Z" fill="#01DDFE"/>
<path d="M18.0047 14.2735C17.8249 14.6676 17.588 15.0263 17.324 15.3675C17.1846 15.5472 17.0408 15.7236 16.8736 15.8788C16.8469 15.8583 16.8239 15.8345 16.7887 15.8256C16.7479 15.8152 16.7227 15.7817 16.7019 15.7463C16.6548 15.6663 16.6645 15.6395 16.7635 15.5993C16.7145 15.5867 16.676 15.5707 16.6619 15.5245C16.6556 15.5037 16.6426 15.4855 16.6226 15.4747C16.5147 15.417 16.4683 15.3195 16.4565 15.2046C16.4446 15.0907 16.3712 15.0159 16.3049 14.9352C16.2618 14.8827 16.2144 14.8313 16.2396 14.7539C16.2407 14.7502 16.2404 14.7461 16.2303 14.745C16.2092 14.7428 16.1892 14.7323 16.1907 14.7137C16.2014 14.5872 16.075 14.5489 16.0301 14.4581C16.0123 14.4224 15.9949 14.3922 15.9879 14.3502C15.9712 14.2468 15.9226 14.1548 15.8477 14.0793C15.837 14.0685 15.8136 14.0622 15.814 14.0495C15.8188 13.9141 15.6835 13.8549 15.6505 13.7374C15.6115 13.5989 15.5036 13.4921 15.4484 13.3615C15.398 13.2421 15.3316 13.1323 15.2705 13.0195C15.1952 12.88 15.1585 12.723 15.0473 12.5983C14.9512 12.4908 14.9227 12.3375 14.8356 12.2192C14.7911 12.1589 14.734 12.0993 14.7521 12.0115C14.754 12.003 14.7484 11.9933 14.7425 11.9862C14.5723 11.7871 14.4919 11.5352 14.3532 11.3183C14.2349 11.133 14.1519 10.9287 14.0385 10.7411C14.0588 10.7259 14.0637 10.6943 14.0929 10.6879C14.2353 10.7717 14.3499 10.89 14.4663 11.0035C14.6279 11.1609 14.8222 11.2811 14.9716 11.45C15.0929 11.5873 15.2508 11.6829 15.3668 11.824C15.4388 11.9111 15.5552 11.9412 15.6253 12.0312C15.6594 12.0748 15.7042 12.1094 15.7291 12.1607C15.7428 12.1894 15.7673 12.208 15.7954 12.2229C15.9248 12.2913 16.0527 12.3594 16.1147 12.5071C16.1317 12.5477 16.1699 12.5868 16.2125 12.6028C16.3093 12.6396 16.3764 12.707 16.4342 12.7885C16.4791 12.8517 16.5436 12.8867 16.6174 12.9057C16.6712 12.9195 16.7064 12.947 16.7034 13.0084C16.7023 13.0348 16.7119 13.0568 16.7353 13.0709C16.8191 13.1215 16.8725 13.2008 16.9277 13.2782C16.9399 13.2953 16.9511 13.3247 16.9752 13.3113C17.0708 13.2584 17.1127 13.3362 17.1554 13.3902C17.1935 13.4385 17.2236 13.4918 17.2788 13.5241C17.2947 13.5334 17.3092 13.5509 17.307 13.5695C17.3014 13.6172 17.3274 13.6186 17.3619 13.6138C17.3741 13.6119 17.3871 13.6134 17.3982 13.6186C17.4386 13.6361 17.5001 13.6339 17.5042 13.692C17.5079 13.747 17.4412 13.7236 17.4149 13.7518C17.5128 13.7374 17.588 13.7756 17.6525 13.8441C17.7263 13.9223 17.793 14.0093 17.8872 14.0644C17.9699 14.1124 17.9925 14.1891 18.0047 14.2735Z" fill="#01B0FE"/>
<path d="M9.57534 5.63586C9.58014 5.682 9.61463 5.6887 9.64947 5.68796C9.73809 5.68573 9.78963 5.75791 9.78739 5.81522C9.78296 5.92759 9.86155 5.94062 9.92568 5.9581C10.0262 5.98527 10.0603 6.03439 10.0421 6.13746C10.0258 6.229 10.1174 6.29412 10.1989 6.25281C10.256 6.22416 10.2764 6.25728 10.2768 6.29933C10.2775 6.40463 10.3243 6.46082 10.4292 6.46826C10.4637 6.47086 10.4603 6.4984 10.4648 6.52296C10.4766 6.58808 10.4685 6.65766 10.5567 6.69078C10.5971 6.70603 10.6275 6.76855 10.6331 6.8225C10.6394 6.88465 10.685 6.91367 10.7247 6.94902C10.7291 6.95311 10.7369 6.96167 10.7373 6.9613C10.8511 6.86864 10.8325 7.08074 10.926 7.04465C10.9442 7.03758 10.9564 7.07479 10.9653 7.09935C11.0061 7.21135 11.1002 7.29136 11.1473 7.40075C11.1585 7.42643 11.1859 7.44987 11.2207 7.45136C11.2556 7.45285 11.2745 7.47964 11.2738 7.50569C11.2711 7.62625 11.3609 7.65862 11.4465 7.69509C11.4921 7.71444 11.531 7.73379 11.5147 7.79593C11.5029 7.8417 11.5429 7.85324 11.5718 7.86701C11.6504 7.90383 11.7135 7.94886 11.7287 8.04561C11.7335 8.0765 11.7683 8.11482 11.7984 8.12749C11.9218 8.17882 11.9678 8.29194 12.0297 8.39463C12.056 8.43818 12.0998 8.47873 12.1395 8.50217C12.2028 8.54013 12.2592 8.59819 12.2837 8.64767C12.346 8.77383 12.4639 8.8423 12.5473 8.94424C12.6325 9.04805 12.706 9.16602 12.8168 9.24901C12.8891 9.30296 12.9458 9.37588 12.9929 9.44994C13.1056 9.6278 13.2684 9.75989 13.3993 9.92064C13.5579 10.116 13.7274 10.3028 13.8916 10.4937C13.9009 10.5045 13.9027 10.5216 13.9079 10.5357C13.75 10.4527 13.6069 10.3475 13.4656 10.2395C13.2524 10.0765 13.0263 9.93293 12.8079 9.77737C12.6841 9.6892 12.5491 9.61106 12.4398 9.51059C12.3352 9.41421 12.221 9.33755 12.1072 9.25719C11.9863 9.17198 11.8543 9.10277 11.7502 8.99409C11.6534 8.89289 11.4984 8.86611 11.4206 8.73847C11.4139 8.72731 11.3946 8.71688 11.3816 8.71725C11.2738 8.72024 11.2237 8.6354 11.1614 8.57138C11.1306 8.53976 11.1024 8.50143 11.0591 8.49624C10.9679 8.48543 10.9108 8.42478 10.8489 8.3686C10.8292 8.35075 10.7984 8.32579 10.7784 8.3299C10.6924 8.34812 10.6928 8.2912 10.6861 8.23614C10.6835 8.21455 10.6924 8.17249 10.6546 8.18663C10.5756 8.21566 10.543 8.16504 10.5052 8.11557C10.4941 8.10105 10.4796 8.08058 10.4648 8.07872C10.3454 8.06495 10.3105 7.95407 10.2397 7.88486C10.2038 7.84988 10.1259 7.83946 10.1218 7.83202C10.071 7.74532 9.94943 7.7576 9.90567 7.66904C9.88564 7.62811 9.84819 7.6229 9.80557 7.61657C9.71138 7.60206 9.58719 7.57974 9.54789 7.51536C9.48487 7.41192 9.37809 7.3814 9.30615 7.30215C9.27205 7.26456 9.2791 7.20019 9.2335 7.17638C9.15527 7.13507 9.09112 7.05656 8.98397 7.08446C8.93836 7.09637 8.92762 7.0439 8.91353 7.01265C8.88276 6.9453 8.86313 6.86939 8.76635 6.87162C8.7593 6.87162 8.7467 6.86269 8.74558 6.85599C8.73187 6.78529 8.67514 6.76408 8.61916 6.74101C8.59135 6.72985 8.55761 6.63682 8.53982 6.74846C8.53796 6.76111 8.51461 6.76594 8.4994 6.75701C8.48383 6.74808 8.4842 6.73208 8.48569 6.71608C8.49496 6.62082 8.46567 6.57729 8.3778 6.55905C8.32812 6.54863 8.31106 6.51142 8.29883 6.46863C8.68552 6.13188 9.11336 5.85727 9.57534 5.63586Z" fill="#01D1FE"/>
<path d="M7.61145 15.6686C7.65075 15.6098 7.7249 15.5904 7.7731 15.6269C7.83946 15.6775 7.75753 15.7073 7.75011 15.7571C7.80202 15.7441 7.8643 15.7575 7.88321 15.7054C7.91547 15.6165 7.83687 15.5696 7.7857 15.5171C7.80387 15.4918 7.81907 15.5037 7.8365 15.5101C7.91769 15.5395 7.94995 15.5164 7.95254 15.433C7.9544 15.3787 7.98109 15.3441 8.0393 15.35C8.14867 15.3609 8.18871 15.2879 8.21467 15.2027C8.22282 15.1755 8.24062 15.1454 8.25693 15.1543C8.32552 15.1927 8.34628 15.1279 8.38706 15.1045C8.44045 15.0736 8.47308 15.0208 8.54167 15.0003C8.60173 14.9824 8.62954 14.8976 8.6592 14.8317C8.68404 14.7763 8.71703 14.7048 8.78636 14.8023C8.81269 14.8392 8.82974 14.8086 8.83234 14.7826C8.84236 14.6732 8.90759 14.6579 9.00102 14.6687C9.05961 14.6758 9.11598 14.6695 9.10893 14.5765C9.10151 14.4741 9.19457 14.4209 9.25944 14.3733C9.31876 14.3301 9.35621 14.2523 9.44074 14.2412C9.46188 14.2386 9.45964 14.2066 9.4641 14.185C9.47893 14.1124 9.48745 14.031 9.59719 14.0577C9.60017 14.0585 9.60313 14.0588 9.60611 14.0592C9.61426 13.9476 9.74957 14.0083 9.78702 13.9227C9.80705 13.8769 9.84115 13.7954 9.93235 13.8665C9.96165 13.8892 10.0221 13.8479 10.0521 13.8081C10.0866 13.7623 10.1155 13.7121 10.1504 13.6667C10.1904 13.6142 10.2338 13.571 10.2686 13.6681C10.2979 13.6663 10.2998 13.6447 10.3094 13.6298C10.328 13.6004 10.2816 13.4739 10.3921 13.5766C10.4143 13.5974 10.4377 13.5692 10.4281 13.5301C10.4073 13.4456 10.4811 13.3478 10.5682 13.3429C10.6086 13.3407 10.629 13.3273 10.6531 13.2901C10.7002 13.2179 10.7465 13.1338 10.8544 13.136C10.8678 13.1364 10.8937 13.1238 10.8934 13.1182C10.8885 13.0188 10.9593 13.0296 11.0235 13.0177C11.065 13.0103 11.0587 12.9667 11.0461 12.9321C11.0324 12.8949 11.0409 12.8581 11.0765 12.8469C11.118 12.8339 11.1243 12.8663 11.124 12.9027C11.1236 12.9306 11.1506 12.9318 11.1725 12.9329C11.1951 12.9336 11.2163 12.9306 11.2226 12.9031C11.2463 12.8019 11.3275 12.7554 11.4076 12.7088C11.4306 12.6955 11.442 12.6821 11.4272 12.6583C11.3638 12.5574 11.4528 12.5649 11.5014 12.5649C11.5444 12.5649 11.5652 12.5649 11.5822 12.5184C11.5959 12.4804 11.6501 12.4957 11.6845 12.4748C11.7242 12.451 11.7535 12.4331 11.7627 12.3833C11.7739 12.3241 11.8039 12.2802 11.8784 12.2988C11.9218 12.3096 11.9478 12.2761 11.9689 12.2463C12.0338 12.1552 12.0975 12.0651 12.2232 12.0554C12.2362 12.0543 12.2533 12.0417 12.2596 12.0294C12.3489 11.8619 12.5191 11.7946 12.6648 11.6967C12.6826 11.6848 12.7097 11.6737 12.7145 11.6569C12.7367 11.5754 12.8005 11.5404 12.8687 11.5148C12.9748 11.4753 12.9881 11.3406 13.0949 11.3023C13.1305 11.2893 13.1598 11.2562 13.2031 11.274C13.1119 11.3533 13.0211 11.4336 12.9292 11.5118C12.8595 11.571 12.796 11.6372 12.7286 11.699C12.5806 11.8348 12.4312 11.9702 12.2814 12.1035C12.1387 12.2303 12.0063 12.3695 11.8514 12.4826C11.7876 12.5291 11.739 12.5924 11.6767 12.6426C11.5348 12.7572 11.3942 12.877 11.2715 13.0114C10.7621 13.5688 10.3513 14.1895 10.0933 14.9061C9.86339 15.5439 9.75588 16.2014 9.76145 16.8787C9.76182 16.9274 9.76775 16.9769 9.74661 17.0249C9.69843 17.1336 9.58236 17.183 9.47893 17.1298C8.76931 16.7644 8.14867 16.2837 7.61998 15.6842C7.61553 15.6805 7.61405 15.6738 7.61145 15.6686Z" fill="#00DFFE"/>
<path d="M13.9821 10.5365C13.9217 10.5011 13.9202 10.4319 13.8968 10.3772C13.8375 10.2388 13.7674 10.1015 13.7289 9.95859C13.6796 9.77663 13.5772 9.61924 13.5261 9.43801C13.4968 9.33384 13.4267 9.23486 13.41 9.12284C13.3919 8.99968 13.3114 8.90814 13.271 8.79949C13.2425 8.72246 13.2098 8.64618 13.1835 8.56804C13.1672 8.51928 13.1642 8.46458 13.1164 8.43036C13.0979 8.41696 13.0878 8.39426 13.0994 8.37267C13.126 8.32208 13.1027 8.29194 13.063 8.26476C13.0537 8.25846 13.0422 8.24432 13.043 8.23499C13.0541 8.10886 12.9911 8.00543 12.9292 7.9083C12.8743 7.82271 12.8851 7.71257 12.8109 7.63815C12.7894 7.61657 12.7998 7.58531 12.7972 7.55778C12.7879 7.4707 12.7712 7.38698 12.6926 7.33191C12.6685 7.31516 12.6485 7.28539 12.6533 7.26158C12.6767 7.14883 12.5955 7.08334 12.5454 7.00408C12.5317 6.9825 12.5124 6.96278 12.5236 6.93748C12.5425 6.89394 12.5618 6.93785 12.5814 6.93971C12.5892 6.94045 12.6033 6.93785 12.6044 6.93413C12.607 6.92334 12.6077 6.90957 12.6029 6.90027C12.5918 6.87794 12.5688 6.87831 12.5473 6.87496C12.4728 6.86306 12.4461 6.82808 12.4831 6.75254C12.5299 6.65728 12.4843 6.54119 12.3879 6.4969C12.3189 6.46528 12.2707 6.30602 12.3089 6.23718C12.3178 6.22155 12.3237 6.20443 12.3367 6.17541C12.2922 6.18583 12.2707 6.25988 12.2296 6.20927C12.1955 6.16722 12.1795 6.11624 12.2232 6.06638C12.2366 6.05113 12.2444 6.02954 12.2177 6.02322C12.1228 6.00015 12.1483 5.9287 12.155 5.86693C12.1573 5.84535 12.1688 5.82154 12.1517 5.80591C12.0968 5.75604 12.0839 5.70618 12.1272 5.63958C12.1424 5.61613 12.1157 5.60162 12.0887 5.59157C12.0167 5.56516 11.9348 5.5406 11.9815 5.43157C11.9838 5.42636 11.9838 5.41631 11.9804 5.41371C11.9029 5.35455 11.8848 5.26115 11.8455 5.18003C11.8417 5.17221 11.8328 5.167 11.8265 5.16031C11.8873 5.11677 11.8154 5.06616 11.8343 5.0204C11.8766 5.01891 11.9189 5.01742 11.9615 5.01593C12.0416 4.99546 12.1243 5.01891 12.2047 5.00253C12.6934 4.98988 13.1765 5.03193 13.6525 5.14617C13.6258 5.21054 13.6076 5.27157 13.6584 5.33706C13.6851 5.37166 13.6859 5.42711 13.6559 5.45985C13.6065 5.51343 13.601 5.57371 13.6036 5.64479C13.6299 5.66079 13.6766 5.62804 13.6966 5.67418C13.7144 5.71511 13.7085 5.75456 13.6877 5.78991C13.6392 5.87214 13.6714 5.95252 13.6881 6.03326C13.6944 6.0634 13.7029 6.09429 13.7163 6.12145C13.7737 6.2409 13.7022 6.35625 13.7096 6.47383C13.7166 6.58658 13.7018 6.70193 13.7634 6.80575C13.7712 6.81915 13.7782 6.83626 13.7741 6.85041C13.7333 6.98994 13.7804 7.12576 13.7882 7.26344C13.7964 7.4093 13.7915 7.55554 13.7812 7.70141C13.7745 7.79741 13.8053 7.88857 13.8149 7.98273C13.8382 8.2164 13.8575 8.44933 13.8557 8.68377C13.8553 8.75149 13.8583 8.81882 13.8909 8.88247C13.9198 8.93902 13.9057 9.00453 13.9091 9.06518C13.9287 9.42575 13.9473 9.78592 13.9836 10.1454C13.9936 10.2436 14.0107 10.3415 14.0084 10.4408C14.0055 10.4743 14.011 10.5097 13.9821 10.5365Z" fill="#01CAFE"/>
<path d="M14.0392 10.7412C14.1034 10.7717 14.1212 10.838 14.149 10.893C14.2976 11.1907 14.4708 11.4746 14.6265 11.7682C14.6662 11.843 14.6828 11.9331 14.7718 11.9718C14.7785 11.9747 14.7874 11.9889 14.7855 11.9941C14.7392 12.1202 14.8527 12.179 14.8979 12.2661C14.9249 12.3182 14.9528 12.3699 14.9776 12.4231C15.0165 12.5065 15.0543 12.5869 15.1244 12.6535C15.2075 12.7316 15.206 12.8578 15.2697 12.9541C15.3187 13.0282 15.368 13.1123 15.3991 13.1934C15.4403 13.3005 15.5055 13.3924 15.5486 13.4963C15.5534 13.5078 15.5523 13.526 15.56 13.5305C15.6594 13.5893 15.6549 13.7021 15.6961 13.791C15.715 13.8319 15.7484 13.8591 15.7784 13.89C15.8107 13.9235 15.85 13.9528 15.8255 14.0087C15.8203 14.0206 15.8181 14.0384 15.8299 14.0418C15.9464 14.0753 15.9345 14.2007 15.996 14.2725C16.0209 14.3015 16.0357 14.3257 16.0112 14.3611C15.9986 14.3793 16.0042 14.3998 16.0205 14.4102C16.085 14.4522 16.0895 14.5501 16.1747 14.5735C16.1966 14.5795 16.2059 14.6033 16.2103 14.6249C16.2192 14.6647 16.1566 14.7629 16.2804 14.7071C16.2893 14.703 16.3097 14.7279 16.2945 14.7488C16.2463 14.815 16.2519 14.8381 16.3134 14.9118C16.3757 14.9858 16.4613 15.0483 16.4684 15.1559C16.4743 15.2444 16.5144 15.3177 16.5537 15.3933C16.5681 15.4208 16.5815 15.4383 16.613 15.442C16.6549 15.4468 16.6797 15.4725 16.6845 15.5146C16.6894 15.557 16.7127 15.5741 16.7535 15.57C16.7724 15.5682 16.8009 15.5488 16.8024 15.5853C16.8036 15.6087 16.7887 15.6414 16.7613 15.6389C16.64 15.6273 16.7001 15.6928 16.722 15.7341C16.7428 15.7739 16.7665 15.8167 16.8258 15.8082C16.884 15.8 16.864 15.8498 16.8733 15.8777C16.554 16.2205 16.2196 16.5483 15.8896 16.8798C15.8296 16.9401 15.7788 17.0108 15.7039 17.0558C15.6887 17.045 15.6768 17.0283 15.6601 17.022C15.5949 16.997 15.5515 16.9684 15.6212 16.8995C15.636 16.885 15.6268 16.8638 15.6172 16.8474C15.5956 16.8117 15.589 16.7727 15.5849 16.7325C15.5808 16.6934 15.5671 16.661 15.5285 16.6435C15.4718 16.6178 15.4536 16.5706 15.4688 16.5133C15.4859 16.4497 15.4433 16.3842 15.4781 16.3224C15.4807 16.3176 15.4807 16.3068 15.477 16.3046C15.3658 16.2372 15.4377 16.0962 15.3606 16.0143C15.3372 15.9894 15.3305 15.9537 15.3309 15.9187C15.3309 15.8937 15.332 15.8662 15.3046 15.8547C15.2353 15.8256 15.246 15.7661 15.2668 15.7211C15.3224 15.6013 15.259 15.5023 15.2145 15.4052C15.1908 15.3535 15.1619 15.3084 15.1722 15.2507C15.1893 15.1555 15.1504 15.0811 15.0858 15.0182C15.0391 14.9728 15.0239 14.927 15.0643 14.8712C15.0907 14.8351 15.0766 14.8027 15.061 14.767C15.025 14.6852 14.9991 14.6003 14.9798 14.5117C14.9642 14.4403 14.9138 14.3785 14.8879 14.306C14.8612 14.2312 14.8575 14.178 14.9142 14.1229C14.9227 14.1147 14.9279 14.1028 14.9249 14.0894C14.8267 14.0965 14.8215 14.0905 14.8315 13.9845C14.8334 13.9655 14.836 13.9462 14.823 13.9313C14.7919 13.8963 14.7818 13.8576 14.79 13.8114C14.7944 13.7862 14.7837 13.7608 14.7659 13.7433C14.7325 13.7106 14.7433 13.6701 14.7344 13.6336C14.6984 13.4847 14.7281 13.3281 14.6632 13.1822C14.5939 13.0256 14.5375 12.8626 14.5186 12.6892C14.5127 12.636 14.4667 12.5995 14.4526 12.5474C14.4241 12.4399 14.4259 12.3279 14.3929 12.2203C14.3069 11.9372 14.2353 11.6499 14.1593 11.3637C14.1112 11.1818 14.0848 10.9935 14.0125 10.8179C14.0066 10.8052 14.0033 10.7922 14.0047 10.7781C14.0144 10.7647 14.0155 10.7427 14.0392 10.7412Z" fill="#01ADFE"/>
<path d="M18.2788 9.21665C18.4086 9.53108 18.4883 9.86002 18.5535 10.1927C18.6058 10.4591 18.6474 10.7274 18.6518 11.0002C18.6188 11.0392 18.6014 11.1084 18.5454 11.107C18.4516 11.1047 18.3504 11.1148 18.2658 11.0671C18.1794 11.0184 18.1012 10.9853 18.0093 11.0478C17.9826 11.066 17.9481 11.0623 17.9207 11.0459C17.8495 11.0035 17.7664 11.0046 17.6904 10.9808C17.6422 10.9655 17.5922 10.9715 17.5447 10.9868C17.4887 11.005 17.4365 11.008 17.3894 10.9637C17.3731 10.9484 17.3519 10.9454 17.3289 10.9466C17.1369 10.9581 16.9482 10.9484 16.7561 10.9183C16.6234 10.8974 16.4877 10.8707 16.3465 10.8751C16.2063 10.8796 16.0598 10.8606 15.9186 10.8305C15.8348 10.8126 15.7495 10.8364 15.6631 10.8245C15.2093 10.7628 14.7526 10.7244 14.2984 10.6664C14.2569 10.6612 14.1942 10.676 14.1831 10.6046C14.209 10.5756 14.235 10.5466 14.261 10.5179C14.2803 10.4963 14.3058 10.4863 14.3325 10.4774C14.592 10.3895 14.8538 10.3084 15.1152 10.2266C15.3202 10.1622 15.5275 10.1041 15.7295 10.0301C15.9286 9.95715 16.1259 9.88347 16.3316 9.8284C16.4591 9.79418 16.5848 9.73612 16.7168 9.70746C16.7891 9.69183 16.8629 9.68961 16.9159 9.62821C16.9237 9.61928 16.9382 9.61258 16.9493 9.61444C17.0924 9.63714 17.187 9.52364 17.3089 9.48568C17.3456 9.47416 17.376 9.45779 17.4127 9.47601C17.4594 9.49945 17.4939 9.4816 17.5395 9.45964C17.6534 9.40458 17.7609 9.32048 17.9006 9.34355C17.9236 9.34726 17.9422 9.3387 17.9589 9.32271C18.0441 9.24197 18.1605 9.24346 18.2632 9.2081C18.2677 9.20624 18.274 9.21257 18.2788 9.21665Z" fill="#01BAFE"/>
<path d="M14.019 10.7966C14.0661 10.8536 14.0761 10.9242 14.0932 10.9927C14.1499 11.2212 14.2014 11.4512 14.2667 11.677C14.3019 11.798 14.3342 11.9182 14.3524 12.0421C14.3601 12.0945 14.3972 12.1336 14.4113 12.1853C14.4439 12.3033 14.4469 12.4257 14.4773 12.5433C14.4862 12.5775 14.4962 12.6069 14.5222 12.6315C14.5351 12.6437 14.5518 12.6616 14.5511 12.6765C14.5444 12.8644 14.6393 13.0233 14.6912 13.1945C14.7205 13.2916 14.772 13.3909 14.7279 13.4992C14.7168 13.5264 14.7316 13.5468 14.7498 13.5651C14.7654 13.5807 14.7876 13.6068 14.775 13.6205C14.7164 13.6842 14.7895 13.7169 14.805 13.7612C14.815 13.7902 14.8395 13.8121 14.8099 13.8427C14.8036 13.849 14.8021 13.8721 14.8065 13.8754C14.8714 13.9201 14.8825 13.9714 14.8365 14.0373C14.8291 14.0481 14.8421 14.0667 14.8566 14.0749C14.8733 14.0842 14.8862 14.076 14.897 14.0637C14.9126 14.0462 14.9266 14.0138 14.953 14.044C14.9719 14.0659 14.9667 14.0976 14.95 14.1218C14.9378 14.1392 14.9207 14.1534 14.9062 14.1697C14.8962 14.1813 14.8762 14.1977 14.8788 14.2047C14.9081 14.2832 14.9378 14.3621 14.9756 14.4369C14.9841 14.4537 15.0208 14.4611 15.0145 14.4905C14.9919 14.5921 15.0449 14.6769 15.0831 14.7595C15.1087 14.8146 15.125 14.8473 15.0764 14.8931C15.0442 14.9236 15.0475 14.9553 15.0868 14.9858C15.1869 15.0632 15.2166 15.1677 15.1951 15.2898C15.1925 15.3047 15.1854 15.3303 15.1899 15.333C15.2596 15.3705 15.2429 15.4524 15.2789 15.5038C15.3237 15.5681 15.3141 15.6247 15.2985 15.6939C15.2885 15.7378 15.2054 15.8278 15.3426 15.8353C15.3693 15.8368 15.3627 15.8606 15.3563 15.8785C15.3356 15.9387 15.3645 15.9856 15.3964 16.0325C15.4268 16.0771 15.4705 16.1185 15.4157 16.1788C15.3919 16.2048 15.426 16.2197 15.4464 16.2327C15.4991 16.2662 15.5213 16.2926 15.4946 16.3719C15.4765 16.4258 15.4839 16.5088 15.4861 16.5788C15.4865 16.591 15.502 16.6122 15.5132 16.6137C15.6144 16.6279 15.6088 16.7042 15.6099 16.7764C15.6103 16.808 15.6326 16.8255 15.6481 16.8478C15.6693 16.8787 15.6804 16.9103 15.6326 16.9289C15.6151 16.9356 15.5947 16.9441 15.6014 16.9668C15.6081 16.9895 15.6318 16.9821 15.6492 16.9836C15.6941 16.9877 15.7037 17.0175 15.7022 17.0554C15.4275 17.3617 15.1294 17.6452 14.8429 17.9399C14.8217 17.9619 14.7984 17.9812 14.7757 18.002C14.755 17.9831 14.7546 17.9578 14.7576 17.9332C14.7683 17.8409 14.758 17.7553 14.6916 17.6824C14.6597 17.6471 14.6567 17.6028 14.6808 17.5611C14.722 17.49 14.709 17.4249 14.6645 17.3617C14.6504 17.3416 14.6248 17.3136 14.6386 17.2958C14.7086 17.2043 14.6167 17.1023 14.6615 17.01C14.6749 16.9821 14.6504 16.9665 14.6278 16.9531C14.5781 16.9237 14.5681 16.8854 14.6056 16.8381C14.6197 16.8206 14.6263 16.8028 14.6186 16.7782C14.5655 16.6175 14.5614 16.4537 14.5956 16.2885C14.6004 16.2654 14.5967 16.2453 14.587 16.226C14.5414 16.1311 14.5266 16.0247 14.478 15.9305C14.4725 15.9198 14.4628 15.906 14.4665 15.8959C14.5044 15.7929 14.4517 15.6842 14.4869 15.5819C14.4995 15.5454 14.4832 15.5153 14.4788 15.4822C14.4636 15.3683 14.4098 15.2649 14.4157 15.1417C14.4217 15.0178 14.4057 14.8935 14.4154 14.7666C14.4257 14.6293 14.4187 14.4883 14.3694 14.3525C14.3475 14.2922 14.3472 14.2196 14.3468 14.1541C14.3464 14.0782 14.342 14.0068 14.3149 13.9361C14.3093 13.9216 14.306 13.9059 14.3067 13.8907C14.3104 13.7917 14.3271 13.6905 14.2571 13.6045C14.2537 13.6004 14.253 13.5919 14.2548 13.5863C14.2993 13.4657 14.2396 13.3441 14.2608 13.2216C14.2771 13.1275 14.2526 13.0281 14.2318 12.9377C14.194 12.7714 14.1803 12.6024 14.1581 12.435C14.1403 12.3014 14.1462 12.1645 14.1243 12.0298C14.0657 11.6703 14.0491 11.3064 14.015 10.9443C14.0116 10.8964 13.9801 10.8461 14.019 10.7966Z" fill="#00ABFE"/>
<path d="M14.1827 10.605C14.2806 10.6694 14.3959 10.6444 14.5023 10.6642C14.7485 10.7107 15.0003 10.7188 15.2486 10.752C15.4255 10.7758 15.6068 10.8156 15.7818 10.8059C15.9401 10.797 16.0899 10.8331 16.2434 10.8416C16.3709 10.8487 16.5022 10.8461 16.6334 10.8759C16.7231 10.8963 16.8288 10.9425 16.9126 10.9228C17.0546 10.8893 17.194 10.9897 17.3301 10.9105C17.3534 10.8967 17.3883 10.9086 17.4038 10.9347C17.4342 10.9849 17.4706 10.9842 17.521 10.9663C17.6604 10.9172 17.7898 10.9674 17.9162 11.0199C17.9526 11.0351 17.9811 11.0485 18.0156 11.0169C18.0679 10.9685 18.2147 10.9678 18.2532 11.0247C18.2799 11.0642 18.3129 11.0705 18.3455 11.069C18.4008 11.0664 18.4542 11.0671 18.5064 11.0872C18.5461 11.1025 18.5743 11.0876 18.5851 11.0485C18.5951 11.0124 18.6151 10.9968 18.6514 11.0002C18.6814 11.2465 18.6737 11.4943 18.6625 11.741C18.6496 12.0309 18.6251 12.3208 18.5572 12.6043C18.5298 12.5868 18.5183 12.5567 18.5024 12.531C18.4646 12.47 18.4271 12.4149 18.3411 12.451C18.314 12.4625 18.2951 12.4417 18.2796 12.4212C18.2076 12.3282 18.1201 12.2683 17.9956 12.2839C17.9637 12.288 17.934 12.2743 17.9103 12.2538C17.8524 12.2039 17.7835 12.1808 17.7119 12.1596C17.5121 12.1005 17.3267 12.0063 17.1369 11.9222C17.0379 11.8783 16.943 11.8065 16.8229 11.8136C16.7736 11.8166 16.7465 11.7645 16.702 11.7496C16.56 11.7016 16.4206 11.6454 16.2849 11.584C16.1399 11.5185 15.9835 11.475 15.8519 11.3801C15.8393 11.3711 15.8267 11.3604 15.8115 11.3577C15.51 11.3072 15.2475 11.1486 14.9654 11.0456C14.7352 10.9615 14.5072 10.8636 14.2832 10.7601C14.2495 10.7445 14.2161 10.7289 14.1787 10.7252C14.1538 10.7188 14.1331 10.7073 14.1234 10.6816C14.1242 10.6411 14.1568 10.6255 14.1827 10.605Z" fill="#01B6FE"/>
<path d="M14.0192 10.7966C14.0188 10.9201 14.0359 11.0425 14.0585 11.1627C14.0852 11.3052 14.0893 11.4511 14.1004 11.5932C14.1152 11.7864 14.1467 11.9765 14.1675 12.1681C14.1879 12.3553 14.1916 12.5432 14.2264 12.7304C14.2546 12.8837 14.308 13.0452 14.2865 13.1944C14.2687 13.3161 14.3521 13.4333 14.2806 13.549C14.2709 13.5647 14.2709 13.6004 14.2817 13.6115C14.3514 13.683 14.3577 13.7593 14.3314 13.8534C14.311 13.9249 14.3918 13.9929 14.3714 14.0651C14.3462 14.1533 14.4337 14.2337 14.3784 14.3193C14.3751 14.3245 14.3784 14.3412 14.3836 14.3446C14.4667 14.3967 14.4218 14.4756 14.4278 14.544C14.4352 14.627 14.4723 14.7059 14.4467 14.7933C14.4103 14.9169 14.4593 15.0423 14.4533 15.1628C14.4463 15.3072 14.5 15.4244 14.5408 15.5506C14.5434 15.558 14.5431 15.5733 14.5397 15.5748C14.4493 15.615 14.5015 15.6745 14.5179 15.7292C14.5204 15.7377 14.5219 15.7485 14.519 15.7567C14.4515 15.9458 14.582 16.089 14.632 16.2509C14.6376 16.2691 14.6509 16.2873 14.632 16.3C14.5716 16.3402 14.5901 16.4012 14.5972 16.4518C14.6068 16.5225 14.6524 16.5902 14.5965 16.6617C14.5894 16.6706 14.599 16.6989 14.6087 16.713C14.6443 16.767 14.7077 16.812 14.6098 16.8745C14.5772 16.8953 14.6205 16.943 14.6535 16.9385C14.7262 16.9285 14.7084 16.9694 14.6947 17.0029C14.6684 17.0669 14.6606 17.1272 14.704 17.1867C14.7103 17.1957 14.7151 17.2172 14.7114 17.2202C14.6291 17.2827 14.6806 17.3307 14.7173 17.3932C14.7462 17.4424 14.7607 17.5108 14.7084 17.5659C14.6847 17.5908 14.6743 17.6266 14.6991 17.65C14.8078 17.7501 14.7967 17.8751 14.7789 18.0024C14.5327 18.264 14.2817 18.5214 14.021 18.7689C14.0155 18.7577 14.0129 18.7417 14.004 18.7365C13.8824 18.6684 13.9343 18.5866 13.984 18.5043C13.9869 18.4991 13.9869 18.4883 13.9895 18.4876C14.1315 18.4589 14.0106 18.4031 13.9981 18.3663C13.9843 18.3257 13.9706 18.2829 13.9954 18.252C14.0355 18.2015 14.0003 18.1374 14.0362 18.0872C14.0477 18.0712 14.0359 18.0388 14.0133 18.0333C13.9525 18.0187 13.9684 17.973 13.988 17.9495C14.08 17.8394 14.0177 17.724 14.011 17.609C14.0062 17.5223 13.9298 17.4468 13.9728 17.3549C14.0155 17.2637 13.9591 17.1741 13.9743 17.0814C13.9899 16.9839 13.9895 16.8835 14.014 16.7867C14.0184 16.7692 14.0081 16.7577 13.9973 16.7461C13.958 16.7052 13.9291 16.6639 13.9869 16.6141C14.0036 16.5999 13.9914 16.5805 13.9895 16.5623C13.9784 16.4566 13.9877 16.3502 13.9869 16.2457C13.9866 16.1783 14.0129 16.1429 14.034 16.0935C14.0574 16.0388 14.0885 15.9752 14.0081 15.9331C13.9984 15.9283 13.9858 15.9115 13.988 15.9044C14.0129 15.8233 13.9717 15.7437 13.9829 15.6641C13.9903 15.612 14.0374 15.5636 13.9914 15.5085C14.0644 15.4334 13.9639 15.3608 13.9802 15.3072C14.0099 15.2097 13.9539 15.1375 13.9487 15.0508C13.9766 15.0482 14.004 15.0497 14.0288 15.0423C14.0522 15.0356 14.0589 15.0121 14.0555 14.9887C14.0522 14.9634 14.0362 14.9652 14.0151 14.9678C13.9443 14.9772 13.9443 14.9187 13.9606 14.8853C13.9925 14.8198 13.9895 14.755 13.9836 14.688C13.9739 14.5842 14.0062 14.4804 13.9981 14.3799C13.9854 14.2266 14.0247 14.0704 13.9706 13.9196C13.9654 13.9048 13.9773 13.8843 13.9788 13.8661C13.9925 13.6819 14.0318 13.494 14.0084 13.3142C13.9951 13.2134 14.0055 13.1248 14.0162 13.031C14.0307 12.9038 13.9866 12.7814 13.9854 12.6563C13.9843 12.4937 13.991 12.3304 14.0018 12.1681C14.007 12.0926 13.9799 12.0227 13.9825 11.9475C13.9921 11.6706 14.001 11.3938 13.9995 11.117C13.9992 11.0161 14.0122 10.9104 13.9662 10.8133C13.9795 10.801 13.9932 10.7891 14.0066 10.7769C14.0099 10.785 14.0144 10.7906 14.0192 10.7966Z" fill="#01ABFE"/>
<path d="M14.1238 10.6816C14.1446 10.6891 14.1653 10.6965 14.1857 10.7036C14.4645 10.8487 14.7381 11.0028 15.0132 11.1553C15.1845 11.2502 15.3603 11.3403 15.5304 11.437C15.642 11.5003 15.771 11.5312 15.8682 11.6201C15.8845 11.635 15.9056 11.6428 15.9275 11.6443C16.0202 11.6499 16.0955 11.6823 16.1321 11.776C16.1366 11.7872 16.147 11.7995 16.1577 11.8017C16.2778 11.8236 16.3609 11.936 16.4918 11.9357C16.5663 11.9353 16.6238 11.9714 16.6649 12.0406C16.7083 12.1143 16.7925 12.1381 16.8666 12.1593C17.0209 12.2032 17.1521 12.2906 17.2744 12.3844C17.3541 12.4454 17.4413 12.4897 17.5273 12.5303C17.6115 12.5701 17.6837 12.6423 17.7861 12.6441C17.8161 12.6449 17.8335 12.681 17.8554 12.7029C17.8951 12.7427 17.9336 12.7837 17.9996 12.7595C18.0315 12.748 18.0515 12.7714 18.0678 12.7948C18.0879 12.8238 18.1138 12.8514 18.1479 12.8536C18.2818 12.8622 18.3667 12.9567 18.4653 13.0274C18.3986 13.3463 18.2847 13.6496 18.1598 13.9487C18.1134 14.0596 18.0704 14.172 18.0052 14.2739C17.9729 14.1385 17.8606 14.0741 17.762 13.9967C17.6808 13.9331 17.6378 13.8293 17.5325 13.7884C17.4921 13.7727 17.4642 13.7601 17.4242 13.7846C17.4083 13.7943 17.3701 13.8021 17.3627 13.769C17.3564 13.7415 17.3845 13.727 17.4075 13.7184C17.4213 13.7132 17.4379 13.7158 17.4531 13.7139C17.4676 13.7124 17.4873 13.7162 17.4902 13.6957C17.4935 13.6723 17.4743 13.667 17.4565 13.66C17.3994 13.638 17.3404 13.6317 17.2811 13.6421C17.2659 13.6068 17.3212 13.5711 17.2833 13.5554C17.1791 13.5115 17.1565 13.395 17.0746 13.3336C17.0501 13.3154 17.0275 13.2857 17.0012 13.3314C16.973 13.3813 16.9471 13.3589 16.9278 13.3255C16.8699 13.2261 16.8077 13.132 16.6994 13.0799C16.6853 13.0732 16.6679 13.0598 16.6738 13.0453C16.7172 12.9411 16.6364 12.9314 16.5737 12.9165C16.4788 12.8938 16.4187 12.8227 16.3739 12.752C16.3386 12.6962 16.2957 12.6732 16.2449 12.6479C16.1652 12.608 16.104 12.5563 16.0673 12.4659C16.0517 12.4276 16.002 12.384 15.9601 12.3476C15.8734 12.2724 15.7488 12.2572 15.685 12.1373C15.6379 12.0492 15.5578 11.9613 15.4466 11.929C15.4073 11.9174 15.3895 11.8813 15.3676 11.8538C15.2942 11.7608 15.1934 11.7001 15.1092 11.6205C14.9984 11.5159 14.8957 11.4032 14.7778 11.3049C14.5705 11.1319 14.3711 10.9496 14.169 10.7702C14.1416 10.7457 14.1186 10.7163 14.0938 10.6891C14.1038 10.6857 14.1138 10.6839 14.1238 10.6816Z" fill="#01B4FE"/>
<path d="M18.2789 9.21664C18.1947 9.24308 18.1169 9.29144 18.0253 9.2933C17.9738 9.41609 17.8548 9.3361 17.7777 9.37665C17.6942 9.42057 17.5908 9.42428 17.5259 9.50578C17.5159 9.51807 17.4866 9.53107 17.4781 9.52551C17.4036 9.47638 17.3257 9.48793 17.2656 9.53592C17.2045 9.58466 17.0992 9.55862 17.0706 9.65797C17.0628 9.68549 17.0413 9.67471 17.028 9.66131C16.9676 9.60102 16.9253 9.63305 16.8864 9.68737C16.8648 9.71712 16.8363 9.72011 16.8 9.72456C16.6557 9.74355 16.5078 9.75621 16.3829 9.84476C16.3706 9.85332 16.3566 9.86412 16.3428 9.86486C16.0903 9.88272 15.8746 10.0133 15.6414 10.09C15.5468 10.1212 15.4419 10.1369 15.3533 10.1744C15.2083 10.2358 15.0578 10.2757 14.9091 10.3166C14.6908 10.3769 14.4854 10.4785 14.2611 10.5179C14.2674 10.4837 14.2447 10.458 14.234 10.429C14.2752 10.3508 14.3545 10.3144 14.4216 10.2697C14.6196 10.1387 14.8113 9.99844 15 9.85631C15.1423 9.74914 15.2992 9.66205 15.4312 9.54596C15.5209 9.46708 15.6184 9.41127 15.7178 9.35284C15.7711 9.32159 15.8227 9.28774 15.8412 9.22186C15.8483 9.19768 15.8668 9.17535 15.8898 9.16828C15.9836 9.13925 16.0396 9.03767 16.1493 9.03767C16.1882 9.03767 16.2068 8.99524 16.232 8.96846C16.2972 8.89925 16.3625 8.82967 16.4641 8.81367C16.5071 8.80697 16.5319 8.77235 16.5545 8.73924C16.6072 8.66258 16.6702 8.60267 16.7681 8.59226C16.8081 8.58815 16.8141 8.55952 16.8163 8.52564C16.8207 8.46054 16.8515 8.44006 16.9064 8.48213C16.962 8.52453 16.9905 8.48695 17.0017 8.44417C17.0228 8.36156 17.0847 8.33663 17.1526 8.31057C17.2508 8.27224 17.3428 8.22573 17.3769 8.11112C17.3887 8.07131 17.421 8.03187 17.4621 8.03635C17.5467 8.04527 17.5775 7.99802 17.5997 7.93178C17.6038 7.91948 17.6149 7.91318 17.629 7.91689C17.903 8.32063 18.1254 8.75116 18.2789 9.21664Z" fill="#01BEFE"/>
<path d="M14.4272 5.36615C14.772 5.47853 15.0994 5.6296 15.4116 5.81417C15.396 5.90421 15.4238 6.00394 15.3385 6.07836C15.3067 6.1059 15.3048 6.15836 15.327 6.20041C15.3534 6.25027 15.3456 6.29232 15.2992 6.3206C15.2559 6.34739 15.2503 6.38646 15.2447 6.43074C15.2343 6.5167 15.2195 6.60228 15.1658 6.67484C15.1406 6.7087 15.1372 6.74926 15.1442 6.79057C15.1502 6.8248 15.1546 6.86164 15.135 6.89029C15.0664 6.99039 15.0527 7.10872 15.0204 7.22109C15.0178 7.23002 15.0108 7.23933 15.0126 7.24751C15.0416 7.36361 14.9719 7.44547 14.9155 7.5318C14.8855 7.57831 14.8755 7.62668 14.8866 7.68176C14.9047 7.77181 14.8395 7.83841 14.8139 7.91656C14.8013 7.95489 14.7839 7.99059 14.7876 8.03229C14.7887 8.04455 14.7913 8.05869 14.7861 8.06913C14.7197 8.20233 14.7071 8.35601 14.6293 8.48477C14.6156 8.5071 14.6096 8.52866 14.6104 8.55435C14.6137 8.65296 14.5844 8.74299 14.5359 8.82709C14.5203 8.85426 14.501 8.88215 14.5036 8.91267C14.5162 9.05816 14.4443 9.18096 14.402 9.31156C14.3438 9.49094 14.3067 9.67661 14.2519 9.85559C14.1814 10.0852 14.1254 10.3211 14.022 10.5403V10.541C13.9693 10.5298 13.992 10.487 13.9931 10.4595C14.0001 10.2683 14.015 10.0781 14.0357 9.88758C14.0517 9.73838 14.0479 9.58581 14.0591 9.4351C14.0709 9.27512 14.0939 9.11659 14.1054 8.95621C14.1199 8.75343 14.1162 8.5495 14.1403 8.34709C14.1703 8.09591 14.1788 7.8425 14.2055 7.59059C14.21 7.54668 14.2122 7.50389 14.1988 7.46184C14.1692 7.3677 14.1866 7.27653 14.2226 7.18983C14.2441 7.13811 14.2489 7.09793 14.2088 7.05513C14.1762 7.02015 14.177 6.98778 14.2196 6.95466C14.2637 6.9208 14.2793 6.86499 14.2789 6.81327C14.2782 6.68712 14.2815 6.56321 14.3067 6.43781C14.3186 6.37865 14.2886 6.31167 14.2767 6.2499C14.263 6.17659 14.2752 6.12376 14.3182 6.07092C14.3423 6.04115 14.3612 6.01361 14.3338 5.97231C14.3149 5.94403 14.3119 5.90719 14.3268 5.8737C14.3416 5.84058 14.3371 5.8071 14.333 5.77323C14.3253 5.71035 14.3397 5.64709 14.342 5.5883C14.346 5.49601 14.3979 5.43908 14.4272 5.36615Z" fill="#01C7FE"/>
<path d="M17.6286 7.91656C17.6012 7.9534 17.6097 8.00773 17.5711 8.03898C17.5537 8.05313 17.5437 8.08549 17.5115 8.06613C17.4355 8.02036 17.4032 8.08027 17.3928 8.13052C17.3672 8.25332 17.2627 8.27898 17.1759 8.32438C17.1129 8.35749 17.0424 8.36456 17.0221 8.45758C17.0031 8.54242 16.952 8.55024 16.8904 8.49554C16.8786 8.48476 16.8693 8.47173 16.8519 8.47954C16.83 8.48924 16.8315 8.51006 16.8363 8.52717C16.8578 8.60123 16.8267 8.61611 16.757 8.61685C16.6858 8.61722 16.6361 8.66784 16.5935 8.72328C16.5486 8.78171 16.5171 8.84048 16.4181 8.84793C16.3651 8.85203 16.2809 8.91751 16.2416 8.99157C16.2134 9.04478 16.1719 9.07678 16.1078 9.06859C16.0781 9.06486 16.0514 9.07529 16.0355 9.10059C16.0121 9.13669 15.9795 9.1538 15.9395 9.16646C15.895 9.18061 15.8698 9.21149 15.8483 9.25949C15.8049 9.35736 15.7037 9.3968 15.6117 9.43401C15.5695 9.45112 15.5379 9.46712 15.5123 9.50582C15.4512 9.59773 15.3433 9.63158 15.2584 9.69372C15.1976 9.738 15.1283 9.76555 15.079 9.82991C15.0248 9.90098 14.9381 9.94193 14.8635 9.98396C14.7445 10.0509 14.6541 10.1525 14.5354 10.2188C14.429 10.2779 14.3341 10.3579 14.234 10.429C14.2181 10.4264 14.2021 10.4242 14.1862 10.4216C14.1547 10.381 14.1851 10.3512 14.2066 10.3233C14.3437 10.1451 14.4854 9.97093 14.634 9.802C14.7315 9.69112 14.8179 9.57018 14.9154 9.45931C15.1023 9.24682 15.2851 9.02878 15.4586 8.80663C15.572 8.66114 15.7114 8.53201 15.7938 8.35712C15.8531 8.23136 15.9747 8.14504 16.0881 8.06131C16.1137 8.04269 16.1356 8.02335 16.1515 7.99581C16.2868 7.76288 16.4452 7.54929 16.6554 7.37738C16.7154 7.32826 16.7384 7.24826 16.7844 7.18649C16.8322 7.12211 16.8834 7.06258 16.9716 7.05774C17.2193 7.31114 17.4284 7.59506 17.6238 7.89015C17.6282 7.89682 17.6271 7.90763 17.6286 7.91656Z" fill="#01C0FE"/>
<path d="M14.0223 10.5403C14.0171 10.4346 14.0727 10.3445 14.1028 10.2493C14.1806 10.0015 14.2485 9.75139 14.317 9.50096C14.3578 9.35213 14.4008 9.20178 14.4731 9.06336C14.488 9.03473 14.4876 9.00159 14.4776 8.97259C14.4616 8.92719 14.4732 8.88105 14.4935 8.84829C14.558 8.74448 14.6085 8.64102 14.5769 8.51452C14.5744 8.50448 14.5807 8.48438 14.5877 8.48178C14.6826 8.44272 14.6678 8.36047 14.667 8.28382C14.6667 8.25368 14.6763 8.22838 14.6993 8.2105C14.736 8.1815 14.7571 8.13795 14.7564 8.09814C14.7538 7.96828 14.8039 7.85889 14.8661 7.75134C14.8743 7.7372 14.8732 7.71338 14.868 7.69701C14.8287 7.57682 14.8913 7.49496 14.9685 7.41793C14.9729 7.41346 14.9814 7.409 14.9811 7.40491C14.9703 7.29774 15.02 7.19802 15.0185 7.0942C15.0181 7.06406 15.0059 7.03466 15.0307 7.01345C15.1108 6.9461 15.1387 6.86498 15.1134 6.76228C15.1042 6.72507 15.119 6.68265 15.142 6.65772C15.2098 6.5833 15.2124 6.49176 15.2228 6.40134C15.228 6.35706 15.2165 6.30757 15.2895 6.30385C15.3166 6.30273 15.3373 6.2659 15.3199 6.23054C15.2721 6.13343 15.2806 6.08319 15.3618 6.02068C15.3752 6.01026 15.3889 6.00393 15.3789 5.98607C15.3396 5.91835 15.3978 5.87035 15.4122 5.81342C15.6428 5.95519 15.8735 6.09584 16.0889 6.26143C16.1456 6.30497 16.2123 6.33622 16.2616 6.39092C16.2717 6.45418 16.2394 6.49958 16.1946 6.53493C16.1037 6.60712 16.0596 6.70423 16.0151 6.80917C15.9795 6.89289 15.9791 7.00824 15.8679 7.04806C15.8579 7.13067 15.7708 7.18276 15.7815 7.27393C15.7908 7.35058 15.7574 7.40491 15.7044 7.46184C15.6369 7.53366 15.5731 7.61589 15.5717 7.72492C15.5713 7.74054 15.5724 7.7625 15.5609 7.76845C15.4564 7.82315 15.4326 7.94147 15.3804 8.02856C15.3107 8.1454 15.2091 8.25219 15.1794 8.38688C15.1505 8.519 15.0808 8.62617 15.0159 8.7363C14.951 8.84643 14.9032 8.96515 14.8324 9.07417C14.7683 9.17278 14.7086 9.28477 14.6544 9.39456C14.495 9.71903 14.333 10.042 14.1543 10.3564C14.1298 10.3996 14.0998 10.4387 14.0757 10.4822C14.0601 10.5042 14.0497 10.5302 14.0223 10.5403Z" fill="#01C4FE"/>
<path d="M14.0754 10.4826C14.1077 10.3546 14.1941 10.2537 14.2478 10.1361C14.3205 9.97764 14.4128 9.82915 14.4885 9.6714C14.5511 9.54042 14.6049 9.40125 14.6961 9.28328C14.7376 9.22932 14.7906 9.17463 14.7806 9.09464C14.7795 9.08645 14.7843 9.0749 14.7902 9.06932C14.95 8.9257 14.9679 8.69537 15.1091 8.54095C15.1447 8.50185 15.1228 8.45163 15.1417 8.40883C15.1744 8.33517 15.1803 8.24697 15.2652 8.2053C15.27 8.20308 15.2748 8.19601 15.2752 8.19079C15.2897 8.06389 15.4005 7.9876 15.4398 7.87339C15.4539 7.83245 15.4628 7.78296 15.5247 7.77887C15.5473 7.77738 15.5614 7.74947 15.551 7.72789C15.5221 7.66761 15.5729 7.63561 15.5874 7.58984C15.6159 7.4983 15.6878 7.45253 15.7423 7.38741C15.7757 7.3476 15.7609 7.29253 15.7557 7.24378C15.7505 7.19652 15.8502 7.02275 15.8936 7.00489C15.9073 6.99931 15.9322 6.98777 15.9314 6.98517C15.9103 6.91112 15.9833 6.87242 15.9948 6.81623C16.0208 6.69158 16.0794 6.59334 16.1802 6.52041C16.2262 6.48729 16.234 6.43408 16.2618 6.39166C16.5231 6.58739 16.7586 6.81065 16.9718 7.0581C16.8505 7.11578 16.7742 7.21624 16.7233 7.33532C16.6904 7.41197 16.6136 7.44025 16.561 7.4916C16.5013 7.54965 16.4475 7.61216 16.4012 7.67728C16.3241 7.78557 16.2199 7.87525 16.1746 8.00734C16.1509 8.07692 16.0767 8.10669 16.0241 8.14835C15.9837 8.18038 15.9533 8.22652 15.9185 8.24885C15.7868 8.33292 15.7664 8.48922 15.6671 8.59339C15.4765 8.79284 15.3104 9.01462 15.1369 9.22858C14.9967 9.40162 14.8444 9.56423 14.7135 9.7458C14.6356 9.85411 14.543 9.95494 14.4514 10.0536C14.3591 10.1533 14.2897 10.2697 14.1989 10.3698C14.1882 10.3814 14.19 10.4044 14.1859 10.4223C14.1359 10.4186 14.1107 10.4595 14.0754 10.4826Z" fill="#01C3FE"/>
<path d="M14.4275 5.36615C14.4352 5.40745 14.4538 5.4521 14.3933 5.47257C14.383 5.47629 14.3756 5.48894 14.3667 5.4975C14.4441 5.57527 14.3032 5.6389 14.3515 5.72672C14.3652 5.75165 14.4145 5.83239 14.3448 5.88821C14.3225 5.90607 14.3363 5.97231 14.3741 5.98682C14.4226 6.00505 14.4171 6.01845 14.3819 6.03742C14.3347 6.0631 14.3311 6.12115 14.2906 6.15092C14.2843 6.15538 14.2791 6.17361 14.2814 6.1751C14.3522 6.22869 14.2769 6.31353 14.3266 6.37715C14.354 6.41213 14.3681 6.4739 14.3043 6.50702C14.344 6.60042 14.2743 6.69382 14.307 6.78982C14.3303 6.85903 14.2684 6.96359 14.1983 6.99596C14.2024 7.00415 14.2046 7.01383 14.2106 7.01978C14.2647 7.07411 14.3073 7.11801 14.2454 7.20732C14.1994 7.27393 14.1857 7.37105 14.2246 7.45589C14.2606 7.53403 14.2269 7.60882 14.2206 7.68324C14.1987 7.94483 14.1853 8.20679 14.152 8.46763C14.1401 8.5614 14.1538 8.65816 14.1475 8.75303C14.136 8.93203 14.126 9.11212 14.0993 9.28924C14.0878 9.36441 14.0797 9.44106 14.0786 9.51435C14.0741 9.802 14.0289 10.0867 14.0196 10.3735C14.0178 10.4294 13.9722 10.4859 14.0222 10.541C14.0092 10.5525 13.9963 10.5637 13.9833 10.5752C13.9829 10.5622 13.9825 10.5496 13.9822 10.5365C13.9837 10.3546 13.9618 10.1749 13.9314 9.99549C13.9114 9.87718 13.9258 9.75586 13.9184 9.63529C13.9095 9.49017 13.8939 9.34542 13.8769 9.20181C13.8695 9.1393 13.895 9.0846 13.8798 9.02058C13.8391 8.84942 13.8072 8.67156 13.8224 8.4974C13.835 8.35191 13.8124 8.20904 13.7979 8.07099C13.7883 7.98167 13.8268 7.86817 13.7449 7.7878C13.7975 7.71338 13.6807 7.61217 13.7823 7.54445C13.7879 7.54073 13.7916 7.52212 13.789 7.52026C13.6882 7.44175 13.7924 7.34537 13.766 7.25755C13.7393 7.16862 13.736 7.07225 13.7238 6.97922C13.72 6.95094 13.7256 6.92378 13.7397 6.89847C13.7519 6.87652 13.7627 6.85308 13.7468 6.82889C13.65 6.68451 13.6941 6.5219 13.6867 6.36636C13.6859 6.35408 13.6822 6.33771 13.6885 6.3299C13.7616 6.23836 13.6874 6.15501 13.6719 6.07017C13.6529 5.96635 13.5966 5.86626 13.6744 5.76318C13.6934 5.73825 13.696 5.70179 13.677 5.67499C13.6496 5.63667 13.6314 5.68467 13.6081 5.68913C13.591 5.69248 13.5569 5.69993 13.5636 5.68616C13.5951 5.62104 13.5362 5.53843 13.6029 5.48373C13.6692 5.42941 13.6707 5.37545 13.6125 5.31331C13.5688 5.2668 13.587 5.19758 13.6518 5.14661C13.9139 5.2054 14.1779 5.26084 14.4275 5.36615Z" fill="#01C8FE"/>
<path d="M18.4649 13.0271C18.4234 13.0285 18.3933 13.0189 18.3622 12.982C18.3222 12.9351 18.2739 12.8946 18.1994 12.8923C18.129 12.8901 18.0604 12.8607 18.033 12.7815C17.9625 12.8075 17.9028 12.7967 17.8517 12.7368C17.7645 12.6345 17.6244 12.6289 17.5202 12.5593C17.4513 12.5132 17.3637 12.499 17.3059 12.4421C17.221 12.3584 17.1116 12.3193 17.0178 12.2557C16.9148 12.1857 16.7939 12.1738 16.6901 12.115C16.6656 12.1012 16.6523 12.0867 16.646 12.0611C16.6308 11.9978 16.5822 11.9617 16.5259 11.9643C16.4636 11.9673 16.4117 11.923 16.3501 11.9386C16.3423 11.9405 16.326 11.9383 16.3257 11.936C16.3119 11.8408 16.2252 11.8642 16.1692 11.8382C16.1377 11.8237 16.1062 11.8073 16.0984 11.7704C16.0806 11.6889 16.0161 11.6733 15.9512 11.6718C15.8963 11.6707 15.857 11.6536 15.8229 11.613C15.811 11.5993 15.7955 11.5803 15.7803 11.5792C15.6494 11.5688 15.5682 11.4542 15.4459 11.424C15.3569 11.4021 15.3009 11.3202 15.2115 11.2849C14.982 11.1933 14.7804 11.0448 14.5631 10.9269C14.4348 10.8573 14.2943 10.8067 14.1857 10.7032C14.3002 10.7293 14.4014 10.7896 14.5104 10.8294C14.7518 10.9176 14.9824 11.0318 15.2238 11.1207C15.348 11.1665 15.4844 11.1952 15.5927 11.2841C15.626 11.3113 15.6776 11.3161 15.7143 11.3172C15.8678 11.3209 15.9653 11.4512 16.1017 11.4783C16.1925 11.4962 16.2548 11.5837 16.3572 11.5654C16.3998 11.558 16.4124 11.6171 16.4513 11.6328C16.5333 11.6655 16.6211 11.6796 16.7005 11.7217C16.7261 11.7355 16.7568 11.7373 16.7746 11.766C16.7809 11.776 16.795 11.7913 16.8013 11.7894C16.8933 11.7623 16.9526 11.8285 17.0271 11.856C17.0783 11.875 17.1369 11.8832 17.1836 11.9174C17.2996 12.0023 17.4516 12.0041 17.5677 12.0942C17.6173 12.1329 17.6944 12.131 17.7586 12.147C17.8086 12.1597 17.8494 12.1775 17.8876 12.2077C17.9369 12.2467 17.9825 12.262 18.0533 12.2553C18.1486 12.246 18.2313 12.3126 18.2891 12.3889C18.314 12.4213 18.3125 12.4573 18.3626 12.4153C18.3922 12.3904 18.4456 12.4026 18.4619 12.4291C18.4964 12.4849 18.5565 12.5288 18.5576 12.6032C18.5253 12.7446 18.5101 12.8894 18.4649 13.0271Z" fill="#01B5FE"/>
<path d="M12.2037 5.00258C12.1243 5.03421 12.0417 5.0104 11.9604 5.01598C12.0405 4.99402 12.1221 5.00035 12.2037 5.00258Z" fill="#01CEFE"/>
<path d="M8.4612 11.949C8.45119 11.9557 8.44488 11.9631 8.43821 11.9635C8.42598 11.9646 8.41449 11.9587 8.41856 11.9442C8.42005 11.9389 8.43228 11.9337 8.43932 11.9341C8.44563 11.9345 8.45156 11.9419 8.4612 11.949Z" fill="#01D8FE"/>
<path d="M12.7457 16.2844C12.7579 16.2881 12.7683 16.2952 12.7664 16.3086C12.7649 16.322 12.7535 16.3295 12.7408 16.3265C12.7345 16.325 12.7271 16.3149 12.7264 16.3082C12.7245 16.2956 12.7312 16.2859 12.7457 16.2844Z" fill="#01A6FE"/>
<path d="M8.85165 6.98965C8.86608 6.99486 8.88205 6.9997 8.87722 7.01979C8.8739 7.03244 8.86276 7.03988 8.84904 7.03654C8.83347 7.03282 8.82087 7.02314 8.82346 7.00491C8.82568 6.9904 8.83866 6.98816 8.85165 6.98965Z" fill="#01D1FE"/>
<path d="M7.14097 9.96307C7.15543 9.96456 7.16396 9.97388 7.15988 9.98726C7.15543 10.0029 7.14246 10.0126 7.12577 10.013C7.11354 10.0133 7.09945 10.01 7.10167 9.99322C7.10464 9.972 7.12058 9.96382 7.14097 9.96307Z" fill="#01D8FE"/>
<path d="M8.07253 10.0349C8.06252 10.0416 8.05622 10.0491 8.04954 10.0494C8.03731 10.0506 8.02581 10.0446 8.02989 10.0301C8.03137 10.0249 8.04361 10.0197 8.05065 10.02C8.05659 10.0204 8.06252 10.0279 8.07253 10.0349Z" fill="#01D8FE"/>
<path d="M8.83704 14.5991C8.87487 14.5634 8.90081 14.5593 8.92527 14.5898C8.9301 14.5958 8.93269 14.6118 8.92936 14.6144C8.89745 14.6386 8.87447 14.6121 8.83704 14.5991Z" fill="#00DFFE"/>
<path d="M13.6652 5.58638C13.6637 5.60313 13.6563 5.61727 13.6396 5.61838C13.6262 5.6195 13.6181 5.60722 13.6177 5.5942C13.617 5.57634 13.6288 5.56554 13.6448 5.56294C13.6592 5.56071 13.6637 5.57336 13.6652 5.58638Z" fill="#01CAFE"/>
</g>
<path d="M23.5 12C23.5 18.3513 18.3513 23.5 12 23.5C5.64873 23.5 0.5 18.3513 0.5 12C0.5 5.64873 5.64873 0.5 12 0.5C18.3513 0.5 23.5 5.64873 23.5 12Z" stroke="black" stroke-opacity="0.097"/>
<defs>
<clipPath id="clip0_103_282">
<rect width="12.6724" height="15" fill="white" transform="translate(6 5)"/>
</clipPath>
</defs>
</svg>
