<svg width="24" height="24" viewBox="0 0 24 24" fill="none" xmlns="http://www.w3.org/2000/svg">
<path d="M12 24C18.6274 24 24 18.6274 24 12C24 5.37258 18.6274 0 12 0C5.37258 0 0 5.37258 0 12C0 18.6274 5.37258 24 12 24Z" fill="#103F68"/>
<path d="M11.9852 4L19 8.0401V16.1453L11.9933 20.1972L11.9366 20.1832L5 16.1453V8.0401L11.9366 4H11.9852ZM11.9624 4.83852L5.73684 8.46378V15.7217L11.9617 19.3462L12.7221 18.9063L18.2631 15.7194V8.46525L12.7221 5.26L11.9624 4.83852ZM6.70137 12.6564L8.54421 11.2786L10.1734 12.3189V14.1905L11.4061 15.3783L11.4054 15.9353L10.2176 17.048H9.21473L6.7021 12.6564H6.70137ZM12.5246 15.9368L12.5224 15.3769L13.7507 14.1905V12.3189L15.3622 11.2653L17.2014 12.6572L14.7013 17.0355H13.711L12.5246 15.9368ZM10.7783 12.3189L10.1785 10.7487H13.7433L13.1554 12.3189L13.3293 14.0741L11.9536 14.077L10.5941 14.0792L10.7783 12.3189ZM11.9536 10.3184L8.56557 10.3169L9.19557 7.50221H14.6953L15.3585 10.3206L11.9536 10.3184Z" fill="white"/>
<path d="M23.5 12C23.5 18.3513 18.3513 23.5 12 23.5C5.64873 23.5 0.5 18.3513 0.5 12C0.5 5.64873 5.64873 0.5 12 0.5C18.3513 0.5 23.5 5.64873 23.5 12Z" stroke="white" stroke-opacity="0.3"/>
</svg>
