<svg width="24" height="24" viewBox="0 0 24 24" fill="none" xmlns="http://www.w3.org/2000/svg">
<path d="M12 24C18.6274 24 24 18.6274 24 12C24 5.37258 18.6274 0 12 0C5.37258 0 0 5.37258 0 12C0 18.6274 5.37258 24 12 24Z" fill="url(#paint0_linear)"/>
<path d="M23.5 12C23.5 18.3513 18.3513 23.5 12 23.5C5.64873 23.5 0.5 18.3513 0.5 12C0.5 5.64873 5.64873 0.5 12 0.5C18.3513 0.5 23.5 5.64873 23.5 12Z" stroke="white" stroke-opacity="0.3"/>
<path d="M5 10.0497V6.0679H6.03505L6.65654 8.78403L7.27103 6.0679H8.30841V10.0497H7.66589V6.91533L6.98598 10.0497H6.32009L5.64252 6.91533V10.0497H5Z" fill="#D9FC00"/>
<path d="M8.99533 10.0497V6.0679H11.535V6.7415H9.68692V7.62424H11.4065V8.29513H9.68692V9.37886H11.6005V10.0497H8.99533Z" fill="#D9FC00"/>
<path d="M13.7804 8.58575V7.91487H15.271V9.50109C15.1262 9.66405 14.9159 9.80801 14.6402 9.93295C14.366 10.0561 14.088 10.1176 13.8061 10.1176C13.4478 10.1176 13.1355 10.0307 12.8692 9.8569C12.6028 9.68126 12.4026 9.43137 12.2687 9.10725C12.1347 8.78131 12.0678 8.42731 12.0678 8.04524C12.0678 7.63058 12.1425 7.26209 12.2921 6.93978C12.4416 6.61747 12.6604 6.3703 12.9486 6.19828C13.1682 6.06609 13.4416 6 13.7687 6C14.1939 6 14.5257 6.10412 14.764 6.31235C15.0039 6.51878 15.1581 6.80488 15.2266 7.17065L14.5397 7.32004C14.4914 7.12448 14.4003 6.97056 14.2664 6.8583C14.134 6.74422 13.9681 6.68718 13.7687 6.68718C13.4665 6.68718 13.2259 6.79854 13.0467 7.02126C12.8692 7.24399 12.7804 7.57445 12.7804 8.01265C12.7804 8.48526 12.8707 8.84016 13.0514 9.07737C13.2321 9.31277 13.4688 9.43047 13.7617 9.43047C13.9065 9.43047 14.0514 9.39787 14.1963 9.33269C14.3427 9.26569 14.4681 9.18511 14.5724 9.09095V8.58575H13.7804Z" fill="#D9FC00"/>
<path d="M19 10.0497H18.2477L17.9486 9.14527H16.5794L16.2967 10.0497H15.5631L16.8972 6.0679H17.6285L19 10.0497ZM17.7266 8.47439L17.2547 6.99682L16.7921 8.47439H17.7266Z" fill="#D9FC00"/>
<path d="M5 17.8708V13.8916H6.12731C6.5545 13.8916 6.83297 13.9115 6.96271 13.9513C7.16206 14.011 7.32898 14.1413 7.46347 14.3422C7.59795 14.5412 7.6652 14.7991 7.6652 15.1158C7.6652 15.36 7.62643 15.5654 7.54891 15.7319C7.47138 15.8984 7.37249 16.0296 7.25225 16.1255C7.13358 16.2196 7.01254 16.282 6.88913 16.3128C6.72142 16.3508 6.47856 16.3698 6.16054 16.3698H5.70249V17.8708H5ZM5.70249 14.5647V15.6939H6.08696C6.36385 15.6939 6.54896 15.6731 6.64231 15.6315C6.73566 15.5899 6.80844 15.5247 6.86065 15.436C6.91445 15.3474 6.94135 15.2442 6.94135 15.1266C6.94135 14.9818 6.90416 14.8624 6.8298 14.7683C6.75544 14.6742 6.6613 14.6154 6.54738 14.5919C6.46352 14.5738 6.29502 14.5647 6.04187 14.5647H5.70249Z" fill="#D9FC00"/>
<path d="M8.09951 15.9056C8.09951 15.5003 8.15251 15.1601 8.25852 14.885C8.33763 14.6824 8.44522 14.5005 8.58128 14.3395C8.71894 14.1784 8.86924 14.059 9.03221 13.9812C9.24897 13.8762 9.49895 13.8237 9.78217 13.8237C10.2948 13.8237 10.7046 14.0056 11.0115 14.3693C11.3201 14.733 11.4743 15.2388 11.4743 15.8866C11.4743 16.529 11.3216 17.0321 11.0163 17.3958C10.7109 17.7577 10.3027 17.9387 9.79166 17.9387C9.27428 17.9387 8.86291 17.7586 8.55755 17.3985C8.25219 17.0366 8.09951 16.539 8.09951 15.9056ZM8.82336 15.8785C8.82336 16.3291 8.91434 16.6711 9.09629 16.9045C9.27824 17.1361 9.50924 17.2519 9.78929 17.2519C10.0693 17.2519 10.2988 17.137 10.4775 16.9072C10.6579 16.6756 10.7481 16.3291 10.7481 15.8676C10.7481 15.4116 10.6603 15.0714 10.4847 14.847C10.3106 14.6226 10.0788 14.5105 9.78929 14.5105C9.49975 14.5105 9.26637 14.6245 9.08917 14.8525C8.91196 15.0787 8.82336 15.4207 8.82336 15.8785Z" fill="#D9FC00"/>
<path d="M12.0439 17.8708V13.9242H12.7464V17.2004H14.4931V17.8708H12.0439Z" fill="#D9FC00"/>
<path d="M14.9749 17.8708V13.8916H15.6774V17.8708H14.9749Z" fill="#D9FC00"/>
<path d="M16.171 16.5761L16.8546 16.5001C16.8957 16.7625 16.9788 16.9552 17.1037 17.0782C17.2303 17.2013 17.4004 17.2628 17.614 17.2628C17.8403 17.2628 18.0103 17.2085 18.1243 17.0999C18.2398 16.9896 18.2975 16.8611 18.2975 16.7145C18.2975 16.6204 18.273 16.5408 18.2239 16.4756C18.1765 16.4087 18.0926 16.3508 17.9724 16.3019C17.8901 16.2693 17.7026 16.2114 17.4099 16.1282C17.0333 16.0214 16.7691 15.8902 16.6172 15.7346C16.4036 15.5157 16.2968 15.2488 16.2968 14.9339C16.2968 14.7312 16.3467 14.5421 16.4463 14.3666C16.5476 14.1893 16.6924 14.0544 16.8807 13.9622C17.0705 13.8699 17.2991 13.8237 17.5665 13.8237C18.0032 13.8237 18.3315 13.9332 18.5514 14.1522C18.773 14.3711 18.8892 14.6634 18.9003 15.0289L18.1978 15.0642C18.1678 14.8597 18.1029 14.7131 18.0032 14.6245C17.9051 14.534 17.7572 14.4887 17.5594 14.4887C17.3553 14.4887 17.1955 14.5367 17.08 14.6326C17.0057 14.6941 16.9685 14.7765 16.9685 14.8796C16.9685 14.9737 17.0033 15.0542 17.0729 15.1212C17.1615 15.2062 17.3767 15.2949 17.7184 15.3872C18.0602 15.4795 18.3125 15.5754 18.4755 15.6749C18.6401 15.7726 18.7682 15.9074 18.86 16.0793C18.9533 16.2494 19 16.4603 19 16.7118C19 16.9398 18.9446 17.1533 18.8339 17.3524C18.7231 17.5514 18.5665 17.6998 18.364 17.7975C18.1614 17.8934 17.9091 17.9414 17.6069 17.9414C17.167 17.9414 16.8292 17.8256 16.5935 17.5939C16.3577 17.3605 16.2169 17.0212 16.171 16.5761Z" fill="#D9FC00"/>
<path d="M7.88323 12.2343L8.2416 12.3579C8.18666 12.5752 8.09509 12.7368 7.96689 12.8427C7.83952 12.9477 7.67761 13.0002 7.48115 13.0002C7.23808 13.0002 7.03829 12.9101 6.88179 12.73C6.72528 12.5489 6.64703 12.3017 6.64703 11.9885C6.64703 11.6571 6.7257 11.4 6.88303 11.2171C7.04037 11.0333 7.24723 10.9414 7.50363 10.9414C7.72756 10.9414 7.90945 11.0134 8.0493 11.1573C8.13255 11.2424 8.19498 11.3647 8.2366 11.524L7.87074 11.6191C7.8491 11.5159 7.80373 11.4344 7.73463 11.3746C7.66637 11.3149 7.58313 11.285 7.4849 11.285C7.34921 11.285 7.23891 11.338 7.154 11.4439C7.06992 11.5498 7.02788 11.7214 7.02788 11.9586C7.02788 12.2103 7.0695 12.3896 7.15275 12.4964C7.23599 12.6032 7.34421 12.6566 7.47741 12.6566C7.57564 12.6566 7.66013 12.6227 7.73089 12.5548C7.80165 12.4869 7.85243 12.38 7.88323 12.2343Z" fill="white"/>
<path d="M8.56126 12.9663V10.9754H9.33919C9.53481 10.9754 9.67675 10.9935 9.76499 11.0297C9.85406 11.065 9.92524 11.1284 9.97851 11.2198C10.0318 11.3113 10.0584 11.4158 10.0584 11.5335C10.0584 11.6829 10.0181 11.8065 9.93731 11.9043C9.85656 12.0011 9.73585 12.0623 9.57519 12.0876C9.6551 12.1383 9.72087 12.194 9.77248 12.2547C9.82492 12.3153 9.89527 12.4231 9.98351 12.5779L10.207 12.9663H9.76499L9.49777 12.5331C9.40287 12.3782 9.33794 12.2809 9.30298 12.2411C9.26801 12.2003 9.23097 12.1727 9.19184 12.1582C9.15272 12.1428 9.0907 12.1351 9.00579 12.1351H8.93087V12.9663H8.56126ZM8.93087 11.8174H9.20433C9.38164 11.8174 9.49236 11.8092 9.53648 11.7929C9.5806 11.7766 9.61515 11.7485 9.64012 11.7087C9.66509 11.6689 9.67758 11.6191 9.67758 11.5593C9.67758 11.4923 9.66093 11.4385 9.62763 11.3977C9.59517 11.3561 9.54897 11.3298 9.48903 11.3189C9.45906 11.3144 9.36916 11.3122 9.21931 11.3122H8.93087V11.8174Z" fill="white"/>
<path d="M10.7939 12.9663V12.1284L10.1234 10.9754H10.5567L10.9874 11.763L11.4095 10.9754H11.8353L11.1623 12.1311V12.9663H10.7939Z" fill="white"/>
<path d="M12.0189 12.9663V10.9754H12.612C12.8367 10.9754 12.9833 10.9853 13.0515 11.0052C13.1564 11.0351 13.2442 11.1003 13.315 11.2008C13.3857 11.3004 13.4211 11.4294 13.4211 11.5878C13.4211 11.7101 13.4007 11.8128 13.3599 11.8961C13.3191 11.9794 13.2671 12.0451 13.2039 12.093C13.1414 12.1401 13.0777 12.1714 13.0128 12.1868C12.9246 12.2058 12.7968 12.2153 12.6295 12.2153H12.3885V12.9663H12.0189ZM12.3885 11.3122V11.8771H12.5908C12.7364 11.8771 12.8338 11.8667 12.8829 11.8459C12.9321 11.8251 12.9703 11.7925 12.9978 11.7481C13.0261 11.7037 13.0403 11.6521 13.0403 11.5933C13.0403 11.5208 13.0207 11.4611 12.9816 11.414C12.9425 11.3669 12.8929 11.3375 12.833 11.3257C12.7889 11.3167 12.7002 11.3122 12.567 11.3122H12.3885Z" fill="white"/>
<path d="M14.1366 12.9663V11.3122H13.5934V10.9754H15.0482V11.3122H14.5062V12.9663H14.1366Z" fill="white"/>
<path d="M15.1655 11.983C15.1655 11.7802 15.1934 11.61 15.2492 11.4724C15.2908 11.371 15.3474 11.28 15.419 11.1994C15.4914 11.1189 15.5705 11.0591 15.6563 11.0202C15.7703 10.9677 15.9018 10.9414 16.0508 10.9414C16.3206 10.9414 16.5362 11.0324 16.6977 11.2144C16.86 11.3964 16.9412 11.6494 16.9412 11.9735C16.9412 12.2949 16.8608 12.5466 16.7002 12.7286C16.5395 12.9097 16.3247 13.0002 16.0558 13.0002C15.7836 13.0002 15.5672 12.9101 15.4065 12.73C15.2459 12.5489 15.1655 12.2999 15.1655 11.983ZM15.5464 11.9695C15.5464 12.1949 15.5942 12.366 15.69 12.4828C15.7857 12.5987 15.9072 12.6566 16.0546 12.6566C16.2019 12.6566 16.3226 12.5991 16.4167 12.4842C16.5116 12.3683 16.5591 12.1949 16.5591 11.964C16.5591 11.7359 16.5129 11.5657 16.4205 11.4534C16.3289 11.3411 16.2069 11.285 16.0546 11.285C15.9023 11.285 15.7795 11.342 15.6862 11.4561C15.593 11.5693 15.5464 11.7404 15.5464 11.9695Z" fill="white"/>
<defs>
<linearGradient id="paint0_linear" x1="21" y1="3" x2="5.5" y2="22.5" gradientUnits="userSpaceOnUse">
<stop stop-color="#0BA9B0"/>
<stop offset="1" stop-color="#021D1E"/>
</linearGradient>
</defs>
</svg>
