<?xml version="1.0" encoding="UTF-8"?>
<svg xmlns="http://www.w3.org/2000/svg" xmlns:xlink="http://www.w3.org/1999/xlink" width="24pt" height="24pt" viewBox="0 0 24 24" version="1.1">
<defs>
<linearGradient id="linear0" gradientUnits="userSpaceOnUse" x1="68.0353" y1="-110.6013" x2="166.9252" y2="110.5187" gradientTransform="matrix(0.101953,0,0,0.0981229,0.0459662,11.545137)">
<stop offset="0" style="stop-color:rgb(97.254902%,74.117647%,0%);stop-opacity:1;"/>
<stop offset="0.89" style="stop-color:rgb(92.54902%,58.431373%,0%);stop-opacity:1;"/>
</linearGradient>
</defs>
<g id="surface1">
<path style=" stroke:none;fill-rule:nonzero;fill:url(#linear0);" d="M 11.996094 0 C 5.398438 0.0117188 0.046875 5.160156 0.0546875 11.511719 C 0.0664062 17.859375 5.417969 23.011719 12.015625 23 C 18.613281 22.988281 23.953125 17.847656 23.953125 11.5 C 23.953125 5.152344 18.601562 0 11.996094 0 Z M 11.996094 0 "/>
<path style=" stroke:none;fill-rule:nonzero;fill:rgb(100%,100%,100%);fill-opacity:1;" d="M 21.832031 12.097656 C 21.84375 11.902344 21.855469 11.707031 21.855469 11.5 C 21.855469 10.046875 21.515625 8.605469 20.863281 7.289062 L 16.378906 4.808594 L 19.40625 5.132812 C 18.671875 4.308594 17.804688 3.609375 16.835938 3.0625 L 10.902344 2.953125 L 14.21875 2.011719 C 13.390625 1.804688 12.546875 1.707031 11.6875 1.707031 C 10.046875 1.707031 8.425781 2.089844 6.980469 2.824219 L 8.070312 4.652344 L 6.050781 3.355469 C 5.988281 3.394531 5.9375 3.425781 5.878906 3.464844 L 7.058594 5.523438 L 5.144531 7.085938 L 4.949219 8.527344 L 2.144531 11.1875 L 3.675781 10.949219 L 4.472656 11.253906 L 2.371094 12.785156 L 3.257812 13.902344 L 5.910156 14.109375 L 7.285156 13.058594 L 6.265625 12.226562 L 10.066406 11.980469 L 11.710938 10.273438 L 11.078125 6.300781 L 13.769531 10.566406 L 11.058594 17.074219 L 10.996094 13.167969 L 9.28125 17.4375 L 6.265625 19.78125 C 7.886719 20.761719 9.75 21.28125 11.667969 21.292969 L 14.472656 15.296875 L 14.023438 21.027344 C 15.269531 20.742188 16.449219 20.234375 17.5 19.527344 L 17.398438 12.363281 L 19.550781 17.691406 C 20.34375 16.75 20.957031 15.679688 21.34375 14.523438 L 18.722656 9.378906 Z M 7.949219 8.996094 L 6.488281 9.292969 L 5.714844 10.15625 L 5.277344 10.429688 L 6.304688 8.515625 L 6.285156 7.8125 L 9.273438 7.722656 C 9.273438 7.722656 7.949219 8.996094 7.949219 8.996094 Z M 8.132812 15.828125 L 6.929688 14.925781 L 5.550781 15.355469 L 3.664062 14.875 L 4.308594 16.59375 L 5.621094 17.425781 L 6.355469 16.808594 Z M 8.132812 15.828125 "/>
</g>
</svg>
