<svg width="24" height="24" viewBox="0 0 24 24" fill="none" xmlns="http://www.w3.org/2000/svg">
<path fill-rule="evenodd" clip-rule="evenodd" d="M0 12C0 5.37259 5.37259 0 12 0C18.6274 0 24 5.37259 24 12C24 18.6274 18.6274 24 12 24C5.37259 24 0 18.6274 0 12Z" fill="black"/>
<path d="M6.0378 12.4828C6.45388 12.4828 6.79067 12.1494 6.79067 11.7383C6.79067 11.3273 6.45384 10.9943 6.0378 10.9943C5.62206 10.9943 5.28489 11.3273 5.28489 11.7384C5.28489 12.1494 5.62206 12.4828 6.0378 12.4828Z" fill="white"/>
<path d="M18.0031 12.4828C18.4186 12.4828 18.7558 12.1494 18.7558 11.7383C18.7558 11.3273 18.4186 10.9943 18.003 10.9943C17.5872 10.9943 17.25 11.3273 17.25 11.7384C17.25 12.1494 17.5872 12.4828 18.0031 12.4828Z" fill="white"/>
<path d="M12.0204 15.4196C12.4361 15.4196 12.7733 15.0862 12.7733 14.6752C12.7733 14.2642 12.4361 13.9311 12.0204 13.9311C11.6046 13.9311 11.2674 14.2642 11.2674 14.6752C11.2674 15.0862 11.6046 15.4196 12.0204 15.4196Z" fill="white"/>
<path d="M9.00863 13.9713C9.42464 13.9713 9.76162 13.6379 9.76162 13.227C9.76162 12.8158 9.42468 12.4828 9.00863 12.4828C8.59281 12.4828 8.2558 12.8158 8.2558 13.227C8.2558 13.6379 8.59277 13.9713 9.00863 13.9713Z" fill="white"/>
<path d="M14.9914 13.9713C15.407 13.9713 15.7442 13.6379 15.7442 13.227C15.7442 12.8158 15.407 12.4828 14.9914 12.4828C14.5754 12.4828 14.2383 12.8158 14.2383 13.227C14.2383 13.6379 14.5753 13.9713 14.9914 13.9713Z" fill="white"/>
<path d="M6.03806 14.4943C6.31892 14.4943 6.54651 14.2688 6.54651 13.9916C6.54651 13.7136 6.31896 13.4885 6.03806 13.4885C5.75682 13.4885 5.52908 13.7136 5.52908 13.9916C5.52908 14.2688 5.75682 14.4943 6.03806 14.4943Z" fill="white"/>
<path d="M18.0029 14.4943C18.2837 14.4943 18.5116 14.2688 18.5116 13.9916H18.5116C18.5116 13.7136 18.2837 13.4885 18.0029 13.4885C17.7219 13.4885 17.4942 13.7136 17.4942 13.9916C17.4942 14.2688 17.7219 14.4943 18.0029 14.4943Z" fill="white"/>
<path d="M12.0205 17.4713C12.3011 17.4713 12.5291 17.2458 12.5291 16.9681C12.5291 16.6904 12.3011 16.4655 12.0205 16.4655C11.7398 16.4655 11.5116 16.6905 11.5116 16.968C11.5116 17.2458 11.7398 17.4713 12.0205 17.4713Z" fill="white"/>
<path d="M9.0089 15.9828C9.28972 15.9828 9.51742 15.7578 9.51742 15.4801C9.51742 15.2022 9.28972 14.977 9.0089 14.977C8.72789 14.977 8.49999 15.2022 8.49999 15.4801C8.49999 15.7578 8.72789 15.9828 9.0089 15.9828Z" fill="white"/>
<path d="M14.9916 15.9828C15.272 15.9828 15.5 15.7578 15.5 15.4801C15.5 15.2022 15.272 14.977 14.9916 14.977C14.7104 14.977 14.4825 15.2022 14.4825 15.4801C14.4825 15.7578 14.7104 15.9828 14.9916 15.9828Z" fill="white"/>
<path d="M6.22484 15.9461C6.27445 15.8971 6.30232 15.8306 6.30232 15.7612C6.30231 15.7269 6.29547 15.6929 6.28217 15.6612C6.26888 15.6295 6.2494 15.6007 6.22484 15.5765C6.20028 15.5522 6.17113 15.533 6.13905 15.5199C6.10697 15.5067 6.07259 15.5 6.03787 15.5C6.00314 15.5 5.96874 15.5067 5.93664 15.5198C5.90454 15.5329 5.87537 15.5522 5.85079 15.5764C5.82622 15.6007 5.80672 15.6295 5.79341 15.6612C5.7801 15.6929 5.77325 15.7269 5.77324 15.7612C5.77324 15.8306 5.80111 15.8971 5.85072 15.9461C5.90033 15.9952 5.96762 16.0227 6.03778 16.0227C6.10794 16.0227 6.17523 15.9952 6.22484 15.9461Z" fill="white"/>
<path d="M18.1899 15.9461C18.2395 15.8971 18.2674 15.8306 18.2674 15.7612C18.2674 15.6169 18.1488 15.5 18.003 15.5C17.9682 15.5 17.9338 15.5067 17.9017 15.5198C17.8696 15.5329 17.8404 15.5521 17.8159 15.5764C17.7913 15.6007 17.7718 15.6295 17.7585 15.6612C17.7452 15.6929 17.7383 15.7269 17.7383 15.7612C17.7383 15.8306 17.7662 15.8971 17.8158 15.9461C17.8654 15.9952 17.9327 16.0227 18.0029 16.0227C18.073 16.0227 18.1403 15.9952 18.1899 15.9461Z" fill="white"/>
<path d="M12.0204 19C12.1662 19 12.2849 18.8828 12.2849 18.7383C12.2848 18.669 12.257 18.6025 12.2074 18.5535C12.1578 18.5045 12.0905 18.477 12.0204 18.477C11.9857 18.477 11.9513 18.4837 11.9192 18.4968C11.8871 18.5099 11.8579 18.5292 11.8333 18.5535C11.8088 18.5777 11.7893 18.6066 11.776 18.6383C11.7627 18.67 11.7558 18.704 11.7558 18.7383C11.7558 18.8077 11.7837 18.8743 11.8333 18.9233C11.8829 18.9724 11.9502 19 12.0204 19Z" fill="white"/>
<path d="M9.19569 17.4349C9.24531 17.3859 9.27322 17.3194 9.27327 17.25C9.27327 17.2157 9.26643 17.1816 9.25313 17.1499C9.23983 17.1182 9.22034 17.0893 9.19576 17.0651C9.17118 17.0408 9.14201 17.0215 9.1099 17.0084C9.07779 16.9953 9.04338 16.9885 9.00863 16.9885C8.9739 16.9885 8.9395 16.9953 8.90741 17.0084C8.87532 17.0216 8.84617 17.0408 8.82161 17.0651C8.79706 17.0894 8.77758 17.1182 8.76429 17.15C8.75101 17.1817 8.74417 17.2157 8.74418 17.25C8.74423 17.3193 8.7721 17.3858 8.82168 17.4348C8.87126 17.4839 8.9385 17.5114 9.00863 17.5115C9.07879 17.5115 9.14607 17.4839 9.19569 17.4349Z" fill="white"/>
<path d="M14.9914 17.5115C15.1372 17.5115 15.2558 17.3943 15.2558 17.25C15.2558 17.2157 15.249 17.1817 15.2357 17.15C15.2224 17.1182 15.2029 17.0894 15.1784 17.0651C15.1538 17.0409 15.1247 17.0216 15.0926 17.0084C15.0605 16.9953 15.0261 16.9885 14.9914 16.9885C14.9566 16.9885 14.9222 16.9952 14.8901 17.0083C14.8579 17.0214 14.8287 17.0407 14.8042 17.065C14.7796 17.0893 14.7601 17.1181 14.7468 17.1499C14.7335 17.1816 14.7267 17.2156 14.7267 17.25C14.7267 17.2844 14.7336 17.3184 14.7469 17.3501C14.7602 17.3818 14.7797 17.4107 14.8042 17.435C14.8288 17.4593 14.858 17.4785 14.8901 17.4916C14.9222 17.5048 14.9566 17.5115 14.9914 17.5115Z" fill="white"/>
<path d="M12.0003 7.01151C12.5619 7.01151 13.0175 6.56137 13.0175 6.00581L13.0174 6.00577C13.0174 5.45032 12.5619 5 12.0003 5C11.4381 5 10.9825 5.45032 10.9825 6.00581C10.9825 6.56137 11.4381 7.01151 12.0003 7.01151Z" fill="white"/>
<path d="M12.0003 9.98849C12.5619 9.98849 13.0174 9.53824 13.0174 8.98276C13.0174 8.42742 12.5619 7.97702 12.0003 7.97702C11.4381 7.97702 10.9825 8.42742 10.9825 8.98276C10.9825 9.53824 11.4381 9.98849 12.0003 9.98849Z" fill="white"/>
<path d="M12.0003 12.9253C12.5619 12.9253 13.0174 12.475 13.0174 11.9197C13.0174 11.3641 12.5619 10.9138 12.0003 10.9138C11.4381 10.9138 10.9825 11.3641 10.9825 11.9197C10.9825 12.475 11.4381 12.9253 12.0003 12.9253Z" fill="white"/>
<path d="M17.9826 9.98849C18.5444 9.98849 19 9.53824 19 8.98276C19 8.42742 18.5445 7.97702 17.9826 7.97702C17.4206 7.97702 16.9651 8.42742 16.9651 8.98276C16.9651 9.53824 17.4206 9.98849 17.9826 9.98849Z" fill="white"/>
<path d="M6.01755 9.98849C6.57945 9.98849 7.03486 9.53824 7.03486 8.98276C7.03486 8.42742 6.57945 7.97702 6.01751 7.97702C5.4556 7.97702 5 8.42742 5 8.98276C5 9.53824 5.45556 9.98849 6.01755 9.98849Z" fill="white"/>
<path d="M9.02907 8.49998C9.59106 8.49998 10.0465 8.04966 10.0465 7.49425C10.0465 6.93846 9.59102 6.48851 9.02907 6.48851C8.46709 6.48851 8.01164 6.93846 8.01164 7.49425C8.01164 8.04966 8.46709 8.49998 9.02907 8.49998Z" fill="white"/>
<path d="M9.02907 11.4367C9.59106 11.4367 10.0465 10.9864 10.0465 10.4309C10.0465 9.87563 9.59102 9.42527 9.02907 9.42527C8.46709 9.42527 8.01164 9.87563 8.01164 10.4309C8.01164 10.9864 8.46709 11.4367 9.02907 11.4367Z" fill="white"/>
<path d="M15.0115 8.49998C15.5735 8.49998 16.0291 8.04966 16.0291 7.49425C16.0291 6.93846 15.5735 6.48851 15.0115 6.48851C14.4496 6.48851 13.9942 6.93846 13.9942 7.49425C13.9942 8.04966 14.4496 8.49998 15.0115 8.49998Z" fill="white"/>
<path d="M15.0115 11.4367C15.5735 11.4367 16.0291 10.9864 16.0291 10.4309C16.0291 9.87563 15.5735 9.42527 15.0115 9.42527C14.4496 9.42527 13.9942 9.87563 13.9942 10.4309C13.9942 10.9864 14.4496 11.4367 15.0115 11.4367Z" fill="white"/>
<path d="M23.5 12C23.5 18.3513 18.3513 23.5 12 23.5C5.64873 23.5 0.5 18.3513 0.5 12C0.5 5.64873 5.64873 0.5 12 0.5C18.3513 0.5 23.5 5.64873 23.5 12Z" stroke="white" stroke-opacity="0.3"/>
</svg>
