<svg width="24" height="24" viewBox="0 0 24 24" fill="none" xmlns="http://www.w3.org/2000/svg">
<path d="M12 24C18.6274 24 24 18.6274 24 12C24 5.37258 18.6274 0 12 0C5.37258 0 0 5.37258 0 12C0 18.6274 5.37258 24 12 24Z" fill="black"/>
<path d="M9.32454 14.1722L11.8986 19.3939L13.2208 15.4888L9.32536 14.1722H9.32454ZM4.61754 11.9068L8.51536 13.2298L9.83918 9.327L4.61754 11.9068ZM9.552 13.5628C9.61336 13.5954 9.63872 13.615 9.66736 13.6249C10.924 14.052 12.1792 14.4824 13.4392 14.8988C13.5414 14.9316 13.687 14.9038 13.7878 14.8546C15.2286 14.1518 16.6652 13.4408 18.102 12.7314C18.5111 12.5294 18.9186 12.3248 19.3644 12.1022C19.2662 12.0646 19.2156 12.0434 19.1624 12.0254C17.9458 11.6122 16.729 11.1966 15.5084 10.7948C15.3794 10.7568 15.2413 10.7655 15.118 10.8194C13.5864 11.5639 12.0606 12.3208 10.5338 13.0742C10.2156 13.2314 9.8989 13.39 9.552 13.5628ZM14.8694 10.2368C13.9448 8.35991 13.0318 6.51082 12.0958 4.61182L9.24846 13.012L14.8694 10.2368ZM3 12.0016C3.89509 11.559 4.73946 11.1384 5.58546 10.7212C7.02382 10.0118 8.46218 9.30164 9.903 8.59718C10.0475 8.53386 10.1565 8.40985 10.2008 8.25846C10.7638 6.57872 11.3348 4.90228 11.9042 3.225C11.9256 3.16282 11.951 3.10228 11.9902 3C12.0474 3.11128 12.09 3.18982 12.1292 3.26918C13.2298 5.50282 14.3286 7.73646 15.438 9.96518C15.492 10.0732 15.6344 10.1632 15.7562 10.2049C17.422 10.7792 19.0912 11.3438 20.7594 11.9108C20.8224 11.932 20.8846 11.955 21 11.9959C20.8462 12.0736 20.7324 12.1334 20.618 12.1898C18.4678 13.251 16.3184 14.3146 14.165 15.3684C13.9682 15.4546 13.8203 15.6242 13.7616 15.8308C13.206 17.4949 12.6366 19.1542 12.0712 20.8151C12.0556 20.861 12.0368 20.9051 12 21C11.8552 20.7096 11.73 20.4616 11.6072 20.2129C10.6058 18.1822 9.60354 16.1514 8.60782 14.1174C8.53923 13.9574 8.40317 13.836 8.23636 13.786C6.56564 13.2272 4.89818 12.657 3.22991 12.09C3.16854 12.0688 3.10882 12.0434 3 12.0016Z" fill="white"/>
<path d="M23.5 12C23.5 18.3513 18.3513 23.5 12 23.5C5.64873 23.5 0.5 18.3513 0.5 12C0.5 5.64873 5.64873 0.5 12 0.5C18.3513 0.5 23.5 5.64873 23.5 12Z" stroke="white" stroke-opacity="0.3"/>
</svg>
