<svg width="24" height="24" viewBox="0 0 24 24" fill="none" xmlns="http://www.w3.org/2000/svg">
<path d="M12.9103 23.9647C19.5232 23.4603 24.469 17.6945 23.9646 11.0846C23.4712 4.48571 17.7027 -0.468883 11.0898 0.0353122C4.47697 0.539507 -0.469026 6.30535 0.0353965 12.9152C0.52899 19.5141 6.29744 24.4689 12.9103 23.9647Z" fill="#0045FF"/>
<path d="M23.5 12C23.5 18.3513 18.3513 23.5 12 23.5C5.64873 23.5 0.5 18.3513 0.5 12C0.5 5.64873 5.64873 0.5 12 0.5C18.3513 0.5 23.5 5.64873 23.5 12Z" stroke="black" stroke-opacity="0.097"/>
<path fill-rule="evenodd" clip-rule="evenodd" d="M10.1609 7.12175L10.318 8.77155C10.3446 9.04614 10.6026 9.23565 10.8583 9.16719L14.2886 8.24845C14.6875 8.14158 14.9483 7.75081 14.9076 7.32133L14.7501 5.67183C14.7239 5.39678 14.4658 5.20742 14.2102 5.27573L10.7799 6.19447C10.381 6.30135 10.1202 6.69241 10.1609 7.12175Z" fill="white"/>
<path fill-rule="evenodd" clip-rule="evenodd" d="M10.8189 16.5665L10.976 18.2164C11.0026 18.491 11.2605 18.6802 11.5162 18.6118L16.549 17.2638C16.9478 17.157 17.2091 16.7663 17.1679 16.337L17.011 14.6874C16.9846 14.4123 16.7262 14.223 16.471 14.2914L11.4379 15.6393C11.039 15.7462 10.7782 16.1373 10.8189 16.5665Z" fill="#A9CCFF"/>
<path fill-rule="evenodd" clip-rule="evenodd" d="M6.46337 12.9236L6.62047 14.5731C6.64671 14.8482 6.9051 15.0372 7.16059 14.9689L13.6905 13.22C14.0894 13.1132 14.3505 12.7222 14.3098 12.2931L14.1523 10.6432C14.1261 10.3685 13.868 10.179 13.6125 10.2475L7.08234 11.9965C6.68347 12.1032 6.42218 12.4942 6.46337 12.9236Z" fill="#C7E0FF"/>
</svg>
