<svg width="24" height="24" viewBox="0 0 24 24" fill="none" xmlns="http://www.w3.org/2000/svg">
<path d="M12 24C18.6274 24 24 18.6274 24 12C24 5.37258 18.6274 0 12 0C5.37258 0 0 5.37258 0 12C0 18.6274 5.37258 24 12 24Z" fill="#F5F5F5"/>
<path d="M3.00059 11.8106C3.14407 11.5634 3.34743 11.3677 3.54723 11.1673C6.16661 8.54972 8.78479 5.93153 11.403 3.31334C11.8192 2.89714 12.1227 2.89536 12.5366 3.30919C15.2182 5.99023 17.8992 8.67126 20.5803 11.3529C21.0054 11.778 21.003 12.0821 20.5743 12.512C20.1836 12.9033 19.7935 13.2952 19.401 13.6847C19.0139 14.0701 18.6896 14.0713 18.3077 13.6895C16.3803 11.7626 14.4534 9.83569 12.5259 7.90881C12.0961 7.47897 11.8299 7.47659 11.3988 7.90703C9.47788 9.8262 7.55811 11.7466 5.63775 13.6669C5.22866 14.076 4.93577 14.0778 4.53202 13.6752C4.12708 13.2703 3.72747 12.8594 3.31364 12.464C3.18379 12.3395 3.11502 12.1788 3 12.0483C3.00059 11.9683 3.00059 11.8894 3.00059 11.8106Z" fill="#01E194"/>
<path d="M11.7575 20.9264C11.6508 20.828 11.5655 20.7088 11.4635 20.6062C9.9279 19.0695 8.39114 17.5333 6.85497 15.9965C6.49627 15.6372 6.49686 15.3171 6.86149 14.9525C8.38995 13.4222 9.9196 11.8932 11.4498 10.3641C11.8014 10.0125 12.1263 10.0102 12.4738 10.357C14.0111 11.8926 15.5473 13.4287 17.0829 14.9661C17.4332 15.3165 17.4392 15.645 17.0912 15.9936C15.5568 17.5321 14.0194 19.0671 12.4821 20.6027C12.3736 20.7112 12.2508 20.8042 12.1441 20.9139C12.0404 21.0094 11.9319 21.0414 11.7575 20.9264Z" fill="#182288"/>
<path d="M23.5 12C23.5 18.3513 18.3513 23.5 12 23.5C5.64873 23.5 0.5 18.3513 0.5 12C0.5 5.64873 5.64873 0.5 12 0.5C18.3513 0.5 23.5 5.64873 23.5 12Z" stroke="black" stroke-opacity="0.097"/>
</svg>
