<svg width="24" height="24" viewBox="0 0 24 24" fill="none" xmlns="http://www.w3.org/2000/svg">
<path fill-rule="evenodd" clip-rule="evenodd" d="M0 12C0 5.37259 5.37259 0 12 0C18.6274 0 24 5.37259 24 12C24 18.6274 18.6274 24 12 24C5.37259 24 0 18.6274 0 12Z" fill="#1A82FF"/>
<path d="M12 2C17.5229 2 22 6.47714 22 12C22 17.5229 17.5229 22 12 22C6.47714 22 2 17.5229 2 12C2 6.47714 6.47714 2 12 2Z" fill="#1A82FF"/>
<path d="M17.2228 17.8824C15.9861 19.3975 14.2468 20.1551 12.0049 20.1551C9.76298 20.1551 8.02339 19.3975 6.78611 17.8824C5.54856 16.3665 4.93006 14.407 4.9306 12.004C4.93115 9.60105 5.54938 7.64187 6.7853 6.1265C8.02203 4.61058 9.76162 3.85276 12.0041 3.85303C14.2465 3.8533 15.9858 4.61112 17.222 6.1265C18.4588 7.6416 19.0773 9.60078 19.0775 12.004C19.0778 14.4073 18.4596 16.3668 17.2228 17.8824Z" fill="white"/>
<path d="M11.9788 16.987C12.569 16.987 13.0707 16.8262 13.4841 16.5046C13.8974 16.1829 14.1967 15.7467 14.382 15.196C14.5671 14.645 14.6977 14.1168 14.7739 13.6115C14.8501 13.1062 14.8879 12.5704 14.8873 12.0042C14.8873 11.307 14.8452 10.6831 14.7608 10.1323L9.6759 15.4311C10.1461 16.4678 10.9137 16.9865 11.9788 16.987Z" fill="#1A82FF"/>
<path d="M12.0294 7.02148C11.4392 7.02148 10.9374 7.1823 10.5241 7.50393C10.1107 7.82557 9.81141 8.26176 9.6261 8.8125C9.43998 9.36353 9.30937 9.89169 9.23426 10.397C9.15807 10.9023 9.12025 11.4381 9.12079 12.0043C9.12079 12.3774 9.13277 12.7295 9.15671 13.0607L14.0065 8.00761C13.5355 7.35046 12.8764 7.02176 12.0294 7.02148V7.02148Z" fill="#1A82FF"/>
<path d="M5.32572 17.0557L4.70123 16.4565L9.43674 11.5202L10.0612 12.1193L5.32572 17.0557ZM14.2482 11.9047L13.6237 11.3055L18.3592 6.36914L18.9837 6.96832L14.2482 11.9047Z" fill="#1A82FF"/>
<path d="M23.5 12C23.5 18.3513 18.3513 23.5 12 23.5C5.64873 23.5 0.5 18.3513 0.5 12C0.5 5.64873 5.64873 0.5 12 0.5C18.3513 0.5 23.5 5.64873 23.5 12Z" stroke="white" stroke-opacity="0.3"/>
</svg>
