<svg width="24" height="24" viewBox="0 0 24 24" fill="none" xmlns="http://www.w3.org/2000/svg">
<path d="M12 24C18.6274 24 24 18.6274 24 12C24 5.37258 18.6274 0 12 0C5.37258 0 0 5.37258 0 12C0 18.6274 5.37258 24 12 24Z" fill="#F01871"/>
<path d="M23.5 12C23.5 18.3513 18.3513 23.5 12 23.5C5.64873 23.5 0.5 18.3513 0.5 12C0.5 5.64873 5.64873 0.5 12 0.5C18.3513 0.5 23.5 5.64873 23.5 12Z" stroke="black" stroke-opacity="0.097"/>
<path d="M14.1735 14.2699C14.445 14.4638 14.5807 14.5802 14.7359 14.6771C15.6668 15.2978 16.6753 15.3559 17.3346 14.7353C18.0328 14.0566 18.091 13.2032 17.7613 12.3305C17.4123 11.3414 16.5977 10.7402 15.6086 10.8954C15.1625 10.9729 14.6389 11.3026 14.3868 11.6711C13.7662 12.5632 13.5529 13.7075 12.525 14.3087C12.3892 14.3863 12.428 14.8323 12.428 15.1039C12.4474 17.0432 11.0316 18.5365 8.99526 18.7305C7.38555 18.8856 4.98072 17.5863 5.00012 15.7826C5.85345 16.1705 6.66798 16.7135 7.57949 16.9075C8.33588 17.082 9.24739 17.0044 10.0037 16.7523C10.9929 16.4226 11.4583 15.4723 11.3419 14.619C11.2256 13.882 10.9347 13.6881 9.44133 13.436C9.34436 13.0093 9.24739 12.5439 9.15042 12.0202C9.30559 12.0008 9.42192 11.962 9.5383 11.962C10.2171 11.9038 10.954 11.8844 11.0122 10.9341C11.0704 10.1778 10.3528 9.28565 9.51889 9.36326C8.70435 9.44081 7.948 9.86747 7.01708 10.1972C6.84255 9.92566 6.55164 9.47959 6.28012 9.03357C7.46315 7.63716 9.40256 7.36566 10.8183 8.39355C12.1177 9.32443 12.2341 10.8178 11.0898 12.5632C11.4195 12.8735 11.7492 13.1838 12.2146 13.6299C12.3698 13.1645 12.4474 12.8348 12.5637 12.5244C12.7189 12.0784 12.8352 11.5935 13.0874 11.1863C13.708 10.1196 14.5613 9.38262 15.8995 9.53778C17.1989 9.69294 17.86 10.4642 18.3582 11.6682C18.898 13.0798 18.6778 14.1421 18.3582 14.9482C18.0386 15.7542 16.8498 16.5778 15.9965 16.442C14.8716 16.2675 14.2316 15.5499 14.1735 14.2699Z" fill="white"/>
<path d="M10.4305 6.84264C12.2147 8.08387 13.7856 7.9093 15.3759 6.82324C15.6668 7.2887 15.919 7.67658 16.1711 8.06446C14.2899 9.53838 11.2256 8.78203 10.4305 6.84264Z" fill="white"/>
<path d="M11.8463 6.12485C12.1954 5.69818 12.4669 5.38788 12.7966 5C13.1845 5.40727 13.4366 5.67879 13.7469 6.02788C13.456 6.35758 13.1845 6.64848 12.8354 7.01697C12.5057 6.72606 12.2148 6.45455 11.8463 6.12485Z" fill="white"/>
</svg>
