<svg width="24" height="24" viewBox="0 0 24 24" fill="none" xmlns="http://www.w3.org/2000/svg">
<path d="M12 24C18.6274 24 24 18.6274 24 12C24 5.37258 18.6274 0 12 0C5.37258 0 0 5.37258 0 12C0 18.6274 5.37258 24 12 24Z" fill="#3BFDFF"/>
<path d="M23.4827 11.9999C23.4827 18.3416 18.3417 23.4826 12 23.4826C5.65832 23.4826 0.517359 18.3416 0.517359 11.9999C0.517359 5.6582 5.65832 0.517237 12 0.517237C18.3417 0.517237 23.4827 5.6582 23.4827 11.9999Z" stroke="black" stroke-opacity="0.097" stroke-width="1.03447"/>
<path d="M8.99312 14.4241C9.05121 14.1948 9.11542 13.9349 9.17963 13.675C9.45482 12.6048 9.73001 11.5346 10.0052 10.4644C10.0113 10.4461 10.0174 10.4247 10.0205 10.4063C10.0388 10.3299 10.0633 10.2535 10.1489 10.2321C10.2406 10.2107 10.3018 10.2688 10.3568 10.333C10.5403 10.5439 10.7207 10.7549 10.9041 10.969C11.7542 11.9596 12.6042 12.9472 13.4573 13.9349C13.5154 14.0021 13.5765 14.0725 13.5337 14.1642C13.494 14.2498 13.4053 14.2498 13.3227 14.2559C12.2923 14.3629 11.2649 14.473 10.2345 14.58C9.90735 14.6137 9.57713 14.6504 9.24996 14.6809C9.08179 14.6962 8.99006 14.6106 8.99312 14.4241Z" fill="#191919"/>
<path d="M15.1267 9.59056C15.0808 9.77402 15.0258 9.99111 14.9708 10.2051C14.6834 11.3181 14.399 12.4342 14.1116 13.5471C14.1024 13.5808 14.0963 13.6175 14.0841 13.6511C14.029 13.8132 13.9159 13.8437 13.7997 13.7184C13.5643 13.4585 13.3349 13.1925 13.1056 12.9264C12.3015 11.9908 11.4942 11.0552 10.6901 10.1195C10.6626 10.089 10.635 10.0584 10.6136 10.0247C10.525 9.88715 10.5678 9.78319 10.7268 9.76484C11.0906 9.72204 11.4514 9.68535 11.8153 9.64865C12.5583 9.57221 13.3013 9.49271 14.0412 9.41627C14.3134 9.38875 14.5855 9.35818 14.8607 9.33372C15.038 9.32454 15.1267 9.40404 15.1267 9.59056Z" fill="#191919"/>
<path d="M13.4175 14.6476C13.4664 14.6476 13.5428 14.6415 13.5857 14.7149C13.6285 14.7944 13.5887 14.8616 13.549 14.9289C13.0842 15.7269 12.6164 16.5219 12.1516 17.32C11.9682 17.6349 11.7816 17.9498 11.5982 18.2648C11.4759 18.4727 11.3261 18.4819 11.1915 18.2831C10.5402 17.3383 9.89202 16.3935 9.2438 15.4487C9.22545 15.4242 9.21016 15.3998 9.19488 15.3722C9.10315 15.2071 9.15207 15.094 9.33859 15.0665C9.57097 15.0359 9.80335 15.0176 10.0357 14.9931C11.1151 14.88 12.1975 14.7699 13.2768 14.6568C13.3135 14.6537 13.3533 14.6506 13.4175 14.6476Z" fill="#191919"/>
<path d="M14.6191 13.9469C14.4815 13.9438 14.4357 13.8674 14.4693 13.7237C14.5488 13.3996 14.6344 13.0755 14.717 12.7513C14.9646 11.7851 15.2154 10.8189 15.463 9.8527C15.5364 9.56834 15.6587 9.53165 15.8728 9.73039C16.7014 10.5009 17.53 11.2745 18.3586 12.045C18.5788 12.2499 18.5513 12.3844 18.273 12.4945C17.0958 12.9654 15.9186 13.4332 14.7414 13.9041C14.6956 13.9255 14.6466 13.9377 14.6191 13.9469Z" fill="#191919"/>
<path d="M10.6962 9.37287C10.5128 9.37287 10.4639 9.2628 10.5709 9.07934C10.8002 8.6849 11.0295 8.29047 11.2619 7.89603C11.6747 7.18972 12.0875 6.48646 12.5002 5.78014C12.6501 5.5233 12.7815 5.52024 12.9497 5.7618C13.5918 6.69438 14.2309 7.62696 14.873 8.55954C14.8913 8.584 14.9066 8.60846 14.9219 8.63598C15.0228 8.80415 14.9678 8.9234 14.7721 8.9448C14.4938 8.97538 14.2156 9.0029 13.9373 9.03347C12.8886 9.14355 11.8367 9.25362 10.788 9.36064C10.7543 9.36676 10.7268 9.36981 10.6962 9.37287Z" fill="#191919"/>
<path d="M9.4823 10.0762C9.62906 10.0762 9.67187 10.1373 9.63518 10.2841C9.53428 10.703 9.43032 11.1219 9.3233 11.5377C9.10009 12.4061 8.87382 13.2745 8.65062 14.1428C8.64144 14.1826 8.63227 14.2223 8.61698 14.259C8.55889 14.418 8.43964 14.4578 8.31122 14.3477C8.13999 14.204 7.97794 14.048 7.81588 13.8952C7.11262 13.2408 6.41242 12.5865 5.71222 11.9291C5.54099 11.767 5.56546 11.6264 5.78561 11.5377C6.9842 11.0577 8.18585 10.5807 9.38751 10.1006C9.42726 10.0884 9.46701 10.0792 9.4823 10.0762Z" fill="#191919"/>
<path d="M18.591 12.9954C18.5696 13.13 18.5023 13.2614 18.4504 13.399C18.007 14.6007 17.5575 15.8023 17.1111 17.004C17.1019 17.0315 17.0897 17.0621 17.0775 17.0896C16.998 17.2608 16.8757 17.2884 16.7473 17.1477C16.5485 16.9306 16.3589 16.7044 16.1663 16.4811C15.6679 15.9002 15.1665 15.3192 14.6681 14.7383C14.5152 14.5609 14.5519 14.4111 14.7659 14.3255C15.9492 13.8516 17.1295 13.3807 18.3128 12.9098C18.3556 12.8915 18.3984 12.8731 18.4412 12.864C18.536 12.8425 18.591 12.8823 18.591 12.9954Z" fill="#191919"/>
<path d="M5.68785 11.1523C5.51968 11.1493 5.49827 11.082 5.53191 10.9811C5.59917 10.7885 5.66339 10.5989 5.73371 10.4063C6.15872 9.26575 6.58374 8.12831 7.01181 6.99087C7.10659 6.73708 7.23196 6.71262 7.41236 6.9236C8.08504 7.7033 8.76078 8.483 9.43346 9.26575C9.59857 9.45838 9.568 9.60821 9.33561 9.703C8.15536 10.1769 6.97206 10.6478 5.78875 11.1217C5.74288 11.134 5.69702 11.1523 5.68785 11.1523Z" fill="#191919"/>
<path d="M12.008 5.40723C12.1608 5.40723 12.2067 5.47755 12.1394 5.60903C12.0202 5.83224 11.8887 6.04933 11.7603 6.26642C11.2313 7.16843 10.7054 8.07043 10.1764 8.96938C10.0511 9.18342 9.88901 9.19565 9.72695 9.00607C9.07262 8.24778 8.4244 7.48642 7.767 6.7373C7.52545 6.45906 7.57131 6.32452 7.93517 6.25114C9.25608 5.98818 10.577 5.70382 11.8948 5.42557C11.9376 5.4164 11.9835 5.41028 12.008 5.40723Z" fill="#191919"/>
<path d="M16.5027 17.5155C16.5027 17.6715 16.414 17.7112 16.3162 17.7326C15.8789 17.8244 15.4417 17.913 15.0044 18.0048C14.1544 18.1821 13.3074 18.3625 12.4574 18.5398C12.3534 18.5613 12.2495 18.5857 12.1455 18.6071C12.0783 18.6224 12.0079 18.6316 11.9651 18.5674C11.9223 18.5062 11.9498 18.442 11.9835 18.3809C12.1792 18.0476 12.3749 17.7143 12.5675 17.3841C13.0231 16.6044 13.4787 15.8247 13.9373 15.045C14.0627 14.8309 14.2064 14.8095 14.3715 14.9991C14.8882 15.5923 15.4019 16.1916 15.9156 16.7878C16.0807 16.9805 16.2458 17.1731 16.414 17.3657C16.4568 17.4146 16.5057 17.4697 16.5027 17.5155Z" fill="#191919"/>
<path d="M8.20725 14.9228C8.20419 15.0176 8.1675 15.0971 8.09411 15.1613C7.55903 15.62 7.02394 16.0847 6.48579 16.5403C6.31456 16.6871 6.1892 16.632 6.14945 16.4088C5.92013 15.1368 5.68775 13.8649 5.46148 12.5898C5.44619 12.5073 5.37893 12.3911 5.47983 12.3391C5.57462 12.2902 5.64188 12.3972 5.70609 12.4583C6.37572 13.0821 7.04228 13.7059 7.70885 14.3327C7.84339 14.458 7.97486 14.5834 8.1094 14.7057C8.17361 14.7638 8.20113 14.8372 8.20725 14.9228Z" fill="#191919"/>
<path d="M8.5589 15.3841C8.69955 15.378 8.77599 15.4605 8.84326 15.5614C9.26828 16.1821 9.69329 16.7998 10.1183 17.4174C10.3048 17.6895 10.4944 17.9586 10.6778 18.2338C10.7237 18.3011 10.8185 18.3744 10.7573 18.4601C10.6931 18.5487 10.5953 18.4723 10.5219 18.4478C9.58015 18.1329 8.6384 17.8118 7.6997 17.4908C7.40617 17.3899 7.11264 17.2951 6.82216 17.1942C6.60813 17.1178 6.58061 16.9863 6.75183 16.8395C7.28081 16.3809 7.81284 15.9253 8.34487 15.4697C8.40602 15.4085 8.47635 15.378 8.5589 15.3841Z" fill="#191919"/>
<path d="M15.5577 8.63634C15.4232 8.6394 15.3437 8.5599 15.2764 8.459C14.7322 7.66401 14.1849 6.87208 13.6375 6.07709C13.5519 5.95173 13.4633 5.82637 13.3807 5.701C13.3532 5.65819 13.3043 5.60316 13.3501 5.55118C13.3929 5.50531 13.4541 5.52672 13.5061 5.542C13.9831 5.701 14.457 5.86 14.934 6.02205C15.7076 6.28501 16.4781 6.54491 17.2517 6.80787C17.5116 6.89654 17.5391 7.02496 17.3312 7.2023C16.8175 7.64566 16.2977 8.08902 15.784 8.53238C15.7198 8.59353 15.6495 8.63634 15.5577 8.63634Z" fill="#191919"/>
<path d="M18.6767 11.5688C18.6706 11.6146 18.6828 11.6605 18.64 11.685C18.5972 11.7064 18.5575 11.685 18.5269 11.6605C18.4443 11.5932 18.3649 11.5229 18.2854 11.4495C17.5423 10.7585 16.7993 10.0644 16.0594 9.37033C15.8454 9.17159 15.8484 9.00341 16.0686 8.81078C16.5822 8.36743 17.099 7.92101 17.6157 7.48071C17.79 7.33088 17.9154 7.37369 17.9582 7.5969C18.1172 8.45915 18.2701 9.32141 18.426 10.1837C18.4994 10.5964 18.5789 11.0092 18.6553 11.4251C18.6614 11.477 18.6706 11.526 18.6767 11.5688Z" fill="#191919"/>
<path d="M4.47998 9.12231C4.50138 8.9572 4.53196 8.80738 4.66038 8.69424C5.2291 8.18056 5.79782 7.66688 6.3696 7.15319C6.4063 7.11956 6.45216 7.06146 6.49802 7.09816C6.55 7.13485 6.51331 7.19906 6.49497 7.25104C6.06995 8.38848 5.65106 9.52287 5.2291 10.6573C5.21993 10.6817 5.21076 10.7031 5.19853 10.7276C5.17712 10.7734 5.1496 10.8224 5.09151 10.8224C5.03036 10.8224 5.00895 10.7673 4.99366 10.7184C4.8897 10.4218 4.7888 10.1252 4.69096 9.82557C4.62369 9.62377 4.56254 9.41891 4.49833 9.2171C4.48915 9.18653 4.4861 9.14983 4.47998 9.12231Z" fill="#191919"/>
<path d="M10.2345 4.09258C10.3232 4.08341 10.4088 4.11093 10.4914 4.15374C10.9194 4.37389 11.3506 4.59098 11.7817 4.81113C11.8 4.8203 11.8184 4.82948 11.8337 4.84171C11.8765 4.86923 11.9285 4.89674 11.9162 4.9579C11.904 5.01599 11.849 5.03128 11.8 5.04045C11.5218 5.10161 11.2466 5.16276 10.9684 5.22391C10.0602 5.41654 9.15213 5.60918 8.24401 5.79569C8.17368 5.81098 8.06667 5.87519 8.02386 5.78346C7.99023 5.71008 8.09724 5.66116 8.15534 5.61529C8.71489 5.15053 9.27749 4.69494 9.83704 4.23324C9.95323 4.13845 10.0786 4.08341 10.2345 4.09258Z" fill="#191919"/>
<path d="M13.8915 19.9309C13.7875 19.9278 13.7019 19.9034 13.6193 19.8606C13.1913 19.6404 12.7601 19.4233 12.3321 19.2032C12.274 19.1726 12.1975 19.1512 12.2037 19.0717C12.2098 18.9861 12.2923 18.983 12.3535 18.9677C12.9681 18.8332 13.5827 18.6956 14.2003 18.5702C14.7812 18.454 15.3622 18.3226 15.9432 18.2094C15.9951 18.2003 16.0655 18.1666 16.096 18.2247C16.1297 18.2889 16.0563 18.3226 16.0165 18.3562C15.4234 18.8424 14.8302 19.3285 14.237 19.8147C14.133 19.8972 14.0107 19.9217 13.8915 19.9309Z" fill="#191919"/>
<path d="M19.6306 14.8833C19.6215 15.0698 19.5756 15.2135 19.4533 15.3205C18.8846 15.8342 18.3158 16.3479 17.7471 16.8616C17.7104 16.8952 17.6585 16.9472 17.6187 16.9197C17.5576 16.8799 17.5973 16.8096 17.6187 16.7546C17.9245 15.9321 18.2302 15.1126 18.5391 14.2932C18.6552 13.9843 18.7684 13.6755 18.8846 13.3667C18.8999 13.33 18.909 13.2872 18.9335 13.2566C18.9916 13.171 19.0558 13.1588 19.1017 13.2658C19.1506 13.3789 19.1873 13.4921 19.227 13.6082C19.3493 13.9782 19.4747 14.3482 19.5939 14.7182C19.6123 14.7793 19.6215 14.8466 19.6306 14.8833Z" fill="#191919"/>
<path d="M9.44249 19.7074C9.35382 19.7013 9.24375 19.6738 9.15202 19.5912C8.51297 19.0255 7.87087 18.4629 7.23182 17.9003C7.21959 17.8911 7.20736 17.882 7.19818 17.8697C7.16761 17.8361 7.10951 17.8055 7.13397 17.7597C7.16455 17.7046 7.22264 17.7444 7.26851 17.7597C7.94731 17.989 8.62304 18.2183 9.30184 18.4476C9.70545 18.5852 10.106 18.7228 10.5096 18.8604C10.5432 18.8727 10.5769 18.8788 10.6105 18.8971C10.6625 18.9216 10.7267 18.9399 10.7328 19.0164C10.7389 19.0928 10.69 19.1264 10.635 19.157C10.5555 19.2029 10.476 19.2457 10.3965 19.2915C10.1916 19.4016 9.9837 19.5117 9.77883 19.6218C9.68099 19.6707 9.5862 19.7104 9.44249 19.7074Z" fill="#191919"/>
<path d="M14.6252 4.3099C14.7689 4.30684 14.8913 4.35882 14.9983 4.45361C15.6343 5.01621 16.2672 5.57882 16.9032 6.13837C16.9399 6.172 17.0041 6.20564 16.9766 6.25762C16.946 6.31571 16.8818 6.26985 16.839 6.25456C15.7352 5.88153 14.6314 5.50544 13.5275 5.12935C13.4603 5.10794 13.3838 5.08654 13.3808 4.99787C13.3777 4.9092 13.445 4.87862 13.5092 4.84499C13.8088 4.68599 14.1085 4.52699 14.4081 4.36494C14.4754 4.32519 14.5457 4.30684 14.6252 4.3099Z" fill="#191919"/>
<path d="M20.0648 10.5193C20.0526 10.6263 20.0373 10.7272 19.967 10.8189C19.759 11.0941 19.5572 11.3754 19.3493 11.6506C19.3096 11.7026 19.2668 11.7637 19.1873 11.7454C19.1108 11.7271 19.0955 11.6598 19.0833 11.5925C18.9641 10.9504 18.8448 10.3052 18.7286 9.66314C18.6399 9.17392 18.5513 8.6847 18.4657 8.19547C18.4626 8.17407 18.4565 8.15572 18.4565 8.13432C18.4626 8.08846 18.4198 8.02119 18.484 7.99978C18.5329 7.9845 18.5543 8.05176 18.5788 8.0854C19.0466 8.80394 19.5114 9.52555 19.9792 10.2441C20.0373 10.3267 20.0556 10.4214 20.0648 10.5193Z" fill="#191919"/>
<path d="M4.04584 13.4888C4.05501 13.3787 4.08253 13.2778 4.14674 13.1891C4.34549 12.9261 4.54118 12.6601 4.73992 12.3972C4.78884 12.333 4.83471 12.2504 4.93561 12.281C5.02428 12.3085 5.02428 12.4002 5.03651 12.4706C5.24443 13.608 5.4493 14.7454 5.65416 15.8798C5.66333 15.9257 5.69085 15.993 5.63887 16.0174C5.58077 16.0419 5.55631 15.9716 5.52879 15.9318C5.06097 15.2133 4.59621 14.4917 4.13145 13.7731C4.0703 13.6844 4.05807 13.5866 4.04584 13.4888Z" fill="#191919"/>
<path d="M4.00913 12.3729C4.08557 11.6268 4.15895 10.8869 4.23539 10.1439C4.24151 10.098 4.23234 10.0246 4.29349 10.0154C4.35464 10.0063 4.36382 10.0796 4.3791 10.1255C4.50753 10.4985 4.63595 10.8716 4.75214 11.2477C4.82246 11.4678 4.78577 11.6788 4.64512 11.8684C4.50447 12.061 4.36076 12.2506 4.21705 12.4401C4.17118 12.5013 4.12838 12.6114 4.04276 12.5777C3.96326 12.5502 4.02136 12.4432 4.00913 12.3729Z" fill="#191919"/>
<path d="M12.6745 4.74666C12.5674 4.74666 12.4696 4.7222 12.3779 4.67328C12.0538 4.50816 11.7266 4.34305 11.3994 4.17794C11.3627 4.15959 11.326 4.14125 11.2924 4.11679C11.2649 4.09844 11.2221 4.07704 11.2312 4.03729C11.2435 3.99448 11.2893 3.98225 11.3321 3.98531C11.3872 3.98837 11.4422 3.99754 11.4973 4.0006C12.1913 4.03423 12.8854 4.06786 13.5826 4.10456C13.6376 4.10761 13.6957 4.10761 13.7507 4.11984C13.8333 4.13819 13.8394 4.20546 13.7813 4.23603C13.4175 4.41949 13.0964 4.69468 12.6745 4.74666Z" fill="#191919"/>
<path d="M20.1076 11.5989C20.0404 12.2411 19.9792 12.8679 19.912 13.4916C19.8967 13.6323 19.8814 13.7729 19.8661 13.9166C19.863 13.9533 19.86 13.9961 19.8202 14.0023C19.7774 14.0084 19.7621 13.9656 19.7499 13.9319C19.701 13.7882 19.6551 13.6445 19.6062 13.4977C19.5297 13.2654 19.4533 13.036 19.3738 12.8037C19.2912 12.559 19.3279 12.3328 19.4808 12.1249C19.6245 11.9292 19.7713 11.7335 19.9181 11.5409C19.9578 11.4919 19.9945 11.4033 20.0618 11.4247C20.1535 11.4552 20.0801 11.5561 20.1076 11.5989Z" fill="#191919"/>
<path d="M11.4301 19.2732C11.5279 19.2732 11.6257 19.2855 11.7114 19.3283C12.0752 19.5117 12.436 19.6952 12.7938 19.8817C12.8305 19.9001 12.8947 19.9215 12.8794 19.9734C12.8641 20.0162 12.8029 20.0162 12.7571 20.0132C11.9865 19.9765 11.216 19.9398 10.4455 19.9001C10.3905 19.897 10.3201 19.9123 10.3018 19.845C10.2804 19.7686 10.3568 19.7441 10.4088 19.7166C10.6442 19.5882 10.8827 19.4598 11.1212 19.3374C11.216 19.2916 11.32 19.2702 11.4301 19.2732Z" fill="#191919"/>
<path d="M16.8818 5.62744C16.9736 5.69471 17.0684 5.76198 17.1601 5.82925C17.3711 5.98519 17.5851 6.14113 17.7961 6.30012C17.8603 6.34905 17.9245 6.40103 17.9673 6.47135C18.0009 6.52333 18.0284 6.58754 17.9826 6.63952C17.9367 6.6915 17.8695 6.67621 17.8114 6.64869C17.7624 6.62423 17.7074 6.59977 17.6707 6.56002C17.3955 6.26343 17.1234 5.96378 16.8513 5.66719C16.8604 5.6519 16.8696 5.63967 16.8818 5.62744Z" fill="#191919"/>
<path d="M5.0763 15.8125C5.33315 16.1305 5.59305 16.4454 5.84377 16.7695C5.90798 16.8552 5.97831 16.9928 5.86212 17.0661C5.74287 17.1426 5.66337 17.0111 5.61139 16.9163C5.42793 16.5861 5.25365 16.2559 5.0763 15.9256C5.06102 15.8951 5.05184 15.8614 5.03961 15.8308C5.05184 15.8247 5.06407 15.8186 5.0763 15.8125Z" fill="#191919"/>
<path d="M5.66022 7.19327C5.92317 6.84776 6.18307 6.5053 6.44297 6.16285C6.46132 6.13839 6.48884 6.1231 6.5133 6.10475C6.56834 6.06806 6.63255 6.04971 6.68453 6.08641C6.74262 6.12921 6.72122 6.19954 6.69676 6.25458C6.6723 6.30961 6.64172 6.36465 6.59891 6.4044C6.31761 6.66124 6.03325 6.91503 5.74889 7.16881C5.73054 7.18716 5.71831 7.21468 5.66022 7.19327Z" fill="#191919"/>
<path d="M7.23494 18.3806C7.13404 18.3347 7.05148 18.2583 6.96281 18.191C6.72737 18.0167 6.48581 17.8455 6.25343 17.6651C6.1617 17.5948 6.04246 17.4877 6.1403 17.3777C6.22897 17.2737 6.35739 17.3716 6.43078 17.448C6.71514 17.7446 6.98727 18.0473 7.26246 18.35C7.25328 18.3622 7.24411 18.3714 7.23494 18.3806Z" fill="#191919"/>
<path d="M8.25916 5.01606C8.15215 5.10473 8.04819 5.19646 7.93811 5.28513C7.73325 5.4533 7.5345 5.62453 7.32353 5.78047C7.2318 5.85079 7.11255 5.93029 6.99636 5.82022C6.93215 5.75906 7.0147 5.6337 7.1737 5.54809C7.52533 5.35851 7.87696 5.172 8.23164 4.98242C8.23776 4.99465 8.24693 5.00383 8.25916 5.01606Z" fill="#191919"/>
<path d="M18.3678 16.9162C18.1477 17.2158 17.9336 17.5155 17.7104 17.8121C17.6432 17.9007 17.5392 18.0108 17.4322 17.9221C17.3252 17.8335 17.4199 17.7051 17.4964 17.6317C17.7655 17.3718 18.0376 17.1119 18.3311 16.8764C18.3648 16.8734 18.377 16.8856 18.3678 16.9162Z" fill="#191919"/>
<path d="M15.9523 18.9217C16.2244 18.6955 16.4965 18.4692 16.7686 18.246C16.8329 18.194 16.9062 18.1604 16.9888 18.1512C17.0408 18.1451 17.0928 18.1451 17.1233 18.194C17.16 18.2521 17.1264 18.301 17.0928 18.3469C17.0347 18.4264 16.9429 18.4662 16.8604 18.512C16.5791 18.6618 16.2978 18.8086 16.0165 18.9584C15.9767 18.9768 15.9492 18.9768 15.9523 18.9217Z" fill="#191919"/>
<path d="M18.9365 8.06733C18.7164 7.80132 18.4932 7.53836 18.2791 7.26929C18.2088 7.18062 18.1446 7.06137 18.2394 6.95129C18.2975 6.88403 18.432 6.96658 18.5146 7.12558C18.6705 7.41605 18.8203 7.70653 18.9763 8.00006C18.9977 8.03981 18.9946 8.06733 18.9365 8.06733Z" fill="#191919"/>
<path d="M18.9365 8.06691C18.9488 8.04245 18.964 8.02104 18.9763 7.99658C19.0191 8.04856 19.0558 8.1036 19.0649 8.1831C18.9824 8.17393 18.9671 8.11277 18.9365 8.06691Z" fill="#191919"/>
<path d="M15.9523 18.9224C15.9737 18.9346 15.9951 18.9468 16.0165 18.956C15.9768 18.9988 15.9279 19.0141 15.8667 19.0233C15.8728 18.9591 15.9126 18.9407 15.9523 18.9224Z" fill="#191919"/>
<path d="M18.3678 16.9163C18.3556 16.9041 18.3433 16.8888 18.3311 16.8766C18.3464 16.846 18.3831 16.8032 18.4045 16.8246C18.4412 16.8613 18.3984 16.8919 18.3678 16.9163Z" fill="#191919"/>
</svg>
