<svg width="24" height="24" viewBox="0 0 24 24" fill="none" xmlns="http://www.w3.org/2000/svg">
<path d="M12 24C18.6274 24 24 18.6274 24 12C24 5.37258 18.6274 0 12 0C5.37258 0 0 5.37258 0 12C0 18.6274 5.37258 24 12 24Z" fill="#CBB10E"/>
<path d="M23.5 12C23.5 18.3513 18.3513 23.5 12 23.5C5.64873 23.5 0.5 18.3513 0.5 12C0.5 5.64873 5.64873 0.5 12 0.5C18.3513 0.5 23.5 5.64873 23.5 12Z" stroke="black" stroke-opacity="0.097"/>
<mask id="mask0" mask-type="alpha" maskUnits="userSpaceOnUse" x="4" y="5" width="6" height="14">
<path d="M4 5.13672H9.61672V18.0023H4V5.13672Z" fill="white"/>
</mask>
<g mask="url(#mask0)">
<path opacity="0.4" d="M8.71406 6.08382C9.03852 5.71688 9.33432 5.40368 9.6163 5.14166C4.84307 4.98813 6.23251 8.43845 4.67674 11.9451C2.88557 15.9839 4.88759 17.5228 7.87118 18.0023C7.45767 17.5141 7.11991 16.9563 6.863 16.3534C4.92853 13.9184 5.70744 9.48245 8.71406 6.08382Z" fill="white"/>
</g>
<path opacity="0.4" d="M20.2012 10.3857C19.757 11.6365 18.9418 13.0403 17.7893 14.422C16.8911 15.4983 15.8927 16.3463 14.862 16.9604C13.6701 17.7321 12.1921 18.1876 10.5391 18.1876C9.61435 18.1876 8.70494 18.1359 7.87128 18.0023C8.36359 18.5827 8.96236 19.0643 9.65785 19.4005C13.9741 21.4875 14.2463 17.6108 18.8128 15.6436C21.3768 14.5387 21.386 12.3796 20.2012 10.3857Z" fill="white"/>
<path opacity="0.4" d="M14.8603 6.35118C15.4969 6.46735 16.1008 6.67667 16.6417 6.98219C18.0911 7.80204 19.4114 9.05688 20.2011 10.3854C20.9784 8.19558 20.6166 6.47452 18.9155 6.16234C17.0455 5.82048 15.5839 5.71096 14.1796 4.72991C12.4494 3.52215 10.933 3.9203 9.61725 5.14188C9.70988 5.14444 9.80455 5.14905 9.9023 5.15468C11.7278 5.26215 13.4703 5.61731 14.8603 6.35118Z" fill="white"/>
<path opacity="0.7" d="M8.71446 6.08376C5.70784 9.48239 4.92893 13.9184 6.8634 16.3533C5.99494 14.315 6.05533 11.7725 7.27896 9.74288C8.90893 7.04025 12.1771 5.86165 14.8602 6.35141C13.4703 5.61754 11.7277 5.26238 9.90277 5.1544C9.80452 5.14877 9.70984 5.14518 9.6167 5.1416C9.33472 5.40363 9.03891 5.71683 8.71446 6.08376Z" fill="white"/>
<path opacity="0.7" d="M16.6415 6.98257C16.1006 6.67653 15.4967 6.46773 14.86 6.35156C16.6906 7.31777 17.9086 8.94109 17.8948 11.527C17.8825 13.7706 16.7234 15.7532 14.8616 16.9605C15.8923 16.3463 16.8912 15.4988 17.7894 14.4221C18.9419 13.0408 19.7566 11.6371 20.2008 10.3858C19.4112 9.05726 18.0908 7.8019 16.6415 6.98257Z" fill="white"/>
<path d="M14.8604 6.35132C12.1772 5.86207 8.90906 7.03964 7.27908 9.74227C6.05545 11.7724 5.99455 14.3154 6.86353 16.3533C7.12044 16.9556 7.45769 17.5144 7.87171 18.0027C8.70486 18.1362 9.61427 18.1874 10.539 18.1874C12.192 18.1874 13.67 17.7319 14.8614 16.9602C16.7237 15.7535 17.8829 13.7704 17.8946 11.5268C17.909 8.94085 16.6904 7.31753 14.8604 6.35132ZM14.5589 15.7309C12.4924 17.0585 9.73709 16.4664 8.40394 14.4075C7.0708 12.3492 7.72995 9.69826 9.73146 8.27504C11.9699 6.68397 14.8404 7.3119 15.887 9.59796C16.9074 11.8277 16.6254 14.4029 14.5589 15.7309Z" fill="white"/>
</svg>
