<svg width="24" height="24" viewBox="0 0 24 24" fill="none" xmlns="http://www.w3.org/2000/svg">
<path d="M12 24C18.6274 24 24 18.6274 24 12C24 5.37258 18.6274 0 12 0C5.37258 0 0 5.37258 0 12C0 18.6274 5.37258 24 12 24Z" fill="#2170FB"/>
<path d="M12 24C18.6274 24 24 18.6274 24 12C24 5.37258 18.6274 0 12 0C5.37258 0 0 5.37258 0 12C0 18.6274 5.37258 24 12 24Z" fill="black"/>
<path fill-rule="evenodd" clip-rule="evenodd" d="M9.2604 5.36842C9.75163 4.87719 10.5481 4.87719 11.0393 5.36842L15.153 9.48214L13.4853 11.1499L10.1499 7.81442L6.81442 11.1499L8.48213 12.8176L10.1499 11.1499L11.8176 12.8176L10.1499 14.4853L12.6514 16.9869C13.112 17.4474 13.112 18.1941 12.6514 18.6546C12.1909 19.1151 11.4443 19.1151 10.9837 18.6546L4.36842 12.0393C3.87719 11.5481 3.87719 10.7516 4.36842 10.2604L9.2604 5.36842Z" fill="#3CEAAA"/>
<path fill-rule="evenodd" clip-rule="evenodd" d="M12.5958 5.36841C13.0871 4.87718 13.8835 4.8772 14.3747 5.36843L19.2667 10.2604C19.7579 10.7516 19.7579 11.5481 19.2667 12.0393L12.707 18.599C12.2158 19.0902 11.4193 19.0902 10.9281 18.599L10.1498 17.8207L13.4853 14.4853L10.1498 11.1499L11.8176 9.48213L15.153 12.8176L16.8207 11.1499L11.8176 6.14668L12.5958 5.36841Z" fill="#03BCE4"/>
<path d="M11.8176 9.48217L10.1499 7.81445L8.48217 9.48217L10.1499 11.1499L11.8176 9.48217Z" fill="#029ABB"/>
<path opacity="0.95" d="M15.153 9.48217L13.4853 7.81445L11.8176 9.48217L13.4853 11.1499L15.153 9.48217Z" fill="#3CEAAA"/>
<path d="M23.5 12C23.5 18.3513 18.3513 23.5 12 23.5C5.64873 23.5 0.5 18.3513 0.5 12C0.5 5.64873 5.64873 0.5 12 0.5C18.3513 0.5 23.5 5.64873 23.5 12Z" stroke="white" stroke-opacity="0.3"/>
</svg>
