<svg width="24" height="24" viewBox="0 0 24 24" fill="none" xmlns="http://www.w3.org/2000/svg">
<path d="M12 24C18.6274 24 24 18.6274 24 12C24 5.37258 18.6274 0 12 0C5.37258 0 0 5.37258 0 12C0 18.6274 5.37258 24 12 24Z" fill="#E0E0E0"/>
<path d="M23.5 12C23.5 18.3513 18.3513 23.5 12 23.5C5.64873 23.5 0.5 18.3513 0.5 12C0.5 5.64873 5.64873 0.5 12 0.5C18.3513 0.5 23.5 5.64873 23.5 12Z" stroke="black" stroke-opacity="0.097"/>
<path d="M5 15.1776C5.03775 16.3416 5.51594 17.2602 6.45343 17.9586C7.50417 18.7388 9.21557 18.7703 10.2663 17.9964C11.1472 17.3546 11.9714 16.6373 12.7768 15.9137C13.7457 15.0455 14.6455 14.1143 15.4949 13.1327C16.2814 12.2204 16.9986 11.2514 17.6593 10.2447C18.0368 9.66589 18.4458 9.10591 18.5339 8.38864C18.7037 6.96667 17.9739 5.75862 16.5897 5.18606C15.4571 4.72046 14.0477 5.1546 13.2172 6.19906C12.5125 7.0988 11.7386 7.93562 10.9144 8.72211C9.49241 10.0874 7.93202 11.2829 6.36534 12.4721C5.47189 13.1579 5.03775 14.0639 5 15.1776Z" fill="#FEFEFE"/>
<path d="M5 15.1787C5.03775 14.065 5.47189 13.159 6.36534 12.4794C7.93202 11.2903 9.49241 10.0885 10.9144 8.72947C11.7386 7.94298 12.5125 7.09986 13.2235 6.20641C14.0477 5.15567 15.4634 4.72782 16.596 5.19342C17.9802 5.76598 18.7163 6.96773 18.5402 8.39599C18.4521 9.11327 18.0431 9.67954 17.6656 10.2521C17.0049 11.2588 16.2877 12.2278 15.5012 13.1401C14.6581 14.1216 13.752 15.0528 12.7831 15.9211C11.9714 16.651 11.1472 17.3619 10.2726 18.0037C9.21557 18.7713 7.50417 18.7399 6.45343 17.966C5.51594 17.2613 5.03775 16.3427 5 15.1787ZM6.52264 13.5302C6.49747 13.5491 6.4723 13.5679 6.44714 13.5868C6.40938 13.6309 6.37163 13.6686 6.33388 13.7126C6.28984 13.7441 6.26467 13.7819 6.26467 13.8385L6.27096 13.8511L6.25838 13.8385C6.14513 13.8511 6.14513 13.9454 6.12625 14.0272C6.07591 14.0713 6.06962 14.1342 6.06962 14.1971C5.91232 14.367 5.87457 14.5746 5.86199 14.7949C5.8557 14.8389 5.8557 14.8766 5.84941 14.9207C5.76761 15.5876 5.95637 16.1791 6.35276 16.7076C7.19587 17.8401 8.85064 18.0729 9.92026 17.2172C11.3171 16.1036 12.6824 14.9584 13.8904 13.6371C14.5071 12.9702 15.1048 12.2907 15.6648 11.5734C16.2499 10.8247 16.7973 10.0445 17.3069 9.2454C17.7033 8.6225 17.9173 7.95556 17.546 7.23199C17.546 7.14391 17.5209 7.06211 17.4642 6.9929C17.4454 6.96773 17.4328 6.94257 17.4139 6.92369C17.2566 6.57764 16.9861 6.33225 16.6652 6.14979C15.7403 5.62127 14.7524 5.76598 14.0226 6.56505C13.1795 7.48996 12.3804 8.45262 11.4744 9.3209C10.4236 10.3465 9.28478 11.2714 8.13336 12.1774C7.61743 12.5801 7.07003 12.945 6.59185 13.4043C6.54151 13.4295 6.51635 13.4673 6.52264 13.5302Z" fill="#060906"/>
<path d="M6.07592 14.2021C6.07592 14.1392 6.08222 14.0763 6.13255 14.0322C6.23322 14.0071 6.24581 13.9253 6.26468 13.8435L6.27726 13.8561L6.27097 13.8435C6.34648 13.8309 6.34648 13.7743 6.34018 13.7177C6.37793 13.6736 6.41569 13.6359 6.45344 13.5918C6.49119 13.5918 6.51636 13.5729 6.52265 13.5352V13.5289C6.59186 13.5163 6.59815 13.466 6.59186 13.4093C7.07004 12.9563 7.61744 12.5914 8.13337 12.1824C9.28479 11.2764 10.4236 10.3515 11.487 9.3322C12.393 8.46392 13.1921 7.50126 14.0352 6.57635C14.765 5.77099 15.7529 5.62627 16.6778 6.16109C16.9987 6.34355 17.2692 6.58893 17.4265 6.93499C17.4454 6.96016 17.458 6.98532 17.4768 7.0042C17.5335 7.07341 17.5586 7.14891 17.5586 7.24329C17.4894 7.52013 17.3258 7.74664 17.1622 7.97315C16.7092 8.58347 16.3128 9.23782 15.8221 9.81668C14.9097 10.88 13.9974 11.937 12.9718 12.8997C11.9777 13.8372 10.9459 14.7244 9.87623 15.5801C9.28479 16.0519 8.60527 16.3099 7.81878 16.2596C7.56081 16.2407 7.3343 16.1589 7.09521 16.0771C6.51006 15.8758 5.96896 15.6493 5.862 14.9383C5.86829 14.8942 5.86829 14.8565 5.87458 14.8124C6.02559 14.63 6.03817 14.4098 6.07592 14.2021ZM10.9396 11.138C10.9396 11.2449 10.9459 11.3519 11.078 11.3834C11.2101 11.4148 11.3234 11.3456 11.3485 11.2324C11.3863 11.0688 11.4681 10.9807 11.6254 10.9429C11.7701 10.9052 11.7701 10.7793 11.7449 10.6598C11.7198 10.5277 11.6191 10.5088 11.5058 10.5151C11.1724 10.534 10.9333 10.7919 10.9396 11.138ZM11.078 12.2139C10.8389 12.2202 10.5243 12.4781 10.5054 12.7047C10.4928 12.8305 10.5054 12.9689 10.6501 13.0193C10.776 13.0633 10.9018 13.0381 10.9459 12.8745C10.9773 12.755 11.0591 12.6858 11.1787 12.648C11.3234 12.604 11.4115 12.5033 11.3674 12.3397C11.3234 12.195 11.1912 12.2202 11.078 12.2139ZM14.9538 9.2567C15.0859 9.26299 15.13 9.1812 15.1677 9.07423C15.2055 8.95469 15.2495 8.83514 15.4068 8.82256C15.5326 8.81627 15.6019 8.74705 15.5893 8.62122C15.5767 8.46392 15.4509 8.40729 15.3313 8.39471C15.1111 8.36954 14.9664 8.53313 14.8405 8.67784C14.7336 8.79739 14.7084 8.9484 14.7776 9.11198C14.8091 9.19378 14.8531 9.25041 14.9538 9.2567ZM12.6384 9.39512C12.6258 9.52725 12.6824 9.6405 12.8145 9.68455C12.9467 9.72859 12.997 9.62163 13.0411 9.52096C13.104 9.39512 13.1795 9.30074 13.3179 9.24411C13.4312 9.20007 13.4689 9.08053 13.4249 8.95469C13.3808 8.83514 13.2864 8.81627 13.1732 8.82256C12.9341 8.82885 12.6384 9.13715 12.6384 9.39512ZM12.6384 11.0751C12.6384 11.182 12.6384 11.2953 12.7705 11.3204C12.8712 11.3456 13.0033 11.3582 13.0411 11.2449C13.0914 11.0876 13.2046 11.0247 13.3305 10.9429C13.4186 10.8863 13.4689 10.7856 13.4312 10.6724C13.3997 10.578 13.3431 10.5151 13.2298 10.5151C12.9278 10.5088 12.6384 10.773 12.6384 11.0751ZM8.35988 14.4601C8.35988 14.5545 8.3473 14.6551 8.45426 14.7055C8.55493 14.7495 8.68077 14.7684 8.74369 14.674C8.84436 14.5041 8.95761 14.3594 9.15266 14.2776C9.22816 14.2462 9.25333 14.1518 9.21558 14.0574C9.17783 13.9756 9.13379 13.919 9.03312 13.9127C8.76886 13.8938 8.39134 14.1958 8.35988 14.4601ZM14.7776 7.237C14.7776 7.35025 14.7587 7.4698 14.8972 7.52643C14.9853 7.56418 15.0796 7.57047 15.1174 7.48238C15.1992 7.29363 15.3565 7.17408 15.5012 7.04824C15.5641 6.99162 15.6144 6.9224 15.5704 6.82803C15.5264 6.73994 15.4571 6.68331 15.3502 6.67702C15.1237 6.67073 14.7776 7.0042 14.7776 7.237ZM9.67489 12.453C9.66231 12.3271 9.5868 12.2579 9.48613 12.2265C9.21558 12.1384 8.75627 12.5537 8.8129 12.8368C8.84436 13.0004 9.00166 13.1136 9.09603 13.013C9.26592 12.8368 9.42321 12.6606 9.63714 12.5348C9.65601 12.5159 9.66231 12.4781 9.67489 12.453ZM7.22105 13.9127C7.01342 13.9127 6.64849 14.3154 6.68624 14.5104C6.70511 14.5985 6.74916 14.6929 6.84983 14.7181C6.96937 14.7495 7.04488 14.6992 7.1015 14.5922C7.15184 14.4916 7.1833 14.3657 7.32172 14.3531C7.47273 14.3406 7.56081 14.265 7.52306 14.1077C7.4916 13.963 7.37205 13.9064 7.22105 13.9127Z" fill="#00AB24"/>
<path d="M5.85569 14.9196C5.96266 15.6306 6.50376 15.8634 7.0889 16.0584C7.328 16.1402 7.55451 16.222 7.81247 16.2409C8.59267 16.2975 9.27219 16.0396 9.86992 15.5614C10.9333 14.712 11.9651 13.8185 12.9655 12.881C13.9911 11.9184 14.9097 10.8613 15.8158 9.79799C16.3065 9.22543 16.7092 8.57108 17.1559 7.95447C17.3258 7.72796 17.4831 7.50145 17.5523 7.22461C17.9173 7.94818 17.7033 8.61512 17.3132 9.23802C16.8036 10.0371 16.2562 10.8173 15.6711 11.566C15.1111 12.2833 14.5133 12.9628 13.8967 13.6298C12.6824 14.9511 11.3171 16.0962 9.92655 17.2098C8.85693 18.0655 7.20216 17.839 6.35904 16.7002C5.96895 16.178 5.7739 15.5865 5.85569 14.9196ZM11.6191 15.1713C11.8141 15.1713 12.1476 14.9636 12.179 14.7938C12.2042 14.649 12.2671 14.4603 12.0847 14.3785C11.9211 14.303 11.8015 14.41 11.7575 14.5735C11.7197 14.6994 11.6317 14.7245 11.531 14.756C11.38 14.8001 11.3611 14.9196 11.38 15.0517C11.4051 15.2027 11.531 15.1587 11.6191 15.1713ZM15.5893 11.2011C15.5955 11.1004 15.5767 11.006 15.4697 10.9746C15.3627 10.9368 15.218 10.9683 15.1929 11.0564C15.1425 11.2514 15.0041 11.3269 14.8531 11.415C14.765 11.4653 14.7461 11.566 14.7839 11.6667C14.8154 11.7548 14.8971 11.7736 14.9852 11.7799C15.2998 11.8051 15.583 11.5346 15.5893 11.2011ZM10.4991 16.2849C10.4802 16.222 10.5432 16.0836 10.3859 16.0584C10.2537 16.0333 10.1216 16.0458 10.0838 16.2031C10.0524 16.3604 9.94543 16.4108 9.8133 16.4674C9.71263 16.5114 9.66229 16.6058 9.68746 16.7254C9.70633 16.8198 9.78184 16.8512 9.86992 16.8638C10.1656 16.9015 10.4991 16.5995 10.4991 16.2849ZM13.3305 13.4725C13.6388 13.4725 13.9282 13.1579 13.8967 12.8621C13.8842 12.7741 13.8716 12.6986 13.7772 12.6671C13.6765 12.6356 13.5884 12.6608 13.5381 12.7552C13.4563 12.8999 13.3493 13.0132 13.192 13.0887C13.0914 13.139 13.0599 13.246 13.104 13.3592C13.1354 13.4662 13.2298 13.4788 13.3305 13.4725ZM16.6337 9.63441C16.7658 9.65328 16.8728 9.60295 16.8854 9.47082C16.898 9.33869 16.791 9.26948 16.6652 9.26318C16.5205 9.2506 16.4575 9.35756 16.4387 9.47082C16.4072 9.62182 16.533 9.62811 16.6337 9.63441Z" fill="#018920"/>
<path d="M6.07592 14.2021C6.03817 14.4098 6.02558 14.63 5.86829 14.7999C5.88087 14.5797 5.91862 14.372 6.07592 14.2021Z" fill="#018920"/>
<path d="M6.27097 13.8369C6.25209 13.9187 6.23951 14.0005 6.13884 14.0257C6.15142 13.9439 6.15772 13.8558 6.27097 13.8369Z" fill="#018920"/>
<path d="M6.59186 13.4028C6.59815 13.4595 6.59815 13.5098 6.52265 13.5224C6.51636 13.4658 6.54152 13.428 6.59186 13.4028Z" fill="#018920"/>
<path d="M6.34017 13.7109C6.34646 13.7676 6.34646 13.8242 6.27095 13.8368C6.26466 13.7801 6.28983 13.7424 6.34017 13.7109Z" fill="#018920"/>
<path d="M17.4705 6.99792C17.4517 6.97275 17.4391 6.94759 17.4202 6.92871C17.4391 6.94759 17.458 6.97275 17.4705 6.99792Z" fill="#018920"/>
<path d="M6.52263 13.5288C6.51633 13.5729 6.49117 13.5854 6.45341 13.5854C6.47229 13.5666 6.49746 13.5477 6.52263 13.5288Z" fill="#018920"/>
<path d="M10.9396 11.1381C10.9396 10.7921 11.1787 10.5278 11.5058 10.5152C11.6191 10.5089 11.7198 10.5278 11.7449 10.6599C11.7638 10.7795 11.7701 10.9053 11.6254 10.9431C11.4681 10.9871 11.3863 11.0689 11.3485 11.2325C11.3234 11.3457 11.2101 11.4149 11.078 11.3835C10.9459 11.3583 10.9396 11.2514 10.9396 11.1381Z" fill="#00C72A"/>
<path d="M11.078 12.2139C11.1912 12.2202 11.3234 12.195 11.3611 12.3397C11.4051 12.5033 11.3171 12.5977 11.1723 12.648C11.0528 12.6858 10.971 12.755 10.9395 12.8745C10.8955 13.0381 10.776 13.0633 10.6438 13.0192C10.4991 12.9689 10.4865 12.8305 10.4991 12.7046C10.5243 12.4844 10.8389 12.2202 11.078 12.2139Z" fill="#00C72A"/>
<path d="M14.9538 9.25666C14.8594 9.25037 14.8091 9.19374 14.7776 9.11195C14.7084 8.94836 14.7336 8.79735 14.8405 8.67781C14.9664 8.53309 15.1111 8.3695 15.3313 8.39467C15.4508 8.40726 15.583 8.45759 15.5893 8.62118C15.5955 8.74702 15.5326 8.81623 15.4068 8.82252C15.2495 8.8351 15.2055 8.95465 15.1677 9.0742C15.1299 9.18116 15.0796 9.26295 14.9538 9.25666Z" fill="#00C72A"/>
<path d="M12.6384 9.3954C12.6384 9.14373 12.9341 8.83542 13.1732 8.82284C13.2864 8.81655 13.3808 8.83542 13.4248 8.95497C13.4689 9.08081 13.4374 9.20035 13.3179 9.2444C13.1795 9.30102 13.0977 9.3954 13.041 9.52124C12.997 9.61562 12.9467 9.72887 12.8145 9.68483C12.6761 9.63449 12.6258 9.52124 12.6384 9.3954Z" fill="#00C72A"/>
<path d="M12.6384 11.0747C12.6384 10.7727 12.9341 10.5085 13.2361 10.5148C13.3493 10.5211 13.406 10.5777 13.4374 10.6721C13.4752 10.7853 13.4248 10.886 13.3368 10.9426C13.2109 11.0181 13.0977 11.0873 13.0473 11.2446C13.0096 11.3642 12.8775 11.3453 12.7768 11.3201C12.6384 11.2887 12.6321 11.1817 12.6384 11.0747Z" fill="#00C72A"/>
<path d="M8.35986 14.46C8.39132 14.1894 8.76255 13.8874 9.0331 13.9126C9.13377 13.9189 9.17781 13.9755 9.21556 14.0573C9.25331 14.1454 9.22815 14.2398 9.15264 14.2775C8.95759 14.3593 8.85063 14.504 8.74367 14.6739C8.68704 14.7683 8.55491 14.7494 8.45424 14.7054C8.35357 14.6613 8.35986 14.5544 8.35986 14.46Z" fill="#00C72A"/>
<path d="M14.7776 7.23665C14.7776 7.00385 15.1237 6.67038 15.3502 6.68296C15.4571 6.68926 15.52 6.75217 15.5704 6.83397C15.6207 6.92206 15.5704 6.99756 15.5012 7.05418C15.3502 7.18002 15.1992 7.29957 15.1174 7.48833C15.0796 7.57641 14.9852 7.56383 14.8971 7.53237C14.7587 7.46945 14.7713 7.3499 14.7776 7.23665Z" fill="#00C72A"/>
<path d="M9.67488 12.4528C9.6623 12.478 9.6623 12.5158 9.63713 12.5283C9.4232 12.6542 9.26591 12.8303 9.09603 13.0065C8.99536 13.1072 8.84435 12.9939 8.81289 12.8303C8.75626 12.5472 9.21557 12.1319 9.48612 12.22C9.58679 12.2578 9.6623 12.327 9.67488 12.4528Z" fill="#00C72A"/>
<path d="M7.22103 13.9126C7.37203 13.9063 7.49158 13.9567 7.52933 14.114C7.56708 14.2713 7.479 14.3405 7.32799 14.3593C7.18957 14.3719 7.15811 14.4978 7.10777 14.5984C7.05115 14.7054 6.96935 14.7494 6.8561 14.7243C6.74914 14.6991 6.70509 14.6047 6.69251 14.5166C6.64847 14.3153 7.0134 13.9126 7.22103 13.9126Z" fill="#00C72A"/>
<path d="M11.6191 15.1707C11.531 15.1581 11.4051 15.2021 11.3863 15.0511C11.3674 14.919 11.3863 14.7995 11.5373 14.7554C11.6379 14.724 11.726 14.6988 11.7638 14.573C11.8078 14.4157 11.9274 14.3087 12.091 14.3779C12.2734 14.4597 12.2105 14.6485 12.1853 14.7932C12.1476 14.9631 11.8141 15.1707 11.6191 15.1707Z" fill="#00A825"/>
<path d="M15.5893 11.2007C15.583 11.5342 15.2935 11.8047 14.9915 11.7796C14.9034 11.7733 14.8217 11.7607 14.7902 11.6663C14.7524 11.5719 14.7713 11.4713 14.8594 11.4146C15.0104 11.3266 15.1488 11.251 15.1992 11.056C15.218 10.9679 15.3628 10.9365 15.476 10.9742C15.583 11.0057 15.5956 11.1 15.5893 11.2007Z" fill="#00A825"/>
<path d="M10.4991 16.285C10.4991 16.5996 10.1657 16.9016 9.87623 16.8702C9.78185 16.8576 9.71264 16.8261 9.69376 16.7318C9.66859 16.6122 9.71893 16.5115 9.8196 16.4738C9.95173 16.4172 10.0524 16.3668 10.0902 16.2095C10.1216 16.0522 10.26 16.0396 10.3922 16.0648C10.5432 16.0837 10.474 16.2158 10.4991 16.285Z" fill="#00A825"/>
<path d="M13.3305 13.4721C13.2361 13.4721 13.1354 13.4658 13.0977 13.3651C13.0536 13.2519 13.0851 13.1449 13.1858 13.0946C13.3431 13.0191 13.45 12.9058 13.5318 12.7611C13.5822 12.6667 13.6702 12.6415 13.7709 12.673C13.8653 12.7045 13.8842 12.78 13.8905 12.8681C13.9282 13.1575 13.6388 13.4721 13.3305 13.4721Z" fill="#00A825"/>
<path d="M16.6337 9.63444C16.533 9.62186 16.4072 9.62186 16.4387 9.47085C16.4638 9.3576 16.5205 9.25063 16.6652 9.26322C16.791 9.2758 16.898 9.33872 16.8854 9.47085C16.8728 9.60298 16.7721 9.65332 16.6337 9.63444Z" fill="#00A825"/>
</svg>
