<svg width="24" height="24" viewBox="0 0 24 24" fill="none" xmlns="http://www.w3.org/2000/svg">
<path fill-rule="evenodd" clip-rule="evenodd" d="M0 12C0 5.37259 5.37259 0 12 0C18.6274 0 24 5.37259 24 12C24 18.6274 18.6274 24 12 24C5.37259 24 0 18.6274 0 12Z" fill="url(#paint0_linear)"/>
<path fill-rule="evenodd" clip-rule="evenodd" d="M14.7907 11.3972H15.5348V12.141H14.7907V11.3972ZM8.46513 12.141H9.20932V11.3972H8.46513V12.141ZM20 11.3972V16.6041C20 16.8086 19.8326 16.9761 19.628 16.9761H18.1396C17.9349 16.9761 17.7675 16.8086 17.7675 16.6041V14.3726H16.6512V16.6041C16.6512 16.8086 16.4838 16.9761 16.2791 16.9761H15.1629V18.0917C15.1629 18.2962 14.9954 18.4637 14.7907 18.4637H13.3024C13.0977 18.4637 12.9303 18.2962 12.9303 18.0917V16.6041C12.9303 16.3995 13.0977 16.2321 13.3024 16.2321H14.4151V15.4883H9.59749V16.2321H10.6977C10.9023 16.2321 11.0698 16.3995 11.0698 16.6041V18.0917C11.0698 18.2962 10.9023 18.4637 10.6977 18.4637H9.20932C9.00466 18.4637 8.83723 18.2962 8.83723 18.0917V16.9761H7.72095C7.51629 16.9761 7.34885 16.8086 7.34885 16.6041V14.3726H6.23256V16.6041C6.23256 16.8086 6.06513 16.9761 5.86047 16.9761H4.3721C4.16745 16.9761 4 16.8086 4 16.6041V11.3972C4 11.1926 4.16745 11.0253 4.3721 11.0253H5.86047V9.53759C5.86047 9.33304 6.02792 9.16567 6.23256 9.16567H7.72095V8.04991C7.72095 7.84536 7.88838 7.678 8.09304 7.678H9.20932V6.93416H8.09304C7.88838 6.93416 7.72095 6.76679 7.72095 6.56224V5.07456C7.72095 4.87001 7.88838 4.70264 8.09304 4.70264H9.58141C9.78607 4.70264 9.95351 4.87001 9.95351 5.07456V6.19032H11.0698C11.2744 6.19032 11.4419 6.35767 11.4419 6.56224V7.678H12.5582V6.56224C12.5582 6.35767 12.7256 6.19032 12.9303 6.19032H14.0465V5.07456C14.0465 4.87001 14.214 4.70264 14.4186 4.70264H15.907C16.1117 4.70264 16.2791 4.87001 16.2791 5.07456V6.56224C16.2791 6.76679 16.1117 6.93416 15.907 6.93416H14.7907V7.678H15.907C16.1117 7.678 16.2791 7.84536 16.2791 8.04991V9.16567H17.7675C17.972 9.16567 18.1396 9.33304 18.1396 9.53759V11.0253H19.628C19.8326 11.0253 20 11.1926 20 11.3972ZM9.95351 11.0253C9.95351 10.8207 9.78607 10.6534 9.58141 10.6534H8.09304C7.88838 10.6534 7.72095 10.8207 7.72095 11.0253V12.513C7.72095 12.7175 7.88838 12.8849 8.09304 12.8849H9.58141C9.78607 12.8849 9.95351 12.7175 9.95351 12.513V11.0253ZM16.2791 11.0253C16.2791 10.8207 16.1117 10.6534 15.907 10.6534H14.4186C14.214 10.6534 14.0465 10.8207 14.0465 11.0253V12.513C14.0465 12.7175 14.214 12.8849 14.4186 12.8849H15.907C16.1117 12.8849 16.2791 12.7175 16.2791 12.513V11.0253Z" fill="url(#paint1_linear)"/>
<path d="M23.5 12C23.5 18.3513 18.3513 23.5 12 23.5C5.64873 23.5 0.5 18.3513 0.5 12C0.5 5.64873 5.64873 0.5 12 0.5C18.3513 0.5 23.5 5.64873 23.5 12Z" stroke="white" stroke-opacity="0.3"/>
<defs>
<linearGradient id="paint0_linear" x1="1.79286" y1="2.51661e-07" x2="12" y2="24" gradientUnits="userSpaceOnUse">
<stop stop-color="#2A3542"/>
<stop offset="1" stop-color="#4D2B43"/>
</linearGradient>
<linearGradient id="paint1_linear" x1="-1.60878" y1="-3.20392" x2="21.8177" y2="32.0984" gradientUnits="userSpaceOnUse">
<stop offset="0.00652367" stop-color="#F005C4"/>
<stop offset="0.314174" stop-color="#6C5DFE"/>
<stop offset="0.546875" stop-color="#30C7FF"/>
<stop offset="1" stop-color="#FFD541"/>
</linearGradient>
</defs>
</svg>
