<svg width="24" height="24" viewBox="0 0 24 24" fill="none" xmlns="http://www.w3.org/2000/svg">
<path d="M12 24C18.6274 24 24 18.6274 24 12C24 5.37258 18.6274 0 12 0C5.37258 0 0 5.37258 0 12C0 18.6274 5.37258 24 12 24Z" fill="#D1AE52"/>
<path fill-rule="evenodd" clip-rule="evenodd" d="M12.9682 15.9382C13.4754 16.6117 14.0002 17.3081 13.4277 18.0904C13.2435 18.3421 13.0329 18.5023 12.8468 18.6436C12.445 18.9511 12.1787 19.1535 12.2973 20.1526L11.8096 20.2218C11.6519 18.8994 12.1163 18.546 12.5656 18.2034C12.7392 18.0708 12.9037 17.9458 13.043 17.7545C13.3399 17.3497 13.1643 17.0453 12.588 16.2794C12.4734 16.1291 12.3614 15.9766 12.2521 15.8218C12.0543 15.5393 11.9819 15.226 12.044 14.9174C12.109 14.5953 12.3041 14.3301 12.5003 14.1342C11.5942 13.4889 11.578 12.4138 11.578 12.3988H11.8237L12.0703 12.3974C12.0708 12.4472 12.0938 13.3211 12.9378 13.7872L12.9988 13.8203C13.2838 13.9646 13.6585 14.0617 14.1465 14.0726C16.1802 14.0262 16.222 12.4645 16.2225 12.3974L16.7148 12.3988C16.7148 12.4041 16.7124 12.5511 16.6658 12.7664C16.9009 12.757 17.3391 12.6704 17.4984 12.5739C17.4076 12.219 16.8256 11.0498 16.291 10.0826L16.4392 9.6837L16.4959 9.66669C16.4111 9.24868 16.2444 8.41003 16.1615 7.85622C14.2815 7.54411 12.9259 7.782 12.1318 8.5655C11.365 9.32348 11.4111 10.3273 11.413 10.3701L11.1399 10.3892L10.922 10.4088C10.9112 10.271 10.8231 10.1255 10.7161 10.0709C10.6188 10.0213 10.5069 10.0451 10.3828 10.141C10.1907 10.2891 10.1222 10.4766 10.1677 10.7324C10.2463 11.18 10.6562 11.6716 10.9719 11.8823C11.0198 11.85 11.0545 11.8297 11.0689 11.8209L11.1404 11.9691C11.1504 11.9726 11.1621 12.0131 11.1621 12.0131L11.184 12.0588L11.2997 12.2961C11.2171 12.3464 11.138 12.4031 11.0632 12.466C11.0632 12.466 11.0385 12.4965 11.0304 12.4939C10.8548 12.6455 10.6668 12.8594 10.6213 13.0885C10.5909 13.2422 10.6294 13.3929 10.7397 13.5507C10.848 13.705 10.958 13.8517 11.0645 13.9931C11.5717 14.6672 12.0963 15.3639 11.5243 16.1462C11.3401 16.3976 11.1293 16.558 10.9437 16.6994C10.5411 17.0065 10.2753 17.2089 10.3942 18.2072L9.90651 18.2767C9.74882 16.9549 10.2132 16.6009 10.6619 16.2588C10.8353 16.1257 10.9998 16.0007 11.1399 15.8103C11.436 15.4046 11.2612 15.1007 10.6847 14.3348C10.5755 14.1896 10.4622 14.0394 10.3487 13.8769C10.1504 13.5942 10.0788 13.2809 10.1403 12.9723C10.2013 12.6693 10.3788 12.4164 10.5622 12.2246C10.1634 11.899 9.77565 11.3528 9.68434 10.8342C9.60251 10.3736 9.75018 9.97117 10.0992 9.7013C10.3701 9.49274 10.663 9.45108 10.9239 9.58367C10.951 9.59716 10.9767 9.61418 11.0017 9.63119C11.1269 9.07159 11.4026 8.56476 11.7939 8.17478C12.6983 7.27512 14.185 6.98882 16.2114 7.32058C16.6649 6.69108 16.8611 5.75681 16.0819 4.96568C15.3666 4.24114 14.1148 4.02701 13.2565 4.9255L12.8457 4.78704C12.7008 4.03786 11.8942 3.66562 11.1875 3.56764C10.1192 3.41892 8.72384 3.79644 8.18683 4.978C7.47289 6.545 8.39085 7.33642 8.43014 7.36957L8.26893 7.8527C7.21224 7.78933 6.5021 7.97883 6.15719 8.41531C5.71175 8.9794 5.89275 9.94653 6.03851 10.7239C6.16044 11.3745 6.25689 11.8884 6.01846 12.1935C5.74725 12.5408 5.42239 12.6663 5.12354 12.6663C4.93624 12.666 4.75161 12.6183 4.58436 12.527C4.16412 12.2964 3.93165 11.8482 4.01781 11.4376L4.49765 11.5587C4.46297 11.7212 4.59546 11.9312 4.80653 12.0465C4.91762 12.1084 5.30805 12.275 5.64402 11.8447C5.72639 11.7394 5.62424 11.1929 5.5565 10.8315C5.38906 9.93919 5.18098 8.82862 5.78464 8.06419C6.16884 7.57813 6.81233 7.32733 7.74275 7.30445C7.45447 6.80607 7.1987 5.94044 7.74573 4.73864C8.39058 3.323 10.0135 2.86217 11.2501 3.03436C12.1862 3.1646 12.8969 3.62807 13.2001 4.28045C14.2438 3.46791 15.6099 3.75332 16.417 4.57203C17.0573 5.22118 17.4824 6.39892 16.6262 7.61627C16.714 8.29387 17.0256 9.78549 17.0288 9.80103L16.8695 10.0894C18.144 12.432 18.0259 12.6828 17.9679 12.8066C17.8479 13.0606 17.4071 13.2067 17.0145 13.2659C17.4781 13.6015 17.9281 14.1835 17.8964 15.0655C17.8715 15.7575 17.3903 16.3166 16.9256 16.8569C16.3019 17.5815 15.9372 18.0546 16.2802 18.6234L15.8695 18.9191C15.2951 17.9669 15.9708 17.182 16.5669 16.4888C16.9703 16.0203 17.3873 15.5358 17.4046 15.0444C17.4401 14.0617 16.6733 13.637 16.374 13.5085C16.0542 14.0353 15.4349 14.5592 14.237 14.6073V14.6123C14.2059 14.6123 14.1774 14.6103 14.1468 14.6094C14.1162 14.6103 14.0875 14.6123 14.0566 14.6123V14.6073C13.6296 14.5906 13.2762 14.5129 12.9842 14.3961C12.7961 14.5496 12.5745 14.7822 12.5249 15.0327C12.4943 15.1864 12.533 15.338 12.6436 15.495C12.7514 15.6502 12.8617 15.7971 12.9682 15.9382ZM9.42694 6.48106L9.80599 6.82426C9.57379 7.12992 9.70683 7.39333 9.77484 7.49307C9.88565 7.65528 10.0935 7.77349 10.2764 7.68784C10.5877 7.54235 10.634 7.46637 10.8957 7.04778C11.1019 6.71316 11.3186 6.38629 11.5455 6.06775C11.866 5.61425 12.235 5.37577 12.6406 5.35787C13.2898 5.33147 13.7691 5.89556 13.7889 5.9202L13.4247 6.28247C13.4217 6.27836 13.0752 5.8759 12.6574 5.89556C12.4049 5.90729 12.1616 6.07567 11.9343 6.39599C11.7144 6.70671 11.5038 7.02495 11.3027 7.35021C11.0277 7.79109 10.9136 7.97414 10.4712 8.18182C10.3684 8.22994 10.2577 8.2547 10.1458 8.25457C9.86072 8.25457 9.57379 8.09704 9.38007 7.81485C9.10208 7.40858 9.11996 6.88498 9.42694 6.48106ZM14.7903 17.7161C15.2969 18.3896 15.8218 19.0869 15.249 19.8686C15.0656 20.12 14.855 20.2805 14.6692 20.4224C14.2663 20.729 14.0008 20.9314 14.1194 21.9305L13.6309 22C13.474 20.6773 13.9384 20.3239 14.3871 19.9813C14.5605 19.849 14.725 19.7237 14.8651 19.5327C15.1612 19.1279 14.9859 18.8235 14.4101 18.0573C14.2953 17.9071 14.1833 17.7544 14.0742 17.5994C13.8756 17.3166 13.804 17.0039 13.8656 16.6953C14.001 16.0198 14.7133 15.5909 14.7941 15.5443L15.0249 16.0195C14.8613 16.1151 14.4194 16.4433 14.3467 16.8109C14.3161 16.9646 14.3549 17.1154 14.4649 17.2732C14.5733 17.4281 14.6833 17.5747 14.7903 17.7161ZM9.71469 9.17417C8.2627 9.11492 7.50405 9.45607 7.45853 10.1888C7.43984 10.481 7.46233 10.8254 7.48671 11.1906C7.54578 12.0808 7.61297 13.0908 7.06106 13.6915C6.75923 14.0207 6.3203 14.1823 5.72476 14.1823C5.6283 14.1823 5.52697 14.1782 5.42239 14.17L5.45815 13.6341C6.05938 13.6825 6.46932 13.5771 6.71262 13.3114C7.10549 12.8837 7.04941 12.043 6.99522 11.2296C6.96975 10.8456 6.94618 10.4827 6.96677 10.1519C7.01337 9.41148 7.53115 8.54731 9.7323 8.63678L9.71469 9.17417ZM15.7034 10.0885C15.6958 10.0756 15.5178 9.78197 15.026 9.78197C14.5662 9.78197 13.9189 10.2713 13.7081 10.4602L13.4142 10.068C13.4505 10.0354 14.308 9.27567 15.0263 9.27567C15.793 9.27567 16.0884 9.80426 16.1003 9.82685L15.9006 9.95591L15.7034 10.0885ZM14.8916 10.5813C14.8916 10.4068 15.0385 10.2654 15.2195 10.2654C15.4007 10.2654 15.5481 10.4068 15.5481 10.5816C15.5481 10.7561 15.4007 10.8975 15.2195 10.8975C15.0385 10.8975 14.8916 10.7558 14.8916 10.5813Z" fill="white"/>
<path d="M23.5 12C23.5 18.3513 18.3513 23.5 12 23.5C5.64873 23.5 0.5 18.3513 0.5 12C0.5 5.64873 5.64873 0.5 12 0.5C18.3513 0.5 23.5 5.64873 23.5 12Z" stroke="black" stroke-opacity="0.097"/>
</svg>
