<svg width="24" height="24" viewBox="0 0 24 24" fill="none" xmlns="http://www.w3.org/2000/svg">
<path d="M12 24C18.6274 24 24 18.6274 24 12C24 5.37258 18.6274 0 12 0C5.37258 0 0 5.37258 0 12C0 18.6274 5.37258 24 12 24Z" fill="black"/>
<path opacity="0.73" d="M9.32368 6.18793C9.20676 6.07273 9.14828 6.01514 9.14828 5.94358C9.14828 5.87201 9.20676 5.81442 9.32368 5.69924L11.9037 3.15813C12.0206 3.04294 12.0791 2.98535 12.1517 2.98535C12.2244 2.98535 12.2829 3.04294 12.3998 3.15813L14.9798 5.69923C15.0968 5.81442 15.1552 5.87201 15.1552 5.94358C15.1552 6.01514 15.0968 6.07273 14.9798 6.18793L12.3998 8.72903C12.2829 8.8442 12.2244 8.9018 12.1517 8.9018C12.0791 8.9018 12.0206 8.8442 11.9037 8.72903L9.32368 6.18793Z" fill="#00E1ED"/>
<path opacity="0.43" d="M9.32542 18.3002C9.20847 18.185 9.14999 18.1274 9.14999 18.0559C9.14999 17.9843 9.20847 17.9267 9.32542 17.8115L11.9054 15.2704C12.0224 15.1552 12.0808 15.0977 12.1535 15.0977C12.2261 15.0977 12.2846 15.1552 12.4016 15.2704L14.9816 17.8115C15.0985 17.9267 15.157 17.9843 15.157 18.0559C15.157 18.1274 15.0985 18.185 14.9816 18.3002L12.4016 20.8413C12.2846 20.9565 12.2261 21.0141 12.1535 21.0141C12.0808 21.0141 12.0224 20.9565 11.9054 20.8413L9.32542 18.3002Z" fill="#00E1ED"/>
<path opacity="0.48" d="M6.49901 16.065C6.45621 15.9077 6.43479 15.829 6.47113 15.767C6.50745 15.705 6.58734 15.6839 6.7471 15.6418L10.2715 14.7117C10.4312 14.6695 10.5111 14.6484 10.574 14.6842C10.637 14.72 10.6583 14.7987 10.7011 14.956L11.6454 18.4272C11.6882 18.5846 11.7096 18.6632 11.6732 18.7252C11.6369 18.7872 11.557 18.8083 11.3973 18.8504L7.87301 19.7805C7.71326 19.8226 7.63336 19.8437 7.57044 19.8079C7.50752 19.7721 7.48613 19.6935 7.44333 19.5361L6.49901 16.065Z" fill="#00E1ED"/>
<path opacity="0.18" d="M12.6474 5.57662C12.6046 5.41928 12.5832 5.34061 12.6195 5.27863C12.6559 5.21665 12.7357 5.19557 12.8955 5.15342L16.4197 4.2234C16.5795 4.18124 16.6593 4.16016 16.7222 4.19594C16.7852 4.23173 16.8066 4.3104 16.8494 4.46774L17.7937 7.93886C17.8365 8.09622 17.8579 8.17488 17.8216 8.23686C17.7852 8.29884 17.7054 8.3199 17.5456 8.36205L14.0213 9.29216C13.8616 9.33432 13.7817 9.35541 13.7188 9.31962C13.6559 9.28382 13.6344 9.20516 13.5916 9.04781L12.6474 5.57662Z" fill="#00E1ED"/>
<path opacity="0.53" d="M4.49733 16.6307C4.33758 16.5886 4.2577 16.5675 4.22137 16.5055C4.18504 16.4435 4.20644 16.3648 4.24924 16.2075L5.19349 12.7363C5.23629 12.579 5.25769 12.5003 5.32062 12.4645C5.38354 12.4287 5.46342 12.4498 5.62317 12.492L9.14754 13.4221C9.30729 13.4642 9.38719 13.4853 9.4235 13.5473C9.45985 13.6092 9.43843 13.6879 9.39563 13.8453L8.4513 17.3164C8.4085 17.4737 8.38712 17.5524 8.32419 17.5882C8.26127 17.624 8.18138 17.6029 8.02162 17.5607L4.49733 16.6307Z" fill="#00E1ED"/>
<path opacity="0.23" d="M15.1428 10.5721C14.9831 10.5299 14.9032 10.5089 14.8669 10.4469C14.8305 10.3849 14.852 10.3063 14.8948 10.1489L15.839 6.67772C15.8818 6.52037 15.9032 6.4417 15.9661 6.40591C16.0291 6.37012 16.1089 6.39121 16.2687 6.43336L19.793 7.36347C19.9528 7.40563 20.0327 7.42669 20.069 7.48867C20.1053 7.55065 20.0839 7.62931 20.0411 7.78667L19.0968 11.2578C19.054 11.4151 19.0326 11.4938 18.9697 11.5296C18.9068 11.5654 18.8269 11.5443 18.6671 11.5021L15.1428 10.5721Z" fill="#00E1ED"/>
<path opacity="0.58" d="M3.17542 12.2447C3.05847 12.1295 3 12.0719 3 12.0004C3 11.9288 3.05847 11.8712 3.17541 11.756L5.7554 9.21476C5.87234 9.09956 5.93082 9.04199 6.00348 9.04199C6.07614 9.04199 6.13462 9.09956 6.25156 9.21476L8.83154 11.7559C8.94849 11.8711 9.00697 11.9287 9.00697 12.0003C9.00697 12.0718 8.94849 12.1294 8.83154 12.2446L6.25156 14.7857C6.13461 14.9009 6.07614 14.9585 6.00348 14.9585C5.93082 14.9585 5.87235 14.9009 5.7554 14.7857L3.17542 12.2447Z" fill="#00E1ED"/>
<path opacity="0.28" d="M15.4675 12.2378C15.3506 12.1226 15.2921 12.065 15.2921 11.9935C15.2921 11.9219 15.3506 11.8643 15.4675 11.7491L18.0475 9.20796C18.1644 9.09276 18.2229 9.03516 18.2956 9.03516C18.3682 9.03516 18.4267 9.09276 18.5436 9.20796L21.1236 11.7491C21.2406 11.8643 21.299 11.9219 21.299 11.9935C21.299 12.065 21.2406 12.1226 21.1236 12.2378L18.5436 14.7789C18.4267 14.8941 18.3682 14.9517 18.2956 14.9517C18.2229 14.9517 18.1644 14.8941 18.0475 14.7789L15.4675 12.2378Z" fill="#00E1ED"/>
<path opacity="0.63" d="M4.24546 7.79049C4.20266 7.63314 4.18126 7.55448 4.21759 7.4925C4.25392 7.43051 4.3338 7.40945 4.49355 7.3673L8.01784 6.43726C8.1776 6.3951 8.25746 6.37404 8.32038 6.4098C8.38331 6.4456 8.40472 6.52426 8.44753 6.68161L9.39185 10.1527C9.43465 10.3101 9.45607 10.3887 9.41972 10.4507C9.38338 10.5127 9.30352 10.5338 9.14376 10.576L5.61939 11.506C5.45964 11.5482 5.37976 11.5693 5.31683 11.5335C5.25391 11.4977 5.2325 11.419 5.1897 11.2617L4.24546 7.79049Z" fill="#00E1ED"/>
<path opacity="0.33" d="M14.8932 13.8461C14.8504 13.6888 14.829 13.6101 14.8653 13.5481C14.9016 13.4862 14.9815 13.4651 15.1413 13.4229L18.6656 12.4929C18.8253 12.4508 18.9052 12.4297 18.9681 12.4655C19.031 12.5012 19.0524 12.5799 19.0952 12.7373L20.0395 16.2084C20.0823 16.3657 20.1037 16.4444 20.0673 16.5064C20.031 16.5684 19.9511 16.5894 19.7914 16.6316L16.2672 17.5617C16.1074 17.6038 16.0276 17.6249 15.9646 17.5891C15.9017 17.5534 15.8803 17.4747 15.8375 17.3174L14.8932 13.8461Z" fill="#00E1ED"/>
<path opacity="0.68" d="M6.74685 8.362C6.58713 8.31981 6.50723 8.29875 6.47092 8.23677C6.43457 8.17479 6.45599 8.09613 6.49879 7.93877L7.44302 4.46775C7.48582 4.3104 7.50724 4.23173 7.57016 4.19595C7.63309 4.16016 7.71295 4.18124 7.8727 4.2234L11.397 5.15341C11.5568 5.19557 11.6366 5.21665 11.673 5.27863C11.7093 5.34061 11.6879 5.41928 11.6451 5.57663L10.7008 9.04782C10.658 9.20517 10.6365 9.28383 10.5736 9.31962C10.5107 9.35539 10.4308 9.33433 10.2711 9.29214L6.74685 8.362Z" fill="#00E1ED"/>
<path opacity="0.38" d="M12.8983 18.8485C12.7385 18.8063 12.6587 18.7852 12.6223 18.7232C12.586 18.6613 12.6074 18.5826 12.6502 18.4253L13.5945 14.9541C13.6373 14.7967 13.6587 14.7181 13.7216 14.6823C13.7845 14.6465 13.8644 14.6676 14.0241 14.7097L17.5485 15.6398C17.7082 15.682 17.7881 15.7031 17.8244 15.7651C17.8607 15.827 17.8393 15.9057 17.7965 16.063L16.8523 19.5341C16.8095 19.6915 16.7881 19.7701 16.7251 19.8059C16.6622 19.8417 16.5824 19.8206 16.4226 19.7785L12.8983 18.8485Z" fill="#00E1ED"/>
<path d="M23.5 12C23.5 18.3513 18.3513 23.5 12 23.5C5.64873 23.5 0.5 18.3513 0.5 12C0.5 5.64873 5.64873 0.5 12 0.5C18.3513 0.5 23.5 5.64873 23.5 12Z" stroke="white" stroke-opacity="0.3"/>
</svg>
