<svg width="24" height="24" viewBox="0 0 24 24" fill="none" xmlns="http://www.w3.org/2000/svg">
<path d="M12.0001 24C18.6275 24 24.0001 18.6274 24.0001 12C24.0001 5.37258 18.6275 0 12.0001 0C5.37264 0 6.10352e-05 5.37258 6.10352e-05 12C6.10352e-05 18.6274 5.37264 24 12.0001 24Z" fill="#003057"/>
<path d="M9.5203 19C9.37998 18.9999 9.24174 18.967 9.11693 18.9039C8.99212 18.8408 8.88434 18.7493 8.80249 18.6371L5.29034 13.844H3.00006V12.0993H5.74367C5.88387 12.0991 6.02209 12.1319 6.14691 12.1948C6.27173 12.2577 6.37955 12.349 6.46145 12.4611L9.3314 16.376L13.7101 6.52223C13.779 6.36687 13.8924 6.2347 14.0365 6.14193C14.1806 6.04917 14.349 5.99984 14.5211 6H20.0001V7.74466H15.1007L10.3325 18.4766C10.2696 18.6181 10.1697 18.7407 10.043 18.8316C9.91623 18.9226 9.76722 18.9787 9.61115 18.9942C9.5797 18.9959 9.54819 18.9959 9.51673 18.9942" fill="#00C389"/>
<path d="M-5.24537e-07 12C-8.1423e-07 18.6274 5.37258 24 12 24C18.6274 24 24 18.6274 24 12C24 5.37258 18.6274 -2.34843e-07 12 -5.24537e-07C5.37258 -8.1423e-07 -2.34843e-07 5.37258 -5.24537e-07 12Z" fill="#6535D6"/>
<path d="M12 23.5C5.64872 23.5 0.499999 18.3513 0.499999 12C0.5 5.64872 5.64872 0.499999 12 0.499999C18.3513 0.5 23.5 5.64873 23.5 12C23.5 18.3513 18.3513 23.5 12 23.5Z" stroke="white" stroke-opacity="0.3"/>
<path fill-rule="evenodd" clip-rule="evenodd" d="M12.0006 4C13.0075 4 13.8759 5.06489 14.448 6.79526C14.2173 6.86104 13.9809 6.93393 13.7427 7.0157C13.2676 5.584 12.6154 4.74163 12.0006 4.74163C11.3078 4.74163 10.5688 5.81007 10.0876 7.58578C10.2756 7.6477 10.4653 7.71319 10.659 7.78607C11.1154 7.95823 11.5645 8.15001 12.0053 8.36089L12.084 8.32326C12.4063 8.17224 12.7329 8.03114 13.0634 7.90015C13.9301 7.55941 14.7675 7.31437 15.5338 7.18519C17.1845 6.90548 18.345 7.19467 18.8006 8C19.2573 8.80533 18.9234 9.97393 17.8607 11.2901C17.799 11.3653 17.7367 11.4415 17.6712 11.5167C17.5079 11.3322 17.339 11.1531 17.1646 10.9796C18.1029 9.87141 18.4719 8.90252 18.1706 8.37096C17.8852 7.86756 16.9452 7.69807 15.6535 7.91615C15.3651 7.96602 15.079 8.0289 14.796 8.10459C14.8378 8.30163 14.8773 8.50281 14.9119 8.71111C14.9915 9.17719 15.0532 9.67052 15.097 10.1843C15.3212 10.3441 15.5418 10.5093 15.7584 10.6797C16.5926 11.3375 17.3091 12.0276 17.8604 12.7099C18.9234 14.0261 19.2573 15.1947 18.8006 16C18.4584 16.605 17.7179 16.9185 16.6707 16.9185C16.3244 16.9185 15.9447 16.8847 15.5338 16.8148C15.4277 16.797 15.3196 16.7766 15.2103 16.7544C15.2758 16.5244 15.3363 16.2839 15.3914 16.035C15.4796 16.0527 15.5673 16.0687 15.6535 16.0839C16.9443 16.3019 17.8852 16.1324 18.1706 15.629C18.5166 15.0178 17.976 13.8284 16.7039 12.5135C16.5749 12.6333 16.4439 12.7507 16.3109 12.8658C16.2907 12.8827 16.2702 12.9007 16.2503 12.9164C15.8778 13.2335 15.4925 13.5343 15.0953 13.8181C15.0764 14.047 15.0533 14.2756 15.0261 14.5037C14.6293 17.763 13.4602 20 12.0006 20C10.9961 20 10.1285 18.9384 9.55647 17.2121C9.79367 17.146 10.0289 17.0725 10.2617 16.9917C10.7369 18.419 11.3871 19.2584 12.0006 19.2584C12.6935 19.2584 13.4345 18.1864 13.9166 16.4059C13.7244 16.344 13.5337 16.2775 13.3445 16.2065C12.8904 16.037 12.4434 15.8479 12.0047 15.6397L11.9758 15.6536C11.721 15.7742 11.4701 15.8865 11.2227 15.9905C11.1841 16.0062 11.1469 16.0222 11.1094 16.0361C9.68449 16.621 8.38326 16.9239 7.34845 16.9239C6.31767 16.9239 5.5533 16.6231 5.19981 16C4.69408 15.1079 5.17271 13.8015 6.36985 12.4237L6.87847 12.9707C5.90997 14.1001 5.52534 15.0898 5.83097 15.629C6.17696 16.24 7.45455 16.3579 9.20442 15.8951C9.16209 15.6943 9.12383 15.4925 9.08967 15.2901C9.00811 14.8029 8.94654 14.3124 8.90514 13.8199C8.68162 13.6611 8.46148 13.4974 8.24486 13.3289C6.21675 11.7393 5 10.0513 5 8.79467C5 8.5043 5.06545 8.23763 5.19981 8C5.70295 7.11319 7.03936 6.87881 8.79413 7.23704C8.72781 7.47022 8.66611 7.71407 8.61104 7.96593C7.16853 7.67556 6.13573 7.83141 5.83097 8.37096C5.48497 8.98133 6.02386 10.1683 7.29222 11.4812C7.45484 11.331 7.6238 11.1819 7.80083 11.0338C8.15808 10.7339 8.52676 10.4488 8.906 10.179C8.92618 9.94578 8.94839 9.71526 8.97607 9.49185C9.37338 6.23556 10.5426 4 12.0006 4ZM14.3044 14.3556C14.1282 14.4694 13.9504 14.5807 13.771 14.6892C13.4986 14.8531 13.2225 15.0103 12.9429 15.1609C12.9115 15.1781 12.88 15.1938 12.8486 15.211C13.2553 15.3867 13.669 15.5446 14.0887 15.6841C14.1314 15.4812 14.1709 15.2717 14.2069 15.0548C14.2438 14.8296 14.2753 14.5947 14.3044 14.3556ZM9.69458 14.3544C9.72515 14.6056 9.76032 14.8498 9.79982 15.0856C9.83442 15.2919 9.87277 15.4901 9.91371 15.6833C10.0314 15.6447 10.1501 15.6039 10.2712 15.5603C10.3076 15.5476 10.3448 15.5336 10.3814 15.52C10.6386 15.426 10.8932 15.3242 11.1446 15.2148L11.1518 15.2119C10.9034 15.0791 10.6576 14.9413 10.4145 14.7985C10.4021 14.7911 10.3886 14.7837 10.3762 14.7751C10.1464 14.6393 9.91919 14.499 9.69458 14.3544ZM12.0012 9.18252C11.586 9.38754 11.1782 9.60813 10.7787 9.84385C10.3794 10.0786 9.98829 10.3278 9.60607 10.5908C9.57273 11.0598 9.55619 11.5298 9.55647 12C9.55647 12.4877 9.57406 12.957 9.60549 13.4086C9.81799 13.555 10.0365 13.7001 10.2649 13.8427C10.8274 14.1973 11.4069 14.5226 12.0012 14.8175L12.0796 14.7793C12.357 14.64 12.631 14.4938 12.9014 14.3407C13.4126 14.0534 13.9111 13.7427 14.3952 13.4095C14.4285 12.9404 14.4451 12.4703 14.4448 12C14.4448 11.5126 14.4275 11.043 14.3958 10.5917C14.0137 10.328 13.6225 10.0785 13.2229 9.84385C12.8232 9.60873 12.4157 9.38814 12.0009 9.18252H12.0012ZM12.0006 11.0462C12.5176 11.0462 12.9369 11.4732 12.9369 12C12.9369 12.5268 12.5176 12.9538 12.0006 12.9538C11.4837 12.9538 11.0647 12.5268 11.0647 12C11.0647 11.4732 11.4837 11.0462 12.0006 11.0462ZM15.1567 11.1455C15.1674 11.4255 15.1728 11.7105 15.1728 12C15.1728 12.0699 15.1728 12.1399 15.172 12.2098C15.1697 12.429 15.1633 12.6441 15.155 12.8578C15.3424 12.7132 15.5223 12.5686 15.6941 12.4237L15.7576 12.371C15.9029 12.2465 16.0422 12.1233 16.1759 12C15.8486 11.6999 15.5085 11.4147 15.1567 11.1455ZM8.84632 11.1434C8.67793 11.2732 8.51503 11.403 8.35933 11.5327C8.17191 11.688 7.99402 11.8439 7.82477 12.0003C7.94759 12.1132 8.07475 12.2267 8.20767 12.3401C8.40834 12.512 8.622 12.6836 8.84488 12.8548C8.83397 12.57 8.8285 12.285 8.82844 12C8.82844 11.9301 8.82844 11.8601 8.83046 11.7911C8.8319 11.5724 8.83824 11.357 8.84632 11.1434ZM14.0876 8.31615C13.6908 8.4474 13.2996 8.59578 12.9149 8.76089L12.8515 8.78844C13.0951 8.91911 13.3405 9.05689 13.5867 9.20148C13.5991 9.20889 13.6127 9.2163 13.6254 9.22489C13.8578 9.36119 14.0838 9.50281 14.3067 9.64652C14.2771 9.40177 14.242 9.15775 14.2015 8.91467C14.1674 8.71439 14.1295 8.51485 14.0876 8.31615ZM9.91314 8.31615C9.82132 8.7548 9.74907 9.19753 9.6966 9.64296C9.91862 9.50015 10.147 9.35911 10.3814 9.22074L10.4145 9.20148C10.658 9.05878 10.9042 8.92107 11.153 8.78844C10.9358 8.69476 10.7166 8.60605 10.4956 8.52237C10.303 8.44887 10.1089 8.38011 9.91314 8.31615Z" fill="white"/>
</svg>
