<svg width="24" height="24" viewBox="0 0 24 24" fill="none" xmlns="http://www.w3.org/2000/svg">
<path d="M12 24C18.6274 24 24 18.6274 24 12C24 5.37258 18.6274 0 12 0C5.37258 0 0 5.37258 0 12C0 18.6274 5.37258 24 12 24Z" fill="#192123"/>
<path d="M8.27301 7.86808C8.36225 7.95702 8.52663 8.41575 8.52663 8.41575C8.52663 8.41575 8.66752 7.98511 8.78024 7.86808C8.89296 7.75106 9.32974 7.61531 9.32974 7.61531C9.32974 7.61531 8.87887 7.46085 8.78024 7.36255C8.68161 7.26425 8.52663 6.81488 8.52663 6.81488C8.52663 6.81488 8.38103 7.25489 8.27301 7.36255C8.16499 7.47021 7.72351 7.61531 7.72351 7.61531C7.72351 7.61531 8.17908 7.77447 8.27301 7.86808Z" fill="white"/>
<path d="M11.2366 8.4298C11.2789 8.47193 11.3493 8.67789 11.3493 8.67789C11.3493 8.67789 11.4104 8.48129 11.462 8.4298C11.5137 8.37831 11.7109 8.31746 11.7109 8.31746C11.7109 8.31746 11.509 8.24725 11.462 8.20512C11.4151 8.15831 11.3493 7.95703 11.3493 7.95703C11.3493 7.95703 11.2836 8.15363 11.2366 8.20512C11.1896 8.25661 10.9877 8.31746 10.9877 8.31746C10.9877 8.31746 11.1943 8.39236 11.2366 8.4298Z" fill="white"/>
<path d="M16.0082 2.61615L6.69019 8.3175L13.7867 6.64642L16.0082 2.61615Z" fill="#19898A"/>
<path d="M13.7868 6.64642L8.70508 15.8538L15.1112 6.24854L16.0083 2.61615L13.7868 6.64642Z" fill="#68FEE2"/>
<path d="M13.7867 6.64636L6.69019 8.31745L8.70502 15.8537L13.7867 6.64636Z" fill="#1FC9A8"/>
<path d="M8.70511 15.8537L6.69027 8.31744L5.99988 10.4145L8.70511 15.8537Z" fill="#68FEE2"/>
<path d="M8.27301 7.86808C8.36224 7.95702 8.52662 8.41575 8.52662 8.41575C8.52662 8.41575 8.66752 7.98511 8.78024 7.86808C8.89296 7.75106 9.32974 7.61531 9.32974 7.61531C9.32974 7.61531 8.87887 7.46085 8.78024 7.36255C8.68161 7.26425 8.52662 6.81488 8.52662 6.81488C8.52662 6.81488 8.38103 7.25489 8.27301 7.36255C8.16499 7.47021 7.72351 7.61531 7.72351 7.61531C7.72351 7.61531 8.17908 7.77447 8.27301 7.86808Z" fill="white"/>
<path d="M11.2366 8.4298C11.2789 8.47193 11.3493 8.67789 11.3493 8.67789C11.3493 8.67789 11.4104 8.48129 11.462 8.4298C11.5137 8.37831 11.7109 8.31746 11.7109 8.31746C11.7109 8.31746 11.509 8.24725 11.462 8.20512C11.4151 8.15831 11.3493 7.95703 11.3493 7.95703C11.3493 7.95703 11.2836 8.15363 11.2366 8.20512C11.1896 8.25661 10.9877 8.31746 10.9877 8.31746C10.9877 8.31746 11.1943 8.39236 11.2366 8.4298Z" fill="white"/>
<path d="M8.99158 20.6049L18.3096 14.9035L11.2131 16.5746L8.99158 20.6049Z" fill="#19898A"/>
<path d="M11.2131 16.5746L16.2948 7.37189L9.88862 16.9724L8.99158 20.6048L11.2131 16.5746Z" fill="#68FEE2"/>
<path d="M11.213 16.5746L18.3095 14.9035L16.2947 7.37189L11.213 16.5746Z" fill="#3AC1AC"/>
<path d="M16.2947 7.37189L18.3095 14.9035L18.9999 12.8064L16.2947 7.37189Z" fill="#68FEE2"/>
<path d="M13.7632 16.4623C13.7209 16.4201 13.6505 16.2142 13.6505 16.2142C13.6505 16.2142 13.5894 16.4108 13.5377 16.4623C13.4861 16.5138 13.2888 16.5746 13.2888 16.5746C13.2888 16.5746 13.4908 16.6448 13.5377 16.6869C13.5847 16.7291 13.6505 16.935 13.6505 16.935C13.6505 16.935 13.7162 16.7384 13.7632 16.6869C13.8101 16.6355 14.0121 16.5746 14.0121 16.5746C14.0121 16.5746 13.8054 16.4997 13.7632 16.4623Z" fill="white"/>
<path d="M8.99158 20.6049L18.3096 14.9035L11.2131 16.5746L8.99158 20.6049Z" fill="#19898A"/>
<path d="M11.2131 16.5746L16.2948 7.37189L9.88862 16.9724L8.99158 20.6048L11.2131 16.5746Z" fill="#68FEE2"/>
<path d="M11.213 16.5746L18.3095 14.9035L16.2947 7.37189L11.213 16.5746Z" fill="#1FC9A8"/>
<path d="M16.2947 7.37189L18.3095 14.9035L18.9999 12.8064L16.2947 7.37189Z" fill="#68FEE2"/>
<path d="M13.7632 16.4623C13.7209 16.4201 13.6505 16.2142 13.6505 16.2142C13.6505 16.2142 13.5894 16.4108 13.5377 16.4623C13.4861 16.5138 13.2888 16.5746 13.2888 16.5746C13.2888 16.5746 13.4908 16.6448 13.5377 16.6869C13.5847 16.7291 13.6505 16.935 13.6505 16.935C13.6505 16.935 13.7162 16.7384 13.7632 16.6869C13.8101 16.6355 14.0121 16.5746 14.0121 16.5746C14.0121 16.5746 13.8054 16.4997 13.7632 16.4623Z" fill="white"/>
<path d="M23.5 12C23.5 18.3513 18.3513 23.5 12 23.5C5.64873 23.5 0.5 18.3513 0.5 12C0.5 5.64873 5.64873 0.5 12 0.5C18.3513 0.5 23.5 5.64873 23.5 12Z" stroke="black" stroke-opacity="0.097"/>
</svg>
