<svg width="24" height="24" viewBox="0 0 24 24" fill="none" xmlns="http://www.w3.org/2000/svg">
<path d="M12 24C18.6274 24 24 18.6274 24 12C24 5.37258 18.6274 0 12 0C5.37258 0 0 5.37258 0 12C0 18.6274 5.37258 24 12 24Z" fill="#A8A8A8"/>
<path d="M23.5 12C23.5 18.3513 18.3513 23.5 12 23.5C5.64873 23.5 0.5 18.3513 0.5 12C0.5 5.64873 5.64873 0.5 12 0.5C18.3513 0.5 23.5 5.64873 23.5 12Z" stroke="white" stroke-opacity="0.307"/>
<path d="M18.5409 8.82455C18.2352 7.93008 17.7891 7.17452 17.2012 6.55657C16.6146 5.93991 15.9097 5.5102 15.0877 5.26743C14.4751 5.08958 13.5855 5 12.4188 5H7.24229V10.5862H5V13.132H7.24229V19H12.571C13.6167 19 14.453 18.9013 15.0773 18.704C15.9136 18.4366 16.5769 18.064 17.0673 17.5862C17.7189 16.9566 18.2196 16.1322 18.5695 15.1131C18.8569 14.2797 19 13.2865 19 12.1337C19 10.8225 18.8478 9.71903 18.5409 8.82455ZM15.7861 14.5731C15.5949 15.2001 15.3478 15.6506 15.0448 15.9245C14.7417 16.1984 14.3606 16.3932 13.9015 16.5074C13.5504 16.597 12.9794 16.6411 12.1886 16.6411H10.0738V13.132H12.2328V10.5862H10.0738V7.36795H11.3471C12.5007 7.36795 13.2759 7.41339 13.6713 7.50167C14.2007 7.61721 14.6377 7.83661 14.9823 8.16116C15.327 8.48572 15.5949 8.9375 15.7861 9.51651C15.9773 10.0968 16.0723 10.9277 16.0723 12.0091C16.0723 13.0918 15.9773 13.946 15.7861 14.5731Z" fill="white"/>
</svg>
