<svg width="24" height="24" viewBox="0 0 24 24" fill="none" xmlns="http://www.w3.org/2000/svg">
<path fill-rule="evenodd" clip-rule="evenodd" d="M0 12C0 5.37259 5.37259 0 12 0C18.6274 0 24 5.37259 24 12C24 18.6274 18.6274 24 12 24C5.37259 24 0 18.6274 0 12Z" fill="black"/>
<path d="M23.5 12C23.5 18.3513 18.3513 23.5 12 23.5C5.64873 23.5 0.5 18.3513 0.5 12C0.5 5.64873 5.64873 0.5 12 0.5C18.3513 0.5 23.5 5.64873 23.5 12Z" stroke="white" stroke-opacity="0.3"/>
<path d="M17.5657 9.79568C16.4675 9.90929 15.6343 10.8939 15.7101 11.9921C15.7101 12.2951 15.5965 12.5602 15.3314 12.7117C15.2178 12.7874 15.0663 12.8253 14.9148 12.8253C14.7633 12.8253 14.6497 12.7874 14.4982 12.7117C14.1574 12.5223 13.7787 12.4087 13.4 12.4087C13.3243 12.4087 13.2485 12.4087 13.1728 12.4087C12.0746 12.5223 11.2793 13.5069 11.3551 14.6051C11.3551 14.9081 11.2414 15.1732 10.9764 15.3247C10.8628 15.4004 10.7113 15.4383 10.5598 15.4383C10.4083 15.4383 10.2947 15.4004 10.1811 15.3247C9.84027 15.1353 9.46157 15.0217 9.08287 15.0217C9.00713 15.0217 8.93139 15.0217 8.85565 15.0217C7.83317 15.1353 7.07577 16.0063 7.0379 17.0667C7.0379 18.2028 7.94678 19.1495 9.08287 19.1495C9.15861 19.1495 9.23435 19.1495 9.27222 19.1495C10.2568 19.0359 11.0521 18.2785 11.1278 17.2939C11.1278 17.1803 11.1278 17.0667 11.1278 16.9531C11.1278 16.6501 11.2414 16.385 11.5065 16.2335C11.6201 16.1578 11.7716 16.1199 11.9231 16.1199C12.0746 16.1199 12.1882 16.1578 12.3397 16.2335C12.6805 16.4229 13.0592 16.5365 13.4379 16.5365C13.5136 16.5365 13.5894 16.5365 13.6651 16.5365C14.6497 16.4229 15.4071 15.6276 15.4829 14.6809C15.4829 14.5673 15.4829 14.4537 15.4829 14.3401C15.4829 14.0371 15.5965 13.772 15.8616 13.6205C15.9752 13.5448 16.1266 13.5069 16.2781 13.5069C16.4296 13.5069 16.5432 13.5448 16.6568 13.6205C16.9977 13.8099 17.3764 13.9235 17.7551 13.9235C17.8308 13.9235 17.9065 13.9235 17.9823 13.9235C19.0048 13.7341 19.8 12.901 19.8 11.8407C19.8 10.7046 18.8911 9.75781 17.7551 9.75781C17.6793 9.75781 17.6036 9.75781 17.5657 9.79568Z" fill="url(#paint0_linear)"/>
<path d="M13.2106 7.1824C12.1124 7.29601 11.2793 8.28062 11.355 9.37885C11.355 9.68181 11.2414 9.94689 10.9763 10.0984C10.8627 10.1741 10.7112 10.212 10.5598 10.212C10.4083 10.212 10.2947 10.1741 10.1811 10.0984C9.84024 9.90903 9.46154 9.79542 9.08284 9.79542C9.0071 9.79542 8.93136 9.79542 8.85562 9.79542C7.83314 9.94689 7.07574 10.78 7.07574 11.8025C7.07574 12.9386 7.98462 13.8854 9.12071 13.8854C9.19645 13.8854 9.27219 13.8854 9.31006 13.8854C10.2947 13.7717 11.0899 13.0143 11.1657 12.0297C11.1657 11.9161 11.1657 11.8025 11.1657 11.6889C11.1657 11.3859 11.2793 11.1209 11.5444 10.9694C11.658 10.8936 11.8095 10.8558 11.9609 10.8558C12.1124 10.8558 12.226 10.8936 12.3396 10.9694C12.6805 11.1587 13.0592 11.2723 13.4379 11.2723C13.5136 11.2723 13.5893 11.2723 13.6651 11.2723C14.6876 11.1587 15.445 10.2877 15.4828 9.22737C15.4828 8.09128 14.574 7.14453 13.4379 7.14453C13.3243 7.14453 13.2864 7.14453 13.2106 7.1824Z" fill="url(#paint1_linear)"/>
<path d="M9.04497 8.65927C10.1744 8.65927 11.0899 7.74371 11.0899 6.6143C11.0899 5.4849 10.1744 4.56934 9.04497 4.56934C7.91556 4.56934 7 5.4849 7 6.6143C7 7.74371 7.91556 8.65927 9.04497 8.65927Z" fill="url(#paint2_linear)"/>
<defs>
<linearGradient id="paint0_linear" x1="7.0379" y1="14.4537" x2="19.8" y2="14.4537" gradientUnits="userSpaceOnUse">
<stop stop-color="#F4C503"/>
<stop offset="1" stop-color="#FFE800"/>
</linearGradient>
<linearGradient id="paint1_linear" x1="7.07574" y1="10.5149" x2="15.4828" y2="10.5149" gradientUnits="userSpaceOnUse">
<stop stop-color="#F4C503"/>
<stop offset="1" stop-color="#FFE800"/>
</linearGradient>
<linearGradient id="paint2_linear" x1="7" y1="6.6143" x2="11.0899" y2="6.6143" gradientUnits="userSpaceOnUse">
<stop stop-color="#F4C503"/>
<stop offset="1" stop-color="#FFE800"/>
</linearGradient>
</defs>
</svg>
