<svg width="24" height="24" viewBox="0 0 24 24" fill="none" xmlns="http://www.w3.org/2000/svg">
<path d="M12 24C18.6274 24 24 18.6274 24 12C24 5.37258 18.6274 0 12 0C5.37258 0 0 5.37258 0 12C0 18.6274 5.37258 24 12 24Z" fill="#CF1011"/>
<path d="M12 4V5.03226C15.8516 5.03226 18.9677 8.14839 18.9677 12C18.9677 15.8452 15.8516 18.9677 12 18.9677C8.14839 18.9677 5.03226 15.8452 5.03226 12C5.03226 10.4387 5.54839 8.99355 6.41935 7.83226C6.72903 8.01935 7.09677 8.12903 7.48387 8.12903C8.62581 8.12903 9.54839 7.20645 9.54839 6.06452C9.54839 4.92258 8.62581 4 7.48387 4C6.34194 4 5.41935 4.92258 5.41935 6.06452C5.41935 6.43871 5.51613 6.78065 5.69032 7.08387C4.63226 8.43871 4 10.1484 4 12C4 16.4194 7.58065 20 12 20C16.4194 20 20 16.4194 20 12C20 7.58065 16.4194 4 12 4ZM7.48387 5.03226C8.05161 5.03226 8.51613 5.49677 8.51613 6.06452C8.51613 6.63226 8.05161 7.09677 7.48387 7.09677C7.35484 7.09677 7.23226 7.07097 7.11613 7.03226C6.77419 6.90323 6.52258 6.6 6.46452 6.22581C6.45806 6.17419 6.45161 6.12258 6.45161 6.06452C6.45161 5.49677 6.91613 5.03226 7.48387 5.03226Z" fill="white"/>
<path d="M11.9999 15.0967C13.7102 15.0967 15.0966 13.7103 15.0966 12C15.0966 10.2897 13.7102 8.9032 11.9999 8.9032C10.2895 8.9032 8.90308 10.2897 8.90308 12C8.90308 13.7103 10.2895 15.0967 11.9999 15.0967Z" fill="white"/>
<path d="M23.5 12C23.5 18.3513 18.3513 23.5 12 23.5C5.64873 23.5 0.5 18.3513 0.5 12C0.5 5.64873 5.64873 0.5 12 0.5C18.3513 0.5 23.5 5.64873 23.5 12Z" stroke="black" stroke-opacity="0.097"/>
</svg>
