<svg width="24" height="24" viewBox="0 0 24 24" fill="none" xmlns="http://www.w3.org/2000/svg">
<path d="M12 24C18.6274 24 24 18.6274 24 12C24 5.37258 18.6274 0 12 0C5.37258 0 0 5.37258 0 12C0 18.6274 5.37258 24 12 24Z" fill="url(#paint0_linear)"/>
<path d="M15.3012 6.89127L12.2763 3.95834C11.8169 3.56075 11.2342 3.33415 10.6269 3.31689C9.97299 3.3245 9.348 3.58761 8.88553 4.04998C8.70226 4.14191 8.70226 4.23355 8.70226 4.32518C8.6961 4.37494 8.70113 4.42544 8.71698 4.473C8.73283 4.52056 8.75911 4.56398 8.7939 4.60009L12.9184 8.5413C13.01 8.63294 13.1017 8.63294 13.1017 8.72457C13.5471 9.18535 13.811 9.79163 13.8447 10.4317C13.8784 11.0717 13.6796 11.7023 13.2849 12.2073L15.3015 10.2827C15.5362 10.0774 15.7233 9.82354 15.8499 9.53863C15.9765 9.25373 16.0395 8.94466 16.0346 8.63294C16.027 7.97888 15.7637 7.35376 15.3012 6.89127Z" fill="white"/>
<path d="M11.7269 13.4901C11.2729 13.0294 11.0108 12.4134 10.9938 11.7668C10.9768 11.1202 11.2061 10.4912 11.6353 10.0073L9.61873 11.932C9.38663 12.1587 9.2022 12.4296 9.07628 12.7286C8.95036 13.0277 8.8855 13.3489 8.8855 13.6733C8.8855 13.9978 8.95036 14.319 9.07628 14.6181C9.2022 14.9171 9.38663 15.188 9.61873 15.4147L14.0181 19.9057C14.0542 19.9405 14.0977 19.9668 14.1452 19.9826C14.1928 19.9985 14.2433 20.0035 14.293 19.9974C14.3428 20.0035 14.3933 19.9985 14.4409 19.9826C14.4884 19.9668 14.5318 19.9405 14.5679 19.9057C14.8 19.679 14.9845 19.4081 15.1104 19.1091C15.2363 18.81 15.3012 18.4888 15.3012 18.1644C15.3012 17.8399 15.2363 17.5187 15.1104 17.2196C14.9845 16.9206 14.8 16.6497 14.5679 16.423L11.8186 13.6733C11.8186 13.5817 11.7269 13.5817 11.7269 13.4901Z" fill="white"/>
<path d="M23.5 12C23.5 18.3513 18.3513 23.5 12 23.5C5.64873 23.5 0.5 18.3513 0.5 12C0.5 5.64873 5.64873 0.5 12 0.5C18.3513 0.5 23.5 5.64873 23.5 12Z" stroke="white" stroke-opacity="0.3"/>
<defs>
<linearGradient id="paint0_linear" x1="0" y1="12.096" x2="24" y2="12.096" gradientUnits="userSpaceOnUse">
<stop stop-color="#FF3C55"/>
<stop offset="0.514" stop-color="#FF3D56"/>
<stop offset="1" stop-color="#FF8B65"/>
</linearGradient>
</defs>
</svg>
