<svg width="24" height="24" viewBox="0 0 24 24" fill="none" xmlns="http://www.w3.org/2000/svg">
<path d="M12 24C18.6274 24 24 18.6274 24 12C24 5.37258 18.6274 0 12 0C5.37258 0 0 5.37258 0 12C0 18.6274 5.37258 24 12 24Z" fill="#6321ED"/>
<path fill-rule="evenodd" clip-rule="evenodd" d="M7.92543 13.7143L8.13429 15.2143L7.08959 15.4285L6.25376 15.2143L5 13.0715L5.41792 9.21426L6.88054 7.28574L8.76108 7.07148L10.6416 6L13.1493 7.28574L12.5224 7.92852C14.3333 8.21419 15.5174 8.42864 16.0746 8.57149C16.9104 8.78574 18.3732 9.85723 18.5821 10.0715C18.7911 10.2857 18.6914 11.2707 18.5821 12C18.5091 12.4862 18.3698 12.8433 18.1642 13.0715L19 18H17.1194L17.5374 17.5715L15.8657 13.9285L11.2686 14.5715L9.59729 18H7.71677L8.34355 16.9285L9.59729 12.4285L8.76145 11.5715L6.88054 12L6.67149 13.7143L7.29827 14.3572L7.92523 13.7143H7.92543ZM10.8649 16.2451L11.4892 14.929L12.3216 14.7097L12.9459 18H10.8649L11.2811 17.7807L10.8649 16.2451ZM14.8757 14.7552L15.5 14.3226L16.5406 16.1613L16.3324 18H14.4594L14.8757 17.351V14.7552Z" fill="white"/>
<path d="M23.5 12C23.5 18.3513 18.3513 23.5 12 23.5C5.64873 23.5 0.5 18.3513 0.5 12C0.5 5.64873 5.64873 0.5 12 0.5C18.3513 0.5 23.5 5.64873 23.5 12Z" stroke="black" stroke-opacity="0.097"/>
</svg>
