<svg width="24" height="24" viewBox="0 0 24 24" fill="none" xmlns="http://www.w3.org/2000/svg">
<path d="M12 24C18.6274 24 24 18.6274 24 12C24 5.37258 18.6274 0 12 0C5.37258 0 0 5.37258 0 12C0 18.6274 5.37258 24 12 24Z" fill="#142D51"/>
<path d="M23.5 12C23.5 18.3513 18.3513 23.5 12 23.5C5.64873 23.5 0.5 18.3513 0.5 12C0.5 5.64873 5.64873 0.5 12 0.5C18.3513 0.5 23.5 5.64873 23.5 12Z" stroke="black" stroke-opacity="0.097"/>
<path d="M11.4693 19.9243C9.58725 19.5297 7.79588 18.2434 6.62799 16.4481C6.11508 15.6629 5.81518 14.712 5.69682 13.5005C5.67313 13.26 5.65735 11.6621 5.65735 9.54716V6H18.6425L18.6267 9.74051C18.6149 13.0036 18.603 13.5283 18.5478 13.8913C18.4058 14.7751 18.169 15.5366 17.877 16.0614C16.7999 17.9909 14.7876 19.522 12.799 19.9282C12.3216 20.0268 11.9428 20.0229 11.4693 19.9243ZM12.7004 19.51C14.2037 19.2259 15.8766 18.1171 16.938 16.7046C17.6167 15.801 17.9126 15.1066 18.1101 13.9229C18.1732 13.5599 18.1812 13.1298 18.193 9.97327L18.2088 6.43403H6.0519V9.38536C6.0519 11.007 6.07138 12.6326 6.09138 12.9956C6.16637 14.1951 6.33998 14.9527 6.72265 15.726C7.57097 17.4466 9.48466 19.0009 11.2999 19.4508C11.9665 19.6164 12.1006 19.6204 12.7004 19.51Z" fill="white"/>
<path d="M11.6587 17.8961C10.7551 17.6988 9.88708 17.2056 9.12952 16.4559C8.30496 15.6431 7.87087 14.8421 7.68934 13.8123C7.62227 13.4453 7.55124 11.642 7.60253 11.642C7.61441 11.642 9.06641 12.7152 10.8262 14.0291C12.9963 15.6468 14.0498 16.4123 14.0932 16.3965C14.1326 16.3846 14.2589 16.2899 14.3773 16.1834C14.5745 16.0058 14.5864 15.9821 14.5272 15.9348C14.4877 15.9072 12.9134 14.7314 11.0274 13.3189L7.59467 10.7543L7.59071 9.38513V8.01221H16.6657V10.3045C16.6657 12.1354 16.6539 12.589 16.6184 12.5574C16.5908 12.5379 15.4347 11.6736 14.0498 10.6398L11.5324 8.75788L10.9958 8.76976L10.4554 8.78158L13.5448 11.0859L16.6342 13.3901L16.6066 13.6109C16.4685 14.7709 16.0306 15.6035 15.0718 16.5228C14.3339 17.2369 13.4738 17.7143 12.5939 17.8959C12.2624 17.9671 11.9941 17.9671 11.6587 17.8961Z" fill="white"/>
</svg>
