<svg width="24" height="24" viewBox="0 0 24 24" fill="none" xmlns="http://www.w3.org/2000/svg">
<path d="M12 24C18.6274 24 24 18.6274 24 12C24 5.37258 18.6274 0 12 0C5.37258 0 0 5.37258 0 12C0 18.6274 5.37258 24 12 24Z" fill="#5B6DEE"/>
<path d="M9.6375 11.1615C9.14934 11.1591 8.66197 11.2004 8.1815 11.2847C8.577 7.70863 11.6255 5 15.255 5C17.4775 5 19 6.06429 19 8.26644C19 10.4694 17.1722 11.5337 14.506 11.5337C12.5373 11.5337 11.6063 11.1624 9.6375 11.1624V11.1615ZM9.494 12.4663C6.82788 12.4663 5 13.5314 5 15.7336C5 17.9357 6.5225 19 8.745 19C12.3745 19 15.423 16.2923 15.8185 12.7153C15.338 12.7996 14.8506 12.8409 14.3625 12.8385C12.3937 12.8385 11.4619 12.4663 9.494 12.4663Z" fill="white"/>
<path d="M23.5 12C23.5 18.3513 18.3513 23.5 12 23.5C5.64873 23.5 0.5 18.3513 0.5 12C0.5 5.64873 5.64873 0.5 12 0.5C18.3513 0.5 23.5 5.64873 23.5 12Z" stroke="white" stroke-opacity="0.3"/>
</svg>
