<svg width="24" height="24" viewBox="0 0 24 24" fill="none" xmlns="http://www.w3.org/2000/svg">
<path d="M12 24C18.6274 24 24 18.6274 24 12C24 5.37258 18.6274 0 12 0C5.37258 0 0 5.37258 0 12C0 18.6274 5.37258 24 12 24Z" fill="url(#paint0_linear)"/>
<path d="M8.89655 9.92476C8.82142 9.83149 8.70742 9.77968 8.58565 9.77968H6.07513C6.05441 9.77968 6.03627 9.7719 6.02073 9.75895C6.00777 9.746 6 9.73045 6 9.71232V8.0205C6 8.00236 6.00777 7.98682 6.02073 7.97387C6.03627 7.95832 6.05441 7.95055 6.07513 7.95314H8.72815C9.39658 7.95314 9.97434 8.22777 10.4614 8.77443L11.1065 9.56205L9.84998 11.0932L8.89655 9.92476ZM13.5341 8.76666C14.0186 8.22518 14.599 7.95314 15.2752 7.95314H17.9204C17.9386 7.95055 17.9567 7.95832 17.9697 7.96868C17.9826 7.98164 17.9878 7.99977 17.9852 8.0205V9.71232C17.9852 9.73045 17.98 9.746 17.9697 9.75895C17.9567 9.7745 17.9386 9.78227 17.9204 9.77968H15.4099C15.2907 9.77709 15.1767 9.83149 15.099 9.92476L13.2492 12.1762L15.1068 14.4432C15.1819 14.5287 15.2933 14.5805 15.4073 14.5779H17.9178C17.936 14.5753 17.9567 14.5857 17.9671 14.5986C17.9774 14.6142 17.9852 14.6349 17.9826 14.653V16.3449C17.9826 16.363 17.9774 16.3785 17.9671 16.3915C17.9541 16.407 17.936 16.4148 17.9178 16.4122H15.2752C14.599 16.4122 14.0238 16.1376 13.5419 15.5909L12.003 13.7126L10.464 15.5909C9.97952 16.1376 9.39918 16.4122 8.72297 16.4122H6.07513C6.057 16.4148 6.03627 16.4044 6.02591 16.3915C6.01295 16.3759 6.00777 16.3552 6.01036 16.3371V14.6453C6.01036 14.6271 6.01555 14.6116 6.02591 14.5986C6.03886 14.5831 6.057 14.5753 6.07513 14.5779H8.58565C8.70483 14.5779 8.81883 14.5235 8.89655 14.4328L10.7127 12.2151L13.5341 8.76666Z" fill="#00D1FF"/>
<path d="M23.5 12C23.5 18.3513 18.3513 23.5 12 23.5C5.64873 23.5 0.5 18.3513 0.5 12C0.5 5.64873 5.64873 0.5 12 0.5C18.3513 0.5 23.5 5.64873 23.5 12Z" stroke="white" stroke-opacity="0.4"/>
<defs>
<linearGradient id="paint0_linear" x1="12.0017" y1="-6.94598e-05" x2="12.0017" y2="6.35054" gradientUnits="userSpaceOnUse">
<stop stop-color="#090220"/>
<stop offset="1" stop-color="#170659"/>
</linearGradient>
</defs>
</svg>
