<svg width="24" height="24" viewBox="0 0 24 24" fill="none" xmlns="http://www.w3.org/2000/svg">
<path d="M12 24C18.6274 24 24 18.6274 24 12C24 5.37258 18.6274 0 12 0C5.37258 0 0 5.37258 0 12C0 18.6274 5.37258 24 12 24Z" fill="#E7271C"/>
<path d="M23.5 12C23.5 18.3513 18.3513 23.5 12 23.5C5.64873 23.5 0.5 18.3513 0.5 12C0.5 5.64873 5.64873 0.5 12 0.5C18.3513 0.5 23.5 5.64873 23.5 12Z" stroke="white" stroke-opacity="0.3"/>
<path fill-rule="evenodd" clip-rule="evenodd" d="M8.31678 4.03835C8.35016 4.01381 8.39126 4.00075 8.43341 4.00131C8.47546 4.00131 8.51639 4.01431 8.55004 4.03835L9.52735 4.73622C9.58291 4.77606 9.61194 4.84111 9.60351 4.90687C9.59508 4.97263 9.55047 5.02911 9.4865 5.05504C9.42251 5.08097 9.34888 5.0724 9.29333 5.03256L8.43341 4.41989L5.63675 6.41794L17.9212 15.1999C17.9704 15.2351 17.9995 15.2905 17.9995 15.3492C17.9995 15.4079 17.9704 15.4632 17.9212 15.4985L17.0185 16.143C16.9322 16.2043 16.8101 16.1874 16.7457 16.1052C16.6813 16.023 16.699 15.9066 16.7853 15.8452L17.4796 15.3488L5.19435 6.56833C5.14482 6.53372 5.11555 6.4787 5.11555 6.42016C5.11555 6.36163 5.14482 6.3066 5.19435 6.27199L8.31678 4.0391V4.03835ZM11.44 4.03835C11.5085 3.98777 11.6041 3.98717 11.6732 4.03687L17.9204 8.50193C17.9878 8.54942 18.0149 8.63321 17.9873 8.70862C17.9614 8.78466 17.8869 8.83611 17.803 8.83605H14.6798C14.6378 8.83579 14.597 8.82282 14.5632 8.79901L10.4635 5.86972C10.4077 5.82988 10.3784 5.7647 10.3866 5.6987C10.3949 5.63271 10.4395 5.57595 10.5036 5.54979C10.5678 5.52364 10.6417 5.53206 10.6975 5.5719L14.7459 8.46414H17.2176L11.5574 4.41914L7.63881 7.21953C7.5525 7.28111 7.43014 7.26436 7.36552 7.18212C7.3009 7.09988 7.31847 6.98329 7.40478 6.92171L11.44 4.03835ZM6.0566 7.88703C6.14289 7.83735 6.25465 7.85818 6.31495 7.93516C6.37524 8.01215 6.36439 8.12017 6.28985 8.18485L5.63597 8.65158L17.9212 17.4335C17.9708 17.4685 18 17.5237 18 17.5824C18 17.6412 17.9708 17.6964 17.9212 17.7314L14.798 19.9635C14.7287 20.0122 14.6341 20.0122 14.5648 19.9635L13.6605 19.3175C13.6047 19.2774 13.5756 19.2119 13.5841 19.1458C13.5926 19.0797 13.6375 19.023 13.7018 18.997C13.7662 18.9709 13.8403 18.9796 13.8961 19.0197L14.6814 19.5805L17.4804 17.5802L5.19203 8.80049C5.14334 8.76502 5.11478 8.70997 5.11478 8.65158C5.11478 8.59319 5.14334 8.53814 5.19203 8.50267L6.05505 7.88777L6.0566 7.88703ZM5.31098 15.1614V15.1629H8.43264C8.47478 15.1623 8.51589 15.1754 8.54926 15.1999L12.6047 18.0974C12.6605 18.137 12.6899 18.2021 12.6818 18.268C12.6735 18.3339 12.6291 18.3907 12.5651 18.417C12.5011 18.4431 12.4273 18.4349 12.3714 18.3951L8.37043 15.5347H5.89722L11.5581 19.5798L15.469 16.7853C15.5248 16.7454 15.5988 16.7368 15.663 16.7629C15.7273 16.789 15.772 16.8457 15.7804 16.9118C15.7889 16.9778 15.7597 17.0431 15.7038 17.0831L11.6756 19.9606C11.6419 19.9846 11.601 19.9976 11.559 19.9976C11.5166 19.998 11.4753 19.985 11.4415 19.9606L5.1928 15.497C5.10838 15.496 5.03419 15.4434 5.00895 15.3666C4.98369 15.2899 5.01311 15.2063 5.08184 15.1597C5.15057 15.113 5.24303 15.1136 5.31098 15.1614Z" fill="white"/>
</svg>
