<svg width="24" height="24" viewBox="0 0 24 24" fill="none" xmlns="http://www.w3.org/2000/svg">
<path d="M12 24C18.6274 24 24 18.6274 24 12C24 5.37258 18.6274 0 12 0C5.37258 0 0 5.37258 0 12C0 18.6274 5.37258 24 12 24Z" fill="#171D2C"/>
<path fill-rule="evenodd" clip-rule="evenodd" d="M15.7895 7.44C16.8949 7.53442 17.9291 8.02319 18.7025 8.81667C19.4758 9.61015 19.9365 10.6551 20 11.76C19.9601 10.3036 19.4551 8.89798 18.5585 7.74787C17.6619 6.59776 16.4206 5.76327 15.0153 5.36597C13.6101 4.96867 12.1144 5.02932 10.7462 5.53909C9.37791 6.04885 8.20858 6.98109 7.40852 8.2C7.50318 7.09736 7.99317 6.06572 8.78864 5.29429C9.58411 4.52285 10.6317 4.06333 11.7393 4C10.293 4.06547 8.90395 4.58331 7.76907 5.48013C6.63419 6.37695 5.81102 7.60727 5.41619 8.99677C5.02137 10.3863 5.07491 11.8645 5.56924 13.2219C6.06357 14.5794 6.97362 15.7472 8.17043 16.56C7.07221 16.4565 6.04756 15.9637 5.2824 15.1711C4.51724 14.3785 4.06226 13.3386 4 12.24C4.03573 13.6918 4.53379 15.0947 5.42206 16.2453C6.31033 17.396 7.54271 18.2347 8.94073 18.6402C10.3388 19.0456 11.8299 18.9967 13.1982 18.5004C14.5664 18.0042 15.7409 17.0864 16.5514 15.88C16.4477 16.9649 15.958 17.9768 15.1709 18.7326C14.3838 19.4884 13.3514 19.938 12.2607 20C13.7173 19.9522 15.1209 19.4426 16.2676 18.5453C17.4143 17.6479 18.2445 16.4094 18.6379 15.0095C19.0312 13.6096 18.9671 12.1211 18.4549 10.76C17.9427 9.39891 17.0091 8.23599 15.7895 7.44ZM11.9799 14.88C11.6062 14.8823 11.2358 14.8091 10.8912 14.6647C10.5466 14.5204 10.2349 14.3078 9.97494 14.04C9.51093 13.5734 9.22355 12.9606 9.16179 12.3063C9.10003 11.6519 9.2677 10.9964 9.63624 10.4516C10.0048 9.90676 10.5513 9.5063 11.1828 9.31848C11.8142 9.13066 12.4914 9.16711 13.0989 9.42162C13.7064 9.67613 14.2066 10.1329 14.5142 10.7142C14.8218 11.2954 14.9178 11.9651 14.7858 12.609C14.6538 13.2529 14.302 13.8313 13.7903 14.2454C13.2787 14.6595 12.6388 14.8838 11.9799 14.88Z" fill="#94FEBF"/>
<path d="M23.5 12C23.5 18.3513 18.3513 23.5 12 23.5C5.64873 23.5 0.5 18.3513 0.5 12C0.5 5.64873 5.64873 0.5 12 0.5C18.3513 0.5 23.5 5.64873 23.5 12Z" stroke="white" stroke-opacity="0.3"/>
</svg>
