<svg width="24" height="24" viewBox="0 0 24 24" fill="none" xmlns="http://www.w3.org/2000/svg">
<path d="M12 24C18.6274 24 24 18.6274 24 12C24 5.37258 18.6274 0 12 0C5.37258 0 0 5.37258 0 12C0 18.6274 5.37258 24 12 24Z" fill="#E0E0E0"/>
<path d="M23.5 12C23.5 18.3513 18.3513 23.5 12 23.5C5.64873 23.5 0.5 18.3513 0.5 12C0.5 5.64873 5.64873 0.5 12 0.5C18.3513 0.5 23.5 5.64873 23.5 12Z" stroke="black" stroke-opacity="0.097"/>
<path d="M16.9966 14.9462V13.0146H16.0477V14.9606V14.9927C16.0711 15.5506 15.9095 16.1006 15.5882 16.5574C15.3044 16.8763 14.9935 17.17 14.6589 17.4352C13.8425 18.0934 12.9481 18.6486 11.9961 19.0882C10.7059 18.4452 9.52056 17.6106 8.48008 16.6129C8.12045 16.1912 7.93121 15.6504 7.94956 15.0965L7.95211 15.0731V13.0157H7.00325V15.0316C6.96626 15.8467 7.2461 16.6445 7.78416 17.258L7.80219 17.277C8.977 18.4153 10.3326 19.3507 11.8138 20.045L12.0048 20.1264L12.194 20.0414C14.9529 18.8039 16.2661 17.227 16.322 17.1585C16.7936 16.5201 17.0318 15.7391 16.9966 14.9462Z" fill="#231F20"/>
<path d="M16.9265 7.24467V5H15.1315L14.8334 6.48791H13.1758L12.8777 5H11.0824L10.7844 6.48791H9.10077L8.80278 5H7.00747V8.92794H16.9261L16.9265 7.24467Z" fill="#231F20"/>
<path d="M7.90636 11.2344H10.9864V17.4904L11.967 18.024L12.976 17.4904V11.2344H16.0272V12.2175H16.9263V9.68555H7.00765V12.2175H7.90856L7.90636 11.2344Z" fill="#231F20"/>
</svg>
