<svg width="24" height="24" viewBox="0 0 24 24" fill="none" xmlns="http://www.w3.org/2000/svg">
<path d="M12 24C18.6274 24 24 18.6274 24 12C24 5.37258 18.6274 0 12 0C5.37258 0 0 5.37258 0 12C0 18.6274 5.37258 24 12 24Z" fill="url(#paint0_linear)"/>
<path d="M23.5 12C23.5 18.3513 18.3513 23.5 12 23.5C5.64873 23.5 0.5 18.3513 0.5 12C0.5 5.64873 5.64873 0.5 12 0.5C18.3513 0.5 23.5 5.64873 23.5 12Z" stroke="black" stroke-opacity="0.097"/>
<path d="M19.7856 11.1852C19.329 9.40679 18.3565 7.98249 16.8344 6.9475C15.894 6.30825 14.851 5.93976 13.7183 5.8244C13.0566 5.75711 12.3997 5.78755 11.7605 5.96699C9.79783 6.51813 8.47927 7.77421 7.76632 9.67435C7.57246 10.1918 7.47152 10.7302 7.43788 11.2813C7.41385 11.6802 7.43628 12.0792 7.50837 12.4749C7.58047 12.8706 7.70544 13.2503 7.87046 13.6172C8.00023 13.9056 8.16045 14.178 8.35591 14.4279C8.36071 14.4375 8.36392 14.4471 8.37033 14.4551C8.79169 15.0111 9.30117 15.4645 9.9196 15.7945C10.4836 16.0941 11.0844 16.264 11.7204 16.3072C12.5936 16.3665 13.385 16.1262 14.1028 15.6327C14.3992 15.4292 14.6491 15.1745 14.8766 14.8941C15.1778 14.5224 15.4021 14.1123 15.5447 13.6557C15.6136 13.4842 15.6489 13.3048 15.6825 13.1238C15.7209 12.9235 15.5976 12.728 15.4053 12.6832C15.2067 12.6367 15.0032 12.7569 14.9599 12.9603C14.9119 13.1894 14.8494 13.4153 14.7709 13.6364C14.7517 13.6781 14.734 13.7182 14.7148 13.7598C14.1332 15.0271 12.8371 15.8138 11.267 15.5061C10.9145 15.4372 10.5845 15.3027 10.2657 15.136C9.89396 14.9406 9.57033 14.6842 9.27554 14.3878C9.25951 14.367 9.24349 14.3446 9.22587 14.3254C8.69396 13.7374 8.36071 13.0533 8.22934 12.2714C8.1268 11.6626 8.16205 11.0618 8.30784 10.4626C8.58021 9.3411 9.15057 8.40225 10.0398 7.66526C10.9177 6.93789 11.9319 6.56139 13.0726 6.53735C13.4475 6.52934 13.8176 6.5726 14.1845 6.6463C15.644 6.93789 16.8424 7.66847 17.7893 8.81239C18.3597 9.50131 18.757 10.2816 19.0037 11.1419C19.1335 11.5953 19.212 12.0567 19.2457 12.5278C19.2633 12.7649 19.2553 13.002 19.2585 13.2391C19.2617 13.4362 19.4315 13.5932 19.6302 13.5916C19.8256 13.59 19.9891 13.433 19.9955 13.2407C20.0179 12.5438 19.9586 11.8597 19.7856 11.1852Z" fill="white"/>
<path d="M6.29716 14.1313C6.41732 14.3925 6.54549 14.6488 6.70891 14.886C6.71371 14.8956 6.71692 14.9052 6.72333 14.9148C7.02773 15.4018 7.39302 15.836 7.81599 16.2237C8.37674 16.7348 9.00638 17.137 9.70972 17.4205C10.3362 17.6737 10.9802 17.8371 11.6595 17.8675C12.7057 17.914 13.675 17.6625 14.5738 17.1273C14.9856 16.8822 15.3477 16.581 15.6809 16.2398C15.8956 16.0203 16.075 15.7719 16.2432 15.514C16.4099 15.2576 16.5509 14.9885 16.6726 14.7097C16.8152 14.4117 16.8937 14.0913 16.9658 13.7725C17.086 13.2389 17.086 12.6974 16.9802 12.1623C16.7752 11.1289 16.2593 10.2798 15.439 9.61971C15.0368 9.29448 14.585 9.05896 14.0916 8.90355C13.8961 8.84107 13.7023 8.92759 13.6254 9.10703C13.5324 9.32011 13.6446 9.53961 13.8865 9.61971C14.6571 9.86965 15.2643 10.3359 15.7161 11.0056C16.0302 11.4718 16.2192 11.9861 16.2833 12.5468C16.325 12.9073 16.3089 13.263 16.2384 13.6187C16.1631 13.9936 16.0318 14.3508 15.8683 14.6953C15.6825 15.0574 15.4614 15.397 15.1778 15.6902C14.0355 16.8662 12.6545 17.3372 11.0347 17.044C10.0974 16.8742 9.26272 16.4641 8.52574 15.8601C8.17647 15.5733 7.87206 15.2416 7.59489 14.886C7.58047 14.8635 7.56765 14.8411 7.55163 14.8187C6.7009 13.6155 6.33881 12.2841 6.52466 10.8181C6.62399 10.0347 6.86912 9.29288 7.23281 8.59114C7.63174 7.82051 8.14923 7.1412 8.7981 6.56603C10.0686 5.43652 11.5554 4.83572 13.2488 4.7444C13.7695 4.71716 14.287 4.75401 14.8013 4.84213C15.0096 4.87737 15.1954 4.75401 15.2371 4.55054C15.2772 4.35027 15.149 4.15641 14.9439 4.11475C14.6411 4.05548 14.3335 4.01863 14.0243 4.00741C13.4235 3.98658 12.8227 4.00581 12.2251 4.11475C10.6902 4.39193 9.34603 5.05681 8.2021 6.11262C7.08381 7.14601 6.33721 8.40849 5.95109 9.88086C5.74922 10.6515 5.68514 11.4333 5.77165 12.2264C5.84375 12.8897 6.01838 13.5241 6.29716 14.1313Z" fill="white"/>
<path d="M18.0969 10.5669C17.7605 9.82671 17.2927 9.18425 16.6806 8.64753C16.53 8.51616 16.3762 8.39119 16.2128 8.27584C15.7979 7.98585 15.3461 7.77276 14.8606 7.62857C14.4168 7.4972 13.9634 7.44112 13.502 7.43151C13.3466 7.4283 13.1912 7.44753 13.0358 7.45874C12.8227 7.47637 12.6128 7.50841 12.4045 7.55808C11.557 7.76315 10.8168 8.16369 10.1936 8.7741C10.059 8.90548 10.0542 9.13458 10.1791 9.27077C10.3297 9.43579 10.5172 9.45181 10.6854 9.32364C10.7912 9.24353 10.8745 9.13779 10.9802 9.05928C11.2366 8.86863 11.4993 8.68759 11.7925 8.55301C12.2491 8.34313 12.7282 8.22136 13.228 8.17971C13.5372 8.15407 13.8416 8.17971 14.146 8.22617C14.4985 8.27904 14.835 8.37837 15.157 8.52417C15.7017 8.7693 16.1663 9.12337 16.5605 9.56876C17.6083 10.7527 18.0184 12.1338 17.8182 13.6975C17.706 14.5723 17.3647 15.3573 16.8312 16.059C16.6502 16.2978 16.4435 16.5124 16.2352 16.7271C16.2032 16.756 16.1712 16.7832 16.1407 16.812C15.7001 17.2206 15.2131 17.5618 14.6748 17.8294C13.4331 18.4462 12.1241 18.6497 10.7543 18.4398C9.73375 18.2828 8.80611 17.8951 7.96819 17.2895C7.66058 17.0668 7.3802 16.8136 7.10784 16.5509C7.09022 16.5317 7.0742 16.5092 7.05657 16.4916C6.3324 15.7514 5.77165 14.9023 5.37272 13.9474C5.04428 13.1576 4.84401 12.3373 4.77192 11.4833C4.72546 10.9258 4.73347 10.3714 4.80076 9.8171C4.82479 9.62003 4.68861 9.43899 4.48514 9.40214C4.29929 9.3701 4.10863 9.49987 4.06858 9.69373C4.05416 9.76422 4.04615 9.83632 4.03974 9.90682C3.99007 10.4708 3.98527 11.0347 4.03493 11.5987C4.09101 12.2507 4.22238 12.8884 4.42105 13.5116C4.67579 14.3111 5.03627 15.0609 5.5073 15.7578C5.70436 16.051 5.90944 16.3378 6.15136 16.5974C6.22827 16.7095 6.326 16.8056 6.41892 16.9034C6.89956 17.4048 7.42186 17.8534 8.01786 18.2155C8.63468 18.5904 9.29156 18.8644 9.99009 19.0438C10.7191 19.2313 11.4609 19.2906 12.2091 19.2489C13.1463 19.1976 14.0371 18.9557 14.883 18.5536C15.274 18.3677 15.6408 18.1386 15.9949 17.8855C16.1952 17.7429 16.3794 17.5811 16.5669 17.4241C16.7287 17.2895 16.8697 17.1309 17.0139 16.9771C17.0812 16.905 17.1597 16.8441 17.2141 16.7608C17.235 16.7399 17.2558 16.7191 17.2734 16.6967C17.4913 16.4259 17.6868 16.1391 17.863 15.8395C18.1786 15.306 18.3741 14.7245 18.4991 14.122C18.6144 13.5677 18.6385 13.0086 18.5856 12.4446C18.5279 11.7893 18.3677 11.1645 18.0969 10.5669Z" fill="white"/>
<defs>
<linearGradient id="paint0_linear" x1="12" y1="0" x2="12" y2="24" gradientUnits="userSpaceOnUse">
<stop stop-color="#E59424"/>
<stop offset="1" stop-color="#DD3C26"/>
</linearGradient>
</defs>
</svg>
