<svg width="24" height="24" viewBox="0 0 24 24" fill="none" xmlns="http://www.w3.org/2000/svg">
<path d="M12 24C18.6274 24 24 18.6274 24 12C24 5.37258 18.6274 0 12 0C5.37258 0 0 5.37258 0 12C0 18.6274 5.37258 24 12 24Z" fill="#2170FB"/>
<path d="M8.53085 13.8804C9.33221 13.8804 10.1336 13.8765 10.9349 13.8804C11.0835 13.8804 11.1656 13.8413 11.2398 13.7084C12.3578 11.75 13.4797 9.79547 14.6016 7.84094C14.9222 7.28976 15.3952 7.00049 16.0402 7.0044C17.1269 7.00831 18.2136 7.00831 19.3003 7.00049C19.4332 7.00049 19.4762 7.02785 19.4762 7.16858C19.4684 8.09893 19.4684 9.02929 19.4762 9.95965C19.4762 10.1004 19.4371 10.1316 19.3003 10.1277C18.5459 10.1199 17.7914 10.1277 17.0331 10.1199C16.9158 10.1199 16.8493 10.1512 16.7907 10.2567C15.6766 12.2113 14.5586 14.158 13.4445 16.1125C13.1983 16.5464 12.8582 16.8513 12.3617 16.9608C12.3461 16.9647 12.3344 16.9842 12.3226 16.996C11.06 16.996 9.79739 16.996 8.53085 16.996C8.53476 15.964 8.53476 14.9202 8.53085 13.8804C8.53476 13.8765 8.53085 13.8804 8.53085 13.8804Z" fill="white"/>
<path d="M4 15.4006C4.14073 15.2481 4.22282 15.0527 4.32445 14.8768C5.66917 12.5313 7.01389 10.1859 8.3586 7.84045C8.67524 7.28536 9.15214 7 9.79714 7.00391C10.8799 7.00782 11.9588 7.00782 13.0417 7C13.1824 7 13.2293 7.02736 13.2293 7.17982C13.2215 8.10236 13.2215 9.0288 13.2293 9.95134C13.2293 10.1038 13.1863 10.1312 13.0456 10.1312C12.295 10.1233 11.5484 10.1312 10.7979 10.1272C10.6845 10.1272 10.6141 10.1507 10.5516 10.2602C9.89877 11.4133 9.23814 12.5626 8.58142 13.7158C8.55406 13.7627 8.47587 13.8057 8.53842 13.8799L8.54233 13.876C8.4446 13.8643 8.4446 13.9581 8.41724 14.005C7.84261 15.0018 7.27579 16.0026 6.70507 16.9994C6.69334 16.9994 6.67771 16.9994 6.66598 16.9994C6.6308 16.9368 6.56434 16.9212 6.51353 16.8899C5.6809 16.4052 4.84436 15.9205 4.01173 15.4358C4 15.4279 4 15.4162 4 15.4006Z" fill="white"/>
<path d="M19.4723 13.568C19.4723 14.4319 18.7726 15.1316 17.9087 15.1316C17.0448 15.1316 16.3451 14.4319 16.3451 13.568C16.3451 12.708 17.0448 12.0044 17.9087 12.0044C18.7726 12.0044 19.4723 12.7041 19.4723 13.568Z" fill="white"/>
<path d="M5.88051 7.00419C6.34178 7.00419 6.80696 7.0081 7.26823 7.00028C7.39722 7.00028 7.44413 7.02374 7.44022 7.16837C7.39722 8.59127 6.19714 9.91644 4.78597 10.0924C4.31298 10.151 4.31298 10.151 4.31298 9.6819C4.31298 8.84927 4.31688 8.01273 4.30907 7.1801C4.30907 7.03156 4.34816 6.99638 4.49279 7.00028C4.95406 7.0081 5.41924 7.00419 5.88051 7.00419Z" fill="white"/>
<path d="M23.5 12C23.5 18.3513 18.3513 23.5 12 23.5C5.64873 23.5 0.5 18.3513 0.5 12C0.5 5.64873 5.64873 0.5 12 0.5C18.3513 0.5 23.5 5.64873 23.5 12Z" stroke="white" stroke-opacity="0.3"/>
</svg>
