<svg width="24" height="24" viewBox="0 0 24 24" fill="none" xmlns="http://www.w3.org/2000/svg">
<path d="M12 24C18.6274 24 24 18.6274 24 12C24 5.37258 18.6274 0 12 0C5.37258 0 0 5.37258 0 12C0 18.6274 5.37258 24 12 24Z" fill="#F79020"/>
<path d="M23.5 12C23.5 18.3513 18.3513 23.5 12 23.5C5.64873 23.5 0.5 18.3513 0.5 12C0.5 5.64873 5.64873 0.5 12 0.5C18.3513 0.5 23.5 5.64873 23.5 12Z" stroke="white" stroke-opacity="0.3"/>
<path d="M20 16.4366H18.424L17.306 14.0433L16.192 16.4266H14.86L14.2234 14.4933H12.0286L12.584 12.7783H13.6634L12.8414 10.265L9.97134 19H8.64L9.47066 16.4633H8.08334L7.33334 11.2066L6.58934 16.4233H5.182L4 8.23496H5.08L5.87466 13.8116L6.66666 8.25996H8L8.79 13.8L9.57934 8.25829H10.6626L9.47066 16.4633L9.736 15.6533L12.1706 8.24496H13.5106L15.5366 14.4249L16.5114 12.33L13.4266 5.66663H15.01L20 16.4366Z" fill="#050708"/>
<path d="M18.4367 11.4834L17.6934 9.89006L18.4354 8.31006L19.9354 8.31339L18.4367 11.4834Z" fill="white"/>
</svg>
