<svg width="24" height="24" viewBox="0 0 24 24" fill="none" xmlns="http://www.w3.org/2000/svg">
<path d="M12 24C18.6274 24 24 18.6274 24 12C24 5.37258 18.6274 0 12 0C5.37258 0 0 5.37258 0 12C0 18.6274 5.37258 24 12 24Z" fill="#0B0F2B"/>
<path d="M23.5 12C23.5 18.3513 18.3513 23.5 12 23.5C5.64873 23.5 0.5 18.3513 0.5 12C0.5 5.64873 5.64873 0.5 12 0.5C18.3513 0.5 23.5 5.64873 23.5 12Z" stroke="white" stroke-opacity="0.3"/>
<path d="M8.19519 6.20367L11.8863 8.35788L15.6101 6.20367L11.9031 4L8.19519 6.20367Z" fill="white"/>
<path d="M11.0991 14.0191V9.67717L7.32507 7.52295V11.8162L11.0991 14.0191Z" fill="white"/>
<path d="M11.0991 19.9512V15.6093L7.32507 13.4551V17.7484L11.0991 19.9512Z" fill="white"/>
<path d="M12.6353 9.74416V14.0191C12.6353 14.0191 16.3758 11.9151 16.3758 11.8816C16.3758 11.8481 16.3758 7.52295 16.3758 7.52295L12.6353 9.74416Z" fill="white"/>
<path d="M12.6353 15.6767V19.9517L17.695 17.0422C17.695 17.0087 17.695 12.7505 17.695 12.7505L12.6353 15.6767Z" fill="white"/>
</svg>
