<svg width="24" height="24" viewBox="0 0 24 24" fill="none" xmlns="http://www.w3.org/2000/svg">
<path d="M12 24C18.6274 24 24 18.6274 24 12C24 5.37258 18.6274 0 12 0C5.37258 0 0 5.37258 0 12C0 18.6274 5.37258 24 12 24Z" fill="#171D2C"/>
<path d="M23.5 12C23.5 18.3513 18.3513 23.5 12 23.5C5.64873 23.5 0.5 18.3513 0.5 12C0.5 5.64873 5.64873 0.5 12 0.5C18.3513 0.5 23.5 5.64873 23.5 12Z" stroke="white" stroke-opacity="0.3"/>
<path d="M13.6841 14.9474C16.2421 14.9474 18.3157 12.8738 18.3157 10.3158C18.3157 7.75781 16.2421 5.68421 13.6841 5.68421C11.1262 5.68421 9.05256 7.75781 9.05256 10.3158C9.05256 12.8738 11.1262 14.9474 13.6841 14.9474ZM13.6841 16.6315C10.1961 16.6315 7.36835 13.8038 7.36835 10.3158C7.36835 6.82779 10.1961 4 13.6841 4C17.1721 4 19.9999 6.82779 19.9999 10.3158C19.9999 13.8038 17.1721 16.6315 13.6841 16.6315Z" fill="#35D07F"/>
<path d="M10.3158 18.3155C12.8738 18.3155 14.9474 16.2419 14.9474 13.684C14.9474 11.126 12.8738 9.05237 10.3158 9.05237C7.75781 9.05237 5.68421 11.126 5.68421 13.684C5.68421 16.2419 7.75781 18.3155 10.3158 18.3155ZM10.3158 19.9997C6.82779 19.9997 4 17.1719 4 13.684C4 10.196 6.82779 7.36816 10.3158 7.36816C13.8038 7.36816 16.6315 10.196 16.6315 13.684C16.6315 17.1719 13.8038 19.9997 10.3158 19.9997Z" fill="#FBCC5C"/>
<path d="M13.8914 16.6285C14.3291 16.0983 14.6427 15.4768 14.8096 14.8099C15.4765 14.6432 16.0978 14.3294 16.6282 13.8918C16.604 14.6642 16.4377 15.4256 16.1374 16.1377C15.4253 16.438 14.6639 16.6043 13.8914 16.6285ZM9.19056 9.19068C8.52361 9.35742 7.9023 9.67119 7.37195 10.1087C7.3962 9.33636 7.56243 8.57493 7.86273 7.86285C8.57481 7.56255 9.33624 7.39633 10.1086 7.37207C9.67106 7.90243 9.35729 8.52373 9.19056 9.19068Z" fill="#ECFF8F"/>
</svg>
