<svg width="24" height="24" viewBox="0 0 24 24" fill="none" xmlns="http://www.w3.org/2000/svg">
<path d="M12 24C18.6274 24 24 18.6274 24 12C24 5.37258 18.6274 0 12 0C5.37258 0 0 5.37258 0 12C0 18.6274 5.37258 24 12 24Z" fill="#0657F9"/>
<path d="M23.5 12C23.5 18.3513 18.3513 23.5 12 23.5C5.64873 23.5 0.5 18.3513 0.5 12C0.5 5.64873 5.64873 0.5 12 0.5C18.3513 0.5 23.5 5.64873 23.5 12Z" stroke="black" stroke-opacity="0.097"/>
<path d="M11.7156 12.2896C10.5898 12.2896 9.62389 12.703 8.84512 13.5184C7.7462 14.6693 7.40949 16.1923 7.42261 16.4776C7.45031 17.0771 7.69019 17.5519 8.09781 17.8139C8.23875 17.9047 8.38893 17.9506 8.54447 17.9506C8.92022 17.9506 9.33231 17.6967 9.80937 17.4031C9.87328 17.3637 9.94718 17.3131 10.03 17.2568C10.4238 16.9875 11.0188 16.5808 11.6571 16.5808C12.3478 16.5808 13.0848 17.0819 13.4812 17.3511L13.6041 17.4338C14.0468 17.7255 14.4639 18 14.8354 18C14.9741 18 15.1093 17.9629 15.238 17.8892C15.7159 17.6178 16.0266 17.2738 15.9907 16.4762C15.9536 15.6452 15.0759 12.2896 11.7156 12.2896Z" fill="white"/>
<path d="M9.5748 11.2196C9.63707 11.2196 9.69965 11.2153 9.76252 11.2066C10.7969 11.0636 11.4777 9.78218 11.2798 8.35042C11.0976 7.03234 10.198 6 9.23213 6C9.16986 6 9.10698 6.00433 9.04411 6.01297C8.55693 6.08031 8.12993 6.40599 7.84178 6.92983C7.54128 7.47602 7.42954 8.16493 7.52698 8.86949C7.70918 10.1873 8.60862 11.2196 9.5748 11.2196Z" fill="white"/>
<path d="M5.86996 10.2568C5.77759 10.2568 5.68522 10.2685 5.59494 10.2915C4.81112 10.4927 4.41377 11.4955 4.69088 12.5746C4.93254 13.5168 5.59732 14.1749 6.30784 14.1749C6.40021 14.1749 6.49258 14.1633 6.58273 14.1402C7.36669 13.939 7.76403 12.9364 7.48722 11.8573C7.24556 10.9149 6.58048 10.2568 5.86996 10.2568Z" fill="white"/>
<path d="M13.9106 11.2068C14.9494 11.35 15.9523 10.2722 16.1463 8.86949C16.2436 8.16493 16.1319 7.47601 15.8317 6.92983C15.5432 6.40599 15.1164 6.0803 14.6293 6.01297C14.5665 6.00433 14.5036 6 14.4413 6C13.4754 6 12.5759 7.03248 12.3936 8.35056C12.1955 9.78262 12.8762 11.0639 13.9106 11.2068Z" fill="white"/>
<path d="M18.0787 10.2915C17.9886 10.2685 17.8959 10.2568 17.8036 10.2568C17.093 10.2568 16.4282 10.9149 16.1864 11.8573C15.9098 12.9364 16.3071 13.939 17.0909 14.1402C17.1809 14.1633 17.2735 14.1749 17.3658 14.1749C18.0764 14.175 18.7408 13.517 18.9828 12.5746C19.2597 11.4954 18.8624 10.4927 18.0787 10.2915Z" fill="white"/>
</svg>
