<svg width="24" height="24" viewBox="0 0 24 24" fill="none" xmlns="http://www.w3.org/2000/svg">
<path d="M12 24C18.6274 24 24 18.6274 24 12C24 5.37258 18.6274 0 12 0C5.3726 0 1.52588e-05 5.37258 1.52588e-05 12C1.52588e-05 18.6274 5.3726 24 12 24Z" fill="#0041FF"/>
<path d="M12 24C18.6274 24 24 18.6274 24 12C24 5.37258 18.6274 0 12 0C5.3726 0 1.52588e-05 5.37258 1.52588e-05 12C1.52588e-05 18.6274 5.3726 24 12 24Z" fill="#0F367F"/>
<path d="M23.5 12C23.5 18.3513 18.3513 23.5 12 23.5C5.64874 23.5 0.500015 18.3513 0.500015 12C0.500015 5.64873 5.64874 0.5 12 0.5C18.3513 0.5 23.5 5.64873 23.5 12Z" stroke="white" stroke-opacity="0.3"/>
<path d="M15.5303 11.222C14.8021 11.222 14.0882 11.4375 13.4957 11.8417L12.9888 12.2661V12.2593L12.896 11.963L12.6604 11.2287L12.589 11.0131L12.4391 10.5416L15.5446 7.93463C17.5936 6.23033 18.5574 6.62104 18.5574 6.62104C18.5574 6.62104 16.5298 5.10537 14.2381 6.80966L11.8822 8.80361L11.8251 8.61499C11.8179 8.60152 11.8179 8.58805 11.8108 8.56784L11.7894 8.50721C11.5252 7.76622 10.7114 6.2236 8.46966 6.2236C6.54921 6.23033 5 7.69885 5 9.50419C5 11.3095 6.55635 12.778 8.46966 12.778C9.19786 12.778 9.91178 12.5625 10.4972 12.1583L10.4829 12.1314L10.4972 12.1583L11.0041 11.7339L11.0969 12.0303L11.1183 12.0977L11.2254 12.421L11.5538 13.4517L8.45538 16.0654C6.40643 17.7697 5.44263 17.379 5.44263 17.379C5.44263 17.379 7.47017 18.8946 9.76186 17.1903L12.1178 15.1964L12.2106 15.4928C12.4533 16.2136 13.2458 17.7764 15.5303 17.7764C17.4508 17.7764 19 16.3079 19 14.5025C19 12.6972 17.4437 11.222 15.5303 11.222ZM9.64763 10.71C9.35492 10.9323 8.87659 11.1479 8.4768 11.1479C7.52014 11.1479 6.74197 10.4136 6.74197 9.51093C6.74197 8.60826 7.52014 7.874 8.4768 7.874C9.28353 7.874 9.78327 8.22429 10.1331 8.99223L10.4615 10.0229L9.64763 10.71ZM15.5232 16.1395C14.7165 16.1395 14.2167 15.7892 13.8669 15.0212L13.5385 13.9906L14.4095 13.2496C14.7308 13.0138 15.1163 12.8791 15.5232 12.8656C16.4799 12.8858 17.2438 13.6336 17.2223 14.5362C17.2081 15.412 16.4584 16.1193 15.5232 16.1395Z" fill="white"/>
</svg>
