<svg width="24" height="24" viewBox="0 0 24 24" fill="none" xmlns="http://www.w3.org/2000/svg">
<path d="M12 24C18.6274 24 24 18.6274 24 12C24 5.37258 18.6274 0 12 0C5.37258 0 0 5.37258 0 12C0 18.6274 5.37258 24 12 24Z" fill="black"/>
<path d="M12.0533 17.9917L7.37491 15.5826L12.0738 12.7483V16.6049L12.7465 16.2709L13.6332 15.8256V10.9667L9.40322 8.69928L7.70107 9.59007L11.2176 11.4324L6.55947 14.2464V14.2363L5 15.1878C5.02044 15.7648 5.35676 16.2912 5.87655 16.5645L11.2991 19.3583C11.5307 19.478 11.7876 19.5405 12.0483 19.5405C12.309 19.5405 12.5659 19.478 12.7974 19.3583L18.2913 16.5645C18.8417 16.281 19.1781 15.7344 19.1781 15.1169V8.9119C19.1781 8.30455 18.8417 7.75796 18.3015 7.47451L12.8178 4.64018C12.5834 4.51876 12.3184 4.45801 12.0636 4.45801C11.7986 4.45801 11.5438 4.51876 11.3093 4.64018L5.87655 7.47451C5.33638 7.75796 5 8.30455 5 8.9119V12.2725H6.56969V8.87138L12.0738 5.9966L12.0941 6.00675L17.6186 8.87138V15.1575L12.0533 17.9917Z" fill="url(#paint0_linear)"/>
<path d="M23.5 12C23.5 18.3513 18.3513 23.5 12 23.5C5.64873 23.5 0.5 18.3513 0.5 12C0.5 5.64873 5.64873 0.5 12 0.5C18.3513 0.5 23.5 5.64873 23.5 12Z" stroke="white" stroke-opacity="0.3"/>
<defs>
<linearGradient id="paint0_linear" x1="12.089" y1="4.45801" x2="12.089" y2="21.1056" gradientUnits="userSpaceOnUse">
<stop stop-color="#FBE716"/>
<stop offset="1" stop-color="#FFD500"/>
</linearGradient>
</defs>
</svg>
