<svg width="24" height="24" viewBox="0 0 24 24" fill="none" xmlns="http://www.w3.org/2000/svg">
<path d="M12 24C18.6274 24 24 18.6274 24 12C24 5.37258 18.6274 0 12 0C5.37258 0 0 5.37258 0 12C0 18.6274 5.37258 24 12 24Z" fill="#F8CCAD"/>
<path d="M23.5 12C23.5 18.3513 18.3513 23.5 12 23.5C5.64873 23.5 0.5 18.3513 0.5 12C0.5 5.64873 5.64873 0.5 12 0.5C18.3513 0.5 23.5 5.64873 23.5 12Z" stroke="white" stroke-opacity="0.3"/>
<path d="M20.9861 12.6492C20.906 12.8819 20.9136 13.1298 20.8755 13.37C20.6925 14.5599 20.2884 15.6697 19.6556 16.6956C18.7217 18.2135 17.4484 19.3538 15.8435 20.1242C15.001 20.5285 14.1128 20.7878 13.1826 20.9099C11.6272 21.112 10.1176 20.9365 8.66137 20.3607C7.62828 19.9526 6.70193 19.3653 5.88612 18.6063C5.01314 17.794 4.31933 16.852 3.81994 15.7727C3.4311 14.9299 3.17187 14.0489 3.06513 13.1221C3.02701 12.7255 2.99651 12.3289 3.00032 11.9284C3.00795 10.7576 3.22905 9.63252 3.6827 8.54941C4.07535 7.60741 4.60905 6.75313 5.29524 5.99037C6.35502 4.8081 7.6359 3.96907 9.13027 3.45803C9.91557 3.19106 10.7276 3.05377 11.5586 3.01181C13.1483 2.93172 14.6465 3.25971 16.0646 3.96907C16.8041 4.33901 17.4713 4.81192 18.0812 5.37635C19.526 6.71499 20.4295 8.3511 20.8222 10.2771C20.887 10.5898 20.9365 10.9101 20.9518 11.2343C20.9556 11.2763 20.9441 11.3258 20.9899 11.3563C20.9861 11.7873 20.9861 12.2183 20.9861 12.6492ZM11.7873 4.1979C11.7873 3.98814 11.7797 3.77838 11.7912 3.56863C11.7988 3.42752 11.7416 3.39319 11.6158 3.40463C11.3451 3.43514 11.0745 3.44658 10.8076 3.48472C9.77834 3.63727 8.80624 3.95 7.89132 4.45342C6.38933 5.28101 5.22281 6.44802 4.41463 7.96209C3.60646 9.47997 3.29386 11.1046 3.45397 12.8208C3.54927 13.8582 3.82756 14.846 4.28502 15.7765C4.79204 16.8024 5.47822 17.6948 6.34358 18.45C7.16701 19.1708 8.08955 19.72 9.12264 20.0823C9.90795 20.3607 10.7123 20.5285 11.5472 20.5628C11.7302 20.5704 11.8064 20.5361 11.795 20.3302C11.7759 19.9907 11.7759 19.6437 11.795 19.3043C11.8026 19.1212 11.734 19.0144 11.6005 18.9076C10.9296 18.3813 10.2549 17.855 9.59535 17.3173C9.33994 17.1075 9.08452 17.0045 8.74143 17.0122C7.86082 17.0389 6.98021 17.0198 6.09961 17.0236C5.98905 17.0236 5.89756 17.0045 5.84038 16.9016C5.78701 16.8062 5.848 16.7338 5.89375 16.6575C6.16441 16.1846 6.43508 15.7155 6.70955 15.2426C6.75911 15.1587 6.78198 15.0938 6.68287 15.0176C6.44651 14.8383 6.22159 14.64 5.98143 14.4722C5.85944 14.3845 5.81369 14.293 5.81369 14.1442C5.81751 12.7255 5.81751 11.303 5.81369 9.88423C5.81369 9.73168 5.87088 9.63634 5.98143 9.54862C6.36646 9.25115 6.75148 8.95367 7.1327 8.65238C8.64613 7.45486 10.1557 6.26115 11.6654 5.06362C11.753 4.99498 11.7988 4.92251 11.7912 4.8081C11.7797 4.60216 11.7873 4.40003 11.7873 4.1979ZM12.2029 19.6933C12.2029 19.9907 12.2105 20.1929 12.1991 20.395C12.1914 20.5285 12.2372 20.5704 12.3706 20.5704C12.7785 20.5704 13.1788 20.517 13.5752 20.4408C15.4775 20.0594 17.0901 19.167 18.39 17.7177C19.0381 16.9931 19.5489 16.1846 19.9187 15.2883C20.4867 13.9306 20.6849 12.5157 20.5248 11.0551C20.4028 9.93763 20.0712 8.88121 19.5298 7.89344C18.9504 6.84084 18.1956 5.94079 17.2463 5.20855C15.813 4.10255 14.1814 3.52286 12.3782 3.40845C12.2524 3.40082 12.1952 3.42752 12.1991 3.56863C12.2067 3.98814 12.2067 4.40384 12.1991 4.82336C12.1991 4.93396 12.2448 4.99879 12.3249 5.05981C12.6527 5.31533 12.9844 5.57086 13.3084 5.83019C14.8904 7.08111 16.4687 8.33584 18.0507 9.58676C18.1308 9.64778 18.1765 9.71643 18.1765 9.82703C18.1727 11.2801 18.1727 12.7293 18.1765 14.1824C18.1765 14.2853 18.146 14.3616 18.0583 14.4264C17.8182 14.6095 17.5818 14.804 17.3417 14.9871C17.2387 15.0672 17.2006 15.1282 17.2845 15.2655C17.5551 15.7079 17.8067 16.1617 18.0583 16.6155C18.2223 16.9092 18.1498 17.0274 17.822 17.0274C16.8651 17.0274 15.9083 17.0274 14.9514 17.0274C14.8409 17.0274 14.7494 17.0465 14.6541 17.119C14.0136 17.6338 13.3846 18.1677 12.7137 18.6368C12.2944 18.9343 12.0771 19.2661 12.2029 19.6933ZM11.997 6.93237C11.9475 7.00102 11.9131 7.04297 11.8865 7.09255C11.5853 7.61122 11.2841 8.13371 10.9868 8.65238C10.3883 9.68592 9.7974 10.7271 9.18745 11.7568C9.08452 11.9284 9.11502 12.0085 9.25607 12.1191C10.1786 12.8437 11.0973 13.5798 12.0237 14.3006C12.1533 14.4036 12.2067 14.5103 12.2029 14.6705C12.1991 15.2731 12.2029 15.8757 12.1991 16.4782C12.1991 16.5965 12.2296 16.6461 12.3592 16.6461C14.0441 16.6422 15.7291 16.6422 17.4141 16.6461C17.5666 16.6461 17.5894 16.6117 17.5056 16.4744C16.949 15.5172 16.4039 14.5561 15.8511 13.595C14.7303 11.65 13.6057 9.7088 12.4812 7.76378C12.3249 7.48918 12.1647 7.21841 11.997 6.93237ZM11.9894 6.29547C12.0999 6.29547 12.1571 6.37175 12.2067 6.45565C12.2982 6.61583 12.3897 6.77601 12.4812 6.93237C13.114 8.02693 13.7468 9.12529 14.3758 10.2198C14.635 10.6699 14.8904 11.1199 15.1535 11.5699C15.1878 11.6271 15.2107 11.7339 15.3288 11.6386C16.0379 11.0703 16.7546 10.5097 17.4713 9.94525C17.6466 9.80796 17.639 9.78508 17.456 9.64397C16.7088 9.05664 15.9655 8.47314 15.2221 7.882C14.1928 7.06586 13.1597 6.25352 12.1342 5.42975C12.0161 5.3344 11.9436 5.34966 11.8445 5.42975C11.3947 5.78824 10.9449 6.14674 10.495 6.50523C9.6106 7.20696 8.72237 7.91251 7.83795 8.61425C7.37287 8.98418 6.90778 9.35412 6.4427 9.72024C6.3817 9.76982 6.33215 9.80033 6.42745 9.87279C7.17463 10.4563 7.918 11.0436 8.66137 11.6348C8.7338 11.692 8.76811 11.7034 8.81767 11.6119C9.14552 11.036 9.48099 10.4601 9.81264 9.88423C10.4721 8.7401 11.1355 7.59216 11.795 6.44802C11.8331 6.37175 11.8865 6.29929 11.9894 6.29547ZM11.7873 18.5415C11.7873 17.3325 11.7759 16.1655 11.795 15.0023C11.7988 14.7201 11.6997 14.5561 11.4862 14.3959C10.6551 13.7552 9.83933 13.0954 9.0159 12.4471C8.12386 11.7415 7.23182 11.036 6.33596 10.3343C6.30165 10.3076 6.27496 10.2542 6.22541 10.2732C6.17204 10.2923 6.19491 10.3495 6.19491 10.3915C6.19491 11.5966 6.19491 12.8018 6.1911 14.0069C6.1911 14.0908 6.21778 14.148 6.28259 14.2014C6.83916 14.6362 7.39574 15.0748 7.95231 15.5134C8.77574 16.1655 9.59535 16.8177 10.4188 17.4698C10.8686 17.8207 11.3146 18.1716 11.7873 18.5415ZM17.7915 12.1954C17.7915 11.6119 17.7915 11.0284 17.7915 10.4449C17.7915 10.3838 17.8258 10.2999 17.761 10.2732C17.7 10.2465 17.6504 10.3228 17.6047 10.3571C17.437 10.483 17.2768 10.6165 17.1129 10.7461C16.6059 11.1466 16.1027 11.547 15.5957 11.9437C15.4813 12.0352 15.4546 12.1191 15.5385 12.245C15.6414 12.4051 15.7291 12.5729 15.8244 12.7369C16.1904 13.37 16.5602 14.0069 16.9261 14.6438C16.9757 14.7354 17.01 14.7468 17.0939 14.6743C17.2845 14.5103 17.4827 14.3502 17.6847 14.2014C17.7762 14.1366 17.7953 14.0641 17.7953 13.9612C17.7915 13.3738 17.7915 12.7827 17.7915 12.1954ZM8.71093 16.6308C8.24204 16.2532 7.80745 15.9062 7.37287 15.5629C7.12507 15.3646 7.12126 15.3684 6.95734 15.6354C6.91541 15.7041 6.86966 15.7765 6.83154 15.8452C6.68668 16.1007 6.54182 16.36 6.38933 16.6308C7.17082 16.6308 7.918 16.6308 8.71093 16.6308ZM14.0632 17.0274C13.4533 17.0274 12.8738 17.0274 12.2944 17.0274C12.1838 17.0274 12.1991 17.1075 12.1991 17.1762C12.1991 17.5766 12.1991 17.9732 12.1991 18.3737C12.1991 18.4156 12.1762 18.469 12.2334 18.4919C12.2753 18.5072 12.2982 18.4652 12.3287 18.4423C12.7556 18.1067 13.1826 17.7711 13.6057 17.4317C13.7544 17.3058 13.926 17.2105 14.0632 17.0274Z" fill="white"/>
</svg>
