<svg width="24" height="24" viewBox="0 0 24 24" fill="none" xmlns="http://www.w3.org/2000/svg">
<path fill-rule="evenodd" clip-rule="evenodd" d="M12 0C18.6264 0 24 5.3736 24 12C24 18.6264 18.6264 24 12 24C5.3736 24 0 18.6264 0 12C0 5.3736 5.3736 0 12 0Z" fill="#1E1E1E"/>
<path d="M23.5 12C23.5 18.3513 18.3513 23.5 12 23.5C5.64873 23.5 0.5 18.3513 0.5 12C0.5 5.64873 5.64873 0.5 12 0.5C18.3513 0.5 23.5 5.64873 23.5 12Z" stroke="white" stroke-opacity="0.327"/>
<path d="M12.18 17.0157C8.34239 17.0157 5.23199 15.9069 5.23199 14.4213C5.23199 13.6461 6.07919 12.9477 7.43519 12.4557C8.49359 13.1349 10.2696 13.4829 12.2832 13.4829C14.2488 13.4829 15.9864 13.0581 17.0544 12.4077C18.3336 12.8949 19.128 13.5741 19.128 14.3229C19.128 15.8109 16.0176 17.0157 12.18 17.0157Z" fill="white"/>
<path d="M12.2208 13.1494C9.31202 13.1494 6.95282 12.2374 6.95282 11.1118C6.95282 10.4878 7.68002 9.92864 8.82002 9.55664C9.63362 9.98144 10.8528 10.2526 12.2208 10.2526C13.5888 10.2526 14.808 9.98144 15.6216 9.55664C16.764 9.93104 17.4888 10.4878 17.4888 11.1118C17.4912 12.2374 15.132 13.1494 12.2208 13.1494Z" fill="white"/>
<path d="M12.2016 9.9142C9.95278 9.9142 8.12878 9.1606 8.12878 8.2342C8.12878 7.3078 9.95278 6.5542 12.2016 6.5542C14.4504 6.5542 16.2744 7.3078 16.2744 8.2342C16.2744 9.1606 14.4504 9.9142 12.2016 9.9142Z" fill="white"/>
</svg>
