<svg width="24" height="24" viewBox="0 0 24 24" fill="none" xmlns="http://www.w3.org/2000/svg">
<path fill-rule="evenodd" clip-rule="evenodd" d="M0 12C0 5.37259 5.37259 0 12 0C18.6274 0 24 5.37259 24 12C24 18.6274 18.6274 24 12 24C5.37259 24 0 18.6274 0 12Z" fill="#E6313A"/>
<path d="M23.5 12C23.5 18.3513 18.3513 23.5 12 23.5C5.64873 23.5 0.5 18.3513 0.5 12C0.5 5.64873 5.64873 0.5 12 0.5C18.3513 0.5 23.5 5.64873 23.5 12Z" stroke="white" stroke-opacity="0.3"/>
<path d="M8.5002 19C8.20355 18.3531 7.81008 17.7552 7.33333 17.2269L9.05039 15.5003H14.95L16.6846 17.2269C16.2078 17.7552 15.8144 18.3531 15.5177 19H8.5002ZM5 15.5174V8.5001C5.64689 8.20346 6.24481 7.81 6.77319 7.33327L8.4998 9.05027V14.9497L6.77319 16.6842C6.24481 16.2075 5.64689 15.8141 5 15.5174H5ZM15.5002 14.9497V9.05027L17.2268 7.33327C17.7564 7.80384 18.3542 8.19135 19 8.48258V15.5099C18.3532 15.8064 17.7553 16.1998 17.2268 16.6763L15.5002 14.9497ZM9.05079 8.5005L7.31582 6.77314C7.79256 6.24478 8.18603 5.64687 8.48268 5H15.5102C15.8068 5.64681 16.2001 6.2447 16.6766 6.77314L14.95 8.5001L9.05079 8.5005Z" fill="white"/>
</svg>
