<svg width="256" height="256" viewBox="0 0 256 256" fill="none" xmlns="http://www.w3.org/2000/svg">
<circle cx="128" cy="128" r="128" fill="#AE7FD9"/>
<path d="M127.804 4H128.238C161.066 4.01129 192.545 17.0805 215.754 40.3338C238.962 63.5871 252 95.1205 252 128C252 160.879 238.962 192.413 215.754 215.666C192.545 238.919 161.066 251.989 128.238 252H127.847C111.585 252.006 95.4815 248.802 80.4559 242.573C65.4304 236.344 51.7773 227.211 40.2765 215.696C28.7757 204.181 19.6525 190.51 13.4281 175.463C7.2037 160.415 4 144.287 4 128C4 95.1132 17.0436 63.5733 40.2615 40.3188C63.4793 17.0642 94.9694 4 127.804 4Z" fill="#654785"/>
<path d="M110.49 35.9913C125.501 32.4787 141.115 32.4366 156.145 35.8682L156.505 36.387C160.103 41.1988 163.458 46.1881 166.557 51.3362C169.297 55.8473 171.685 60.5431 174.003 65.2741C180.17 64.8124 186.358 64.7155 192.537 64.9839C197.269 65.107 201.966 65.6698 206.681 66.1007H207.234C212.997 72.5176 217.918 79.6453 221.879 87.3109C220.246 92.2881 218.446 97.1861 216.365 101.987C212.872 92.8146 207.963 84.2479 201.817 76.6003C194.089 75.7915 186.312 75.5711 178.551 75.9407C184.164 90.5381 187.524 105.907 188.516 121.518C187.848 124.42 190.851 125.642 191.694 128.061C192.666 130.26 192.901 132.715 192.365 135.059C191.828 137.403 190.549 139.511 188.718 141.066C188.674 141.638 188.577 142.781 188.533 143.344C188.366 145.841 188.182 148.321 187.866 150.801C187.515 154.195 186.988 157.563 186.409 160.931C184.596 170.818 181.88 180.517 178.296 189.906C185.908 190.258 193.536 190.082 201.123 189.378C207.916 181.275 213.206 172.018 216.743 162.048C218.529 156.996 219.869 151.797 220.746 146.51C223.38 151.487 225.821 156.526 228.042 161.687L228.288 162.233C223.788 176.669 216 189.86 205.54 200.766C195.004 200.837 184.363 201.496 173.81 200.573C171.263 205.304 168.884 210.14 166.092 214.739C161.205 216.654 156.165 218.151 151.026 219.215L149.85 219.47C154.432 213.052 158.541 206.307 162.141 199.289C152.487 197.797 142.987 195.437 133.756 192.236C128.44 190.376 123.229 188.227 118.146 185.799C117.075 185.281 116.004 184.779 114.941 184.278C113.418 184.99 111.754 185.349 110.073 185.33C108.392 185.31 106.737 184.911 105.231 184.164C103.574 183.308 102.159 182.047 101.119 180.497C100.078 178.948 99.445 177.16 99.2783 175.3L97.6628 174.113C92.7347 170.83 87.9949 167.271 83.4659 163.455C75.9457 157.008 69.0064 149.91 62.7282 142.245C58.2312 149.119 54.2658 156.327 50.8667 163.807C54.4793 173.442 59.7476 182.371 66.4332 190.188C74.5721 190.923 82.7553 191.035 90.9112 190.522C90.9814 190.689 91.1131 191.023 91.1746 191.199C92.5442 194.558 94.0075 197.885 95.5644 201.18C90.0859 201.566 84.6073 201.927 79.1112 201.804C73.6151 201.681 67.917 201.329 62.3243 200.793L61.0688 200.634C49.1711 187.938 40.8154 172.331 36.8396 155.38C32.8638 138.429 33.4077 120.728 38.4166 104.054C43.4255 87.3794 52.7235 72.3171 65.3781 60.3772C78.0327 48.4374 93.5991 40.0398 110.516 36.0265L110.49 35.9913ZM119.314 45.4357C113.873 46.3057 108.53 47.7046 103.361 49.6126C94.1538 52.9798 85.5546 57.8238 77.8996 63.955C73.5092 67.5405 69.4752 71.5426 65.8538 75.9056C59.3331 83.5861 54.234 92.371 50.7965 101.847C54.1816 109.448 58.1809 116.759 62.7545 123.708C68.9218 116.198 75.7027 109.215 83.027 102.832C87.6451 99.2175 92.114 95.3571 97.1272 92.2793V92.165C97.8998 91.6549 98.6461 91.1273 99.3924 90.5821C99.363 88.3035 100.014 86.0681 101.262 84.1628C102.869 81.7966 105.327 80.1447 108.123 79.5529C110.918 78.9612 113.833 79.4756 116.258 80.9883L118.708 79.8715C123.686 77.4093 128.91 75.5362 134.055 73.4961C143.334 70.4234 152.835 68.0714 162.475 66.4612C158.8 59.2534 154.564 52.3466 149.806 45.805C139.728 43.9723 129.415 43.8475 119.296 45.4357H119.314ZM150.921 80.0474C145.429 81.375 140.023 83.0341 134.731 85.0158L134.95 85.1125C130.244 86.3876 125.837 88.7618 121.333 90.6789C121.208 92.2321 120.775 93.7449 120.061 95.1292C119.346 96.5135 118.364 97.7418 117.171 98.7426C115.505 100.076 113.488 100.896 111.365 101.102C109.241 101.308 107.104 100.892 105.213 99.9034C100.661 102.842 96.3026 106.073 92.1667 109.576C87.5245 113.309 83.1447 117.358 79.0585 121.694C75.6256 125.211 72.4473 129.037 69.4008 132.906C72.7385 137.179 76.3116 141.263 80.1033 145.138V145.235C84.1491 149.341 88.4197 153.219 92.8954 156.851C96.4863 159.85 100.297 162.576 104.16 165.214C105.873 164.097 107.862 163.476 109.905 163.42C111.949 163.364 113.968 163.875 115.74 164.897C117.483 165.941 118.913 167.436 119.878 169.225C120.844 171.014 121.31 173.03 121.228 175.062C125.618 177.138 130.007 179.134 134.573 180.77C139.947 182.793 145.438 184.487 151.017 185.843C156.273 187.11 161.588 188.111 166.944 188.842C169.067 183.677 170.884 178.392 172.387 173.014H172.466C173.989 167.416 175.217 161.742 176.145 156.015C176.856 151.619 177.295 147.222 177.664 142.825C176.236 142.218 174.947 141.324 173.879 140.196C172.812 139.069 171.987 137.734 171.457 136.274C170.545 133.618 170.677 130.714 171.827 128.153C172.977 125.591 175.058 123.565 177.646 122.485C177.304 118.001 176.856 113.507 176.101 109.075C175.196 103.332 173.953 97.6471 172.378 92.0507C170.88 86.9562 169.153 81.9468 167.198 77.0224C161.735 77.7358 156.316 78.7515 150.965 80.065L150.921 80.0474ZM46.3891 117.79C44.7559 127.835 44.7737 138.08 46.4417 148.119C49.2688 142.904 52.4559 137.901 55.757 132.967C52.4149 128.043 49.2922 122.984 46.3891 117.79Z" fill="#AE7FD9"/>
<g opacity="0.19">
<path opacity="0.19" d="M156.512 36.387C157.53 35.9913 158.54 36.5453 159.523 36.7564C167.841 38.9564 175.803 42.335 183.167 46.7899C180.533 49.7357 176.872 51.4065 174.036 54.1325C171.613 53.0509 169.304 51.3801 166.565 51.345C163.465 46.1939 160.11 41.2017 156.512 36.387Z" fill="#303030"/>
</g>
<g opacity="0.2">
<path opacity="0.2" d="M103.36 49.6127C108.529 47.7047 113.872 46.3057 119.312 45.4357C114.8 52.1189 110.269 58.8636 106.854 66.1975C115.091 67.5133 123.209 69.4894 131.13 72.1068C132.147 72.4443 133.113 72.9207 134.001 73.5226C128.856 75.5627 123.632 77.4357 118.654 79.8979C113.194 78.4185 107.637 77.3225 102.025 76.6179C100 81.3592 98.3106 86.237 96.9679 91.2153L97.0733 92.1914V92.3057C92.06 95.3571 87.5911 99.2175 82.973 102.858C84.29 93.4401 87.556 84.4442 90.4533 75.4396C82.2351 74.9658 73.9926 75.1305 65.7998 75.932C69.4212 71.5691 73.4553 67.5669 77.8456 63.9815C83.6051 64.3244 89.391 64.2453 95.1593 64.7113C97.8283 59.6198 100.48 54.5547 103.36 49.6127Z" fill="#333333"/>
</g>
<g opacity="0.16">
<path opacity="0.16" d="M183.167 46.7896L183.29 46.6577C191.319 51.3813 198.663 57.1865 205.116 63.9108C205.817 64.5006 206.36 65.2562 206.696 66.1092C201.982 65.6783 197.284 65.1155 192.552 64.9924C189.971 64.9924 188.022 63.2337 186.125 61.7212C182.279 58.9232 178.239 56.4019 174.036 54.1763C176.872 51.4063 180.533 49.7795 183.167 46.7896Z" fill="#2A2A2A"/>
</g>
<g opacity="0.16">
<path opacity="0.16" d="M134.758 85.016C140.049 83.0343 145.456 81.3752 150.948 80.0475C155.812 82.6329 160.711 85.1566 165.338 88.1729C162.546 90.9341 158.946 92.6488 156.066 95.3221C149.309 91.3935 142.265 87.9807 134.995 85.1127L134.758 85.016Z" fill="#282828"/>
<path opacity="0.16" d="M79.0591 121.765C83.1453 117.428 87.525 113.38 92.1673 109.647C92.7731 111.564 92.3165 113.551 92.0795 115.477C90.5024 129.265 90.7592 143.201 92.8433 156.921C88.3676 153.29 84.097 149.412 80.0512 145.305V145.208C80.4021 143.869 80.4827 142.473 80.2883 141.102C79.9282 134.584 79.9458 128.051 80.3409 121.536L79.0591 121.765Z" fill="#282828"/>
</g>
<g opacity="0.07">
<path opacity="0.07" d="M216.373 102.031C218.453 97.23 220.253 92.3583 221.886 87.3547C226.797 96.8435 230.085 107.089 231.614 117.666C231.325 118.915 231.658 120.7 230.271 121.377C227.426 123.224 224.836 125.537 221.702 126.9C221.395 124.262 221.298 121.562 220.49 118.985C218.313 121.773 216.891 125.053 214.871 127.946C213.897 129.705 212.158 131.217 212.387 133.363C210.692 136.001 207.883 137.346 205.257 138.806C200.762 142.324 195.863 145.34 191.491 149.033C190.349 149.744 189.137 150.333 187.874 150.792C188.19 148.312 188.374 145.832 188.541 143.335C192.518 140.451 195.626 136.423 198.26 132.325C196.223 129.423 193.633 126.979 191.561 124.103C194.107 121.518 198.005 120.366 199.674 116.954C201.546 118.878 203.305 120.91 204.941 123.039C209.507 116.523 212.966 109.26 216.373 102.031Z" fill="#131313"/>
<path opacity="0.07" d="M100.306 184.225C101.052 185.87 101.447 187.743 102.65 189.106C107.91 188.504 113.1 187.394 118.146 185.791C123.229 188.222 128.44 190.373 133.757 192.236C133.119 192.7 132.418 193.07 131.676 193.336C123.817 196.012 115.766 198.084 107.593 199.535C107.47 201.997 109.779 203.932 110.464 206.227C107.558 208.258 104.318 209.859 101.851 212.471C99.34 208.953 97.6279 204.934 95.5383 201.153C93.9931 197.864 92.5298 194.537 91.1484 191.172C94.0194 188.569 97.821 187.215 100.306 184.225Z" fill="#131313"/>
</g>
<g opacity="0.14">
<path opacity="0.14" d="M165.337 88.1728C167.778 89.2544 169.648 91.6902 172.361 92.0332C173.935 97.6296 175.178 103.314 176.083 109.058C169.677 104.102 162.993 99.5155 156.065 95.322C158.945 92.6487 162.545 90.934 165.337 88.1728Z" fill="#232323"/>
</g>
<g opacity="0.1">
<path opacity="0.1" d="M186.496 104.581C187.697 105.057 188.794 105.762 189.727 106.657C193.133 110.016 196.61 113.322 199.674 117.007C198.006 120.419 194.108 121.571 191.562 124.156C190.654 123.162 189.635 122.277 188.524 121.518C188.137 115.841 187.46 110.188 186.496 104.581Z" fill="#191919"/>
</g>
<g opacity="0.04">
<path opacity="0.04" d="M231.614 117.666C233.116 124.631 232.914 131.921 232.624 139.035C231.746 146.677 230.868 154.503 228.041 161.714C225.82 156.552 223.353 151.513 220.745 146.536C219.872 151.828 218.535 157.034 216.75 162.092C214.002 158.346 212.431 153.914 210.122 149.904C212.958 147.78 215.942 145.861 219.051 144.162L220.631 145.261C221.983 139.29 221.676 133.011 221.702 126.9C224.836 125.537 227.426 123.224 230.271 121.377C231.658 120.7 231.325 118.915 231.614 117.666Z" fill="#0B0B0B"/>
</g>
<g opacity="0.05">
<path opacity="0.05" d="M212.386 133.381C215.036 136.69 217.274 140.31 219.049 144.162C215.941 145.861 212.957 147.78 210.12 149.904C208.684 147.297 207.055 144.802 205.248 142.438C202.034 144.628 200.208 148.242 197.346 150.836C193.693 154.195 190.682 158.346 186.424 160.975C186.977 157.607 187.53 154.239 187.881 150.845C189.145 150.386 190.357 149.797 191.499 149.086C195.888 145.393 200.77 142.394 205.265 138.859C207.882 137.364 210.691 135.957 212.386 133.381Z" fill="#0E0E0E"/>
<path opacity="0.05" d="M110.463 206.218C112.069 208.215 113.097 210.615 114.545 212.691C115.976 215.047 117.785 217.175 118.935 219.673C112.789 219.831 106.696 219.673 100.585 219.822C97.5301 219.769 94.4397 220.06 91.4194 219.585C92.4472 219.095 93.3712 218.411 94.1412 217.571C95.4581 216.085 97.8726 215.927 98.6803 213.948C99.9523 214.447 101.27 214.821 102.614 215.065C102.385 214.185 102.14 213.306 101.823 212.427C104.317 209.824 107.557 208.25 110.463 206.218Z" fill="#0E0E0E"/>
</g>
<g opacity="0.06">
<path opacity="0.06" d="M146.468 175.317C157.18 170.261 166.925 163.428 176.126 156.015C175.189 161.766 173.949 167.464 172.412 173.084H172.333C168.523 174.702 165.433 177.542 161.798 179.494C158.286 181.781 154.247 183.258 150.955 185.878C145.379 184.522 139.89 182.828 134.519 180.805C138.461 178.914 142.632 177.454 146.468 175.317Z" fill="#0F0F0F"/>
</g>
<g opacity="0.11">
<path opacity="0.11" d="M83.4652 163.446C87.9941 167.262 92.7339 170.821 97.662 174.104C97.375 174.785 97.3438 175.547 97.5742 176.25C98.3937 178.94 99.3038 181.599 100.305 184.225C97.8201 187.215 94.0184 188.569 91.1738 191.164C91.1123 190.988 90.9806 190.653 90.9104 190.486C87.9394 182.786 85.5274 174.88 83.6934 166.832C83.521 165.712 83.4447 164.579 83.4652 163.446Z" fill="#1B1B1B"/>
</g>
<g opacity="0.08">
<path opacity="0.08" d="M62.2964 200.757C67.8891 201.294 73.4818 201.698 79.0833 201.768C81.7699 204.626 85.2291 206.535 88.5039 208.619C91.7731 210.637 95.1825 212.418 98.706 213.948C97.8983 215.926 95.4838 216.084 94.1669 217.571C93.397 218.41 92.4729 219.094 91.4452 219.584C88.9254 219.725 86.1159 220.182 83.9034 218.652C76.0303 214.231 68.8504 208.672 62.5949 202.155C62.5159 201.804 62.3754 201.109 62.2964 200.757Z" fill="#141414"/>
</g>
</svg>
