<svg width="24" height="24" viewBox="0 0 24 24" fill="none" xmlns="http://www.w3.org/2000/svg">
<path fill-rule="evenodd" clip-rule="evenodd" d="M0 12C0 5.37259 5.37259 0 12 0C18.6274 0 24 5.37259 24 12C24 18.6274 18.6274 24 12 24C5.37259 24 0 18.6274 0 12Z" fill="#FF00AF"/>
<path d="M23.5 12C23.5 18.3513 18.3513 23.5 12 23.5C5.64873 23.5 0.5 18.3513 0.5 12C0.5 5.64873 5.64873 0.5 12 0.5C18.3513 0.5 23.5 5.64873 23.5 12Z" stroke="black" stroke-opacity="0.097"/>
<path fill-rule="evenodd" clip-rule="evenodd" d="M12 3C16.975 3 21 7.025 21 12C21 16.925 17.05 20.925 12.15 21H12V13.425L10.85 14.575L10.7 17.425L11.9 21C11.2 21 10.525 20.9 9.85 20.725L9.675 20.675L9.1 18.95L7.475 19.775C6.875 19.425 6.325 19.025 5.825 18.55L5.7 18.425L8.725 16.9L8.825 15.175L7.1 15.275L5.575 18.3C5.1 17.8 4.675 17.25 4.325 16.675L4.225 16.525L5.05 14.9L3.325 14.325C3.15 13.65 3.05 12.975 3.025 12.3V12.125L6.625 13.325L9.475 13.175L10.625 12.025L9.475 10.875L6.625 10.725L3 11.9C3 11.2 3.1 10.5 3.25 9.85L3.3 9.675L5.025 9.1L4.2 7.475C4.55 6.875 4.95 6.325 5.425 5.825L5.55 5.7L7.075 8.725L8.8 8.825L8.7 7.1L5.675 5.575C6.175 5.1 6.725 4.675 7.3 4.325L7.45 4.225L9.075 5.05L9.65 3.325C10.325 3.15 11 3.05 11.675 3.025H11.85L10.65 6.6L10.8 9.45L11.95 10.6C12 10.575 12 3 12 3ZM14 5.3V18.725C16.875 17.85 19 15.175 19 12C19 8.875 16.925 6.225 14.1 5.325L14 5.3Z" fill="white"/>
</svg>
