<svg width="24" height="24" viewBox="0 0 24 24" fill="none" xmlns="http://www.w3.org/2000/svg">
<path d="M12 24C18.6274 24 24 18.6274 24 12C24 5.37258 18.6274 0 12 0C5.37258 0 0 5.37258 0 12C0 18.6274 5.37258 24 12 24Z" fill="#0B0F2B"/>
<path d="M6 5C6.5972 5 17.4656 5 17.4656 5L18 8.66252H17.2771C17.2771 8.66252 17.6542 5.89251 14.0713 5.89251H11.4311C11.4311 5.89251 10.4881 5.89251 10.4881 7.24675C10.5197 7.52385 10.4881 17.0341 10.4881 17.0341C10.4881 17.0341 10.4881 18.4961 11.9811 18.4961H12.7415V19H6.01181V18.4281H6.69304C6.69304 18.4281 8.22251 18.6053 8.22251 16.9304C8.22251 15.2555 8.22251 7.13454 8.22251 7.13454C8.22251 7.13454 8.22251 5.39879 6.05312 5.48145L6 5Z" fill="white"/>
<path d="M23.5 12C23.5 18.3513 18.3513 23.5 12 23.5C5.64873 23.5 0.5 18.3513 0.5 12C0.5 5.64873 5.64873 0.5 12 0.5C18.3513 0.5 23.5 5.64873 23.5 12Z" stroke="white" stroke-opacity="0.3"/>
</svg>
