<svg width="24" height="24" viewBox="0 0 24 24" fill="none" xmlns="http://www.w3.org/2000/svg">
<path fill-rule="evenodd" clip-rule="evenodd" d="M0 12C0 5.37259 5.37259 0 12 0C18.6274 0 24 5.37259 24 12C24 18.6274 18.6274 24 12 24C5.37259 24 0 18.6274 0 12Z" fill="#5848CC"/>
<path d="M23.5 12C23.5 18.3513 18.3513 23.5 12 23.5C5.64873 23.5 0.5 18.3513 0.5 12C0.5 5.64873 5.64873 0.5 12 0.5C18.3513 0.5 23.5 5.64873 23.5 12Z" stroke="white" stroke-opacity="0.3"/>
<path fill-rule="evenodd" clip-rule="evenodd" d="M11.0476 13.4126C9.18916 13.4126 7.68253 11.9061 7.68253 10.0476C7.68253 8.18906 9.18916 6.68253 11.0476 6.68253C12.9061 6.68253 14.4126 8.18906 14.4126 10.0476C14.4126 11.9061 12.9061 13.4126 11.0476 13.4126ZM11.0476 5C13.8353 5 16.0952 7.25989 16.0952 10.0476C16.0952 12.8353 13.8353 15.0952 11.0476 15.0952C8.25989 15.0952 6 12.8353 6 10.0476C6 7.25989 8.25989 5 11.0476 5ZM15.8488 15.3415C16.1774 15.6701 16.1774 16.2027 15.8488 16.5312L12.4836 19.8964C12.1551 20.225 11.6225 20.225 11.2939 19.8964C10.9654 19.5678 10.9654 19.0353 11.2939 18.7067L14.6591 15.3415C14.9877 15.013 15.5203 15.013 15.8488 15.3415ZM17.7777 5.84126C17.7777 6.30595 17.4011 6.68253 16.9365 6.68253C16.4719 6.68253 16.0953 6.30595 16.0953 5.84126C16.0953 5.37658 16.4719 5 16.9365 5C17.4011 5 17.7777 5.37658 17.7777 5.84126Z" fill="white"/>
</svg>
