<svg width="24" height="24" viewBox="0 0 24 24" fill="none" xmlns="http://www.w3.org/2000/svg">
<path d="M12 24C18.6274 24 24 18.6274 24 12C24 5.37258 18.6274 0 12 0C5.37258 0 0 5.37258 0 12C0 18.6274 5.37258 24 12 24Z" fill="#26DDF9"/>
<path d="M14.1513 5C12.9569 5.00668 11.8064 5.45119 10.9177 6.24933C10.0291 7.04747 9.46398 8.1438 9.32951 9.33067C8.0997 9.46876 6.9692 10.0718 6.16949 11.0162C5.36978 11.9606 4.96136 13.1751 5.02786 14.4108C5.09436 15.6466 5.63074 16.8102 6.52719 17.6633C7.42363 18.5165 8.61231 18.9947 9.84984 19C11.0441 18.993 12.1943 18.5484 13.0827 17.7503C13.9711 16.9522 14.5361 15.856 14.6705 14.6693C15.9002 14.5313 17.0307 13.9284 17.8304 12.984C18.6301 12.0397 19.0386 10.8254 18.9722 9.58976C18.9059 8.35409 18.3697 7.19052 17.4735 6.33727C16.5773 5.48401 15.3888 5.0056 14.1513 5ZM17.8648 10.397C17.7441 11.1935 17.3718 11.9306 16.8024 12.5005C16.2329 13.0703 15.4961 13.4432 14.6997 13.5645V10.397H17.8648ZM6.13517 13.603C6.2559 12.8065 6.6282 12.0694 7.19765 11.4995C7.76711 10.9297 8.50389 10.5568 9.30034 10.4355V13.6007L6.13517 13.603ZM13.5645 14.6997C13.4356 15.5926 12.9892 16.4092 12.3072 16.9998C11.6252 17.5905 10.7532 17.9155 9.85101 17.9155C8.9488 17.9155 8.0768 17.5905 7.39479 16.9998C6.71278 16.4092 6.26642 15.5926 6.13751 14.6997H13.5645ZM13.6053 10.397V13.603H10.397V10.397H13.6053ZM17.8648 9.30033H10.4355C10.5662 8.40875 11.0132 7.59394 11.6951 7.00477C12.3769 6.41559 13.2479 6.09139 14.149 6.09139C15.0501 6.09139 15.9211 6.41559 16.603 7.00477C17.2848 7.59394 17.7318 8.40875 17.8625 9.30033H17.8648Z" fill="white"/>
<path d="M23.5 12C23.5 18.3513 18.3513 23.5 12 23.5C5.64873 23.5 0.5 18.3513 0.5 12C0.5 5.64873 5.64873 0.5 12 0.5C18.3513 0.5 23.5 5.64873 23.5 12Z" stroke="white" stroke-opacity="0.3"/>
</svg>
