<svg width="24" height="24" viewBox="0 0 24 24" fill="none" xmlns="http://www.w3.org/2000/svg">
<path d="M12 24C18.6274 24 24 18.6274 24 12C24 5.37258 18.6274 0 12 0C5.37258 0 0 5.37258 0 12C0 18.6274 5.37258 24 12 24Z" fill="#00D4D5"/>
<path d="M23.5 12C23.5 18.3513 18.3513 23.5 12 23.5C5.64873 23.5 0.5 18.3513 0.5 12C0.5 5.64873 5.64873 0.5 12 0.5C18.3513 0.5 23.5 5.64873 23.5 12Z" stroke="black" stroke-opacity="0.097"/>
<path d="M12.9816 4.45898V8.21059L16.2389 6.33719L12.9816 4.45898Z" fill="white"/>
<path opacity="0.9" d="M16.2389 6.33691V10.0885L19.4955 8.21031L16.2389 6.33691Z" fill="white"/>
<path opacity="0.8" d="M12.9816 8.21045V11.9621L16.2389 10.0887L12.9816 8.21045ZM16.2389 10.0893V13.8403L19.4955 11.9621L16.2389 10.0893Z" fill="white"/>
<path opacity="0.8" d="M12.9816 11.9624V15.714L16.2389 13.8406L12.9816 11.9624Z" fill="white"/>
<path d="M16.2389 13.8403V17.5919L19.4955 15.7137L16.2389 13.8403Z" fill="white"/>
<path opacity="0.4" d="M4.56268 8.08398V11.8356L7.81998 9.95738L4.56268 8.08398Z" fill="white"/>
<path opacity="0.2" d="M8.67175 9.479V13.2306L11.9236 11.3572L8.67175 9.479Z" fill="white"/>
<path opacity="0.3" d="M6.25726 11.8511V15.6027L9.51388 13.7245L6.25726 11.8511Z" fill="white"/>
<path opacity="0.9" d="M8.40363 14.6826V18.4342L11.6554 16.556L8.40363 14.6826Z" fill="white"/>
<path opacity="0.7" d="M12.9548 16.2974V20.0497L16.2066 18.1708L12.9548 16.2974Z" fill="white"/>
<path opacity="0.9" d="M9.21417 7.62598V11.3783L12.466 9.50487L9.21417 7.62598Z" fill="white"/>
<path opacity="0.8" d="M12.9816 4.45898V8.21059L9.7243 6.33719L12.9816 4.45898Z" fill="white"/>
<path opacity="0.6" d="M9.21417 6.05371V9.80463L5.95618 7.92642L9.21417 6.05371Z" fill="white"/>
<path opacity="0.6" d="M12.4715 7.91016V11.6624L9.21417 9.78355L12.4715 7.91016Z" fill="white"/>
<path opacity="0.95" d="M8.65659 9.479V13.2306L5.39929 11.3572L8.65659 9.479Z" fill="white"/>
<path opacity="0.6" d="M12.9816 11.9624V15.714L9.7298 13.8406L12.9816 11.9624Z" fill="white"/>
<path opacity="0.55" d="M6.2573 12.8359V16.5875L3 14.7086L6.2573 12.8359Z" fill="white"/>
<path d="M19.4955 8.21045V11.9621L16.2389 10.0887L19.4955 8.21045Z" fill="white"/>
<path opacity="0.95" d="M16.2389 10.0894V13.8403L12.9816 11.9621L16.2389 10.0894Z" fill="white"/>
<path opacity="0.9" d="M19.4955 11.9624V15.714L16.2389 13.8406L19.4955 11.9624Z" fill="white"/>
<path opacity="0.7" d="M16.2389 13.8403V17.5919L12.9816 15.7137L16.2389 13.8403Z" fill="white"/>
<path opacity="0.4" d="M12.2604 15.4038V19.1554L9.00378 17.282L12.2604 15.4038Z" fill="white"/>
<path d="M16.2389 6.33691V10.0885L12.9816 8.21031L16.2389 6.33691Z" fill="white"/>
</svg>
