<svg width="24" height="24" viewBox="0 0 24 24" fill="none" xmlns="http://www.w3.org/2000/svg">
<path d="M12 24C18.6274 24 24 18.6274 24 12C24 5.37258 18.6274 0 12 0C5.37258 0 0 5.37258 0 12C0 18.6274 5.37258 24 12 24Z" fill="#0050FF"/>
<path d="M17.8585 11.032C17.6667 10.3578 17.2823 9.76641 16.7604 9.34278C17.1331 8.21207 17.0957 6.97081 16.6559 5.86863C16.2161 4.76645 15.4065 3.88512 14.3898 3.40189C13.3731 2.91866 12.2248 2.86937 11.1758 3.26395C10.1269 3.65852 9.25508 4.46769 8.73578 5.5287L6.35733 10.4137C6.01407 11.12 5.91401 11.9351 6.07498 12.7137C6.23595 13.4923 6.64748 14.1838 7.23626 14.6651C6.86598 15.7948 6.90463 17.0341 7.34447 18.1343C7.78431 19.2345 8.59282 20.1144 9.60782 20.5973C10.6228 21.0803 11.7693 21.1307 12.8172 20.7384C13.8652 20.3461 14.7371 19.5401 15.2582 18.4821L17.6393 13.5977C17.8311 13.207 17.9493 12.779 17.9869 12.3386C18.0245 11.8982 17.9809 11.4541 17.8585 11.032ZM7.31676 10.9615L9.69738 6.08003C10.1058 5.25481 10.7973 4.63557 11.6235 4.35534C12.4498 4.07511 13.3447 4.15623 14.1162 4.58129C14.8877 5.00635 15.4741 5.74143 15.7496 6.62864C16.025 7.51585 15.9675 8.48443 15.5894 9.32632L12.028 16.6324C11.983 16.7252 11.9214 16.8075 11.8469 16.8745C11.8305 16.8892 11.8126 16.9033 11.7925 16.9163L11.7734 16.9298L11.7424 16.9504L11.7141 16.9668L11.7054 16.9715C11.6024 17.0272 11.4888 17.0562 11.3737 17.0562C11.2553 17.0551 11.139 17.0228 11.0348 16.9621C10.8634 16.8645 10.734 16.6985 10.6743 16.4993C10.6145 16.3001 10.6291 16.0836 10.715 15.8959L14.2367 8.67271L14.2405 8.66507C14.4009 8.33365 14.4708 7.9598 14.4422 7.58707C14.4136 7.21435 14.2875 6.85809 14.0787 6.5598C13.87 6.26151 13.5871 6.03346 13.263 5.90221C12.9389 5.77096 12.587 5.74192 12.2482 5.81847C12.2363 5.81847 12.2249 5.82435 12.2129 5.82729C12.2009 5.83023 12.1732 5.83728 12.1531 5.84316C12.1329 5.84904 12.1068 5.85668 12.0834 5.86432L12.0731 5.86785C11.8443 5.94461 11.6318 6.06936 11.4477 6.23497C11.2635 6.40057 11.1114 6.60378 11 6.83297L7.71706 13.5695C7.39677 13.2411 7.18438 12.8087 7.11213 12.3381C7.03988 11.8674 7.11173 11.3841 7.31676 10.9615ZM16.6772 13.0469L14.2982 17.9302C13.8941 18.7633 13.2024 19.3907 12.373 19.6763C11.5436 19.9618 10.6435 19.8825 9.86797 19.4554C9.0924 19.0284 8.5039 18.2881 8.23014 17.3952C7.95638 16.5022 8.01944 15.5287 8.40563 14.6857L11.966 7.37843C12.0228 7.26007 12.1062 7.15902 12.2085 7.08454C12.2265 7.0722 12.245 7.06044 12.2629 7.04928L12.2711 7.04457C12.2885 7.03458 12.3064 7.02518 12.3255 7.01695L12.3554 7.00402L12.3761 6.99579C12.4535 6.96752 12.5347 6.95303 12.6165 6.95288C12.7361 6.95268 12.854 6.98437 12.9597 7.04516C13.13 7.14311 13.2584 7.30889 13.3176 7.50737C13.3768 7.70585 13.3621 7.92144 13.2768 8.10845C13.1729 8.32181 9.76646 15.3099 9.75123 15.3422C9.57244 15.7138 9.50755 16.1372 9.56591 16.5513C9.62428 16.9654 9.80288 17.3487 10.0759 17.646C10.349 17.9432 10.7024 18.139 11.0851 18.2051C11.4678 18.2712 11.8601 18.2041 12.2053 18.0136L12.2172 18.0066C12.2858 17.9684 12.3519 17.9254 12.4152 17.8779L12.4326 17.8644C12.4571 17.8455 12.4816 17.8256 12.5055 17.8056L12.5278 17.7862C12.555 17.7621 12.5822 17.738 12.6072 17.7121C12.6181 17.7015 12.6279 17.691 12.6382 17.6798L12.6806 17.6351L12.7247 17.5846L12.7432 17.5616C12.84 17.4437 12.9235 17.3137 12.9918 17.1743C13.0146 17.1267 14.0746 14.9525 15.0493 12.9529L16.2758 10.4372C16.5964 10.7655 16.8089 11.1981 16.881 11.669C16.9531 12.1399 16.8807 12.6234 16.675 13.0458L16.6772 13.0469Z" fill="white"/>
<path d="M23.5 12C23.5 18.3513 18.3513 23.5 12 23.5C5.64873 23.5 0.5 18.3513 0.5 12C0.5 5.64873 5.64873 0.5 12 0.5C18.3513 0.5 23.5 5.64873 23.5 12Z" stroke="black" stroke-opacity="0.097"/>
</svg>
