<svg width="24" height="24" viewBox="0 0 24 24" fill="none" xmlns="http://www.w3.org/2000/svg">
<path d="M12 24C18.6274 24 24 18.6274 24 12C24 5.37258 18.6274 0 12 0C5.37258 0 0 5.37258 0 12C0 18.6274 5.37258 24 12 24Z" fill="#007AFF"/>
<path d="M23.5 12C23.5 18.3513 18.3513 23.5 12 23.5C5.64873 23.5 0.5 18.3513 0.5 12C0.5 5.64873 5.64873 0.5 12 0.5C18.3513 0.5 23.5 5.64873 23.5 12Z" stroke="black" stroke-opacity="0.097"/>
<path fill-rule="evenodd" clip-rule="evenodd" d="M11.7537 4C9.49251 4 7.65948 5.83303 7.65948 8.09419V10.3332C6.99796 10.4675 6.50006 11.0524 6.50006 11.7535V17.5506C6.50006 18.351 7.14892 18.9999 7.94933 18.9999H15.558C16.3584 18.9999 17.0073 18.351 17.0073 17.5506V11.7535C17.0073 11.0524 16.5094 10.4675 15.8479 10.3332V8.09419C15.8479 5.83303 14.0148 4 11.7537 4ZM7.93887 11.1739H15.5685C15.8838 11.1795 16.1377 11.4368 16.1377 11.7535V17.5506C16.1377 17.8708 15.8782 18.1303 15.558 18.1303H7.94933C7.62917 18.1303 7.36962 17.8708 7.36962 17.5506V11.7535C7.36962 11.4368 7.62353 11.1795 7.93887 11.1739ZM14.9783 10.3042V8.09419C14.9783 6.31328 13.5346 4.86956 11.7537 4.86956C9.97276 4.86956 8.52904 6.31328 8.52904 8.09419V10.3042H14.9783ZM12.6595 15.739C12.6595 16.2593 12.2377 16.6811 11.7174 16.6811C11.1972 16.6811 10.7754 16.2593 10.7754 15.739C10.7754 15.3756 10.9812 15.0602 11.2827 14.9031V13.3476H12.1522V14.9031C12.4536 15.0602 12.6595 15.3756 12.6595 15.739Z" fill="white"/>
</svg>
