<svg width="24" height="24" viewBox="0 0 24 24" fill="none" xmlns="http://www.w3.org/2000/svg">
<path d="M12 24C18.6274 24 24 18.6274 24 12C24 5.37258 18.6274 0 12 0C5.37258 0 0 5.37258 0 12C0 18.6274 5.37258 24 12 24Z" fill="#2170FB"/>
<path d="M12 24C18.6274 24 24 18.6274 24 12C24 5.37258 18.6274 0 12 0C5.37258 0 0 5.37258 0 12C0 18.6274 5.37258 24 12 24Z" fill="black"/>
<path d="M5.01818 8.25421C5.13534 8.25421 5.25251 8.25421 5.36967 8.25421C5.7555 8.2532 6.14032 8.25219 6.52615 8.25017C6.74129 8.24916 6.95642 8.24512 7.17257 8.24512C7.19782 8.24512 7.22812 8.25825 7.2463 8.27542C7.7089 8.73397 8.17048 9.19353 8.63307 9.65209C9.2199 10.2359 9.80773 10.8197 10.3946 11.4035C10.5612 11.5691 10.7289 11.7348 10.8965 11.9004C10.9087 11.9125 10.9238 11.9196 10.941 11.9317C10.8986 11.9752 10.8662 12.0105 10.8319 12.0448C10.4249 12.4579 10.0178 12.87 9.61078 13.2821C9.05728 13.8427 8.5048 14.4033 7.9513 14.9638C7.70082 15.2173 7.45134 15.4719 7.19984 15.7254C7.18873 15.7365 7.16752 15.7436 7.15136 15.7436C6.92107 15.7415 6.69079 15.7385 6.45949 15.7355C5.97872 15.7284 5.49794 15.7213 5 15.7143C6.26355 14.4669 7.518 13.2286 8.77751 11.9853C7.52305 10.7449 6.2686 9.50664 5.01515 8.26734C5.01616 8.2633 5.01717 8.25825 5.01818 8.25421Z" fill="white"/>
<path d="M11.9551 13.0732C12.0076 13.1338 12.047 13.1843 12.0924 13.2298C12.5681 13.7015 13.0449 14.1722 13.5216 14.6418C14.0165 15.1297 14.5114 15.6175 15.0053 16.1053C15.2437 16.3407 15.4821 16.576 15.7215 16.8103C15.7477 16.8366 15.7568 16.8629 15.7568 16.8992C15.7518 17.2578 15.7467 17.6153 15.7427 17.9739C15.7386 18.2981 15.7346 18.6233 15.7295 18.9476C15.7295 18.9688 15.7255 18.99 15.7225 19.0223C14.4771 17.7608 13.2388 16.5073 11.9975 15.2488C10.7562 16.5053 9.51786 17.7598 8.27249 19.0203C8.27047 18.9981 8.26845 18.9839 8.26845 18.9698C8.26744 18.6031 8.26643 18.2365 8.26441 17.8689C8.26239 17.5335 8.26037 17.1992 8.25633 16.8649C8.25633 16.8265 8.26643 16.7992 8.2937 16.772C8.68862 16.377 9.08254 15.9811 9.47645 15.5852C9.9148 15.1448 10.3521 14.7044 10.7905 14.2641C11.1642 13.8883 11.5379 13.5116 11.9106 13.1359C11.9237 13.1227 11.9318 13.1056 11.9551 13.0732Z" fill="white"/>
<path d="M12.0439 10.9359C12.0015 10.8885 11.9621 10.838 11.9167 10.7935C11.4409 10.3218 10.9642 9.85117 10.4875 9.38049C9.99356 8.89366 9.49966 8.40683 9.00676 7.91999C8.76739 7.68365 8.52801 7.4473 8.28762 7.21095C8.26237 7.18671 8.25328 7.16146 8.25328 7.12712C8.25934 6.69786 8.26439 6.2686 8.27045 5.84034C8.27348 5.58582 8.27752 5.3323 8.28055 5.07777C8.28055 5.05656 8.28358 5.03434 8.28661 5C9.53198 6.26153 10.7703 7.51497 12.0126 8.77347C13.2529 7.518 14.4922 6.26355 15.7376 5.00303C15.7396 5.02525 15.7416 5.03838 15.7416 5.05252C15.7426 5.4131 15.7436 5.77267 15.7457 6.13325C15.7477 6.47464 15.7497 6.81603 15.7537 7.15843C15.7537 7.19681 15.7436 7.22408 15.7164 7.25135C15.3184 7.6493 14.9225 8.04726 14.5256 8.44622C14.0902 8.88457 13.6539 9.32191 13.2186 9.76026C12.8449 10.136 12.4712 10.5127 12.0974 10.8895C12.0843 10.9026 12.0762 10.9198 12.0661 10.9349C12.0601 10.9339 12.052 10.9349 12.0439 10.9359Z" fill="white"/>
<path d="M13.057 12.044C13.1469 11.9611 13.2287 11.8914 13.3034 11.8157C13.7751 11.34 14.2448 10.8632 14.7155 10.3865C15.0791 10.0178 15.4437 9.64816 15.8073 9.2795C16.1366 8.94518 16.4668 8.61086 16.7951 8.27553C16.8183 8.25129 16.8426 8.24321 16.8749 8.24422C17.4435 8.2523 18.0122 8.26038 18.5808 8.26745C18.7182 8.26947 18.8566 8.26745 18.9939 8.26745C18.996 8.2725 18.998 8.27856 19 8.28361C17.7455 9.52292 16.4901 10.7612 15.2306 12.0046C16.486 13.2449 17.7385 14.4822 19 15.7275C18.9687 15.7295 18.9475 15.7316 18.9263 15.7326C18.4041 15.7356 17.8829 15.7376 17.3607 15.7407C17.187 15.7417 17.0143 15.7457 16.8406 15.7457C16.8143 15.7457 16.781 15.7336 16.7618 15.7144C16.2446 15.2023 15.7305 14.6892 15.2144 14.1771C14.7872 13.7519 14.3599 13.3277 13.9327 12.9025C13.664 12.6358 13.3954 12.3682 13.1267 12.1025C13.1125 12.0844 13.0923 12.0712 13.057 12.044Z" fill="white"/>
<path d="M23.5 12C23.5 18.3513 18.3513 23.5 12 23.5C5.64873 23.5 0.5 18.3513 0.5 12C0.5 5.64873 5.64873 0.5 12 0.5C18.3513 0.5 23.5 5.64873 23.5 12Z" stroke="white" stroke-opacity="0.3"/>
</svg>
