<svg width="24" height="24" viewBox="0 0 24 24" fill="none" xmlns="http://www.w3.org/2000/svg">
<path fill-rule="evenodd" clip-rule="evenodd" d="M0 12C0 5.37259 5.37259 0 12 0C18.6274 0 24 5.37259 24 12C24 18.6274 18.6274 24 12 24C5.37259 24 0 18.6274 0 12Z" fill="#2AB970"/>
<path d="M23.5 12C23.5 18.3513 18.3513 23.5 12 23.5C5.64873 23.5 0.5 18.3513 0.5 12C0.5 5.64873 5.64873 0.5 12 0.5C18.3513 0.5 23.5 5.64873 23.5 12Z" stroke="black" stroke-opacity="0.097"/>
<path fill-rule="evenodd" clip-rule="evenodd" d="M15.5179 11.5305L17.0474 12.5549L14.9498 19H9.57456L7.03992 17.4207H13.5951L15.5179 11.5305ZM13.901 7.68902L19.5385 11.6585L17.8778 16.9512L15.649 18.5732L17.6593 12.3841L12.4588 8.79878C12.9879 8.39874 13.3719 8.08908 13.901 7.68902ZM5.29187 9.05488L7.56432 15.2012H13.7262L13.2455 16.8659H6.25328L4.46155 11.6585L5.29187 9.05488ZM12.9832 5L7.69543 8.88414L9.57456 14.6463H7.87023L5.68518 8.32926L10.3175 5H12.9832ZM13.901 5L18.5333 8.32926L19.4074 10.9756L13.901 7.04879C13.901 7.04879 10.8284 9.36934 8.83166 10.7195L8.26354 9.05488L13.901 5Z" fill="white"/>
</svg>
