<svg width="24" height="24" viewBox="0 0 24 24" fill="none" xmlns="http://www.w3.org/2000/svg">
<path d="M12 24C18.6274 24 24 18.6274 24 12C24 5.37258 18.6274 0 12 0C5.37258 0 0 5.37258 0 12C0 18.6274 5.37258 24 12 24Z" fill="#FF3465"/>
<path fill-rule="evenodd" clip-rule="evenodd" d="M18.5401 6.53391C17.528 5.5113 16.2392 5 14.6845 5H8.30359V9.01739V11.1609C9.69525 11.6029 10.7036 12.9055 10.7036 14.4435C10.7036 15.9815 9.69525 17.284 8.30359 17.726V20H11.7732V15.8417H14.6897C16.2445 15.8417 17.5331 15.3305 18.5454 14.3078C19.5575 13.2852 20.0688 11.9913 20.0688 10.4209C20.0688 8.85043 19.5575 7.55652 18.5401 6.53391ZM15.874 12.2887C15.4254 12.7739 14.8514 13.0191 14.1471 13.0191H11.7679V7.83305H14.1471C14.8462 7.83305 15.4201 8.07826 15.874 8.56348C16.3228 9.04869 16.5471 9.66957 16.5471 10.4261C16.5523 11.1826 16.3228 11.8035 15.874 12.2887Z" fill="white"/>
<path d="M6.51393 16.983C7.90235 16.983 9.02789 15.8575 9.02789 14.469C9.02789 13.0806 7.90235 11.9551 6.51393 11.9551C5.12551 11.9551 3.99996 13.0806 3.99996 14.469C3.99996 15.8575 5.12551 16.983 6.51393 16.983Z" fill="white"/>
<path d="M23.5 12C23.5 18.3513 18.3513 23.5 12 23.5C5.64873 23.5 0.5 18.3513 0.5 12C0.5 5.64873 5.64873 0.5 12 0.5C18.3513 0.5 23.5 5.64873 23.5 12Z" stroke="black" stroke-opacity="0.097"/>
</svg>
