<svg width="24" height="24" viewBox="0 0 24 24" fill="none" xmlns="http://www.w3.org/2000/svg">
<path d="M12 24C18.6274 24 24 18.6274 24 12C24 5.37258 18.6274 0 12 0C5.37258 0 0 5.37258 0 12C0 18.6274 5.37258 24 12 24Z" fill="#F4F4F4"/>
<path d="M23.5 12C23.5 18.3513 18.3513 23.5 12 23.5C5.64873 23.5 0.5 18.3513 0.5 12C0.5 5.64873 5.64873 0.5 12 0.5C18.3513 0.5 23.5 5.64873 23.5 12Z" stroke="black" stroke-opacity="0.097"/>
<path d="M17.1728 6.12443C17.1828 6.35548 17.004 6.55095 16.7729 6.56086C16.5418 6.57122 16.3463 6.39196 16.336 6.16091C16.3261 5.92986 16.5054 5.73438 16.7364 5.72402C16.9674 5.71412 17.1624 5.89342 17.1728 6.12443Z" fill="#696364"/>
<path d="M15.5901 6.67111C15.868 6.69002 16.0779 6.93053 16.059 7.20843C16.0401 7.48587 15.7995 7.69576 15.5217 7.67729C15.2438 7.65838 15.0339 7.41741 15.0528 7.13997C15.0717 6.86212 15.3122 6.65219 15.5901 6.67111Z" fill="#696364"/>
<path d="M15.9117 5.31388C15.9217 5.54493 15.7428 5.74041 15.5117 5.75032C15.2807 5.76067 15.0852 5.58142 15.0749 5.35036C15.065 5.11931 15.2443 4.92384 15.4753 4.91348C15.7063 4.90357 15.9013 5.08287 15.9117 5.31388Z" fill="#696364"/>
<path d="M14.3795 7.61569C14.72 7.63911 14.9767 7.93367 14.9537 8.27372C14.9303 8.61422 14.6357 8.8714 14.2957 8.84798C13.9552 8.82501 13.698 8.53045 13.7214 8.18995C13.7444 7.84985 14.039 7.59267 14.3795 7.61569Z" fill="#696364"/>
<path d="M14.3249 5.92404C14.6024 5.94295 14.8127 6.18346 14.7938 6.46136C14.7749 6.7388 14.5339 6.94869 14.2565 6.92977C13.9785 6.91086 13.7687 6.67034 13.7876 6.3929C13.8065 6.11505 14.0471 5.90512 14.3249 5.92404Z" fill="#696364"/>
<path d="M14.574 4.78165C14.5839 5.0127 14.4046 5.20818 14.1736 5.21809C13.9425 5.22844 13.747 5.04919 13.7372 4.81813C13.7268 4.58708 13.9061 4.39161 14.1371 4.38125C14.3682 4.37138 14.5637 4.55064 14.574 4.78165Z" fill="#696364"/>
<path d="M13.062 7.02779C13.4021 7.05076 13.6593 7.34577 13.6363 7.68582C13.6129 8.02587 13.3183 8.28305 12.9783 8.26008C12.6378 8.23666 12.3806 7.9421 12.404 7.60205C12.427 7.26155 12.7216 7.00487 13.062 7.02779Z" fill="#696364"/>
<path d="M13.0454 8.78881C13.4377 8.81539 13.7345 9.15544 13.7079 9.54773C13.6809 9.94048 13.3413 10.2373 12.9486 10.2103C12.5558 10.1837 12.2594 9.84364 12.286 9.4509C12.3126 9.0586 12.6526 8.76183 13.0454 8.78881Z" fill="#696364"/>
<path d="M12.8999 5.56954C13.1778 5.58846 13.3877 5.82897 13.3688 6.10686C13.3498 6.38476 13.1093 6.59464 12.8314 6.57573C12.5535 6.55681 12.3441 6.3163 12.3631 6.0384C12.382 5.76051 12.6225 5.55067 12.8999 5.56954Z" fill="#696364"/>
<path d="M13.1495 4.51757C13.1594 4.74862 12.9801 4.9441 12.749 4.95446C12.518 4.96437 12.3225 4.78511 12.3126 4.55405C12.3023 4.323 12.4815 4.12753 12.7126 4.11762C12.9436 4.10721 13.1391 4.28647 13.1495 4.51757Z" fill="#696364"/>
<path d="M12.1486 12.3574H12.4025V12.1035L12.1486 12.3574Z" fill="white"/>
<path d="M11.8513 11.6396H11.6847V11.8062L11.8513 11.6396Z" fill="white"/>
<path d="M7.67925 12.3564H4C4.08562 14.2973 4.86215 16.0585 6.08953 17.4004L8.69107 14.7989C8.12325 14.1288 7.75528 13.284 7.67925 12.3564Z" fill="#EC2027"/>
<path d="M9.19898 15.3066L6.59712 17.9085C7.94908 19.145 9.72657 19.924 11.6847 19.9999V16.3225C10.74 16.2546 9.87957 15.8835 9.19898 15.3066Z" fill="#EC2027"/>
<path d="M12.4025 16.3146V19.9957C14.3457 19.8995 16.1063 19.1105 17.4431 17.8708L14.8429 15.2705C14.1767 15.8497 13.3321 16.229 12.4025 16.3146Z" fill="#EC2027"/>
<path d="M15.3441 14.7568L17.9474 17.3601C19.1534 16.0232 19.9152 14.2778 20 12.3564H16.3207C16.2463 13.2647 15.8918 14.0936 15.3441 14.7568Z" fill="#EC2027"/>
<path d="M8.72687 9.15483L6.12673 6.55469C4.878 7.90165 4.08648 9.67846 4 11.6388H7.67925C7.75685 10.6919 8.13879 9.83142 8.72687 9.15483Z" fill="#EC2027"/>
<path d="M16.3207 11.6388H20C19.9144 9.69783 19.1377 7.93669 17.9103 6.59473L15.3084 9.19667C15.8763 9.86673 16.2447 10.7112 16.3207 11.6388Z" fill="#EC2027"/>
<path d="M11.6847 7.67453V3.99609C9.74607 4.07122 7.98448 4.83527 6.63757 6.05067L9.24077 8.65388C9.91452 8.09723 10.7595 7.74115 11.6847 7.67453Z" fill="#EC2027"/>
<path d="M11.6847 12.1123V12.3562H11.9286L11.6847 12.1123Z" fill="white"/>
<path d="M11.9286 12.3564L12.0386 12.4664L12.1486 12.3564H11.9286Z" fill="white"/>
<path d="M12.2259 11.6395L12.0386 11.4521L11.8513 11.6395H12.2259Z" fill="white"/>
<path d="M11.6847 11.8047L11.5311 11.9584L11.6847 12.112V11.8047Z" fill="white"/>
<path d="M12.4025 11.8162V11.6396H12.2259L12.4025 11.8162Z" fill="white"/>
<path d="M12.4025 12.1027L12.5462 11.9591L12.4025 11.8154V12.1027Z" fill="white"/>
<path d="M12 13.6323C12.9025 13.6323 13.634 12.9008 13.634 11.9983C13.634 11.0958 12.9025 10.3643 12 10.3643C11.0975 10.3643 10.366 11.0958 10.366 11.9983C10.366 12.9008 11.0975 13.6323 12 13.6323Z" fill="#696364"/>
</svg>
