<svg width="24" height="24" viewBox="0 0 24 24" fill="none" xmlns="http://www.w3.org/2000/svg">
<path d="M12 24C18.6274 24 24 18.6274 24 12C24 5.37258 18.6274 0 12 0C5.37258 0 0 5.37258 0 12C0 18.6274 5.37258 24 12 24Z" fill="#212630"/>
<path d="M20.7987 7H18.0613L16.5 11H19.5L20.7987 7Z" fill="white"/>
<path d="M15.7375 14.0644L14.3559 10.8954C14.0412 10.0944 13.2497 9.56527 12.3665 9.56527C11.4921 9.56527 10.7066 10.0841 10.3856 10.8738L8.94849 14.0644L6.75875 7H4L7.27617 17.3462C7.40063 17.735 7.77109 18 8.19045 18H9.77376C10.1655 18 10.5176 17.7684 10.6629 17.4153L12.3591 13.3505L14.0857 17.4203C14.2325 17.7709 14.5831 18 14.9729 18H16.5313C16.9492 18 17.3186 17.737 17.4443 17.3503L19 12.4482H16.2476L15.7375 14.0644Z" fill="white"/>
<path d="M23.5 12C23.5 18.3513 18.3513 23.5 12 23.5C5.64873 23.5 0.5 18.3513 0.5 12C0.5 5.64873 5.64873 0.5 12 0.5C18.3513 0.5 23.5 5.64873 23.5 12Z" stroke="white" stroke-opacity="0.3"/>
</svg>
