<svg width="24" height="24" viewBox="0 0 24 24" fill="none" xmlns="http://www.w3.org/2000/svg">
<path d="M12 24C18.6274 24 24 18.6274 24 12C24 5.37258 18.6274 0 12 0C5.37258 0 0 5.37258 0 12C0 18.6274 5.37258 24 12 24Z" fill="#006AE3"/>
<path d="M23.5 12C23.5 18.3513 18.3513 23.5 12 23.5C5.64873 23.5 0.5 18.3513 0.5 12C0.5 5.64873 5.64873 0.5 12 0.5C18.3513 0.5 23.5 5.64873 23.5 12Z" stroke="black" stroke-opacity="0.097"/>
<path d="M11.5 17V7H12.5V17H11.5Z" fill="white"/>
<path d="M17 10.42L13.5982 11.3274L12.8396 7.77608L13.8512 7.54617L14.2499 9.22889C14.2499 9.22889 15.169 7.71249 13.9436 6.14228C13.2214 5.33516 12.8785 5.30092 12.0688 5.17374C11.3564 5.07101 9.70051 5.31315 9.20691 7.25757C8.99778 8.50982 9.23366 9.43679 10.8385 10.6499L10.7485 12C10.7485 12 8.95649 10.7306 8.49445 9.84035C8.13703 9.13595 7.52428 7.74429 8.63063 5.8072C9.22637 4.83868 10.4008 3.90927 12.4701 4.0071C13.5108 4.05112 16.0517 5.33027 15.6578 8.31905C15.5897 8.87914 15.3003 9.62511 15.3003 9.62511L16.696 9.31205L17 10.42Z" fill="white"/>
<path d="M15.3076 18.2779C14.6804 19.2337 13.4726 20.1354 11.3927 19.9831C10.3441 19.9118 7.8207 18.558 8.29598 15.5677C8.37928 15.0075 8.6904 14.2679 8.6904 14.2679L7.27682 14.5431L7 13.4251L10.4519 12.6044L11.1231 16.1918L10.0966 16.3957L9.73896 14.693C9.73896 14.693 8.77371 16.1893 9.96438 17.8012C10.6699 18.6317 11.0129 18.6735 11.8287 18.8233C12.5417 18.9462 14.2174 18.7447 14.7662 16.8061C15.0087 15.5554 14.7956 14.6168 13.2129 13.3539L13.3403 12C13.3403 12 15.1116 13.3219 15.5526 14.2286C15.8907 14.9485 16.4713 16.3638 15.3076 18.2779Z" fill="white"/>
</svg>
