<svg width="24" height="24" viewBox="0 0 24 24" fill="none" xmlns="http://www.w3.org/2000/svg">
<path d="M24 12C24 5.37258 18.6274 2.2213e-07 12 1.43099e-07C5.37258 6.40674e-08 2.2213e-07 5.37258 1.43099e-07 12C6.40674e-08 18.6274 5.37258 24 12 24C18.6274 24 24 18.6274 24 12Z" fill="url(#paint0_linear)"/>
<path d="M12 0.5C18.3513 0.5 23.5 5.64872 23.5 12C23.5 18.3513 18.3513 23.5 12 23.5C5.64873 23.5 0.5 18.3513 0.5 12C0.5 5.64872 5.64873 0.5 12 0.5Z" stroke="black" stroke-opacity="0.097"/>
<path d="M17 12.5L7 12.5L7 11.5L17 11.5L17 12.5Z" fill="white"/>
<path d="M10.42 7L11.3274 10.4018L7.77608 11.1604L7.54617 10.1488L9.22889 9.75009C9.22889 9.75009 7.71249 8.83098 6.14228 10.0564C5.33516 10.7786 5.30092 11.1215 5.17374 11.9312C5.07101 12.6436 5.31315 14.2995 7.25757 14.7931C8.50982 15.0022 9.43679 14.7663 10.6499 13.1615L12 13.2515C12 13.2515 10.7306 15.0435 9.84035 15.5055C9.13595 15.863 7.74429 16.4757 5.8072 15.3694C4.83868 14.7736 3.90927 13.5992 4.0071 11.5299C4.05112 10.4892 5.33027 7.94834 8.31905 8.34224C8.87914 8.41033 9.62512 8.69966 9.62512 8.69966L9.31205 7.30397L10.42 7Z" fill="white"/>
<path d="M18.2779 8.6924C19.2337 9.31959 20.1354 10.5274 19.9831 12.6073C19.9118 13.6559 18.558 16.1793 15.5677 15.704C15.0075 15.6207 14.2679 15.3096 14.2679 15.3096L14.5431 16.7232L13.4251 17L12.6044 13.5481L16.1918 12.8769L16.3957 13.9034L14.693 14.261C14.693 14.261 16.1893 15.2263 17.8012 14.0356C18.6317 13.3301 18.6735 12.9871 18.8233 12.1713C18.9462 11.4583 18.7447 9.78261 16.8061 9.23383C15.5554 8.99127 14.6168 9.20443 13.3539 10.7871L12 10.6597C12 10.6597 13.3219 8.88836 14.2286 8.44738C14.9485 8.10931 16.3638 7.52868 18.2779 8.6924Z" fill="white"/>
<defs>
<linearGradient id="paint0_linear" x1="27" y1="3.5" x2="3.5" y2="24" gradientUnits="userSpaceOnUse">
<stop stop-color="#F50072"/>
<stop offset="1" stop-color="#B90D5A"/>
</linearGradient>
</defs>
</svg>
