<svg width="24" height="24" viewBox="0 0 24 24" fill="none" xmlns="http://www.w3.org/2000/svg">
<path d="M12 24C18.6274 24 24 18.6274 24 12C24 5.37258 18.6274 0 12 0C5.37258 0 0 5.37258 0 12C0 18.6274 5.37258 24 12 24Z" fill="#204498"/>
<path d="M23.5 12C23.5 18.3513 18.3513 23.5 12 23.5C5.64873 23.5 0.5 18.3513 0.5 12C0.5 5.64873 5.64873 0.5 12 0.5C18.3513 0.5 23.5 5.64873 23.5 12Z" stroke="white" stroke-opacity="0.3"/>
<path d="M5 11.8381C5.00221 11.8344 5.00589 11.8307 5.00662 11.8263C5.03753 11.7005 5.12804 11.6225 5.25755 11.61C5.3304 11.6034 5.40104 11.6129 5.47095 11.638C5.71157 11.7233 5.95587 11.7932 6.21121 11.8197C6.3834 11.8381 6.55412 11.8352 6.71969 11.7792C6.89629 11.7189 7.01697 11.5997 7.08982 11.4297C7.10012 11.4054 7.09129 11.3944 7.07511 11.3804C6.89335 11.2273 6.71159 11.0743 6.53057 10.9205C6.35691 10.7733 6.18987 10.6188 6.03314 10.4518C5.76308 10.164 5.64314 9.82113 5.63725 9.4326C5.63578 9.34062 5.62327 9.24937 5.62768 9.15739C5.63946 8.91088 5.70642 8.67762 5.79325 8.44877C5.92276 8.10659 6.09421 7.78871 6.3444 7.51865C6.67039 7.16765 7.06701 6.9307 7.53133 6.8137C7.77858 6.75115 8.03171 6.7541 8.28411 6.78794C8.7477 6.85049 9.17302 7.01164 9.55272 7.28685C9.79629 7.46346 9.99865 7.67759 10.1318 7.95059C10.3497 8.39799 10.3254 8.83877 10.0862 9.27071C9.93831 9.53783 9.73301 9.75785 9.50489 9.958C9.25765 10.1751 8.98759 10.362 8.70649 10.5327C8.67411 10.5526 8.66602 10.571 8.67117 10.6078C8.72636 10.997 8.71385 11.3819 8.59611 11.7601C8.57551 11.8271 8.54681 11.8911 8.50928 11.95C8.47985 11.9956 8.45483 12.0427 8.43128 12.0912C8.18404 12.5909 7.78594 12.8963 7.24288 13.0147C6.80652 13.1097 6.37825 13.092 5.96323 12.9183C5.5438 12.7432 5.24062 12.4444 5.04268 12.036C5.02208 11.9941 5.01325 11.9485 5 11.9043C5 11.8823 5 11.8602 5 11.8381ZM6.14131 8.4208C6.1597 8.41124 6.16927 8.40609 6.17884 8.40094C6.37089 8.29497 6.57693 8.2442 6.79622 8.25082C7.1038 8.26039 7.37607 8.37224 7.62258 8.55178C7.9 8.75414 8.10089 9.01979 8.25909 9.32075C8.40479 9.59817 8.51149 9.89104 8.59096 10.1942C8.59538 10.2111 8.59096 10.2406 8.62702 10.217C8.88972 10.0485 9.14359 9.87043 9.37244 9.65777C9.55861 9.48485 9.72565 9.29647 9.84118 9.06835C10.0281 8.70043 10.0112 8.33912 9.79776 7.98739C9.69474 7.8174 9.55714 7.67833 9.39893 7.55985C9.0678 7.31114 8.69398 7.1647 8.28632 7.10215C8.04938 7.0661 7.81096 7.058 7.57843 7.12276C7.06333 7.26699 6.65199 7.55912 6.35838 8.00946C6.27523 8.13676 6.20533 8.27142 6.14131 8.4208ZM6.71601 12.8234C6.97061 12.8212 7.19137 12.7837 7.40624 12.7094C7.54017 12.663 7.66526 12.599 7.77858 12.5136C7.79109 12.5041 7.8036 12.4967 7.80066 12.4761C7.78079 12.3436 7.75283 12.2134 7.69102 12.0927C7.5983 11.9102 7.46584 11.7579 7.32382 11.6129C7.29365 11.582 7.29365 11.5828 7.27379 11.6188C7.17739 11.7932 7.03684 11.9198 6.85141 11.9948C6.62329 12.0876 6.38561 12.0905 6.14646 12.0625C5.89112 12.0324 5.64534 11.9625 5.40325 11.8778C5.37529 11.8683 5.34732 11.8594 5.31789 11.8565C5.25166 11.8506 5.23842 11.8683 5.26711 11.9279C5.35468 12.1111 5.47021 12.2745 5.6218 12.4106C5.93968 12.6976 6.32086 12.8168 6.71601 12.8234Z" fill="white"/>
<path d="M8.72858 20.031C8.73373 20.031 8.73594 20.0281 8.7352 20.0229C8.81246 20.0229 8.88973 20.0229 8.96626 20.0229C8.96479 20.0274 8.96626 20.0303 8.97141 20.031C8.89046 20.031 8.80952 20.031 8.72858 20.031Z" fill="white"/>
<path d="M8.96626 20.0224C8.889 20.0224 8.81174 20.0224 8.73521 20.0224C8.38126 19.9849 8.1009 19.8333 7.93239 19.5066C7.91988 19.483 7.91032 19.458 7.93533 19.4367C7.95815 19.4168 7.98022 19.4286 8.0023 19.4411C8.2672 19.5912 8.54756 19.603 8.83528 19.5272C9.16642 19.4396 9.42102 19.2387 9.63 18.9753C9.83825 18.7126 9.97733 18.4138 10.0899 18.1011C10.1981 17.8001 10.2798 17.4911 10.3762 17.1864C10.4659 16.9024 10.569 16.6235 10.7147 16.3623C10.8133 16.1849 10.9295 16.0201 11.0708 15.8737C11.076 15.8685 11.0826 15.8648 11.0826 15.8545C11.0576 15.8538 11.0355 15.8648 11.0134 15.8729C10.7279 15.9752 10.4976 16.1562 10.2996 16.3807C10.1179 16.586 9.97144 16.817 9.82353 17.0474C9.63883 17.3351 9.4718 17.6331 9.29593 17.9267C9.1701 18.1379 9.02955 18.338 8.85294 18.511C8.53505 18.8208 8.15094 18.9569 7.71237 18.9525C7.47101 18.9503 7.24069 18.901 7.02729 18.7832C6.92648 18.728 6.84112 18.6559 6.77637 18.561C6.62625 18.341 6.51882 18.1033 6.50557 17.8332C6.49453 17.6169 6.52765 17.4035 6.64244 17.2173C6.79035 16.9789 7.00669 16.8384 7.29514 16.8406C7.54901 16.8428 7.75431 17.026 7.79111 17.2696C7.81613 17.4351 7.72709 17.6162 7.58213 17.6956C7.52179 17.7288 7.4585 17.742 7.3908 17.7214C7.36431 17.7133 7.3415 17.6993 7.32237 17.6802C7.28116 17.639 7.26865 17.5897 7.2841 17.5352C7.29882 17.4808 7.34003 17.4535 7.39228 17.4425C7.4195 17.4366 7.4482 17.4344 7.47543 17.4285C7.51443 17.4212 7.53356 17.3947 7.53797 17.3571C7.54386 17.3078 7.52767 17.2652 7.49677 17.2276C7.42244 17.1371 7.29073 17.1077 7.17961 17.1577C7.04422 17.2188 6.95076 17.3697 6.97652 17.5249C7.03759 17.8877 7.26865 18.0717 7.61745 18.0268C7.74916 18.0098 7.85145 17.9458 7.93313 17.8443C8.00745 17.7508 8.06264 17.6449 8.1112 17.5367C8.25985 17.207 8.42321 16.8847 8.62704 16.5845C8.86766 16.2306 9.15096 15.9186 9.51227 15.6823C9.80661 15.4903 10.1296 15.3645 10.4667 15.2717C10.7882 15.1827 11.1164 15.1268 11.4454 15.0731C11.8427 15.0076 12.2408 14.9435 12.6286 14.831C13.2909 14.6389 13.7986 14.2371 14.1938 13.6823C14.2203 13.6448 14.2195 13.644 14.1776 13.6271C13.703 13.4387 13.3387 13.1282 13.1157 12.6631C13.0193 12.463 12.9619 12.2511 12.9288 12.0318C12.9171 11.953 12.9347 11.8846 13.0017 11.8368C13.0679 11.7889 13.1371 11.7919 13.2099 11.8265C13.6838 12.0509 14.1835 12.1319 14.7044 12.0892C15.3682 12.0347 15.9422 11.7735 16.4411 11.3393C16.7001 11.1142 16.8649 10.8338 16.9201 10.4938C16.9863 10.0832 16.876 9.71899 16.6213 9.39374C16.4065 9.12001 16.1232 8.97578 15.7839 8.92574C15.3689 8.8654 14.9583 8.89925 14.5492 8.98093C14.3049 9.0295 14.0716 9.11633 13.8354 9.19286C13.2217 9.39154 12.6293 9.34371 12.0775 8.99712C11.6426 8.72412 11.3666 8.33191 11.271 7.82343C11.2003 7.45036 11.2584 7.09126 11.41 6.74614C11.6816 6.12876 12.1268 5.68136 12.7368 5.39512C13.1179 5.21631 13.5175 5.10004 13.9325 5.03529C14.2946 4.97863 14.6581 4.95729 15.0245 4.97568C16.001 5.02646 16.9127 5.28695 17.7347 5.83001C18.592 6.39588 19.1416 7.18545 19.4213 8.16855C19.5684 8.68512 19.628 9.21346 19.6096 9.7499C19.5935 10.2363 19.5184 10.7131 19.3492 11.1716C19.28 11.3599 19.188 11.5358 19.0791 11.7043C18.9959 11.8338 18.9202 11.9692 18.8267 12.0921C18.5427 12.4637 18.1924 12.7625 17.8031 13.0171C17.4639 13.2393 17.1041 13.4233 16.7295 13.5763C16.5934 13.6323 16.4492 13.6654 16.3064 13.6985C16.2829 13.7044 16.2689 13.7154 16.2571 13.736C15.9944 14.1944 15.8406 14.6875 15.7869 15.2129C15.7545 15.5286 15.7295 15.8457 15.7243 16.1629C15.7126 16.8759 15.5117 17.5367 15.1908 18.1651C15.0282 18.4845 14.8082 18.7604 14.5131 18.9709C14.3461 19.0901 14.1658 19.1828 13.9612 19.2189C13.7331 19.2593 13.5219 19.2218 13.3402 19.0687C13.2835 19.0209 13.2386 18.9628 13.207 18.8951C13.1886 18.8561 13.2092 18.8244 13.2519 18.8274C13.5646 18.8487 13.8163 18.7207 14.0326 18.5088C14.2379 18.3071 14.3512 18.0562 14.4123 17.7795C14.4749 17.4984 14.4785 17.2129 14.4609 16.9274C14.441 16.6036 14.3954 16.2813 14.3799 15.9568C14.363 15.5955 14.3851 15.2394 14.5161 14.8965C14.583 14.7206 14.675 14.5602 14.8016 14.4204C14.8067 14.4152 14.8104 14.4093 14.8185 14.399C14.7633 14.4056 14.717 14.4211 14.6713 14.4402C14.4933 14.5145 14.3571 14.6418 14.2409 14.792C14.0827 14.9965 13.9826 15.2298 13.8987 15.4719C13.7949 15.7729 13.7309 16.0834 13.6779 16.3961C13.6132 16.7817 13.5661 17.1695 13.4866 17.5521C13.4071 17.9377 13.296 18.3123 13.1047 18.6596C12.9296 18.9775 12.7066 19.2549 12.3975 19.4529C12.0142 19.6979 11.5999 19.781 11.1532 19.664C11.0377 19.6339 10.9303 19.5824 10.8302 19.5176C10.8096 19.5044 10.7963 19.4882 10.8037 19.4632C10.8103 19.4396 10.8287 19.4308 10.8515 19.4308C11.1731 19.4249 11.4446 19.2946 11.6838 19.0893C11.9582 18.8546 12.1393 18.5573 12.2651 18.2225C12.3733 17.9348 12.4388 17.636 12.4932 17.3343C12.5572 16.9811 12.6109 16.6264 12.7132 16.2813C12.7927 16.0135 12.8847 15.75 13.0179 15.5028C13.0436 15.4542 13.0731 15.4079 13.1025 15.3571C13.0812 15.3549 13.0635 15.3622 13.0458 15.3667C12.7493 15.441 12.4998 15.5985 12.2798 15.806C12.0281 16.0436 11.8471 16.3299 11.6985 16.6397C11.5498 16.9495 11.438 17.2733 11.3239 17.597C11.2091 17.9215 11.0914 18.2446 10.9354 18.5522C10.6793 19.057 10.3166 19.4617 9.82059 19.7406C9.58512 19.873 9.33714 19.9724 9.06855 20.0136C9.0347 20.0173 9.00085 20.0239 8.96626 20.0224ZM13.3777 12.2996C13.377 12.307 13.3755 12.3092 13.3762 12.3114C13.3784 12.3195 13.3806 12.3276 13.3836 12.3357C13.5057 12.686 13.7243 12.959 14.0437 13.1488C14.3615 13.3379 14.7118 13.4167 15.0768 13.4417C15.3814 13.4623 15.6839 13.438 15.9841 13.3843C16.1916 13.3467 16.3999 13.3055 16.5949 13.2268C17.004 13.062 17.3918 12.8559 17.7524 12.5999C18.0938 12.357 18.397 12.0759 18.6295 11.7242C18.8539 11.385 18.9871 11.0148 18.9952 10.6042C19.0026 10.2208 18.901 9.86543 18.7112 9.53429C18.2505 8.73 17.313 8.19578 16.3631 8.1921C15.8855 8.19062 15.4359 8.301 15.012 8.51734C15.0032 8.52176 14.9907 8.52249 14.987 8.53721C15.0076 8.53574 15.0275 8.535 15.0466 8.53353C15.3152 8.51146 15.5831 8.51587 15.8494 8.55781C16.2306 8.61742 16.5595 8.77195 16.8266 9.05893C17.4315 9.70722 17.4779 10.6808 16.9289 11.3673C16.7626 11.5755 16.5581 11.7396 16.3388 11.889C15.5669 12.4137 14.7199 12.5748 13.806 12.4122C13.661 12.3872 13.5197 12.3475 13.3777 12.2996Z" fill="white"/>
<path d="M9.50787 12.881C9.50861 12.8309 9.5248 12.7846 9.53657 12.7375C9.6315 12.3762 9.75365 12.0259 9.93025 11.6955C10.2305 11.1318 10.6771 10.7198 11.2386 10.4254C11.6345 10.2186 12.0532 10.0715 12.4815 9.94859C12.5263 9.93608 12.5712 9.92283 12.6161 9.91106C12.6551 9.90076 12.6838 9.91474 12.6926 9.94638C12.7022 9.98023 12.6853 10.0082 12.6441 10.0192C12.5094 10.0568 12.3762 10.0987 12.2423 10.137C12.037 10.1966 11.8523 10.2944 11.6823 10.4217C11.5329 10.5329 11.385 10.6462 11.2533 10.7786C11.1113 10.9214 10.9958 11.0825 10.9134 11.2672C10.7846 11.5557 10.6602 11.8464 10.516 12.1274C10.3975 12.3578 10.268 12.5807 10.0936 12.775C10.0112 12.8662 9.91922 12.9472 9.81546 13.0134C9.77867 13.037 9.7382 13.0509 9.69552 13.0576C9.59397 13.0738 9.52627 13.023 9.51155 12.9214C9.50935 12.9082 9.50935 12.8942 9.50787 12.881Z" fill="white"/>
<path d="M11.2084 12.051C11.1709 12.0488 11.1231 12.0613 11.076 12.0525C11.0223 12.0422 11.0068 12.0187 11.0289 11.9657C11.0598 11.8921 11.0958 11.8215 11.1304 11.7501C11.2695 11.466 11.4844 11.2512 11.7427 11.0746C12.0201 10.8847 12.3269 10.7626 12.647 10.6706C12.7868 10.6301 12.9259 10.5874 13.0657 10.5447C13.1158 10.5293 13.1614 10.5367 13.1989 10.5727C13.2357 10.608 13.2453 10.6537 13.2291 10.7015C13.2151 10.7442 13.1967 10.7861 13.1768 10.8266C13.0834 11.0194 12.9767 11.2055 12.8729 11.3932C12.7729 11.5742 12.6227 11.7044 12.4329 11.7891C12.179 11.9024 11.9126 11.9679 11.6389 12.0084C11.4991 12.0282 11.3593 12.0415 11.2084 12.051Z" fill="white"/>
<path d="M8.44456 14.5361C8.60498 14.4912 8.7573 14.5103 8.91036 14.5214C9.1841 14.542 9.41589 14.4529 9.60206 14.2491C9.64253 14.2042 9.70434 14.2005 9.74629 14.2381C9.78897 14.2763 9.79191 14.3367 9.74997 14.3823C9.54099 14.6119 9.28196 14.7259 8.9707 14.723C8.864 14.7215 8.75804 14.7039 8.65134 14.7061C8.56672 14.7083 8.48504 14.72 8.41439 14.7723C8.39085 14.7899 8.36656 14.801 8.3386 14.8069C8.27753 14.8194 8.22454 14.7848 8.2216 14.723C8.21645 14.6185 8.17598 14.528 8.12079 14.4426C8.04941 14.3315 7.97288 14.2233 7.90003 14.113C7.85147 14.0401 7.80805 13.9651 7.7926 13.8775C7.77935 13.8039 7.7845 13.7311 7.80584 13.6597C7.82203 13.6052 7.86913 13.5795 7.92726 13.592C8.31432 13.6781 8.70653 13.7127 9.10242 13.6994C9.17821 13.6965 9.254 13.6928 9.32906 13.6795C9.36659 13.6729 9.39749 13.6854 9.41957 13.7149C9.44312 13.7458 9.44606 13.7811 9.42766 13.8149C9.36659 13.9283 9.29006 14.0291 9.18336 14.1049C9.06857 14.1858 8.94421 14.2476 8.80881 14.2881C8.69402 14.3227 8.58658 14.3727 8.50196 14.461C8.48209 14.4809 8.46443 14.5022 8.44456 14.5361Z" fill="white"/>
</svg>
