<svg xmlns="http://www.w3.org/2000/svg" xmlns:xlink="http://www.w3.org/1999/xlink" width="350" height="350" viewBox="0 0 350 350"><defs><linearGradient id="a" x1="112.54" y1="217.35" x2="224.11" y2="217.35" gradientUnits="userSpaceOnUse"><stop offset="0" stop-color="#f25774"/><stop offset="1" stop-color="#f2884b"/></linearGradient><linearGradient id="b" x1="84.6" y1="157.38" x2="196.16" y2="157.38" xlink:href="#a"/><linearGradient id="c" x1="203.29" y1="191.87" x2="280.49" y2="191.87" xlink:href="#a"/><linearGradient id="d" x1="5.34" y1="187.5" x2="355.34" y2="187.5" xlink:href="#a"/></defs><circle cx="172.78" cy="176.57" r="157.85" fill="#fff"/><rect x="112.54" y="161.56" width="111.57" height="111.57" rx="25.16" fill="url(#a)"/><path d="M140.45,167h55.71V124.16A22.59,22.59,0,0,0,173.6,101.6H107.16A22.59,22.59,0,0,0,84.6,124.16V190.6a22.59,22.59,0,0,0,22.56,22.57h3.61V196.63A29.71,29.71,0,0,1,140.45,167Z" transform="translate(-5.34 -12.5)" fill="url(#b)"/><path d="M254.37,132.53H203.29V167h3.6a29.72,29.72,0,0,1,29.69,29.68v54.59h17.79a26.2,26.2,0,0,0,26.12-26.13V158.65A26.19,26.19,0,0,0,254.37,132.53Z" transform="translate(-5.34 -12.5)" fill="url(#c)"/><path d="M180.34,12.5c-96.49,0-175,78.51-175,175s78.51,175,175,175,175-78.5,175-175S276.84,12.5,180.34,12.5Zm0,323.88c-82.09,0-148.88-66.78-148.88-148.88S98.25,38.62,180.34,38.62,329.22,105.41,329.22,187.5,262.44,336.38,180.34,336.38Z" transform="translate(-5.34 -12.5)" fill="url(#d)"/><path d="M2240,1512.5" transform="translate(-5.34 -12.5)" fill="#f2884b"/></svg>