<svg width="24" height="24" viewBox="0 0 24 24" fill="none" xmlns="http://www.w3.org/2000/svg">
<path fill-rule="evenodd" clip-rule="evenodd" d="M0 12C0 5.37259 5.37259 0 12 0C18.6274 0 24 5.37259 24 12C24 18.6274 18.6274 24 12 24C5.37259 24 0 18.6274 0 12Z" fill="#010101"/>
<path d="M23.5 12C23.5 18.3513 18.3513 23.5 12 23.5C5.64873 23.5 0.5 18.3513 0.5 12C0.5 5.64873 5.64873 0.5 12 0.5C18.3513 0.5 23.5 5.64873 23.5 12Z" stroke="white" stroke-opacity="0.3"/>
<path d="M17.1964 10.8014C17.1964 9.77896 17.1964 8.75649 17.1964 7.73596C17.1964 7.70509 17.2147 7.66072 17.1822 7.64721C17.1416 7.62792 17.1213 7.67615 17.0969 7.6993C16.295 8.4594 15.4951 9.21949 14.6931 9.98152C13.8242 10.8053 12.9573 11.629 12.0903 12.4567C12.0213 12.5222 11.9827 12.53 11.9076 12.4586C10.3017 10.9268 8.6917 9.39698 7.08172 7.86907C7.01066 7.80155 6.93757 7.73403 6.86448 7.6665C6.8523 7.65686 6.83606 7.64143 6.82388 7.64335C6.79951 7.64721 6.80357 7.67229 6.80357 7.69158C6.80154 7.73017 6.80357 7.76875 6.80357 7.80734C6.80357 9.82526 6.80357 11.8451 6.80357 13.863C6.80357 13.9981 6.80357 13.9981 6.66552 13.9981C5.94884 13.9981 5.23216 13.9961 4.51345 14C4.4363 14 4.40179 13.9769 4.37743 13.9074C4.22313 13.4405 4.11958 12.9717 4.06071 12.4914C4.01604 12.1268 3.98965 11.7622 4.00386 11.3956C4.04446 10.4021 4.25155 9.44328 4.67993 8.53078C4.98244 7.88643 5.36413 7.29224 5.83717 6.75014C6.38128 6.12702 7.01675 5.60228 7.73343 5.16822C8.29581 4.82675 8.89473 4.56438 9.52614 4.36761C10.0175 4.21327 10.523 4.11489 11.0366 4.05508C11.4711 4.00492 11.9056 3.99142 12.3421 4.00492C12.9593 4.02614 13.5643 4.11874 14.1571 4.27694C15.0159 4.50651 15.8179 4.85762 16.5488 5.34377C17.5862 6.03249 18.4125 6.89869 19.0236 7.95395C19.4744 8.7372 19.7687 9.56868 19.9109 10.4484C20.0083 11.0445 20.0225 11.6445 19.9697 12.2444C19.919 12.8136 19.8053 13.3749 19.6144 13.919C19.5962 13.973 19.5718 13.9904 19.515 13.9884C18.7739 13.9865 18.0329 13.9865 17.2918 13.9884C17.2025 13.9884 17.1944 13.9479 17.1944 13.8804C17.1964 13.2573 17.1944 12.6341 17.1944 12.0091C17.1964 11.6117 17.1964 11.2065 17.1964 10.8014Z" fill="#5BF4DF"/>
<path d="M18.6666 16.1922C17.5092 18.2067 15.0315 20.012 11.9642 19.9999C8.84135 19.9859 6.41332 18.0981 5.33331 16.1922C5.37302 16.1922 5.40875 16.1922 5.4425 16.1922C6.46494 16.1922 7.48737 16.1902 8.50782 16.1942C8.59915 16.1942 8.61503 16.168 8.61503 16.0815C8.61304 14.7673 8.61304 13.4531 8.61304 12.1389C8.61304 12.1006 8.60312 12.0604 8.62892 12.006C8.79172 12.1731 8.94657 12.3361 9.10341 12.4951C10.0385 13.443 10.9756 14.3909 11.9087 15.3409C11.9841 15.4193 12.0198 15.4053 12.0873 15.3368C13.1634 14.242 14.2414 13.1512 15.3194 12.0604C15.3353 12.0443 15.3512 12.0302 15.3829 12C15.3829 12.0584 15.3829 12.1006 15.3829 12.1409C15.3829 13.4551 15.3829 14.7693 15.381 16.0835C15.381 16.17 15.3968 16.1922 15.4882 16.1922C16.5463 16.1902 17.6005 16.1922 18.6666 16.1922Z" fill="white"/>
</svg>
