<svg width="24" height="24" viewBox="0 0 24 24" fill="none" xmlns="http://www.w3.org/2000/svg">
<path d="M12 24C18.6274 24 24 18.6274 24 12C24 5.37258 18.6274 0 12 0C5.37258 0 0 5.37258 0 12C0 18.6274 5.37258 24 12 24Z" fill="#4285F4"/>
<path d="M12 23C18.0751 23 23 18.0751 23 12C23 5.92487 18.0751 1 12 1C5.92487 1 1 5.92487 1 12C1 18.0751 5.92487 23 12 23Z" fill="url(#paint0_linear)"/>
<path d="M16.0127 1.79893C21.6638 4.02862 24.4375 10.4173 22.2078 16.0685L1.7431 7.99404C3.97282 2.34286 10.3615 -0.43078 16.0127 1.79893Z" fill="white"/>
<path fill-rule="evenodd" clip-rule="evenodd" d="M14.045 5.63732C13.956 4.8613 13.2772 4.61237 12.4247 4.55288L12.4057 3.47461L11.746 3.48616L11.7645 4.53603C11.5913 4.539 11.4142 4.54549 11.2382 4.55203L11.2197 3.49521L10.5606 3.50662L10.5793 4.58459C10.4366 4.58995 10.2964 4.59504 10.1597 4.59749L10.1596 4.59416L9.25 4.60959L9.26248 5.31059C9.26248 5.31059 9.74932 5.29291 9.7414 5.30198C10.0085 5.29745 10.0983 5.45021 10.1258 5.58301L10.1474 6.8114C10.1659 6.81118 10.19 6.81154 10.2172 6.81479L10.1477 6.81602L10.1777 8.53692C10.1674 8.62079 10.1203 8.75505 9.93373 8.75862C9.94229 8.76591 9.45433 8.76679 9.45433 8.76679L9.33715 9.55307L10.1955 9.53814C10.2924 9.53657 10.3884 9.53594 10.4834 9.53534L10.4843 9.53531C10.5455 9.53492 10.6062 9.53454 10.6665 9.53388L10.686 10.6246L11.3448 10.6133L11.3259 9.53423C11.5067 9.53487 11.6818 9.53324 11.8527 9.53014L11.8713 10.6042L12.5308 10.5927L12.5118 9.50407C13.6194 9.42157 14.3907 9.13007 14.4685 8.09246C14.5316 7.25674 14.1309 6.89121 13.4988 6.75154C13.8777 6.55079 14.1109 6.20517 14.045 5.63732ZM11.4554 8.73893C11.9954 8.73712 13.1765 8.73316 13.1632 7.98513C13.1493 7.22063 12.0161 7.26689 11.4631 7.28946C11.4014 7.29199 11.3467 7.29422 11.3018 7.29499L11.3271 8.73992C11.3638 8.73926 11.407 8.7391 11.4554 8.73893ZM12.8205 5.952C12.8323 6.63164 11.8496 6.63265 11.3987 6.63312C11.3577 6.63318 11.3211 6.6332 11.29 6.63375L11.267 5.32327C11.3047 5.32261 11.3504 5.3206 11.4023 5.31835C11.8637 5.29813 12.8084 5.25677 12.8205 5.952Z" fill="#460782"/>
<path d="M7.1205 14.3047C6.94497 14.2299 6.80235 14.0159 6.802 13.8269L6.79999 12.7998L9.97852 14.154L9.9865 18.0066C9.9865 18.8988 9.9865 18.9426 10.6235 19.2178L12.5307 20.0304L12.5333 21.3998L9.35479 20.0456C9.0037 19.896 8.71847 19.4682 8.71776 19.09L8.71509 17.7206L8.07937 17.4498C7.72828 17.3002 7.44308 16.8724 7.44233 16.4942L7.44101 15.8095L8.71242 16.3512L8.70978 14.9817L7.1205 14.3047Z" fill="white"/>
<path d="M12.528 18.6607L11.8928 18.3901C11.2557 18.0796 11.2557 18.1381 11.2557 17.4341L11.2499 12.8057L11.8852 13.0763C12.2364 13.226 12.5217 13.6541 12.5222 14.0324L12.528 18.6607Z" fill="white"/>
<path d="M15.1323 10.6499V10.0485L16.3806 8.81038C16.5288 8.66551 16.6383 8.53412 16.7091 8.4162C16.7832 8.29492 16.8202 8.16353 16.8202 8.02201C16.8202 7.88724 16.7798 7.78111 16.6989 7.70362C16.6181 7.62615 16.4749 7.5874 16.2694 7.5874H15.2182V7.00116C15.3799 6.97085 15.5585 6.9439 15.7539 6.92031C15.9527 6.89336 16.1734 6.87988 16.4159 6.87988C16.7091 6.87988 16.9382 6.92031 17.1032 7.00116C17.2717 7.08204 17.3913 7.19825 17.4621 7.34988C17.5328 7.50149 17.5682 7.68511 17.5682 7.90071C17.5682 8.15341 17.5176 8.3741 17.4166 8.56275C17.3155 8.75142 17.1656 8.94345 16.9668 9.13887L16.1279 9.97272H17.6844V10.6499H15.1323ZM18.0581 10.6499L18.9778 9.25511L18.0581 7.9361H18.8111L19.4125 8.79523L19.9482 7.9361H20.7062L19.7864 9.33596L20.7062 10.6499H19.9482L19.3518 9.79585L18.8161 10.6499H18.0581Z" fill="#460782"/>
<path d="M23.5 12C23.5 18.3513 18.3513 23.5 12 23.5C5.64873 23.5 0.5 18.3513 0.5 12C0.5 5.64873 5.64873 0.5 12 0.5C18.3513 0.5 23.5 5.64873 23.5 12Z" stroke="#A27EC2"/>
<defs>
<linearGradient id="paint0_linear" x1="12" y1="7.04885" x2="12" y2="23" gradientUnits="userSpaceOnUse">
<stop stop-color="#3A056C"/>
<stop offset="1" stop-color="#4D078D"/>
</linearGradient>
</defs>
</svg>
