<svg width="24" height="24" viewBox="0 0 24 24" fill="none" xmlns="http://www.w3.org/2000/svg">
<path d="M12 24C18.6274 24 24 18.6274 24 12C24 5.37258 18.6274 0 12 0C5.37258 0 0 5.37258 0 12C0 18.6274 5.37258 24 12 24Z" fill="black"/>
<path d="M23.5 12C23.5 18.3513 18.3513 23.5 12 23.5C5.64873 23.5 0.5 18.3513 0.5 12C0.5 5.64873 5.64873 0.5 12 0.5C18.3513 0.5 23.5 5.64873 23.5 12Z" stroke="white" stroke-opacity="0.307"/>
<path d="M20.1903 7.06738H17.9864V17.0002H20.1903V7.06738Z" fill="#1CFFFF"/>
<path d="M6.20393 7.06738H4V17.0002H6.20393V7.06738Z" fill="#1CFFFF"/>
<path d="M11.2236 11.9529C11.2236 12.064 11.2464 12.1764 11.29 12.28C11.3335 12.3836 11.3982 12.4784 11.4789 12.5572C11.5595 12.6362 11.6562 12.6996 11.7616 12.7423C11.867 12.7851 11.9811 12.8074 12.0953 12.8074C12.2094 12.8074 12.3235 12.7851 12.4289 12.7423C12.5343 12.6996 12.631 12.636 12.7117 12.5572C12.7923 12.4781 12.857 12.3833 12.9005 12.28C12.9441 12.1764 12.9669 12.064 12.9669 11.9529V7.85474C12.9669 7.74369 12.9441 7.63127 12.9005 7.52767C12.857 7.42406 12.7923 7.32928 12.7117 7.25047C12.631 7.17139 12.5343 7.10801 12.4289 7.0653C12.3238 7.02232 12.2097 7 12.0955 7C11.9814 7 11.8673 7.02232 11.7619 7.06503C11.6565 7.10774 11.5598 7.17139 11.4792 7.25019C11.3985 7.329 11.3338 7.42406 11.2903 7.52739C11.2467 7.63072 11.2239 7.74342 11.2239 7.85446V11.9529H11.2236Z" fill="#1CFFFF"/>
<path d="M10.5842 7.14355V9.51074C10.3161 9.67029 10.0726 9.87419 9.86914 10.1106C9.66565 10.3467 9.50205 10.6154 9.38653 10.9028C9.27073 11.1899 9.20299 11.4961 9.18668 11.8044C9.17037 12.1127 9.20551 12.4241 9.29039 12.7214C9.37529 13.019 9.50991 13.3028 9.687 13.5582C9.86407 13.8136 10.0842 14.0407 10.3352 14.2272C10.5862 14.4141 10.8684 14.5604 11.1672 14.6587C11.4659 14.7571 11.781 14.8078 12.0961 14.8078C12.4112 14.8078 12.7263 14.7571 13.0251 14.6587C13.3239 14.5604 13.6061 14.4138 13.8571 14.2272C14.1081 14.0404 14.3279 13.8136 14.5052 13.5582C14.6823 13.3028 14.817 13.019 14.9018 12.7214C14.9867 12.4238 15.0219 12.1127 15.0056 11.8044C14.9893 11.4958 14.9212 11.1899 14.8057 10.9028C14.6899 10.6157 14.5266 10.347 14.3231 10.1106C14.1196 9.87447 13.8762 9.67029 13.608 9.51074V7.14355C14.1859 7.31825 14.7371 7.59655 15.2203 7.95944C15.7035 8.32233 16.1189 8.76981 16.4421 9.27406C16.7654 9.77857 16.9967 10.3401 17.1212 10.9235C17.2455 11.5068 17.2629 12.1122 17.1724 12.7013C17.0819 13.2907 16.8834 13.8638 16.5894 14.3854C16.2954 14.907 15.9059 15.3768 15.4452 15.7656C14.9845 16.1544 14.4524 16.4619 13.8826 16.6694C13.3126 16.8766 12.7049 16.9838 12.097 16.9838C11.489 16.9838 10.881 16.8769 10.3113 16.6694C9.74124 16.4622 9.20944 16.1544 8.74876 15.7656C8.28808 15.3768 7.8985 14.907 7.6045 14.3854C7.31049 13.8638 7.11204 13.2904 7.02154 12.7013C6.93104 12.1119 6.94845 11.5068 7.07271 10.9235C7.19694 10.3401 7.42827 9.77857 7.75179 9.27406C8.07502 8.76954 8.49046 8.32233 8.97361 7.95944C9.4551 7.59655 10.0063 7.31825 10.5842 7.14355Z" fill="#1CFFFF"/>
</svg>
