<svg width="24" height="24" viewBox="0 0 24 24" fill="none" xmlns="http://www.w3.org/2000/svg">
<path d="M12 24C18.6274 24 24 18.6274 24 12C24 5.37258 18.6274 0 12 0C5.37258 0 0 5.37258 0 12C0 18.6274 5.37258 24 12 24Z" fill="#49BC74"/>
<path d="M23.5 12C23.5 18.3513 18.3513 23.5 12 23.5C5.64873 23.5 0.5 18.3513 0.5 12C0.5 5.64873 5.64873 0.5 12 0.5C18.3513 0.5 23.5 5.64873 23.5 12Z" stroke="white" stroke-opacity="0.3"/>
<path d="M15.8217 19H8.48896C8.48434 19 8.47972 19 8.4751 19L10.4744 15.4994H13.8402C14.0234 15.4994 14.1927 15.4 14.2844 15.2381C14.5248 14.8129 15.0159 13.9459 15.4288 13.216C15.6464 12.8317 15.8423 12.4853 15.9693 12.2614C16.0148 12.1807 16.0379 12.0903 16.0379 12.0002C16.0379 11.9097 16.0148 11.8193 15.9693 11.7386C15.8423 11.5147 15.6464 11.1683 15.4288 10.784C15.0159 10.0541 14.5248 9.18711 14.2844 8.76223C14.1927 8.60039 14.0234 8.50063 13.8402 8.50063H10.4744L8.4751 5.00036C8.47972 5 8.48434 5 8.48896 5H15.8217C16.0048 5 16.1741 5.09976 16.2659 5.2616L19.9323 11.7386C19.9778 11.8193 20.0009 11.9097 20.0009 12.0002C20.0009 12.0903 19.9778 12.1807 19.9323 12.2614L16.2659 18.7388C16.1741 18.9002 16.0048 19 15.8217 19Z" fill="white"/>
<path d="M7.82279 11.9995C7.8235 11.9083 7.80074 11.8168 7.75415 11.7347C7.3868 11.0858 6.43589 9.40567 6.06854 8.75686C5.97715 8.59501 5.97715 8.39585 6.06854 8.23437L7.76482 5.23757C7.8171 5.15898 7.87898 5.10659 7.93907 5.07178L11.6997 11.7347C11.7463 11.8171 11.769 11.909 11.7683 12.0013C11.769 12.0931 11.7463 12.185 11.6997 12.2675L7.93907 18.9304C7.87898 18.8956 7.8171 18.8432 7.76482 18.7646L6.06854 15.7678C5.97715 15.6063 5.97715 15.4072 6.06854 15.2456C6.43589 14.5965 7.3868 12.9164 7.75415 12.2675C7.80074 12.1857 7.8235 12.0942 7.82279 12.0027V12.0013V11.9995Z" fill="white"/>
</svg>
