<svg width="24" height="24" viewBox="0 0 24 24" fill="none" xmlns="http://www.w3.org/2000/svg">
<path d="M12 24C18.6274 24 24 18.6274 24 12C24 5.37258 18.6274 0 12 0C5.37258 0 0 5.37258 0 12C0 18.6274 5.37258 24 12 24Z" fill="#FE2C51"/>
<path d="M23.5 12C23.5 18.3513 18.3513 23.5 12 23.5C5.64873 23.5 0.5 18.3513 0.5 12C0.5 5.64873 5.64873 0.5 12 0.5C18.3513 0.5 23.5 5.64873 23.5 12Z" stroke="black" stroke-opacity="0.097"/>
<path d="M14.1133 14.6133V17.3219C14.1133 18.3433 13.2855 19.17 12.2652 19.17H6.84812C5.82779 19.17 5 18.3422 5 17.3219V11.9048C5 10.8833 5.82779 10.0566 6.84812 10.0566H9.55667V14.6133H14.1133Z" fill="white"/>
<path d="M18.67 7.34812V12.7641C18.67 13.7855 17.8422 14.6122 16.8219 14.6122H14.1133V10.0567H9.55664V7.34812C9.55664 6.32779 10.3844 5.5 11.4058 5.5H16.8219C17.8422 5.5 18.67 6.32779 18.67 7.34812Z" fill="white"/>
</svg>
