<svg width="24" height="24" viewBox="0 0 24 24" fill="none" xmlns="http://www.w3.org/2000/svg">
<path d="M12 24C18.6274 24 24 18.6274 24 12C24 5.37258 18.6274 0 12 0C5.37258 0 0 5.37258 0 12C0 18.6274 5.37258 24 12 24Z" fill="#FF3E89"/>
<g clip-path="url(#clip0)">
<path d="M2 12.0214C2 6.53336 6.46632 2.07568 11.9507 2.07568C17.4352 2.07568 21.9124 6.53336 21.9124 12.0648C21.9234 17.5312 17.457 21.9889 11.9398 22.0106C11.9288 22.0106 11.9288 22.0106 11.9179 22.0106C6.43348 21.9998 2 17.542 2 12.0214ZM3.46688 12.0214C3.44499 16.6527 7.24356 20.4922 11.8741 20.5138C16.5813 20.5247 20.4127 16.7612 20.4346 12.0974C20.4565 7.41192 16.6688 3.58328 11.9945 3.57243C7.3202 3.56158 3.48878 7.32512 3.46688 12.0214Z" fill="white"/>
<path d="M9.53147 10.2427C9.53147 10.1885 9.56431 10.1451 9.61903 10.1451C9.99123 10.0909 10.3743 10.0475 10.7685 10.0258C11.1954 9.9933 11.6004 9.98242 11.9945 9.98242C12.3995 9.98242 12.7936 10.015 13.1768 10.0909C13.5599 10.1668 13.9102 10.297 14.2167 10.4922C14.5232 10.6874 14.775 10.9586 14.9611 11.2948C15.1472 11.6419 15.2457 12.0865 15.2457 12.6289C15.2457 13.1278 15.1581 13.5399 14.9939 13.8761C14.8188 14.2124 14.5999 14.4835 14.3153 14.7005C14.0306 14.9065 13.7132 15.0584 13.3629 15.1451C13.0126 15.2319 12.6513 15.2861 12.2791 15.2861C12.1259 15.2861 12.0055 15.2861 11.896 15.2753C11.7865 15.2644 11.6989 15.3512 11.6989 15.4488V16.7612C11.6989 16.8154 11.6661 16.8479 11.6113 16.8588C11.4143 16.8913 11.2392 16.913 11.0859 16.9239C10.9107 16.9347 10.7465 16.9456 10.6043 16.9456C10.451 16.9456 10.2977 16.9347 10.1226 16.9239C9.96935 16.913 9.80511 16.8913 9.60807 16.8588C9.56431 16.8479 9.52051 16.8046 9.52051 16.7612V10.2427H9.53147ZM11.6989 13.5074C11.6989 13.5616 11.7318 13.605 11.7865 13.605C11.8084 13.605 11.8303 13.605 11.8631 13.6159C11.9288 13.6159 11.9835 13.6267 12.0273 13.6267C12.3339 13.6267 12.5856 13.5508 12.7827 13.3989C12.9797 13.2471 13.0783 12.9868 13.0783 12.6289C13.0783 12.3143 12.9797 12.0757 12.7827 11.9022C12.5856 11.7287 12.3448 11.6527 12.0492 11.6527C12.0164 11.6527 11.9617 11.6527 11.896 11.6527C11.8631 11.6527 11.8193 11.6527 11.7865 11.6527C11.7318 11.6527 11.688 11.7069 11.688 11.7503V13.5074H11.6989Z" fill="white"/>
<path d="M13.9649 7.40117C13.4395 6.99989 12.8483 6.85889 12.2134 6.85889C11.5785 6.85889 10.9874 6.99989 10.4619 7.40117C9.96928 7.78077 9.59712 8.46409 9.54236 9.13653C9.54236 9.17993 9.58616 9.20161 9.62996 9.17993C10.4291 8.55085 11.2391 8.39901 12.082 9.03893C12.1258 9.07145 12.1696 9.08229 12.2134 9.08229C12.2572 9.08229 12.3119 9.07145 12.3448 9.03893C13.1877 8.40985 13.9978 8.56169 14.7969 9.17993C14.8297 9.21245 14.8844 9.17993 14.8844 9.13653C14.8297 8.46409 14.4685 7.79161 13.9649 7.40117Z" fill="white"/>
</g>
<path d="M23.5 12C23.5 18.3513 18.3513 23.5 12 23.5C5.64873 23.5 0.5 18.3513 0.5 12C0.5 5.64873 5.64873 0.5 12 0.5C18.3513 0.5 23.5 5.64873 23.5 12Z" stroke="black" stroke-opacity="0.1"/>
<defs>
<clipPath id="clip0">
<rect width="20" height="20" fill="white" transform="translate(2 2)"/>
</clipPath>
</defs>
</svg>
