<svg width="24" height="24" viewBox="0 0 24 24" fill="none" xmlns="http://www.w3.org/2000/svg">
<path d="M12 24C18.6274 24 24 18.6274 24 12C24 5.37258 18.6274 0 12 0C5.37258 0 0 5.37258 0 12C0 18.6274 5.37258 24 12 24Z" fill="#2B28B7"/>
<path d="M23.5 12C23.5 18.3513 18.3513 23.5 12 23.5C5.64873 23.5 0.5 18.3513 0.5 12C0.5 5.64873 5.64873 0.5 12 0.5C18.3513 0.5 23.5 5.64873 23.5 12Z" stroke="white" stroke-opacity="0.3"/>
<path fill-rule="evenodd" clip-rule="evenodd" d="M12 5C12.4059 5 12.7459 5.28812 12.8223 5.66997C14.4703 5.82966 16.0108 6.46491 17.2945 7.50979C17.4143 7.40096 17.5631 7.32925 17.7229 7.30336C17.8826 7.27746 18.0464 7.2985 18.1944 7.36391C18.3424 7.42933 18.4683 7.53631 18.5568 7.67188C18.6452 7.80745 18.6925 7.96579 18.6927 8.1277C18.6927 8.34292 18.6095 8.53732 18.4776 8.68311C19.5239 9.94845 20.1669 11.4987 20.3234 13.1334C20.5145 13.1699 20.6867 13.2721 20.8103 13.4224C20.9339 13.5727 21.001 13.7615 21 13.9561C21 14.4143 20.6218 14.7892 20.1604 14.7892C20.0359 14.7899 19.9129 14.7626 19.8004 14.7095C19.6878 14.6563 19.5887 14.5786 19.5101 14.482C19.4316 14.3854 19.3756 14.2725 19.3465 14.1514C19.3173 14.0304 19.3156 13.9043 19.3415 13.7825L17.0378 12.6717C16.9621 12.7626 16.868 12.8363 16.7617 12.8879C16.6553 12.9396 16.5392 12.968 16.4211 12.9713C16.3029 12.9746 16.1854 12.9527 16.0764 12.907C15.9674 12.8613 15.8693 12.7929 15.7887 12.7064L12.8292 13.852C12.8548 14.0542 12.8054 14.2589 12.6903 14.4271C12.5752 14.5954 12.4024 14.7156 12.2047 14.7649V17.3129C12.3906 17.3581 12.556 17.4644 12.6743 17.6148C12.7926 17.7653 12.8569 17.9511 12.857 18.1426C12.857 18.37 12.7667 18.5881 12.606 18.7489C12.4453 18.9097 12.2273 19 12 19C11.7727 19 11.5547 18.9097 11.394 18.7489C11.2333 18.5881 11.143 18.37 11.143 18.1426C11.143 17.7399 11.4206 17.4066 11.7953 17.3129V14.7649C11.5972 14.7163 11.424 14.5962 11.3087 14.4278C11.1935 14.2594 11.1444 14.0544 11.1708 13.852L8.28411 12.7307C8.20964 12.8371 8.11132 12.9246 7.99702 12.9863C7.88272 13.0479 7.7556 13.0819 7.62582 13.0856C7.49603 13.0893 7.36718 13.0626 7.24955 13.0076C7.13192 12.9526 7.02877 12.8709 6.94834 12.7689L4.66191 13.8034C4.68439 13.924 4.67998 14.048 4.64899 14.1667C4.618 14.2854 4.56121 14.3957 4.48266 14.4899C4.40411 14.5841 4.30574 14.6598 4.19459 14.7115C4.08343 14.7632 3.96223 14.7898 3.83963 14.7892C3.7297 14.7902 3.62067 14.7693 3.51884 14.7278C3.41701 14.6864 3.3244 14.6251 3.24634 14.5477C3.16828 14.4702 3.10632 14.3781 3.06404 14.2765C3.02176 14.175 3 14.0661 3 13.9561C2.99979 13.7621 3.06726 13.5741 3.19078 13.4245C3.31429 13.275 3.48609 13.1732 3.67656 13.1369C3.83616 11.4949 4.47456 9.96752 5.52236 8.69006C5.38383 8.5383 5.30709 8.34016 5.30725 8.13464C5.30686 7.97244 5.35361 7.81363 5.4418 7.67753C5.53 7.54144 5.65583 7.43393 5.80398 7.36808C5.95214 7.30224 6.11623 7.28091 6.27628 7.30669C6.43634 7.33247 6.58545 7.40424 6.70547 7.51327C7.98182 6.46916 9.53985 5.82871 11.1812 5.67344C11.2194 5.48469 11.3212 5.3148 11.4696 5.1922C11.618 5.0696 11.8041 5.00175 11.9965 5H12ZM11.5698 5.83313C11.5698 5.94775 11.6153 6.05768 11.6963 6.13873C11.7773 6.21978 11.8872 6.26531 12.0017 6.26531C12.1163 6.26531 12.2262 6.21978 12.3072 6.13873C12.3882 6.05768 12.4337 5.94775 12.4337 5.83313C12.4337 5.71804 12.388 5.60767 12.3067 5.5263C12.2253 5.44492 12.115 5.39921 12 5.39921C11.885 5.39921 11.7747 5.44492 11.6933 5.5263C11.612 5.60767 11.5663 5.71804 11.5663 5.83313H11.5698ZM14.623 9.242L17.0308 8.28738C16.9961 8.07563 17.0343 7.93677 17.0655 7.84652C15.8518 6.84513 14.3672 6.22872 12.8015 6.07612C12.7911 6.11084 12.7459 6.24969 12.628 6.3816L14.6264 9.242H14.623ZM9.42559 9.22812L11.372 6.38854C11.3026 6.31217 11.2436 6.20803 11.1985 6.07612C9.63164 6.22825 8.14575 6.84468 6.93099 7.84652C6.96569 7.93677 6.99344 8.09298 6.9761 8.24225L9.42559 9.22812ZM12.2012 9.6551C12.4163 9.70022 12.6002 9.82519 12.7217 9.99529L14.2379 9.39474L12.2949 6.61418L12.2047 6.64195V9.6551H12.2012ZM11.3338 9.99182C11.4414 9.83908 11.6079 9.72105 11.7953 9.66898V6.64195C11.7671 6.63395 11.7393 6.62469 11.712 6.61418L9.81071 9.38433L11.3304 9.99182H11.3338ZM17.8566 8.55815C18.0925 8.55815 18.2868 8.36375 18.2868 8.1277C18.2868 8.01307 18.2413 7.90315 18.1603 7.8221C18.0793 7.74105 17.9694 7.69551 17.8548 7.69551C17.7403 7.69551 17.6304 7.74105 17.5494 7.8221C17.4684 7.90315 17.4229 8.01307 17.4229 8.1277C17.4229 8.36375 17.6172 8.55815 17.8531 8.55815H17.8566ZM6.14688 8.55815C6.3828 8.55815 6.5771 8.36375 6.5771 8.1277C6.5771 8.01353 6.53177 7.90405 6.45109 7.82332C6.37041 7.7426 6.26098 7.69725 6.14688 7.69725C6.03277 7.69725 5.92334 7.7426 5.84266 7.82332C5.76198 7.90405 5.71665 8.01353 5.71665 8.1277C5.71665 8.36375 5.90748 8.55815 6.14688 8.55815ZM6.14688 8.96082C6.05667 8.96082 5.96299 8.94694 5.86237 8.91222C4.85623 10.1163 4.23599 11.5958 4.0825 13.1577C4.14842 13.1785 4.33924 13.2445 4.49537 13.4354L6.77833 12.4009C6.75228 12.256 6.7649 12.1068 6.81492 11.9684C6.86495 11.8299 6.9506 11.7071 7.06323 11.6124C7.17587 11.5177 7.31149 11.4544 7.45641 11.4289C7.60132 11.4034 7.7504 11.4166 7.88859 11.4671L9.18967 9.57525L6.82344 8.6241C6.70547 8.79073 6.45566 8.96429 6.15035 8.96429L6.14688 8.96082ZM16.1045 11.3561C16.2443 11.3016 16.3962 11.2859 16.5442 11.3106C16.6922 11.3354 16.8308 11.3998 16.9453 11.4969C17.0597 11.594 17.1458 11.7202 17.1945 11.8622C17.2431 12.0043 17.2525 12.1568 17.2217 12.3037L19.5185 13.4146C19.6642 13.241 19.8516 13.1716 19.9175 13.1542C19.7633 11.5935 19.1431 10.1154 18.1376 8.91222C18.0474 8.94694 17.579 9.08926 17.2043 8.65534L14.8658 9.5822L16.1045 11.3561ZM8.2286 11.6928L8.28064 11.7622L11.1777 10.6097C11.1604 10.5056 11.1742 10.4084 11.1777 10.3667L9.57825 9.72452L8.22513 11.6928H8.2286ZM15.6638 11.7344C15.6951 11.6789 15.7298 11.6303 15.7679 11.5886L14.4772 9.73841L12.8743 10.3737C12.8813 10.4084 12.8917 10.5195 12.8743 10.6132L15.6638 11.7344ZM12.0278 10.936C12.2776 10.936 12.4788 10.7277 12.4788 10.4882C12.4788 10.3685 12.4313 10.2538 12.3467 10.1691C12.2621 10.0845 12.1474 10.0369 12.0278 10.0369C11.9081 10.0369 11.7934 10.0845 11.7088 10.1691C11.6242 10.2538 11.5767 10.3685 11.5767 10.4882C11.5767 10.7416 11.7849 10.9395 12.0278 10.9395V10.936ZM11.3165 13.4701C11.49 13.2271 11.7155 13.1646 11.7953 13.1438V11.3075C11.6083 11.2556 11.4443 11.1418 11.3304 10.9846L8.4333 12.1336C8.44718 12.2378 8.43677 12.3176 8.4333 12.3523L11.3165 13.4701ZM12.2047 13.1438C12.2845 13.1646 12.5031 13.2237 12.6835 13.4701L15.5875 12.3454C15.5563 12.2447 15.5597 12.1267 15.5597 12.1267L12.7182 10.9881C12.5968 11.1547 12.4129 11.2762 12.2047 11.3213V13.1438ZM16.3994 12.5676C16.4845 12.5676 16.5676 12.5423 16.6384 12.495C16.7091 12.4477 16.7643 12.3805 16.7969 12.3018C16.8294 12.2232 16.8379 12.1366 16.8213 12.0531C16.8047 11.9696 16.7638 11.8929 16.7036 11.8327C16.6434 11.7725 16.5668 11.7316 16.4833 11.7149C16.3999 11.6983 16.3133 11.7069 16.2347 11.7394C16.1561 11.772 16.0889 11.8272 16.0417 11.898C15.9944 11.9688 15.9692 12.052 15.9692 12.1371C15.9692 12.3732 16.16 12.5676 16.3994 12.5676ZM7.60061 12.6787C7.84348 12.6787 8.03431 12.4877 8.03431 12.2517C8.03431 12.1371 7.9888 12.0271 7.90779 11.9461C7.82678 11.865 7.71691 11.8195 7.60235 11.8195C7.48779 11.8195 7.37792 11.865 7.29691 11.9461C7.2159 12.0271 7.17039 12.1371 7.17039 12.2517C7.17039 12.4877 7.36469 12.6787 7.60061 12.6787ZM20.1604 14.3831C20.3998 14.3831 20.5941 14.1922 20.5941 13.9561C20.5941 13.841 20.5484 13.7307 20.467 13.6493C20.3857 13.5679 20.2754 13.5222 20.1604 13.5222C20.0453 13.5222 19.935 13.5679 19.8537 13.6493C19.7724 13.7307 19.7267 13.841 19.7267 13.9561C19.7267 14.1922 19.9244 14.3831 20.1604 14.3831ZM12 14.3831C12.2394 14.3831 12.4302 14.1922 12.4302 13.9561C12.4302 13.842 12.3849 13.7325 12.3042 13.6517C12.2235 13.571 12.1141 13.5257 12 13.5257C11.8859 13.5257 11.7765 13.571 11.6958 13.6517C11.6151 13.7325 11.5698 13.842 11.5698 13.9561C11.5698 14.1922 11.7641 14.3831 12 14.3831ZM3.83963 14.3831C4.07556 14.3831 4.26985 14.1922 4.26985 13.9561C4.26985 13.8415 4.22434 13.7316 4.14334 13.6505C4.06233 13.5695 3.95246 13.5239 3.8379 13.5239C3.72333 13.5239 3.61346 13.5695 3.53245 13.6505C3.45145 13.7316 3.40594 13.8415 3.40594 13.9561C3.40594 14.1922 3.60023 14.3831 3.83963 14.3831ZM12 18.5869C12.2498 18.5869 12.451 18.389 12.451 18.1426C12.451 18.0229 12.4035 17.9081 12.3189 17.8235C12.2343 17.7388 12.1196 17.6913 12 17.6913C11.9365 17.6834 11.8721 17.689 11.811 17.7079C11.7499 17.7268 11.6936 17.7585 11.6456 17.8008C11.5977 17.8432 11.5593 17.8952 11.533 17.9536C11.5067 18.0119 11.4931 18.0751 11.4931 18.1391C11.4931 18.2031 11.5067 18.2663 11.533 18.3247C11.5593 18.383 11.5977 18.435 11.6456 18.4774C11.6936 18.5197 11.7499 18.5514 11.811 18.5703C11.8721 18.5892 11.9365 18.5948 12 18.5869Z" fill="white"/>
</svg>
