<svg width="24" height="24" viewBox="0 0 24 24" fill="none" xmlns="http://www.w3.org/2000/svg">
<path d="M12 23.9995C18.6274 23.9995 24 18.6269 24 11.9995C24 5.37209 18.6274 -0.000488281 12 -0.000488281C5.37258 -0.000488281 0 5.37209 0 11.9995C0 18.6269 5.37258 23.9995 12 23.9995Z" fill="black"/>
<path d="M20.4029 12.0948C20.3704 16.6509 16.6604 20.2958 12.1368 20.2633C9.89124 20.2633 7.87353 19.3521 6.40906 17.855C4.91204 16.358 3.96827 14.2752 4.00082 11.9646C4.03336 7.40848 7.74335 3.76357 12.2669 3.79611C16.7905 3.82866 20.4354 7.53865 20.4029 12.0948Z" fill="white"/>
<path d="M8.26398 14.8282L6.44153 17.9198C6.44153 17.9198 7.19004 18.9287 9.30538 19.7423L10.3468 16.911L11.0627 15.0234L11.7787 12.9081L12.0391 12.2247L12.0716 12.1596C12.0716 12.1596 12.0716 12.127 12.1042 12.127L12.1367 12.0945C12.1367 12.0945 12.1367 12.0945 12.1692 12.0945H12.2018H12.2343L12.2669 12.1596L12.332 12.3548L12.4621 12.7454L12.9503 14.2424L13.3734 15.5767L14.0568 17.6269L14.5775 19.0589L14.8053 19.8399C14.8053 19.8399 16.465 19.3843 17.8644 17.9849L16.8555 16.4554L16.2047 15.3163L15.5213 14.0146L14.968 12.8756L14.5124 11.8341L14.1544 10.7602L13.829 9.75134L13.471 8.61231L13.113 7.40819L12.7876 6.20407L12.4296 4.86977L12.2018 4.15381L11.8113 5.42302L11.258 7.21293L10.8349 8.54722L10.3142 10.0768L9.89117 11.3134L9.40301 12.485L8.88231 13.6241L8.26398 14.8282Z" fill="black"/>
<path d="M23.5 11.9995C23.5 18.3508 18.3513 23.4995 12 23.4995C5.64873 23.4995 0.5 18.3508 0.5 11.9995C0.5 5.64824 5.64873 0.499512 12 0.499512C18.3513 0.499512 23.5 5.64824 23.5 11.9995Z" stroke="white" stroke-opacity="0.3"/>
</svg>
