<?xml version="1.0" encoding="utf-8"?>
<!-- Generator: Adobe Illustrator 25.3.1, SVG Export Plug-In . SVG Version: 6.00 Build 0)  -->
<svg version="1.1" id="Layer_1" xmlns="http://www.w3.org/2000/svg" xmlns:xlink="http://www.w3.org/1999/xlink" x="0px" y="0px"
	 viewBox="0 0 24 24" style="enable-background:new 0 0 24 24;" xml:space="preserve">
<style type="text/css">
	.st0{fill:#F5F5F5;}
	.st1{fill:none;stroke:#000000;stroke-opacity:9.700000e-02;}
	.st2{fill:#1B75BC;}
	.st3{fill:#3C3C3B;}
</style>
<path class="st0" d="M12,24c6.6,0,12-5.4,12-12c0-6.6-5.4-12-12-12C5.4,0,0,5.4,0,12C0,18.6,5.4,24,12,24z"/>
<path class="st1" d="M23.5,12c0,6.4-5.1,11.5-11.5,11.5C5.6,23.5,0.5,18.4,0.5,12C0.5,5.6,5.6,0.5,12,0.5C18.4,0.5,23.5,5.6,23.5,12
	z"/>
<path class="st2" d="M17.5,15.7l-3.5-3.5l3.5-3.5l-2.1-2.1L12,10.2L8.5,6.7L6.5,8.8l3.5,3.5l-3.5,3.5l2.1,2.1l3.5-3.5l3.5,3.5
	L17.5,15.7z"/>
<path class="st3" d="M10.8,4.5l-2,2l1.7,1.7L12,6.7l1.5,1.5l1.7-1.7l-2-2L12,3.3L10.8,4.5z M10.8,20.1l-2-2l1.7-1.7l1.5,1.5l1.5-1.5
	l1.7,1.7l-2,2L12,21.3L10.8,20.1z"/>
</svg>
