<svg width="24" height="24" viewBox="0 0 24 24" fill="none" xmlns="http://www.w3.org/2000/svg">
<path d="M24 12C24 5.37258 18.6274 2.2213e-07 12 1.43099e-07C5.37258 6.40674e-08 2.2213e-07 5.37258 1.43099e-07 12C6.40674e-08 18.6274 5.37258 24 12 24C18.6274 24 24 18.6274 24 12Z" fill="#D9327C"/>
<path d="M12 0.5C18.3513 0.5 23.5 5.64872 23.5 12C23.5 18.3513 18.3513 23.5 12 23.5C5.64873 23.5 0.5 18.3513 0.5 12C0.5 5.64872 5.64873 0.5 12 0.5Z" stroke="black" stroke-opacity="0.097"/>
<path fill-rule="evenodd" clip-rule="evenodd" d="M11.4946 6.69163C11.3918 6.76875 11.2754 6.91173 11.1825 7.19038C11.0953 7.45183 10.6371 8.78368 10.0644 10.4444H13.9359C13.3633 8.78368 12.905 7.45183 12.8179 7.19038C12.725 6.91173 12.6086 6.76875 12.5057 6.69163C12.4064 6.61713 12.2554 6.55553 12.0002 6.55553C11.745 6.55553 11.594 6.61713 11.4946 6.69163ZM5.77778 10.4444H8.41895C9.07114 8.55363 9.61338 6.9786 9.70676 6.69846C9.87314 6.19934 10.1456 5.759 10.5613 5.44721C10.9805 5.13284 11.4776 5 12.0002 5C12.5227 5 13.0199 5.13284 13.4391 5.44721C13.8548 5.759 14.1272 6.19934 14.2936 6.69846C14.387 6.9786 14.9292 8.55363 15.5814 10.4444H18.2222C18.6518 10.4444 19 10.7926 19 11.2221C19 11.6517 18.6518 11.9999 18.2222 11.9999H16.1182H14.4726H9.52779H7.8822H5.77778C5.34822 11.9999 5 11.6517 5 11.2221C5 10.7926 5.34822 10.4444 5.77778 10.4444ZM5.77778 13.5554C5.34822 13.5554 5 13.9037 5 14.3332C5 14.7628 5.34822 15.111 5.77778 15.111H6.80787L6.39179 16.3153L5.97708 17.5153L5.82067 17.9678C5.68034 18.3738 5.89565 18.8169 6.30163 18.9571C6.70761 19.0975 7.15052 18.882 7.29088 18.476L7.4473 18.0234L7.86204 16.8233C8.03437 16.3246 8.23614 15.7406 8.4536 15.111H15.5468C15.7642 15.7406 15.966 16.3246 16.1383 16.8233L16.553 18.0234L16.7095 18.476C16.8498 18.882 17.2927 19.0975 17.6987 18.9571C18.1046 18.8169 18.3201 18.3738 18.1797 17.9678L18.1795 17.9675L18.0233 17.5153L17.6086 16.3153L17.1925 15.111H18.2222C18.6518 15.111 19 14.7628 19 14.3332C19 13.9037 18.6518 13.5554 18.2222 13.5554H16.6552H15.0095H8.99081H7.34513H5.77778ZM17.4446 18.222L18.1797 17.9678C18.1797 17.9679 18.1797 17.9679 17.4446 18.222ZM17.4446 18.222C16.7095 18.4762 16.7095 18.4761 16.7095 18.476L17.4446 18.222ZM6.55572 18.222L7.29088 18.476C7.29084 18.4761 7.29084 18.4762 6.55572 18.222ZM6.55572 18.222C5.82063 17.9679 5.82065 17.9679 5.82067 17.9678L6.55572 18.222Z" fill="white"/>
</svg>
