<svg width="24" height="24" viewBox="0 0 24 24" fill="none" xmlns="http://www.w3.org/2000/svg">
<path fill-rule="evenodd" clip-rule="evenodd" d="M0 12C0 5.37259 5.37259 0 12 0C18.6274 0 24 5.37259 24 12C24 18.6274 18.6274 24 12 24C5.37259 24 0 18.6274 0 12Z" fill="#0456FF"/>
<path d="M23.5 12C23.5 18.3513 18.3513 23.5 12 23.5C5.64873 23.5 0.5 18.3513 0.5 12C0.5 5.64873 5.64873 0.5 12 0.5C18.3513 0.5 23.5 5.64873 23.5 12Z" stroke="white" stroke-opacity="0.3"/>
<path d="M18.5931 10.0903C18.5854 9.81728 18.6009 9.54431 18.5892 9.27133C18.5582 8.5031 18.2165 7.90645 17.5331 7.55159C16.0071 6.77166 14.4811 6.00343 12.9551 5.2313C12.3649 4.93492 11.7591 4.91933 11.1612 5.2079C10.8738 5.34439 10.5942 5.49257 10.3108 5.63686C9.03718 6.2803 7.76357 6.91984 6.49773 7.57109C5.94247 7.85966 5.60465 8.33542 5.50758 8.95936C5.44545 9.35712 5.48428 9.76269 5.48428 10.1643C5.48428 10.3008 5.57747 10.3164 5.6862 10.3164C6.10167 10.3164 6.51326 10.3125 6.92874 10.3164C7.09182 10.3203 7.14618 10.2501 7.1423 10.0942C7.13454 9.84068 7.1423 9.5872 7.1423 9.33372C7.1423 9.15824 7.21608 9.04125 7.3714 8.95936C8.8508 8.21843 10.3302 7.46969 11.8057 6.71706C11.9572 6.63907 12.0969 6.64297 12.2484 6.71706C13.72 7.46579 15.1917 8.21063 16.6672 8.95546C16.8419 9.04515 16.9312 9.17384 16.9273 9.37272C16.9235 9.5989 16.9273 9.82898 16.9273 10.0552C16.9312 10.293 16.9506 10.3125 17.1797 10.3164C17.3739 10.3164 17.568 10.3164 17.7622 10.3164C17.9641 10.3164 18.1621 10.3086 18.364 10.3164C18.5388 10.3281 18.597 10.254 18.5931 10.0903ZM18.5892 13.7286C18.5931 13.5843 18.5155 13.5375 18.3834 13.5375C17.968 13.5414 17.5564 13.5414 17.1409 13.5375C16.9778 13.5375 16.9235 13.6116 16.9273 13.7637C16.9312 14.0094 16.9235 14.259 16.9273 14.5047C16.9312 14.7191 16.838 14.8595 16.6516 14.9531C15.4673 15.5654 14.283 16.1815 13.0987 16.7976C12.8813 16.9107 12.8502 16.8912 12.8502 16.6339C12.8502 16.1386 12.858 15.6473 12.8464 15.152C12.8425 14.9648 12.9163 14.879 13.0871 14.8127C14.5199 14.2746 15.347 12.8317 15.0985 11.3147C14.8383 9.71589 13.3628 8.43681 11.5495 8.72148C9.79047 8.99836 8.62559 10.6752 8.95952 12.4027C9.18862 13.5804 9.86813 14.3916 10.9825 14.8244C11.134 14.8829 11.1961 14.9648 11.1883 15.1247C11.1806 15.386 11.1845 15.6434 11.1845 15.9046C11.1845 16.1698 11.1806 16.4389 11.1845 16.7041C11.1883 16.8561 11.1534 16.9068 10.9942 16.8288C9.79047 16.1971 8.58288 15.5693 7.37528 14.9453C7.19666 14.8517 7.119 14.723 7.12677 14.5242C7.13454 14.2707 7.12289 14.0172 7.13065 13.7637C7.13454 13.6077 7.08406 13.5375 6.92097 13.5375C6.5055 13.5453 6.09391 13.5414 5.67843 13.5375C5.53088 13.5375 5.46875 13.596 5.46875 13.7481C5.47263 14.0328 5.46487 14.3214 5.47263 14.606C5.48816 15.425 5.84928 16.0372 6.57539 16.4194C8.03926 17.1876 9.50702 17.9363 10.967 18.7124C11.6931 19.0984 12.3959 19.0984 13.1104 18.6968C13.5802 18.4355 14.0617 18.1937 14.5393 17.948C15.5139 17.4411 16.4924 16.9341 17.4671 16.4233C18.1116 16.0879 18.4805 15.5537 18.5621 14.8244C18.6087 14.454 18.5815 14.0913 18.5892 13.7286ZM10.602 11.8529C10.5865 11.0418 11.266 10.3359 12.0775 10.3203C12.9163 10.3047 13.6035 10.9716 13.6268 11.8178C13.6501 12.6367 12.9706 13.327 12.1319 13.3465C11.3126 13.366 10.6137 12.6874 10.602 11.8529Z" fill="white"/>
</svg>
