<svg width="24" height="24" viewBox="0 0 24 24" fill="none" xmlns="http://www.w3.org/2000/svg">
<path d="M12 24C18.6274 24 24 18.6274 24 12C24 5.37258 18.6274 0 12 0C5.37258 0 0 5.37258 0 12C0 18.6274 5.37258 24 12 24Z" fill="#111111"/>
<path d="M17.5496 11.5143L13.3324 5.79259C13.0183 5.36611 12.5326 5.12195 11.9998 5.12195C11.4669 5.12195 10.9813 5.36665 10.6671 5.79259L6.44996 11.5143C5.84983 12.3286 5.84983 13.4225 6.45105 14.2383L6.69848 14.5702L6.69902 14.5696L8.87597 17.5416C9.19014 17.968 9.67578 18.2122 10.2086 18.2122C10.6427 18.2122 11.0459 18.0498 11.3503 17.7583L11.3709 17.7734L12.0052 16.9129L12.4686 17.541C12.4702 17.5437 12.4724 17.5459 12.474 17.548L12.6026 17.7228L12.6151 17.7137C12.9238 18.032 13.3449 18.2117 13.8007 18.2117C14.333 18.2117 14.8186 17.967 15.1339 17.5399L16.784 15.2871L16.7856 15.2881L17.0591 14.9111L17.3722 14.4841L17.37 14.4825L17.5491 14.2351C18.1503 13.4225 18.1503 12.3286 17.5496 11.5143ZM11.3405 6.27985C11.4962 6.06903 11.7366 5.94802 11.9998 5.94802C12.2635 5.94802 12.5039 6.06903 12.6591 6.27985L13.2749 7.11507L12.0052 8.83767L10.7301 7.10754L11.3405 6.27985ZM10.869 17.0554L10.8684 17.0548C10.7127 17.2657 10.4723 17.3867 10.2092 17.3867C9.94546 17.3867 9.70508 17.2657 9.55044 17.0559L7.31163 14.0001L7.31054 14.0012L7.12334 13.75C6.73809 13.2273 6.73809 12.5249 7.12334 12.0021L10.2146 7.8083L11.4897 9.53843L10.0328 11.5149C9.43269 12.3291 9.43269 13.423 10.0328 14.2373L11.4897 16.2137L10.869 17.0554ZM12.0052 10.2381L13.3053 12.0016C13.6906 12.5243 13.6906 13.2267 13.3053 13.7495L12.0052 15.5129L10.7051 13.7495C10.3199 13.2267 10.3199 12.5243 10.7051 12.0016L12.0052 10.2381ZM14.4605 17.0548C14.3048 17.2657 14.0644 17.3867 13.8012 17.3867C13.5408 17.3867 13.3031 17.2683 13.1474 17.0618L12.5218 16.2132L13.9787 14.2367C14.5788 13.4225 14.5788 12.3286 13.9787 11.5143L12.5218 9.53789L13.7915 7.81529L16.8773 12.0016C17.2626 12.5243 17.2626 13.2267 16.8757 13.7522L16.3862 14.4266L14.4605 17.0548Z" fill="url(#paint0_linear)"/>
<path opacity="0.6" d="M11.4789 16.21L12.0052 16.9226L11.2049 17.9874L10.678 17.2953L11.4789 16.21Z" fill="url(#paint1_linear)"/>
<path d="M11.4866 9.53845L11.9988 10.2441L10.8034 11.8817L10.1479 11.3686L11.4866 9.53845Z" fill="url(#paint2_linear)"/>
<path d="M16.3254 9.85352L14.4534 7.3L14.4572 7.29624L13.7654 6.35938C13.9873 6.66754 14.0931 6.91493 14.0736 7.15157C14.0557 7.36777 13.9846 7.53502 13.9189 7.64743L13.7958 7.81522L13.8728 7.9244L13.8744 7.92225L15.6705 10.3666L16.3254 9.85352Z" fill="url(#paint3_linear)"/>
<path d="M7.68384 9.85352L9.55584 7.3L9.55204 7.29624L10.2439 6.35938C10.0219 6.66754 9.91614 6.91493 9.93567 7.15157C9.95358 7.36777 10.0247 7.53502 10.0903 7.64743L10.2135 7.81522L10.1364 7.9244L10.1348 7.92225L8.33877 10.3666L7.68384 9.85352Z" fill="url(#paint4_linear)"/>
<path d="M23.5 12C23.5 18.3513 18.3513 23.5 12 23.5C5.64873 23.5 0.5 18.3513 0.5 12C0.5 5.64873 5.64873 0.5 12 0.5C18.3513 0.5 23.5 5.64873 23.5 12Z" stroke="white" stroke-opacity="0.3"/>
<defs>
<linearGradient id="paint0_linear" x1="7.91036" y1="16.6132" x2="16.0216" y2="8.42954" gradientUnits="userSpaceOnUse">
<stop stop-color="#FF8506"/>
<stop offset="0.5805" stop-color="#FD3947"/>
<stop offset="1" stop-color="#FB0078"/>
</linearGradient>
<linearGradient id="paint1_linear" x1="10.9701" y1="17.6388" x2="12.0316" y2="16.0983" gradientUnits="userSpaceOnUse">
<stop stop-color="#FF7E0D" stop-opacity="0"/>
<stop offset="0.0133" stop-color="#F97910" stop-opacity="0.0192"/>
<stop offset="0.1144" stop-color="#D25427" stop-opacity="0.1659"/>
<stop offset="0.219" stop-color="#B1363A" stop-opacity="0.3175"/>
<stop offset="0.3263" stop-color="#981E48" stop-opacity="0.4731"/>
<stop offset="0.4375" stop-color="#860D53" stop-opacity="0.6344"/>
<stop offset="0.5551" stop-color="#7B0359" stop-opacity="0.8048"/>
<stop offset="0.6897" stop-color="#78005B"/>
</linearGradient>
<linearGradient id="paint2_linear" x1="10.3144" y1="11.5332" x2="11.8927" y2="9.94085" gradientUnits="userSpaceOnUse">
<stop stop-color="#FF4630" stop-opacity="0"/>
<stop offset="0.5722" stop-color="#B31F48" stop-opacity="0.5722"/>
<stop offset="1" stop-color="#78005B"/>
</linearGradient>
<linearGradient id="paint3_linear" x1="15.8303" y1="9.91135" x2="13.8974" y2="7.16153" gradientUnits="userSpaceOnUse">
<stop stop-color="#FB126A" stop-opacity="0"/>
<stop offset="0.1389" stop-color="#F41169" stop-opacity="0.1389"/>
<stop offset="0.3365" stop-color="#E20F67" stop-opacity="0.3365"/>
<stop offset="0.5694" stop-color="#C30A64" stop-opacity="0.5694"/>
<stop offset="0.827" stop-color="#99045F" stop-opacity="0.827"/>
<stop offset="1" stop-color="#78005B"/>
</linearGradient>
<linearGradient id="paint4_linear" x1="8.17914" y1="9.91135" x2="10.1121" y2="7.16153" gradientUnits="userSpaceOnUse">
<stop stop-color="#FB126A" stop-opacity="0"/>
<stop offset="0.1389" stop-color="#F41169" stop-opacity="0.1389"/>
<stop offset="0.3365" stop-color="#E20F67" stop-opacity="0.3365"/>
<stop offset="0.5694" stop-color="#C30A64" stop-opacity="0.5694"/>
<stop offset="0.827" stop-color="#99045F" stop-opacity="0.827"/>
<stop offset="1" stop-color="#78005B"/>
</linearGradient>
</defs>
</svg>
