<svg width="24" height="24" viewBox="0 0 24 24" fill="none" xmlns="http://www.w3.org/2000/svg">
<path d="M12 24C18.6274 24 24 18.6274 24 12C24 5.37258 18.6274 0 12 0C5.37258 0 0 5.37258 0 12C0 18.6274 5.37258 24 12 24Z" fill="#F5F5F5"/>
<path d="M12.8468 19.7193C12.8936 19.8291 12.9188 19.9488 12.9188 20.0748C12.9188 20.586 12.4976 21 11.9783 21C11.459 21 11.0378 20.586 11.0378 20.0748C11.0378 19.9524 11.0621 19.8354 11.1062 19.7283L5.5172 16.554C5.33885 16.7354 5.09485 16.8373 4.8404 16.8366C4.3211 16.8366 3.8999 16.4226 3.8999 15.9114C3.8999 15.4794 4.1996 15.1176 4.6055 15.015V8.69071C4.1929 8.58857 3.90228 8.21936 3.8999 7.79431C3.8999 7.28311 4.3211 6.86911 4.8404 6.86911C5.1518 6.86911 5.4281 7.01851 5.6 7.24891L11.0648 4.14391C11.0466 4.07244 11.0375 3.99896 11.0378 3.92521C11.0378 3.41401 11.4599 3.00001 11.9783 3.00001C12.2627 2.99854 12.5323 3.12685 12.7105 3.34852C12.8887 3.5702 12.9562 3.86104 12.8936 4.13851L18.3908 7.26151C18.5618 7.02391 18.8417 6.86911 19.1594 6.86911C19.6787 6.86911 20.0999 7.28311 20.0999 7.79431C20.0999 8.22631 19.7984 8.58991 19.3916 8.69161L19.3754 15.0096C19.7903 15.1059 20.0999 15.4731 20.0999 15.9114C20.0999 16.4226 19.6787 16.8366 19.1594 16.8366C18.894 16.8372 18.6405 16.7262 18.461 16.5306L12.8468 19.7193ZM12.5957 19.3773L18.254 16.1625C18.2011 15.9786 18.2074 15.7828 18.272 15.6027L12.8135 12.0927C12.602 12.3164 12.3076 12.4426 11.9999 12.4419C11.656 12.4428 11.3309 12.285 11.1188 12.0144L5.7395 15.6387C5.79588 15.8194 5.79463 16.0132 5.7359 16.1931L11.3537 19.3836C11.5265 19.2323 11.7485 19.1491 11.9783 19.1496C12.215 19.1496 12.431 19.2351 12.5957 19.3764V19.3773ZM12.7028 4.51561C12.5748 4.66667 12.4026 4.77371 12.2105 4.82161L12.1961 10.272C12.722 10.3611 13.108 10.8151 13.1114 11.3484C13.1114 11.4843 13.0862 11.6157 13.0394 11.7354L18.5024 15.249C18.6239 15.132 18.7769 15.0483 18.9479 15.0096L18.9641 8.69971C18.4813 8.60128 18.1592 8.14333 18.2297 7.65571L12.7028 4.51561ZM11.2583 4.52011L5.7674 7.63861C5.84844 8.1326 5.52379 8.60205 5.033 8.70061V15.0051C5.2238 15.0447 5.393 15.1401 5.5226 15.2751L10.9271 11.6346C10.8502 11.3427 10.8969 11.0321 11.0561 10.7757C11.2152 10.5193 11.473 10.3398 11.7686 10.2792L11.783 4.83061C11.5785 4.78812 11.3939 4.6789 11.2583 4.52011Z" fill="black"/>
<path d="M23.5 12C23.5 18.3513 18.3513 23.5 12 23.5C5.64873 23.5 0.5 18.3513 0.5 12C0.5 5.64873 5.64873 0.5 12 0.5C18.3513 0.5 23.5 5.64873 23.5 12Z" stroke="black" stroke-opacity="0.097"/>
</svg>
