<svg width="24" height="24" viewBox="0 0 24 24" fill="none" xmlns="http://www.w3.org/2000/svg">
<path d="M12 24C18.6274 24 24 18.6274 24 12C24 5.37258 18.6274 0 12 0C5.37258 0 0 5.37258 0 12C0 18.6274 5.37258 24 12 24Z" fill="#0B0F2B"/>
<path d="M23.5 12C23.5 18.3513 18.3513 23.5 12 23.5C5.64873 23.5 0.5 18.3513 0.5 12C0.5 5.64873 5.64873 0.5 12 0.5C18.3513 0.5 23.5 5.64873 23.5 12Z" stroke="white" stroke-opacity="0.3"/>
<path d="M8.19531 6.20367L11.8864 8.35788L15.6103 6.20367L11.9032 4L8.19531 6.20367Z" fill="white"/>
<path d="M11.0993 14.019V9.67704L7.3252 7.52283V11.8161L11.0993 14.019Z" fill="white"/>
<path d="M11.0993 19.9512V15.6093L7.3252 13.4551V17.7484L11.0993 19.9512Z" fill="white"/>
<path d="M12.6353 9.74404V14.019C12.6353 14.019 16.3758 11.915 16.3758 11.8815C16.3758 11.848 16.3758 7.52283 16.3758 7.52283L12.6353 9.74404Z" fill="white"/>
<path d="M12.6353 15.6765V19.9514L17.695 17.0419C17.695 17.0084 17.695 12.7502 17.695 12.7502L12.6353 15.6765Z" fill="white"/>
</svg>
