<svg width="24" height="24" viewBox="0 0 24 24" fill="none" xmlns="http://www.w3.org/2000/svg">
<path d="M12 24C18.6274 24 24 18.6274 24 12C24 5.37258 18.6274 0 12 0C5.37258 0 0 5.37258 0 12C0 18.6274 5.37258 24 12 24Z" fill="#E8EEFF"/>
<path d="M23.5 12C23.5 18.3513 18.3513 23.5 12 23.5C5.64873 23.5 0.5 18.3513 0.5 12C0.5 5.64873 5.64873 0.5 12 0.5C18.3513 0.5 23.5 5.64873 23.5 12Z" stroke="black" stroke-opacity="0.097"/>
<path fill-rule="evenodd" clip-rule="evenodd" d="M16.3887 9.34818L12.1375 7.17382V10.442L13.1524 10.9611C13.1661 10.9681 13.1797 10.9753 13.193 10.9827L16.3887 9.34818ZM10.1909 6.17007V9.4464L6.93878 7.783C6.07364 7.34051 5 7.90306 5 8.79886V15.1551C5 16.0508 6.07364 16.6134 6.93878 16.1709L10.1909 14.5075V17.8299C10.1909 18.7319 11.2781 19.2937 12.1432 18.8387L18.3566 15.5712C19.2263 15.1139 19.211 13.9778 18.3293 13.5396L15.1878 11.978L18.3433 10.364C19.2189 9.91618 19.2189 8.78016 18.3433 8.3323L12.1297 5.15421C11.2646 4.71172 10.1909 5.27427 10.1909 6.17007ZM12.1375 13.5381L13.2028 12.9932L16.3884 14.5767L12.1375 16.8121V13.5381ZM6.94659 9.80259L10.1909 11.462V12.4919L6.94659 14.1513V9.80259Z" fill="#1F50DB"/>
</svg>
