<svg width="124" height="120" viewBox="0 0 124 120" fill="none" xmlns="http://www.w3.org/2000/svg">
<path d="M61.6241 7.4193e-06C48.1687 -0.00666931 35.0814 4.49318 24.3626 12.8119C13.6437 21.1306 5.88288 32.8103 2.26646 46.0659C-1.34995 59.3214 -0.623062 73.4236 4.33606 86.2169C9.29514 99.0101 18.2137 109.791 29.7283 116.91C32.0717 118.365 34.7603 119.134 37.5014 119.133H37.7022C39.7049 119.145 41.69 118.749 43.5425 117.971C45.3946 117.192 47.0778 116.046 48.4941 114.597C49.91 113.149 51.0314 111.427 51.7927 109.533C52.5539 107.638 52.9404 105.608 52.9294 103.559V74.8631C52.9263 74.7039 52.8632 74.5522 52.753 74.4396C52.6429 74.327 52.4943 74.2623 52.3387 74.2592H43.0772C41.9122 74.3031 40.7508 74.1067 39.6622 73.6811C38.5732 73.2552 37.5795 72.6097 36.7402 71.7821C35.9009 70.955 35.2333 69.9629 34.7773 68.8659C34.3214 67.7685 34.0863 66.5889 34.0863 65.3965C34.0863 64.2045 34.3214 63.0244 34.7773 61.9274C35.2333 60.83 35.9009 59.8384 36.7402 59.0108C37.5795 58.1837 38.5732 57.5378 39.6622 57.1122C40.7508 56.6867 41.9122 56.4903 43.0772 56.5342H80.1118C81.2764 56.4903 82.4379 56.6867 83.5269 57.1122C84.6158 57.5378 85.6095 58.1837 86.4487 59.0108C87.288 59.8384 87.9555 60.83 88.4114 61.9274C88.8677 63.0244 89.1025 64.2045 89.1025 65.3965C89.1025 66.5889 88.8677 67.7685 88.4114 68.8659C87.9555 69.9629 87.288 70.955 86.4487 71.7821C85.6095 72.6097 84.6158 73.2552 83.5269 73.6811C82.4379 74.1067 81.2764 74.3031 80.1118 74.2592H70.8739C70.7179 74.2623 70.5697 74.327 70.4595 74.4396C70.3494 74.5522 70.2863 74.7039 70.2831 74.8631V103.559C70.311 107.692 71.9299 111.646 74.789 114.566C77.6482 117.486 81.5171 119.135 85.5577 119.158H85.7584C88.5039 119.156 91.1953 118.374 93.5316 116.898C105.029 109.771 113.931 98.9921 118.879 86.2061C123.826 73.4204 124.548 59.3298 120.933 46.0851C117.319 32.8406 109.567 21.1694 98.8602 12.8527C88.1535 4.53601 75.0803 0.030596 61.6359 0.024196L61.6241 7.4193e-06ZM17.9151 75.4675C15.9655 75.4695 14.059 74.8803 12.437 73.7741C10.815 72.6679 9.55044 71.0943 8.80327 69.2524C8.0561 67.4104 7.86003 65.3833 8.23979 63.4276C8.61959 61.4719 9.55816 59.6751 10.9367 58.2651C12.3153 56.8551 14.0719 55.8955 15.9841 55.507C17.8963 55.1186 19.8783 55.319 21.679 56.0831C23.4798 56.8472 25.0184 58.141 26.1001 59.7997C27.1817 61.4587 27.7579 63.4084 27.7555 65.4025C27.7493 68.0615 26.7171 70.6108 24.8832 72.4955C23.0493 74.3801 20.5621 75.4484 17.9623 75.4675H17.9151ZM61.6241 45.4787C58.6003 45.4811 55.6436 44.5661 53.1282 42.8495C50.6128 41.133 48.6517 38.692 47.493 35.8353C46.3342 32.9786 46.0297 29.8346 46.618 26.801C47.2068 23.7674 48.6615 20.9804 50.799 18.7926C52.9361 16.6049 55.66 15.1146 58.6258 14.5104C61.5912 13.9061 64.6652 14.215 67.4593 15.398C70.253 16.581 72.6413 18.585 74.3214 21.1563C76.0015 23.7277 76.8983 26.751 76.8983 29.8437C76.8736 33.9782 75.2559 37.936 72.3967 40.8583C69.5372 43.7809 65.6663 45.4324 61.6241 45.4543V45.4787ZM105.156 75.4675C103.207 75.4675 101.301 74.8759 99.6807 73.7681C98.0606 72.6604 96.7976 71.0859 96.0524 69.244C95.3069 67.4021 95.1124 65.3753 95.4935 63.4204C95.8749 61.4651 96.8141 59.6699 98.1935 58.2611C99.5725 56.8524 101.329 55.8935 103.241 55.5058C105.153 55.1186 107.134 55.3198 108.934 56.0843C110.734 56.8488 112.272 58.1422 113.353 59.8009C114.434 61.4595 115.01 63.4092 115.008 65.4025C115.002 68.0719 113.961 70.6304 112.115 72.5166C110.268 74.4033 107.766 75.4643 105.156 75.4675Z" fill="url(#paint0_linear_6749_386)"/>
<defs>
<linearGradient id="paint0_linear_6749_386" x1="-1.3528e-06" y1="113.433" x2="112.824" y2="5.78752" gradientUnits="userSpaceOnUse">
<stop stop-color="#004FFF"/>
<stop offset="0.333333" stop-color="#CB06ED"/>
<stop offset="0.682292" stop-color="#FF0062"/>
<stop offset="1" stop-color="#FF8500"/>
</linearGradient>
</defs>
</svg>
