<svg width="24" height="24" viewBox="0 0 24 24" fill="none" xmlns="http://www.w3.org/2000/svg">
<path d="M12 24C18.6274 24 24 18.6274 24 12C24 5.37258 18.6274 0 12 0C5.37258 0 0 5.37258 0 12C0 18.6274 5.37258 24 12 24Z" fill="#CD0124"/>
<path d="M23.5 12C23.5 18.3513 18.3513 23.5 12 23.5C5.64873 23.5 0.5 18.3513 0.5 12C0.5 5.64873 5.64873 0.5 12 0.5C18.3513 0.5 23.5 5.64873 23.5 12Z" stroke="black" stroke-opacity="0.097"/>
<path fill-rule="evenodd" clip-rule="evenodd" d="M6.99697 7.84277C6.94385 7.85221 6.88916 7.85714 6.83333 7.85714C6.32049 7.85714 5.90475 7.44141 5.90475 6.92857C5.90475 6.41574 6.32049 6 6.83333 6C7.266 6 7.62956 6.29593 7.73264 6.69643H15.8388C15.9418 6.29593 16.3054 6 16.7381 6C17.2509 6 17.6666 6.41574 17.6666 6.92857C17.6666 7.44141 17.2509 7.85714 16.7381 7.85714L16.7342 7.85713L15.0297 11.6922C15.3106 11.8519 15.5 12.1538 15.5 12.5C15.5 13.0128 15.0842 13.4286 14.5714 13.4286C14.4692 13.4286 14.3709 13.4121 14.2789 13.3816L12.4723 17.4463C12.6226 17.6113 12.7143 17.8307 12.7143 18.0714C12.7143 18.5843 12.2986 19 11.7857 19C11.2729 19 10.8571 18.5843 10.8571 18.0714C10.8571 17.7293 11.0421 17.4305 11.3175 17.2694L9.5435 13.3988C9.46875 13.4182 9.39033 13.4286 9.30951 13.4286C8.79667 13.4286 8.38093 13.0128 8.38093 12.5C8.38093 12.1833 8.53943 11.9037 8.78142 11.7361L6.99697 7.84277ZM7.41898 7.6492L9.21868 11.5758C9.24856 11.5729 9.27886 11.5714 9.30951 11.5714C9.53218 11.5714 9.73655 11.6498 9.89653 11.7805L11.471 10.6237L7.42058 7.6479C7.42005 7.64833 7.41951 7.64877 7.41898 7.6492ZM7.69559 7.27383L11.8631 10.3357L15.915 7.35878C15.8824 7.29657 15.8566 7.23022 15.8388 7.16071H7.73264C7.72267 7.19945 7.71026 7.23722 7.69559 7.27383ZM11.8631 10.9118L10.1717 12.1545C10.2145 12.2613 10.2381 12.3779 10.2381 12.5C10.2381 12.7644 10.1276 13.0029 9.95029 13.172L11.7703 17.143L11.7857 17.1429C11.8879 17.1429 11.9863 17.1594 12.0782 17.1899L13.8848 13.1251C13.7345 12.9602 13.6428 12.7408 13.6428 12.5C13.6428 12.4117 13.6552 12.3263 13.6782 12.2453L11.8631 10.9118ZM13.915 11.8432L12.2552 10.6237L16.2282 7.70476C16.245 7.71583 16.2622 7.72638 16.2798 7.73636L14.5753 11.5714L14.5714 11.5714C14.3151 11.5714 14.083 11.6753 13.915 11.8432Z" fill="white"/>
</svg>
