<?xml version="1.0" encoding="UTF-8"?>
<svg id="Capa_2" data-name="Capa 2" xmlns="http://www.w3.org/2000/svg" viewBox="0 0 71.07 71.05">
  <defs>
    <style>
      .cls-1 {
        fill: #f7a537;
        stroke-width: 0px;
      }
    </style>
  </defs>
  <g id="Capa_6" data-name="Capa 6">
    <g>
      <path class="cls-1" d="M34.31,13.9c.66-.66,1.72-.66,2.37,0l2.94,2.94,4.21-4.21-2.94-2.94c-2.98-2.98-7.81-2.98-10.79,0L9.74,30.06c-2.98,2.98-2.98,7.81,0,10.79l9.16,9.16c1.16-1.16,1.74-2.68,1.74-4.21,0-1.52-.58-3.05-1.74-4.21l-4.96-4.96c-.66-.66-.66-1.72,0-2.37l20.36-20.36Z"/>
      <path class="cls-1" d="M7.61,47.14c-6.44-6.44-6.44-16.89,0-23.34L23.82,7.6c6.44-6.44,16.9-6.43,23.34,0l.77.77c2.54,2.54-2.02,6.33-2.02,6.33l-.03.03h0s-20.76,20.75-20.76,20.75c-2.29,2.29-2.29,6,0,8.29l20.72-20.72h0s4.21-4.2,4.21-4.2c6.2-6.2,1.99-10.29,1.99-10.29l-2.92-2.92c-7.52-7.52-19.75-7.52-27.26,0L5.65,21.84c-7.53,7.53-7.53,19.73,0,27.26l9.19,9.19c1.08-1.08,1.08-2.84,0-3.93l-7.22-7.22Z"/>
      <path class="cls-1" d="M36.76,57.15c-.66.66-1.72.66-2.37,0l-2.94-2.94-4.21,4.21,2.94,2.94c2.98,2.98,7.81,2.98,10.79,0l20.37-20.36c2.98-2.98,2.98-7.81,0-10.79l-9.16-9.16c-1.16,1.16-1.74,2.68-1.74,4.21,0,1.52.58,3.05,1.74,4.21l4.96,4.96c.66.66.66,1.72,0,2.37l-20.36,20.37Z"/>
      <path class="cls-1" d="M65.42,21.94l-9.19-9.19c-1.08,1.08-1.08,2.84,0,3.93l7.22,7.22c6.44,6.44,6.44,16.89,0,23.34l-16.21,16.21c-6.44,6.44-16.9,6.43-23.34,0l-.77-.77c-2.54-2.54,2.02-6.33,2.02-6.33v-.05s.03.03.03.03l20.76-20.76c2.29-2.29,2.29-6,0-8.29l-24.55,24.55c-.13.12-.25.24-.38.37-6.2,6.2-1.99,10.29-1.99,10.29l2.92,2.92c7.52,7.52,19.75,7.52,27.26,0l16.21-16.21c7.53-7.53,7.53-19.74,0-27.26Z"/>
    </g>
  </g>
</svg>