<svg width="24" height="24" viewBox="0 0 24 24" fill="none" xmlns="http://www.w3.org/2000/svg">
<path d="M12 24C18.6274 24 24 18.6274 24 12C24 5.37258 18.6274 0 12 0C5.37258 0 0 5.37258 0 12C0 18.6274 5.37258 24 12 24Z" fill="#2170FB"/>
<path d="M12 24C18.6274 24 24 18.6274 24 12C24 5.37258 18.6274 0 12 0C5.37258 0 0 5.37258 0 12C0 18.6274 5.37258 24 12 24Z" fill="#00D395"/>
<path d="M23.5 12C23.5 18.3513 18.3513 23.5 12 23.5C5.64873 23.5 0.5 18.3513 0.5 12C0.5 5.64873 5.64873 0.5 12 0.5C18.3513 0.5 23.5 5.64873 23.5 12Z" stroke="white" stroke-opacity="0.3"/>
<path fill-rule="evenodd" clip-rule="evenodd" d="M6.61525 16.4698C6.23349 16.2261 6 15.7921 6 15.326V12.7237C6 12.6241 6.02556 12.5281 6.07328 12.4427C6.22156 12.1759 6.55049 12.0852 6.80613 12.2417L12.4338 15.6658C12.7627 15.8668 12.9655 16.2332 12.9655 16.6316V19.3282C12.9655 19.451 12.9331 19.5737 12.8718 19.6786C12.686 19.9953 12.2906 20.0949 11.9872 19.901L6.61525 16.4698ZM15.0038 11.5284C15.3327 11.7294 15.5356 12.0959 15.5356 12.4943V17.9657C15.5356 18.1276 15.452 18.277 15.3174 18.3553L14.0852 19.0792C14.0699 19.0881 14.0528 19.0952 14.0358 19.1006V16.0625C14.0358 15.6693 13.8381 15.3047 13.5143 15.1019L8.57179 12.0158V8.5864C8.57179 8.48679 8.59736 8.39074 8.64508 8.30536C8.79335 8.03854 9.12228 7.94783 9.37793 8.10436L15.0038 11.5284ZM17.4666 7.48714C17.7972 7.68635 18 8.05633 18 8.45477V16.4467C18 16.6103 17.9131 16.7615 17.775 16.8398L16.6075 17.4979V11.934C16.6075 11.5409 16.4099 11.178 16.0878 10.9752L11.0362 7.81265V4.55932C11.0362 4.45971 11.0618 4.36366 11.1078 4.27828C11.2561 4.01147 11.585 3.92075 11.8406 4.0755L17.4666 7.48714Z" fill="white"/>
</svg>
