<svg width="24" height="24" viewBox="0 0 24 24" fill="none" xmlns="http://www.w3.org/2000/svg">
<path d="M12 24C18.6274 24 24 18.6274 24 12C24 5.37258 18.6274 0 12 0C5.37258 0 0 5.37258 0 12C0 18.6274 5.37258 24 12 24Z" fill="#0B0F2B"/>
<path d="M9.33334 7.95239V10.2381H4V7.95239H9.33334ZM10.0952 7.95239H11.619V15.5714H4V11H10.0952V7.95239ZM5.52381 12.5238V14.0476H10.0952V12.5238H5.52381ZM20 9.4762H13.9048V14.0476H18.4762V12.5238H15.4286V11H20V15.5714H12.381V7.95239H20V9.4762Z" fill="#F3CD27"/>
<path d="M23.5 12C23.5 18.3513 18.3513 23.5 12 23.5C5.64873 23.5 0.5 18.3513 0.5 12C0.5 5.64873 5.64873 0.5 12 0.5C18.3513 0.5 23.5 5.64873 23.5 12Z" stroke="white" stroke-opacity="0.3"/>
</svg>
