<svg width="24" height="24" viewBox="0 0 24 24" fill="none" xmlns="http://www.w3.org/2000/svg">
<path fill-rule="evenodd" clip-rule="evenodd" d="M0 12C0 5.37259 5.37259 0 12 0C18.6274 0 24 5.37259 24 12C24 18.6274 18.6274 24 12 24C5.37259 24 0 18.6274 0 12Z" fill="#8150E6"/>
<mask id="mask0" mask-type="alpha" maskUnits="userSpaceOnUse" x="0" y="0" width="23" height="24">
<path d="M0 0.355469H23V23.4356H0V0.355469Z" fill="white"/>
</mask>
<g mask="url(#mask0)">
<path d="M23 11.8955C23 18.269 17.8513 23.4356 11.5 23.4356C5.1487 23.4356 0 18.269 0 11.8955C0 5.52211 5.1487 0.355469 11.5 0.355469C17.8513 0.355469 23 5.52211 23 11.8955Z" fill="#8150E6"/>
</g>
<path d="M22.5702 15.0308L14.3829 6.94592L9.71743 6.07178L6.98694 16.382L13.8766 23.1884C18.0682 22.3045 21.4195 19.1305 22.5702 15.0308Z" fill="#3C176B"/>
<path d="M10.5072 15.4782V9.09851H12.114C12.6541 9.09851 13.1501 9.16726 13.602 9.30486C14.0537 9.44245 14.4449 9.65647 14.7756 9.94691C14.8209 9.98669 14.8646 10.0286 14.9073 10.0718C14.9129 9.20705 14.6007 8.34526 14.1591 7.56594C13.6689 7.42681 13.1645 7.35596 12.6449 7.35596H8.74677V15.4702C9.33922 15.477 9.91776 15.5254 10.5072 15.4782Z" fill="#6B42BD"/>
<path d="M17.2556 10.3748C16.9762 9.69728 16.6035 9.13432 16.1379 8.68579C15.672 8.2375 15.1365 7.90389 14.5311 7.68463C14.4081 7.64008 14.284 7.60135 14.1591 7.56592C14.6007 8.34524 14.9128 9.20703 14.9073 10.0718C15.1754 10.3435 15.3467 11.3971 15.5075 11.8014L10.5072 16.3822V15.4782C9.91774 15.5253 9.3392 15.477 8.74683 15.4702V18.1247H12.4354C13.0313 18.1247 13.6391 18.0153 14.2586 17.7961C14.878 17.5771 15.4414 17.2458 15.9492 16.8025C16.4568 16.3592 16.8714 15.7989 17.1927 15.1211C17.5141 14.4436 17.6748 13.6411 17.6748 12.7137C17.6748 11.7965 17.5351 11.0526 17.2556 10.3748Z" fill="#9B74EC"/>
<path d="M10.0604 14.637C10.6099 14.637 11.1293 14.5683 11.6182 14.4307C12.1073 14.2931 12.5334 14.0791 12.8967 13.7887C13.2599 13.4983 13.5464 13.1214 13.756 12.6575C13.9655 12.194 14.0703 11.631 14.0703 10.9685C14.0703 10.3165 13.9771 9.80933 13.7909 9.34046C13.6044 8.87184 13.346 8.49215 13.0155 8.20171C12.6847 7.91127 12.2935 7.69725 11.8418 7.55974C11.3899 7.42215 10.8939 7.35339 10.3538 7.35339H8.7471V14.637H10.0604ZM6.98663 5.61084H10.8847C11.5366 5.61084 12.1653 5.72043 12.771 5.93945C13.3763 6.15871 13.9118 6.49232 14.3777 6.94069C14.8434 7.38922 15.2161 7.9521 15.4954 8.62966C15.7749 9.30746 15.9146 10.0514 15.9146 10.9685C15.9146 11.8959 15.7539 12.6984 15.4325 13.3759C15.1112 14.0538 14.6966 14.614 14.1891 15.0574C13.6813 15.5007 13.1178 15.8319 12.4985 16.0509C11.8789 16.2702 11.2711 16.3796 10.6752 16.3796H6.98663V5.61084Z" fill="white"/>
<path d="M23.5 12C23.5 18.3513 18.3513 23.5 12 23.5C5.64873 23.5 0.5 18.3513 0.5 12C0.5 5.64873 5.64873 0.5 12 0.5C18.3513 0.5 23.5 5.64873 23.5 12Z" stroke="white" stroke-opacity="0.3"/>
</svg>
