<svg width="24" height="24" viewBox="0 0 24 24" fill="none" xmlns="http://www.w3.org/2000/svg">
<path d="M12 24C18.6274 24 24 18.6274 24 12C24 5.37258 18.6274 0 12 0C5.37258 0 0 5.37258 0 12C0 18.6274 5.37258 24 12 24Z" fill="#D8E6FF"/>
<path d="M20 11.4714C19.9992 13.2234 18.6425 14.5899 16.9085 14.5846C15.2105 14.5794 13.832 13.1754 13.841 11.4602C13.85 9.74569 15.2435 8.34772 16.9325 8.35897C18.6567 8.37022 20.0007 9.73444 20 11.4714ZM7.31751 17.4398C6.71216 17.4402 6.13184 17.1982 5.70612 16.7679C5.28041 16.3375 5.04475 15.7547 5.05176 15.1493C5.05551 13.8699 6.05601 12.8356 7.31376 12.8649C7.67526 12.8731 8.03827 13.0081 8.39077 13.1184C8.89177 13.2751 9.38077 13.4694 9.88027 13.6329C10.19 13.7349 10.4863 13.6629 10.76 13.4934C11.1575 13.2459 11.495 12.9474 11.7103 12.5094C11.9278 12.0639 12.4228 11.8982 12.863 12.0872C13.271 12.2627 13.4833 12.7074 13.3655 13.1394C13.2328 13.6246 12.833 13.8856 12.335 13.7986C11.8933 13.7214 11.4553 13.5789 11.0068 13.7416C10.2043 14.0334 9.85176 14.6979 9.58776 15.4561C9.44376 15.8708 9.29077 16.3066 9.03277 16.6486C8.61877 17.2005 8.00976 17.4428 7.31751 17.4398ZM7.26951 5.56153C8.29476 5.56153 9.09352 6.16152 9.44152 7.14924C9.57952 7.53924 9.78652 7.90448 9.96352 8.28022C10.4008 9.2102 11.498 9.3017 12.194 9.04745C12.8105 8.82246 13.4045 9.21845 13.4188 9.85744C13.4285 10.2999 13.2013 10.6224 12.7858 10.7529C12.4183 10.8669 12.0043 10.7117 11.7793 10.3764C11.699 10.2564 11.624 10.1319 11.5348 10.0187C10.9228 9.2462 10.2433 9.0437 9.32226 9.3902C9.00126 9.51019 8.70051 9.69019 8.39901 9.85744C7.8482 10.1712 7.19108 10.2396 6.58747 10.0459C5.98386 9.85235 5.4891 9.41452 5.22351 8.83896C4.50651 7.31649 5.60151 5.56153 7.26951 5.56153ZM14.417 17.4923C14.408 18.3315 13.7233 19.0148 12.9058 18.9998C12.116 18.9848 11.456 18.3045 11.4358 17.5395C11.414 16.6741 12.05 15.9698 12.9343 15.9616C13.7803 15.9533 14.4268 16.6508 14.4178 17.4915L14.417 17.4923ZM11.4455 5.51503C11.4455 4.66605 12.11 3.99256 12.9418 4.00006C13.7503 4.00756 14.4268 4.6998 14.42 5.51353C14.414 6.36926 13.7735 7.0555 12.9305 7.03975C11.9713 7.02175 11.4065 6.24851 11.4455 5.51503Z" fill="#2B5EBB"/>
<path d="M23.5 12C23.5 18.3513 18.3513 23.5 12 23.5C5.64873 23.5 0.5 18.3513 0.5 12C0.5 5.64873 5.64873 0.5 12 0.5C18.3513 0.5 23.5 5.64873 23.5 12Z" stroke="black" stroke-opacity="0.097"/>
</svg>
