<svg width="24" height="24" viewBox="0 0 24 24" fill="none" xmlns="http://www.w3.org/2000/svg">
<path d="M12 24C18.6274 24 24 18.6274 24 12C24 5.37258 18.6274 0 12 0C5.37258 0 0 5.37258 0 12C0 18.6274 5.37258 24 12 24Z" fill="#F5F5F5"/>
<path d="M19.7039 7.11874C19.7998 7.17007 20.0196 7.29157 19.9986 7.55595L19.9851 16.4689C19.9978 16.6411 19.9024 16.8029 19.7467 16.8728L17.81 18.0219L16.2775 18.9305L12.1986 21.3501C12.1468 21.3904 12.0835 21.4121 12.0184 21.4118C11.9363 21.4091 11.8567 21.383 11.7885 21.3365L8.97435 19.6869C7.4115 18.7705 5.79474 17.8225 4.20157 16.8916C4.06769 16.8257 3.98938 16.6725 4.00117 16.498L4.00706 14.1434C4.01212 12.0249 4.01548 9.87296 4.01716 7.7921V7.78355C4.01833 7.76932 4.01862 7.75503 4.01801 7.74077V7.71424C4.01463 7.59874 4.00959 7.36173 4.22852 7.25478C5.1211 6.71318 6.03389 6.16301 6.91721 5.63083L8.37986 4.74954C9.49306 4.0796 10.6265 3.39596 11.7228 2.73456L11.7312 2.72943C11.8029 2.68774 11.8779 2.65197 11.9552 2.62248L12.042 2.58826L12.1228 2.63703C12.9194 3.1059 13.7295 3.58505 14.5117 4.04879L15.9735 4.91296L17.4008 5.7566L19.6466 7.08451H19.6483L19.6499 7.08622L19.7039 7.11874ZM12.3199 20.5262L14.814 19.046C16.3264 18.1501 17.8385 17.2538 19.3502 16.3568L19.3586 11.3523L19.3628 8.04537L16.1209 9.97221V11.4918C16.1172 12.4401 16.1188 13.3884 16.126 14.3367V14.4017L16.088 14.4548C16.0467 14.5112 15.9938 14.5579 15.9331 14.5916L15.9112 14.6054H15.9103L14.8628 15.2257C14.4839 15.4481 14.0924 15.6792 13.7093 15.9076L12.3249 16.7247L12.3199 20.5262ZM8.78657 9.78397C9.49457 10.1975 10.203 10.6102 10.912 11.022L12.0099 11.6629L15.1905 9.7737L12.0049 7.86397L8.78657 9.78397ZM8.45818 10.3402L8.51796 14.0955L11.6909 15.9735L11.6959 12.2267L8.45818 10.3402ZM4.65208 8.12066L4.63607 16.3987L11.6874 20.5313L11.69 16.723L10.309 15.9059L9.44338 15.3934C8.99961 15.1316 8.5407 14.8603 8.09019 14.5925C7.95968 14.5301 7.87799 14.3778 7.88726 14.2109L7.81905 9.96794L4.65208 8.12066ZM19.0462 7.48237L17.8092 6.74997L16.4434 5.94141C15.1432 5.17478 13.6015 4.26441 12.0108 3.31809C10.3998 4.28529 8.78982 5.25414 7.18078 6.22462L4.96953 7.55681L8.15082 9.40921L11.8003 7.23168C11.9293 7.14727 12.0957 7.15065 12.2213 7.24024L15.822 9.39723L19.0462 7.48237ZM12.3249 15.976C13.3886 15.3463 14.4529 14.7177 15.518 14.0903V10.3316L12.3274 12.2259L12.3249 15.976ZM16.6421 15.2975C16.6104 15.3073 16.5775 15.3122 16.5445 15.3121C16.4541 15.3134 16.3671 15.2773 16.3036 15.212C16.2002 15.1173 16.1538 14.9741 16.1816 14.8355C16.2108 14.6519 16.3655 14.516 16.5486 14.513C16.6522 14.513 16.7532 14.5609 16.8265 14.6439L16.8273 14.6456C16.9308 14.7637 16.9565 14.9324 16.893 15.0768C16.8499 15.1876 16.7562 15.2699 16.6421 15.2975ZM18.3801 16.5022C18.2803 16.4232 18.226 16.2986 18.2353 16.1703C18.242 16.0343 18.311 15.9136 18.4222 15.8452C18.4773 15.8086 18.5417 15.789 18.6074 15.7887C18.6799 15.7887 18.7506 15.8118 18.813 15.8546C18.9404 15.9395 19.007 16.0926 18.983 16.2456C18.9602 16.4404 18.7981 16.5875 18.6049 16.5887C18.5222 16.5884 18.4424 16.5577 18.3801 16.5022ZM7.27425 14.5172C7.3795 14.5172 7.4797 14.566 7.5496 14.6507C7.65195 14.7667 7.67737 14.9331 7.61443 15.0751C7.55625 15.219 7.41725 15.312 7.26414 15.3096C7.15002 15.3052 7.0437 15.2496 6.97404 15.1577C6.90438 15.0657 6.87862 14.947 6.90374 14.8338C6.93856 14.6528 7.09282 14.5211 7.27425 14.5172ZM17.3419 15.8657C17.233 15.7732 17.1814 15.6285 17.2063 15.4866C17.2344 15.2999 17.3893 15.1598 17.5751 15.153C17.6677 15.153 17.757 15.1906 17.8277 15.2573C17.9347 15.3583 17.9793 15.5046 17.944 15.6415C17.9201 15.7723 17.8297 15.8804 17.7065 15.9256C17.5833 15.9744 17.4437 15.9515 17.3419 15.8657ZM6.47513 15.2471C6.58713 15.3412 6.63933 15.4909 6.6107 15.6296C6.59217 15.7557 6.51151 15.8635 6.39682 15.9153H6.39597C6.34595 15.9394 6.29136 15.9523 6.23599 15.953C6.16973 15.952 6.10503 15.9325 6.04905 15.8965C5.9212 15.8154 5.85023 15.6671 5.86633 15.5148C5.87565 15.3644 5.97088 15.2335 6.10967 15.1803C6.15091 15.1624 6.19532 15.1531 6.24019 15.153C6.3244 15.153 6.40608 15.1854 6.47513 15.2471ZM11.9569 3.58676C12.0664 3.58676 12.1699 3.63468 12.2432 3.71852C12.3333 3.81521 12.367 3.94954 12.3333 4.07788C12.2998 4.23004 12.177 4.34522 12.0251 4.36708H12.0209C11.8651 4.3982 11.7063 4.32973 11.6201 4.19424C11.5477 4.08096 11.5391 3.93745 11.5974 3.81607L11.5982 3.81436C11.6534 3.69405 11.7651 3.61056 11.8946 3.59275C11.9155 3.58885 11.9366 3.58684 11.9578 3.58676H11.9569ZM5.38972 15.8417C5.51182 15.9119 5.58592 16.0385 5.58508 16.1755C5.59242 16.3159 5.52446 16.4494 5.4074 16.5245C5.34629 16.5652 5.27498 16.5871 5.20194 16.5878C5.14164 16.5883 5.0823 16.5724 5.03016 16.5417C4.90555 16.4715 4.82914 16.3372 4.83143 16.1925C4.83143 16.0445 4.90638 15.9101 5.02595 15.8417C5.13781 15.7731 5.27786 15.7731 5.38972 15.8417ZM12.1598 6.18612C12.281 6.26267 12.3506 6.40089 12.3409 6.54547C12.3313 6.68897 12.2425 6.81457 12.1118 6.86975C12.0589 6.89426 12.0016 6.9071 11.9434 6.9074C11.8571 6.90833 11.7731 6.87936 11.7051 6.82526C11.5997 6.74604 11.5428 6.6165 11.5552 6.48387C11.5625 6.35232 11.6369 6.2342 11.7514 6.17243C11.8093 6.13857 11.875 6.12087 11.9418 6.12109C12.0194 6.12096 12.0953 6.14353 12.1607 6.18612H12.1598ZM11.6799 5.53756C11.5903 5.45739 11.5439 5.33836 11.5552 5.21756V5.21499C11.5665 5.09064 11.6348 4.97898 11.7397 4.91382C11.8005 4.87268 11.872 4.85094 11.9451 4.85136C12.0124 4.85136 12.0799 4.86933 12.1413 4.90269L12.1421 4.90355C12.2683 4.97253 12.3453 5.10801 12.3409 5.2535C12.3396 5.40693 12.2486 5.54484 12.1093 5.6043C12.0564 5.62878 11.999 5.64161 11.9409 5.64195C11.8439 5.64308 11.7501 5.60562 11.6799 5.53756Z" fill="black"/>
<path d="M23.5 12C23.5 18.3513 18.3513 23.5 12 23.5C5.64873 23.5 0.5 18.3513 0.5 12C0.5 5.64873 5.64873 0.5 12 0.5C18.3513 0.5 23.5 5.64873 23.5 12Z" stroke="black" stroke-opacity="0.097"/>
</svg>
