<svg width="24" height="24" viewBox="0 0 24 24" fill="none" xmlns="http://www.w3.org/2000/svg">
<path d="M12 24C18.6274 24 24 18.6274 24 12C24 5.37258 18.6274 0 12 0C5.37258 0 0 5.37258 0 12C0 18.6274 5.37258 24 12 24Z" fill="#7866D5"/>
<path d="M10.375 6C5.875 6 4 7.75787 4 10.1143V13.8857C4 16.2421 5.875 18 10.375 18H14.7344C18.8125 18 19 17.55 19 16.8C19 15.9429 18.625 15.6 17.6875 15.6H10.375C8.125 15.6 7 14.5738 7 13.5429V13.2H17.6875C18.4375 13.2 19 12.75 19 12C19 11.25 18.4375 10.8 17.6875 10.8H7V10.4571C7 9.42621 8.125 8.4 10.375 8.4H17.6875C18.625 8.4 19 8.0571 19 7.2C19 6.44996 18.8125 6 14.7344 6H10.375Z" fill="white"/>
<path d="M23.5 12C23.5 18.3513 18.3513 23.5 12 23.5C5.64873 23.5 0.5 18.3513 0.5 12C0.5 5.64873 5.64873 0.5 12 0.5C18.3513 0.5 23.5 5.64873 23.5 12Z" stroke="white" stroke-opacity="0.3"/>
</svg>
