<svg width="24" height="24" viewBox="0 0 24 24" fill="none" xmlns="http://www.w3.org/2000/svg">
<path fill-rule="evenodd" clip-rule="evenodd" d="M0 12C0 5.37259 5.37259 0 12 0C18.6274 0 24 5.37259 24 12C24 18.6274 18.6274 24 12 24C5.37259 24 0 18.6274 0 12Z" fill="black"/>
<path d="M16.1561 13.5591L6.53741 9.11857V6.01025L16.1561 10.4508V13.5591Z" fill="#D2D5D8"/>
<path d="M6.53741 18.0001L16.1561 13.5595V10.4512L6.53741 14.8918V18.0001Z" fill="#D2D5D8"/>
<path d="M18.6529 9.12839H6.53735V6H19.763L18.6529 9.12839Z" fill="white"/>
<path d="M16.1561 13.5644H4.11011L3 10.436H16.1561V13.5644Z" fill="white"/>
<path d="M18.6529 18H6.53735V14.8716H19.763L18.6529 18Z" fill="white"/>
<path d="M23.5 12C23.5 18.3513 18.3513 23.5 12 23.5C5.64873 23.5 0.5 18.3513 0.5 12C0.5 5.64873 5.64873 0.5 12 0.5C18.3513 0.5 23.5 5.64873 23.5 12Z" stroke="white" stroke-opacity="0.3"/>
</svg>
