<svg width="24" height="24" viewBox="0 0 24 24" fill="none" xmlns="http://www.w3.org/2000/svg">
<path fill-rule="evenodd" clip-rule="evenodd" d="M0 12C0 5.37259 5.37259 0 12 0C18.6274 0 24 5.37259 24 12C24 18.6274 18.6274 24 12 24C5.37259 24 0 18.6274 0 12Z" fill="black"/>
<path d="M23.5 12C23.5 18.3513 18.3513 23.5 12 23.5C5.64873 23.5 0.5 18.3513 0.5 12C0.5 5.64873 5.64873 0.5 12 0.5C18.3513 0.5 23.5 5.64873 23.5 12Z" stroke="white" stroke-opacity="0.3"/>
<path d="M5.45317 10.6H20C20.0001 10.0747 19.8967 9.55451 19.6958 9.06917C19.4948 8.58382 19.2002 8.14281 18.8288 7.77134C18.4574 7.39986 18.0164 7.10518 17.5311 6.90413C17.0458 6.70308 16.5257 6.59961 16.0004 6.59961H4L5.45317 10.6Z" fill="white"/>
<path d="M18.3998 12.6001H4C4 13.6611 4.42147 14.6786 5.17169 15.4288C5.9219 16.179 6.93941 16.6005 8.00038 16.6005H20L18.3998 12.6001Z" fill="white"/>
</svg>
