<svg width="24" height="24" viewBox="0 0 24 24" fill="none" xmlns="http://www.w3.org/2000/svg">
<path fill-rule="evenodd" clip-rule="evenodd" d="M0 12C0 5.37259 5.37259 0 12 0C18.6274 0 24 5.37259 24 12C24 18.6274 18.6274 24 12 24C5.37259 24 0 18.6274 0 12Z" fill="black"/>
<path d="M23.5 12C23.5 18.3513 18.3513 23.5 12 23.5C5.64873 23.5 0.5 18.3513 0.5 12C0.5 5.64873 5.64873 0.5 12 0.5C18.3513 0.5 23.5 5.64873 23.5 12Z" stroke="white" stroke-opacity="0.3"/>
<path d="M16.6825 11.9448C16.6825 12.5511 16.563 13.1515 16.331 13.7117C16.099 14.2719 15.7589 14.7809 15.3301 15.2096C14.9014 15.6384 14.3924 15.9785 13.8322 16.2105C13.272 16.4426 12.6716 16.562 12.0653 16.562C11.4589 16.562 10.8585 16.4426 10.2983 16.2105C9.73814 15.9785 9.22914 15.6384 8.80039 15.2096C8.37165 14.7809 8.03154 14.2719 7.79951 13.7117C7.56747 13.1515 7.44804 12.5511 7.44804 11.9448C7.44804 11.3384 7.56747 10.738 7.79951 10.1778C8.03154 9.61766 8.37165 9.10866 8.80039 8.67992C9.22914 8.25117 9.73814 7.91107 10.2983 7.67903C10.8585 7.447 11.4589 7.32757 12.0653 7.32757C12.6716 7.32757 13.272 7.447 13.8322 7.67903C14.3924 7.91107 14.9014 8.25117 15.3301 8.67992C15.7589 9.10866 16.099 9.61766 16.331 10.1778C16.563 10.738 16.6825 11.3384 16.6825 11.9448V11.9448Z" stroke="white" stroke-width="2.2904"/>
<path fill-rule="evenodd" clip-rule="evenodd" d="M8.76999 8.57985L6.12999 6.05985L8.76999 8.57985Z" stroke="white" stroke-width="2.41604"/>
<path fill-rule="evenodd" clip-rule="evenodd" d="M15.49 8.64L18.01 6L15.49 8.64Z" stroke="white" stroke-width="2.41604"/>
<path fill-rule="evenodd" clip-rule="evenodd" d="M18.13 17.9398L15.49 15.4198L18.13 17.9398Z" stroke="white" stroke-width="2.41604"/>
<path fill-rule="evenodd" clip-rule="evenodd" d="M6.00999 17.9999L8.52999 15.3599L6.00999 17.9999Z" stroke="white" stroke-width="2.41604"/>
</svg>
