<svg width="24" height="24" viewBox="0 0 24 24" fill="none" xmlns="http://www.w3.org/2000/svg">
<path d="M12 24C18.6274 24 24 18.6274 24 12C24 5.37258 18.6274 0 12 0C5.37258 0 0 5.37258 0 12C0 18.6274 5.37258 24 12 24Z" fill="url(#paint0_radial)"/>
<path fill-rule="evenodd" clip-rule="evenodd" d="M10.9884 4H13.2839V5.6542C15.7872 6.03128 17.5842 7.68452 17.8683 9.91589H14.6842C14.3683 8.80624 13.421 8.13008 12.1842 8.13008C10.3596 8.13008 9.2807 9.54311 9.2807 11.979C9.2807 14.4583 10.4737 15.958 12.3246 15.958C13.7807 15.958 14.7982 15.1084 14.8859 13.8516L14.8947 13.6608H12.5789V11.4762H18V13.0107C18 16.0871 16.2635 18.0876 13.2839 18.4543V20H10.9884V18.4244C7.84829 17.953 6 15.6658 6 12.0223C6 8.40372 7.87029 6.10923 10.9884 5.65564V4Z" fill="white"/>
<path d="M23.5 12C23.5 18.3513 18.3513 23.5 12 23.5C5.64873 23.5 0.5 18.3513 0.5 12C0.5 5.64873 5.64873 0.5 12 0.5C18.3513 0.5 23.5 5.64873 23.5 12Z" stroke="black" stroke-opacity="0.097"/>
<defs>
<radialGradient id="paint0_radial" cx="0" cy="0" r="1" gradientUnits="userSpaceOnUse" gradientTransform="translate(30.4753 -5.88331) rotate(134.185) scale(43.0753 39.4556)">
<stop stop-color="#29E7E8"/>
<stop offset="1" stop-color="#651FFF"/>
</radialGradient>
</defs>
</svg>
