<svg width="24" height="24" viewBox="0 0 24 24" fill="none" xmlns="http://www.w3.org/2000/svg">
<path d="M12 24C18.6274 24 24 18.6274 24 12C24 5.37258 18.6274 0 12 0C5.37258 0 0 5.37258 0 12C0 18.6274 5.37258 24 12 24Z" fill="#FE8601"/>
<path d="M23.5 12C23.5 18.3513 18.3513 23.5 12 23.5C5.64873 23.5 0.5 18.3513 0.5 12C0.5 5.64873 5.64873 0.5 12 0.5C18.3513 0.5 23.5 5.64873 23.5 12Z" stroke="black" stroke-opacity="0.097"/>
<path d="M13.775 18.5373C12.9362 18.5541 12.1645 18.3953 11.3928 18.2225C11.2921 18.2002 11.1943 18.1752 11.0936 18.1529C11.0293 18.139 10.9929 18.1529 10.9762 18.2281C10.923 18.4482 10.8587 18.6655 10.8056 18.8856C10.7804 18.9887 10.7413 19.0221 10.6295 18.9859C10.4813 18.9357 10.3247 18.9051 10.1709 18.8661C10.0926 18.8466 10.0591 18.8104 10.087 18.7156C10.1541 18.49 10.2017 18.2587 10.266 18.0303C10.2911 17.9467 10.2604 17.9217 10.1905 17.9049C10.0507 17.8715 9.90808 17.8436 9.77107 17.7991C9.67042 17.7656 9.63686 17.8046 9.6145 17.891C9.56417 18.0972 9.50545 18.3033 9.45512 18.5095C9.43275 18.6014 9.39081 18.6265 9.29575 18.5958C9.15874 18.5513 9.01894 18.5123 8.87914 18.4844C8.76171 18.4621 8.71977 18.4203 8.75891 18.2978C8.82042 18.0944 8.85957 17.8854 8.91828 17.6793C8.94065 17.5985 8.92667 17.5706 8.84279 17.5483C8.22207 17.3868 7.60415 17.2224 6.98343 17.0552C6.68705 16.9772 6.39347 16.8881 6.09709 16.8129C5.96568 16.7794 5.99923 16.6986 6.0188 16.6206C6.03837 16.5426 6.04676 16.4507 6.17818 16.4897C6.4438 16.5705 6.71501 16.6373 6.98343 16.7126C7.08409 16.7404 7.14001 16.7293 7.17077 16.6095C7.41682 15.679 7.67126 14.7485 7.9229 13.8208C8.33112 12.3024 8.74213 10.7813 9.15035 9.26021C9.44114 8.17927 9.73193 7.09833 10.0227 6.0146C10.0702 5.83352 10.0702 5.83073 9.88571 5.78337C9.63407 5.71929 9.38242 5.64965 9.12799 5.59393C8.96022 5.55771 9.02453 5.46578 9.04131 5.36827C9.06088 5.25405 9.10841 5.23733 9.21466 5.26797C9.96679 5.47413 10.7217 5.67193 11.4767 5.87252C11.6192 5.91152 11.7674 5.9366 11.9072 5.98117C12.0247 6.02017 12.0694 5.97839 12.0974 5.87252C12.1617 5.62179 12.2316 5.37105 12.2959 5.12032C12.3211 5.0256 12.349 4.97267 12.4664 5.01446C12.6146 5.06739 12.7684 5.10361 12.9222 5.13982C13.0201 5.16211 13.0312 5.21504 13.0061 5.30141C12.9306 5.5605 12.8663 5.81959 12.7908 6.07868C12.76 6.17897 12.7852 6.22633 12.8858 6.24862C13.0173 6.27648 13.1487 6.30991 13.2773 6.34891C13.3668 6.37677 13.4031 6.34056 13.4255 6.25698C13.4926 6.00346 13.5681 5.74994 13.6352 5.49363C13.6576 5.40449 13.6883 5.36827 13.789 5.4017C13.9427 5.45185 14.1021 5.48806 14.2587 5.52985C14.337 5.54935 14.3733 5.58 14.3454 5.67472C14.2671 5.93103 14.2084 6.1929 14.1329 6.45199C14.1049 6.54393 14.1357 6.58293 14.2168 6.60243C14.7844 6.73337 15.3212 6.96182 15.872 7.1429C16.037 7.19862 16.188 7.31842 16.3501 7.40478C16.7248 7.60537 17.0771 7.8366 17.3707 8.14584C17.7705 8.5693 18.0082 9.05962 17.9998 9.65859C17.9914 10.4749 17.7537 11.202 17.1666 11.787C16.8646 12.0879 16.4871 12.2634 16.0761 12.3749C15.6511 12.4891 15.2205 12.4863 14.7899 12.4863C14.7424 12.4863 14.6613 12.4473 14.6501 12.5281C14.6418 12.5977 14.72 12.6005 14.7676 12.6256C15.4694 12.9683 16.1404 13.3499 16.6158 13.9963C16.873 14.3473 17.0352 14.7401 17.0715 15.1747C17.1414 15.9882 16.9065 16.7265 16.4508 17.3895C16.0118 18.0219 15.3687 18.3451 14.6194 18.4733C14.3286 18.5318 14.0322 18.5457 13.775 18.5373ZM14.5243 12.2467C14.5159 12.2189 14.5103 12.1966 14.5047 12.1743C14.1636 10.8983 13.8225 9.62238 13.4814 8.34642C13.4115 8.08176 13.4087 8.08455 13.2102 8.27399C12.1421 9.302 11.0768 10.33 10.0059 11.3552C9.92765 11.4304 9.93324 11.4722 10.0087 11.5447C10.498 12.0155 10.9845 12.4863 11.4683 12.9627C11.5493 13.0407 11.622 13.0546 11.7283 13.0268C12.2735 12.8847 12.8187 12.7482 13.364 12.6117C13.7051 12.5253 14.049 12.4389 14.3901 12.347C14.4432 12.3331 14.5271 12.3359 14.5243 12.2467ZM14.3929 12.7565C14.337 12.7398 14.2923 12.7565 14.2475 12.7677C13.3472 12.9989 12.4441 13.2274 11.5438 13.4614C11.4571 13.4837 11.3984 13.4697 11.3341 13.4029C10.6938 12.7733 10.0507 12.1492 9.40759 11.5252C9.37683 11.4945 9.35167 11.4499 9.29575 11.4499C9.27058 11.5084 9.30693 11.5586 9.32091 11.6115C9.46631 12.1548 9.6145 12.6953 9.75989 13.2357C10.0395 14.2804 10.3191 15.3224 10.5987 16.3671C10.6322 16.4953 10.649 16.498 10.7469 16.4033C10.9119 16.239 11.074 16.0718 11.2362 15.9074C11.7758 15.3697 12.3183 14.8348 12.8579 14.2944C13.3668 13.7873 13.8728 13.2775 14.3929 12.7565ZM13.3192 7.73909C13.2801 7.59144 13.2354 7.43264 13.199 7.26827C13.1738 7.15683 13.1375 7.15405 13.0592 7.23205C12.7796 7.519 12.4972 7.80038 12.2148 8.08176C11.348 8.94818 10.4785 9.81182 9.6089 10.6782C9.36844 10.9178 9.37404 10.915 9.6117 11.1519C9.69838 11.241 9.7487 11.2466 9.84377 11.1546C10.9762 10.0598 12.1141 8.97047 13.2493 7.87839C13.2829 7.84774 13.3276 7.8171 13.3192 7.73909ZM13.7554 7.64437C14.0043 7.64437 14.2084 7.43821 14.2028 7.19026C14.2 6.93674 13.9959 6.74173 13.747 6.74452C13.5038 6.7473 13.308 6.94789 13.3053 7.19026C13.3025 7.43264 13.5094 7.64158 13.7554 7.64437Z" fill="white"/>
</svg>
