<svg width="24" height="24" viewBox="0 0 24 24" fill="none" xmlns="http://www.w3.org/2000/svg">
<path d="M12 24C18.6274 24 24 18.6274 24 12C24 5.37258 18.6274 0 12 0C5.37258 0 0 5.37258 0 12C0 18.6274 5.37258 24 12 24Z" fill="#F5F5F5"/>
<path d="M9.0116 11.7937L11.8186 18.9303H12.1523L14.9592 11.7937H9.0116Z" fill="#7ECAFF"/>
<path d="M11.376 18.6924C11.4931 18.8197 11.6509 18.899 11.8186 18.9304L9.01165 11.7938L5.08829 10.6025C5.10616 10.7303 4.68212 10.1255 11.376 18.6924Z" fill="#B0E6FF"/>
<path d="M6.47706 11.0241L5.08829 10.6025C5.10616 10.7303 4.68215 10.1255 11.376 18.6924C11.4627 18.7866 11.5718 18.8544 11.6907 18.8961L6.47706 11.0241Z" fill="#70C0E2"/>
<path d="M7.40637 7.66056L9.01158 11.7937L11.9854 8.52343L7.46062 7.63458C7.44097 7.64282 7.42278 7.65155 7.40637 7.66056Z" fill="#B0E6FF"/>
<path d="M14.9592 11.7937L12.1522 18.9303C12.32 18.8989 12.4777 18.8197 12.5949 18.6924C14.3357 16.4698 18.9031 10.6458 18.9169 10.592L14.9592 11.7937Z" fill="#B0E6FF"/>
<path d="M14.9592 11.7938L16.5639 7.66197C16.545 7.6516 16.5261 7.64282 16.5078 7.63513L11.9854 8.52351L14.9592 11.7938Z" fill="#B0E6FF"/>
<path d="M9.0116 11.7937H14.9592L11.9854 8.52344L9.0116 11.7937Z" fill="#5EBFF5"/>
<path d="M7.40631 7.66058C7.30044 7.71861 7.28411 7.75293 7.1177 7.95864C4.95125 10.6366 5.06457 10.4342 5.08817 10.6024L9.01152 11.7937L7.40631 7.66058Z" fill="#7ECAFF"/>
<path d="M6.47696 11.0242L7.43306 7.72943L7.40633 7.66058C7.3005 7.71861 7.28413 7.75293 7.11772 7.95864C4.95124 10.6367 5.06459 10.4342 5.08816 10.6025L6.47696 11.0242Z" fill="#57B5DD"/>
<path d="M14.9592 11.7937L18.9169 10.5921C18.9281 10.5361 18.9113 10.5029 18.8831 10.4681C16.9205 8.03936 16.6483 7.6817 16.5639 7.66193L14.9592 11.7937Z" fill="#7ECAFF"/>
<path d="M11.9854 8.52347L16.5079 7.6351C16.4127 7.5953 16.3368 7.58954 16.3339 7.58905L12.6891 7.11583C11.5424 6.96693 11.0482 7.192 7.62726 7.5903C7.62199 7.59139 7.54847 7.59778 7.46057 7.63465L11.9854 8.52347Z" fill="#5EBFF5"/>
<path d="M23.5 12C23.5 18.3513 18.3513 23.5 12 23.5C5.64873 23.5 0.5 18.3513 0.5 12C0.5 5.64873 5.64873 0.5 12 0.5C18.3513 0.5 23.5 5.64873 23.5 12Z" stroke="black" stroke-opacity="0.097"/>
</svg>
