<svg width="24" height="24" viewBox="0 0 24 24" fill="none" xmlns="http://www.w3.org/2000/svg">
<path d="M12 24C18.6274 24 24 18.6274 24 12C24 5.37258 18.6274 0 12 0C5.37258 0 0 5.37258 0 12C0 18.6274 5.37258 24 12 24Z" fill="#DEF1F5"/>
<path d="M23.5 12C23.5 18.3513 18.3513 23.5 12 23.5C5.64873 23.5 0.5 18.3513 0.5 12C0.5 5.64873 5.64873 0.5 12 0.5C18.3513 0.5 23.5 5.64873 23.5 12Z" stroke="black" stroke-opacity="0.097"/>
<path d="M8.8125 11.4609C7.25922 11.4609 6 12.7202 6 14.2734C6 15.8267 7.25922 17.0859 8.8125 17.0859C10.3658 17.0859 11.625 15.8267 11.625 14.2734C11.625 12.7202 10.3658 11.4609 8.8125 11.4609ZM8.8125 15.3281C8.23096 15.3281 7.75781 14.855 7.75781 14.2734C7.75781 13.6919 8.23096 13.2188 8.8125 13.2188C9.39404 13.2188 9.86719 13.6919 9.86719 14.2734C9.86719 14.855 9.39404 15.3281 8.8125 15.3281Z" fill="#423E32"/>
<path d="M8.8125 13.9219C8.61868 13.9219 8.46094 14.0796 8.46094 14.2734C8.46094 14.4673 8.61868 14.625 8.8125 14.625C9.00632 14.625 9.16406 14.4673 9.16406 14.2734C9.16406 14.0796 9.00632 13.9219 8.8125 13.9219Z" fill="#423E32"/>
<path d="M15.1875 9C15.1875 8.80618 15.3452 8.64844 15.5391 8.64844V7.94531C14.9575 7.94531 14.4844 8.41846 14.4844 9V10.0547H15.1875V9Z" fill="#423E32"/>
<path d="M13.4557 13.5703C13.9427 12.7303 14.8518 12.1641 15.8906 12.1641C16.4026 12.1641 16.883 12.3016 17.2969 12.5416V12.1641C17.2969 11.3886 16.6661 10.7578 15.8906 10.7578H11.1418C10.4738 10.3138 9.67291 10.0547 8.8125 10.0547C7.83426 10.0547 6.88074 10.3972 6.12772 11.0191L6.57541 11.5613C7.20282 11.0432 7.99731 10.7578 8.8125 10.7578C10.5103 10.7578 11.9308 11.9676 12.2574 13.5703H13.4557Z" fill="#423E32"/>
<path d="M13.1671 14.2734H12.3281V15.3281H13.1001C13.0856 15.213 13.0781 15.0956 13.0781 14.9766C13.0781 14.7339 13.1091 14.4983 13.1671 14.2734Z" fill="#423E32"/>
<path d="M15.8906 12.8672C14.7256 12.8672 13.7812 13.8116 13.7812 14.9766C13.7812 16.1416 14.7256 17.0859 15.8906 17.0859C17.0556 17.0859 18 16.1416 18 14.9766C18 13.8116 17.0556 12.8672 15.8906 12.8672ZM15.8906 15.3281C15.6964 15.3281 15.5391 15.1707 15.5391 14.9766C15.5391 14.7824 15.6964 14.625 15.8906 14.625C16.0848 14.625 16.2422 14.7824 16.2422 14.9766C16.2422 15.1707 16.0848 15.3281 15.8906 15.3281Z" fill="#423E32"/>
<path d="M7.75781 9.46628C8.10242 9.39056 8.45599 9.35156 8.8125 9.35156C9.70981 9.35156 10.5807 9.59399 11.3453 10.0547H12.7148L12.0688 7.59375H12.6797V6.89062H7.05469V7.59375H7.75781V9.46628Z" fill="#423E32"/>
</svg>
