<svg width="24" height="24" viewBox="0 0 24 24" fill="none" xmlns="http://www.w3.org/2000/svg">
<path d="M12 24C18.6274 24 24 18.6274 24 12C24 5.37258 18.6274 0 12 0C5.37258 0 0 5.37258 0 12C0 18.6274 5.37258 24 12 24Z" fill="black"/>
<path d="M23.5 12C23.5 18.3513 18.3513 23.5 12 23.5C5.64873 23.5 0.5 18.3513 0.5 12C0.5 5.64873 5.64873 0.5 12 0.5C18.3513 0.5 23.5 5.64873 23.5 12Z" stroke="white" stroke-opacity="0.3"/>
<path fill-rule="evenodd" clip-rule="evenodd" d="M18.9999 8V16L12.1999 20L5.3999 16V8L12.1999 4L18.9999 8ZM11.9855 12.3256L11.3535 12.6992L12.5343 13.3888L13.1623 13.0184L14.8415 14.0064L12.3367 15.4784L7.1407 12.4496L7.1191 13.924L12.3399 16.956L17.3559 14.0064L14.4167 12.2768L15.0087 11.9272L13.8279 11.2376L13.2399 11.5848L12.4159 11.1L13.1367 10.6736L11.9559 9.9832L11.2383 10.4072L9.8351 9.5816L12.3391 8.1088L15.8015 10.132L17.0703 9.3816L12.3367 6.6312L7.3207 9.5816L9.9839 11.1488L9.4815 11.4448L10.6623 12.1352L11.1607 11.8408L11.9847 12.3256H11.9855Z" fill="white"/>
</svg>
