<svg width="24" height="24" viewBox="0 0 24 24" fill="none" xmlns="http://www.w3.org/2000/svg">
<path d="M12 24C18.6274 24 24 18.6274 24 12C24 5.37258 18.6274 0 12 0C5.37258 0 0 5.37258 0 12C0 18.6274 5.37258 24 12 24Z" fill="#4FFB75"/>
<path d="M6 14.5451H7.68144V18.6727H6V14.5451ZM16.3186 11.8469H18V15.9745H16.3186V11.8469ZM8.55808 10.4904H10.2395V20H8.55808V10.4904ZM11.1737 10.8842H12.8551V18.1914H11.1737V10.8842ZM13.7317 4H15.4132V15.9745H13.7317V4Z" fill="white"/>
<path d="M23.5 12C23.5 18.3513 18.3513 23.5 12 23.5C5.64873 23.5 0.5 18.3513 0.5 12C0.5 5.64873 5.64873 0.5 12 0.5C18.3513 0.5 23.5 5.64873 23.5 12Z" stroke="black" stroke-opacity="0.097"/>
</svg>
