<svg width="24" height="24" viewBox="0 0 24 24" fill="none" xmlns="http://www.w3.org/2000/svg">
<path d="M12 24C18.6274 24 24 18.6274 24 12C24 5.37258 18.6274 0 12 0C5.37258 0 0 5.37258 0 12C0 18.6274 5.37258 24 12 24Z" fill="black"/>
<path d="M8.69998 18H6.59998L12 8.84998L17.4 18H15.45" stroke="#35A936" stroke-width="0.5"/>
<path d="M17.4 6L12 15.15L6.59998 6H17.4Z" stroke="#35A936" stroke-width="0.5"/>
<line x1="6.59998" y1="11.9" x2="17.4" y2="11.9" stroke="#35A936" stroke-width="0.5"/>
<path d="M23.5 12C23.5 18.3513 18.3513 23.5 12 23.5C5.64873 23.5 0.5 18.3513 0.5 12C0.5 5.64873 5.64873 0.5 12 0.5C18.3513 0.5 23.5 5.64873 23.5 12Z" stroke="black" stroke-opacity="0.097"/>
</svg>
