<svg width="24" height="24" viewBox="0 0 24 24" fill="none" xmlns="http://www.w3.org/2000/svg">
<path d="M12 24C18.6274 24 24 18.6274 24 12C24 5.37258 18.6274 0 12 0C5.37258 0 0 5.37258 0 12C0 18.6274 5.37258 24 12 24Z" fill="#1ED17D"/>
<path d="M23.5 12C23.5 18.3513 18.3513 23.5 12 23.5C5.64873 23.5 0.5 18.3513 0.5 12C0.5 5.64873 5.64873 0.5 12 0.5C18.3513 0.5 23.5 5.64873 23.5 12Z" stroke="white" stroke-opacity="0.3"/>
<path d="M6.78252 14.8834C6.37271 14.5065 5.99196 14.1571 5.59479 13.792C5.85087 13.512 6.09599 13.2443 6.3407 12.9766C6.80063 12.4745 7.28246 11.9906 7.71333 11.4644C8.0865 11.0091 8.53295 10.8898 9.08006 10.9948C9.23801 11.0252 9.40016 11.0403 9.56063 11.0488C10.0863 11.0762 10.5133 10.8738 10.8659 10.4872C12.0675 9.1698 13.2733 7.85575 14.4762 6.53916C14.523 6.48815 14.5546 6.42323 14.6022 6.35156C15.0255 6.7411 15.4054 7.09059 15.7975 7.45146C15.4167 7.86924 15.0545 8.26889 14.6902 8.66644C13.9409 9.4843 13.187 10.2984 12.4419 11.12C12.1429 11.4497 11.7895 11.5627 11.3612 11.4569C11.1843 11.413 11.0053 11.3763 10.8296 11.3283C10.3832 11.206 10.0176 11.3342 9.71057 11.671C8.79745 12.6723 7.88222 13.6714 6.96784 14.6714C6.91182 14.7333 6.85791 14.7974 6.78252 14.8834Z" fill="white"/>
<path d="M21 12.2444C20.6479 12.6222 20.3269 12.994 19.9761 13.3346C19.7356 13.5678 19.4243 13.6238 19.0929 13.5387C18.8894 13.4864 18.6826 13.4468 18.4784 13.397C18.0538 13.2933 17.7047 13.4219 17.4162 13.7377C16.634 14.5918 15.8531 15.4472 15.0714 16.3017C14.0956 17.3687 13.1193 18.4353 12.1446 19.5036C12.0979 19.555 12.0697 19.6233 12.0255 19.6954C11.5925 19.2974 11.2113 18.9475 10.8133 18.5816C11.1494 18.2131 11.4741 17.8565 11.7997 17.5002C13.0413 16.1436 14.2855 14.7895 15.5238 13.4295C15.8102 13.115 16.1488 13.0197 16.5649 13.061C16.9587 13.1002 17.3665 13.1378 17.7518 13.0754C18.0066 13.0341 18.2699 12.8545 18.4636 12.6677C18.8979 12.2499 19.2959 11.7934 19.6973 11.3427C19.8186 11.2065 19.891 11.2179 20.014 11.3372C20.3307 11.6429 20.6609 11.9342 21 12.2444Z" fill="white"/>
<path d="M9.39473 17.2799C8.98197 16.9013 8.6008 16.5514 8.20447 16.188C8.47065 15.8958 8.72421 15.6163 8.97902 15.3381C9.88414 14.3491 10.7905 13.3613 11.6944 12.371C11.95 12.0911 12.2562 11.9688 12.6366 12.0194C12.8867 12.0527 13.1394 12.0641 13.3909 12.0856C13.9014 12.129 14.3284 11.9562 14.6738 11.5814C15.4298 10.7606 16.1837 9.93768 16.9385 9.11561C17.0324 9.01316 17.128 8.91241 17.2384 8.79395C17.6276 9.14976 18.0024 9.4925 18.3891 9.8462C18.0492 10.218 17.7286 10.5705 17.4069 10.9212C17.0181 11.3453 16.626 11.7673 16.2393 12.1935C15.9727 12.4874 15.6434 12.5725 15.2656 12.4971C15.0596 12.4558 14.8558 12.4026 14.6511 12.3546C14.2219 12.2547 13.863 12.374 13.5674 12.6977C12.7162 13.6311 11.8645 14.5641 11.0125 15.4966C10.5201 16.0354 10.0261 16.5729 9.53329 17.1112C9.49075 17.158 9.45327 17.2086 9.39473 17.2799Z" fill="white"/>
<path d="M3 11.3999C3.28893 11.0825 3.56607 10.7773 3.84363 10.4729C3.90049 10.4105 3.96114 10.3519 4.01589 10.2878C4.27155 9.98934 4.5967 9.88858 4.97913 9.93664C5.20867 9.96573 5.43906 9.98892 5.66945 10.0079C6.2292 10.0538 6.67523 9.83715 7.04839 9.42611C7.94888 8.43288 8.85695 7.44681 9.76206 6.45779C10.4777 5.67577 11.1928 4.89374 11.9084 4.11214C11.9408 4.07673 11.9787 4.04595 12.028 4C12.4092 4.34949 12.7845 4.69391 13.1799 5.05647C13.041 5.21203 12.9133 5.35748 12.7824 5.49997C11.384 7.02734 9.98529 8.55387 8.58697 10.0812C8.30815 10.386 7.97541 10.5142 7.56518 10.4105C7.36133 10.3591 7.15706 10.3097 6.95152 10.2655C6.5514 10.179 6.19761 10.2642 5.91457 10.5711C5.38641 11.1436 4.85783 11.7161 4.33809 12.2966C4.21174 12.4383 4.12708 12.4518 3.98683 12.3143C3.67221 12.0062 3.34158 11.7144 3 11.3999Z" fill="white"/>
</svg>
