<svg width="24" height="24" viewBox="0 0 24 24" fill="none" xmlns="http://www.w3.org/2000/svg">
<path d="M12 24C18.6274 24 24 18.6274 24 12C24 5.37258 18.6274 0 12 0C5.37258 0 0 5.37258 0 12C0 18.6274 5.37258 24 12 24Z" fill="#F5F5F5"/>
<path d="M16.143 19.1766L5.2063 11.5038C4.45014 10.9731 4 10.1073 4 9.18349C4 8.25968 4.45014 7.39382 5.2063 6.86314L7.85704 5L18.7937 12.6718C19.5498 13.2026 20 14.0684 20 14.9922C20 15.916 19.5498 16.7818 18.7937 17.3126L16.143 19.1766ZM7.85513 6.24337L5.78985 7.68792C5.30239 8.02863 5.012 8.5859 5.012 9.18062C5.012 9.77535 5.30239 10.3326 5.78985 10.6734L16.1449 17.9333L18.2102 16.4887C18.6976 16.148 18.988 15.5907 18.988 14.996C18.988 14.4013 18.6976 13.844 18.2102 13.5034L7.85513 6.24337Z" fill="#48BEFF"/>
<path d="M7.8456 17.9332L5.78318 16.4868C5.29571 16.146 5.00532 15.5888 5.00532 14.994C5.00532 14.3993 5.29571 13.8421 5.78318 13.5014L11.1228 9.77509L10.2456 9.15722L5.2063 12.6728C4.45014 13.2035 4 14.0693 4 14.9931C4 15.9169 4.45014 16.7828 5.2063 17.3135L7.8475 19.168L11.1161 16.8796L10.2389 16.2617L7.8456 17.9332ZM18.7975 6.86787L16.1534 5.01331L12.883 7.30171L13.7602 7.91958L16.1496 6.24714L18.2121 7.69359C18.6995 8.03431 18.9899 8.59157 18.9899 9.1863C18.9899 9.78103 18.6995 10.3383 18.2121 10.679L12.8725 14.4053L13.7497 15.0232L18.7918 11.5009C19.5479 10.9702 19.9981 10.1044 19.9981 9.18058C19.9981 8.25678 19.5479 7.39092 18.7918 6.86023L18.7975 6.86787Z" fill="#3C91E6"/>
<path fill-rule="evenodd" clip-rule="evenodd" d="M5.83179 12.2276L9.99096 9.3175L10.5707 10.1451L6.41152 13.0562L5.83179 12.2276Z" fill="#3C91E6"/>
<path fill-rule="evenodd" clip-rule="evenodd" d="M17.679 11.0547L15.6538 12.4698L16.2326 13.2983L18.3303 11.8271C18.1072 11.5725 17.8916 11.3122 17.6752 11.0509L17.679 11.0547Z" fill="#3C91E6"/>
<path d="M23.5 12C23.5 18.3513 18.3513 23.5 12 23.5C5.64873 23.5 0.5 18.3513 0.5 12C0.5 5.64873 5.64873 0.5 12 0.5C18.3513 0.5 23.5 5.64873 23.5 12Z" stroke="black" stroke-opacity="0.097"/>
</svg>
