<svg width="24" height="24" viewBox="0 0 24 24" fill="none" xmlns="http://www.w3.org/2000/svg">
<path d="M12 24C18.6274 24 24 18.6274 24 12C24 5.37258 18.6274 0 12 0C5.37258 0 0 5.37258 0 12C0 18.6274 5.37258 24 12 24Z" fill="#F5F5F5"/>
<path d="M5.33334 8.69458V15.8334C5.33334 16.2016 5.03486 16.5001 4.66666 16.5001C4.29848 16.5001 4 16.2016 4 15.8334V8.25816C4.00007 7.85262 4.22652 7.48221 4.58561 7.29364C4.93994 7.10758 5.36843 7.12724 5.70406 7.34532L10.6426 10.5551C11.073 10.8351 11.3334 11.3107 11.3334 11.8219V15.8334C11.3334 16.2016 11.0349 16.5001 10.6666 16.5001C10.2985 16.5001 10 16.2016 10 15.8334V11.8218C10 11.7637 9.96938 11.7078 9.91574 11.6729L5.33334 8.69458Z" fill="#37CFBB"/>
<path d="M18.6667 8.69458V15.8334C18.6667 16.2016 18.9652 16.5001 19.3335 16.5001C19.7016 16.5001 20.0001 16.2016 20.0001 15.8334V8.25816C20 7.85262 19.7735 7.48221 19.4145 7.29364C19.0602 7.10758 18.6317 7.12724 18.296 7.34532L13.3575 10.5551C12.9271 10.8351 12.6667 11.3107 12.6667 11.8219V15.8334C12.6667 16.2016 12.9652 16.5001 13.3335 16.5001C13.7016 16.5001 14.0001 16.2016 14.0001 15.8334V11.8218C14.0001 11.7637 14.0307 11.7078 14.0843 11.6729L18.6667 8.69458Z" fill="#291A41"/>
<path d="M23.5 12C23.5 18.3513 18.3513 23.5 12 23.5C5.64873 23.5 0.5 18.3513 0.5 12C0.5 5.64873 5.64873 0.5 12 0.5C18.3513 0.5 23.5 5.64873 23.5 12Z" stroke="black" stroke-opacity="0.097"/>
</svg>
