<svg width="24" height="24" viewBox="0 0 24 24" fill="none" xmlns="http://www.w3.org/2000/svg">
<path d="M12 24C18.6274 24 24 18.6274 24 12C24 5.37258 18.6274 0 12 0C5.37258 0 0 5.37258 0 12C0 18.6274 5.37258 24 12 24Z" fill="#F5F5F5"/>
<path d="M11.5334 19.821C15.8617 19.821 19.3705 16.3122 19.3705 11.9839C19.3705 7.65559 15.8617 4.14679 11.5334 4.14679C7.20509 4.14679 3.69629 7.65559 3.69629 11.9839C3.69629 16.3122 7.20509 19.821 11.5334 19.821Z" fill="#EFEFEF"/>
<path d="M5.77879 17.3579C5.30032 16.8945 4.89845 16.3582 4.58816 15.7689C3.14087 13.0142 3.18097 10.2738 4.83769 7.63855C6.21102 5.46672 8.24293 4.28589 10.8024 4.03458C13.9145 3.72979 17.063 5.46494 18.4667 8.24812C18.505 8.32298 18.5371 8.4023 18.5718 8.47805C18.4675 8.50746 18.4827 8.60549 18.4702 8.67589C18.3766 9.07514 18.2599 9.46727 18.128 9.85494C17.7789 10.8961 17.2708 11.877 16.6219 12.7629C16.5577 12.852 16.5435 12.8921 16.6638 12.9411C16.8521 13.022 17.0023 13.1719 17.0835 13.36C17.1782 13.5571 17.1922 13.7834 17.1225 13.9907C17.0527 14.198 16.9047 14.3698 16.7101 14.4695C16.3287 14.6682 15.8572 14.6103 15.5899 14.1843C15.5008 14.0471 15.4518 14.0711 15.3546 14.1621C15.1835 14.3216 15.0044 14.4731 14.8199 14.621C14.0726 15.2219 13.2487 15.7209 12.37 16.1048C12.3189 16.1225 12.275 16.1564 12.2447 16.2012C12.2145 16.246 12.1997 16.2995 12.2025 16.3535C12.1826 16.6626 12.069 16.9584 11.877 17.2015C11.685 17.4446 11.4236 17.6235 11.1275 17.7145C10.8314 17.8055 10.5146 17.8043 10.2192 17.711C9.92378 17.6177 9.66376 17.4367 9.47366 17.1921C9.44456 17.1459 9.40085 17.1108 9.34948 17.0924C9.29811 17.074 9.24206 17.0733 9.19026 17.0905C8.59412 17.2005 7.99218 17.2764 7.38739 17.3178C6.85178 17.3596 6.31528 17.365 5.77879 17.3579ZM12.0733 16.0211C12.0473 15.8391 11.9856 15.6641 11.8919 15.506C11.7981 15.348 11.6741 15.21 11.5269 15.0999C11.3797 14.9899 11.2122 14.91 11.034 14.8648C10.8559 14.8197 10.6706 14.8101 10.4887 14.8367L10.4495 14.8438C9.68844 14.9659 9.14214 15.6958 9.27047 16.448C9.40682 17.25 10.0823 17.7696 10.9013 17.6439C11.2686 17.5879 11.5986 17.3883 11.8188 17.0889C12.0389 16.7896 12.1311 16.4151 12.075 16.0478C12.075 16.0407 12.075 16.0335 12.075 16.0264L12.0733 16.0211ZM6.09427 13.3279C6.11386 13.4574 6.15877 13.5817 6.22645 13.6938C6.29412 13.8059 6.38323 13.9036 6.48868 13.9812C6.59413 14.0589 6.71384 14.1149 6.84098 14.1463C6.96813 14.1776 7.1002 14.1836 7.22965 14.1638H7.24747C7.51396 14.119 7.75175 13.9702 7.90852 13.7501C8.06529 13.53 8.12819 13.2566 8.0834 12.9901C8.03861 12.7236 7.88979 12.4859 7.66968 12.3291C7.44957 12.1723 7.1762 12.1094 6.90971 12.1542C6.77961 12.1769 6.65526 12.2251 6.54376 12.2959C6.43227 12.3667 6.33582 12.4587 6.25993 12.5668C6.18404 12.6749 6.13019 12.7969 6.10146 12.9258C6.07272 13.0547 6.06968 13.188 6.09249 13.3181C6.09332 13.3213 6.09391 13.3246 6.09427 13.3279ZM9.28116 5.4284C9.30331 5.6192 9.40013 5.79346 9.55045 5.91305C9.70077 6.03263 9.89234 6.0878 10.0832 6.06649L10.1224 6.06114C10.3175 6.03792 10.4955 5.9383 10.6173 5.78411C10.739 5.62992 10.7947 5.43375 10.7721 5.23858L10.7668 5.2056C10.7529 5.10809 10.7199 5.01427 10.6698 4.92951C10.6196 4.84474 10.5532 4.7707 10.4745 4.7116C10.3957 4.6525 10.306 4.60952 10.2106 4.5851C10.1152 4.56068 10.0159 4.55531 9.91836 4.56929H9.89965C9.70622 4.59773 9.53195 4.70168 9.41502 4.85837C9.29809 5.01506 9.24803 5.2117 9.27582 5.40523L9.28116 5.4284ZM17.0274 13.6095C16.9899 13.253 16.6709 12.9206 16.1745 12.9857C15.7797 13.0392 15.5052 13.4473 15.573 13.8466C15.6085 14.0367 15.7157 14.206 15.8724 14.3195C16.0291 14.4329 16.2234 14.4818 16.4151 14.4561C16.8313 14.3911 17.121 13.966 17.0274 13.6095ZM11.0609 10.9279C11.23 10.927 11.3919 10.859 11.511 10.7389C11.6301 10.6188 11.6968 10.4563 11.6963 10.2872C11.6958 10.118 11.6283 9.95594 11.5085 9.8365C11.3887 9.71705 11.2265 9.64997 11.0573 9.64997C10.8881 9.64997 10.7259 9.71705 10.6061 9.8365C10.4863 9.95594 10.4188 10.118 10.4183 10.2872C10.4179 10.4563 10.4845 10.6188 10.6036 10.7389C10.7227 10.859 10.8846 10.927 11.0537 10.9279H11.0609ZM6.6878 16.8178C6.91595 16.783 7.09686 16.5504 7.0621 16.3455C7.04047 16.2332 6.97786 16.133 6.88645 16.0643C6.79503 15.9956 6.68135 15.9634 6.56749 15.9738C6.5125 15.9828 6.45982 16.0026 6.41248 16.0319C6.36513 16.0613 6.32406 16.0998 6.2916 16.145C6.25914 16.1903 6.23595 16.2416 6.22334 16.2959C6.21074 16.3501 6.20897 16.4064 6.21815 16.4613C6.22852 16.5659 6.27992 16.6622 6.36109 16.729C6.44226 16.7958 6.5466 16.8277 6.65126 16.8178C6.66342 16.8188 6.67564 16.8188 6.6878 16.8178ZM8.22956 8.51548C8.16492 8.5273 8.10761 8.56431 8.07026 8.61838C8.03291 8.67244 8.01856 8.73913 8.03038 8.80378C8.0422 8.86842 8.07921 8.92572 8.13328 8.96308C8.18734 9.00043 8.25403 9.01478 8.31868 9.00296C8.35135 8.99697 8.38251 8.98456 8.41035 8.96646C8.4382 8.94835 8.46218 8.9249 8.48091 8.89747C8.49964 8.87004 8.51274 8.83917 8.51947 8.80665C8.52619 8.77412 8.5264 8.74058 8.52009 8.70797C8.50218 8.64712 8.46321 8.59461 8.41015 8.55983C8.3571 8.52506 8.2934 8.51028 8.23045 8.51815L8.22956 8.51548ZM13.4029 7.64746C13.4094 7.70039 13.4363 7.74867 13.478 7.78198C13.5196 7.81529 13.5726 7.83098 13.6257 7.8257C13.6505 7.82593 13.6751 7.82128 13.6981 7.812C13.7212 7.80272 13.7421 7.789 13.7598 7.77162C13.7775 7.75424 13.7917 7.73355 13.8014 7.71071C13.8111 7.68788 13.8162 7.66336 13.8164 7.63855C13.8177 7.6267 13.8177 7.61475 13.8164 7.6029C13.8112 7.54961 13.7854 7.50047 13.7444 7.46599C13.7034 7.43152 13.6506 7.41445 13.5972 7.41842C13.5424 7.42625 13.4924 7.45388 13.4566 7.49608C13.4208 7.53828 13.4017 7.59213 13.4029 7.64746ZM15.2842 8.67144C15.2889 8.69525 15.2982 8.71791 15.3117 8.73809C15.3252 8.75827 15.3426 8.77557 15.3628 8.789C15.383 8.80242 15.4057 8.81171 15.4296 8.81631C15.4534 8.82091 15.4779 8.82074 15.5017 8.81581H15.5097C15.5615 8.81105 15.6093 8.78598 15.6427 8.74608C15.6761 8.70617 15.6924 8.65466 15.6879 8.60281V8.58143C15.6789 8.52848 15.6495 8.48116 15.6061 8.44966C15.5626 8.41817 15.5084 8.405 15.4553 8.41299C15.3359 8.41656 15.2619 8.52974 15.2842 8.67144ZM4.17019 12.1765C4.15216 12.1807 4.13513 12.1884 4.12009 12.1992C4.10504 12.21 4.09226 12.2236 4.0825 12.2393C4.07273 12.2551 4.06616 12.2726 4.06316 12.2908C4.06016 12.3091 4.0608 12.3278 4.06503 12.3458C4.0672 12.3658 4.07396 12.3851 4.08478 12.4021C4.09561 12.4191 4.11022 12.4334 4.12747 12.4438C4.14471 12.4543 4.16414 12.4606 4.18422 12.4623C4.20431 12.464 4.22451 12.461 4.24327 12.4536C4.26143 12.4501 4.27861 12.4427 4.29363 12.4319C4.30865 12.4211 4.32116 12.4072 4.3303 12.3911C4.33944 12.375 4.345 12.3571 4.34659 12.3387C4.34818 12.3203 4.34577 12.3017 4.33952 12.2843C4.33403 12.2494 4.31491 12.218 4.28634 12.1971C4.25778 12.1762 4.2221 12.1675 4.18712 12.1729L4.17019 12.1765ZM5.31983 8.52261C5.33676 8.58588 5.37419 8.62955 5.44281 8.61707C5.45558 8.61606 5.46803 8.61253 5.47943 8.60669C5.49084 8.60085 5.50097 8.59281 5.50925 8.58304C5.51754 8.57326 5.52381 8.56195 5.5277 8.54974C5.53159 8.53753 5.53303 8.52468 5.53193 8.51191V8.503C5.53113 8.48848 5.52748 8.47426 5.52118 8.46116C5.51487 8.44805 5.50605 8.43632 5.4952 8.42663C5.48435 8.41695 5.4717 8.4095 5.45797 8.40471C5.44424 8.39992 5.4297 8.39789 5.41518 8.39873H5.40895C5.33943 8.4023 5.31983 8.45577 5.31983 8.51993V8.52261Z" fill="black"/>
<path d="M17.0834 6.26703L13.024 10.3273L12.9919 13.2058L17.0834 17.2946" stroke="#7533E2" stroke-width="1.82248" stroke-miterlimit="10"/>
<path d="M11.5464 20C15.9647 20 19.5464 16.4183 19.5464 12C19.5464 7.58172 15.9647 4 11.5464 4C7.12811 4 3.54639 7.58172 3.54639 12C3.54639 16.4183 7.12811 20 11.5464 20Z" stroke="black" stroke-width="0.822568" stroke-miterlimit="10"/>
<path d="M16.3171 13.9277C16.417 13.8386 16.4704 13.8091 16.5587 13.9517C16.834 14.3893 17.3188 14.449 17.7101 14.2449C17.9102 14.1422 18.0623 13.9654 18.134 13.7522C18.2057 13.5389 18.1915 13.3062 18.0942 13.1033C18.0108 12.9096 17.856 12.7554 17.6619 12.6729C17.5381 12.6194 17.5532 12.5749 17.6183 12.4857C18.285 11.575 18.8071 10.5667 19.1663 9.49669C19.3017 9.09832 19.422 8.69462 19.5183 8.28467C19.5352 8.21248 19.5183 8.11267 19.6235 8.08237C19.5878 8.00305 19.5539 7.92374 19.5156 7.84531C19.4773 7.76689 19.4265 7.66707 19.3784 7.58598L17.8286 6.12354L13.7701 10.1802L13.738 13.0606L15.3805 14.7012C15.5133 14.605 15.6479 14.5052 15.7717 14.4009C15.9571 14.2485 16.1407 14.0925 16.3171 13.9277ZM16.2441 8.2811C16.2209 8.13317 16.2957 8.01909 16.4178 8.01375C16.4725 8.00552 16.5282 8.01914 16.5729 8.05166C16.6176 8.08418 16.6477 8.13299 16.6567 8.18753C16.662 8.21358 16.6621 8.24042 16.657 8.26651C16.6519 8.2926 16.6417 8.31742 16.6269 8.33954C16.6122 8.36166 16.5932 8.38065 16.5711 8.39539C16.549 8.41014 16.5241 8.42037 16.498 8.42548C16.4915 8.4264 16.4849 8.4264 16.4784 8.42548C16.4542 8.43176 16.429 8.43319 16.4042 8.42969C16.3794 8.42619 16.3556 8.41782 16.334 8.40506C16.3125 8.3923 16.2937 8.37542 16.2787 8.35537C16.2637 8.33532 16.2529 8.3125 16.2467 8.28823C16.2462 8.28499 16.2462 8.28168 16.2467 8.27843L16.2441 8.2811ZM17.1602 12.7183C17.6664 12.6506 17.9997 12.9857 18.0371 13.36C18.1334 13.7254 17.8357 14.1621 17.408 14.2307C17.2112 14.2568 17.012 14.2067 16.851 14.0908C16.6899 13.9748 16.5793 13.8017 16.5417 13.6068C16.4722 13.1942 16.7547 12.7745 17.1602 12.7183Z" fill="black"/>
<path d="M20.0948 9.26582C19.9857 8.85443 19.8274 8.45767 19.6234 8.08411C19.5173 8.11441 19.5343 8.216 19.5191 8.2873C19.4229 8.69814 19.3026 9.10095 19.1626 9.49931C18.8042 10.5681 18.2833 11.5754 17.6182 12.4857C17.5523 12.5748 17.5389 12.6194 17.6628 12.6728C17.8565 12.7559 18.0111 12.9099 18.095 13.1033C18.1915 13.3066 18.2051 13.5396 18.1327 13.7527C18.0603 13.9659 17.9077 14.1424 17.7073 14.2449C17.3152 14.449 16.8304 14.3893 16.5559 13.9517C16.4668 13.81 16.4142 13.8349 16.3144 13.9276C16.1362 14.0916 15.9579 14.2476 15.7681 14.4009C15.6398 14.5051 15.5079 14.6049 15.376 14.7012L18.079 17.4024L19.5298 15.8063C19.6403 15.6093 19.586 15.2065 19.684 14.9962C20.5529 13.147 20.6634 11.2247 20.0948 9.26582Z" fill="#EFEFEF"/>
<path d="M17.408 14.2333C17.8349 14.1629 18.1334 13.7289 18.0372 13.3626C17.9989 12.9937 17.6673 12.6497 17.1603 12.7219C16.7548 12.7771 16.4723 13.196 16.5418 13.6059C16.5784 13.8015 16.6886 13.9756 16.8498 14.0924C17.011 14.2091 17.2108 14.2596 17.408 14.2333Z" fill="#EFEFEF"/>
<path d="M16.6578 8.18748C16.6486 8.13305 16.6184 8.08438 16.5738 8.0519C16.5292 8.01942 16.4736 8.00571 16.4189 8.0137C16.2969 8.01905 16.222 8.13312 16.2452 8.28106C16.2501 8.30562 16.2598 8.32897 16.2737 8.34976C16.2877 8.37056 16.3056 8.38839 16.3265 8.40222C16.3473 8.41606 16.3708 8.42562 16.3953 8.43037C16.4199 8.43512 16.4452 8.43495 16.4697 8.42989H16.476C16.5296 8.42513 16.5792 8.39928 16.6138 8.358C16.6484 8.31673 16.6652 8.26341 16.6605 8.20976L16.6578 8.18748Z" fill="#EFEFEF"/>
<path d="M18.2278 17.6939C18.2278 17.6939 20.2571 16.0211 20.4558 12.1391C20.3863 7.99683 18.4061 6.6137 17.7154 6.13959L13.6578 10.1963L13.6257 13.0748L18.153 17.6199L18.2278 17.6939Z" stroke="black" stroke-width="0.822568" stroke-miterlimit="10"/>
<path d="M23.5 12C23.5 18.3513 18.3513 23.5 12 23.5C5.64873 23.5 0.5 18.3513 0.5 12C0.5 5.64873 5.64873 0.5 12 0.5C18.3513 0.5 23.5 5.64873 23.5 12Z" stroke="black" stroke-opacity="0.097"/>
</svg>
