<svg width="24" height="24" viewBox="0 0 24 24" fill="none" xmlns="http://www.w3.org/2000/svg">
<path d="M12 24C18.6274 24 24 18.6274 24 12C24 5.37258 18.6274 0 12 0C5.37258 0 0 5.37258 0 12C0 18.6274 5.37258 24 12 24Z" fill="#3840C7"/>
<path fill-rule="evenodd" clip-rule="evenodd" d="M13.8272 7.98972C13.7521 7.91457 13.6628 7.855 13.5646 7.81445C13.4664 7.7739 13.3611 7.75316 13.2548 7.75342H13.2528C13.1463 7.7534 13.0409 7.77457 12.9426 7.81569C12.8444 7.85682 12.7554 7.91709 12.6807 7.99297L6.35633 14.3475C6.28101 14.4227 6.22134 14.5121 6.18078 14.6105C6.14022 14.7089 6.11957 14.8144 6.12003 14.9208C6.12063 15.1372 6.20561 15.3407 6.35899 15.4935C6.43396 15.5686 6.52305 15.6282 6.62113 15.6687C6.71921 15.7093 6.82435 15.73 6.93049 15.7298C7.14754 15.7298 7.35215 15.6448 7.50554 15.4911L13.8296 9.13626C13.9809 8.98371 14.0657 8.7774 14.0652 8.5625C14.0648 8.3476 13.9792 8.14164 13.8272 7.98972Z" fill="white"/>
<path fill-rule="evenodd" clip-rule="evenodd" d="M17.499 7.83081C17.3508 7.76889 17.1874 7.7527 17.0299 7.7843C16.8724 7.81591 16.728 7.89387 16.6151 8.00818L10.2902 14.3633C10.1387 14.5158 10.0539 14.7222 10.0544 14.9372C10.055 15.1522 10.1408 15.3581 10.2931 15.5099C10.4457 15.6613 10.6522 15.7461 10.8672 15.7455C11.0822 15.7448 11.2882 15.6589 11.44 15.5066L16.3785 10.5444V14.9348C16.3787 15.1498 16.4641 15.3559 16.6161 15.5079C16.7682 15.6599 16.9743 15.7454 17.1893 15.7456C17.4042 15.7454 17.6104 15.6599 17.7624 15.5079C17.9144 15.3559 17.9999 15.1498 18 14.9348V8.58027C18.0005 8.41968 17.9531 8.26261 17.8638 8.12911C17.7746 7.99561 17.6476 7.89175 17.499 7.83081Z" fill="white"/>
<path d="M23.5 12C23.5 18.3513 18.3513 23.5 12 23.5C5.64873 23.5 0.5 18.3513 0.5 12C0.5 5.64873 5.64873 0.5 12 0.5C18.3513 0.5 23.5 5.64873 23.5 12Z" stroke="black" stroke-opacity="0.097"/>
</svg>
