<svg width="24" height="24" viewBox="0 0 24 24" fill="none" xmlns="http://www.w3.org/2000/svg">
<path fill-rule="evenodd" clip-rule="evenodd" d="M0 12C0 5.37259 5.37259 0 12 0C18.6274 0 24 5.37259 24 12C24 18.6274 18.6274 24 12 24C5.37259 24 0 18.6274 0 12Z" fill="url(#paint0_linear)"/>
<path fill-rule="evenodd" clip-rule="evenodd" d="M4.58314 11.4463C4.58314 11.4463 4.58415 13.3117 12 13.3117C19.4159 13.3117 19.4158 11.4463 19.4158 11.4463C19.4158 13.3117 17.6653 17.2264 16.5831 17.8948C15.501 18.5632 15.9143 15.6603 14.8321 15.7291C13.7499 15.798 13.0816 20.059 11.9995 20.059C10.9174 20.059 10.2484 15.661 9.16627 15.7306C8.08411 15.8002 8.49792 18.5632 7.41576 17.8948C6.33355 17.2264 4.58309 13.3117 4.58314 11.4463Z" fill="white"/>
<path fill-rule="evenodd" clip-rule="evenodd" d="M6.3336 11.4463C6.3336 10.8417 8.87031 10.3516 11.9995 10.3516C15.1286 10.3516 17.6653 10.8417 17.6653 11.4463C17.6653 12.051 14.8316 12.5411 11.9995 12.5411C9.16733 12.5411 6.3336 12.051 6.3336 11.4463Z" fill="white"/>
<path fill-rule="evenodd" clip-rule="evenodd" d="M4.58314 11.4463C4.58314 11.4463 4.58415 13.3117 12 13.3117C19.4159 13.3117 19.4158 11.4463 19.4158 11.4463C19.4158 13.3117 17.6653 17.2264 16.5831 17.8948C15.501 18.5632 15.9143 15.6603 14.8321 15.7291C13.7499 15.798 13.0816 20.059 11.9995 20.059C10.9174 20.059 10.2484 15.661 9.16627 15.7306C8.08411 15.8002 8.49792 18.5632 7.41576 17.8948C6.33355 17.2264 4.58309 13.3117 4.58314 11.4463Z" fill="white"/>
<path fill-rule="evenodd" clip-rule="evenodd" d="M6.3336 11.4463C6.3336 10.8417 8.87031 10.3516 11.9995 10.3516C15.1286 10.3516 17.6653 10.8417 17.6653 11.4463C17.6653 12.051 14.8316 12.5411 11.9995 12.5411C9.16733 12.5411 6.3336 12.051 6.3336 11.4463Z" fill="white"/>
<path fill-rule="evenodd" clip-rule="evenodd" d="M4.58314 11.4463C4.58314 11.4463 4.58415 13.3117 12 13.3117C19.4159 13.3117 19.4158 11.4463 19.4158 11.4463C19.4158 13.3117 17.6653 17.2264 16.5831 17.8948C15.501 18.5632 15.9143 15.6603 14.8321 15.7291C13.7499 15.798 13.0816 20.059 11.9995 20.059C10.9174 20.059 10.2484 15.661 9.16627 15.7306C8.08411 15.8002 8.49792 18.5632 7.41576 17.8948C6.33355 17.2264 4.58309 13.3117 4.58314 11.4463Z" fill="white"/>
<path fill-rule="evenodd" clip-rule="evenodd" d="M6.3336 11.4463C6.3336 10.8417 8.87031 10.3516 11.9995 10.3516C15.1286 10.3516 17.6653 10.8417 17.6653 11.4463C17.6653 12.051 14.8316 12.5411 11.9995 12.5411C9.16733 12.5411 6.3336 12.051 6.3336 11.4463Z" fill="white"/>
<path fill-rule="evenodd" clip-rule="evenodd" d="M4.58314 11.4463C4.58314 11.4463 4.58415 13.3117 12 13.3117C19.4159 13.3117 19.4158 11.4463 19.4158 11.4463C19.4158 13.3117 17.6653 17.2264 16.5831 17.8948C15.501 18.5632 15.9143 15.6603 14.8321 15.7291C13.7499 15.798 13.0816 20.059 11.9995 20.059C10.9174 20.059 10.2484 15.661 9.16627 15.7306C8.08411 15.8002 8.49792 18.5632 7.41576 17.8948C6.33355 17.2264 4.58309 13.3117 4.58314 11.4463Z" fill="white"/>
<path fill-rule="evenodd" clip-rule="evenodd" d="M6.3336 11.4463C6.3336 10.8417 8.87031 10.3516 11.9995 10.3516C15.1286 10.3516 17.6653 10.8417 17.6653 11.4463C17.6653 12.051 14.8316 12.5411 11.9995 12.5411C9.16733 12.5411 6.3336 12.051 6.3336 11.4463Z" fill="white"/>
<path fill-rule="evenodd" clip-rule="evenodd" d="M14.8321 6.21306C14.8321 5.42902 15.4677 4.79346 16.2517 4.79346C17.0357 4.79346 17.6713 5.42902 17.6713 6.21306C17.6713 6.99709 17.0357 7.63266 16.2517 7.63266C15.4677 7.63266 14.8321 6.99709 14.8321 6.21306Z" fill="white"/>
<path d="M23.5 12C23.5 18.3513 18.3513 23.5 12 23.5C5.64873 23.5 0.5 18.3513 0.5 12C0.5 5.64873 5.64873 0.5 12 0.5C18.3513 0.5 23.5 5.64873 23.5 12Z" stroke="black" stroke-opacity="0.097"/>
<defs>
<linearGradient id="paint0_linear" x1="2.10706e-07" y1="24" x2="24" y2="2.10706e-07" gradientUnits="userSpaceOnUse">
<stop offset="0.140777" stop-color="#FF59DC"/>
<stop offset="0.859223" stop-color="#35FFE7"/>
<stop offset="1" stop-color="#FFFD00" stop-opacity="0.896728"/>
</linearGradient>
</defs>
</svg>
