<svg width="24" height="24" viewBox="0 0 24 24" fill="none" xmlns="http://www.w3.org/2000/svg">
<path d="M12 24C18.6274 24 24 18.6274 24 12C24 5.37258 18.6274 0 12 0C5.37258 0 0 5.37258 0 12C0 18.6274 5.37258 24 12 24Z" fill="#F5F5F5"/>
<path fill-rule="evenodd" clip-rule="evenodd" d="M10.6692 14.8001L12 16.5534V20.3334L7 18.1142V8.34925C7 8.20508 7.06417 8.06758 7.17667 7.97175L7.74583 7.48425C7.85666 7.3884 8.00221 7.34271 8.14793 7.35802C8.29365 7.37333 8.42652 7.44829 8.515 7.56508L13.0692 13.5351L15.585 15.0734V6.84008L13.3617 5.73091L13.2533 10.8942L12.0767 9.33341L12.0233 3.66675L17 5.98258V15.7026L15.8692 16.6342L12.3075 14.6451L8.35417 9.45925L8.3 17.3376L10.6542 18.5434L10.6692 14.8001Z" fill="#05BCA9"/>
<path d="M23.5 12C23.5 18.3513 18.3513 23.5 12 23.5C5.64873 23.5 0.5 18.3513 0.5 12C0.5 5.64873 5.64873 0.5 12 0.5C18.3513 0.5 23.5 5.64873 23.5 12Z" stroke="black" stroke-opacity="0.097"/>
</svg>
