<svg width="24" height="24" viewBox="0 0 24 24" fill="none" xmlns="http://www.w3.org/2000/svg">
<path d="M12 24C18.6274 24 24 18.6274 24 12C24 5.37258 18.6274 0 12 0C5.37258 0 0 5.37258 0 12C0 18.6274 5.37258 24 12 24Z" fill="url(#paint0_linear)"/>
<path d="M23.5 12C23.5 18.3513 18.3513 23.5 12 23.5C5.64873 23.5 0.5 18.3513 0.5 12C0.5 5.64873 5.64873 0.5 12 0.5C18.3513 0.5 23.5 5.64873 23.5 12Z" stroke="black" stroke-opacity="0.097"/>
<path d="M11.9978 18.9906C10.6832 19.007 9.37613 18.9 8.08116 18.6808C6.99433 18.4969 6.26336 17.5452 6.41069 16.5222C6.48549 16.0036 6.60222 15.4909 6.67739 14.9727C6.89158 13.4968 7.02342 12.0124 6.87534 10.5254C6.81716 9.94326 6.61166 9.37415 6.45564 8.80356C6.33249 8.35221 6.13115 7.91647 6.05408 7.45918C5.84933 6.24184 6.22294 5.2017 7.22628 4.44351C8.27533 3.65077 9.5635 3.95241 10.2148 5.0962C10.4365 5.48514 10.5309 5.91011 10.5982 6.344C10.7493 7.31839 10.9 8.29241 11.0523 9.26643C11.0795 9.44065 11.1867 9.51903 11.3654 9.51792C11.7863 9.51532 12.2075 9.51792 12.6283 9.51643C12.8342 9.51569 12.9263 9.43805 12.9566 9.23782C13.0601 8.54947 13.1556 7.85963 13.2656 7.17202C13.3434 6.68576 13.4189 6.19763 13.5323 5.7188C13.6596 5.18127 13.9531 4.72992 14.4023 4.39076C15.1431 3.83168 16.0856 3.87663 16.8604 4.49923C17.8501 5.2942 18.2392 6.65975 17.8527 7.86298C17.5947 8.66611 17.3235 9.47222 17.1652 10.2969C17.0477 10.908 17.0764 11.551 17.0848 12.1792C17.1036 13.6131 17.2944 15.0307 17.5619 16.4389C17.7681 17.524 17.0636 18.5021 15.8937 18.6764C14.9149 18.822 13.9248 18.8963 12.9381 18.9862C12.6275 19.0144 12.3117 18.9906 11.9978 18.9906ZM10.5317 9.49377C10.5155 9.36895 10.5068 9.27757 10.4909 9.18767C10.3341 8.29018 10.1736 7.39305 10.0198 6.49482C9.94051 6.03158 9.85664 5.57429 9.56312 5.18164C9.09961 4.56201 8.36599 4.41639 7.70604 4.82205C6.86778 5.33766 6.46773 6.35106 6.62828 7.2961C6.70421 7.74225 6.8742 8.17316 6.99924 8.61151C7.11522 9.01902 7.22779 9.42728 7.34527 9.8463C8.39432 9.62119 9.42939 9.40016 10.5317 9.49377ZM16.5895 9.86005C16.8116 9.15647 17.0096 8.48855 17.2351 7.82991C17.3843 7.3938 17.4542 6.95805 17.3726 6.50336C17.2332 5.72697 16.863 5.10028 16.1275 4.73623C15.619 4.48437 15.1298 4.54604 14.6943 4.91343C14.3479 5.20578 14.151 5.58767 14.0695 6.02304C13.8893 6.98517 13.7178 7.94879 13.5455 8.91203C13.5115 9.10186 13.4892 9.29354 13.4582 9.50529C14.5428 9.43173 15.5828 9.47334 16.5895 9.86005ZM12.0994 16.4895C12.2807 16.4798 12.5588 16.4832 12.8311 16.4467C13.5931 16.3446 14.3535 16.2305 15.1128 16.1113C15.2994 16.082 15.3833 15.9397 15.3474 15.7744C15.3115 15.6091 15.1831 15.5318 14.9923 15.5623C14.3872 15.6581 13.785 15.7889 13.176 15.8412C12.541 15.8958 11.8954 15.9215 11.2612 15.8747C10.5139 15.8193 9.77391 15.6733 9.03085 15.5652C8.81742 15.534 8.6716 15.6135 8.64138 15.7837C8.61267 15.9445 8.71618 16.0775 8.91148 16.1206C9.92993 16.3453 10.9605 16.4724 12.0994 16.4895ZM10.126 12.6432C9.78109 12.6268 9.4717 12.7331 9.188 12.9162C9.01234 13.0295 8.9723 13.1948 9.0743 13.3419C9.16722 13.4757 9.33609 13.5005 9.50683 13.3962C9.92011 13.1432 10.3304 13.1432 10.7444 13.3947C10.928 13.5061 11.0957 13.4771 11.1864 13.3271C11.2785 13.1736 11.2328 13.0195 11.0485 12.9051C10.7674 12.7301 10.4641 12.625 10.126 12.6432ZM13.8277 12.6428C13.5115 12.6428 13.1927 12.7353 12.9271 12.9196C12.7764 13.0243 12.7314 13.1959 12.8179 13.3367C12.8976 13.4664 13.071 13.4972 13.2327 13.4106C13.3203 13.3638 13.4031 13.3022 13.4968 13.2725C13.8488 13.1614 14.1843 13.1915 14.4993 13.4002C14.661 13.5072 14.8458 13.4701 14.9285 13.3345C15.0139 13.1941 14.9689 13.0225 14.8155 12.9196C14.5345 12.7312 14.224 12.6343 13.8277 12.6428Z" fill="white"/>
<defs>
<linearGradient id="paint0_linear" x1="19" y1="2.5" x2="4.5" y2="20.5" gradientUnits="userSpaceOnUse">
<stop stop-color="#D60B7F"/>
<stop offset="1" stop-color="#A8187F"/>
</linearGradient>
</defs>
</svg>
