<svg width="24" height="24" viewBox="0 0 24 24" fill="none" xmlns="http://www.w3.org/2000/svg">
<path d="M12 24C18.6274 24 24 18.6274 24 12C24 5.37258 18.6274 0 12 0C5.3726 0 1.52588e-05 5.37258 1.52588e-05 12C1.52588e-05 18.6274 5.3726 24 12 24Z" fill="#0041FF"/>
<path d="M12 24C18.6274 24 24 18.6274 24 12C24 5.37258 18.6274 0 12 0C5.3726 0 1.52588e-05 5.37258 1.52588e-05 12C1.52588e-05 18.6274 5.3726 24 12 24Z" fill="black"/>
<path fill-rule="evenodd" clip-rule="evenodd" d="M8.69791 5L16.7429 5.35426L20 12.4839L15.4048 19L7.31611 18.4897L4 10.7647L8.69791 5ZM14.596 9.10972L8.76547 11.6194L13.7502 15.4163L14.596 9.10972ZM13.9209 7.85216L9.2614 5.87563L8.28262 10.0314L13.9209 7.85216ZM12.7399 16.3717L7.67591 12.8092L7.7984 17.6365L12.7399 16.3717ZM19.1911 12.4682L15.7403 9.0184L14.8295 15.6522L19.1911 12.4682ZM13.9272 17.1476L9.65638 18.2473L14.6788 18.5642L13.9272 17.1476ZM18.5168 14.0334L14.7783 16.7771L15.5211 18.2073L18.5168 14.0334ZM16.7484 6.35042L16.0223 7.81897L18.7251 10.5256L16.7484 6.35042ZM15.8437 5.64766L11.0977 5.45787L15.0126 7.14488L15.8437 5.64766ZM8.00483 6.32678L4.68052 10.4623L6.90309 10.9261L8.00483 6.32678ZM6.76908 11.7373L4.53579 11.2715L6.86605 16.6799L6.76908 11.7373Z" fill="white"/>
<path d="M23.5 12C23.5 18.3513 18.3513 23.5 12 23.5C5.64874 23.5 0.500015 18.3513 0.500015 12C0.500015 5.64873 5.64874 0.5 12 0.5C18.3513 0.5 23.5 5.64873 23.5 12Z" stroke="white" stroke-opacity="0.3"/>
</svg>
