<svg width="24" height="24" viewBox="0 0 24 24" fill="none" xmlns="http://www.w3.org/2000/svg">
<path d="M12 24C18.6274 24 24 18.6274 24 12C24 5.37258 18.6274 0 12 0C5.37258 0 0 5.37258 0 12C0 18.6274 5.37258 24 12 24Z" fill="#333366"/>
<path fill-rule="evenodd" clip-rule="evenodd" d="M21 8.97154L20.964 8.42769L20.7856 8.88385L19.7826 9.67615L18.6338 9.83692L18.2902 9.53769L19.2974 8.28154L20.3282 8L19.2122 8.02153L17.5898 9.08462L16.0688 8.98615L13.9334 8L12.6718 8.23L8.73546 11.1885L6.8389 11.74L6.05836 12.4562L4.66254 12.4739L3.97118 13.6354L3 13.8877L3.918 14.0007L4.77136 12.96L6.09028 13.2085L6.06572 14.3223L5.40709 15.9254L5.03072 17.4085L4.62572 18L5.65336 17.7954L5.53636 17.1892L6.41018 15.56L8.09236 14.9469L8.74364 13.9716L9.84409 13.2484L12.0286 13.5369L14.2288 12.6638L13.8564 14.0446L12.8779 14.1246L12.5989 15.2569L13.4359 14.7531L14.8236 14.2092L15.9076 12.6715L15.9764 11.9446L16.5589 12.4884L18.2534 13.4492L19.2164 13.0361L19.1599 11.0062L18.8801 10.2208L20.1384 9.93231L21 8.97154Z" fill="white"/>
<path d="M23.5 12C23.5 18.3513 18.3513 23.5 12 23.5C5.64873 23.5 0.5 18.3513 0.5 12C0.5 5.64873 5.64873 0.5 12 0.5C18.3513 0.5 23.5 5.64873 23.5 12Z" stroke="white" stroke-opacity="0.3"/>
</svg>
