<svg width="24" height="24" viewBox="0 0 24 24" fill="none" xmlns="http://www.w3.org/2000/svg">
<path d="M12 24C18.6274 24 24 18.6274 24 12C24 5.37258 18.6274 0 12 0C5.37258 0 0 5.37258 0 12C0 18.6274 5.37258 24 12 24Z" fill="#0F5A2E"/>
<path d="M8.64608 19.9405C8.66937 19.9105 8.91349 18.7194 9.18858 17.2935C9.46366 15.8676 9.70781 14.6567 9.73113 14.6025L9.77352 14.5041L12.307 14.5055C14.3413 14.5067 14.9505 14.4936 15.3984 14.439C17.0925 14.2326 18.4073 13.6814 19.3781 12.7707C20.1673 12.0304 20.6781 11.0784 20.9168 9.90263C21.0362 9.31484 21.0253 8.162 20.8955 7.64838C20.558 6.31287 19.5797 5.52916 17.8977 5.24684C16.7417 5.05282 16.3631 5.03647 12.5984 5.01789L8.97273 5L8.92852 5.10119C8.90421 5.15685 8.73264 5.96707 8.54725 6.90168C8.36187 7.83629 8.19138 8.64463 8.1684 8.69798C8.12779 8.79225 8.10492 8.79531 7.35642 8.80691L6.58622 8.81883L6.41948 9.66449C6.32777 10.1296 6.26318 10.5266 6.27595 10.5468C6.28872 10.567 6.6394 10.5835 7.05525 10.5835C7.78675 10.5835 7.81132 10.5864 7.81132 10.6725C7.81132 10.7214 7.70169 11.3047 7.56769 11.9687C7.31043 13.2435 6.52832 17.1378 6.18362 18.8603C6.07112 19.4224 5.98903 19.9077 6.0012 19.9387C6.03286 20.0192 8.58349 20.021 8.64608 19.9405V19.9405ZM10.2906 11.9379C10.2575 11.8855 10.488 10.7087 10.5453 10.638C10.5793 10.5959 11.0203 10.5835 12.478 10.5835C13.5654 10.5835 14.3773 10.5667 14.3918 10.5438C14.4405 10.4668 14.7329 8.88213 14.7062 8.83988C14.6891 8.81292 13.9864 8.79705 12.8099 8.79705C11.7818 8.79705 10.9306 8.78119 10.9184 8.76181C10.888 8.71384 11.1019 7.6585 11.1519 7.6097C11.1749 7.58727 12.2873 7.57872 13.7749 7.58955C16.5959 7.6101 16.8454 7.62963 17.3464 7.86912C17.6333 8.00626 17.9135 8.28826 18.0445 8.57154C18.1759 8.85596 18.205 9.55535 18.1002 9.91337C17.8794 10.6678 17.1571 11.4107 16.3356 11.7282C15.7289 11.9604 15.518 11.9767 12.8067 11.9767C11.3452 11.9767 10.3045 11.9602 10.2897 11.9368L10.2906 11.9379Z" fill="white"/>
<path d="M23.5 12C23.5 18.3513 18.3513 23.5 12 23.5C5.64873 23.5 0.5 18.3513 0.5 12C0.5 5.64873 5.64873 0.5 12 0.5C18.3513 0.5 23.5 5.64873 23.5 12Z" stroke="black" stroke-opacity="0.097"/>
</svg>
