<svg width="24" height="24" viewBox="0 0 24 24" fill="none" xmlns="http://www.w3.org/2000/svg">
<path d="M12 24C18.6274 24 24 18.6274 24 12C24 5.37258 18.6274 0 12 0C5.37258 0 0 5.37258 0 12C0 18.6274 5.37258 24 12 24Z" fill="#4AA956"/>
<path d="M23.5 12C23.5 18.3513 18.3513 23.5 12 23.5C5.64873 23.5 0.5 18.3513 0.5 12C0.5 5.64873 5.64873 0.5 12 0.5C18.3513 0.5 23.5 5.64873 23.5 12Z" stroke="black" stroke-opacity="0.097"/>
<path d="M19 7.29246L11.9192 3L5.01469 7.21526L5 15.7075L11.9633 20L19 15.8002V7.29246ZM11.9339 4.297L17.1637 7.47776L11.9633 10.6585L6.73347 7.47776L11.9339 4.297ZM11.3316 18.2398L6.0724 15.0745V8.74388L11.3169 11.9246V18.2398H11.3316ZM12.6831 12.0172L17.9276 8.83652V15.1517L12.6831 18.3479V12.0172Z" fill="white"/>
</svg>
