<svg width="24" height="24" viewBox="0 0 48 48" fill="none" xmlns="http://www.w3.org/2000/svg">
<g clip-path="url(#clip0_5178_114915)">
<path d="M0 24C0 10.7452 10.7452 0 24 0V0C37.2549 0 48.0001 10.7452 48.0001 24V24C48.0001 37.2549 37.2549 48.0001 24 48.0001V48.0001C10.7452 48.0001 0 37.2549 0 24V24Z" fill="black"/>
<path d="M0 24C0 10.7452 10.7452 0 24 0V0C37.2549 0 48.0001 10.7452 48.0001 24V24C48.0001 37.2549 37.2549 48.0001 24 48.0001V48.0001C10.7452 48.0001 0 37.2549 0 24V24Z" fill="black"/>
<path d="M27.5571 6.34955L28.5956 8.78209C30.6339 13.5582 34.4383 17.3625 39.2145 19.4008L41.647 20.4394C42.2836 20.7108 42.8004 21.1002 43.1994 21.5639C41.9879 12.8781 35.1183 6.00758 26.4326 4.79712C26.8954 5.19515 27.2856 5.71291 27.5571 6.34955Z" fill="#A6A6A6"/>
<path d="M6.35027 20.4394L8.78284 19.4008C13.5591 17.3625 17.3633 13.5582 19.4026 8.78208L20.4401 6.34954C20.7126 5.7129 21.1019 5.19514 21.5647 4.79712C12.8789 6.00758 6.00929 12.8781 4.79785 21.5639C5.19677 21.1002 5.71371 20.7108 6.35028 20.4394L6.35027 20.4394Z" fill="#A6A6A6"/>
<path d="M41.647 27.5598L39.2145 28.5984C34.4383 30.6367 30.6339 34.4419 28.5956 39.2181L27.5571 41.6497C27.2856 42.2863 26.8954 42.8041 26.4326 43.2031C35.1183 41.9917 41.9879 35.1211 43.1994 26.4353C42.8004 26.899 42.2836 27.2884 41.647 27.5598Z" fill="#A6A6A6"/>
<path d="M20.4401 41.6497L19.4026 39.2181C17.3633 34.4419 13.5591 30.6367 8.78285 28.5984L6.35028 27.5598C5.71371 27.2884 5.19676 26.899 4.79785 26.4353C6.00929 35.1211 12.8789 41.9917 21.5647 43.2031C21.1019 42.8041 20.7126 42.2863 20.4401 41.6497H20.4401Z" fill="#A6A6A6"/>
<path d="M15.4228 22.1502L16.5848 21.654C18.8659 20.68 20.6835 18.8635 21.6573 16.5824L22.1528 15.4203C22.8475 13.7928 25.1548 13.7928 25.8495 15.4203L26.3449 16.5824C27.3189 18.8635 29.1364 20.68 31.4174 21.654L32.5795 22.1502C34.2069 22.845 34.2069 25.1514 32.5795 25.8462L31.4174 26.3425C29.1364 27.3162 27.3189 29.1329 26.3449 31.4149L25.8495 32.5761C25.1548 34.2034 22.8475 34.2034 22.1528 32.5761L21.6573 31.4149C20.6835 29.1329 18.8659 27.3162 16.5848 26.3425L15.4228 25.8462C13.7953 25.1514 13.7953 22.845 15.4228 22.1502Z" fill="white"/>
</g>
<defs>
<clipPath id="clip0_5178_114915">
<rect width="48.0001" height="48" rx="24" fill="white"/>
</clipPath>
</defs>
</svg>
