<svg width="24" height="24" viewBox="0 0 24 24" fill="none" xmlns="http://www.w3.org/2000/svg">
<path d="M12 24C18.6274 24 24 18.6274 24 12C24 5.37258 18.6274 0 12 0C5.37258 0 0 5.37258 0 12C0 18.6274 5.37258 24 12 24Z" fill="#4DB5C4"/>
<path d="M23.5 12C23.5 18.3513 18.3513 23.5 12 23.5C5.64873 23.5 0.5 18.3513 0.5 12C0.5 5.64873 5.64873 0.5 12 0.5C18.3513 0.5 23.5 5.64873 23.5 12Z" stroke="black" stroke-opacity="0.097"/>
<path d="M12.2684 10.1145L18.1797 13.5623C18.5021 13.7778 18.932 13.5623 18.932 13.1313V8.28283C18.932 8.06734 18.8245 7.9596 18.6096 7.85185L12.1609 4.08081C12.0535 3.97306 11.8385 3.97306 11.731 4.08081L5.28239 7.85185C5.06744 7.85185 4.95996 8.06734 4.95996 8.28283V10.0067L11.731 6.12795C11.946 6.0202 12.0535 6.0202 12.2684 6.12795L16.9974 8.82155C17.2124 8.92929 17.3198 9.14478 17.3198 9.25253V10.9764L12.2684 8.06734C12.0535 7.9596 11.946 7.9596 11.731 8.06734L5.28239 11.8384C5.06744 11.9461 4.95996 12.1616 4.95996 12.2694V15.7172C4.95996 15.9327 5.06744 16.0404 5.17492 16.1482L6.6796 17.0101V13.3468C6.6796 13.1313 6.78707 13.0236 7.00203 12.9158L11.731 10.2222C11.9629 10.0917 12.0535 10.0067 12.2684 10.1145Z" fill="white"/>
<path d="M12.269 17.8721C12.0541 17.9798 11.9466 17.9798 11.7316 17.8721L8.50732 16.0404V17.7643C8.50732 17.9798 8.6148 18.0876 8.72228 18.1953L11.7316 19.9192C11.9466 20.027 12.0541 20.027 12.269 19.9192L19.0401 16.0404L17.5354 15.1785C17.3205 15.0707 17.213 15.0707 16.998 15.1785L12.269 17.8721Z" fill="white"/>
<path d="M12.268 15.9327L15.0624 14.3165C15.2773 14.2088 15.2773 13.9933 15.0624 13.8855L12.268 12.1616C12.053 12.0539 11.9455 12.0539 11.7306 12.1616L8.8287 13.7778C8.61374 13.8855 8.61374 14.101 8.8287 14.2088L11.6231 15.8249C11.8381 16.0404 12.053 16.0404 12.268 15.9327Z" fill="white"/>
</svg>
