<svg width="24" height="24" viewBox="0 0 24 24" fill="none" xmlns="http://www.w3.org/2000/svg">
<path d="M12 24C18.6274 24 24 18.6274 24 12C24 5.37258 18.6274 0 12 0C5.37258 0 0 5.37258 0 12C0 18.6274 5.37258 24 12 24Z" fill="black"/>
<path d="M19.776 9.30053C20.304 11.3645 9.89999 16.4645 5.18399 17.6765C0.467992 18.8885 14.304 12.9125 13.764 10.8485C13.224 8.78453 2.19599 10.4765 6.91199 9.26453C11.628 8.05253 19.248 7.23653 19.776 9.30053Z" fill="url(#paint0_linear)"/>
<path d="M23.5 12C23.5 18.3513 18.3513 23.5 12 23.5C5.64873 23.5 0.5 18.3513 0.5 12C0.5 5.64873 5.64873 0.5 12 0.5C18.3513 0.5 23.5 5.64873 23.5 12Z" stroke="white" stroke-opacity="0.217"/>
<defs>
<linearGradient id="paint0_linear" x1="10.6344" y1="8.30333" x2="12.564" y2="15.7697" gradientUnits="userSpaceOnUse">
<stop stop-color="#00FF8F"/>
<stop offset="0.43" stop-color="#53FDB2"/>
<stop offset="1" stop-color="#68FCBB"/>
</linearGradient>
</defs>
</svg>
