<svg width="24" height="24" viewBox="0 0 24 24" fill="none" xmlns="http://www.w3.org/2000/svg">
<path d="M12 24C18.6274 24 24 18.6274 24 12C24 5.37258 18.6274 0 12 0C5.37258 0 0 5.37258 0 12C0 18.6274 5.37258 24 12 24Z" fill="#DD362C"/>
<path d="M23.5 12C23.5 18.3513 18.3513 23.5 12 23.5C5.64873 23.5 0.5 18.3513 0.5 12C0.5 5.64873 5.64873 0.5 12 0.5C18.3513 0.5 23.5 5.64873 23.5 12Z" stroke="white" stroke-opacity="0.3"/>
<path d="M18.8049 9.213C18.194 8.75941 17.5401 8.27543 16.9008 7.79544C16.8863 7.78424 16.8725 7.77304 16.8549 7.76184C16.78 7.69748 16.6952 7.6469 16.6041 7.61224L16.5965 7.60824C14.8859 7.16912 13.1758 6.72807 11.4661 6.28507L6.89012 5.10351L6.77005 5.06991C6.63241 5.02911 6.47335 4.98351 6.30359 5.00591C6.25708 5.01336 6.21272 5.03138 6.17358 5.05871L6.13077 5.09631C6.07714 5.15383 6.03617 5.2229 6.01071 5.2987L6 5.3291V5.5011L6.00765 5.5275C6.97117 8.39542 7.9607 11.3049 8.91504 14.1201C9.64993 16.288 10.4139 18.5327 11.1587 20.7375C11.2046 20.8871 11.3353 20.9855 11.4982 20.9999H11.5334C11.6784 21.0038 11.8138 20.9247 11.8867 20.7935L14.6855 16.4632C15.3669 15.4096 16.0489 14.3529 16.7311 13.2993L17.5684 12.0017C18.0273 11.2897 18.5013 10.5546 18.9716 9.83858L18.9961 9.80178V9.75618C19.0068 9.62499 19.0099 9.3554 18.8049 9.2122V9.213ZM15.5259 10.7914C14.8683 11.1545 14.1976 11.5298 13.5224 11.9009L14.7031 10.5586C15.194 9.99617 15.7063 9.4146 16.208 8.84501L16.2187 8.83381C16.2608 8.77381 16.3143 8.71781 16.3709 8.65781C16.4091 8.61701 16.4519 8.57541 16.4909 8.52662C16.7525 8.71861 17.0171 8.91301 17.2717 9.10421C17.4553 9.2426 17.6426 9.3818 17.8338 9.52019C17.0618 9.93857 16.2925 10.3623 15.5259 10.7914ZM13.8374 10.6114C13.3319 11.1921 12.8089 11.7882 12.2897 12.3769C11.2819 11.0798 10.2713 9.78512 9.25763 8.49302L7.89723 6.75707L7.89417 6.75307C7.79169 6.62987 7.69229 6.49467 7.59364 6.36747C7.53017 6.28108 7.46288 6.19868 7.39558 6.11228C7.80546 6.22428 8.21917 6.32987 8.62522 6.43067C8.98234 6.52107 9.35322 6.61467 9.71721 6.71227L15.8692 8.29782C15.1872 9.07061 14.5012 9.85378 13.8374 10.6114ZM12.0595 17.9183C12.0985 17.5248 12.1413 17.12 12.1765 16.7224C12.2086 16.4032 12.24 16.0776 12.2721 15.7664C12.3211 15.2672 12.3746 14.7504 12.4174 14.2441L12.4273 14.1545C12.4625 13.8313 12.4977 13.4985 12.5191 13.1641C12.5603 13.1398 12.6029 13.1184 12.6468 13.1001C12.6996 13.0745 12.7524 13.0521 12.805 13.0185C13.6212 12.5635 14.4387 12.1109 15.2575 11.661C16.0742 11.2113 16.9115 10.7458 17.742 10.285C16.9885 11.4427 16.238 12.6027 15.4908 13.7649C14.8583 14.7424 14.2083 15.7512 13.5614 16.7448C13.3075 17.1424 13.0421 17.5471 12.7914 17.9367C12.5084 18.3719 12.2186 18.8175 11.9364 19.2647C11.9716 18.8143 12.0136 18.3607 12.0595 17.9183ZM7.13482 6.99706C7.08894 6.86186 7.03846 6.72347 6.9964 6.59227C7.95076 7.81464 8.91122 9.04421 9.84798 10.2362C10.332 10.8546 10.8161 11.4698 11.3001 12.0921C11.3957 12.2081 11.4913 12.3321 11.5831 12.4521C11.7032 12.6057 11.8232 12.7673 11.954 12.9209C11.9112 13.3065 11.876 13.6969 11.837 14.0713C11.8125 14.3337 11.788 14.5969 11.7597 14.8632V14.8664C11.749 15.0344 11.7276 15.204 11.71 15.3688L11.629 16.1152L11.6252 16.1408C11.5617 16.8984 11.4837 17.6631 11.4095 18.4055C11.3781 18.7127 11.3499 19.0279 11.3177 19.3431C11.3001 19.2871 11.2795 19.2303 11.2611 19.1775C11.2073 19.0247 11.1555 18.8711 11.1059 18.7167L10.7274 17.6031L7.13405 6.99706H7.13482Z" fill="white"/>
</svg>
