<svg width="24" height="24" viewBox="0 0 24 24" fill="none" xmlns="http://www.w3.org/2000/svg">
<path d="M12 24C18.6274 24 24 18.6274 24 12C24 5.37258 18.6274 0 12 0C5.3726 0 1.52588e-05 5.37258 1.52588e-05 12C1.52588e-05 18.6274 5.3726 24 12 24Z" fill="#0041FF"/>
<path d="M12 24C18.6274 24 24 18.6274 24 12C24 5.37258 18.6274 0 12 0C5.3726 0 1.52588e-05 5.37258 1.52588e-05 12C1.52588e-05 18.6274 5.3726 24 12 24Z" fill="#3527CD"/>
<path d="M23.5 12C23.5 18.3513 18.3513 23.5 12 23.5C5.64874 23.5 0.500015 18.3513 0.500015 12C0.500015 5.64873 5.64874 0.5 12 0.5C18.3513 0.5 23.5 5.64873 23.5 12Z" stroke="white" stroke-opacity="0.3"/>
<path d="M5 6.2963C5 5.58037 5.58037 5 6.2963 5H17.7037C18.4196 5 19 5.58037 19 6.2963V17.7037C19 18.4196 18.4196 19 17.7037 19H6.2963C5.58037 19 5 18.4196 5 17.7037V6.2963Z" fill="white"/>
<path d="M5.51857 14.0742H18.4815V17.5742C18.4815 18.0754 18.0753 18.4816 17.5741 18.4816H6.42598C5.92483 18.4816 5.51857 18.0754 5.51857 17.5742V14.0742Z" fill="#3527CD"/>
<path d="M12.8551 8.17692V12.5176H11.1339V8.17692H8.88882V6.55469H15.111V8.17692H12.8551Z" fill="#3527CD"/>
<path d="M8.79612 15.4859V15.041H6.6694V15.4859H7.45133V17.4441H7.98048V15.4859H8.79612Z" fill="white"/>
<path d="M10.4651 17.5048C11.1931 17.5048 11.6144 17.1374 11.6144 16.2308V15.041H11.0751V16.2139C11.0751 16.8037 10.883 17.0093 10.4685 17.0093C10.0539 17.0093 9.84831 16.7936 9.84831 16.2139V15.041H9.30907V16.2308C9.30907 17.1374 9.70003 17.5048 10.4651 17.5048Z" fill="white"/>
<path d="M13.3315 17.5083C14.0729 17.5083 14.4302 17.1882 14.4302 16.7163C14.4268 16.2108 14.046 16.0624 13.3685 16.0052C12.836 15.958 12.6709 15.9074 12.6709 15.7052C12.6709 15.5401 12.8023 15.4187 13.1932 15.4187C13.5977 15.4187 13.8168 15.5097 13.864 15.7996H14.41C14.3325 15.2468 13.9516 14.9873 13.2 14.9873C12.499 14.9873 12.1518 15.294 12.1518 15.7187C12.1518 16.231 12.5192 16.3725 13.1124 16.4298C13.6786 16.4804 13.9111 16.504 13.9111 16.7466C13.9111 16.9421 13.7325 17.0567 13.3416 17.0567C12.9034 17.0567 12.6574 16.932 12.6035 16.5983H12.0473C12.1282 17.2118 12.472 17.5083 13.3315 17.5083Z" fill="white"/>
<path d="M14.9594 17.4441H15.9941C16.803 17.4441 17.2883 17.0902 17.2883 16.2982V16.2072C17.2883 15.3983 16.7895 15.041 15.9671 15.041H14.9594V17.4441ZM15.9435 15.4859C16.5064 15.4859 16.7625 15.7016 16.7625 16.2173V16.2746C16.7625 16.7869 16.5131 16.9925 15.9671 16.9925H15.4683V15.4859H15.9435Z" fill="white"/>
</svg>
