<svg width="24" height="24" viewBox="0 0 24 24" fill="none" xmlns="http://www.w3.org/2000/svg">
<path fill-rule="evenodd" clip-rule="evenodd" d="M0 12C0 5.37259 5.37259 0 12 0C18.6274 0 24 5.37259 24 12C24 18.6274 18.6274 24 12 24C5.37259 24 0 18.6274 0 12Z" fill="url(#paint0_linear)"/>
<path d="M23.5 12C23.5 18.3513 18.3513 23.5 12 23.5C5.64873 23.5 0.5 18.3513 0.5 12C0.5 5.64873 5.64873 0.5 12 0.5C18.3513 0.5 23.5 5.64873 23.5 12Z" stroke="white" stroke-opacity="0.3"/>
<mask id="mask0" mask-type="alpha" maskUnits="userSpaceOnUse" x="1" y="1" width="22" height="22">
<circle cx="12" cy="12" r="11" fill="#C4C4C4"/>
</mask>
<g mask="url(#mask0)">
<path d="M8.56272 10.8421C8.55561 10.8492 5.55047 14.8419 5.47942 15.0977C5.47942 15.0977 4.67663 16.7459 7.26262 16.9164C7.26262 16.9164 8.64086 16.824 12.4346 15.3818C12.4346 15.3818 15.7594 14.3375 13.6139 11.9078C13.6139 11.9078 16.3065 12.7745 17.2087 14.0391C17.2585 14.1102 17.3011 14.1883 17.3579 14.2522C17.7345 14.7282 19.0701 16.6748 17.6208 18.9695C17.6208 18.9766 17.6137 18.9766 17.6137 18.9837C17.5142 19.1827 14.7648 24.2623 4.3072 21.7971C4.3072 21.7971 17.8765 26.6209 24.1781 19.5805L23.9152 16.9803C23.9152 16.9803 23.7163 14.0533 22.8709 12.4975C22.7928 12.3483 22.7146 12.1991 22.6223 12.057C22.1534 11.3181 21.0096 9.12999 18.047 7.85831L17.024 8.90265L17.5142 7.61677C17.5071 7.61677 15.1058 6.70741 14.3812 6.94185L14.1396 8.20643L13.7986 6.90633C13.7915 6.90633 12.1362 6.64347 10.4312 7.13367L11.1274 8.38404C11.1274 8.38404 11.1274 8.39114 11.1203 8.39114C11.0279 8.36272 10.1541 8.1709 9.47207 9.6344L3 8.34851L8.56272 10.8421Z" fill="white"/>
<path d="M11.376 11.0972L9.79177 12.2836C9.79177 12.2836 9.30157 11.7011 9.93386 11.2109C9.92675 11.2109 10.559 10.7491 11.376 11.0972Z" fill="url(#paint1_linear)"/>
<path opacity="0.54" d="M4.3072 21.7899C4.3072 21.7899 11.6744 22.344 13.0171 19.5378C14.3599 16.7316 12.4346 15.3817 12.4346 15.3817C12.4346 15.3817 14.3599 14.7637 14.3315 13.3996C14.3315 13.3996 14.4096 12.8455 13.6068 11.9077C13.6068 11.9077 16.5196 12.6821 17.2087 13.8401C17.3153 14.0177 17.429 14.1811 17.5497 14.3445C18.2175 15.2112 19.951 18.2732 15.3971 21.0866C10.012 24.4043 4.3072 21.7899 4.3072 21.7899Z" fill="white"/>
</g>
<defs>
<linearGradient id="paint0_linear" x1="24.006" y1="12.0051" x2="0.00601673" y2="12.0051" gradientUnits="userSpaceOnUse">
<stop stop-color="#00F649"/>
<stop offset="1" stop-color="#00D579"/>
</linearGradient>
<linearGradient id="paint1_linear" x1="9.61239" y1="11.6278" x2="11.3778" y2="11.6278" gradientUnits="userSpaceOnUse">
<stop stop-color="#00F649"/>
<stop offset="1" stop-color="#00D579"/>
</linearGradient>
</defs>
</svg>
