<svg width="24" height="24" viewBox="0 0 24 24" fill="none" xmlns="http://www.w3.org/2000/svg">
<path d="M12 24C18.6274 24 24 18.6274 24 12C24 5.37258 18.6274 0 12 0C5.37258 0 0 5.37258 0 12C0 18.6274 5.37258 24 12 24Z" fill="url(#paint0_linear)"/>
<path fill-rule="evenodd" clip-rule="evenodd" d="M11.0175 19.4142L5.02969 7.41753C4.98532 7.32769 4.99098 7.22176 5.04467 7.13698C5.09837 7.0522 5.19258 7.00048 5.29417 7H7.36946C7.48069 7 7.58492 7.06118 7.63393 7.15753L12.007 15.8606C12.3959 16.6406 13.5246 16.6406 13.9143 15.8606L18.2733 7.16441C18.3245 7.06739 18.4266 7.00661 18.5378 7.00688H18.796C18.9493 7.00688 19.0465 7.16441 18.9773 7.29441L12.9256 19.415C12.5359 20.195 11.4081 20.195 11.0175 19.415V19.4142Z" fill="white"/>
<path d="M23.5 12C23.5 18.3513 18.3513 23.5 12 23.5C5.64873 23.5 0.5 18.3513 0.5 12C0.5 5.64873 5.64873 0.5 12 0.5C18.3513 0.5 23.5 5.64873 23.5 12Z" stroke="white" stroke-opacity="0.3"/>
<defs>
<linearGradient id="paint0_linear" x1="1.6408" y1="-1.42484e-07" x2="18.3583" y2="15.0464" gradientUnits="userSpaceOnUse">
<stop stop-color="#A277D1"/>
<stop offset="1" stop-color="#28C7FB"/>
</linearGradient>
</defs>
</svg>
