<svg width="24" height="24" viewBox="0 0 24 24" fill="none" xmlns="http://www.w3.org/2000/svg">
<path d="M12 24C18.6274 24 24 18.6274 24 12C24 5.37258 18.6274 0 12 0C5.37258 0 0 5.37258 0 12C0 18.6274 5.37258 24 12 24Z" fill="#F5F5F5"/>
<path d="M13.9313 9.82156V7.82955C13.9314 7.78532 13.9261 7.74125 13.9153 7.69835C13.8377 7.40575 13.539 7.23016 13.2456 7.30474L10.4872 7.97995C10.2433 8.03723 10.0703 8.25417 10.0688 8.50475V14.5488C10.0688 14.5936 10.0744 14.6368 10.0848 14.68C10.1624 14.9726 10.4611 15.1482 10.7544 15.0736L12.552 14.6336V11.0032C12.552 10.5072 12.896 10.0752 13.3873 9.95516L13.9313 9.82156Z" fill="#8200FF"/>
<path d="M7.86242 9.78801V7.8288C7.86226 7.7848 7.85661 7.741 7.84562 7.6984C7.76808 7.40619 7.46992 7.23072 7.17682 7.3048L4.4176 7.98C4.17397 8.0376 4.00141 8.25446 4 8.5048V14.5488C4 14.5936 4.0056 14.6368 4.016 14.68C4.09353 14.9726 4.39224 15.1482 4.6856 15.0736L6.34481 14.6672V11.0032C6.34481 10.5072 6.68881 10.0752 7.18082 9.95521L7.86242 9.78801Z" fill="#8200FF"/>
<path d="M16.5561 7.99673C16.3124 8.05394 16.1395 8.27044 16.1377 8.52072V14.5656C16.1412 14.7334 16.221 14.8906 16.3543 14.9925C16.4878 15.0945 16.6603 15.1302 16.8233 15.0896L19.5825 14.4144C19.8258 14.3569 19.9983 14.1404 20.0001 13.8904V7.84553C20.0003 7.80129 19.9949 7.75722 19.9841 7.71432C19.9062 7.42204 19.6077 7.24688 19.3145 7.32152L16.5561 7.99673Z" fill="#8200FF"/>
<path d="M9.51778 9.93994L7.31458 10.4791C7.07123 10.5367 6.89875 10.7531 6.89697 11.0031V17.048C6.89697 17.092 6.90257 17.136 6.91297 17.1792C6.99086 17.4715 7.28946 17.6467 7.58258 17.572L10.341 16.8968C10.5843 16.8393 10.7568 16.6228 10.7586 16.3728V15.6208C10.2099 15.6921 9.69324 15.3458 9.55059 14.8112C9.52874 14.7254 9.51771 14.6373 9.51778 14.5488V9.93994Z" fill="#36C8CC"/>
<path d="M15.5865 9.97363L13.5217 10.4792C13.278 10.5364 13.1051 10.7529 13.1033 11.0032V17.0481C13.1033 17.0921 13.1089 17.1361 13.1193 17.1793C13.1972 17.4715 13.4958 17.6467 13.7889 17.572L16.5481 16.8969C16.7915 16.8393 16.964 16.6229 16.9657 16.3729V15.6121L16.9577 15.6137C16.3657 15.7585 15.7673 15.4065 15.6193 14.8281C15.5975 14.7423 15.5864 14.6542 15.5865 14.5657V9.97363Z" fill="#36C8CC"/>
<path d="M23.5 12C23.5 18.3513 18.3513 23.5 12 23.5C5.64873 23.5 0.5 18.3513 0.5 12C0.5 5.64873 5.64873 0.5 12 0.5C18.3513 0.5 23.5 5.64873 23.5 12Z" stroke="black" stroke-opacity="0.097"/>
</svg>
