<svg width="24" height="24" viewBox="0 0 24 24" fill="none" xmlns="http://www.w3.org/2000/svg">
<path d="M12 24C18.6274 24 24 18.6274 24 12C24 5.37258 18.6274 0 12 0C5.37258 0 0 5.37258 0 12C0 18.6274 5.37258 24 12 24Z" fill="#003057"/>
<path d="M9.52024 19C9.37992 18.9999 9.24167 18.967 9.11687 18.9039C8.99206 18.8408 8.88428 18.7493 8.80243 18.6371L5.29028 13.844H3V12.0993H5.74361C5.88381 12.0991 6.02203 12.1319 6.14685 12.1948C6.27167 12.2577 6.37948 12.349 6.46139 12.4611L9.33134 16.376L13.71 6.52223C13.779 6.36687 13.8924 6.2347 14.0365 6.14193C14.1805 6.04917 14.349 5.99984 14.521 6H20V7.74466H15.1007L10.3324 18.4766C10.2696 18.6181 10.1697 18.7407 10.0429 18.8316C9.91616 18.9226 9.76716 18.9787 9.61109 18.9942C9.57964 18.9959 9.54812 18.9959 9.51667 18.9942" fill="#00C389"/>
<path d="M-5.24537e-07 12.0001C-8.1423e-07 18.6275 5.37258 24.0001 12 24.0001C18.6274 24.0001 24 18.6275 24 12.0001C24 5.3727 18.6274 0.000121835 12 0.000121546C5.37258 0.000121256 -2.34843e-07 5.3727 -5.24537e-07 12.0001Z" fill="#202336"/>
<path d="M12 23.5001C5.64872 23.5001 0.499999 18.3514 0.499999 12.0001C0.5 5.64885 5.64872 0.500121 12 0.500122C18.3513 0.500122 23.5 5.64885 23.5 12.0001C23.5 18.3514 18.3513 23.5001 12 23.5001Z" stroke="white" stroke-opacity="0.3"/>
<path d="M11.6343 20H12.3798C12.4118 19.9934 12.4445 19.9854 12.4772 19.9811C12.7238 19.9542 12.9718 19.9396 13.2169 19.9011C15.1586 19.5898 16.7702 18.6822 18.0677 17.2087C18.1186 17.1506 18.1245 17.1127 18.0757 17.0487C17.5158 16.3069 16.9586 15.5644 16.4008 14.8211C16.3834 14.7978 16.3622 14.7774 16.3398 14.7506L16.2619 14.8654C15.761 15.6058 15.0777 16.2044 14.2779 16.6036C14.2016 16.6429 14.1543 16.6436 14.0889 16.5782C13.8249 16.3106 13.5536 16.0509 13.2852 15.7876L12.8016 15.3171C11.1958 16.5171 9.5987 17.7098 7.99435 18.9098C8.02126 18.928 8.03362 18.9389 8.04745 18.9462C8.96991 19.4749 9.98947 19.8123 11.0452 19.9382C11.2416 19.9614 11.4379 19.9796 11.6343 20ZM12.3398 4H11.6539C11.619 4.00654 11.5834 4.01454 11.5478 4.01891C11.2314 4.056 10.9114 4.07491 10.5994 4.13164C8.97471 4.42618 7.57399 5.15854 6.39364 6.30982C6.21182 6.48654 6.04455 6.67782 5.86419 6.86982L7.65836 9.26036L7.73254 9.15127C8.23851 8.39819 8.93279 7.79066 9.74634 7.38909C9.81398 7.35491 9.85543 7.36073 9.90998 7.41454C10.2511 7.752 10.5958 8.08582 10.939 8.42036C11.0009 8.48073 11.0634 8.53891 11.1282 8.6C12.7602 7.42909 14.3834 6.26546 16.0139 5.09454C15.9899 5.07782 15.9775 5.06764 15.963 5.05964C14.9766 4.49318 13.8798 4.1459 12.747 4.04146C12.6103 4.02836 12.4743 4.01382 12.3383 4H12.3398ZM5.06129 8.02473C4.09039 9.78473 3.76966 11.6306 4.1653 13.584C4.53475 15.4094 5.45546 16.9134 6.87364 18.1346L9.24453 16.3556C9.23216 16.3309 9.22998 16.3236 9.22562 16.32L9.1507 16.2691C8.39778 15.763 7.79069 15.0685 7.38999 14.2546C7.358 14.1913 7.36018 14.1513 7.41254 14.0989C7.59872 13.9149 7.77981 13.7258 7.96235 13.5389L8.69544 12.7869L5.06274 8.02473H5.06129ZM15.3703 11.2029L18.9506 15.9324C19.8408 14.4371 20.299 12.3134 19.7848 10.1665C19.3732 8.44654 18.4765 7.02182 17.1259 5.86473L14.7412 7.65382C14.787 7.68654 14.8132 7.70618 14.8401 7.72436C15.6034 8.23328 16.2182 8.93542 16.6219 9.75927C16.6568 9.82909 16.6582 9.87346 16.5986 9.93236C16.4074 10.1215 16.2241 10.3164 16.0379 10.5098L15.3703 11.2029Z" fill="white"/>
</svg>
