<svg width="24" height="24" viewBox="0 0 24 24" fill="none" xmlns="http://www.w3.org/2000/svg">
<path d="M12 24C18.6274 24 24 18.6274 24 12C24 5.37258 18.6274 0 12 0C5.37258 0 0 5.37258 0 12C0 18.6274 5.37258 24 12 24Z" fill="#003057"/>
<path d="M9.52024 19C9.37992 18.9999 9.24167 18.967 9.11687 18.9039C8.99206 18.8408 8.88428 18.7493 8.80243 18.6371L5.29028 13.844H3V12.0993H5.74361C5.88381 12.0991 6.02203 12.1319 6.14685 12.1948C6.27167 12.2577 6.37948 12.349 6.46139 12.4611L9.33134 16.376L13.71 6.52223C13.779 6.36687 13.8924 6.2347 14.0365 6.14193C14.1805 6.04917 14.349 5.99984 14.521 6H20V7.74466H15.1007L10.3324 18.4766C10.2696 18.6181 10.1697 18.7407 10.0429 18.8316C9.91616 18.9226 9.76716 18.9787 9.61109 18.9942C9.57964 18.9959 9.54812 18.9959 9.51667 18.9942" fill="#00C389"/>
<path d="M-5.24537e-07 12.0001C-8.1423e-07 18.6275 5.37258 24.0001 12 24.0001C18.6274 24.0001 24 18.6275 24 12.0001C24 5.3727 18.6274 0.000121835 12 0.000121546C5.37258 0.000121256 -2.34843e-07 5.3727 -5.24537e-07 12.0001Z" fill="#202336"/>
<path d="M12 23.5001C5.64872 23.5001 0.499999 18.3514 0.499999 12.0001C0.5 5.64885 5.64872 0.500121 12 0.500122C18.3513 0.500122 23.5 5.64885 23.5 12.0001C23.5 18.3514 18.3513 23.5001 12 23.5001Z" stroke="white" stroke-opacity="0.3"/>
<path d="M11.957 17.2083C9.06945 17.2083 6.72046 14.8717 6.72046 12.0004C6.72046 9.12833 9.07019 6.79243 11.957 6.79243C14.8445 6.79243 17.1935 9.12833 17.1935 12.0004C17.1935 14.8717 14.8445 17.2083 11.957 17.2083ZM11.957 7.8121C9.63573 7.8121 7.74646 9.69077 7.74646 12.0004C7.74646 14.3093 9.63573 16.1879 11.957 16.1879C14.279 16.1879 16.1675 14.3093 16.1675 12.0004C16.1675 9.69077 14.279 7.8121 11.957 7.8121ZM15.6239 6.04812C14.5192 5.37481 13.2504 5.01947 11.957 5.02114C10.7664 5.02064 9.59513 5.32167 8.55208 5.89619L8.05295 5.00507C9.24869 4.34558 10.5917 3.99982 11.957 4C13.4456 4 14.8992 4.40758 16.1609 5.17891L15.6239 6.04812ZM17.1527 18.1075L16.4893 17.3281C18.0639 16.0074 18.9737 14.0567 18.9741 12.0004H20.0001C20.0001 14.3567 18.9624 16.5823 17.1527 18.1067V18.1075ZM11.957 19.9993C10.0911 19.9993 8.2726 19.3492 6.83722 18.1695L7.49105 17.3836C8.75111 18.4155 10.329 18.9794 11.957 18.9796C13.0954 18.9796 14.1812 18.7167 15.1838 18.1995L15.656 19.1052C14.5114 19.6931 13.2435 19.9999 11.957 20V19.9993Z" fill="#00BFEC"/>
<path opacity="0.5" d="M18.8011 10.1049C18.5328 9.14171 18.061 8.24746 17.4175 7.48264L18.0743 6.93775C18.7956 7.79521 19.3245 8.79784 19.625 9.87772L18.8018 10.1049H18.8011ZM5.30841 16.3508C4.4532 15.0615 3.99797 13.5479 4.00001 12.0004C4.00001 9.83682 4.86109 7.81645 6.42489 6.31104L7.01889 6.9224C5.6315 8.24581 4.84884 10.082 4.85452 12.0004C4.85452 13.3874 5.25878 14.73 6.02208 15.8833L5.30841 16.3508Z" fill="#00BFEC"/>
</svg>
