<svg width="24" height="24" viewBox="0 0 24 24" fill="none" xmlns="http://www.w3.org/2000/svg">
<path d="M12 24C18.6274 24 24 18.6274 24 12C24 5.37258 18.6274 0 12 0C5.3726 0 1.52588e-05 5.37258 1.52588e-05 12C1.52588e-05 18.6274 5.3726 24 12 24Z" fill="#0041FF"/>
<path d="M12 24C18.6274 24 24 18.6274 24 12C24 5.37258 18.6274 0 12 0C5.3726 0 1.52588e-05 5.37258 1.52588e-05 12C1.52588e-05 18.6274 5.3726 24 12 24Z" fill="#516FFA"/>
<path d="M16.9351 17.0116L11.9211 19.9113V19.9123H11.919L6.90186 17.0116V6.97731L6.90704 6.98044L11.9169 4.08691L15.1325 5.88118H15.1335V10.411L13.5689 9.51237V6.78406L11.919 5.84381L8.46548 7.84066V16.1586L11.919 18.1555L15.3725 16.1648L15.3891 12.7466L10.4821 9.89989L12.0582 9.07079L16.9475 11.9217L16.9351 17.0126V17.0116ZM12.8644 11.6734L14.0727 12.3685L10.4821 14.4131V10.2905L11.7434 11.0344V12.2718L12.8655 11.6734H12.8644Z" fill="white"/>
<path d="M23.5 12C23.5 18.3513 18.3513 23.5 12 23.5C5.64874 23.5 0.500015 18.3513 0.500015 12C0.500015 5.64873 5.64874 0.5 12 0.5C18.3513 0.5 23.5 5.64873 23.5 12Z" stroke="white" stroke-opacity="0.3"/>
</svg>
