<svg width="24" height="24" viewBox="0 0 24 24" fill="none" xmlns="http://www.w3.org/2000/svg">
<path d="M12 24C18.6274 24 24 18.6274 24 12C24 5.37258 18.6274 0 12 0C5.37258 0 0 5.37258 0 12C0 18.6274 5.37258 24 12 24Z" fill="#F9F9F9"/>
<path d="M23.5 12C23.5 18.3513 18.3513 23.5 12 23.5C5.64873 23.5 0.5 18.3513 0.5 12C0.5 5.64873 5.64873 0.5 12 0.5C18.3513 0.5 23.5 5.64873 23.5 12Z" stroke="black" stroke-opacity="0.097"/>
<path d="M9.43989 12.1381C7.8348 14.081 6.23989 16.046 4.63989 18H19.898L19.9999 17.8912V17.7395C19.9468 17.6958 19.898 17.6418 19.829 17.6307C16.2348 16.898 12.6399 16.1386 9.04498 15.4059C8.93298 15.3999 8.8268 15.2919 8.86898 15.172C9.1468 14.2335 9.42898 13.2942 9.69589 12.3498C9.7388 12.1922 9.56789 12.1004 9.43989 12.1381Z" fill="url(#paint0_linear)"/>
<path d="M11.9254 4.29496V4.28978L15.4511 14.3622C15.4791 14.4223 15.479 14.4919 15.4511 14.5519C15.4233 14.612 15.3704 14.6561 15.3071 14.6724L12.6934 15.4051C12.4803 15.4591 12.5283 15.8173 12.7471 15.8285L19.4083 17.18C19.5363 17.2014 19.6643 17.2451 19.7974 17.2451C17.3027 12.8658 14.8067 8.48747 12.3094 4.10992C12.2031 3.87679 11.8191 4.05071 11.9254 4.29496Z" fill="url(#paint1_linear)"/>
<path d="M11.5411 4.31714C9.03127 8.72834 6.51709 13.1366 4 17.5433V17.6692C4.05309 17.7447 4.11709 17.8209 4.21309 17.8209C4.34691 17.8046 4.416 17.6743 4.496 17.5878L11.3651 9.37522C11.4349 9.2716 11.5891 9.20721 11.696 9.30491C12.3578 10.0214 12.9978 10.7593 13.6691 11.4757C13.7971 11.6163 14.0589 11.4594 13.9891 11.27C13.2051 8.99034 12.3949 6.71073 11.6051 4.43112C11.587 4.39136 11.5655 4.35323 11.5411 4.31714Z" fill="url(#paint2_linear)"/>
<defs>
<linearGradient id="paint0_linear" x1="7" y1="15.5" x2="18.5" y2="17.5" gradientUnits="userSpaceOnUse">
<stop stop-color="#A7A8A8"/>
<stop offset="0.395833" stop-color="#DCDCDC"/>
<stop offset="1" stop-color="#9FA0A0"/>
</linearGradient>
<linearGradient id="paint1_linear" x1="16.6409" y1="4.17936" x2="10.9444" y2="16.0929" gradientUnits="userSpaceOnUse">
<stop stop-color="#4881BD"/>
<stop offset="1" stop-color="#70BAD7"/>
</linearGradient>
<linearGradient id="paint2_linear" x1="10" y1="4.5" x2="5" y2="17.5" gradientUnits="userSpaceOnUse">
<stop stop-color="#4881BD"/>
<stop offset="1" stop-color="#70BAD7"/>
</linearGradient>
</defs>
</svg>
