<svg width="24" height="24" viewBox="0 0 24 24" fill="none" xmlns="http://www.w3.org/2000/svg">
<path d="M12 24C18.6274 24 24 18.6274 24 12C24 5.37258 18.6274 0 12 0C5.37258 0 0 5.37258 0 12C0 18.6274 5.37258 24 12 24Z" fill="url(#paint0_radial)"/>
<path d="M11.4314 15.3035L11.6737 14.3091C11.6737 14.2789 11.6595 14.2487 11.631 14.2487H7.04266C7.01364 14.2487 7 14.2184 7 14.1882L9.36529 5.03022C9.36529 5.01541 9.3943 5 9.40794 5H11.9584C13.6823 5 14.7653 5.48963 15.4351 6.18721C15.7642 6.54531 16.0199 6.9695 16.1865 7.4339C16.3531 7.89831 16.4271 8.39319 16.404 8.88836C16.4057 9.44343 16.319 9.99495 16.1475 10.5205C16.007 10.9714 15.8004 11.397 15.5349 11.782C15.5207 11.8123 15.5349 11.8564 15.5639 11.8564H18.9556C18.9642 11.8554 18.973 11.8574 18.9805 11.862C18.9879 11.8667 18.9938 11.8737 18.9971 11.8821C19.0003 11.8906 19.0009 11.8999 18.9986 11.9086C18.9964 11.9174 18.9914 11.9252 18.9846 11.9307L10.105 20.9878C10.0981 20.9945 10.0894 20.9987 10.08 20.9997C10.0707 21.0008 10.0612 20.9986 10.0532 20.9936C10.0451 20.9886 10.0388 20.981 10.0353 20.9719C10.0318 20.9628 10.0312 20.9528 10.0336 20.9434L11.4314 15.3035Z" fill="white"/>
<path d="M23.5 12C23.5 18.3513 18.3513 23.5 12 23.5C5.64873 23.5 0.5 18.3513 0.5 12C0.5 5.64873 5.64873 0.5 12 0.5C18.3513 0.5 23.5 5.64873 23.5 12Z" stroke="black" stroke-opacity="0.097"/>
<defs>
<radialGradient id="paint0_radial" cx="0" cy="0" r="1" gradientUnits="userSpaceOnUse" gradientTransform="translate(8.67814 15.672) scale(24.7296 19.32)">
<stop stop-color="#41BEF0"/>
<stop offset="0.469" stop-color="#828CBE"/>
<stop offset="0.54" stop-color="#8F80AE"/>
<stop offset="0.794" stop-color="#BC5A79"/>
<stop offset="0.917" stop-color="#CD4B64"/>
</radialGradient>
</defs>
</svg>
