<svg width="24" height="24" viewBox="0 0 24 24" fill="none" xmlns="http://www.w3.org/2000/svg">
<path d="M12 24C18.6274 24 24 18.6274 24 12C24 5.37258 18.6274 0 12 0C5.37258 0 0 5.37258 0 12C0 18.6274 5.37258 24 12 24Z" fill="#4573B9"/>
<path d="M11.2268 11.593V16.0727L15.1092 18.3126L18.9916 16.0727V11.593L15.1092 9.3457L11.2268 11.593Z" fill="white"/>
<path d="M5 13.3707V15.9988L7.27718 17.3128L9.55436 15.9988V13.3707L7.27718 12.0566L5 13.3707Z" fill="white"/>
<path d="M5 11.5856V7.94213L11.9809 4L18.8647 7.96453V9.56976L15.0495 7.40457L9.55436 10.6598V11.5856L7.27718 10.1969L5 11.5856Z" fill="white"/>
<path d="M11.9734 19.9998L8.88986 18.2303L10.3831 17.3643L13.392 19.2159L11.9734 19.9998Z" fill="white"/>
<path d="M23.5 12C23.5 18.3513 18.3513 23.5 12 23.5C5.64873 23.5 0.5 18.3513 0.5 12C0.5 5.64873 5.64873 0.5 12 0.5C18.3513 0.5 23.5 5.64873 23.5 12Z" stroke="white" stroke-opacity="0.3"/>
</svg>
