<svg width="24" height="24" viewBox="0 0 24 24" fill="none" xmlns="http://www.w3.org/2000/svg">
<path d="M12 24C18.6274 24 24 18.6274 24 12C24 5.37258 18.6274 0 12 0C5.37258 0 0 5.37258 0 12C0 18.6274 5.37258 24 12 24Z" fill="#01C696"/>
<path d="M23.5 12C23.5 18.3513 18.3513 23.5 12 23.5C5.64873 23.5 0.5 18.3513 0.5 12C0.5 5.64873 5.64873 0.5 12 0.5C18.3513 0.5 23.5 5.64873 23.5 12Z" stroke="black" stroke-opacity="0.097"/>
<path fill-rule="evenodd" clip-rule="evenodd" d="M12.6458 11.1468V9.86782L10.4486 12.004L12.6458 14.1401V12.8533H16.4033L12.1998 16.9402L7.11864 12L12.1997 7.05988L14.8914 9.67688C15.056 9.83689 15.2792 9.92679 15.5119 9.9268C15.7447 9.92681 15.9679 9.83693 16.1325 9.67693C16.297 9.51693 16.3895 9.29992 16.3895 9.07364C16.3895 8.84735 16.2971 8.63033 16.1325 8.47032L12.8201 5.24987C12.6555 5.08988 12.4323 5 12.1996 5C11.9669 5 11.7437 5.08988 11.5791 5.24987L5.257 11.3968C5.09245 11.5568 5 11.7738 5 12.0001C5 12.2263 5.09245 12.4433 5.257 12.6033L11.5792 18.7501C11.7438 18.9101 11.967 19 12.1997 19C12.4325 19 12.6556 18.9101 12.8202 18.7501L18.6055 13.1253C18.8455 12.8972 19 12.6041 19 12.2611C19 11.918 18.8455 11.6248 18.5984 11.3898C18.4345 11.234 18.2143 11.1468 17.985 11.1468H12.6458Z" fill="white"/>
</svg>
