<svg width="24" height="24" viewBox="0 0 24 24" fill="none" xmlns="http://www.w3.org/2000/svg">
<path d="M12 24C18.6274 24 24 18.6274 24 12C24 5.37258 18.6274 0 12 0C5.37258 0 0 5.37258 0 12C0 18.6274 5.37258 24 12 24Z" fill="#1454C4"/>
<path fill-rule="evenodd" clip-rule="evenodd" d="M13.3201 6C13.0946 6 12.8738 6.01429 12.6531 6.04286L12.6517 6.04303C12.2201 6.09529 11.8008 6.2047 11.3985 6.35757C10.9521 6.52912 10.5325 6.75796 10.1441 7.03479C9.67057 7.37314 9.25093 7.78314 8.88959 8.25567C8.10435 9.28579 7.63549 10.5869 7.63549 12.0024V18H11.1654V9.6554C10.5812 10.2531 10.2145 11.0881 10.2145 12.0024V17.0001H8.58169V12.0024C8.58169 10.6569 9.09308 9.42896 9.92174 8.52777L9.92198 8.52751C10.3067 8.11077 10.7595 7.75929 11.2615 7.50414C11.6761 7.2902 12.1293 7.13739 12.6019 7.06095L12.7982 7.02919V18H13.3154C13.5408 18 13.7616 17.9857 13.9824 17.9571L13.9838 17.957C14.4153 17.9047 14.8345 17.7953 15.2368 17.6425C15.6833 17.4709 16.103 17.2421 16.4915 16.9651C16.9656 16.6264 17.3894 16.2164 17.7454 15.745L17.7459 15.7444C18.5311 14.7143 19 13.4131 19 11.9976V6H15.4701V14.3446C16.0543 13.7469 16.421 12.9119 16.421 11.9976V6.99994H18.0538V11.9976C18.0538 13.3431 17.5424 14.571 16.7137 15.4722L16.7135 15.4725C16.3288 15.8892 15.876 16.2407 15.374 16.4958C14.9594 16.7098 14.5062 16.8626 14.0336 16.939L13.8373 16.9708V6H13.3201ZM6.02292 6.12003C5.91128 6.21648 5.77566 6.34754 5.64018 6.5124C5.31667 6.90605 5 7.4843 5 8.24244V17.9594H6.02292V6.12003Z" fill="white"/>
<path d="M23.5 12C23.5 18.3513 18.3513 23.5 12 23.5C5.64873 23.5 0.5 18.3513 0.5 12C0.5 5.64873 5.64873 0.5 12 0.5C18.3513 0.5 23.5 5.64873 23.5 12Z" stroke="white" stroke-opacity="0.3"/>
</svg>
