<svg width="24" height="24" viewBox="0 0 24 24" fill="none" xmlns="http://www.w3.org/2000/svg">
<path d="M12 24C18.6274 24 24 18.6274 24 12C24 5.37258 18.6274 0 12 0C5.37258 0 0 5.37258 0 12C0 18.6274 5.37258 24 12 24Z" fill="#31CB9E"/>
<path d="M11.1064 12.0021L17.4969 15.4212C17.7214 15.5403 18.0001 15.3887 18.0001 15.1504V8.85015C18.0001 8.60825 17.7214 8.46022 17.4969 8.57937L11.1064 12.0021Z" fill="white"/>
<path d="M17.3549 7.0651L12.9899 4.06425C12.7871 3.92459 12.4969 4.02486 12.4452 4.24688L10.8511 10.9254L17.3152 7.58076C17.5298 7.46975 17.5497 7.20118 17.3549 7.0651Z" fill="white"/>
<path d="M12.9858 19.9373L17.3545 16.9358C17.5493 16.7996 17.5294 16.531 17.3187 16.42L10.8511 13.0746L12.4451 19.7546C12.4928 19.9767 12.787 20.0734 12.9858 19.9373Z" fill="white"/>
<path d="M9.44609 11.8824L11.0984 4.61893C11.1634 4.33345 10.8192 4.12747 10.5744 4.30454L6.34423 7.35447C6.12622 7.50985 6 7.75558 6 8.01215V15.749C6 16.0056 6.12622 16.2513 6.34423 16.4067L10.5744 19.4566C10.8192 19.6337 11.1634 19.4277 11.0984 19.1422L9.44609 11.8824Z" fill="white"/>
<path d="M23.5 12C23.5 18.3513 18.3513 23.5 12 23.5C5.64873 23.5 0.5 18.3513 0.5 12C0.5 5.64873 5.64873 0.5 12 0.5C18.3513 0.5 23.5 5.64873 23.5 12Z" stroke="black" stroke-opacity="0.097"/>
</svg>
