<svg width="24" height="24" viewBox="0 0 24 24" fill="none" xmlns="http://www.w3.org/2000/svg">
<path d="M11.9999 24C18.6274 24 23.9999 18.6274 23.9999 12C23.9999 5.37258 18.6274 0 11.9999 0C5.37252 0 -6.10352e-05 5.37258 -6.10352e-05 12C-6.10352e-05 18.6274 5.37252 24 11.9999 24Z" fill="#C6A359"/>
<path d="M13.8089 16.3646C12.7745 17.6829 11.3952 18.1495 9.77261 17.9263C9.24526 17.8452 8.85988 17.7844 9.04243 16.9933C9.26554 15.9792 8.61649 15.1476 7.56178 14.9448C7.01414 14.8231 6.91273 14.6608 6.97358 14.1334C7.15612 12.6731 8.06885 11.8415 9.34667 11.375C10.3202 11.0099 11.3547 10.7868 12.3485 10.5028C13.1598 10.2797 13.9103 9.99575 13.7683 8.90047C13.6466 7.9269 12.957 7.15615 11.9429 7.03445C10.8476 6.89247 9.87402 7.17643 8.9613 7.76464C8.7179 7.9269 8.41366 8.53538 8.1297 8.04859C7.88631 7.64294 7.52121 6.99389 8.21083 6.5071C9.87402 5.33069 11.6995 4.74249 13.748 5.10758C16.2226 5.53352 17.2164 6.73021 17.2367 9.26557C17.2367 11.233 17.2164 13.1802 17.1961 15.1476C17.1961 15.8575 17.3178 16.5065 18.1697 16.7094C18.3928 16.7499 18.6565 16.7702 18.6362 17.115C18.6159 17.3787 18.3725 17.4598 18.1697 17.5612C16.4254 18.3928 15.1881 18.0683 13.8089 16.3646Z" fill="#FEFEFE"/>
<path d="M6 16.7299C6.08113 15.9794 6.46651 15.5332 7.23725 15.5332C8.008 15.5332 8.43394 16.02 8.43394 16.7502C8.43394 17.5006 7.96744 17.9469 7.21697 17.9469C6.48679 17.9266 6.04057 17.5006 6 16.7299Z" fill="#FCFBF9"/>
<path d="M13.6872 14.8029C13.4844 15.7562 12.7542 16.2633 11.8617 16.2024C10.8679 16.1213 10.6245 15.3708 10.5434 14.5798C10.3608 12.9774 12.0037 11.2331 13.5655 11.3142C13.8495 11.3345 13.89 11.4968 13.89 11.7199C13.89 12.085 13.89 12.4501 13.89 12.8355C13.9103 12.8152 13.8292 14.1538 13.6872 14.8029Z" fill="#C6A359"/>
<path d="M23.4999 12C23.4999 18.3513 18.3512 23.5 11.9999 23.5C5.64866 23.5 0.499939 18.3513 0.499939 12C0.499939 5.64873 5.64866 0.5 11.9999 0.5C18.3512 0.5 23.4999 5.64873 23.4999 12Z" stroke="black" stroke-opacity="0.097"/>
</svg>
