<svg width="24" height="24" viewBox="0 0 24 24" fill="none" xmlns="http://www.w3.org/2000/svg">
<path d="M12 24.0002C18.6274 24.0002 24 18.6277 24 12.0002C24 5.37283 18.6274 0.000244141 12 0.000244141C5.37258 0.000244141 0 5.37283 0 12.0002C0 18.6277 5.37258 24.0002 12 24.0002Z" fill="#F7F7F8"/>
<path d="M17.5544 10.169C18.9776 8.04789 17.4386 5.19939 14.8787 5.19939C14.4288 5.1993 13.984 5.29364 13.573 5.47633C13.1619 5.65901 12.7938 5.92595 12.4925 6.25989C12.6142 6.44884 12.7179 6.64876 12.8024 6.85704C12.8513 6.79179 12.9027 6.72924 12.9554 6.67044C14.4981 4.94109 17.4734 6.00864 17.4734 8.39829C17.4738 8.79759 17.3811 9.19148 17.2025 9.54861C17.0239 9.90574 16.7644 10.2162 16.4447 10.4554C15.7619 10.7646 15.2097 11.3041 14.8847 11.9794C13.7673 9.65634 10.4952 9.53439 9.20055 11.7581C8.91064 11.044 8.3748 10.4571 7.6899 10.1036C5.93625 8.51694 7.074 5.61864 9.42825 5.61864C9.86019 5.61848 10.2854 5.72596 10.6654 5.93136C11.0453 6.13677 11.3681 6.43362 11.6046 6.79509C11.84 7.15547 11.981 7.56922 12.0148 7.99833C12.0485 8.42743 11.9739 8.85814 11.7978 9.25089C11.9306 9.47552 12.036 9.71522 12.1119 9.96489C12.3739 9.58092 12.5466 9.14317 12.6174 8.68375C12.6881 8.22433 12.6551 7.7549 12.5208 7.30989C12.3253 6.64175 11.9181 6.0552 11.3604 5.63857C10.8027 5.22195 10.1247 4.9978 9.42855 4.99989C6.975 4.99989 5.41845 7.65024 6.63855 9.77649C6.18496 9.71627 5.72374 9.75322 5.28552 9.88488C4.8473 10.0165 4.44209 10.2399 4.0968 10.5401C3.7527 10.8392 3.47674 11.2087 3.28753 11.6235C3.09833 12.0383 3.00028 12.4889 3 12.9448C3 15.9532 6.8289 17.2981 8.72655 14.938C8.61623 14.7102 8.53006 14.4715 8.46945 14.2258C7.14255 16.5067 3.62235 15.5749 3.62235 12.9448C3.62235 10.7009 6.30735 9.54264 7.96035 11.0384C9.0327 12.0088 8.77035 13.1825 8.77035 13.3883C8.78005 14.0102 8.96997 14.6159 9.31708 15.132C9.66419 15.6481 10.1536 16.0523 10.7259 16.2958V18.8963C10.9209 18.8873 11.1296 18.8813 11.3483 18.8759V15.8509C8.34615 15.0928 8.9877 10.5731 12.1596 10.7809C14.9741 10.9688 15.4896 14.9131 12.8025 15.8017V18.8707C13.0211 18.8707 13.2294 18.8822 13.4249 18.8911V16.2061C13.9761 15.9331 14.4367 15.5068 14.7515 14.9783C15.0663 14.4499 15.2217 13.8418 15.1992 13.2271C15.2218 12.7631 15.3693 12.3139 15.6261 11.9269C17.0405 9.80454 20.3832 10.8043 20.3832 13.3519C20.3832 16.0892 16.6316 16.9318 15.4461 14.4539C15.3666 14.6967 15.2615 14.9303 15.1325 15.1507C16.9101 17.7533 21 16.4875 21 13.3564C20.9997 12.9169 20.9086 12.4823 20.7322 12.0797C20.5559 11.6771 20.2983 11.3154 19.9755 11.0171C19.6514 10.7177 19.2693 10.4879 18.8529 10.342C18.4364 10.1961 17.9945 10.1372 17.5544 10.169V10.169Z" fill="black"/>
<path d="M12.0001 19.4425C14.067 19.4425 15.7426 19.2981 15.7426 19.12C15.7426 18.9419 14.067 18.7975 12.0001 18.7975C9.93314 18.7975 8.25757 18.9419 8.25757 19.12C8.25757 19.2981 9.93314 19.4425 12.0001 19.4425Z" fill="black"/>
<path d="M13.1114 13.3484C13.1114 13.5683 13.0462 13.7832 12.9241 13.966C12.802 14.1487 12.6284 14.2912 12.4253 14.3753C12.2222 14.4595 11.9987 14.4815 11.7831 14.4386C11.5675 14.3957 11.3694 14.2898 11.214 14.1344C11.0585 13.9789 10.9527 13.7809 10.9098 13.5653C10.8669 13.3497 10.8889 13.1262 10.973 12.9231C11.0572 12.72 11.1996 12.5464 11.3824 12.4243C11.5652 12.3021 11.7801 12.2369 11.9999 12.2369C12.2947 12.2369 12.5774 12.354 12.7859 12.5625C12.9943 12.7709 13.1114 13.0537 13.1114 13.3484Z" fill="#D7392C"/>
<path d="M23.5 12.0002C23.5 18.3515 18.3513 23.5002 12 23.5002C5.64873 23.5002 0.5 18.3515 0.5 12.0002C0.5 5.64897 5.64873 0.500244 12 0.500244C18.3513 0.500244 23.5 5.64897 23.5 12.0002Z" stroke="black" stroke-opacity="0.097"/>
</svg>
