<svg width="24" height="24" viewBox="0 0 24 24" fill="none" xmlns="http://www.w3.org/2000/svg">
<path d="M12 24C18.6274 24 24 18.6274 24 12C24 5.37258 18.6274 0 12 0C5.37258 0 0 5.37258 0 12C0 18.6274 5.37258 24 12 24Z" fill="black"/>
<path opacity="0.2" d="M23.5 12C23.5 18.3513 18.3513 23.5 12 23.5C5.64873 23.5 0.5 18.3513 0.5 12C0.5 5.64873 5.64873 0.5 12 0.5C18.3513 0.5 23.5 5.64873 23.5 12Z" stroke="white"/>
<path d="M12.2163 13.4152L10.6646 9.13606H9.34449V14.7337H10.2962V10.7902L11.7363 14.7337H12.6719L14.1105 10.7902V14.7337H15.0859V9.13606H13.7673L12.2163 13.4152ZM5.8061 9C4.08774 9 3 10.2957 3 11.9391C3 13.5818 4.08774 14.8744 5.8061 14.8744C7.52446 14.8744 8.61449 13.591 8.61449 11.9391C8.61449 10.2865 7.52675 9 5.80533 9H5.8061ZM5.8061 13.8791C4.71072 13.8791 4.05563 13.0551 4.05563 11.9429C4.05563 10.83 4.71072 10.0006 5.8061 10.0006C6.90148 10.0006 7.55886 10.8323 7.55886 11.9391C7.55886 13.0452 6.90301 13.8791 5.8061 13.8791ZM18.3934 12.6966H20.0002C19.9054 13.513 19.3122 13.8967 18.5524 13.8967C17.4647 13.8967 16.8585 13.0964 16.8585 11.9445C16.8585 10.8644 17.3928 9.97766 18.5295 9.97766C19.2725 9.97766 19.8733 10.3568 19.9375 10.9935H21C20.8563 9.71395 19.8802 9.00153 18.5616 9.00153C16.6896 9.00153 15.8174 10.4417 15.8174 11.9766C15.8174 13.6254 16.8264 14.8721 18.3934 14.8721C19.3122 14.8721 19.8259 14.4471 20.0323 14.0878V14.7276H21V11.7342H18.3934V12.6974V12.6966Z" fill="white"/>
</svg>
