<svg width="24" height="24" viewBox="0 0 24 24" fill="none" xmlns="http://www.w3.org/2000/svg">
<path d="M12 24C18.6274 24 24 18.6274 24 12C24 5.37258 18.6274 0 12 0C5.37258 0 0 5.37258 0 12C0 18.6274 5.37258 24 12 24Z" fill="#FF97FF"/>
<path d="M23.5 12C23.5 18.3513 18.3513 23.5 12 23.5C5.64873 23.5 0.5 18.3513 0.5 12C0.5 5.64873 5.64873 0.5 12 0.5C18.3513 0.5 23.5 5.64873 23.5 12Z" stroke="black" stroke-opacity="0.097"/>
<g clip-path="url(#clip0)">
<path d="M9.52855 19.7929C8.92335 19.7958 8.34157 19.5558 7.91011 19.1253C7.47866 18.6948 7.23255 18.1086 7.22547 17.4947V9.5873C7.20535 8.19718 7.72906 6.85562 8.68192 5.85636C9.63478 4.8571 10.9391 4.28157 12.3094 4.25578H12.4919C13.1723 4.24715 13.8476 4.37454 14.4794 4.6307C15.1112 4.88685 15.6871 5.26675 16.1741 5.74869C16.6612 6.23063 17.0499 6.80517 17.318 7.43951C17.5862 8.07385 17.7285 8.75556 17.7369 9.44571V9.44571V9.61453C17.7584 9.88639 17.7584 10.1596 17.7369 10.4314C17.7584 10.6887 17.7584 10.9474 17.7369 11.2047C17.7414 12.5966 17.2064 13.9345 16.2473 14.9298C15.2882 15.9252 13.9819 16.4982 12.6101 16.5254H12.4919C12.2691 16.5299 12.0468 16.5024 11.8316 16.4437V17.4348C11.8552 17.7553 11.8098 18.0772 11.6986 18.3781C11.5873 18.679 11.4129 18.9518 11.1874 19.1775C10.7352 19.595 10.1396 19.816 9.52855 19.7929V19.7929Z" fill="white"/>
<path d="M12.4916 4.48437C13.7985 4.47992 15.0544 4.99827 15.987 5.927C16.9197 6.85573 17.4538 8.11998 17.4735 9.44557V9.59805C17.495 9.86991 17.495 10.1431 17.4735 10.4149C17.495 10.6722 17.495 10.9309 17.4735 11.1883C17.4864 12.5321 16.974 13.8264 16.0483 14.7879C15.1227 15.7493 13.8592 16.2996 12.5345 16.3183H12.4916C12.1937 16.3247 11.8977 16.2691 11.6219 16.1549V17.4565C11.6287 17.7358 11.5794 18.0135 11.4769 18.2729C11.3745 18.5322 11.221 18.7677 11.026 18.965C10.6427 19.3674 10.1177 19.5991 9.56614 19.6093C9.01462 19.6195 8.48162 19.4074 8.08408 19.0194L8.03039 18.965C7.63891 18.5588 7.4193 18.0136 7.41839 17.4456V9.58716C7.39829 8.25492 7.90045 6.96909 8.81449 6.01226C9.72853 5.05542 10.9797 4.50587 12.293 4.48437H12.4755H12.4916ZM12.4755 3.99969C11.0383 3.98806 9.65506 4.55462 8.62875 5.57532C7.60243 6.59602 7.01664 7.98768 6.99965 9.44557V17.4347C6.98815 18.1025 7.23833 18.7477 7.69528 19.2286C8.15224 19.7095 8.77862 19.9868 9.43693 19.9997H9.5282C9.86409 20.0043 10.1975 19.9402 10.5083 19.8111C10.8192 19.6819 11.1012 19.4905 11.3374 19.2482C11.581 19.0125 11.7726 18.727 11.8994 18.4106C12.0262 18.0943 12.0853 17.7542 12.0729 17.4129V16.7322H12.4916C13.205 16.7415 13.9132 16.6079 14.5756 16.3391C15.238 16.0703 15.8417 15.6715 16.3519 15.1656C16.8621 14.6597 17.2688 14.0566 17.5488 13.3909C17.8288 12.7252 17.9765 12.01 17.9835 11.2863V11.1501C18.005 10.8928 18.005 10.6341 17.9835 10.3768C18.005 10.1031 18.005 9.82816 17.9835 9.55449C17.9993 8.09992 17.4459 6.69836 16.4446 5.65708C15.4432 4.6158 14.0758 4.01978 12.6419 3.99969H12.4755Z" fill="white"/>
<path d="M9.51245 16.9773C9.3714 16.9854 9.23017 16.9651 9.09684 16.9177C8.96351 16.8704 8.84072 16.7967 8.73548 16.7011C8.63025 16.6055 8.54466 16.4898 8.48361 16.3605C8.42256 16.2313 8.38724 16.0911 8.3797 15.948V9.57087C8.39505 8.88911 8.57472 8.22152 8.90301 7.62642C9.2313 7.03132 9.69824 6.52681 10.263 6.15696C10.8278 5.7871 11.4733 5.56314 12.1431 5.50465C12.8128 5.44616 13.4865 5.55491 14.1053 5.8214C14.7241 6.0879 15.2692 6.50403 15.6929 7.03345C16.1167 7.56288 16.4062 8.18949 16.5362 8.85857C16.6661 9.52764 16.6327 10.2188 16.4387 10.8718C16.2446 11.5247 15.896 12.1195 15.4231 12.6042C15.0353 13.0054 14.5687 13.3193 14.0536 13.5258C13.5384 13.7322 12.9863 13.8264 12.4329 13.8023C12.2824 13.8077 12.1324 13.7809 11.9927 13.7237C11.8531 13.6665 11.7268 13.5801 11.6223 13.4701C11.5154 13.3606 11.4313 13.2304 11.3751 13.0873C11.3188 12.9441 11.2915 12.791 11.2948 12.6369C11.28 12.4829 11.2977 12.3275 11.3468 12.181C11.3959 12.0345 11.4751 11.9003 11.5793 11.7873C11.6876 11.6801 11.8163 11.5964 11.9575 11.5411C12.0987 11.4859 12.2495 11.4603 12.4007 11.466C12.6413 11.4735 12.8807 11.4288 13.1029 11.3349C13.3251 11.241 13.5249 11.1 13.6891 10.9215C13.8651 10.7549 14.0041 10.5522 14.0967 10.3268C14.1893 10.1014 14.2333 9.85851 14.226 9.61444C14.235 9.37096 14.1917 9.12839 14.099 8.90361C14.0063 8.67884 13.8664 8.47725 13.6891 8.31288C13.5231 8.13677 13.3229 7.99746 13.1011 7.90373C12.8794 7.81 12.6409 7.76388 12.4007 7.76829C11.9394 7.78341 11.5013 7.97678 11.1759 8.30884C10.8506 8.6409 10.6626 9.08653 10.6506 9.55454V15.8391C10.6555 16.1389 10.5436 16.4285 10.3392 16.6451C10.2316 16.7555 10.1025 16.842 9.96018 16.8992C9.81787 16.9564 9.66541 16.983 9.51245 16.9773V16.9773Z" fill="#FF97FF"/>
</g>
<defs>
<clipPath id="clip0">
<rect width="11" height="16" fill="white" transform="translate(7 4)"/>
</clipPath>
</defs>
</svg>
