<svg width="24" height="24" viewBox="0 0 24 24" fill="none" xmlns="http://www.w3.org/2000/svg">
<path d="M12 24C18.6274 24 24 18.6274 24 12C24 5.37258 18.6274 0 12 0C5.37258 0 0 5.37258 0 12C0 18.6274 5.37258 24 12 24Z" fill="#5CA0F6"/>
<path fill-rule="evenodd" clip-rule="evenodd" d="M13.25 7.5C15.321 7.5 17 9.17893 17 11.25V13.125C17 15.1961 15.321 16.875 13.25 16.875V21H11V7.5H13.25ZM13.25 9.75V14.625C14.0784 14.625 14.75 13.9534 14.75 13.125V11.25C14.75 10.4216 14.0784 9.75 13.25 9.75ZM11.9375 6.375C11.0055 6.375 10.25 5.61948 10.25 4.6875C10.25 3.75552 11.0055 3 11.9375 3C12.8695 3 13.625 3.75552 13.625 4.6875C13.625 5.61948 12.8695 6.375 11.9375 6.375ZM10.25 7.5V16.875H8V9.75C8 8.50736 9.00736 7.5 10.25 7.5Z" fill="white"/>
<path d="M23.5 12C23.5 18.3513 18.3513 23.5 12 23.5C5.64873 23.5 0.5 18.3513 0.5 12C0.5 5.64873 5.64873 0.5 12 0.5C18.3513 0.5 23.5 5.64873 23.5 12Z" stroke="white" stroke-opacity="0.3"/>
</svg>
