<svg width="24" height="24" viewBox="0 0 24 24" fill="none" xmlns="http://www.w3.org/2000/svg">
<path d="M12 24C18.6274 24 24 18.6274 24 12C24 5.37258 18.6274 0 12 0C5.37258 0 0 5.37258 0 12C0 18.6274 5.37258 24 12 24Z" fill="url(#paint0_linear)"/>
<path d="M8.3076 15.3119C7.98162 14.9572 7.68071 14.6062 7.50877 14.1799C7.16487 13.3417 6.92486 12.4819 7.02158 11.5541C7.07173 11.0705 7.22219 10.6263 7.41205 10.1893C7.98162 8.87103 8.88792 7.78561 9.76199 6.67154C10.1668 6.1557 10.6468 5.70792 11.0659 5.20641C11.6713 4.47564 12.0725 3.64098 12.3018 2.71318C12.3555 2.49108 12.3949 2.26182 12.4809 2.02539C12.5418 2.15793 12.5418 2.28331 12.5525 2.40511C12.617 3.00334 12.7352 3.60157 12.6421 4.20339C12.5669 4.69057 12.3734 5.15268 12.18 5.60046C11.6355 6.86498 10.851 7.99338 10.1059 9.14686C9.87304 9.50867 9.62586 9.85973 9.49332 10.2753C9.45033 10.4114 9.42884 10.5475 9.46108 10.7302C9.74766 10.3039 10.1023 9.98869 10.4749 9.69853C11.005 9.28657 11.5316 8.86028 12.1263 8.54147C12.574 8.30146 13.0361 8.08652 13.4266 7.75696C13.7383 7.49187 14.0213 7.20171 14.229 6.85065C14.4977 6.40287 14.6696 5.92286 14.6768 5.3891C14.7485 5.39269 14.7449 5.45 14.7592 5.48941C14.9992 6.08764 14.9491 6.68229 14.7234 7.26977C14.4404 8.00413 13.9783 8.61669 13.4517 9.18985C12.7567 9.94928 11.9686 10.6012 11.1877 11.2711C10.611 11.7655 9.96976 12.1953 9.48616 12.7936C8.90942 13.5064 8.52612 14.3124 8.33268 15.208C8.33626 15.2331 8.32551 15.2581 8.3076 15.3119Z" fill="white"/>
<path d="M16.8835 12.2167C16.7473 13.3881 16.2207 14.3947 15.5759 15.3511C14.9276 16.3112 14.1968 17.2103 13.4338 18.0772C13.0935 18.4605 12.7173 18.808 12.4415 19.245C11.9651 20.0009 11.6462 20.8176 11.4635 21.6917C11.4492 21.7669 11.4313 21.8421 11.3847 21.9173C11.3382 21.5412 11.3059 21.1615 11.245 20.7889C11.1161 20.008 11.3274 19.2916 11.5997 18.5751C11.8612 17.8873 12.2266 17.2604 12.6099 16.6371C13.1042 15.8347 13.62 15.0466 14.1216 14.2478C14.2541 14.0364 14.3616 13.8108 14.4225 13.5636C14.4475 13.4597 14.4547 13.3558 14.426 13.2161C14.143 13.6388 13.7884 13.9397 13.423 14.237C12.9287 14.6383 12.4128 15.0216 11.8719 15.3547C11.5818 15.5338 11.2379 15.6449 10.9441 15.8383C10.1166 16.3685 9.48615 17.0455 9.26047 18.0378C9.22107 18.2062 9.21032 18.3781 9.20316 18.5787C9.09569 18.4426 9.05987 18.3029 9.02763 18.1632C8.88792 17.5685 8.99539 17.0025 9.24256 16.458C9.64019 15.5911 10.2635 14.8962 10.9262 14.2299C11.6641 13.4884 12.4845 12.8436 13.2761 12.1737C13.749 11.7725 14.2398 11.3928 14.598 10.8733C15.0135 10.2679 15.3431 9.62672 15.49 8.90311C15.5079 8.82072 15.5401 8.73833 15.5759 8.63086C15.773 8.84579 15.9449 9.04998 16.1025 9.27566C16.296 9.55507 16.4536 9.8524 16.5611 10.1641C16.6721 10.4829 16.7223 10.8196 16.7939 11.1492C16.8261 11.2925 16.8512 11.4393 16.8799 11.5862C16.8835 11.794 16.8835 12.0053 16.8835 12.2167Z" fill="white"/>
<path d="M23.5 12C23.5 18.3513 18.3513 23.5 12 23.5C5.64873 23.5 0.5 18.3513 0.5 12C0.5 5.64873 5.64873 0.5 12 0.5C18.3513 0.5 23.5 5.64873 23.5 12Z" stroke="white" stroke-opacity="0.3"/>
<defs>
<linearGradient id="paint0_linear" x1="20" y1="2" x2="4.60985" y2="18.7648" gradientUnits="userSpaceOnUse">
<stop stop-color="#FCCB15"/>
<stop offset="1" stop-color="#F16336"/>
</linearGradient>
</defs>
</svg>
