<svg width="24" height="24" viewBox="0 0 24 24" fill="none" xmlns="http://www.w3.org/2000/svg">
<path fill-rule="evenodd" clip-rule="evenodd" d="M0 12C0 5.37259 5.37259 0 12 0C18.6274 0 24 5.37259 24 12C24 18.6274 18.6274 24 12 24C5.37259 24 0 18.6274 0 12Z" fill="#EBEAEA"/>
<path fill-rule="evenodd" clip-rule="evenodd" d="M6.40222 7.29309L7.69446 6.55092L7.86851 6.84976L12.6319 4.10272L12.2838 3.9024L11.9341 3.69879L11.76 3.59863L4 8.08125V8.28157L6.22817 6.99261L6.40222 7.29309Z" fill="#001C3A"/>
<path fill-rule="evenodd" clip-rule="evenodd" d="M6.40222 10.1157L10.1361 7.9581L10.3101 8.26187L15.0735 5.51319L14.7254 5.30958L14.3757 5.10926L14.2016 5.01074L4 10.9005V11.1009L6.22817 9.8119L6.40222 10.1157Z" fill="#001C3A"/>
<path fill-rule="evenodd" clip-rule="evenodd" d="M6.40222 11.5255L11.3561 8.66518L11.5318 8.96566L16.2935 6.2137L15.9454 6.01666L15.5973 5.81305L15.4216 5.71289L4 12.3071V12.5107L6.22817 11.2234L6.40222 11.5255Z" fill="#001C3A"/>
<path fill-rule="evenodd" clip-rule="evenodd" d="M6.40222 12.935L12.6122 9.35055L12.7879 9.65103L17.5152 6.92206L17.1671 6.71845L16.8173 6.51813L16.6433 6.41797L4 13.7199V13.9202L6.22817 12.6312L6.40222 12.935Z" fill="#001C3A"/>
<path fill-rule="evenodd" clip-rule="evenodd" d="M6.40222 14.3419L13.8338 10.053L14.0079 10.3568L18.7352 7.62452L18.3871 7.42584L18.039 7.22223L17.8633 7.12207L4 15.1267V15.3271L6.22817 14.0414L6.40222 14.3419Z" fill="#001C3A"/>
<path fill-rule="evenodd" clip-rule="evenodd" d="M19.2589 7.92895L19.0849 7.82715L4 16.5395V16.7398L6.22817 15.4542L6.40222 15.7546L13.8338 11.4658L14.0079 11.7663L19.52 8.58574V8.18182V8.08166L19.2589 7.92895Z" fill="#001C3A"/>
<path fill-rule="evenodd" clip-rule="evenodd" d="M4.95568 17.5949L6.20523 16.8741L6.37928 17.1746L13.7978 12.8923L13.9718 13.1961L19.5201 9.99255V9.58862V9.1847V8.98438L4.78491 17.4948L4.95568 17.5949Z" fill="#001C3A"/>
<path fill-rule="evenodd" clip-rule="evenodd" d="M13.7977 14.3034L13.9717 14.6072L19.52 11.4037V10.9998V10.5958V10.3955L6.00482 18.1982L6.18051 18.2984L7.44812 17.5644L7.62382 17.8682" fill="#001C3A"/>
<path fill-rule="evenodd" clip-rule="evenodd" d="M7.40054 19.0048L8.66979 18.2692L8.84384 18.5729L13.7977 15.711L13.9718 16.0147L19.52 12.8112V12.4073V12.0067V11.8047L7.22321 18.9013L7.40054 19.0048Z" fill="#001C3A"/>
<path fill-rule="evenodd" clip-rule="evenodd" d="M8.62052 19.7089L9.88977 18.9766L10.0655 19.277L13.7977 17.1228L13.9717 17.4232L19.52 14.2197V13.8191V13.4152V13.2148L8.44647 19.6087L8.62052 19.7089Z" fill="#001C3A"/>
<path fill-rule="evenodd" clip-rule="evenodd" d="M9.66815 20.3132L9.8422 20.4133L11.1147 19.6794L11.2855 19.9831L13.7977 18.53L13.9718 18.8338L19.52 15.6302V15.2263V14.8224V14.6221L9.66815 20.3132Z" fill="#001C3A"/>
<path fill-rule="evenodd" clip-rule="evenodd" d="M11.0622 21.121L12.3314 20.3838L12.5055 20.6876L13.7977 19.9388L13.9718 20.2426L19.52 17.0424V16.6384V16.2345V16.0342L10.8881 21.0209L11.0622 21.121Z" fill="#001C3A"/>
<path fill-rule="evenodd" clip-rule="evenodd" d="M13.8535 4.80682L13.5038 4.6065L13.1557 4.40618L12.9816 4.30273L4 9.48812V9.68844L6.22817 8.40441L6.40222 8.70325L8.91445 7.25338L9.09343 7.55714L13.8535 4.80682Z" fill="#001C3A"/>
<path d="M23.5 12C23.5 18.3513 18.3513 23.5 12 23.5C5.64873 23.5 0.5 18.3513 0.5 12C0.5 5.64873 5.64873 0.5 12 0.5C18.3513 0.5 23.5 5.64873 23.5 12Z" stroke="black" stroke-opacity="0.097"/>
</svg>
