<svg width="24" height="24" viewBox="0 0 24 24" fill="none" xmlns="http://www.w3.org/2000/svg">
<path d="M12 24C18.6274 24 24 18.6274 24 12C24 5.37258 18.6274 0 12 0C5.37258 0 0 5.37258 0 12C0 18.6274 5.37258 24 12 24Z" fill="#692F5A"/>
<path d="M23.5 12C23.5 18.3513 18.3513 23.5 12 23.5C5.64873 23.5 0.5 18.3513 0.5 12C0.5 5.64873 5.64873 0.5 12 0.5C18.3513 0.5 23.5 5.64873 23.5 12Z" stroke="white" stroke-opacity="0.3"/>
<path d="M15.4072 12.2556C15.1795 11.6206 14.7731 11.0648 14.2372 10.6552L14.2314 10.6487C14.1746 10.6056 14.1165 10.5645 14.0572 10.5251L14.0456 10.5169C13.9872 10.4786 13.9277 10.4417 13.8673 10.4065L13.851 10.3967C13.7917 10.3623 13.7308 10.3309 13.6685 10.3025L13.6505 10.2927C13.5867 10.2627 13.5223 10.2341 13.4574 10.2068L13.4361 10.1986C13.2259 10.1114 13.0078 10.0445 12.7848 9.99899C12.6563 10.232 12.4911 10.4428 12.2955 10.6233C12.7549 10.6599 13.1986 10.8067 13.5891 11.0512L13.6112 11.0643L13.7192 11.1379L13.7683 11.1723C13.801 11.1968 13.8313 11.2214 13.8648 11.2459L13.9196 11.2901C13.9491 11.3147 13.9761 11.3392 14.004 11.3646L14.0596 11.4178L14.1356 11.4947L14.1913 11.5544L14.2592 11.6338L14.3124 11.7L14.3738 11.7818C14.3942 11.8088 14.4082 11.8302 14.4245 11.8538C14.4408 11.8776 14.4622 11.9087 14.4794 11.9374L14.5268 12.0158C14.5415 12.042 14.5595 12.0716 14.5742 12.0994C14.5906 12.1264 14.6036 12.1566 14.6184 12.186C14.6324 12.2156 14.6462 12.24 14.6585 12.2678C14.6738 12.3042 14.6885 12.3407 14.7026 12.3776C14.7803 12.5712 14.8352 12.7734 14.8664 12.9797L14.9555 13.3103C14.9932 13.4477 15.3409 14.6653 16.1468 15.0751C17.0705 15.5489 18.2938 16.1339 18.775 16.3654L12.4207 20.0965V17.5396C12.4207 17.1362 13.2389 16.6642 13.6178 16.498L13.6398 16.4858C13.7176 16.4473 13.7953 16.4056 13.869 16.3614L13.9008 16.345C14.0647 16.2463 14.2207 16.135 14.3672 16.012L14.4065 15.9768L14.4515 15.9367C14.4975 15.8953 14.5426 15.8528 14.5865 15.8091L14.6094 15.787C14.6576 15.7387 14.706 15.6929 14.7485 15.6364L14.7886 15.5906C14.8246 15.5481 14.859 15.5047 14.8925 15.4605L14.922 15.4237C14.9628 15.3697 15.0005 15.3141 15.0382 15.2576L15.0512 15.2413C15.102 15.1619 15.147 15.0825 15.1944 14.9999C15.0162 14.7848 14.8636 14.5498 14.7395 14.2995C14.6888 14.4411 14.625 14.5785 14.5514 14.7103C14.5202 14.7675 14.4875 14.8231 14.4548 14.8771L14.44 14.8993C14.4092 14.9452 14.3769 14.9902 14.3435 15.0343L14.314 15.0719C14.2807 15.1149 14.2458 15.1567 14.2093 15.1971L14.1896 15.22C13.9529 15.4785 13.6703 15.6907 13.3559 15.8459L13.2962 15.8762C13.135 15.9474 11.7146 16.5774 11.7146 17.5355V20.0932L5.34073 16.3556C5.75065 16.1053 6.94852 15.4082 7.93364 15.1013C8.31902 14.9835 9.13723 15.4883 9.60115 15.859L9.62897 15.8836C9.69033 15.9408 9.75498 15.9956 9.82206 16.0472L9.84498 16.0676C9.99225 16.1854 10.1493 16.291 10.3138 16.3843L10.4243 16.444L10.4464 16.4555C10.5535 16.5094 10.6632 16.5586 10.7753 16.602L10.8244 16.6208L10.8571 16.6338C11.0183 16.6928 11.1844 16.7386 11.3521 16.773C11.4842 16.537 11.6544 16.3246 11.8561 16.1446C11.5872 16.1246 11.3225 16.0668 11.0698 15.9727L11.0265 15.9564L10.943 15.9228L10.9005 15.9048L10.8195 15.8672C10.6319 15.7762 10.4549 15.6648 10.2917 15.535L10.0381 15.3092C9.80518 15.1086 9.55304 14.9316 9.28532 14.7806C8.65529 14.4287 8.12837 14.3143 7.72417 14.4385C6.88142 14.6987 5.93229 15.2044 5.35301 15.5383L11.7171 4.31487V9.22986C11.7171 9.40414 11.4552 9.85907 10.5805 10.2453L10.52 10.278C10.4349 10.3189 10.3523 10.3631 10.2713 10.4105L10.2549 10.4187C9.98558 10.5774 9.7385 10.7711 9.52015 10.9947L9.51197 11.0029C9.4292 11.088 9.35081 11.1774 9.27714 11.2705L9.26814 11.2828C9.23258 11.3282 9.19793 11.3742 9.16423 11.421L9.15277 11.4374C9.12243 11.4815 9.09297 11.5262 9.06441 11.5716L9.05459 11.5855C9.02577 11.6319 8.99821 11.6792 8.97194 11.727L8.95313 11.7606C8.9294 11.8064 8.90568 11.8555 8.88194 11.898L8.8713 11.9202C8.85023 11.9632 8.83031 12.0069 8.81158 12.051L8.79112 12.1002C8.7723 12.146 8.75512 12.195 8.73794 12.2392L8.72157 12.2884C8.70906 12.3235 8.69759 12.3589 8.68721 12.3947C8.68148 12.4144 8.67493 12.4332 8.67003 12.4536C8.62306 12.6179 8.58887 12.7856 8.56775 12.9552L8.55957 13.0313C8.5557 13.0658 8.55269 13.1004 8.55057 13.1352C8.54893 13.1704 8.55057 13.2047 8.54484 13.2391C8.53911 13.2743 8.54484 13.2816 8.54484 13.3046V13.3823C8.54484 13.5541 8.55793 13.7259 8.58411 13.8969C8.85821 13.9638 9.12349 14.0627 9.3745 14.1915C9.29744 13.9445 9.25612 13.6877 9.25178 13.4289V13.3823C9.25178 13.3201 9.25178 13.2587 9.25914 13.1933V13.1442C9.25914 13.091 9.26978 13.037 9.27714 12.9838V12.9609C9.2856 12.9017 9.29707 12.843 9.3115 12.785L9.32132 12.74C9.3336 12.6909 9.34586 12.6434 9.36142 12.5952L9.37124 12.564C9.3876 12.5076 9.40805 12.4528 9.42933 12.398L9.44569 12.3612C9.46369 12.3162 9.48333 12.2712 9.50378 12.2262L9.51933 12.1918C9.54469 12.1386 9.57251 12.087 9.60115 12.0356L9.61669 12.0102C9.64248 11.9658 9.66949 11.9222 9.6977 11.8792L9.71815 11.849C9.7517 11.7998 9.78606 11.754 9.82288 11.7033L9.82943 11.6952C9.86462 11.6502 9.90143 11.6068 9.93907 11.5642L9.95953 11.5396C10.1322 11.3498 10.3302 11.1838 10.5486 11.0463L10.8497 10.9072C11.0109 10.836 12.4248 10.1888 12.4248 9.22986V4.31487L18.8388 15.6225C18.266 15.3468 17.2596 14.8599 16.4741 14.4607C16.0257 14.2316 15.7197 13.424 15.6412 13.1344L15.5544 12.7948C15.5224 12.6126 15.4753 12.4333 15.4137 12.2588L15.4072 12.2556ZM19.7518 15.8148L12.6825 3.35675C12.5554 3.13491 12.3188 2.99862 12.0631 3.00001C11.8081 2.99921 11.5722 3.13542 11.4454 3.35675L4.38425 15.8156C4.19923 16.1425 4.31246 16.5575 4.63788 16.7452L11.7047 20.9016C11.9292 21.0328 12.2069 21.0328 12.4313 20.9016L19.4974 16.7484C19.8227 16.5611 19.9361 16.1467 19.7518 15.8197L19.7535 15.8148H19.7518Z" fill="white"/>
</svg>
