<svg width="24" height="24" viewBox="0 0 24 24" fill="none" xmlns="http://www.w3.org/2000/svg">
<path d="M12 24C18.6274 24 24 18.6274 24 12C24 5.37258 18.6274 0 12 0C5.37258 0 0 5.37258 0 12C0 18.6274 5.37258 24 12 24Z" fill="#CC1E46"/>
<path d="M23.5 12C23.5 18.3513 18.3513 23.5 12 23.5C5.64873 23.5 0.5 18.3513 0.5 12C0.5 5.64873 5.64873 0.5 12 0.5C18.3513 0.5 23.5 5.64873 23.5 12Z" stroke="white" stroke-opacity="0.3"/>
<path d="M8.89807 7.47125C10.0478 6.63313 11.417 6.12518 12.8499 6.00532C12.9955 5.97666 13.1535 6.06595 13.1487 6.22187C13.1625 6.59502 13.1529 6.96817 13.1529 7.34132C13.1625 7.45726 13.0993 7.60785 12.9619 7.61118C11.6939 7.74711 10.489 8.24953 9.44212 8.94385C9.3432 8.99782 9.36518 9.12243 9.37342 9.21305C9.44624 9.86739 9.39678 10.5264 9.4167 11.1828C12.8335 11.1921 16.2515 11.1814 19.6697 11.188C19.8325 11.1748 20.0043 11.2647 19.9911 11.4413C20.0083 12.5574 19.9946 13.6735 19.998 14.7889C20.0008 15.3953 19.8675 16.023 19.4891 16.5187C18.8914 17.2977 17.8404 17.7648 16.8416 17.5929C16.1341 17.4903 15.5227 17.0645 15.0941 16.5241C13.9273 17.3754 12.5351 17.8872 11.0798 18C10.932 18.002 10.8214 17.8614 10.8441 17.7241C10.849 17.3337 10.8358 16.9419 10.851 16.5514C10.8854 16.3448 11.1478 16.3848 11.3037 16.3508C12.5017 16.1696 13.6475 15.6825 14.6256 14.9915C14.5752 14.2665 14.5575 13.5397 14.5727 12.8133C11.1436 12.7919 7.71313 12.8119 4.28403 12.8026C4.1329 12.8192 3.98727 12.7093 4.0017 12.5541C3.99895 11.3793 3.99963 10.2039 4.00307 9.02914C4.00994 8.41478 4.20983 7.79376 4.62955 7.32533C5.18252 6.71496 6.01644 6.32515 6.86273 6.37314C7.67329 6.40445 8.41723 6.85156 8.89807 7.47125ZM5.38379 9.23171C5.38241 9.92003 5.38172 10.609 5.38516 11.2987C6.23282 11.298 7.07911 11.31 7.92608 11.292C7.92745 10.6203 7.93638 9.94935 7.92196 9.27769C7.90891 8.63401 7.30922 8.06496 6.64291 8.07828C5.9924 8.0523 5.39958 8.60469 5.38379 9.23104V9.23171ZM16.1747 12.7566C16.1678 13.411 16.1733 14.066 16.1705 14.7203C16.1664 14.9822 16.2481 15.238 16.4041 15.4513C16.7297 15.9024 17.3781 16.0996 17.9084 15.9004C18.3982 15.7244 18.7218 15.2274 18.7163 14.7276C18.7163 14.0707 18.7197 13.415 18.7135 12.7579C17.8672 12.7513 17.0209 12.7546 16.1747 12.7559V12.7566Z" fill="white"/>
</svg>
