<svg width="24" height="24" viewBox="0 0 24 24" fill="none" xmlns="http://www.w3.org/2000/svg">
<path d="M12 24C18.6274 24 24 18.6274 24 12C24 5.37258 18.6274 0 12 0C5.37258 0 0 5.37258 0 12C0 18.6274 5.37258 24 12 24Z" fill="#FF6A29"/>
<path d="M23.5 12C23.5 18.3513 18.3513 23.5 12 23.5C5.64873 23.5 0.5 18.3513 0.5 12C0.5 5.64873 5.64873 0.5 12 0.5C18.3513 0.5 23.5 5.64873 23.5 12Z" stroke="black" stroke-opacity="0.097"/>
<g filter="url(#filter0_di)">
<path fill-rule="evenodd" clip-rule="evenodd" d="M13.6238 15.7304L14.5946 13.55C15.0872 14.528 14.9888 15.6595 14.8732 16.2866L13.6238 15.7304ZM10.7301 10.2693C11.654 8.19417 13.1857 6.43805 15.179 5.15894C15.5622 7.49613 15.282 9.80941 14.3581 11.8845L12.8074 15.3674L9.17948 13.7521L10.7301 10.2693ZM9.33517 11.2087L8.36446 13.3891L7.11502 12.8327C7.50375 12.3273 8.27473 11.4952 9.33517 11.2087ZM15.0278 12.5753L15.1736 12.2476C16.256 9.81651 16.5192 7.08604 15.9335 4.35335C15.9029 4.21369 15.8086 4.09655 15.6781 4.03847C15.5477 3.9804 15.3974 3.98865 15.2732 4.05934C12.8505 5.45264 10.9975 7.47526 9.91508 9.90637L9.76923 10.234C7.45158 10.426 6.1161 12.6959 6.05818 12.7986C5.99552 12.9064 5.98382 13.0369 6.02141 13.1555C6.06104 13.2749 6.14947 13.3724 6.26366 13.4232L14.9973 17.3117C15.1134 17.3634 15.2451 17.3639 15.3584 17.3125C15.4736 17.2621 15.5608 17.1651 15.5989 17.0464C15.6406 16.9365 16.4359 14.4261 15.0278 12.5753Z" fill="white"/>
<path fill-rule="evenodd" clip-rule="evenodd" d="M14.0688 8.79181L13.0354 8.33172C12.8113 8.23192 12.5468 8.33227 12.4477 8.55476C12.3487 8.77725 12.451 9.04093 12.6752 9.14074L13.7086 9.60082C13.9328 9.70063 14.1973 9.60028 14.2964 9.37779C14.3954 9.1553 14.2951 8.89252 14.0688 8.79181Z" fill="white"/>
<path fill-rule="evenodd" clip-rule="evenodd" d="M8.79737 15.6539C8.57318 15.5541 8.30871 15.6544 8.20963 15.8769L7.18577 18.1765C7.08669 18.399 7.18911 18.6627 7.41329 18.7625C7.63748 18.8624 7.90201 18.762 8.00103 18.5395L9.02489 16.2398C9.12397 16.0174 9.02155 15.7537 8.79737 15.6539Z" fill="white"/>
<path fill-rule="evenodd" clip-rule="evenodd" d="M10.2249 16.2894C10.0007 16.1896 9.7362 16.29 9.63712 16.5125L8.61326 18.8121C8.51418 19.0346 8.6166 19.2983 8.84078 19.3981C9.06497 19.4979 9.32944 19.3976 9.42852 19.1751L10.4524 16.8755C10.5515 16.653 10.449 16.3893 10.2249 16.2894Z" fill="white"/>
<path fill-rule="evenodd" clip-rule="evenodd" d="M11.6499 16.9244C11.4257 16.8246 11.1612 16.925 11.0622 17.1475L10.0383 19.4471C9.93926 19.6696 10.0416 19.9333 10.2659 20.0331C10.4901 20.1329 10.7545 20.0326 10.8536 19.8101L11.8775 17.5104C11.9765 17.288 11.8761 17.0252 11.6499 16.9244Z" fill="white"/>
<path fill-rule="evenodd" clip-rule="evenodd" d="M12.8338 11.74L12.8293 11.7283C12.7508 11.5375 12.6035 11.3922 12.4268 11.3136C12.2526 11.236 12.0462 11.2238 11.8517 11.2931L11.84 11.2976L11.8258 11.3009C11.6368 11.3792 11.4917 11.5246 11.4147 11.6976C11.3366 11.8729 11.323 12.077 11.3939 12.2709L11.4009 12.2837C11.4771 12.4801 11.6259 12.6291 11.8055 12.7091C11.9848 12.789 12.1978 12.8009 12.3947 12.7262C12.5916 12.6515 12.7407 12.5043 12.8211 12.3237C12.9004 12.1455 12.91 11.9363 12.8338 11.74ZM13.5942 11.1996C13.7152 11.1514 13.8518 11.2122 13.8995 11.3355C13.9486 11.456 13.8871 11.5942 13.7646 11.6385L13.3398 11.7999C13.3833 12.0484 13.3492 12.2977 13.2521 12.5157C13.154 12.7362 12.9916 12.9283 12.7777 13.0623L12.942 13.4859C12.9911 13.6066 12.9296 13.7447 12.8072 13.7889C12.6836 13.8359 12.5471 13.7751 12.5019 13.6529L12.3374 13.2296C12.0877 13.2711 11.8357 13.2386 11.6135 13.1396C11.3912 13.0407 11.2011 12.8763 11.065 12.6631L10.6402 12.8241C10.5166 12.8711 10.3799 12.8102 10.3349 12.6881C10.2857 12.5676 10.3472 12.4295 10.4697 12.3852L10.8944 12.2238C10.8486 11.9741 10.8824 11.7248 10.9806 11.5043C11.0777 11.2863 11.2403 11.0944 11.4565 10.9614L11.2922 10.5377C11.2432 10.417 11.3047 10.2789 11.4272 10.2348C11.548 10.1866 11.6848 10.2474 11.7325 10.3707L11.8971 10.7942C12.1467 10.7524 12.3986 10.7851 12.6183 10.8829C12.8405 10.9818 13.0333 11.1471 13.1667 11.3594L13.5942 11.1996Z" fill="white"/>
</g>
<defs>
<filter id="filter0_di" x="5.57529" y="3.57529" width="11.4513" height="17.2852" filterUnits="userSpaceOnUse" color-interpolation-filters="sRGB">
<feFlood flood-opacity="0" result="BackgroundImageFix"/>
<feColorMatrix in="SourceAlpha" type="matrix" values="0 0 0 0 0 0 0 0 0 0 0 0 0 0 0 0 0 0 127 0" result="hardAlpha"/>
<feOffset dx="0.182019" dy="0.182019"/>
<feGaussianBlur stdDeviation="0.303365"/>
<feColorMatrix type="matrix" values="0 0 0 0 0.275 0 0 0 0 0.275 0 0 0 0 0.275 0 0 0 0.5 0"/>
<feBlend mode="color-dodge" in2="BackgroundImageFix" result="effect1_dropShadow"/>
<feBlend mode="normal" in="SourceGraphic" in2="effect1_dropShadow" result="shape"/>
<feColorMatrix in="SourceAlpha" type="matrix" values="0 0 0 0 0 0 0 0 0 0 0 0 0 0 0 0 0 0 127 0" result="hardAlpha"/>
<feOffset dx="0.060673" dy="0.121346"/>
<feGaussianBlur stdDeviation="0.151683"/>
<feComposite in2="hardAlpha" operator="arithmetic" k2="-1" k3="1"/>
<feColorMatrix type="matrix" values="0 0 0 0 0 0 0 0 0 0 0 0 0 0 0 0 0 0 0.21 0"/>
<feBlend mode="multiply" in2="shape" result="effect2_innerShadow"/>
</filter>
</defs>
</svg>
