<svg width="24" height="24" viewBox="0 0 24 24" fill="none" xmlns="http://www.w3.org/2000/svg">
<path d="M12 24C18.6274 24 24 18.6274 24 12C24 5.37258 18.6274 0 12 0C5.37258 0 0 5.37258 0 12C0 18.6274 5.37258 24 12 24Z" fill="#F92905"/>
<path d="M23.5 12C23.5 18.3513 18.3513 23.5 12 23.5C5.64873 23.5 0.5 18.3513 0.5 12C0.5 5.64873 5.64873 0.5 12 0.5C18.3513 0.5 23.5 5.64873 23.5 12Z" stroke="black" stroke-opacity="0.097"/>
<path d="M18.5057 8.33057C18.6489 8.52129 18.7767 8.72346 18.8969 8.92944C19.2958 9.61033 19.5897 10.3332 19.7767 11.0999C19.8969 11.6015 19.9695 12.1088 19.9905 12.6257C19.9905 12.641 19.9828 12.66 20 12.6715C20 12.6982 20 12.7268 20 12.7535C19.9866 12.7611 19.9905 12.7745 19.9905 12.7859C19.9905 12.9156 19.9905 13.0453 19.9905 13.175C19.9905 13.1864 19.9866 13.1998 20 13.2074C20 13.2379 20 13.2684 20 13.299C19.9847 13.3104 19.9905 13.3257 19.9905 13.3409C19.9695 13.8559 19.8989 14.3632 19.7767 14.8629C19.4618 16.1446 18.8702 17.2832 17.9962 18.2731C17.2309 19.1371 16.3225 19.8065 15.2691 20.2795C14.7195 20.5255 14.1488 20.7086 13.5591 20.825C13.2137 20.8936 12.8664 20.9375 12.5153 20.9604C12.4466 20.9642 12.3778 20.9585 12.3111 20.9776C12.2843 20.9776 12.2557 20.9776 12.229 20.9776C12.2214 20.9642 12.208 20.968 12.1966 20.968C12.063 20.968 11.9313 20.968 11.7977 20.968C11.7862 20.968 11.7729 20.9642 11.7653 20.9776C11.7385 20.9776 11.7099 20.9776 11.6832 20.9776C11.6183 20.9566 11.5496 20.9642 11.4828 20.9604C11.0801 20.9356 10.6813 20.8803 10.2881 20.7926C9.39311 20.5961 8.55151 20.2604 7.77669 19.7703C6.10684 18.7117 4.96753 17.2451 4.36257 15.3645C4.21371 14.8972 4.11257 14.4204 4.05531 13.9341C4.0057 13.5011 3.98852 13.0682 4.0076 12.6314C4.07822 11.1094 4.54386 9.71905 5.40074 8.45835C5.40837 8.44882 5.4141 8.43928 5.42173 8.42784C5.437 8.43547 5.43509 8.44882 5.4389 8.46217C5.53242 8.92372 5.64692 9.37956 5.78814 9.82776C5.8702 10.091 5.96371 10.3503 6.07059 10.6021C6.08776 10.6422 6.08776 10.6727 6.06677 10.7127C5.95799 10.9206 5.86257 11.1342 5.77097 11.3497C5.64692 11.6397 5.54005 11.9372 5.44272 12.2385C5.33203 12.5837 5.24234 12.9366 5.17555 13.2932C5.13165 13.5278 5.09539 13.7643 5.07249 14.0027C5.06104 14.1248 5.04577 14.2469 5.04005 14.3689C5.03623 14.4528 5.01906 14.5368 5.03432 14.6226C5.03242 14.6283 5.0286 14.634 5.0286 14.6398C5.01906 14.8381 5.03623 15.0346 5.08394 15.2291C5.17745 15.5934 5.34158 15.9233 5.54768 16.2361C5.83013 16.6653 6.17555 17.041 6.5515 17.3881C6.82822 17.6437 7.1202 17.8783 7.42364 18.1014C7.68318 18.2921 7.95608 18.4638 8.23089 18.6316C8.23662 18.645 8.24807 18.6469 8.25952 18.6507C8.26143 18.6507 8.26334 18.6526 8.26525 18.6526C8.26906 18.6545 8.27097 18.6545 8.27479 18.6564L8.2767 18.6583C8.28242 18.6717 8.29387 18.6755 8.30723 18.6774C8.30914 18.6774 8.31105 18.6774 8.31105 18.6793C8.31486 18.6812 8.31868 18.685 8.3225 18.687C8.32441 18.6889 8.32631 18.6889 8.32822 18.6889C8.33013 18.6908 8.33395 18.6908 8.33586 18.6927C8.33967 18.6946 8.34158 18.6965 8.3454 18.6984C8.34731 18.7098 8.35876 18.7117 8.36639 18.7137C8.3683 18.7156 8.37021 18.7156 8.37212 18.7156C8.37593 18.7175 8.37975 18.7194 8.38357 18.7232C8.38547 18.7251 8.38738 18.7251 8.38929 18.7251C8.39883 18.7404 8.4141 18.7442 8.42937 18.7499C8.43128 18.7499 8.43318 18.7518 8.43509 18.7518C8.43891 18.7537 8.44273 18.7556 8.44654 18.7594C8.44845 18.7613 8.45036 18.7613 8.45227 18.7613C8.46181 18.7766 8.47708 18.7804 8.49234 18.7861C8.49425 18.7861 8.49616 18.7861 8.49807 18.788C8.50189 18.7899 8.5057 18.7938 8.50952 18.7957C8.51143 18.7976 8.51334 18.7976 8.51525 18.7976C8.53624 18.8205 8.56486 18.83 8.59158 18.8395C8.59349 18.8414 8.5954 18.8414 8.59731 18.8414C8.60112 18.8433 8.60494 18.8453 8.60876 18.8491C8.61067 18.851 8.61257 18.851 8.61448 18.851C8.64692 18.8796 8.687 18.8948 8.72708 18.912C8.72899 18.9139 8.7309 18.9139 8.7328 18.9139C8.74044 18.9196 8.74807 18.9273 8.75761 18.933C9.08204 19.1027 9.41219 19.2572 9.75189 19.3926C9.8683 19.4384 9.98281 19.4861 10.103 19.5185C10.2042 19.5586 10.3072 19.5891 10.4103 19.6215C10.4122 19.6272 10.416 19.6291 10.4217 19.6272C10.4313 19.6272 10.4427 19.6272 10.4523 19.6291C10.458 19.6444 10.4694 19.6387 10.4809 19.6387C10.4904 19.6501 10.5038 19.6539 10.5172 19.6482C10.5362 19.6635 10.5572 19.6692 10.582 19.6673H10.5801C10.584 19.6787 10.5954 19.6768 10.603 19.6787C10.9733 19.7817 11.3492 19.8542 11.7328 19.8828C12.084 19.9095 12.4313 19.8809 12.7786 19.8275C13.1508 19.7684 13.5172 19.6768 13.8759 19.5605C14.9408 19.2134 15.9198 18.7022 16.8034 18.0156C17.3683 17.5769 17.8779 17.0849 18.2672 16.4764C18.4179 16.2399 18.5668 16.0034 18.6698 15.7402C18.8092 15.3874 18.9027 15.025 18.9046 14.6417C18.9198 14.5959 18.9046 14.552 18.9008 14.5082C18.8893 14.2888 18.8779 14.0695 18.8569 13.8521C18.8321 13.5946 18.7977 13.339 18.75 13.0834C18.6832 12.7287 18.5916 12.3816 18.4733 12.0402C18.4084 11.8514 18.334 11.6664 18.2557 11.4833C18.2099 11.3784 18.1584 11.2754 18.1088 11.1724C18.0572 11.0656 18.0057 10.9607 17.9466 10.8577C17.8817 10.7432 17.8015 10.6326 17.8855 10.4915C17.8912 10.4819 17.8931 10.4686 17.8969 10.4572C17.9828 10.2111 18.0553 9.96127 18.1298 9.71142C18.1889 9.51306 18.2462 9.3128 18.2996 9.11254C18.3416 8.95996 18.3759 8.80738 18.416 8.6548C18.4466 8.5499 18.4771 8.43928 18.5057 8.33057Z" fill="#F92906"/>
<path d="M11.7633 20.9759C11.771 20.9625 11.7843 20.9663 11.7958 20.9663C11.9294 20.9663 12.061 20.9663 12.1946 20.9663C12.2061 20.9663 12.2194 20.9625 12.2271 20.9759C12.0725 20.9759 11.9179 20.9759 11.7633 20.9759Z" fill="#FE981B"/>
<path d="M20 13.2073C19.9866 13.1997 19.9905 13.1864 19.9905 13.1749C19.9905 13.0452 19.9905 12.9155 19.9905 12.7858C19.9905 12.7744 19.9866 12.761 20 12.7534C20 12.9041 20 13.0548 20 13.2073Z" fill="#FE981B"/>
<path d="M18.5057 8.33069C18.4771 8.4394 18.4485 8.55003 18.4198 8.65874C18.3817 8.81132 18.3454 8.9639 18.3034 9.11648C18.2481 9.31674 18.1927 9.5151 18.1336 9.71536C18.0592 9.96521 17.9866 10.2151 17.9008 10.4611C17.8969 10.4725 17.8969 10.4859 17.8893 10.4954C17.8053 10.6347 17.8855 10.7453 17.9504 10.8616C18.0076 10.9646 18.0611 11.0695 18.1126 11.1763C18.1622 11.2793 18.2137 11.3823 18.2595 11.4872C18.3397 11.6703 18.4122 11.8553 18.4771 12.0441C18.5954 12.3855 18.687 12.7326 18.7538 13.0874C18.8015 13.341 18.8359 13.5985 18.8607 13.856C18.8817 14.0753 18.8931 14.2928 18.9046 14.5121C18.9065 14.556 18.9237 14.5998 18.9084 14.6456C18.8034 14.6265 18.6966 14.6113 18.5897 14.5998C18.2099 14.556 17.8302 14.5522 17.4523 14.5998C17.0038 14.6571 16.5763 14.7829 16.1718 14.987C15.729 15.2082 15.3435 15.5058 14.9981 15.8586C14.9637 15.893 14.9637 15.893 14.9504 15.8472C14.853 15.5382 14.7309 15.2407 14.5725 14.9584C14.3569 14.575 14.0878 14.2413 13.7328 13.98C13.229 13.6081 12.6565 13.4498 12.0401 13.4307C11.7481 13.4212 11.4637 13.4688 11.1851 13.5528C10.5878 13.7301 10.1126 14.0849 9.72708 14.5655C9.41411 14.9527 9.18319 15.3894 8.99235 15.8453C8.97327 15.891 8.97326 15.891 8.93701 15.8529C8.79197 15.6984 8.63739 15.5516 8.47326 15.418C7.76716 14.8401 6.95609 14.5502 6.04387 14.5369C5.70418 14.5331 5.3683 14.5655 5.03624 14.6246C5.02288 14.5407 5.04005 14.4568 5.04196 14.371C5.04769 14.2489 5.06295 14.1268 5.0744 14.0048C5.0973 13.7664 5.13356 13.5318 5.17746 13.2953C5.24425 12.9386 5.33395 12.5858 5.44463 12.2406C5.54005 11.9392 5.64692 11.6417 5.77288 11.3518C5.86448 11.1363 5.96181 10.9226 6.06868 10.7148C6.08967 10.6766 6.08967 10.6442 6.0725 10.6041C5.96563 10.3505 5.87211 10.0911 5.79005 9.82979C5.64883 9.38159 5.53433 8.92575 5.44082 8.4642C5.43891 8.45085 5.43891 8.43559 5.42364 8.42987C5.43509 8.40698 5.42937 8.386 5.42364 8.36311C5.37402 8.10945 5.33395 7.85197 5.29769 7.5964C5.26524 7.35418 5.23853 7.11196 5.21944 6.86783C5.19463 6.54169 5.18891 6.21364 5.20227 5.8875C5.21372 5.62811 5.23471 5.36873 5.30341 5.11697C5.34921 4.94722 5.40646 4.77939 5.51715 4.63825C5.55341 4.59247 5.59349 4.55242 5.6412 4.52C5.66982 4.50093 5.70418 4.51046 5.73471 4.51237C5.85876 4.52381 5.9828 4.53526 6.10303 4.5734C6.33395 4.64778 6.55151 4.75078 6.75761 4.87856C6.99425 5.02542 7.21372 5.19135 7.42555 5.37063C7.58967 5.50986 7.74998 5.65672 7.90647 5.80358C7.97326 5.86652 8.03433 5.93709 8.10876 5.9924C8.11258 5.99621 8.11639 6.00193 8.12021 6.00575C8.31678 6.19838 8.50189 6.39864 8.69273 6.597C8.74426 6.6504 8.79388 6.70571 8.8454 6.75911C9.00571 6.93267 9.16411 7.10623 9.32441 7.2817C9.33968 7.29887 9.35304 7.30077 9.37594 7.29315C9.45609 7.26263 9.53815 7.23211 9.62021 7.20541C9.97136 7.08716 10.3301 6.99561 10.6985 6.93649C11.021 6.88499 11.3454 6.8602 11.6698 6.85066C12.0515 6.84113 12.4332 6.84303 12.813 6.88309C13.042 6.90788 13.2691 6.9384 13.4962 6.98036C13.8836 7.05474 14.2634 7.15773 14.6336 7.29124C14.6622 7.30077 14.6775 7.29696 14.6946 7.27407C14.8187 7.10814 14.9485 6.94603 15.0801 6.78772C15.2538 6.57602 15.4351 6.37003 15.624 6.17168C15.6927 6.10111 15.7595 6.02864 15.8263 5.95807C15.8683 5.93327 15.9008 5.89704 15.9351 5.86271C16.1947 5.61285 16.4714 5.38208 16.7672 5.17609C17.1221 4.93006 17.5019 4.73743 17.9179 4.61727C18.0668 4.5734 18.2214 4.55433 18.376 4.53716C18.4122 4.53335 18.4332 4.54479 18.4523 4.57531C18.563 4.74696 18.6355 4.93387 18.6927 5.12841C18.7576 5.34965 18.7767 5.57852 18.7939 5.80739C18.8073 5.98286 18.8053 6.15833 18.7977 6.3338C18.7824 6.66566 18.7462 6.99561 18.6947 7.32366C18.645 7.64027 18.5859 7.95687 18.5115 8.26966C18.5057 8.28873 18.5076 8.30971 18.5057 8.33069ZM15.7252 7.0185C15.7004 7.00706 15.6908 7.02422 15.6794 7.03376C15.6317 7.07 15.605 7.12912 15.5534 7.16154C15.5439 7.16727 15.542 7.17871 15.542 7.19015C15.542 7.21495 15.5286 7.23211 15.5114 7.24928C15.4828 7.27598 15.4561 7.30459 15.4275 7.3332C15.3969 7.36181 15.3721 7.39995 15.3225 7.39804C15.313 7.39804 15.3015 7.40758 15.2996 7.41712C15.2958 7.44 15.2824 7.44573 15.2634 7.45526C15.2252 7.47052 15.2176 7.50104 15.2405 7.5182C15.2824 7.54681 15.3244 7.57542 15.3683 7.60403C15.4084 7.63073 15.4599 7.64217 15.4885 7.68604C15.4905 7.68985 15.5 7.69367 15.5038 7.69367C15.5343 7.68032 15.5439 7.69939 15.5515 7.72228C15.5553 7.73563 15.5649 7.74135 15.5782 7.74326C15.6164 7.74707 15.6412 7.77949 15.6698 7.79857C15.6889 7.81001 15.7099 7.83481 15.729 7.85388C15.7443 7.86914 15.7519 7.89393 15.7805 7.88439C15.7729 7.92826 15.8359 7.90919 15.8359 7.94733C15.8359 7.95496 15.8454 7.96068 15.853 7.95687C15.8779 7.94733 15.8855 7.95305 15.8798 7.97976C15.8779 7.98929 15.8912 7.99692 15.8989 8.00264C16.0229 8.09991 16.1393 8.20481 16.2519 8.31353C16.4198 8.47374 16.5802 8.63967 16.7309 8.81704C16.8378 8.94101 16.9408 9.0688 17.042 9.19849C17.1756 9.37014 17.2977 9.55133 17.4179 9.73252C17.4237 9.74206 17.4275 9.75922 17.4427 9.75541C17.4561 9.7535 17.458 9.73824 17.4618 9.7268C17.5553 9.44834 17.6508 9.17179 17.7309 8.88952C17.834 8.52905 17.9294 8.16667 18.0019 7.79666C18.0592 7.50676 18.1031 7.21495 18.1221 6.92123C18.1317 6.77247 18.145 6.6237 18.126 6.47303C18.1164 6.39674 18.1126 6.32045 18.1088 6.24416C18.105 6.16977 18.0744 6.0992 18.0725 6.02482C18.0725 6.01147 18.0687 6.00003 18.0573 5.98858C18.0344 5.9676 18.0286 5.93709 18.0363 5.90848C18.0439 5.88559 18.0363 5.87606 18.0191 5.85889C17.9962 5.83791 17.979 5.80739 17.9885 5.77306C17.9943 5.75208 17.9885 5.73683 17.9828 5.71775C17.9618 5.66054 17.9198 5.61858 17.8874 5.56899C17.8721 5.5461 17.8473 5.53466 17.8244 5.55373C17.792 5.58234 17.75 5.57852 17.7137 5.59378C17.6527 5.62239 17.5954 5.65863 17.5286 5.67389C17.5153 5.6777 17.5 5.68533 17.4885 5.69487C17.4351 5.74636 17.374 5.78069 17.2996 5.79023C17.2901 5.79214 17.2805 5.79595 17.2786 5.80549C17.2634 5.85317 17.1966 5.82265 17.1832 5.87033C17.1221 5.87796 17.0763 5.9142 17.0382 5.95807C17.0286 5.96951 17.0153 5.98095 17.0057 5.97714C16.9809 5.96951 16.9676 5.98286 16.9523 5.99431C16.9141 6.02291 16.8798 6.05915 16.834 6.07441C16.8206 6.07822 16.8053 6.08776 16.8053 6.10683C16.8053 6.12209 16.7939 6.12781 16.7805 6.12972C16.7233 6.14116 16.687 6.18694 16.6412 6.21745C16.5687 6.26514 16.5057 6.32235 16.4389 6.37766C16.4237 6.39101 16.4198 6.41581 16.3969 6.41772C16.3626 6.41962 16.3645 6.48066 16.3187 6.4654C16.3187 6.4654 16.313 6.47303 16.313 6.47684C16.3111 6.49401 16.3034 6.50164 16.2863 6.50164C16.2691 6.50164 16.2576 6.51117 16.2557 6.52834C16.2538 6.53978 16.25 6.54169 16.2385 6.54169C16.1947 6.54741 16.1927 6.61226 16.1431 6.61035C16.1431 6.61607 16.1412 6.62179 16.1431 6.62751C16.1469 6.64659 16.1393 6.65422 16.1221 6.6504C16.0859 6.64086 16.0763 6.66184 16.0763 6.69236C16.0763 6.71143 16.0706 6.71906 16.0496 6.71334C16.0153 6.70571 15.9981 6.72288 16.0019 6.75721C16.0057 6.78582 15.9943 6.79154 15.9676 6.78582C15.937 6.78009 15.9065 6.8068 15.9103 6.8354C15.916 6.86974 15.8989 6.87736 15.8702 6.88118C15.8206 6.8869 15.7977 6.90788 15.7863 6.95747C15.7767 6.99561 15.7595 7.0185 15.7252 7.0185ZM6.38738 9.77067C6.40074 9.74778 6.40838 9.73443 6.41792 9.72108C6.5496 9.52463 6.68509 9.33009 6.83013 9.14127C7.0267 8.88379 7.24235 8.64348 7.47135 8.41461C7.60494 8.2811 7.74616 8.15522 7.88929 8.03125C7.92174 8.00264 7.95227 7.96831 7.98471 7.9397C8.01334 7.913 8.04578 7.88058 8.08586 7.86914C8.10876 7.86151 8.09922 7.83671 8.12021 7.83099C8.187 7.81573 8.2309 7.76424 8.28052 7.72037C8.31868 7.68604 8.35685 7.64599 8.40456 7.62882C8.44845 7.61356 8.48471 7.58877 8.52288 7.56398C8.54388 7.55062 8.58204 7.52774 8.57441 7.51248C8.55723 7.48006 8.56678 7.44 8.54006 7.4133C8.44846 7.32175 8.35685 7.23021 8.26716 7.14056C8.25952 7.13294 8.25189 7.12149 8.23662 7.1234C8.18891 7.13103 8.16601 7.09861 8.14693 7.06427C8.13739 7.04711 8.13357 7.02613 8.12212 7.01087C8.10113 6.98226 8.08013 6.9384 8.04387 6.94221C7.99044 6.94793 7.98281 6.92505 7.97708 6.88309C7.97326 6.85448 7.95418 6.82587 7.91983 6.8335C7.88548 6.84113 7.88166 6.82587 7.87784 6.79917C7.87403 6.76674 7.86067 6.74195 7.8225 6.75339C7.7996 6.75911 7.79578 6.74767 7.79578 6.73051C7.79578 6.70762 7.78624 6.68473 7.76525 6.68855C7.72708 6.69427 7.70609 6.69045 7.71945 6.64468C7.68509 6.62942 7.66029 6.58746 7.62975 6.58174C7.59731 6.57602 7.58395 6.57983 7.59349 6.54169C7.5954 6.53024 7.58204 6.52071 7.5725 6.52452C7.54769 6.53215 7.54006 6.52452 7.54006 6.49973C7.54006 6.48638 7.53051 6.47684 7.51525 6.48066C7.5038 6.48447 7.49807 6.48256 7.49616 6.46921C7.49425 6.44632 7.4828 6.43488 7.4599 6.44442C7.44845 6.44823 7.44273 6.44251 7.44273 6.43107C7.44273 6.41581 7.43319 6.41199 7.42174 6.40246C7.38738 6.37194 7.34731 6.35096 7.31105 6.32235C7.29387 6.309 7.27479 6.28421 7.26525 6.2823C7.19464 6.27086 7.16983 6.19647 7.10685 6.17168C7.06486 6.15451 7.02097 6.124 6.99616 6.07822C6.99044 6.06678 6.97135 6.05534 6.95227 6.05725C6.94845 6.05725 6.94082 6.05725 6.93891 6.05534C6.9141 5.98668 6.82631 6.00575 6.79387 5.94853C6.79196 5.94281 6.78051 5.9409 6.77288 5.9409C6.74234 5.94472 6.72326 5.92183 6.69845 5.91039C6.6641 5.89322 6.64883 5.85126 6.59922 5.84745C6.57822 5.84554 6.54578 5.83219 6.52479 5.81121C6.45608 5.74446 6.37784 5.69487 6.2786 5.69487C6.26334 5.69487 6.24998 5.68533 6.23853 5.67389C6.21181 5.64528 6.16982 5.63765 6.1412 5.61095C6.12021 5.59188 6.08204 5.61476 6.07822 5.60713C6.05532 5.56517 6.01715 5.58234 5.98662 5.57852C5.9828 5.57852 5.97898 5.57471 5.97517 5.5728C5.94463 5.55945 5.90647 5.58043 5.90074 5.61285C5.8912 5.67579 5.88356 5.74064 5.8244 5.78451C5.80914 5.79595 5.79578 5.82837 5.80914 5.84935C5.8225 5.87033 5.81295 5.8875 5.80914 5.90466C5.79005 5.97333 5.7557 6.04008 5.74043 6.11065C5.71563 6.2289 5.70418 6.34905 5.70227 6.46921C5.69845 6.69045 5.70036 6.90979 5.72708 7.12912C5.74043 7.23974 5.74998 7.35036 5.76906 7.46098C5.79769 7.64599 5.83204 7.82908 5.87402 8.01027C5.94082 8.30399 6.01524 8.5958 6.10112 8.8857C6.15074 9.04973 6.20036 9.21184 6.25189 9.37396C6.29196 9.50365 6.33395 9.63525 6.38738 9.77067ZM7.70418 12.2196C7.70418 12.2768 7.70609 12.334 7.70418 12.3931C7.69655 12.5209 7.75189 12.6125 7.84922 12.6926C8.0038 12.8204 8.17555 12.9234 8.35685 13.0092C8.75189 13.1942 9.16792 13.3143 9.59731 13.3906C9.78815 13.425 9.9809 13.4498 10.1756 13.444C10.2519 13.4421 10.3301 13.4364 10.4027 13.4059C10.4599 13.3811 10.4733 13.3582 10.4637 13.2972C10.4504 13.2114 10.4141 13.1351 10.3683 13.0645C10.2862 12.9367 10.1775 12.8337 10.0591 12.7403C9.86831 12.5877 9.65456 12.4675 9.44655 12.3416C9.10685 12.1376 8.76334 11.9392 8.39311 11.7943C8.23853 11.7332 8.08204 11.6836 7.9141 11.6798C7.80342 11.6779 7.7996 11.6817 7.75952 11.7866C7.70418 11.9259 7.70036 12.0727 7.70418 12.2196ZM16.3492 12.1967C16.3531 12.1261 16.3492 12.0498 16.3397 11.9755C16.3282 11.8782 16.3092 11.7809 16.2595 11.6932C16.25 11.676 16.2405 11.6608 16.2156 11.6588C16.1546 11.655 16.0935 11.655 16.0343 11.6646C15.8435 11.6951 15.6641 11.7657 15.4905 11.8477C15.0897 12.0327 14.7156 12.2654 14.3435 12.5019C14.1603 12.6182 13.9847 12.7384 13.8378 12.9005C13.7366 13.013 13.6508 13.1351 13.6259 13.2896C13.6164 13.3487 13.6259 13.3716 13.6813 13.3964C13.7424 13.425 13.8092 13.4326 13.8759 13.4345C14.1717 13.444 14.4618 13.3925 14.7481 13.3258C15.1336 13.2342 15.5076 13.1103 15.855 12.9176C16.0248 12.8242 16.1832 12.7155 16.3072 12.5648C16.3187 12.5514 16.3301 12.5381 16.3321 12.5171C16.3397 12.4122 16.3531 12.3073 16.3492 12.1967ZM15.1374 11.2793C15.2672 11.2812 15.395 11.2755 15.5229 11.2583C15.5859 11.2507 15.6546 11.2545 15.7023 11.2049C15.8645 11.0409 15.9313 10.8464 15.8683 10.6194C15.8034 10.3848 15.6508 10.217 15.4427 10.0987C15.2233 9.97284 14.9905 9.93278 14.75 10.0339C14.624 10.0873 14.5191 10.1731 14.4198 10.2646C14.2882 10.3867 14.1813 10.5259 14.1527 10.7071C14.1126 10.9513 14.1698 11.142 14.4427 11.2049C14.6717 11.2602 14.9046 11.2774 15.1374 11.2793ZM8.77479 11.2793C8.89693 11.2812 9.05533 11.2717 9.21182 11.2507C9.33395 11.2335 9.45418 11.2106 9.56678 11.1591C9.62785 11.1305 9.67174 11.0848 9.69655 11.0199C9.76334 10.8464 9.74235 10.6804 9.65456 10.5202C9.53052 10.299 9.34349 10.1426 9.1183 10.032C9.04006 9.99382 8.95418 9.98047 8.86639 9.97856C8.52479 9.97474 8.16601 10.2112 8.03624 10.5317C7.93891 10.7701 7.97899 10.9875 8.14884 11.182C8.17746 11.2164 8.21372 11.2354 8.25571 11.2431C8.41601 11.2736 8.57632 11.2793 8.77479 11.2793Z" fill="#FEB324"/>
<path d="M15.8244 5.9584C15.7576 6.02897 15.6889 6.10144 15.6222 6.17201C15.4332 6.37036 15.2519 6.57635 15.0783 6.78805C14.9466 6.94826 14.8168 7.10847 14.6928 7.2744C14.6756 7.29729 14.6603 7.30301 14.6317 7.29157C14.2596 7.15806 13.8817 7.05507 13.4943 6.98069C13.2691 6.93873 13.0401 6.9063 12.8111 6.88342C12.4313 6.84336 12.0496 6.84146 11.6679 6.85099C11.3435 6.85862 11.0191 6.88532 10.6966 6.93682C10.3302 6.99594 9.97138 7.08749 9.61833 7.20574C9.53626 7.23244 9.45611 7.26296 9.37405 7.29347C9.35115 7.3011 9.33779 7.2992 9.32252 7.28203C9.16413 7.10847 9.00382 6.933 8.84351 6.75944C8.7939 6.70413 8.74237 6.65073 8.69084 6.59733C8.5 6.39897 8.31489 6.19871 8.11832 6.00608C8.11451 6.00226 8.11069 5.99654 8.10687 5.99273C8.74046 5.64179 9.4084 5.37859 10.1126 5.20885C10.5725 5.09823 11.0401 5.02957 11.5115 5.00096C12.0305 4.97044 12.5477 4.98951 13.063 5.05627C14.0363 5.18596 14.9542 5.48731 15.8187 5.95458C15.8225 5.95649 15.8225 5.95649 15.8244 5.9584Z" fill="#F92905"/>
<path d="M5.0324 14.6228C5.36637 14.5637 5.70225 14.5313 6.04004 14.5351C6.95225 14.5485 7.76332 14.8384 8.46943 15.4163C8.63355 15.5517 8.78813 15.6966 8.93317 15.8511C8.96943 15.8893 8.96943 15.8893 8.98852 15.8435C9.17936 15.3857 9.41027 14.9509 9.72325 14.5637C10.1107 14.0831 10.5839 13.7283 11.1813 13.551C11.4599 13.469 11.7462 13.4194 12.0362 13.4289C12.6526 13.448 13.2271 13.6063 13.729 13.9782C14.0839 14.2395 14.3549 14.5752 14.5687 14.9566C14.7271 15.2389 14.8492 15.5364 14.9465 15.8454C14.9618 15.8912 14.9618 15.8912 14.9943 15.8568C15.3397 15.504 15.7252 15.2065 16.1679 14.9852C16.5725 14.7831 17 14.6553 17.4485 14.598C17.8282 14.5504 18.208 14.5523 18.5859 14.598C18.6927 14.6114 18.7996 14.6247 18.9046 14.6438C18.9027 15.0253 18.8091 15.3877 18.6698 15.7424C18.5668 16.0056 18.4179 16.2421 18.2672 16.4786C17.8798 17.087 17.3683 17.5791 16.8034 18.0178C15.9179 18.7044 14.9408 19.2155 13.8759 19.5626C13.5171 19.679 13.1526 19.7705 12.7786 19.8296C12.4332 19.883 12.0839 19.9117 11.7328 19.885C11.3492 19.8563 10.9733 19.7839 10.603 19.6809C10.5954 19.679 10.5839 19.6809 10.5801 19.6694C10.5954 19.6561 10.6087 19.6675 10.6221 19.6713C10.729 19.6961 10.8358 19.7228 10.9446 19.7457C11.0229 19.7629 11.1011 19.7743 11.1775 19.7877C11.0706 19.761 10.9618 19.7419 10.8549 19.7171C10.7061 19.6828 10.5572 19.6427 10.4065 19.6046C10.3778 19.5893 10.3473 19.5817 10.3149 19.576H10.3168C10.3091 19.5664 10.2996 19.5664 10.2881 19.5664C10.2691 19.5531 10.2481 19.5474 10.2233 19.5474H10.2252C10.2194 19.534 10.208 19.5378 10.1965 19.5378C10.1908 19.5264 10.1794 19.5283 10.1679 19.5283C10.1622 19.5169 10.1507 19.5188 10.1393 19.5188C10.1336 19.5054 10.1183 19.5054 10.1087 19.5016C9.64501 19.3433 9.19844 19.1468 8.76332 18.9237C8.75187 18.918 8.74233 18.9046 8.72707 18.9142C8.72516 18.9142 8.72325 18.9123 8.72134 18.9123C8.69081 18.8779 8.65073 18.8627 8.60874 18.8512C8.60684 18.8512 8.60493 18.8493 8.60302 18.8493C8.60493 18.8379 8.5992 18.8379 8.59157 18.8417C8.58966 18.8417 8.58775 18.8417 8.58584 18.8398C8.56676 18.815 8.54195 18.7997 8.50951 18.7978C8.5076 18.7978 8.50569 18.7959 8.50378 18.7959C8.50569 18.7845 8.49997 18.7845 8.49233 18.7883C8.49042 18.7883 8.48852 18.7864 8.48661 18.7864C8.47897 18.7673 8.46561 18.7616 8.44653 18.7616C8.44462 18.7616 8.44271 18.7597 8.44081 18.7597C8.44081 18.7501 8.43699 18.7482 8.42935 18.752C8.42745 18.752 8.42554 18.7501 8.42363 18.7501C8.416 18.733 8.40073 18.7253 8.38355 18.7253C8.38164 18.7253 8.37974 18.7234 8.37783 18.7234C8.37783 18.7139 8.37401 18.712 8.36638 18.7158C8.36447 18.7158 8.36256 18.7139 8.36065 18.7139C8.35874 18.7025 8.35111 18.6967 8.33966 18.6986C8.33584 18.6967 8.33393 18.6948 8.33012 18.6929C8.33012 18.6872 8.3263 18.6853 8.32248 18.6891C8.32058 18.6891 8.31867 18.6872 8.31676 18.6872C8.31676 18.6796 8.31294 18.6777 8.30531 18.6796C8.30531 18.6777 8.3034 18.6777 8.30149 18.6777C8.29577 18.6643 8.28432 18.6586 8.27096 18.6586L8.26905 18.6567C8.26905 18.651 8.26523 18.6491 8.25951 18.6529C8.2576 18.651 8.25569 18.651 8.25378 18.651C8.24806 18.6376 8.23851 18.6319 8.22516 18.6319C7.95035 18.464 7.67744 18.2924 7.4179 18.1017C7.11447 17.8785 6.82248 17.6439 6.54576 17.3884C6.1679 17.0412 5.82439 16.6655 5.54195 16.2364C5.33584 15.9255 5.16981 15.5936 5.0782 15.2293C5.02859 15.0348 5.01332 14.8384 5.02286 14.64C5.02859 14.6343 5.03049 14.6286 5.0324 14.6228ZM13.4523 18.0502C13.521 17.8823 13.5839 17.7202 13.6488 17.56C13.6641 17.5238 13.6698 17.4742 13.6965 17.4551C13.7233 17.436 13.7729 17.4475 13.811 17.4494C13.8416 17.4513 13.8549 17.4418 13.8626 17.4112C13.9007 17.2529 13.9408 17.0946 13.9847 16.9382C13.9942 16.902 13.9904 16.8925 13.9523 16.8925C13.7939 16.8944 13.6336 16.8944 13.4752 16.8925C13.4332 16.8925 13.4084 16.902 13.3893 16.9402C13.3778 16.963 13.3683 16.984 13.332 16.9821C13.1126 16.9783 12.8931 16.9764 12.6717 16.9764C12.6469 16.9764 12.6336 16.9688 12.6221 16.9478C12.5916 16.8982 12.5553 16.8505 12.5286 16.799C12.5038 16.7532 12.4733 16.7265 12.4179 16.7361C12.3855 16.7437 12.3778 16.7265 12.3797 16.696C12.3817 16.5434 12.3817 16.389 12.3797 16.2364C12.3797 16.2078 12.3874 16.1944 12.4141 16.1849C12.5381 16.1429 12.6526 16.0838 12.7595 16.0056C13.0133 15.8206 13.1698 15.5822 13.1755 15.258C13.1775 15.1435 13.1794 15.0272 13.1813 14.9127C13.1832 14.7125 12.9752 14.5008 12.7729 14.5008C12.3568 14.5008 11.9408 14.5008 11.5267 14.5008C11.2977 14.5008 11.1355 14.6629 11.1355 14.8937C11.1355 15.0138 11.1355 15.134 11.1355 15.2522C11.1355 15.298 11.1393 15.3438 11.1507 15.3877C11.1908 15.5631 11.2977 15.6985 11.4294 15.813C11.6164 15.977 11.832 16.0895 12.061 16.1811C12.0916 16.1925 12.1011 16.2078 12.1011 16.2402C12.0992 16.3871 12.0992 16.5339 12.1011 16.6808C12.1011 16.7189 12.0954 16.738 12.0534 16.7304C12.0114 16.7208 11.9885 16.7399 11.9675 16.7761C11.9332 16.8372 11.8931 16.8944 11.8568 16.9535C11.8435 16.9745 11.8301 16.9821 11.8053 16.9821C11.5439 16.9821 11.2843 16.9764 11.0229 16.9669C11.0038 16.9669 10.9904 16.963 10.9904 16.9402C10.9904 16.9058 10.9694 16.8963 10.937 16.8963C10.7576 16.8963 10.5782 16.8944 10.4007 16.8944C10.3855 16.8944 10.3607 16.881 10.3549 16.9077C10.3492 16.9306 10.3511 16.9497 10.3721 16.9688C10.4141 17.0031 10.4504 17.0412 10.4904 17.0756C10.5114 17.0927 10.5229 17.1137 10.5229 17.1423C10.5229 17.2186 10.5381 17.293 10.5553 17.3674C10.5725 17.4494 10.5744 17.4494 10.6565 17.4437C10.6717 17.4418 10.687 17.4437 10.7023 17.4399C10.7252 17.4341 10.7328 17.4437 10.7366 17.4666C10.7481 17.5238 10.7633 17.581 10.7805 17.6382C10.8206 17.7755 10.874 17.9071 10.9542 18.0254C10.9599 18.033 10.9675 18.0616 10.9809 18.0387C11.0152 17.9815 11.0668 17.9357 11.0629 17.8575C11.0534 17.6477 11.0534 17.436 11.0477 17.2262C11.0458 17.1824 11.0629 17.1805 11.0973 17.1881C11.3454 17.232 11.5954 17.2587 11.8473 17.272C12.3397 17.2968 12.8282 17.2663 13.3149 17.1824C13.3511 17.1767 13.3568 17.1843 13.3568 17.2186C13.353 17.4284 13.353 17.6401 13.3511 17.8499C13.3511 17.8671 13.3511 17.8823 13.3607 17.8976C13.3893 17.9434 13.4198 17.9949 13.4523 18.0502ZM12.1183 17.4246C12.1183 17.4227 12.1183 17.4208 12.1183 17.4189C11.9313 17.4189 11.7462 17.4189 11.5591 17.4189C11.4523 17.4189 11.4542 17.4189 11.4523 17.5238C11.4523 17.5505 11.4599 17.5676 11.4847 17.581C11.542 17.6115 11.603 17.6344 11.6641 17.6573C11.708 17.6744 11.7271 17.663 11.7442 17.621C11.7786 17.5371 11.7805 17.539 11.874 17.5428C11.9084 17.5448 11.9294 17.5543 11.9465 17.5848C11.979 17.642 12.0171 17.6973 12.0534 17.7526C12.0992 17.8232 12.1908 17.8308 12.2481 17.7679C12.29 17.7221 12.3301 17.6744 12.3721 17.6287C12.4408 17.5505 12.4408 17.5505 12.5229 17.6153C12.5992 17.6764 12.5992 17.6764 12.6851 17.6268C12.7786 17.5715 12.7767 17.5715 12.7786 17.4627C12.7786 17.4303 12.7691 17.4227 12.7366 17.4227C12.5305 17.4246 12.3244 17.4246 12.1183 17.4246Z" fill="#FEFEFE"/>
<path d="M8.73853 18.9159C8.75379 18.9064 8.76333 18.9197 8.77479 18.9255C9.2099 19.1486 9.65647 19.3451 10.1202 19.5034C10.1317 19.5072 10.145 19.5072 10.1507 19.5205C10.1374 19.5205 10.1221 19.5205 10.1088 19.5205C9.98853 19.4881 9.87212 19.4385 9.75761 19.3947C9.41792 19.2611 9.08776 19.1048 8.76333 18.935C8.7557 18.9293 8.74807 18.9217 8.73853 18.9159Z" fill="#FEB324"/>
<path d="M10.416 19.6025C10.5649 19.6407 10.7137 19.6807 10.8645 19.7151C10.9714 19.7399 11.0801 19.7589 11.187 19.7856C11.1088 19.7723 11.0305 19.7589 10.9542 19.7437C10.8473 19.7208 10.7404 19.6941 10.6317 19.6693C10.6183 19.6655 10.603 19.6559 10.5897 19.6674H10.5916C10.5744 19.6464 10.5515 19.6445 10.5267 19.6483C10.5172 19.6331 10.5057 19.6311 10.4904 19.6388C10.4847 19.6216 10.4752 19.6254 10.4618 19.6292C10.4523 19.614 10.4408 19.6102 10.4313 19.6273C10.4256 19.6292 10.4217 19.6273 10.4198 19.6216C10.437 19.614 10.4103 19.6102 10.416 19.6025Z" fill="#FEB324"/>
<path d="M10.416 19.6025C10.4103 19.6101 10.437 19.614 10.4179 19.6235C10.3149 19.5911 10.2099 19.5606 10.1107 19.5205C10.124 19.5205 10.1393 19.5205 10.1527 19.5205C10.1584 19.5339 10.1698 19.53 10.1813 19.53C10.187 19.5415 10.1985 19.5396 10.2099 19.5396C10.2156 19.5529 10.2271 19.5491 10.2386 19.5491H10.2366C10.2557 19.5644 10.2767 19.5701 10.3015 19.5682C10.3073 19.5834 10.3206 19.5758 10.3302 19.5777H10.3282C10.3511 19.5949 10.3836 19.6006 10.416 19.6025Z" fill="#FEFEFE"/>
<path d="M8.62021 18.853C8.66219 18.8645 8.70227 18.8797 8.7328 18.9141C8.69273 18.8969 8.65265 18.8816 8.62021 18.853Z" fill="#FEB324"/>
<path d="M8.521 18.7979C8.55344 18.8017 8.57825 18.815 8.59733 18.8398C8.57061 18.8303 8.54199 18.8207 8.521 18.7979Z" fill="#FEB324"/>
<path d="M10.5248 19.6486C10.5496 19.6447 10.5725 19.6466 10.5897 19.6676C10.5649 19.6695 10.542 19.6638 10.5248 19.6486Z" fill="#FEFEFE"/>
<path d="M8.3931 18.7251C8.41027 18.7251 8.42554 18.7327 8.43317 18.7499C8.41791 18.7442 8.40264 18.7404 8.3931 18.7251Z" fill="#FEB324"/>
<path d="M8.45798 18.7617C8.47706 18.7617 8.49042 18.7674 8.49805 18.7865C8.48279 18.7808 8.46561 18.777 8.45798 18.7617Z" fill="#FEB324"/>
<path d="M8.2767 18.6562C8.29006 18.6562 8.30151 18.662 8.30724 18.6753C8.29579 18.6734 8.28434 18.6696 8.2767 18.6562Z" fill="#FEB324"/>
<path d="M8.23282 18.6297C8.24809 18.6278 8.25572 18.6354 8.26144 18.6488C8.24999 18.6449 8.23664 18.643 8.23282 18.6297Z" fill="#FEB324"/>
<path d="M8.34729 18.6967C8.35874 18.6947 8.36637 18.7005 8.36828 18.7119C8.36065 18.71 8.35111 18.71 8.34729 18.6967Z" fill="#FEB324"/>
<path d="M10.4885 19.6386C10.5038 19.631 10.5172 19.6329 10.5248 19.6482C10.5095 19.6539 10.4981 19.652 10.4885 19.6386Z" fill="#FEFEFE"/>
<path d="M10.4294 19.6296C10.4408 19.6125 10.4504 19.6144 10.4599 19.6315C10.4504 19.6296 10.4408 19.6296 10.4294 19.6296Z" fill="#FEFEFE"/>
<path d="M10.4599 19.6296C10.4714 19.6238 10.4828 19.6219 10.4885 19.6391C10.4771 19.641 10.4656 19.6448 10.4599 19.6296Z" fill="#FEFEFE"/>
<path d="M8.31296 18.6774C8.32011 18.6756 8.32369 18.6774 8.32369 18.6846C8.32011 18.6828 8.31654 18.6792 8.31296 18.6774Z" fill="#FEB324"/>
<path d="M8.44083 18.7517C8.44798 18.7482 8.45156 18.7499 8.45156 18.7589C8.44619 18.7553 8.44262 18.7535 8.44083 18.7517Z" fill="#FEB324"/>
<path d="M8.50378 18.7883C8.51094 18.7847 8.51631 18.7847 8.51452 18.7954C8.51094 18.7918 8.50736 18.7901 8.50378 18.7883Z" fill="#FEB324"/>
<path d="M8.60303 18.8415C8.61018 18.8379 8.61555 18.8379 8.61376 18.8486C8.61018 18.8469 8.60661 18.8451 8.60303 18.8415Z" fill="#FEB324"/>
<path d="M8.37592 18.7156C8.38307 18.712 8.38665 18.7138 8.38665 18.7227C8.38307 18.7192 8.37949 18.7174 8.37592 18.7156Z" fill="#FEB324"/>
<path d="M8.33014 18.6867C8.33629 18.6826 8.33834 18.6847 8.33834 18.6908C8.33629 18.6908 8.33424 18.6888 8.33014 18.6867Z" fill="#FEB324"/>
<path d="M8.26715 18.6508C8.27252 18.6472 8.27431 18.649 8.2761 18.6544C8.27252 18.6544 8.27073 18.6526 8.26715 18.6508Z" fill="#FEB324"/>
<path d="M15.7252 7.01893C15.7595 7.01893 15.7786 6.99604 15.7862 6.96171C15.7977 6.91212 15.8206 6.89114 15.8702 6.88542C15.8988 6.88351 15.916 6.87397 15.9103 6.83964C15.9065 6.81103 15.9389 6.78433 15.9675 6.79005C15.9943 6.79578 16.0038 6.79005 16.0019 6.76145C15.9981 6.72712 16.0153 6.70995 16.0496 6.71758C16.0725 6.7233 16.0763 6.71567 16.0763 6.6966C16.0763 6.66608 16.0859 6.6451 16.1221 6.65464C16.1412 6.65845 16.1469 6.65083 16.1431 6.63175C16.1412 6.62603 16.1431 6.62031 16.1431 6.61459C16.1927 6.61649 16.1946 6.55165 16.2385 6.54593C16.25 6.54402 16.2557 6.54211 16.2557 6.53258C16.2576 6.5135 16.2672 6.50397 16.2863 6.50587C16.3034 6.50587 16.3111 6.49825 16.313 6.48108C16.313 6.47727 16.3187 6.46964 16.3187 6.46964C16.3645 6.48489 16.3607 6.42386 16.3969 6.42195C16.4198 6.42005 16.4217 6.39525 16.4389 6.3819C16.5057 6.3285 16.5687 6.26937 16.6412 6.22169C16.687 6.19118 16.7233 6.1454 16.7805 6.13396C16.792 6.13205 16.8034 6.12824 16.8053 6.11107C16.8053 6.092 16.8206 6.08437 16.834 6.07865C16.8817 6.06339 16.9141 6.02715 16.9523 5.99854C16.9675 5.9871 16.9809 5.97375 17.0057 5.98138C17.0172 5.98519 17.0286 5.97184 17.0382 5.96231C17.0782 5.91844 17.1221 5.88029 17.1832 5.87457C17.1985 5.8288 17.2653 5.85932 17.2786 5.80973C17.2805 5.80019 17.2901 5.79638 17.2996 5.79447C17.374 5.78303 17.4351 5.74869 17.4885 5.69911C17.4981 5.68957 17.5134 5.68194 17.5286 5.67813C17.5954 5.66287 17.6527 5.62663 17.7137 5.59802C17.75 5.58086 17.792 5.58658 17.8244 5.55797C17.8473 5.5389 17.8721 5.55034 17.8874 5.57323C17.9198 5.62282 17.9618 5.66478 17.9828 5.72199C17.9905 5.74107 17.9943 5.75632 17.9885 5.7773C17.979 5.81163 17.9962 5.84024 18.0191 5.86313C18.0363 5.87839 18.042 5.88983 18.0363 5.91272C18.0286 5.94133 18.0343 5.97184 18.0572 5.99282C18.0687 6.00427 18.0725 6.01571 18.0725 6.02906C18.0744 6.10344 18.105 6.1721 18.1088 6.24839C18.1126 6.32468 18.1164 6.40288 18.1259 6.47727C18.145 6.62794 18.1317 6.7767 18.1221 6.92547C18.103 7.21919 18.0592 7.511 18.0019 7.8009C17.9294 8.169 17.834 8.53328 17.7309 8.89376C17.6488 9.17603 17.5553 9.45258 17.4618 9.73104C17.458 9.74248 17.458 9.75774 17.4427 9.75965C17.4275 9.76156 17.4256 9.7463 17.4179 9.73676C17.2977 9.55557 17.1756 9.37438 17.042 9.20273C16.9408 9.07304 16.8378 8.94525 16.7309 8.82128C16.5801 8.64581 16.4198 8.47797 16.2519 8.31776C16.1393 8.20905 16.0229 8.10415 15.8988 8.00688C15.8912 8.00116 15.8779 7.99353 15.8798 7.984C15.8855 7.95729 15.8779 7.94966 15.853 7.96111C15.8454 7.96492 15.8359 7.95729 15.8359 7.95157C15.8359 7.91343 15.7729 7.93059 15.7805 7.88863C15.7519 7.89817 15.7443 7.87337 15.729 7.85812C15.708 7.83904 15.687 7.81425 15.6698 7.80281C15.6412 7.78373 15.6164 7.75131 15.5782 7.7475C15.5649 7.74559 15.5553 7.73987 15.5515 7.72652C15.5439 7.70363 15.5343 7.68456 15.5038 7.69791C15.5 7.69981 15.4904 7.696 15.4885 7.69028C15.4599 7.64641 15.4084 7.63497 15.3683 7.60827C15.3263 7.57966 15.2824 7.55105 15.2404 7.52244C15.2175 7.50718 15.2271 7.47667 15.2633 7.4595C15.2824 7.45187 15.2958 7.44424 15.2996 7.42136C15.3015 7.41182 15.3111 7.40038 15.3225 7.40228C15.3721 7.40419 15.3969 7.36605 15.4275 7.33744C15.4561 7.31073 15.4828 7.28213 15.5114 7.25352C15.5286 7.23635 15.542 7.21919 15.542 7.19439C15.542 7.18295 15.5439 7.17151 15.5534 7.16578C15.605 7.13336 15.6317 7.07614 15.6794 7.038C15.6908 7.02465 15.7004 7.00748 15.7252 7.01893Z" fill="#FE981B"/>
<path d="M6.38737 9.77057C6.33203 9.63516 6.29195 9.50356 6.24997 9.37386C6.19844 9.21175 6.14882 9.04772 6.0992 8.88561C6.01333 8.59761 5.93699 8.30389 5.8721 8.01018C5.83203 7.82708 5.79577 7.64398 5.76714 7.46089C5.74997 7.35027 5.73852 7.23965 5.72516 7.12903C5.69844 6.90969 5.69653 6.68845 5.70035 6.46912C5.70226 6.34896 5.71371 6.2288 5.73852 6.11055C5.75378 6.04189 5.78623 5.97514 5.80722 5.90457C5.81294 5.8874 5.82058 5.87024 5.80722 5.84926C5.79386 5.82828 5.80722 5.79586 5.82249 5.78441C5.88165 5.74055 5.88737 5.67761 5.89882 5.61276C5.90455 5.58034 5.94271 5.55745 5.97325 5.57271C5.97707 5.57462 5.98088 5.57843 5.9847 5.57843C6.01714 5.58415 6.0534 5.56699 6.0763 5.60704C6.08012 5.61467 6.11829 5.58987 6.13928 5.61085C6.16791 5.63755 6.20989 5.64518 6.23661 5.67379C6.24806 5.68524 6.26142 5.69477 6.27668 5.69477C6.37592 5.69668 6.45417 5.74436 6.52287 5.81111C6.54386 5.83209 6.5763 5.84544 6.5973 5.84735C6.64691 5.85117 6.66218 5.89313 6.69653 5.91029C6.72134 5.92174 6.74043 5.94462 6.77096 5.94081C6.77669 5.94081 6.78814 5.94271 6.79195 5.94844C6.8244 6.00565 6.91218 5.98849 6.93699 6.05524C6.93699 6.05715 6.94462 6.05906 6.95035 6.05715C6.96943 6.05524 6.98852 6.06669 6.99424 6.07813C7.01905 6.1239 7.06295 6.15442 7.10493 6.17159C7.16791 6.19638 7.19081 6.27076 7.26333 6.28221C7.27478 6.28411 7.29195 6.30891 7.30913 6.32226C7.34539 6.34896 7.38546 6.37185 7.41982 6.40236C7.43127 6.4119 7.44081 6.41762 7.44081 6.43097C7.44081 6.44242 7.44653 6.44814 7.45798 6.44432C7.48088 6.43669 7.49234 6.44814 7.49424 6.46912C7.49615 6.48056 7.50379 6.48247 7.51333 6.48056C7.52859 6.47675 7.53814 6.48628 7.53814 6.49963C7.53814 6.52443 7.54577 6.53206 7.57058 6.52443C7.58203 6.52061 7.59348 6.53206 7.59157 6.54159C7.58203 6.57974 7.59539 6.57402 7.62783 6.58164C7.65837 6.58737 7.68127 6.62933 7.71753 6.64458C7.70417 6.69036 7.72516 6.69227 7.76333 6.68845C7.78432 6.68654 7.79386 6.70943 7.79386 6.73041C7.79386 6.74758 7.79577 6.76093 7.82058 6.7533C7.85875 6.74376 7.87211 6.76856 7.87592 6.79907C7.87783 6.82577 7.88165 6.84103 7.91791 6.8334C7.95226 6.82577 7.97134 6.85438 7.97516 6.88299C7.98089 6.92495 7.98852 6.94784 8.04195 6.94212C8.07631 6.9383 8.09921 6.98217 8.1202 7.01078C8.13165 7.02603 8.13547 7.04701 8.14501 7.06418C8.16409 7.09851 8.18699 7.13093 8.2347 7.1233C8.24997 7.1214 8.2557 7.13093 8.26524 7.14047C8.35684 7.23202 8.44844 7.32357 8.53814 7.41321C8.56486 7.43991 8.55531 7.47996 8.57249 7.51238C8.58012 7.52574 8.54195 7.54862 8.52096 7.56388C8.48279 7.58867 8.44654 7.61347 8.40264 7.62873C8.35493 7.64589 8.31676 7.68594 8.2786 7.72028C8.23089 7.76414 8.18699 7.81564 8.11829 7.8309C8.09921 7.83471 8.10684 7.86141 8.08394 7.86904C8.04386 7.88239 8.01142 7.91291 7.98279 7.93961C7.95226 7.96822 7.92173 8.00255 7.88737 8.03116C7.74424 8.15513 7.60302 8.28101 7.46943 8.41452C7.24233 8.64339 7.02669 8.8837 6.82821 9.14118C6.68317 9.33 6.54768 9.52263 6.416 9.72098C6.41027 9.73433 6.40073 9.74768 6.38737 9.77057Z" fill="#FE981B"/>
<path d="M7.70418 12.2193C7.70036 12.0724 7.70418 11.9255 7.75761 11.7863C7.79769 11.6814 7.8015 11.6776 7.91219 11.6795C8.08013 11.6833 8.23662 11.7329 8.3912 11.7939C8.76143 11.9389 9.10494 12.1353 9.44464 12.3413C9.65265 12.4672 9.86639 12.5874 10.0572 12.7399C10.1756 12.8334 10.2824 12.9383 10.3664 13.0642C10.4122 13.1366 10.4485 13.211 10.4618 13.2969C10.4714 13.3579 10.458 13.3808 10.4007 13.4056C10.3282 13.4361 10.25 13.4418 10.1736 13.4437C9.97899 13.4475 9.78624 13.4227 9.5954 13.3903C9.16601 13.314 8.74998 13.1939 8.35494 13.0089C8.17364 12.923 8.00379 12.822 7.84731 12.6923C7.74998 12.6122 7.69463 12.5206 7.70227 12.3928C7.70608 12.3337 7.70418 12.2765 7.70418 12.2193Z" fill="#010000"/>
<path d="M16.3492 12.1965C16.3511 12.3071 16.3397 12.414 16.3321 12.5188C16.3302 12.5398 16.3187 12.5513 16.3073 12.5665C16.1813 12.7172 16.0229 12.8259 15.855 12.9194C15.5076 13.112 15.1336 13.236 14.7481 13.3275C14.4618 13.3943 14.1718 13.4458 13.876 13.4362C13.8092 13.4343 13.7424 13.4267 13.6813 13.3981C13.626 13.3733 13.6164 13.3504 13.626 13.2913C13.6527 13.1368 13.7366 13.0147 13.8378 12.9022C13.9828 12.7401 14.1603 12.6199 14.3435 12.5036C14.7156 12.2671 15.0897 12.0344 15.4905 11.8494C15.6641 11.7693 15.8435 11.6968 16.0344 11.6663C16.0935 11.6568 16.1546 11.6568 16.2157 11.6606C16.2405 11.6625 16.25 11.6778 16.2595 11.6949C16.3092 11.7827 16.3282 11.878 16.3397 11.9772C16.3492 12.0497 16.3531 12.126 16.3492 12.1965Z" fill="#010000"/>
<path d="M15.1374 11.2792C14.9046 11.2773 14.6718 11.2602 14.4428 11.2087C14.1699 11.1457 14.1126 10.955 14.1527 10.7109C14.1813 10.5297 14.2901 10.3905 14.4199 10.2684C14.5191 10.1768 14.6241 10.0891 14.75 10.0376C14.9905 9.93654 15.2233 9.97659 15.4428 10.1025C15.6508 10.2207 15.8034 10.3886 15.8683 10.6231C15.9313 10.8501 15.8645 11.0447 15.7023 11.2087C15.6546 11.2564 15.584 11.2544 15.5229 11.2621C15.395 11.2754 15.2672 11.2811 15.1374 11.2792Z" fill="#FEFEFE"/>
<path d="M8.77479 11.2793C8.57823 11.2793 8.41601 11.2736 8.25571 11.2431C8.21181 11.2354 8.17746 11.2164 8.14884 11.182C7.97899 10.9875 7.93891 10.7701 8.03624 10.5317C8.16792 10.2112 8.52479 9.97475 8.8664 9.97856C8.95418 9.98047 9.04006 9.99382 9.1183 10.032C9.3435 10.1426 9.53052 10.299 9.65457 10.5202C9.74235 10.6785 9.76144 10.8464 9.69655 11.0199C9.67174 11.0848 9.62785 11.1286 9.56678 11.1592C9.45418 11.2126 9.33395 11.2354 9.21182 11.2507C9.05533 11.2717 8.89693 11.2812 8.77479 11.2793Z" fill="#FEFEFE"/>
<path d="M13.4523 18.0503C13.4179 17.995 13.3874 17.9454 13.3549 17.8958C13.3454 17.8806 13.3435 17.8653 13.3454 17.8482C13.3473 17.6384 13.3473 17.4267 13.3511 17.2169C13.3511 17.1806 13.3454 17.173 13.3091 17.1806C12.8225 17.2645 12.334 17.2951 11.8416 17.2703C11.5897 17.2569 11.3397 17.2302 11.0916 17.1863C11.0572 17.1806 11.042 17.1806 11.042 17.2245C11.0496 17.4343 11.0496 17.646 11.0572 17.8558C11.0611 17.934 11.0095 17.9798 10.9752 18.037C10.9618 18.0599 10.9542 18.0293 10.9485 18.0236C10.8683 17.9035 10.8149 17.7738 10.7748 17.6365C10.7576 17.5792 10.7423 17.522 10.7309 17.4648C10.7252 17.4419 10.7194 17.4324 10.6965 17.4381C10.6813 17.4419 10.666 17.44 10.6507 17.4419C10.5687 17.4495 10.5668 17.4495 10.5496 17.3656C10.5343 17.2912 10.5191 17.2169 10.5172 17.1406C10.5172 17.112 10.5057 17.0929 10.4847 17.0738C10.4446 17.0395 10.4065 17.0013 10.3664 16.967C10.3435 16.9498 10.3435 16.9289 10.3492 16.906C10.3549 16.8793 10.3798 16.8926 10.395 16.8926C10.5744 16.8926 10.7538 16.8945 10.9313 16.8945C10.9637 16.8945 10.9847 16.9022 10.9847 16.9384C10.9847 16.9613 10.9981 16.9651 11.0172 16.9651C11.2786 16.9746 11.5382 16.9804 11.7996 16.9804C11.8244 16.9804 11.8378 16.9727 11.8511 16.9518C11.8874 16.8926 11.9275 16.8354 11.9618 16.7744C11.9828 16.7381 12.0057 16.7191 12.0477 16.7286C12.0897 16.7381 12.0973 16.7172 12.0954 16.679C12.0935 16.5322 12.0935 16.3853 12.0954 16.2384C12.0954 16.206 12.0859 16.1927 12.0553 16.1793C11.8263 16.0878 11.6107 15.9752 11.4236 15.8112C11.292 15.6949 11.1851 15.5614 11.145 15.3859C11.1355 15.342 11.1298 15.2963 11.1298 15.2505C11.1298 15.1303 11.1298 15.0102 11.1298 14.8919C11.1298 14.6611 11.292 14.499 11.521 14.499C11.937 14.499 12.353 14.499 12.7672 14.499C12.9695 14.499 13.1794 14.7107 13.1756 14.911C13.1736 15.0254 13.1717 15.1418 13.1698 15.2562C13.166 15.5804 13.0095 15.8188 12.7538 16.0038C12.6488 16.0801 12.5324 16.1412 12.4084 16.1831C12.3817 16.1927 12.3721 16.206 12.374 16.2346C12.3759 16.3872 12.3759 16.5417 12.374 16.6943C12.374 16.7248 12.3798 16.742 12.4122 16.7343C12.4675 16.7229 12.4981 16.7515 12.5229 16.7973C12.5515 16.8488 12.5878 16.8964 12.6164 16.946C12.6278 16.967 12.6412 16.9746 12.666 16.9746C12.8855 16.9746 13.1049 16.9765 13.3263 16.9804C13.3607 16.9804 13.3721 16.9594 13.3836 16.9384C13.4007 16.9003 13.4275 16.8907 13.4695 16.8907C13.6278 16.8926 13.7882 16.8926 13.9466 16.8907C13.9866 16.8907 13.9904 16.8983 13.979 16.9365C13.9351 17.0929 13.895 17.2512 13.8569 17.4095C13.8492 17.44 13.8359 17.4495 13.8053 17.4476C13.7672 17.4457 13.7175 17.4343 13.6908 17.4534C13.6641 17.4724 13.6584 17.522 13.6431 17.5583C13.5859 17.7204 13.521 17.8806 13.4523 18.0503Z" fill="#010000"/>
<path d="M12.1183 17.4242C12.3244 17.4242 12.5305 17.4242 12.7366 17.4242C12.7672 17.4242 12.7786 17.4299 12.7786 17.4643C12.7786 17.573 12.7786 17.573 12.6851 17.6283C12.5992 17.6779 12.5992 17.6779 12.5229 17.6169C12.4408 17.552 12.4408 17.552 12.3721 17.6302C12.3301 17.676 12.2901 17.7237 12.2481 17.7694C12.1908 17.8324 12.1011 17.8247 12.0534 17.7542C12.0172 17.6989 11.979 17.6436 11.9465 17.5863C11.9294 17.5558 11.9084 17.5463 11.874 17.5444C11.7805 17.5425 11.7786 17.5387 11.7443 17.6226C11.7271 17.6645 11.708 17.6741 11.6641 17.6588C11.603 17.6359 11.542 17.613 11.4847 17.5825C11.4599 17.5692 11.4523 17.552 11.4523 17.5253C11.4523 17.4204 11.4523 17.4204 11.5591 17.4204C11.7462 17.4204 11.9313 17.4204 12.1183 17.4204C12.1183 17.4204 12.1183 17.4223 12.1183 17.4242Z" fill="#010000"/>
<path d="M10.416 19.6023C10.3836 19.6023 10.3511 19.5947 10.3244 19.5737C10.3568 19.5795 10.3874 19.5871 10.416 19.6023Z" fill="#FEB324"/>
<path d="M10.2977 19.5662C10.2729 19.5681 10.2519 19.5624 10.2328 19.5472C10.2576 19.5453 10.2786 19.5529 10.2977 19.5662Z" fill="#FEB324"/>
<path d="M10.1794 19.5301C10.1698 19.5301 10.1565 19.5339 10.1508 19.5205C10.1622 19.5205 10.1737 19.5167 10.1794 19.5301Z" fill="#FEB324"/>
<path d="M10.2061 19.5398C10.1965 19.5398 10.1851 19.5417 10.1775 19.5303C10.1889 19.5303 10.2004 19.5265 10.2061 19.5398Z" fill="#FEB324"/>
<path d="M10.2347 19.5471C10.2252 19.5471 10.2118 19.551 10.2061 19.5376C10.2157 19.5376 10.2271 19.5338 10.2347 19.5471Z" fill="#FEB324"/>
<path d="M10.3244 19.5759C10.3149 19.574 10.3015 19.5817 10.2958 19.5664C10.3072 19.5664 10.3168 19.5664 10.3244 19.5759Z" fill="#FEB324"/>
</svg>
