<svg width="24" height="24" viewBox="0 0 24 24" fill="none" xmlns="http://www.w3.org/2000/svg">
<path d="M12 24C18.6274 24 24 18.6274 24 12C24 5.37258 18.6274 0 12 0C5.37258 0 0 5.37258 0 12C0 18.6274 5.37258 24 12 24Z" fill="#2170FB"/>
<path d="M12 24C18.6274 24 24 18.6274 24 12C24 5.37258 18.6274 0 12 0C5.37258 0 0 5.37258 0 12C0 18.6274 5.37258 24 12 24Z" fill="#001F79"/>
<path d="M10.0995 13.8746C9.80892 14.1244 9.50466 14.2742 9.11413 14.356C8.79306 14.4268 8.46076 14.4297 8.13849 14.3646C7.81622 14.2996 7.51109 14.1679 7.24264 13.9781C6.97418 13.7883 6.74832 13.5445 6.57951 13.2624C6.4107 12.9803 6.30267 12.666 6.26232 12.3397C6.2213 12.0164 6.25036 11.6881 6.34752 11.377C6.44469 11.0659 6.60768 10.7794 6.82542 10.5369C7.13487 10.1743 7.54627 9.91326 8.0061 9.78765V10.6141L10.9941 8.67962L8.0061 6.74512V7.5171C7.20429 7.61485 6.4434 7.92597 5.80281 8.418C5.16221 8.91003 4.66538 9.56494 4.36415 10.3144C4.00671 11.1495 3.90954 12.073 4.08535 12.9642C4.26116 13.8554 4.70176 14.6728 5.34957 15.3096C5.7754 15.7383 6.28205 16.0782 6.84016 16.3097C7.39827 16.5412 7.99676 16.6597 8.60099 16.6583C9.77713 16.6583 11.3347 16.1134 12.0522 15.0689C12.5835 14.2788 13.6961 12.0627 14.0685 11.2998L10.0995 13.8746Z" fill="white"/>
<path d="M18.6413 8.82038C18.2166 8.39281 17.7114 8.05352 17.1549 7.82204C16.5985 7.59057 16.0017 7.47149 15.399 7.47168C14.2228 7.47168 12.6652 8.01661 11.9478 9.06106C11.4119 9.84667 10.3039 12.0627 9.92697 12.8256L13.8959 10.2508C14.1779 10.0088 14.5171 9.84312 14.8813 9.76947C15.202 9.69942 15.5339 9.69702 15.8556 9.76242C16.1773 9.82783 16.4819 9.95961 16.7498 10.1493C17.0178 10.3391 17.2432 10.5826 17.4117 10.8643C17.5802 11.1461 17.6881 11.4599 17.7286 11.7857C17.7722 12.1109 17.7449 12.4416 17.6485 12.7552C17.552 13.0688 17.3888 13.3577 17.17 13.6022C16.8599 13.9631 16.4486 14.2225 15.9893 14.3469V13.525L13.0013 15.4595L15.9939 17.3894V16.6174C16.7952 16.5201 17.5557 16.2097 18.1963 15.7185C18.8368 15.2273 19.3339 14.5733 19.6358 13.8247C19.9937 12.9886 20.0907 12.0639 19.914 11.1717C19.7374 10.2795 19.2954 9.46156 18.6459 8.82492L18.6413 8.82038Z" fill="white"/>
<path d="M23.5 12C23.5 18.3513 18.3513 23.5 12 23.5C5.64873 23.5 0.5 18.3513 0.5 12C0.5 5.64873 5.64873 0.5 12 0.5C18.3513 0.5 23.5 5.64873 23.5 12Z" stroke="white" stroke-opacity="0.3"/>
</svg>
