<svg width="24" height="24" viewBox="0 0 24 24" fill="none" xmlns="http://www.w3.org/2000/svg">
<path d="M12 24C18.6274 24 24 18.6274 24 12C24 5.37258 18.6274 0 12 0C5.37258 0 0 5.37258 0 12C0 18.6274 5.37258 24 12 24Z" fill="#F5F5F5"/>
<path d="M6.86251 17.4735C6.67939 17.5107 6.52464 17.5395 6.371 17.5734C5.92739 17.6714 5.4952 17.8022 5.09064 18.0136C4.95468 18.0848 4.82462 18.1651 4.70598 18.2635C4.2281 18.6595 4.22442 19.0987 4.69861 19.4963C4.96021 19.7159 5.26676 19.8563 5.58547 19.9686C6.49185 20.2881 7.4314 20.4016 8.38679 20.4134C10.0128 20.4336 11.638 20.392 13.2632 20.34C13.8295 20.322 14.3914 20.2582 14.9323 20.0939C18.087 19.1341 19.9974 17.0384 20.5084 13.7743C20.8533 11.5709 20.2416 9.57948 18.811 7.86582C18.1098 7.02612 17.2543 6.33639 16.4455 5.60391C16.0328 5.22993 15.6047 4.86775 15.1058 4.60799C14.062 4.06416 12.9511 3.76498 11.7732 3.75798C9.10895 3.7425 6.97084 4.80916 5.4053 6.96091C4.248 8.5515 3.83717 10.3558 4.05677 12.3034C4.15073 13.138 4.38874 13.9253 4.82351 14.6574C5.4134 15.65 6.02355 16.6235 6.86251 17.4735Z" fill="#FDFDFD"/>
<path d="M6.86251 17.4735C6.02355 16.6235 5.4134 15.65 4.82351 14.6574C4.38874 13.9253 4.15073 13.1376 4.05677 12.3034C3.83717 10.3562 4.248 8.5515 5.4053 6.96091C6.97084 4.80916 9.10895 3.7425 11.7732 3.75798C12.9515 3.76498 14.0624 4.06379 15.1058 4.60762C15.6047 4.86738 16.0328 5.22956 16.4455 5.60354C17.2543 6.33639 18.1098 7.02576 18.811 7.86545C20.2416 9.57911 20.8533 11.5706 20.5084 13.7739C19.9977 17.038 18.0873 19.1337 14.9323 20.0935C14.3914 20.2579 13.8295 20.3216 13.2632 20.3397C11.638 20.3913 10.0128 20.4333 8.38679 20.413C7.43177 20.4012 6.49185 20.2877 5.58547 19.9683C5.26676 19.8559 4.96021 19.7155 4.69861 19.4959C4.22442 19.098 4.2281 18.6588 4.70598 18.2631C4.82425 18.1651 4.95431 18.0848 5.09064 18.0133C5.4952 17.8018 5.92739 17.671 6.371 17.573C6.52464 17.5395 6.67939 17.5107 6.86251 17.4735ZM6.08287 12.7478C6.08508 16.5535 9.17085 19.6256 12.9872 19.6499C16.6843 19.6735 19.9067 16.6758 19.9034 12.7378C19.9001 8.92032 16.7952 5.8364 12.995 5.8353C9.19111 5.83382 6.08066 8.94464 6.08287 12.7478ZM15.0723 5.42926C15.0008 5.31615 14.9076 5.28225 14.8247 5.23914C13.3177 4.45656 11.7238 4.21301 10.0783 4.62015C7.33781 5.2981 5.6131 7.04491 4.86957 9.76554C4.83936 9.87608 4.87473 9.93135 4.97568 9.97814C5.19823 10.0806 5.41745 10.19 5.633 10.3064C5.73764 10.3628 5.7789 10.3584 5.82275 10.2327C6.23799 9.0478 6.90157 8.01983 7.83043 7.17498C9.51977 5.63781 11.5105 4.98639 13.7835 5.18977C14.2105 5.22772 14.6283 5.31799 15.0723 5.42926ZM4.71777 10.7202C4.70487 10.9586 4.70008 11.1671 4.68056 11.3746C4.65624 11.6343 4.71924 11.8255 5.00479 11.8944C5.1098 11.9199 5.20744 11.9799 5.30581 12.0297C5.38577 12.0702 5.43035 12.0647 5.43809 11.963C5.45688 11.7121 5.49814 11.4645 5.5512 11.2187C5.5641 11.1594 5.54125 11.1277 5.49078 11.103C5.23876 10.9796 4.98784 10.8543 4.71777 10.7202ZM5.58399 14.5351C5.49188 14.0289 5.40935 13.523 5.40382 13.0075C5.40345 12.9589 5.38503 12.9246 5.34229 12.9051C5.17465 12.8281 5.00663 12.7526 4.83236 12.6733C4.89168 13.3856 5.21997 13.9655 5.58399 14.5351Z" fill="#020202"/>
<path d="M6.08289 12.7484C6.08068 8.94528 9.19113 5.83446 12.995 5.83594C16.7952 5.83741 19.9005 8.92096 19.9034 12.7385C19.9067 16.6761 16.6843 19.6742 12.9873 19.6506C9.17086 19.6263 6.08547 16.5541 6.08289 12.7484ZM11.1605 11.4106C10.9228 11.4106 10.7139 11.4168 10.5058 11.408C10.3967 11.4032 10.3613 11.4459 10.3337 11.5458C10.2445 11.87 10.1465 12.1921 10.043 12.5119C9.99729 12.6537 9.97813 12.807 9.88749 12.9492C9.75633 12.5572 9.62995 12.181 9.50468 11.8048C9.36909 11.3973 9.36909 11.4062 8.94205 11.3929C8.77404 11.3877 8.6974 11.4327 8.64729 11.6C8.5117 12.0546 8.3529 12.5027 8.19189 12.9883C8.04009 12.482 7.90118 12.013 7.75786 11.5458C7.74054 11.4898 7.74828 11.4069 7.64401 11.4091C7.40746 11.4139 7.17055 11.4106 6.91558 11.4106C7.18676 12.2263 7.4502 13.0196 7.71438 13.8125C7.8297 14.1588 7.83044 14.1588 8.19336 14.1588C8.48849 14.1588 8.48849 14.1588 8.58871 13.8729C8.73462 13.4566 8.88015 13.0406 9.03638 12.594C9.18265 13.0089 9.31713 13.3891 9.45125 13.7694C9.58831 14.1585 9.58831 14.1463 9.99361 14.1636C10.1926 14.1721 10.274 14.1084 10.3337 13.9182C10.5971 13.087 10.8786 12.261 11.1605 11.4106ZM16.6434 12.7683C16.6434 13.167 16.6522 13.5656 16.639 13.9636C16.6334 14.1246 16.6869 14.1706 16.8331 14.1459C16.8571 14.1419 16.8821 14.1459 16.9065 14.1452C17.0649 14.1412 17.276 14.1972 17.3678 14.1168C17.4753 14.0225 17.3913 13.8055 17.4042 13.6423C17.4182 13.4673 17.3261 13.234 17.4418 13.1338C17.5413 13.048 17.7683 13.1069 17.9392 13.1069C18.0789 13.1069 18.2627 13.0623 18.3456 13.1327C18.434 13.2079 18.3644 13.3976 18.3744 13.5373C18.3884 13.7366 18.2852 14.0104 18.4145 14.115C18.5376 14.2148 18.8007 14.1419 19.0018 14.1448C19.0081 14.1448 19.0144 14.1441 19.0202 14.1448C19.1105 14.1577 19.1352 14.1154 19.1348 14.0299C19.1326 13.1961 19.1319 12.3623 19.1356 11.5285C19.1359 11.4249 19.0954 11.4058 19.0051 11.4087C18.8397 11.4139 18.6735 11.419 18.5088 11.4073C18.3869 11.3988 18.3681 11.4471 18.3714 11.5539C18.3788 11.8052 18.3696 12.0568 18.3758 12.3077C18.3784 12.4043 18.3504 12.433 18.2535 12.4304C18.0147 12.4234 17.7753 12.4238 17.5365 12.4304C17.4348 12.4334 17.3987 12.4058 17.4016 12.2993C17.409 12.048 17.3998 11.7963 17.4061 11.5454C17.4086 11.4441 17.3825 11.4025 17.2742 11.408C17.1154 11.4161 16.9547 11.4194 16.7963 11.4073C16.6611 11.3969 16.6375 11.45 16.6397 11.5723C16.6482 11.971 16.6434 12.3696 16.6434 12.7683ZM11.4586 12.7665C11.4586 13.1526 11.4674 13.5395 11.4545 13.9252C11.4486 14.0955 11.4825 14.1559 11.6693 14.1504C12.1778 14.1353 12.687 14.1478 13.1958 14.1437C13.3524 14.1423 13.5576 14.2141 13.6534 14.1117C13.7477 14.0104 13.6674 13.8066 13.684 13.6493C13.6987 13.5115 13.6365 13.489 13.5156 13.4916C13.1785 13.4989 12.8414 13.4942 12.5039 13.4942C12.2043 13.4942 12.2102 13.4942 12.2117 13.1917C12.2124 13.0804 12.2526 13.0612 12.3506 13.0638C12.5897 13.0701 12.8288 13.0656 13.0679 13.0656C13.5396 13.0656 13.5355 13.0656 13.5237 12.5915C13.5208 12.4817 13.4836 12.4603 13.3841 12.4618C13.0348 12.4669 12.6851 12.4603 12.3358 12.4658C12.2386 12.4673 12.2021 12.4393 12.2139 12.3424C12.2205 12.2879 12.2213 12.2315 12.2139 12.1773C12.1988 12.0657 12.2529 12.048 12.3502 12.0498C12.6199 12.0554 12.8896 12.0554 13.1593 12.0502C13.3225 12.0473 13.5462 12.1224 13.632 12.0193C13.7146 11.9205 13.6508 11.7042 13.6623 11.5406C13.6696 11.4349 13.6332 11.4076 13.5296 11.4084C12.8859 11.4128 12.2419 11.4132 11.5982 11.408C11.4844 11.4073 11.4534 11.4397 11.4552 11.5528C11.4626 11.9574 11.4586 12.3619 11.4586 12.7665ZM15.1132 11.4106C14.8862 11.4106 14.6593 11.4058 14.4327 11.412C14.2636 11.4168 14.0248 11.3347 13.9434 11.4456C13.8575 11.562 13.9231 11.7871 13.9146 11.964C13.9102 12.0557 13.9463 12.0789 14.0318 12.0764C14.2157 12.0712 14.3999 12.0823 14.5834 12.0719C14.7039 12.0653 14.7363 12.1022 14.7352 12.2226C14.7289 12.8052 14.7381 13.3877 14.7282 13.9698C14.7256 14.1209 14.7731 14.1588 14.9128 14.1474C15.0528 14.136 15.1954 14.1364 15.3354 14.1474C15.4651 14.1577 15.5005 14.1146 15.4986 13.9849C15.4912 13.4455 15.4957 12.9057 15.4957 12.3663C15.4957 12.0745 15.4957 12.0789 15.7956 12.0727C15.9651 12.0694 16.1972 12.1501 16.2864 12.038C16.3711 11.9319 16.3037 11.709 16.3147 11.5384C16.3217 11.4297 16.2816 11.4062 16.1802 11.408C15.8247 11.4139 15.4688 11.4106 15.1132 11.4106Z" fill="#FDFDFD"/>
<path d="M15.0723 5.42944C14.6284 5.31817 14.2105 5.2279 13.7835 5.18958C11.5105 4.9862 9.51981 5.63762 7.83047 7.17479C6.90161 8.02001 6.23804 9.04762 5.82279 10.2325C5.77895 10.3578 5.73768 10.3626 5.63304 10.3062C5.4175 10.1898 5.1979 10.0804 4.97573 9.97795C4.8744 9.93152 4.8394 9.87589 4.86961 9.76535C5.61315 7.04509 7.33786 5.29828 10.0784 4.62033C11.7239 4.21319 13.3182 4.45711 14.8247 5.23932C14.9076 5.28243 15.0009 5.31633 15.0723 5.42944Z" fill="#FB0179"/>
<path d="M4.71776 10.7197C4.98783 10.8538 5.23875 10.9791 5.4904 11.1029C5.54088 11.1276 5.56335 11.1593 5.55082 11.2186C5.49814 11.4644 5.45687 11.712 5.43771 11.9629C5.42997 12.0646 5.38539 12.0701 5.30544 12.0296C5.20743 11.9795 5.10979 11.9198 5.00441 11.8943C4.71887 11.8254 4.65586 11.6342 4.68018 11.3745C4.70007 11.1667 4.70486 10.9581 4.71776 10.7197Z" fill="#FB0179"/>
<path d="M5.58403 14.5352C5.22037 13.9652 4.89172 13.3853 4.8324 12.6738C5.00667 12.753 5.17506 12.8286 5.34233 12.9056C5.38507 12.9251 5.40349 12.9594 5.40386 13.008C5.40939 13.5231 5.49155 14.0294 5.58403 14.5352Z" fill="#FB0179"/>
<path d="M11.1605 11.41C10.8786 12.2603 10.5968 13.0864 10.3344 13.9184C10.2744 14.1085 10.1933 14.1722 9.99435 14.1638C9.58905 14.1461 9.58868 14.1586 9.45199 13.7695C9.31824 13.3893 9.18376 13.009 9.03712 12.5942C8.88089 13.0404 8.73499 13.4567 8.58945 13.873C8.48923 14.159 8.48923 14.159 8.1941 14.159C7.83118 14.159 7.83081 14.1593 7.71512 13.8126C7.45094 13.0197 7.1875 12.2268 6.91632 11.4107C7.17092 11.4107 7.40783 11.414 7.64474 11.4092C7.74865 11.407 7.74128 11.4903 7.7586 11.5459C7.90229 12.0135 8.0412 12.4822 8.19263 12.9884C8.35364 12.5028 8.51244 12.0551 8.64803 11.6001C8.69777 11.4328 8.77441 11.3875 8.94279 11.393C9.36982 11.4063 9.36982 11.3974 9.50541 11.8049C9.63069 12.1811 9.75706 12.5569 9.88823 12.9493C9.97887 12.8068 9.99803 12.6539 10.0437 12.512C10.1469 12.1918 10.2449 11.8698 10.3344 11.5459C10.3617 11.4464 10.3974 11.4033 10.5065 11.4081C10.7143 11.4162 10.9228 11.41 11.1605 11.41Z" fill="#020202"/>
<path d="M16.6434 12.7682C16.6434 12.3695 16.6481 11.9712 16.6404 11.5726C16.6382 11.4502 16.6618 11.3972 16.797 11.4075C16.9554 11.4197 17.1161 11.4163 17.2749 11.4082C17.3828 11.4027 17.4094 11.444 17.4068 11.5457C17.4005 11.797 17.4097 12.0486 17.4024 12.2995C17.399 12.406 17.4355 12.4336 17.5372 12.4307C17.776 12.4241 18.0155 12.4241 18.2542 12.4307C18.3511 12.4336 18.3791 12.4045 18.3765 12.308C18.3699 12.0567 18.3795 11.8051 18.3721 11.5541C18.3688 11.4473 18.3876 11.3987 18.5095 11.4075C18.6742 11.4193 18.8404 11.4141 19.0058 11.409C19.0958 11.406 19.1366 11.4256 19.1363 11.5287C19.1326 12.3625 19.1333 13.1963 19.1355 14.0301C19.1359 14.116 19.1109 14.1583 19.021 14.1451C19.0151 14.1443 19.0088 14.1451 19.0025 14.1451C18.801 14.1421 18.5383 14.2147 18.4152 14.1152C18.2863 14.0106 18.3891 13.7368 18.3751 13.5375C18.3655 13.3982 18.4348 13.2081 18.3463 13.133C18.2634 13.0622 18.0796 13.1068 17.9399 13.1072C17.7693 13.1072 17.5424 13.0482 17.4425 13.1341C17.3268 13.2339 17.4186 13.4675 17.4049 13.6425C17.392 13.8057 17.476 14.0228 17.3685 14.1171C17.2767 14.1974 17.0656 14.1414 16.9072 14.1455C16.8825 14.1462 16.8574 14.1421 16.8338 14.1462C16.6876 14.1712 16.6341 14.1248 16.6397 13.9638C16.6526 13.5655 16.6434 13.1665 16.6434 12.7682Z" fill="#020202"/>
<path d="M11.4585 12.7661C11.4585 12.3615 11.4626 11.9566 11.4559 11.552C11.4541 11.4389 11.485 11.4065 11.5989 11.4072C12.2426 11.4124 12.8866 11.412 13.5303 11.4076C13.6338 11.4069 13.6703 11.4341 13.663 11.5399C13.6515 11.7038 13.7149 11.9198 13.6327 12.0185C13.5465 12.1217 13.3232 12.0465 13.16 12.0494C12.8903 12.0546 12.6202 12.0546 12.3509 12.0491C12.254 12.0472 12.1995 12.0649 12.2146 12.1766C12.2219 12.2307 12.2212 12.2875 12.2146 12.3416C12.2028 12.4385 12.2393 12.4665 12.3365 12.4651C12.6858 12.4595 13.0355 12.4662 13.3848 12.461C13.4839 12.4595 13.5215 12.4813 13.5244 12.5907C13.5366 13.0653 13.5406 13.0649 13.0686 13.0649C12.8295 13.0649 12.5904 13.0689 12.3513 13.063C12.2533 13.0605 12.2127 13.0796 12.2124 13.1909C12.2109 13.4934 12.2046 13.4934 12.5045 13.4934C12.8417 13.4934 13.1792 13.4982 13.5163 13.4908C13.6372 13.4882 13.6994 13.5107 13.6847 13.6485C13.6677 13.8058 13.7484 14.0096 13.6541 14.1109C13.5587 14.2133 13.3535 14.1415 13.1965 14.143C12.6877 14.1474 12.1785 14.1349 11.67 14.1496C11.4832 14.1551 11.4493 14.0947 11.4552 13.9245C11.4674 13.5391 11.4585 13.1526 11.4585 12.7661Z" fill="#020202"/>
<path d="M15.1132 11.4097C15.4687 11.4097 15.8247 11.413 16.1798 11.4075C16.2808 11.406 16.3213 11.4296 16.3143 11.5379C16.3029 11.7085 16.3703 11.9314 16.286 12.0375C16.1968 12.1495 15.9643 12.0689 15.7952 12.0722C15.4956 12.0784 15.4953 12.074 15.4953 12.3658C15.4953 12.9052 15.4908 13.445 15.4982 13.9844C15.5001 14.1137 15.4651 14.1572 15.335 14.1469C15.195 14.1355 15.0524 14.1355 14.9124 14.1469C14.7727 14.1583 14.7252 14.1204 14.7278 13.9693C14.7377 13.3872 14.7282 12.8043 14.7348 12.2221C14.7363 12.1013 14.7035 12.0648 14.583 12.0714C14.3995 12.0817 14.2153 12.0703 14.0314 12.0759C13.9459 12.0784 13.9098 12.0552 13.9142 11.9635C13.9227 11.7863 13.8575 11.5615 13.943 11.4451C14.0244 11.3342 14.2632 11.4163 14.4323 11.4115C14.6593 11.4049 14.8862 11.4097 15.1132 11.4097Z" fill="#020202"/>
<path d="M23.5 12C23.5 18.3513 18.3513 23.5 12 23.5C5.64873 23.5 0.5 18.3513 0.5 12C0.5 5.64873 5.64873 0.5 12 0.5C18.3513 0.5 23.5 5.64873 23.5 12Z" stroke="black" stroke-opacity="0.097"/>
</svg>
