<svg width="24" height="24" viewBox="0 0 24 24" fill="none" xmlns="http://www.w3.org/2000/svg">
<path fill-rule="evenodd" clip-rule="evenodd" d="M0 12C0 5.37259 5.37259 0 12 0C18.6274 0 24 5.37259 24 12C24 18.6274 18.6274 24 12 24C5.37259 24 0 18.6274 0 12Z" fill="#EBEAEA"/>
<path d="M23.5 12C23.5 18.3513 18.3513 23.5 12 23.5C5.64873 23.5 0.5 18.3513 0.5 12C0.5 5.64873 5.64873 0.5 12 0.5C18.3513 0.5 23.5 5.64873 23.5 12Z" stroke="black" stroke-opacity="0.097"/>
<path d="M12.8415 17.8635H17.5106C16.232 19.0705 14.5907 19.8216 12.8415 20.0001V17.8635ZM6.52776 17.8635H11.1969V20.0001C9.44768 19.8216 7.80634 19.0705 6.52776 17.8635V17.8635ZM12.8415 16.2221V14.3115H19.7081C19.5088 14.9832 19.2215 15.6257 18.8538 16.2221H12.8415ZM5.18616 16.2221C4.82027 15.6249 4.53362 14.9827 4.33344 14.3115H11.2001V16.2221H5.18616Z" fill="#65C4FF"/>
<path d="M12.8414 12.67V11.4631L17.8215 6.48294C19.2463 7.97207 20.0415 9.95352 20.0415 12.0144C20.0415 12.2324 20.0303 12.4488 20.0143 12.6636L12.8414 12.67ZM4.02565 12.67C4.00962 12.4552 4 12.2388 4 12.0144C3.99851 9.95306 4.79326 7.97076 6.21837 6.48134L11.2001 11.4631V12.6684L4.02565 12.67ZM7.47181 5.41383C8.80978 4.49301 10.3957 4 12.02 4C13.6442 4 15.2301 4.49301 16.5681 5.41383L12.0143 9.96277L7.47181 5.41383Z" fill="#1866ED"/>
</svg>
