<svg width="825" height="161" viewBox="0 0 825 161" fill="none" xmlns="http://www.w3.org/2000/svg">
<path d="M128.325 0L78.0921 28.8496V118.891L50.3761 134.957L22.4907 118.878V86.7314L50.3761 70.808L68.3062 81.2064V55.1974L50.2198 44.9293L0 74.1048V131.817L50.3892 160.836L100.609 131.817V41.789L128.494 25.7093L156.367 41.789V73.792L128.494 90.0151L110.408 79.5255V105.404L128.325 115.737L179.04 86.8877V28.8496L128.325 0Z" fill="#6C00F6"/>
<path fill-rule="evenodd" clip-rule="evenodd" d="M423.037 125.002H445.554V1.57666H423.037V125.002ZM278.28 37.2673C288.952 37.2673 297.8 41.5544 304.798 50.1155C311.808 58.6765 315.3 69.2965 315.3 81.9752C315.3 94.6539 311.795 105.274 304.798 113.835C297.787 122.396 288.952 126.683 278.28 126.683C270.723 126.683 264.155 124.351 258.604 119.673C253.157 114.89 249.157 108.44 246.59 100.322V158.36H224.073V38.9353H246.59V63.6151C249.144 55.4971 253.157 49.0991 258.604 44.4342C264.168 39.6519 270.723 37.2673 278.28 37.2673ZM270.097 106.16C276.208 106.16 281.382 103.88 285.604 99.3188C289.825 94.6539 291.936 88.8683 291.936 81.9752C291.936 75.082 289.825 69.518 285.604 64.9573C281.382 60.2923 276.208 57.9468 270.097 57.9468C263.308 57.9468 257.705 60.2272 253.249 64.7879C248.805 69.3486 246.577 75.069 246.577 81.9622C246.577 88.8553 248.805 94.6409 253.249 99.3058C257.692 103.867 263.308 106.147 270.097 106.147V106.16ZM321.281 81.9752C321.281 94.6539 325.672 105.274 334.455 113.835C343.238 122.396 354.196 126.683 367.318 126.683C380.44 126.683 391.399 122.396 400.181 113.835C408.964 105.274 413.355 94.6539 413.355 81.9752C413.355 69.2965 408.964 58.6765 400.181 50.1155C391.399 41.5544 380.44 37.2673 367.318 37.2673C354.196 37.2673 343.238 41.5544 334.455 50.1155C325.672 58.6765 321.281 69.2965 321.281 81.9752ZM351.134 99.3188C346.795 94.6539 344.632 88.8683 344.632 81.9752C344.632 75.082 346.795 69.518 351.134 64.9573C355.473 60.2923 360.868 57.9468 367.318 57.9468C373.768 57.9468 379.163 60.2272 383.502 64.7879C387.841 69.3486 390.004 75.069 390.004 81.9622C390.004 88.8553 387.841 94.6409 383.502 99.3058C379.163 103.867 373.768 106.147 367.318 106.147C360.868 106.147 355.473 103.867 351.134 99.3058V99.3188ZM653.573 113.835C644.791 105.274 640.399 94.6539 640.399 81.9752C640.399 69.2965 644.791 58.6765 653.573 50.1155C662.356 41.5544 673.315 37.2673 686.436 37.2673C699.558 37.2673 710.517 41.5544 719.299 50.1155C728.082 58.6765 732.473 69.2965 732.473 81.9752C732.473 94.6539 728.082 105.274 719.299 113.835C710.517 122.396 699.558 126.683 686.436 126.683C673.315 126.683 662.369 122.396 653.573 113.835ZM663.737 81.9752C663.737 88.8683 665.9 94.6539 670.239 99.3188C674.579 103.88 679.973 106.16 686.423 106.16C692.873 106.16 698.268 103.88 702.607 99.3188C706.946 94.6539 709.11 88.8683 709.11 81.9752C709.11 75.082 706.946 69.3486 702.607 64.8009C698.268 60.2402 692.873 57.9599 686.423 57.9599C679.973 57.9599 674.579 60.2923 670.239 64.9703C665.9 69.531 663.737 75.1993 663.737 81.9882V81.9752ZM792.401 37.2673C801.965 37.2673 809.64 40.6032 815.413 47.2748C821.303 53.9465 824.247 62.4554 824.247 72.7886V124.989H801.731V76.789C801.731 71.225 799.959 66.6643 796.388 63.1069C792.831 59.5496 788.387 57.7644 783.045 57.7644C777.038 57.7644 772.151 59.5496 768.372 63.1069C764.594 66.6643 762.704 71.225 762.704 76.789V124.989H740.187V38.9353H762.704V60.9569C764.932 53.6207 768.659 47.8351 773.884 43.6132C779.227 39.3913 785.39 37.2804 792.401 37.2804V37.2673ZM499.643 102.055L522.655 39.0134H545.511L498.145 158.438H475.289L487.303 128.077L452.108 39.0134H476.462L499.643 102.055ZM609.543 38.9353V60.5008C604.852 46.4278 593.268 38.9353 577.853 38.9353C554.58 38.9353 540.82 59.2629 540.82 80.633C540.82 102.003 554.476 123.999 577.853 123.999C593.268 123.999 604.852 112.884 609.543 98.8107V115.32C609.543 122.331 607.263 128.103 602.702 132.664C598.141 137.225 592.59 139.505 586.023 139.505C577.123 139.505 570.517 135.062 566.177 126.162L545.993 136.834C549.772 143.844 555.167 149.447 562.177 153.682C569.187 157.904 577.136 160.015 586.023 160.015C599.145 160.015 610.103 155.741 618.886 147.167C627.669 138.606 632.06 127.986 632.06 115.307V38.9353H609.543ZM603.041 96.9864C598.702 101.326 593.255 103.489 586.701 103.489C580.146 103.489 575.025 101.326 570.686 96.9864C566.347 92.543 564.184 87.0962 564.184 80.6461C564.184 74.1959 566.347 68.8013 570.686 64.4621C575.025 60.1229 580.355 57.9599 586.701 57.9599C593.046 57.9599 598.715 60.1229 603.041 64.4621C607.38 68.684 609.543 74.0787 609.543 80.6461C609.543 87.2135 607.38 92.6602 603.041 96.9864Z" fill="black"/>
</svg>
