<svg width="124" height="28" viewBox="0 0 124 28" fill="none" xmlns="http://www.w3.org/2000/svg">
<path d="M4.25791 7.10107V23.3636H2.00439V7.10107H4.25791Z" fill="white"/>
<path d="M20.3021 7.10107V23.3636H16.6082L10.4516 9.2849V23.3636H8.19812V7.10107H11.892L18.0486 21.1333V7.10107H20.3021Z" fill="white"/>
<path d="M35.8538 9.23843H30.6034V23.3636H28.3498V9.23843H23.0994V7.10107H35.8538V9.23843Z" fill="white"/>
<path d="M48.6812 21.2262V23.3636H38.6449V7.10107H48.6115V9.23843H40.8985V13.8616H47.5661V15.999H40.8985V21.2262H48.6812Z" fill="white"/>
<path d="M61.0729 23.3636L57.2163 17.2071C57.0614 17.2225 56.8136 17.2303 56.4729 17.2303H54.08V23.3636H51.8265V7.10107H56.4729C58.7032 7.10107 60.3294 7.49602 61.3517 8.28591C62.3739 9.06032 62.885 10.3536 62.885 12.1657C62.885 13.4512 62.6294 14.4734 62.1183 15.2323C61.6072 15.9912 60.7863 16.5333 59.6557 16.8586L63.7678 23.3636H61.0729ZM56.4729 15.0697C57.6035 15.0697 58.4554 14.9845 59.0284 14.8141C59.617 14.6438 60.0274 14.3573 60.2597 13.9546C60.4921 13.5364 60.6082 12.9323 60.6082 12.1425C60.6082 11.3835 60.4921 10.8027 60.2597 10.4C60.0429 9.98186 59.6402 9.68759 59.0517 9.51722C58.4631 9.34685 57.6035 9.26166 56.4729 9.26166H54.08V15.0697H56.4729Z" fill="white"/>
<path d="M70.4387 7.10107C72.8084 7.10107 74.5353 7.51925 75.6195 8.35561C76.7036 9.19197 77.2457 10.5704 77.2457 12.4909C77.2457 14.3495 76.7191 15.7125 75.6659 16.5798C74.6127 17.4316 72.8703 17.8576 70.4387 17.8576H68.464V23.3636H66.2104V7.10107H70.4387ZM70.4387 15.697C71.6777 15.697 72.6148 15.5963 73.2498 15.395C73.9003 15.1781 74.3494 14.8451 74.5972 14.396C74.8451 13.9313 74.969 13.2886 74.969 12.4677C74.969 11.6313 74.8373 10.9886 74.574 10.5394C74.3262 10.0748 73.8771 9.74954 73.2266 9.56368C72.5915 9.36234 71.6623 9.26166 70.4387 9.26166H68.464V15.697H70.4387Z" fill="white"/>
<path d="M108.503 23.6248L104.646 17.4683C104.491 17.4838 104.244 17.4915 103.903 17.4915H101.51V23.6248H99.2564V7.3623H103.903C106.133 7.3623 107.759 7.75725 108.782 8.54714C109.804 9.32155 110.315 10.6148 110.315 12.4269C110.315 13.7124 110.059 14.7346 109.548 15.4936C109.037 16.2525 108.216 16.7946 107.086 17.1198L111.198 23.6248H108.503ZM103.903 15.3309C105.033 15.3309 105.885 15.2457 106.458 15.0754C107.047 14.905 107.457 14.6185 107.69 14.2158C107.922 13.7976 108.038 13.1936 108.038 12.4037C108.038 11.6448 107.922 11.064 107.69 10.6613C107.473 10.2431 107.07 9.94882 106.482 9.77845C105.893 9.60808 105.033 9.52289 103.903 9.52289H101.51V15.3309H103.903Z" fill="white"/>
<path d="M123.963 9.49966H118.712V23.6248H116.459V9.49966H111.208V7.3623H123.963V9.49966Z" fill="white"/>
<path d="M93.7862 22.488C92.458 23.5614 91.1703 24.1958 89.9231 24.3914C88.6892 24.5762 87.437 24.3037 86.1666 23.5739C84.8961 22.8441 83.5578 21.6092 82.1517 19.8693C80.7885 18.1825 79.8701 16.6521 79.3966 15.2783C78.9231 13.9045 78.8954 12.6204 79.3135 11.4262C79.7449 10.2212 80.6513 9.0606 82.0326 7.94427C83.3475 6.88161 84.622 6.25789 85.8559 6.07308C87.0898 5.88828 88.342 6.16078 89.6124 6.89058C90.8829 7.62039 92.2212 8.85526 93.6273 10.5952C95.656 13.1055 96.6977 15.3046 96.7524 17.1926C96.8071 19.0806 95.8184 20.8457 93.7862 22.488ZM92.2889 20.6352C93.2319 19.8731 93.8348 19.1113 94.0978 18.3499C94.374 17.5778 94.3204 16.7099 93.9369 15.7463C93.5559 14.7588 92.8019 13.5677 91.6749 12.1731C90.5478 10.7785 89.5468 9.79796 88.6719 9.23156C87.7995 8.64113 86.9569 8.39994 86.144 8.50798C85.3443 8.60529 84.473 9.03499 83.53 9.7971C82.5604 10.5807 81.9375 11.3585 81.6613 12.1307C81.3744 12.8895 81.428 13.7574 81.8222 14.7342C82.2057 15.6978 82.9664 16.8835 84.1042 18.2914C85.2312 19.686 86.2309 20.6785 87.1033 21.2689C87.9782 21.8353 88.8221 22.0645 89.635 21.9565C90.448 21.8484 91.3326 21.408 92.2889 20.6352Z" fill="url(#paint0_linear_1_563)"/>
<path d="M3.09865 0.119629C3.09865 0.119629 2.98876 2.01305 3.52207 2.72225C4.05537 3.43145 5.5801 3.41953 5.5801 3.41953C5.5801 3.41953 4.05537 3.45368 3.52207 4.16288C2.98876 4.87208 3.09865 6.71943 3.09865 6.71943C3.09865 6.71943 3.11455 4.87208 2.58125 4.16288C2.04795 3.45368 0.617188 3.41953 0.617188 3.41953C0.617188 3.41953 2.04795 3.43145 2.58125 2.72225C3.11455 2.01305 3.09865 0.119629 3.09865 0.119629Z" fill="white"/>
<defs>
<linearGradient id="paint0_linear_1_563" x1="83.8584" y1="3.27439" x2="84.7327" y2="29.4172" gradientUnits="userSpaceOnUse">
<stop offset="0.192708" stop-color="#EF2EC5"/>
<stop offset="1" stop-color="#322EEF"/>
</linearGradient>
</defs>
</svg>
